<?xml version="1.0" standalone="no"?>
<!DOCTYPE svg PUBLIC "-//W3C//DTD SVG 1.1//EN" "http://www.w3.org/Graphics/SVG/1.1/DTD/svg11.dtd" >
<svg xmlns="http://www.w3.org/2000/svg" xmlns:xlink="http://www.w3.org/1999/xlink" version="1.1">
<metadata>
Created by FontForge 20170731 at Fri Mar 31 19:44:49 2023
 By Aleksey,,,
Copyright Daniel Sabino | Blackletra Type Foundry
</metadata>
<defs>
<font id="NokaTrial-Semibold" horiz-adv-x="1755" >
  <font-face 
    font-family="Noka Trial Semibold"
    font-weight="600"
    font-stretch="normal"
    units-per-em="2048"
    panose-1="0 0 0 0 0 0 0 0 0 0"
    ascent="1638"
    descent="-410"
    x-height="1053"
    cap-height="1536"
    bbox="10 -410 2028 1567"
    underline-thickness="0"
    underline-position="0"
    unicode-range="U+0020-FB02"
  />
<missing-glyph 
d="M117 0v1536h1521v-1536h-1521zM328 201h1099v1134h-1099v-1134zM1083 416l-215 215l-215 -215l-127 125l217 217l-217 215l127 127l215 -217l215 215l127 -125l-215 -215l215 -217z" />
    <glyph glyph-name=".notdef" 
d="M117 0v1536h1521v-1536h-1521zM328 201h1099v1134h-1099v-1134zM1083 416l-215 215l-215 -215l-127 125l217 217l-217 215l127 127l215 -217l215 215l127 -125l-215 -215l215 -217z" />
    <glyph glyph-name=".null" horiz-adv-x="0" 
 />
    <glyph glyph-name="nonmarkingreturn" horiz-adv-x="682" 
 />
    <glyph glyph-name="space" unicode=" " horiz-adv-x="434" 
 />
    <glyph glyph-name="exclam" unicode="!" 
d="M117 0v1536h1521v-1536h-1521zM328 201h1099v1134h-1099v-1134zM1083 416l-215 215l-215 -215l-127 125l217 217l-217 215l127 127l215 -217l215 215l127 -125l-215 -215l215 -217z" />
    <glyph glyph-name="quotedbl" unicode="&#x22;" 
d="M117 0v1536h1521v-1536h-1521zM328 201h1099v1134h-1099v-1134zM1083 416l-215 215l-215 -215l-127 125l217 217l-217 215l127 127l215 -217l215 215l127 -125l-215 -215l215 -217z" />
    <glyph glyph-name="numbersign" unicode="#" 
d="M117 0v1536h1521v-1536h-1521zM328 201h1099v1134h-1099v-1134zM1083 416l-215 215l-215 -215l-127 125l217 217l-217 215l127 127l215 -217l215 215l127 -125l-215 -215l215 -217z" />
    <glyph glyph-name="dollar" unicode="$" 
d="M117 0v1536h1521v-1536h-1521zM328 201h1099v1134h-1099v-1134zM1083 416l-215 215l-215 -215l-127 125l217 217l-217 215l127 127l215 -217l215 215l127 -125l-215 -215l215 -217z" />
    <glyph glyph-name="percent" unicode="%" 
d="M117 0v1536h1521v-1536h-1521zM328 201h1099v1134h-1099v-1134zM1083 416l-215 215l-215 -215l-127 125l217 217l-217 215l127 127l215 -217l215 215l127 -125l-215 -215l215 -217z" />
    <glyph glyph-name="ampersand" unicode="&#x26;" 
d="M117 0v1536h1521v-1536h-1521zM328 201h1099v1134h-1099v-1134zM1083 416l-215 215l-215 -215l-127 125l217 217l-217 215l127 127l215 -217l215 215l127 -125l-215 -215l215 -217z" />
    <glyph glyph-name="quotesingle" unicode="'" 
d="M117 0v1536h1521v-1536h-1521zM328 201h1099v1134h-1099v-1134zM1083 416l-215 215l-215 -215l-127 125l217 217l-217 215l127 127l215 -217l215 215l127 -125l-215 -215l215 -217z" />
    <glyph glyph-name="parenleft" unicode="(" 
d="M117 0v1536h1521v-1536h-1521zM328 201h1099v1134h-1099v-1134zM1083 416l-215 215l-215 -215l-127 125l217 217l-217 215l127 127l215 -217l215 215l127 -125l-215 -215l215 -217z" />
    <glyph glyph-name="parenright" unicode=")" 
d="M117 0v1536h1521v-1536h-1521zM328 201h1099v1134h-1099v-1134zM1083 416l-215 215l-215 -215l-127 125l217 217l-217 215l127 127l215 -217l215 215l127 -125l-215 -215l215 -217z" />
    <glyph glyph-name="asterisk" unicode="*" 
d="M117 0v1536h1521v-1536h-1521zM328 201h1099v1134h-1099v-1134zM1083 416l-215 215l-215 -215l-127 125l217 217l-217 215l127 127l215 -217l215 215l127 -125l-215 -215l215 -217z" />
    <glyph glyph-name="plus" unicode="+" 
d="M117 0v1536h1521v-1536h-1521zM328 201h1099v1134h-1099v-1134zM1083 416l-215 215l-215 -215l-127 125l217 217l-217 215l127 127l215 -217l215 215l127 -125l-215 -215l215 -217z" />
    <glyph glyph-name="comma" unicode="," horiz-adv-x="583" 
d="M254 -301h-215l151 610h302z" />
    <glyph glyph-name="hyphen" unicode="-" horiz-adv-x="919" 
d="M784 453h-649v198h649v-198z" />
    <glyph glyph-name="period" unicode="." horiz-adv-x="495" 
d="M383 0h-270v309h270v-309z" />
    <glyph glyph-name="slash" unicode="/" 
d="M117 0v1536h1521v-1536h-1521zM328 201h1099v1134h-1099v-1134zM1083 416l-215 215l-215 -215l-127 125l217 217l-217 215l127 127l215 -217l215 215l127 -125l-215 -215l215 -217z" />
    <glyph glyph-name="zero" unicode="0" horiz-adv-x="1249" 
d="M1161 520q0 -243 -146.5 -397t-391.5 -154q-243 0 -390 154.5t-147 396.5v494q0 240 147.5 395.5t389.5 155.5q163 0 286 -72t187.5 -196.5t64.5 -282.5v-494zM375 512q0 -126 64.5 -199t183.5 -73q121 0 185 73t64 199v510q0 125 -64.5 198.5t-184.5 73.5
q-118 0 -183 -74t-65 -198v-510z" />
    <glyph glyph-name="one" unicode="1" horiz-adv-x="1249" 
d="M1083 266v-266h-917v266h317v1002h-317v268h610v-1270h307z" />
    <glyph glyph-name="two" unicode="2" horiz-adv-x="1249" 
d="M1135 266v-266h-1016v229l579 639q63 69 87 121.5t24 108.5q0 85 -50 139.5t-147 54.5q-96 0 -150 -60t-54 -145v-24h-289v24q0 100 34.5 187t97.5 152t160 102t216 37q115 0 209 -36t154.5 -98.5t93 -145.5t32.5 -177q0 -110 -46 -207t-155 -219l-374 -416h594z" />
    <glyph glyph-name="three" unicode="3" horiz-adv-x="1249" 
d="M1126 500q0 -104 -36.5 -194.5t-105.5 -159t-177 -107.5t-242 -39h-454v266h407q136 0 208.5 67.5t72.5 168.5t-67 163t-214 62h-268l366 541h-491v268h958l-376 -565q201 -31 310 -159.5t109 -311.5z" />
    <glyph glyph-name="four" unicode="4" horiz-adv-x="1249" 
d="M1116 1536v-1536h-293v664h-692v872h293v-637h399v637h293z" />
    <glyph glyph-name="five" unicode="5" horiz-adv-x="1249" 
d="M592 0h-479v266h452q134 0 201.5 64.5t67.5 158.5q0 93 -62 153t-207 60h-452v834h915v-268h-633v-310h203q132 0 236.5 -37t169.5 -102t99 -150t34 -184q0 -100 -34.5 -187t-100.5 -154t-171.5 -105.5t-238.5 -38.5z" />
    <glyph glyph-name="six" unicode="6" horiz-adv-x="1249" 
d="M1169 477q0 -219 -154.5 -363.5t-391.5 -144.5q-154 0 -279 65t-195.5 179.5t-70.5 257.5q0 136 76 262l479 803h352l-346 -569h6q115 0 214 -39t166.5 -106t105.5 -156.5t38 -188.5zM367 477q0 -107 73.5 -176.5t182.5 -69.5q112 0 185 69.5t73 176.5q0 105 -72.5 175.5
t-185.5 70.5q-109 0 -182.5 -71t-73.5 -175z" />
    <glyph glyph-name="seven" unicode="7" horiz-adv-x="1249" 
d="M1139 1536l-564 -1536h-331l473 1268h-608v268h1030z" />
    <glyph glyph-name="eight" unicode="8" horiz-adv-x="1249" 
d="M1157 461q0 -137 -67 -249t-190 -177.5t-277 -65.5q-232 0 -382.5 141.5t-150.5 350.5q0 119 59.5 223t161.5 168q-143 115 -143 301q0 175 128.5 293.5t326.5 118.5q199 0 327.5 -118.5t128.5 -293.5q0 -183 -143 -301q104 -63 162.5 -167t58.5 -224zM430 1137
q0 -82 55 -135.5t138 -53.5q86 0 140 53.5t54 135.5q0 83 -53 134.5t-141 51.5q-84 0 -138.5 -52.5t-54.5 -133.5zM371 475q0 -106 71.5 -176t180.5 -70q112 0 183 69.5t71 176.5t-71 177.5t-183 70.5q-108 0 -180 -71.5t-72 -176.5z" />
    <glyph glyph-name="nine" unicode="9" horiz-adv-x="1249" 
d="M1094 803l-480 -803h-350l348 569h-10q-115 0 -214 39t-166.5 106t-105.5 156.5t-38 188.5q0 219 155 363.5t392 144.5q154 0 278.5 -65t195 -179.5t70.5 -257.5q0 -138 -75 -262zM367 1059q0 -105 72.5 -175.5t185.5 -70.5q109 0 182.5 71t73.5 175q0 107 -73.5 176.5
t-182.5 69.5q-112 0 -185 -69.5t-73 -176.5z" />
    <glyph glyph-name="colon" unicode=":" 
d="M117 0v1536h1521v-1536h-1521zM328 201h1099v1134h-1099v-1134zM1083 416l-215 215l-215 -215l-127 125l217 217l-217 215l127 127l215 -217l215 215l127 -125l-215 -215l215 -217z" />
    <glyph glyph-name="semicolon" unicode=";" 
d="M117 0v1536h1521v-1536h-1521zM328 201h1099v1134h-1099v-1134zM1083 416l-215 215l-215 -215l-127 125l217 217l-217 215l127 127l215 -217l215 215l127 -125l-215 -215l215 -217z" />
    <glyph glyph-name="less" unicode="&#x3c;" 
d="M117 0v1536h1521v-1536h-1521zM328 201h1099v1134h-1099v-1134zM1083 416l-215 215l-215 -215l-127 125l217 217l-217 215l127 127l215 -217l215 215l127 -125l-215 -215l215 -217z" />
    <glyph glyph-name="equal" unicode="=" 
d="M117 0v1536h1521v-1536h-1521zM328 201h1099v1134h-1099v-1134zM1083 416l-215 215l-215 -215l-127 125l217 217l-217 215l127 127l215 -217l215 215l127 -125l-215 -215l215 -217z" />
    <glyph glyph-name="greater" unicode="&#x3e;" 
d="M117 0v1536h1521v-1536h-1521zM328 201h1099v1134h-1099v-1134zM1083 416l-215 215l-215 -215l-127 125l217 217l-217 215l127 127l215 -217l215 215l127 -125l-215 -215l215 -217z" />
    <glyph glyph-name="question" unicode="?" 
d="M117 0v1536h1521v-1536h-1521zM328 201h1099v1134h-1099v-1134zM1083 416l-215 215l-215 -215l-127 125l217 217l-217 215l127 127l215 -217l215 215l127 -125l-215 -215l215 -217z" />
    <glyph glyph-name="at" unicode="@" 
d="M117 0v1536h1521v-1536h-1521zM328 201h1099v1134h-1099v-1134zM1083 416l-215 215l-215 -215l-127 125l217 217l-217 215l127 127l215 -217l215 215l127 -125l-215 -215l215 -217z" />
    <glyph glyph-name="A" unicode="A" horiz-adv-x="1402" 
d="M1028 0l-84 393h-485l-84 -393h-326l369 1536h569l369 -1536h-328zM643 1253l-131 -612h379l-131 612h-117z" />
    <glyph glyph-name="B" unicode="B" horiz-adv-x="1380" 
d="M1327 479q0 -101 -34.5 -187t-100.5 -152t-171.5 -103t-238.5 -37h-655v1536h625q223 0 341.5 -109.5t118.5 -281.5q0 -89 -40 -164.5t-115 -118.5q131 -43 200.5 -145.5t69.5 -237.5zM713 1274h-285v-346h283q104 0 156.5 51t52.5 125q0 75 -48 122.5t-159 47.5z
M758 713h-330v-455h328q134 0 202 67t68 167q0 99 -62 160t-206 61z" />
    <glyph glyph-name="C" unicode="C" horiz-adv-x="1738" 
d="M1667 608q-56 -288 -270 -463.5t-512 -175.5q-173 0 -324 61.5t-257 168t-167 255t-61 316.5t61 315t167 252.5t257 166.5t324 61q195 0 360 -77.5t275 -219.5t147 -326h-324q-54 149 -173 237.5t-285 88.5q-214 0 -351 -142t-137 -360q0 -215 137 -356.5t351 -141.5
q170 0 292.5 93t170.5 247h319z" />
    <glyph glyph-name="D" unicode="D" horiz-adv-x="1527" 
d="M631 0h-504v1536h502q192 0 347.5 -56t259.5 -157t160 -241.5t56 -309.5q0 -171 -56 -313.5t-160.5 -244t-259 -158t-345.5 -56.5zM623 1253h-187v-966h189q131 0 230 37t159 103.5t89.5 152.5t29.5 190t-29.5 190t-89.5 152.5t-160 103.5t-231 37z" />
    <glyph glyph-name="E" unicode="E" horiz-adv-x="1185" 
d="M1112 262v-262h-985v1536h963v-262h-646v-346h617v-236h-617v-430h668z" />
    <glyph glyph-name="F" unicode="F" horiz-adv-x="935" 
d="M840 692h-396v-692h-317v1536h745v-262h-428v-346h396v-236z" />
    <glyph glyph-name="G" unicode="G" horiz-adv-x="1753" 
d="M1681 752q0 -163 -62 -308.5t-168 -249.5t-252.5 -164.5t-309.5 -60.5q-174 0 -326 61.5t-258.5 168t-167.5 254t-61 315.5q0 224 102.5 406t286.5 286.5t414 104.5q277 0 490.5 -154t287.5 -414h-338q-51 125 -167.5 203t-266.5 78q-215 0 -351.5 -144.5t-136.5 -367.5
q0 -222 139.5 -368t358.5 -146q174 0 301 92t178 244h-432v231h735q4 -16 4 -67z" />
    <glyph glyph-name="H" unicode="H" horiz-adv-x="1454" 
d="M1010 0v688h-566v-688h-317v1536h317v-598h566v598h317v-1536h-317z" />
    <glyph glyph-name="I" unicode="I" horiz-adv-x="595" 
d="M457 0h-318v1536h318v-1536z" />
    <glyph glyph-name="J" unicode="J" horiz-adv-x="901" 
d="M328 0h-260v264h188q221 0 221 240v1032h316v-1071q0 -228 -120 -346.5t-345 -118.5z" />
    <glyph glyph-name="K" unicode="K" horiz-adv-x="1370" 
d="M997 0l-395 688h-158v-688h-317v1536h317v-598h140l387 598h354l-453 -700l488 -836h-363z" />
    <glyph glyph-name="L" unicode="L" horiz-adv-x="892" 
d="M823 262v-262h-696v1536h317v-1274h379z" />
    <glyph glyph-name="M" unicode="M" horiz-adv-x="1945" 
d="M444 0h-317v1536h565l248 -817h66l247 817h566v-1536h-318v1180h-84l-256 -863h-379l-256 863h-82v-1180z" />
    <glyph glyph-name="N" unicode="N" horiz-adv-x="1583" 
d="M424 0h-297v1536h438l512 -1067h82v1067h297v-1536h-446l-504 1067h-82v-1067z" />
    <glyph glyph-name="O" unicode="O" horiz-adv-x="1777" 
d="M1702 770q0 -169 -61 -317t-167.5 -254.5t-258.5 -168t-326 -61.5t-325.5 61.5t-258 168t-168 255t-61.5 316.5t61.5 315t168 252.5t258 166.5t325.5 61q233 0 419 -104t290 -285.5t104 -405.5zM397 766q0 -215 138.5 -356.5t353.5 -141.5t352 141.5t137 356.5
q0 218 -137 360t-352 142q-216 0 -354 -142t-138 -360z" />
    <glyph glyph-name="P" unicode="P" horiz-adv-x="1339" 
d="M737 498h-293v-498h-317v1536h608q263 0 415.5 -142t152.5 -376q0 -235 -152 -377.5t-414 -142.5zM707 1276h-263v-518h258q144 0 214.5 73.5t70.5 186.5q0 111 -69 184.5t-211 73.5z" />
    <glyph glyph-name="Q" unicode="Q" horiz-adv-x="1777" 
d="M1702 770q0 -302 -183 -519.5t-477 -268.5l2 -277h-311v277q-193 34 -342 143.5t-232 277.5t-83 367q0 168 61.5 315t168 252.5t258 166.5t325.5 61q233 0 419 -104t290 -285.5t104 -405.5zM1040 500l2 -209q153 44 244.5 173t91.5 302q0 218 -137 360t-352 142
q-216 0 -354 -142t-138 -360q0 -173 92 -301t246 -174v209h305z" />
    <glyph glyph-name="R" unicode="R" horiz-adv-x="1384" 
d="M989 0l-223 545h-322v-545h-317v1536h653q256 0 401.5 -138t145.5 -364q0 -147 -67 -258.5t-193 -171.5l256 -604h-334zM729 1276h-285v-498h281q140 0 207 70.5t67 179.5q0 107 -66 177.5t-204 70.5z" />
    <glyph glyph-name="S" unicode="S" horiz-adv-x="1292" 
d="M707 0h-646v266h594q134 0 201.5 64.5t67.5 158.5q0 93 -62 153t-205 60h-147q-201 0 -328 115t-127 299q0 188 128 304t335 116h651v-266h-596q-89 0 -135.5 -44.5t-46.5 -115.5q0 -65 47 -108.5t135 -43.5h140q132 0 236 -37t169 -102t99 -150t34 -184
q0 -101 -34 -187.5t-99.5 -153.5t-171 -105.5t-239.5 -38.5z" />
    <glyph glyph-name="T" unicode="T" horiz-adv-x="1054" 
d="M686 0h-317v1274h-324v262h965v-262h-324v-1274z" />
    <glyph glyph-name="U" unicode="U" horiz-adv-x="1425" 
d="M1319 592q0 -288 -163.5 -455.5t-442.5 -167.5q-278 0 -442.5 167.5t-164.5 455.5v944h316v-963q0 -143 77.5 -230t213.5 -87t212 86.5t76 230.5v963h318v-944z" />
    <glyph glyph-name="V" unicode="V" horiz-adv-x="1392" 
d="M977 0h-559l-369 1536h332l270 -1253h90l269 1253h333z" />
    <glyph glyph-name="W" unicode="W" horiz-adv-x="2076" 
d="M1219 0l-181 653l-178 -653h-442l-369 1536h320l256 -1161h82l178 645v244h309v-244l176 -645h84l254 1161h320l-367 -1536h-442z" />
    <glyph glyph-name="X" unicode="X" horiz-adv-x="1347" 
d="M995 0l-237 686h-168l-240 -686h-340l301 813l-278 723h342l217 -602h164l217 602h342l-285 -723l307 -813h-342z" />
    <glyph glyph-name="Y" unicode="Y" horiz-adv-x="1331" 
d="M1057 559h-232v-559h-317v559h-232l-235 977h334l157 -741h267l157 741h334z" />
    <glyph glyph-name="Z" unicode="Z" horiz-adv-x="1187" 
d="M1120 0h-1052v336l694 854v84h-678v262h1020v-365l-672 -825v-84h688v-262z" />
    <glyph glyph-name="bracketleft" unicode="[" 
d="M117 0v1536h1521v-1536h-1521zM328 201h1099v1134h-1099v-1134zM1083 416l-215 215l-215 -215l-127 125l217 217l-217 215l127 127l215 -217l215 215l127 -125l-215 -215l215 -217z" />
    <glyph glyph-name="backslash" unicode="\" 
d="M117 0v1536h1521v-1536h-1521zM328 201h1099v1134h-1099v-1134zM1083 416l-215 215l-215 -215l-127 125l217 217l-217 215l127 127l215 -217l215 215l127 -125l-215 -215l215 -217z" />
    <glyph glyph-name="bracketright" unicode="]" 
d="M117 0v1536h1521v-1536h-1521zM328 201h1099v1134h-1099v-1134zM1083 416l-215 215l-215 -215l-127 125l217 217l-217 215l127 127l215 -217l215 215l127 -125l-215 -215l215 -217z" />
    <glyph glyph-name="asciicircum" unicode="^" 
d="M117 0v1536h1521v-1536h-1521zM328 201h1099v1134h-1099v-1134zM1083 416l-215 215l-215 -215l-127 125l217 217l-217 215l127 127l215 -217l215 215l127 -125l-215 -215l215 -217z" />
    <glyph glyph-name="underscore" unicode="_" 
d="M117 0v1536h1521v-1536h-1521zM328 201h1099v1134h-1099v-1134zM1083 416l-215 215l-215 -215l-127 125l217 217l-217 215l127 127l215 -217l215 215l127 -125l-215 -215l215 -217z" />
    <glyph glyph-name="grave" unicode="`" 
d="M117 0v1536h1521v-1536h-1521zM328 201h1099v1134h-1099v-1134zM1083 416l-215 215l-215 -215l-127 125l217 217l-217 215l127 127l215 -217l215 215l127 -125l-215 -215l215 -217z" />
    <glyph glyph-name="a" unicode="a" horiz-adv-x="1310" 
d="M920 0v176q-60 -99 -152.5 -153t-200.5 -54q-205 0 -346 159.5t-141 399.5q0 155 64.5 282t176.5 199t246 72q108 0 200.5 -53.5t152.5 -150.5v176h284v-1053h-284zM367 528q0 -129 78 -212t192 -83q91 0 167.5 50t115.5 125v237q-41 75 -116.5 124.5t-166.5 49.5
q-114 0 -192 -82.5t-78 -208.5z" />
    <glyph glyph-name="b" unicode="b" horiz-adv-x="1310" 
d="M1233 528q0 -239 -142 -399t-348 -160q-108 0 -200 55t-152 154v-178h-285v1536h285v-659q62 97 153.5 150.5t198.5 53.5q205 0 347.5 -159t142.5 -394zM674 819q-91 0 -167.5 -51t-115.5 -127v-231q41 -76 116.5 -126.5t166.5 -50.5q115 0 193.5 83t78.5 212
q0 126 -78.5 208.5t-193.5 82.5z" />
    <glyph glyph-name="c" unicode="c" horiz-adv-x="1267" 
d="M1196 385q-36 -191 -185.5 -303.5t-353.5 -112.5q-166 0 -298.5 73.5t-205.5 201t-73 284.5q0 115 43 217t118.5 176t183.5 117t232 43q205 0 353 -114.5t186 -307.5h-274q-33 72 -104 117t-161 45q-131 0 -216 -84.5t-85 -208.5q0 -128 85 -213.5t216 -85.5
q90 0 159 42.5t104 113.5h276z" />
    <glyph glyph-name="d" unicode="d" horiz-adv-x="1310" 
d="M920 0v176q-60 -99 -152.5 -153t-200.5 -54q-205 0 -346 159.5t-141 399.5q0 155 64.5 282t176.5 199t246 72q108 0 200.5 -53.5t152.5 -150.5v659h284v-1536h-284zM367 528q0 -129 78 -212t192 -83q91 0 167.5 50t115.5 125v237q-41 75 -116.5 124.5t-166.5 49.5
q-114 0 -192 -82.5t-78 -208.5z" />
    <glyph glyph-name="e" unicode="e" horiz-adv-x="1251" 
d="M1159 369q-41 -182 -186.5 -291t-337.5 -109q-239 0 -397 160t-158 403q0 150 72.5 276.5t199 199.5t279.5 73q103 0 192 -33t152.5 -89.5t109 -132t67.5 -162t22 -177.5h-838q15 -127 96 -199.5t203 -72.5q86 0 159 41.5t105 112.5h260zM633 846q-101 0 -176.5 -52
t-104.5 -143h541q-25 92 -92.5 143.5t-167.5 51.5z" />
    <glyph glyph-name="f" unicode="f" horiz-adv-x="722" 
d="M150 -410h-136v228h109q86 0 86 90v913h-182v232h182v176q0 145 88 226t264 81h135v-227h-106q-88 0 -88 -90v-166h194v-232h-194v-923q0 -145 -88.5 -226.5t-263.5 -81.5z" />
    <glyph glyph-name="g" unicode="g" horiz-adv-x="1310" 
d="M1204 -102q0 -145 -88.5 -226.5t-263.5 -81.5h-584v226h563q89 0 89 90v276q-60 -94 -152.5 -146t-200.5 -52q-205 0 -346 154t-141 386q0 238 141 397.5t346 159.5q108 0 200.5 -54t152.5 -153v179h284v-1155zM367 524q0 -126 78 -208.5t192 -82.5q91 0 167 49.5
t116 125.5v235q-39 75 -115.5 125.5t-167.5 50.5q-114 0 -192 -83.5t-78 -211.5z" />
    <glyph glyph-name="h" unicode="h" horiz-adv-x="1241" 
d="M639 819q-76 0 -139 -34t-101 -83v-702h-293v1536h293v-651q59 91 154 143.5t205 52.5q181 0 284 -113t103 -304v-664h-293v588q0 107 -52 169t-161 62z" />
    <glyph glyph-name="i" unicode="i" horiz-adv-x="516" 
d="M406 1235h-293v301h293v-301zM406 0h-293v1053h293v-1053z" />
    <glyph glyph-name="j" unicode="j" horiz-adv-x="516" 
d="M406 1235h-293v301h293v-301zM406 -410h-293v1463h293v-1463z" />
    <glyph glyph-name="k" unicode="k" horiz-adv-x="1134" 
d="M780 0l-233 432h-148v-432h-293v1536h293v-872h140l229 389h317l-297 -486l318 -567h-326z" />
    <glyph glyph-name="l" unicode="l" horiz-adv-x="516" 
d="M406 0h-293v1536h293v-1536z" />
    <glyph glyph-name="m" unicode="m" horiz-adv-x="1974" 
d="M645 819q-76 0 -140 -35.5t-106 -87.5v-696h-293v1053h293v-179q62 95 161 151t210 56q125 0 213.5 -58.5t128.5 -164.5q62 102 168 162.5t225 60.5q171 0 271 -108.5t100 -290.5v-682h-291v602q0 98 -52 157.5t-153 59.5q-71 0 -132.5 -31.5t-104.5 -78.5v-27v-682h-293
v602q0 98 -52 157.5t-153 59.5z" />
    <glyph glyph-name="n" unicode="n" horiz-adv-x="1241" 
d="M647 819q-77 0 -141 -36t-107 -87v-696h-293v1053h293v-179q62 95 162 151t209 56q174 0 274.5 -108t100.5 -291v-682h-293v602q0 98 -51.5 157.5t-153.5 59.5z" />
    <glyph glyph-name="o" unicode="o" horiz-adv-x="1318" 
d="M1239 528q0 -157 -73.5 -284.5t-206.5 -201t-300 -73.5t-300 73.5t-206 201t-73 284.5q0 115 43 217t118.5 176t184 117t233.5 43q167 0 300 -73t206.5 -199.5t73.5 -280.5zM356 528q0 -128 86 -213.5t217 -85.5t217.5 85.5t86.5 213.5q0 124 -86.5 208.5t-217.5 84.5
t-217 -84.5t-86 -208.5z" />
    <glyph glyph-name="p" unicode="p" horiz-adv-x="1310" 
d="M743 -31q-106 0 -198 54.5t-154 152.5v-586h-285v1463h285v-181q60 99 152 154t200 55q135 0 247 -72t177.5 -200.5t65.5 -284.5q0 -236 -142.5 -395.5t-347.5 -159.5zM674 819q-91 0 -166.5 -50.5t-116.5 -127.5v-229q39 -77 115 -128t168 -51q115 0 193.5 82.5
t78.5 208.5q0 128 -78.5 211.5t-193.5 83.5z" />
    <glyph glyph-name="q" unicode="q" horiz-adv-x="1310" 
d="M1204 1053v-1463h-284v586q-60 -99 -152.5 -153t-200.5 -54q-134 0 -246 72t-176.5 199.5t-64.5 283.5q0 238 141 397.5t346 159.5q108 0 200.5 -54t152.5 -153v179h284zM367 524q0 -126 78 -208.5t192 -82.5q91 0 167 49.5t116 125.5v235q-39 75 -115.5 125.5
t-167.5 50.5q-114 0 -192 -83.5t-78 -211.5z" />
    <glyph glyph-name="r" unicode="r" horiz-adv-x="794" 
d="M741 758q-101 0 -196 -33t-146 -76v-649h-293v1053h293v-170q59 91 147 144.5t195 53.5v-323z" />
    <glyph glyph-name="s" unicode="s" horiz-adv-x="991" 
d="M563 0h-485v238h444q150 0 150 110q0 105 -148 105h-129q-151 0 -241.5 84t-90.5 217q0 128 96.5 213.5t239.5 85.5h490v-236h-455q-45 0 -69.5 -20.5t-24.5 -53.5q0 -34 25 -53.5t69 -19.5h141q179 0 273 -91.5t94 -234.5q0 -148 -99 -246t-280 -98z" />
    <glyph glyph-name="t" unicode="t" horiz-adv-x="712" 
d="M686 821h-184v-821h-293v821h-182v232h182v295h293v-295h184v-232z" />
    <glyph glyph-name="u" unicode="u" horiz-adv-x="1236" 
d="M838 0v176q-62 -95 -161 -151t-208 -56q-172 0 -271.5 109.5t-99.5 292.5v682h291v-602q0 -99 51 -158.5t152 -59.5q75 0 139.5 35t106.5 86v699h292v-1053h-292z" />
    <glyph glyph-name="v" unicode="v" horiz-adv-x="1060" 
d="M772 0h-483l-260 1053h295l165 -811h80l166 811h297z" />
    <glyph glyph-name="w" unicode="w" horiz-adv-x="1660" 
d="M948 0l-119 446l-118 -446h-430l-252 1053h288l172 -772h68l139 489v166h269v-166l137 -489h69l172 772h289l-252 -1053h-432z" />
    <glyph glyph-name="x" unicode="x" horiz-adv-x="1122" 
d="M786 0l-190 436h-84l-176 -436h-307l250 547l-236 506h305l164 -398h82l168 398h305l-238 -500l265 -553h-308z" />
    <glyph glyph-name="y" unicode="y" horiz-adv-x="1083" 
d="M768 -143q-31 -135 -111.5 -201t-224.5 -66h-196l-56 228h221q98 0 121 88l29 108h-277l-245 1039h297l161 -811h107l162 811h299z" />
    <glyph glyph-name="z" unicode="z" horiz-adv-x="976" 
d="M918 0h-855v246l500 514v55h-479v238h813v-275l-473 -483v-57h494v-238z" />
    <glyph glyph-name="braceleft" unicode="{" 
d="M117 0v1536h1521v-1536h-1521zM328 201h1099v1134h-1099v-1134zM1083 416l-215 215l-215 -215l-127 125l217 217l-217 215l127 127l215 -217l215 215l127 -125l-215 -215l215 -217z" />
    <glyph glyph-name="bar" unicode="|" 
d="M117 0v1536h1521v-1536h-1521zM328 201h1099v1134h-1099v-1134zM1083 416l-215 215l-215 -215l-127 125l217 217l-217 215l127 127l215 -217l215 215l127 -125l-215 -215l215 -217z" />
    <glyph glyph-name="braceright" unicode="}" 
d="M117 0v1536h1521v-1536h-1521zM328 201h1099v1134h-1099v-1134zM1083 416l-215 215l-215 -215l-127 125l217 217l-217 215l127 127l215 -217l215 215l127 -125l-215 -215l215 -217z" />
    <glyph glyph-name="asciitilde" unicode="~" 
d="M117 0v1536h1521v-1536h-1521zM328 201h1099v1134h-1099v-1134zM1083 416l-215 215l-215 -215l-127 125l217 217l-217 215l127 127l215 -217l215 215l127 -125l-215 -215l215 -217z" />
    <glyph glyph-name="exclamdown" unicode="&#xa1;" 
d="M117 0v1536h1521v-1536h-1521zM328 201h1099v1134h-1099v-1134zM1083 416l-215 215l-215 -215l-127 125l217 217l-217 215l127 127l215 -217l215 215l127 -125l-215 -215l215 -217z" />
    <glyph glyph-name="cent" unicode="&#xa2;" 
d="M117 0v1536h1521v-1536h-1521zM328 201h1099v1134h-1099v-1134zM1083 416l-215 215l-215 -215l-127 125l217 217l-217 215l127 127l215 -217l215 215l127 -125l-215 -215l215 -217z" />
    <glyph glyph-name="sterling" unicode="&#xa3;" 
d="M117 0v1536h1521v-1536h-1521zM328 201h1099v1134h-1099v-1134zM1083 416l-215 215l-215 -215l-127 125l217 217l-217 215l127 127l215 -217l215 215l127 -125l-215 -215l215 -217z" />
    <glyph glyph-name="currency" unicode="&#xa4;" 
d="M117 0v1536h1521v-1536h-1521zM328 201h1099v1134h-1099v-1134zM1083 416l-215 215l-215 -215l-127 125l217 217l-217 215l127 127l215 -217l215 215l127 -125l-215 -215l215 -217z" />
    <glyph glyph-name="yen" unicode="&#xa5;" 
d="M117 0v1536h1521v-1536h-1521zM328 201h1099v1134h-1099v-1134zM1083 416l-215 215l-215 -215l-127 125l217 217l-217 215l127 127l215 -217l215 215l127 -125l-215 -215l215 -217z" />
    <glyph glyph-name="brokenbar" unicode="&#xa6;" 
d="M117 0v1536h1521v-1536h-1521zM328 201h1099v1134h-1099v-1134zM1083 416l-215 215l-215 -215l-127 125l217 217l-217 215l127 127l215 -217l215 215l127 -125l-215 -215l215 -217z" />
    <glyph glyph-name="section" unicode="&#xa7;" 
d="M117 0v1536h1521v-1536h-1521zM328 201h1099v1134h-1099v-1134zM1083 416l-215 215l-215 -215l-127 125l217 217l-217 215l127 127l215 -217l215 215l127 -125l-215 -215l215 -217z" />
    <glyph glyph-name="dieresis" unicode="&#xa8;" 
d="M117 0v1536h1521v-1536h-1521zM328 201h1099v1134h-1099v-1134zM1083 416l-215 215l-215 -215l-127 125l217 217l-217 215l127 127l215 -217l215 215l127 -125l-215 -215l215 -217z" />
    <glyph glyph-name="copyright" unicode="&#xa9;" 
d="M117 0v1536h1521v-1536h-1521zM328 201h1099v1134h-1099v-1134zM1083 416l-215 215l-215 -215l-127 125l217 217l-217 215l127 127l215 -217l215 215l127 -125l-215 -215l215 -217z" />
    <glyph glyph-name="ordfeminine" unicode="&#xaa;" 
d="M117 0v1536h1521v-1536h-1521zM328 201h1099v1134h-1099v-1134zM1083 416l-215 215l-215 -215l-127 125l217 217l-217 215l127 127l215 -217l215 215l127 -125l-215 -215l215 -217z" />
    <glyph glyph-name="guillemotleft" unicode="&#xab;" 
d="M117 0v1536h1521v-1536h-1521zM328 201h1099v1134h-1099v-1134zM1083 416l-215 215l-215 -215l-127 125l217 217l-217 215l127 127l215 -217l215 215l127 -125l-215 -215l215 -217z" />
    <glyph glyph-name="registered" unicode="&#xae;" 
d="M117 0v1536h1521v-1536h-1521zM328 201h1099v1134h-1099v-1134zM1083 416l-215 215l-215 -215l-127 125l217 217l-217 215l127 127l215 -217l215 215l127 -125l-215 -215l215 -217z" />
    <glyph glyph-name="macron" unicode="&#xaf;" 
d="M117 0v1536h1521v-1536h-1521zM328 201h1099v1134h-1099v-1134zM1083 416l-215 215l-215 -215l-127 125l217 217l-217 215l127 127l215 -217l215 215l127 -125l-215 -215l215 -217z" />
    <glyph glyph-name="degree" unicode="&#xb0;" 
d="M117 0v1536h1521v-1536h-1521zM328 201h1099v1134h-1099v-1134zM1083 416l-215 215l-215 -215l-127 125l217 217l-217 215l127 127l215 -217l215 215l127 -125l-215 -215l215 -217z" />
    <glyph glyph-name="plusminus" unicode="&#xb1;" 
d="M117 0v1536h1521v-1536h-1521zM328 201h1099v1134h-1099v-1134zM1083 416l-215 215l-215 -215l-127 125l217 217l-217 215l127 127l215 -217l215 215l127 -125l-215 -215l215 -217z" />
    <glyph glyph-name="acute" unicode="&#xb4;" 
d="M117 0v1536h1521v-1536h-1521zM328 201h1099v1134h-1099v-1134zM1083 416l-215 215l-215 -215l-127 125l217 217l-217 215l127 127l215 -217l215 215l127 -125l-215 -215l215 -217z" />
    <glyph glyph-name="paragraph" unicode="&#xb6;" 
d="M117 0v1536h1521v-1536h-1521zM328 201h1099v1134h-1099v-1134zM1083 416l-215 215l-215 -215l-127 125l217 217l-217 215l127 127l215 -217l215 215l127 -125l-215 -215l215 -217z" />
    <glyph glyph-name="periodcentered" unicode="&#xb7;" 
d="M117 0v1536h1521v-1536h-1521zM328 201h1099v1134h-1099v-1134zM1083 416l-215 215l-215 -215l-127 125l217 217l-217 215l127 127l215 -217l215 215l127 -125l-215 -215l215 -217z" />
    <glyph glyph-name="cedilla" unicode="&#xb8;" 
d="M117 0v1536h1521v-1536h-1521zM328 201h1099v1134h-1099v-1134zM1083 416l-215 215l-215 -215l-127 125l217 217l-217 215l127 127l215 -217l215 215l127 -125l-215 -215l215 -217z" />
    <glyph glyph-name="ordmasculine" unicode="&#xba;" 
d="M117 0v1536h1521v-1536h-1521zM328 201h1099v1134h-1099v-1134zM1083 416l-215 215l-215 -215l-127 125l217 217l-217 215l127 127l215 -217l215 215l127 -125l-215 -215l215 -217z" />
    <glyph glyph-name="guillemotright" unicode="&#xbb;" 
d="M117 0v1536h1521v-1536h-1521zM328 201h1099v1134h-1099v-1134zM1083 416l-215 215l-215 -215l-127 125l217 217l-217 215l127 127l215 -217l215 215l127 -125l-215 -215l215 -217z" />
    <glyph glyph-name="onequarter" unicode="&#xbc;" 
d="M117 0v1536h1521v-1536h-1521zM328 201h1099v1134h-1099v-1134zM1083 416l-215 215l-215 -215l-127 125l217 217l-217 215l127 127l215 -217l215 215l127 -125l-215 -215l215 -217z" />
    <glyph glyph-name="onehalf" unicode="&#xbd;" 
d="M117 0v1536h1521v-1536h-1521zM328 201h1099v1134h-1099v-1134zM1083 416l-215 215l-215 -215l-127 125l217 217l-217 215l127 127l215 -217l215 215l127 -125l-215 -215l215 -217z" />
    <glyph glyph-name="threequarters" unicode="&#xbe;" 
d="M117 0v1536h1521v-1536h-1521zM328 201h1099v1134h-1099v-1134zM1083 416l-215 215l-215 -215l-127 125l217 217l-217 215l127 127l215 -217l215 215l127 -125l-215 -215l215 -217z" />
    <glyph glyph-name="questiondown" unicode="&#xbf;" 
d="M117 0v1536h1521v-1536h-1521zM328 201h1099v1134h-1099v-1134zM1083 416l-215 215l-215 -215l-127 125l217 217l-217 215l127 127l215 -217l215 215l127 -125l-215 -215l215 -217z" />
    <glyph glyph-name="Agrave" unicode="&#xc0;" 
d="M117 0v1536h1521v-1536h-1521zM328 201h1099v1134h-1099v-1134zM1083 416l-215 215l-215 -215l-127 125l217 217l-217 215l127 127l215 -217l215 215l127 -125l-215 -215l215 -217z" />
    <glyph glyph-name="Aacute" unicode="&#xc1;" 
d="M117 0v1536h1521v-1536h-1521zM328 201h1099v1134h-1099v-1134zM1083 416l-215 215l-215 -215l-127 125l217 217l-217 215l127 127l215 -217l215 215l127 -125l-215 -215l215 -217z" />
    <glyph glyph-name="Acircumflex" unicode="&#xc2;" 
d="M117 0v1536h1521v-1536h-1521zM328 201h1099v1134h-1099v-1134zM1083 416l-215 215l-215 -215l-127 125l217 217l-217 215l127 127l215 -217l215 215l127 -125l-215 -215l215 -217z" />
    <glyph glyph-name="Atilde" unicode="&#xc3;" 
d="M117 0v1536h1521v-1536h-1521zM328 201h1099v1134h-1099v-1134zM1083 416l-215 215l-215 -215l-127 125l217 217l-217 215l127 127l215 -217l215 215l127 -125l-215 -215l215 -217z" />
    <glyph glyph-name="Adieresis" unicode="&#xc4;" 
d="M117 0v1536h1521v-1536h-1521zM328 201h1099v1134h-1099v-1134zM1083 416l-215 215l-215 -215l-127 125l217 217l-217 215l127 127l215 -217l215 215l127 -125l-215 -215l215 -217z" />
    <glyph glyph-name="Aring" unicode="&#xc5;" 
d="M117 0v1536h1521v-1536h-1521zM328 201h1099v1134h-1099v-1134zM1083 416l-215 215l-215 -215l-127 125l217 217l-217 215l127 127l215 -217l215 215l127 -125l-215 -215l215 -217z" />
    <glyph glyph-name="AE" unicode="&#xc6;" 
d="M117 0v1536h1521v-1536h-1521zM328 201h1099v1134h-1099v-1134zM1083 416l-215 215l-215 -215l-127 125l217 217l-217 215l127 127l215 -217l215 215l127 -125l-215 -215l215 -217z" />
    <glyph glyph-name="Ccedilla" unicode="&#xc7;" 
d="M117 0v1536h1521v-1536h-1521zM328 201h1099v1134h-1099v-1134zM1083 416l-215 215l-215 -215l-127 125l217 217l-217 215l127 127l215 -217l215 215l127 -125l-215 -215l215 -217z" />
    <glyph glyph-name="Egrave" unicode="&#xc8;" 
d="M117 0v1536h1521v-1536h-1521zM328 201h1099v1134h-1099v-1134zM1083 416l-215 215l-215 -215l-127 125l217 217l-217 215l127 127l215 -217l215 215l127 -125l-215 -215l215 -217z" />
    <glyph glyph-name="Eacute" unicode="&#xc9;" 
d="M117 0v1536h1521v-1536h-1521zM328 201h1099v1134h-1099v-1134zM1083 416l-215 215l-215 -215l-127 125l217 217l-217 215l127 127l215 -217l215 215l127 -125l-215 -215l215 -217z" />
    <glyph glyph-name="Ecircumflex" unicode="&#xca;" 
d="M117 0v1536h1521v-1536h-1521zM328 201h1099v1134h-1099v-1134zM1083 416l-215 215l-215 -215l-127 125l217 217l-217 215l127 127l215 -217l215 215l127 -125l-215 -215l215 -217z" />
    <glyph glyph-name="Edieresis" unicode="&#xcb;" 
d="M117 0v1536h1521v-1536h-1521zM328 201h1099v1134h-1099v-1134zM1083 416l-215 215l-215 -215l-127 125l217 217l-217 215l127 127l215 -217l215 215l127 -125l-215 -215l215 -217z" />
    <glyph glyph-name="Igrave" unicode="&#xcc;" 
d="M117 0v1536h1521v-1536h-1521zM328 201h1099v1134h-1099v-1134zM1083 416l-215 215l-215 -215l-127 125l217 217l-217 215l127 127l215 -217l215 215l127 -125l-215 -215l215 -217z" />
    <glyph glyph-name="Iacute" unicode="&#xcd;" 
d="M117 0v1536h1521v-1536h-1521zM328 201h1099v1134h-1099v-1134zM1083 416l-215 215l-215 -215l-127 125l217 217l-217 215l127 127l215 -217l215 215l127 -125l-215 -215l215 -217z" />
    <glyph glyph-name="Icircumflex" unicode="&#xce;" 
d="M117 0v1536h1521v-1536h-1521zM328 201h1099v1134h-1099v-1134zM1083 416l-215 215l-215 -215l-127 125l217 217l-217 215l127 127l215 -217l215 215l127 -125l-215 -215l215 -217z" />
    <glyph glyph-name="Idieresis" unicode="&#xcf;" 
d="M117 0v1536h1521v-1536h-1521zM328 201h1099v1134h-1099v-1134zM1083 416l-215 215l-215 -215l-127 125l217 217l-217 215l127 127l215 -217l215 215l127 -125l-215 -215l215 -217z" />
    <glyph glyph-name="Eth" unicode="&#xd0;" 
d="M117 0v1536h1521v-1536h-1521zM328 201h1099v1134h-1099v-1134zM1083 416l-215 215l-215 -215l-127 125l217 217l-217 215l127 127l215 -217l215 215l127 -125l-215 -215l215 -217z" />
    <glyph glyph-name="Ntilde" unicode="&#xd1;" 
d="M117 0v1536h1521v-1536h-1521zM328 201h1099v1134h-1099v-1134zM1083 416l-215 215l-215 -215l-127 125l217 217l-217 215l127 127l215 -217l215 215l127 -125l-215 -215l215 -217z" />
    <glyph glyph-name="Ograve" unicode="&#xd2;" 
d="M117 0v1536h1521v-1536h-1521zM328 201h1099v1134h-1099v-1134zM1083 416l-215 215l-215 -215l-127 125l217 217l-217 215l127 127l215 -217l215 215l127 -125l-215 -215l215 -217z" />
    <glyph glyph-name="Oacute" unicode="&#xd3;" 
d="M117 0v1536h1521v-1536h-1521zM328 201h1099v1134h-1099v-1134zM1083 416l-215 215l-215 -215l-127 125l217 217l-217 215l127 127l215 -217l215 215l127 -125l-215 -215l215 -217z" />
    <glyph glyph-name="Ocircumflex" unicode="&#xd4;" 
d="M117 0v1536h1521v-1536h-1521zM328 201h1099v1134h-1099v-1134zM1083 416l-215 215l-215 -215l-127 125l217 217l-217 215l127 127l215 -217l215 215l127 -125l-215 -215l215 -217z" />
    <glyph glyph-name="Otilde" unicode="&#xd5;" 
d="M117 0v1536h1521v-1536h-1521zM328 201h1099v1134h-1099v-1134zM1083 416l-215 215l-215 -215l-127 125l217 217l-217 215l127 127l215 -217l215 215l127 -125l-215 -215l215 -217z" />
    <glyph glyph-name="Odieresis" unicode="&#xd6;" 
d="M117 0v1536h1521v-1536h-1521zM328 201h1099v1134h-1099v-1134zM1083 416l-215 215l-215 -215l-127 125l217 217l-217 215l127 127l215 -217l215 215l127 -125l-215 -215l215 -217z" />
    <glyph glyph-name="multiply" unicode="&#xd7;" 
d="M117 0v1536h1521v-1536h-1521zM328 201h1099v1134h-1099v-1134zM1083 416l-215 215l-215 -215l-127 125l217 217l-217 215l127 127l215 -217l215 215l127 -125l-215 -215l215 -217z" />
    <glyph glyph-name="Oslash" unicode="&#xd8;" 
d="M117 0v1536h1521v-1536h-1521zM328 201h1099v1134h-1099v-1134zM1083 416l-215 215l-215 -215l-127 125l217 217l-217 215l127 127l215 -217l215 215l127 -125l-215 -215l215 -217z" />
    <glyph glyph-name="Ugrave" unicode="&#xd9;" 
d="M117 0v1536h1521v-1536h-1521zM328 201h1099v1134h-1099v-1134zM1083 416l-215 215l-215 -215l-127 125l217 217l-217 215l127 127l215 -217l215 215l127 -125l-215 -215l215 -217z" />
    <glyph glyph-name="Uacute" unicode="&#xda;" 
d="M117 0v1536h1521v-1536h-1521zM328 201h1099v1134h-1099v-1134zM1083 416l-215 215l-215 -215l-127 125l217 217l-217 215l127 127l215 -217l215 215l127 -125l-215 -215l215 -217z" />
    <glyph glyph-name="Ucircumflex" unicode="&#xdb;" 
d="M117 0v1536h1521v-1536h-1521zM328 201h1099v1134h-1099v-1134zM1083 416l-215 215l-215 -215l-127 125l217 217l-217 215l127 127l215 -217l215 215l127 -125l-215 -215l215 -217z" />
    <glyph glyph-name="Udieresis" unicode="&#xdc;" 
d="M117 0v1536h1521v-1536h-1521zM328 201h1099v1134h-1099v-1134zM1083 416l-215 215l-215 -215l-127 125l217 217l-217 215l127 127l215 -217l215 215l127 -125l-215 -215l215 -217z" />
    <glyph glyph-name="Yacute" unicode="&#xdd;" 
d="M117 0v1536h1521v-1536h-1521zM328 201h1099v1134h-1099v-1134zM1083 416l-215 215l-215 -215l-127 125l217 217l-217 215l127 127l215 -217l215 215l127 -125l-215 -215l215 -217z" />
    <glyph glyph-name="Thorn" unicode="&#xde;" 
d="M117 0v1536h1521v-1536h-1521zM328 201h1099v1134h-1099v-1134zM1083 416l-215 215l-215 -215l-127 125l217 217l-217 215l127 127l215 -217l215 215l127 -125l-215 -215l215 -217z" />
    <glyph glyph-name="germandbls" unicode="&#xdf;" 
d="M117 0v1536h1521v-1536h-1521zM328 201h1099v1134h-1099v-1134zM1083 416l-215 215l-215 -215l-127 125l217 217l-217 215l127 127l215 -217l215 215l127 -125l-215 -215l215 -217z" />
    <glyph glyph-name="agrave" unicode="&#xe0;" 
d="M117 0v1536h1521v-1536h-1521zM328 201h1099v1134h-1099v-1134zM1083 416l-215 215l-215 -215l-127 125l217 217l-217 215l127 127l215 -217l215 215l127 -125l-215 -215l215 -217z" />
    <glyph glyph-name="aacute" unicode="&#xe1;" 
d="M117 0v1536h1521v-1536h-1521zM328 201h1099v1134h-1099v-1134zM1083 416l-215 215l-215 -215l-127 125l217 217l-217 215l127 127l215 -217l215 215l127 -125l-215 -215l215 -217z" />
    <glyph glyph-name="acircumflex" unicode="&#xe2;" 
d="M117 0v1536h1521v-1536h-1521zM328 201h1099v1134h-1099v-1134zM1083 416l-215 215l-215 -215l-127 125l217 217l-217 215l127 127l215 -217l215 215l127 -125l-215 -215l215 -217z" />
    <glyph glyph-name="atilde" unicode="&#xe3;" 
d="M117 0v1536h1521v-1536h-1521zM328 201h1099v1134h-1099v-1134zM1083 416l-215 215l-215 -215l-127 125l217 217l-217 215l127 127l215 -217l215 215l127 -125l-215 -215l215 -217z" />
    <glyph glyph-name="adieresis" unicode="&#xe4;" 
d="M117 0v1536h1521v-1536h-1521zM328 201h1099v1134h-1099v-1134zM1083 416l-215 215l-215 -215l-127 125l217 217l-217 215l127 127l215 -217l215 215l127 -125l-215 -215l215 -217z" />
    <glyph glyph-name="aring" unicode="&#xe5;" 
d="M117 0v1536h1521v-1536h-1521zM328 201h1099v1134h-1099v-1134zM1083 416l-215 215l-215 -215l-127 125l217 217l-217 215l127 127l215 -217l215 215l127 -125l-215 -215l215 -217z" />
    <glyph glyph-name="ae" unicode="&#xe6;" 
d="M117 0v1536h1521v-1536h-1521zM328 201h1099v1134h-1099v-1134zM1083 416l-215 215l-215 -215l-127 125l217 217l-217 215l127 127l215 -217l215 215l127 -125l-215 -215l215 -217z" />
    <glyph glyph-name="ccedilla" unicode="&#xe7;" 
d="M117 0v1536h1521v-1536h-1521zM328 201h1099v1134h-1099v-1134zM1083 416l-215 215l-215 -215l-127 125l217 217l-217 215l127 127l215 -217l215 215l127 -125l-215 -215l215 -217z" />
    <glyph glyph-name="egrave" unicode="&#xe8;" 
d="M117 0v1536h1521v-1536h-1521zM328 201h1099v1134h-1099v-1134zM1083 416l-215 215l-215 -215l-127 125l217 217l-217 215l127 127l215 -217l215 215l127 -125l-215 -215l215 -217z" />
    <glyph glyph-name="eacute" unicode="&#xe9;" 
d="M117 0v1536h1521v-1536h-1521zM328 201h1099v1134h-1099v-1134zM1083 416l-215 215l-215 -215l-127 125l217 217l-217 215l127 127l215 -217l215 215l127 -125l-215 -215l215 -217z" />
    <glyph glyph-name="ecircumflex" unicode="&#xea;" 
d="M117 0v1536h1521v-1536h-1521zM328 201h1099v1134h-1099v-1134zM1083 416l-215 215l-215 -215l-127 125l217 217l-217 215l127 127l215 -217l215 215l127 -125l-215 -215l215 -217z" />
    <glyph glyph-name="edieresis" unicode="&#xeb;" 
d="M117 0v1536h1521v-1536h-1521zM328 201h1099v1134h-1099v-1134zM1083 416l-215 215l-215 -215l-127 125l217 217l-217 215l127 127l215 -217l215 215l127 -125l-215 -215l215 -217z" />
    <glyph glyph-name="igrave" unicode="&#xec;" 
d="M117 0v1536h1521v-1536h-1521zM328 201h1099v1134h-1099v-1134zM1083 416l-215 215l-215 -215l-127 125l217 217l-217 215l127 127l215 -217l215 215l127 -125l-215 -215l215 -217z" />
    <glyph glyph-name="iacute" unicode="&#xed;" 
d="M117 0v1536h1521v-1536h-1521zM328 201h1099v1134h-1099v-1134zM1083 416l-215 215l-215 -215l-127 125l217 217l-217 215l127 127l215 -217l215 215l127 -125l-215 -215l215 -217z" />
    <glyph glyph-name="icircumflex" unicode="&#xee;" 
d="M117 0v1536h1521v-1536h-1521zM328 201h1099v1134h-1099v-1134zM1083 416l-215 215l-215 -215l-127 125l217 217l-217 215l127 127l215 -217l215 215l127 -125l-215 -215l215 -217z" />
    <glyph glyph-name="idieresis" unicode="&#xef;" 
d="M117 0v1536h1521v-1536h-1521zM328 201h1099v1134h-1099v-1134zM1083 416l-215 215l-215 -215l-127 125l217 217l-217 215l127 127l215 -217l215 215l127 -125l-215 -215l215 -217z" />
    <glyph glyph-name="eth" unicode="&#xf0;" 
d="M117 0v1536h1521v-1536h-1521zM328 201h1099v1134h-1099v-1134zM1083 416l-215 215l-215 -215l-127 125l217 217l-217 215l127 127l215 -217l215 215l127 -125l-215 -215l215 -217z" />
    <glyph glyph-name="ntilde" unicode="&#xf1;" 
d="M117 0v1536h1521v-1536h-1521zM328 201h1099v1134h-1099v-1134zM1083 416l-215 215l-215 -215l-127 125l217 217l-217 215l127 127l215 -217l215 215l127 -125l-215 -215l215 -217z" />
    <glyph glyph-name="ograve" unicode="&#xf2;" 
d="M117 0v1536h1521v-1536h-1521zM328 201h1099v1134h-1099v-1134zM1083 416l-215 215l-215 -215l-127 125l217 217l-217 215l127 127l215 -217l215 215l127 -125l-215 -215l215 -217z" />
    <glyph glyph-name="oacute" unicode="&#xf3;" 
d="M117 0v1536h1521v-1536h-1521zM328 201h1099v1134h-1099v-1134zM1083 416l-215 215l-215 -215l-127 125l217 217l-217 215l127 127l215 -217l215 215l127 -125l-215 -215l215 -217z" />
    <glyph glyph-name="ocircumflex" unicode="&#xf4;" 
d="M117 0v1536h1521v-1536h-1521zM328 201h1099v1134h-1099v-1134zM1083 416l-215 215l-215 -215l-127 125l217 217l-217 215l127 127l215 -217l215 215l127 -125l-215 -215l215 -217z" />
    <glyph glyph-name="otilde" unicode="&#xf5;" 
d="M117 0v1536h1521v-1536h-1521zM328 201h1099v1134h-1099v-1134zM1083 416l-215 215l-215 -215l-127 125l217 217l-217 215l127 127l215 -217l215 215l127 -125l-215 -215l215 -217z" />
    <glyph glyph-name="odieresis" unicode="&#xf6;" 
d="M117 0v1536h1521v-1536h-1521zM328 201h1099v1134h-1099v-1134zM1083 416l-215 215l-215 -215l-127 125l217 217l-217 215l127 127l215 -217l215 215l127 -125l-215 -215l215 -217z" />
    <glyph glyph-name="divide" unicode="&#xf7;" 
d="M117 0v1536h1521v-1536h-1521zM328 201h1099v1134h-1099v-1134zM1083 416l-215 215l-215 -215l-127 125l217 217l-217 215l127 127l215 -217l215 215l127 -125l-215 -215l215 -217z" />
    <glyph glyph-name="oslash" unicode="&#xf8;" 
d="M117 0v1536h1521v-1536h-1521zM328 201h1099v1134h-1099v-1134zM1083 416l-215 215l-215 -215l-127 125l217 217l-217 215l127 127l215 -217l215 215l127 -125l-215 -215l215 -217z" />
    <glyph glyph-name="ugrave" unicode="&#xf9;" 
d="M117 0v1536h1521v-1536h-1521zM328 201h1099v1134h-1099v-1134zM1083 416l-215 215l-215 -215l-127 125l217 217l-217 215l127 127l215 -217l215 215l127 -125l-215 -215l215 -217z" />
    <glyph glyph-name="uacute" unicode="&#xfa;" 
d="M117 0v1536h1521v-1536h-1521zM328 201h1099v1134h-1099v-1134zM1083 416l-215 215l-215 -215l-127 125l217 217l-217 215l127 127l215 -217l215 215l127 -125l-215 -215l215 -217z" />
    <glyph glyph-name="ucircumflex" unicode="&#xfb;" 
d="M117 0v1536h1521v-1536h-1521zM328 201h1099v1134h-1099v-1134zM1083 416l-215 215l-215 -215l-127 125l217 217l-217 215l127 127l215 -217l215 215l127 -125l-215 -215l215 -217z" />
    <glyph glyph-name="udieresis" unicode="&#xfc;" 
d="M117 0v1536h1521v-1536h-1521zM328 201h1099v1134h-1099v-1134zM1083 416l-215 215l-215 -215l-127 125l217 217l-217 215l127 127l215 -217l215 215l127 -125l-215 -215l215 -217z" />
    <glyph glyph-name="yacute" unicode="&#xfd;" 
d="M117 0v1536h1521v-1536h-1521zM328 201h1099v1134h-1099v-1134zM1083 416l-215 215l-215 -215l-127 125l217 217l-217 215l127 127l215 -217l215 215l127 -125l-215 -215l215 -217z" />
    <glyph glyph-name="thorn" unicode="&#xfe;" 
d="M117 0v1536h1521v-1536h-1521zM328 201h1099v1134h-1099v-1134zM1083 416l-215 215l-215 -215l-127 125l217 217l-217 215l127 127l215 -217l215 215l127 -125l-215 -215l215 -217z" />
    <glyph glyph-name="ydieresis" unicode="&#xff;" 
d="M117 0v1536h1521v-1536h-1521zM328 201h1099v1134h-1099v-1134zM1083 416l-215 215l-215 -215l-127 125l217 217l-217 215l127 127l215 -217l215 215l127 -125l-215 -215l215 -217z" />
    <glyph glyph-name="Amacron" unicode="&#x100;" 
d="M117 0v1536h1521v-1536h-1521zM328 201h1099v1134h-1099v-1134zM1083 416l-215 215l-215 -215l-127 125l217 217l-217 215l127 127l215 -217l215 215l127 -125l-215 -215l215 -217z" />
    <glyph glyph-name="amacron" unicode="&#x101;" 
d="M117 0v1536h1521v-1536h-1521zM328 201h1099v1134h-1099v-1134zM1083 416l-215 215l-215 -215l-127 125l217 217l-217 215l127 127l215 -217l215 215l127 -125l-215 -215l215 -217z" />
    <glyph glyph-name="Abreve" unicode="&#x102;" 
d="M117 0v1536h1521v-1536h-1521zM328 201h1099v1134h-1099v-1134zM1083 416l-215 215l-215 -215l-127 125l217 217l-217 215l127 127l215 -217l215 215l127 -125l-215 -215l215 -217z" />
    <glyph glyph-name="abreve" unicode="&#x103;" 
d="M117 0v1536h1521v-1536h-1521zM328 201h1099v1134h-1099v-1134zM1083 416l-215 215l-215 -215l-127 125l217 217l-217 215l127 127l215 -217l215 215l127 -125l-215 -215l215 -217z" />
    <glyph glyph-name="Aogonek" unicode="&#x104;" 
d="M117 0v1536h1521v-1536h-1521zM328 201h1099v1134h-1099v-1134zM1083 416l-215 215l-215 -215l-127 125l217 217l-217 215l127 127l215 -217l215 215l127 -125l-215 -215l215 -217z" />
    <glyph glyph-name="aogonek" unicode="&#x105;" 
d="M117 0v1536h1521v-1536h-1521zM328 201h1099v1134h-1099v-1134zM1083 416l-215 215l-215 -215l-127 125l217 217l-217 215l127 127l215 -217l215 215l127 -125l-215 -215l215 -217z" />
    <glyph glyph-name="Cacute" unicode="&#x106;" 
d="M117 0v1536h1521v-1536h-1521zM328 201h1099v1134h-1099v-1134zM1083 416l-215 215l-215 -215l-127 125l217 217l-217 215l127 127l215 -217l215 215l127 -125l-215 -215l215 -217z" />
    <glyph glyph-name="cacute" unicode="&#x107;" 
d="M117 0v1536h1521v-1536h-1521zM328 201h1099v1134h-1099v-1134zM1083 416l-215 215l-215 -215l-127 125l217 217l-217 215l127 127l215 -217l215 215l127 -125l-215 -215l215 -217z" />
    <glyph glyph-name="Ccircumflex" unicode="&#x108;" 
d="M117 0v1536h1521v-1536h-1521zM328 201h1099v1134h-1099v-1134zM1083 416l-215 215l-215 -215l-127 125l217 217l-217 215l127 127l215 -217l215 215l127 -125l-215 -215l215 -217z" />
    <glyph glyph-name="ccircumflex" unicode="&#x109;" 
d="M117 0v1536h1521v-1536h-1521zM328 201h1099v1134h-1099v-1134zM1083 416l-215 215l-215 -215l-127 125l217 217l-217 215l127 127l215 -217l215 215l127 -125l-215 -215l215 -217z" />
    <glyph glyph-name="Cdotaccent" unicode="&#x10a;" 
d="M117 0v1536h1521v-1536h-1521zM328 201h1099v1134h-1099v-1134zM1083 416l-215 215l-215 -215l-127 125l217 217l-217 215l127 127l215 -217l215 215l127 -125l-215 -215l215 -217z" />
    <glyph glyph-name="cdotaccent" unicode="&#x10b;" 
d="M117 0v1536h1521v-1536h-1521zM328 201h1099v1134h-1099v-1134zM1083 416l-215 215l-215 -215l-127 125l217 217l-217 215l127 127l215 -217l215 215l127 -125l-215 -215l215 -217z" />
    <glyph glyph-name="Ccaron" unicode="&#x10c;" 
d="M117 0v1536h1521v-1536h-1521zM328 201h1099v1134h-1099v-1134zM1083 416l-215 215l-215 -215l-127 125l217 217l-217 215l127 127l215 -217l215 215l127 -125l-215 -215l215 -217z" />
    <glyph glyph-name="ccaron" unicode="&#x10d;" 
d="M117 0v1536h1521v-1536h-1521zM328 201h1099v1134h-1099v-1134zM1083 416l-215 215l-215 -215l-127 125l217 217l-217 215l127 127l215 -217l215 215l127 -125l-215 -215l215 -217z" />
    <glyph glyph-name="Dcaron" unicode="&#x10e;" 
d="M117 0v1536h1521v-1536h-1521zM328 201h1099v1134h-1099v-1134zM1083 416l-215 215l-215 -215l-127 125l217 217l-217 215l127 127l215 -217l215 215l127 -125l-215 -215l215 -217z" />
    <glyph glyph-name="dcaron" unicode="&#x10f;" 
d="M117 0v1536h1521v-1536h-1521zM328 201h1099v1134h-1099v-1134zM1083 416l-215 215l-215 -215l-127 125l217 217l-217 215l127 127l215 -217l215 215l127 -125l-215 -215l215 -217z" />
    <glyph glyph-name="Dcroat" unicode="&#x110;" 
d="M117 0v1536h1521v-1536h-1521zM328 201h1099v1134h-1099v-1134zM1083 416l-215 215l-215 -215l-127 125l217 217l-217 215l127 127l215 -217l215 215l127 -125l-215 -215l215 -217z" />
    <glyph glyph-name="dcroat" unicode="&#x111;" 
d="M117 0v1536h1521v-1536h-1521zM328 201h1099v1134h-1099v-1134zM1083 416l-215 215l-215 -215l-127 125l217 217l-217 215l127 127l215 -217l215 215l127 -125l-215 -215l215 -217z" />
    <glyph glyph-name="Emacron" unicode="&#x112;" 
d="M117 0v1536h1521v-1536h-1521zM328 201h1099v1134h-1099v-1134zM1083 416l-215 215l-215 -215l-127 125l217 217l-217 215l127 127l215 -217l215 215l127 -125l-215 -215l215 -217z" />
    <glyph glyph-name="emacron" unicode="&#x113;" 
d="M117 0v1536h1521v-1536h-1521zM328 201h1099v1134h-1099v-1134zM1083 416l-215 215l-215 -215l-127 125l217 217l-217 215l127 127l215 -217l215 215l127 -125l-215 -215l215 -217z" />
    <glyph glyph-name="Ebreve" unicode="&#x114;" 
d="M117 0v1536h1521v-1536h-1521zM328 201h1099v1134h-1099v-1134zM1083 416l-215 215l-215 -215l-127 125l217 217l-217 215l127 127l215 -217l215 215l127 -125l-215 -215l215 -217z" />
    <glyph glyph-name="ebreve" unicode="&#x115;" 
d="M117 0v1536h1521v-1536h-1521zM328 201h1099v1134h-1099v-1134zM1083 416l-215 215l-215 -215l-127 125l217 217l-217 215l127 127l215 -217l215 215l127 -125l-215 -215l215 -217z" />
    <glyph glyph-name="Edotaccent" unicode="&#x116;" 
d="M117 0v1536h1521v-1536h-1521zM328 201h1099v1134h-1099v-1134zM1083 416l-215 215l-215 -215l-127 125l217 217l-217 215l127 127l215 -217l215 215l127 -125l-215 -215l215 -217z" />
    <glyph glyph-name="edotaccent" unicode="&#x117;" 
d="M117 0v1536h1521v-1536h-1521zM328 201h1099v1134h-1099v-1134zM1083 416l-215 215l-215 -215l-127 125l217 217l-217 215l127 127l215 -217l215 215l127 -125l-215 -215l215 -217z" />
    <glyph glyph-name="Eogonek" unicode="&#x118;" 
d="M117 0v1536h1521v-1536h-1521zM328 201h1099v1134h-1099v-1134zM1083 416l-215 215l-215 -215l-127 125l217 217l-217 215l127 127l215 -217l215 215l127 -125l-215 -215l215 -217z" />
    <glyph glyph-name="eogonek" unicode="&#x119;" 
d="M117 0v1536h1521v-1536h-1521zM328 201h1099v1134h-1099v-1134zM1083 416l-215 215l-215 -215l-127 125l217 217l-217 215l127 127l215 -217l215 215l127 -125l-215 -215l215 -217z" />
    <glyph glyph-name="Ecaron" unicode="&#x11a;" 
d="M117 0v1536h1521v-1536h-1521zM328 201h1099v1134h-1099v-1134zM1083 416l-215 215l-215 -215l-127 125l217 217l-217 215l127 127l215 -217l215 215l127 -125l-215 -215l215 -217z" />
    <glyph glyph-name="ecaron" unicode="&#x11b;" 
d="M117 0v1536h1521v-1536h-1521zM328 201h1099v1134h-1099v-1134zM1083 416l-215 215l-215 -215l-127 125l217 217l-217 215l127 127l215 -217l215 215l127 -125l-215 -215l215 -217z" />
    <glyph glyph-name="Gcircumflex" unicode="&#x11c;" 
d="M117 0v1536h1521v-1536h-1521zM328 201h1099v1134h-1099v-1134zM1083 416l-215 215l-215 -215l-127 125l217 217l-217 215l127 127l215 -217l215 215l127 -125l-215 -215l215 -217z" />
    <glyph glyph-name="gcircumflex" unicode="&#x11d;" 
d="M117 0v1536h1521v-1536h-1521zM328 201h1099v1134h-1099v-1134zM1083 416l-215 215l-215 -215l-127 125l217 217l-217 215l127 127l215 -217l215 215l127 -125l-215 -215l215 -217z" />
    <glyph glyph-name="Gbreve" unicode="&#x11e;" 
d="M117 0v1536h1521v-1536h-1521zM328 201h1099v1134h-1099v-1134zM1083 416l-215 215l-215 -215l-127 125l217 217l-217 215l127 127l215 -217l215 215l127 -125l-215 -215l215 -217z" />
    <glyph glyph-name="gbreve" unicode="&#x11f;" 
d="M117 0v1536h1521v-1536h-1521zM328 201h1099v1134h-1099v-1134zM1083 416l-215 215l-215 -215l-127 125l217 217l-217 215l127 127l215 -217l215 215l127 -125l-215 -215l215 -217z" />
    <glyph glyph-name="Gdotaccent" unicode="&#x120;" 
d="M117 0v1536h1521v-1536h-1521zM328 201h1099v1134h-1099v-1134zM1083 416l-215 215l-215 -215l-127 125l217 217l-217 215l127 127l215 -217l215 215l127 -125l-215 -215l215 -217z" />
    <glyph glyph-name="gdotaccent" unicode="&#x121;" 
d="M117 0v1536h1521v-1536h-1521zM328 201h1099v1134h-1099v-1134zM1083 416l-215 215l-215 -215l-127 125l217 217l-217 215l127 127l215 -217l215 215l127 -125l-215 -215l215 -217z" />
    <glyph glyph-name="Gcommaaccent" unicode="&#x122;" 
d="M117 0v1536h1521v-1536h-1521zM328 201h1099v1134h-1099v-1134zM1083 416l-215 215l-215 -215l-127 125l217 217l-217 215l127 127l215 -217l215 215l127 -125l-215 -215l215 -217z" />
    <glyph glyph-name="gcommaaccent" unicode="&#x123;" 
d="M117 0v1536h1521v-1536h-1521zM328 201h1099v1134h-1099v-1134zM1083 416l-215 215l-215 -215l-127 125l217 217l-217 215l127 127l215 -217l215 215l127 -125l-215 -215l215 -217z" />
    <glyph glyph-name="Hcircumflex" unicode="&#x124;" 
d="M117 0v1536h1521v-1536h-1521zM328 201h1099v1134h-1099v-1134zM1083 416l-215 215l-215 -215l-127 125l217 217l-217 215l127 127l215 -217l215 215l127 -125l-215 -215l215 -217z" />
    <glyph glyph-name="hcircumflex" unicode="&#x125;" 
d="M117 0v1536h1521v-1536h-1521zM328 201h1099v1134h-1099v-1134zM1083 416l-215 215l-215 -215l-127 125l217 217l-217 215l127 127l215 -217l215 215l127 -125l-215 -215l215 -217z" />
    <glyph glyph-name="Hbar" unicode="&#x126;" 
d="M117 0v1536h1521v-1536h-1521zM328 201h1099v1134h-1099v-1134zM1083 416l-215 215l-215 -215l-127 125l217 217l-217 215l127 127l215 -217l215 215l127 -125l-215 -215l215 -217z" />
    <glyph glyph-name="hbar" unicode="&#x127;" 
d="M117 0v1536h1521v-1536h-1521zM328 201h1099v1134h-1099v-1134zM1083 416l-215 215l-215 -215l-127 125l217 217l-217 215l127 127l215 -217l215 215l127 -125l-215 -215l215 -217z" />
    <glyph glyph-name="Itilde" unicode="&#x128;" 
d="M117 0v1536h1521v-1536h-1521zM328 201h1099v1134h-1099v-1134zM1083 416l-215 215l-215 -215l-127 125l217 217l-217 215l127 127l215 -217l215 215l127 -125l-215 -215l215 -217z" />
    <glyph glyph-name="itilde" unicode="&#x129;" 
d="M117 0v1536h1521v-1536h-1521zM328 201h1099v1134h-1099v-1134zM1083 416l-215 215l-215 -215l-127 125l217 217l-217 215l127 127l215 -217l215 215l127 -125l-215 -215l215 -217z" />
    <glyph glyph-name="Imacron" unicode="&#x12a;" 
d="M117 0v1536h1521v-1536h-1521zM328 201h1099v1134h-1099v-1134zM1083 416l-215 215l-215 -215l-127 125l217 217l-217 215l127 127l215 -217l215 215l127 -125l-215 -215l215 -217z" />
    <glyph glyph-name="imacron" unicode="&#x12b;" 
d="M117 0v1536h1521v-1536h-1521zM328 201h1099v1134h-1099v-1134zM1083 416l-215 215l-215 -215l-127 125l217 217l-217 215l127 127l215 -217l215 215l127 -125l-215 -215l215 -217z" />
    <glyph glyph-name="Ibreve" unicode="&#x12c;" 
d="M117 0v1536h1521v-1536h-1521zM328 201h1099v1134h-1099v-1134zM1083 416l-215 215l-215 -215l-127 125l217 217l-217 215l127 127l215 -217l215 215l127 -125l-215 -215l215 -217z" />
    <glyph glyph-name="ibreve" unicode="&#x12d;" 
d="M117 0v1536h1521v-1536h-1521zM328 201h1099v1134h-1099v-1134zM1083 416l-215 215l-215 -215l-127 125l217 217l-217 215l127 127l215 -217l215 215l127 -125l-215 -215l215 -217z" />
    <glyph glyph-name="Iogonek" unicode="&#x12e;" 
d="M117 0v1536h1521v-1536h-1521zM328 201h1099v1134h-1099v-1134zM1083 416l-215 215l-215 -215l-127 125l217 217l-217 215l127 127l215 -217l215 215l127 -125l-215 -215l215 -217z" />
    <glyph glyph-name="iogonek" unicode="&#x12f;" 
d="M117 0v1536h1521v-1536h-1521zM328 201h1099v1134h-1099v-1134zM1083 416l-215 215l-215 -215l-127 125l217 217l-217 215l127 127l215 -217l215 215l127 -125l-215 -215l215 -217z" />
    <glyph glyph-name="Idotaccent" unicode="&#x130;" 
d="M117 0v1536h1521v-1536h-1521zM328 201h1099v1134h-1099v-1134zM1083 416l-215 215l-215 -215l-127 125l217 217l-217 215l127 127l215 -217l215 215l127 -125l-215 -215l215 -217z" />
    <glyph glyph-name="dotlessi" unicode="&#x131;" 
d="M117 0v1536h1521v-1536h-1521zM328 201h1099v1134h-1099v-1134zM1083 416l-215 215l-215 -215l-127 125l217 217l-217 215l127 127l215 -217l215 215l127 -125l-215 -215l215 -217z" />
    <glyph glyph-name="IJ" unicode="&#x132;" 
d="M117 0v1536h1521v-1536h-1521zM328 201h1099v1134h-1099v-1134zM1083 416l-215 215l-215 -215l-127 125l217 217l-217 215l127 127l215 -217l215 215l127 -125l-215 -215l215 -217z" />
    <glyph glyph-name="ij" unicode="&#x133;" 
d="M117 0v1536h1521v-1536h-1521zM328 201h1099v1134h-1099v-1134zM1083 416l-215 215l-215 -215l-127 125l217 217l-217 215l127 127l215 -217l215 215l127 -125l-215 -215l215 -217z" />
    <glyph glyph-name="Jcircumflex" unicode="&#x134;" 
d="M117 0v1536h1521v-1536h-1521zM328 201h1099v1134h-1099v-1134zM1083 416l-215 215l-215 -215l-127 125l217 217l-217 215l127 127l215 -217l215 215l127 -125l-215 -215l215 -217z" />
    <glyph glyph-name="jcircumflex" unicode="&#x135;" 
d="M117 0v1536h1521v-1536h-1521zM328 201h1099v1134h-1099v-1134zM1083 416l-215 215l-215 -215l-127 125l217 217l-217 215l127 127l215 -217l215 215l127 -125l-215 -215l215 -217z" />
    <glyph glyph-name="Kcommaaccent" unicode="&#x136;" 
d="M117 0v1536h1521v-1536h-1521zM328 201h1099v1134h-1099v-1134zM1083 416l-215 215l-215 -215l-127 125l217 217l-217 215l127 127l215 -217l215 215l127 -125l-215 -215l215 -217z" />
    <glyph glyph-name="kcommaaccent" unicode="&#x137;" 
d="M117 0v1536h1521v-1536h-1521zM328 201h1099v1134h-1099v-1134zM1083 416l-215 215l-215 -215l-127 125l217 217l-217 215l127 127l215 -217l215 215l127 -125l-215 -215l215 -217z" />
    <glyph glyph-name="Lacute" unicode="&#x139;" 
d="M117 0v1536h1521v-1536h-1521zM328 201h1099v1134h-1099v-1134zM1083 416l-215 215l-215 -215l-127 125l217 217l-217 215l127 127l215 -217l215 215l127 -125l-215 -215l215 -217z" />
    <glyph glyph-name="lacute" unicode="&#x13a;" 
d="M117 0v1536h1521v-1536h-1521zM328 201h1099v1134h-1099v-1134zM1083 416l-215 215l-215 -215l-127 125l217 217l-217 215l127 127l215 -217l215 215l127 -125l-215 -215l215 -217z" />
    <glyph glyph-name="Lcommaaccent" unicode="&#x13b;" 
d="M117 0v1536h1521v-1536h-1521zM328 201h1099v1134h-1099v-1134zM1083 416l-215 215l-215 -215l-127 125l217 217l-217 215l127 127l215 -217l215 215l127 -125l-215 -215l215 -217z" />
    <glyph glyph-name="lcommaaccent" unicode="&#x13c;" 
d="M117 0v1536h1521v-1536h-1521zM328 201h1099v1134h-1099v-1134zM1083 416l-215 215l-215 -215l-127 125l217 217l-217 215l127 127l215 -217l215 215l127 -125l-215 -215l215 -217z" />
    <glyph glyph-name="Lcaron" unicode="&#x13d;" 
d="M117 0v1536h1521v-1536h-1521zM328 201h1099v1134h-1099v-1134zM1083 416l-215 215l-215 -215l-127 125l217 217l-217 215l127 127l215 -217l215 215l127 -125l-215 -215l215 -217z" />
    <glyph glyph-name="lcaron" unicode="&#x13e;" 
d="M117 0v1536h1521v-1536h-1521zM328 201h1099v1134h-1099v-1134zM1083 416l-215 215l-215 -215l-127 125l217 217l-217 215l127 127l215 -217l215 215l127 -125l-215 -215l215 -217z" />
    <glyph glyph-name="Ldot" unicode="&#x13f;" 
d="M117 0v1536h1521v-1536h-1521zM328 201h1099v1134h-1099v-1134zM1083 416l-215 215l-215 -215l-127 125l217 217l-217 215l127 127l215 -217l215 215l127 -125l-215 -215l215 -217z" />
    <glyph glyph-name="ldot" unicode="&#x140;" 
d="M117 0v1536h1521v-1536h-1521zM328 201h1099v1134h-1099v-1134zM1083 416l-215 215l-215 -215l-127 125l217 217l-217 215l127 127l215 -217l215 215l127 -125l-215 -215l215 -217z" />
    <glyph glyph-name="Lslash" unicode="&#x141;" 
d="M117 0v1536h1521v-1536h-1521zM328 201h1099v1134h-1099v-1134zM1083 416l-215 215l-215 -215l-127 125l217 217l-217 215l127 127l215 -217l215 215l127 -125l-215 -215l215 -217z" />
    <glyph glyph-name="lslash" unicode="&#x142;" 
d="M117 0v1536h1521v-1536h-1521zM328 201h1099v1134h-1099v-1134zM1083 416l-215 215l-215 -215l-127 125l217 217l-217 215l127 127l215 -217l215 215l127 -125l-215 -215l215 -217z" />
    <glyph glyph-name="Nacute" unicode="&#x143;" 
d="M117 0v1536h1521v-1536h-1521zM328 201h1099v1134h-1099v-1134zM1083 416l-215 215l-215 -215l-127 125l217 217l-217 215l127 127l215 -217l215 215l127 -125l-215 -215l215 -217z" />
    <glyph glyph-name="nacute" unicode="&#x144;" 
d="M117 0v1536h1521v-1536h-1521zM328 201h1099v1134h-1099v-1134zM1083 416l-215 215l-215 -215l-127 125l217 217l-217 215l127 127l215 -217l215 215l127 -125l-215 -215l215 -217z" />
    <glyph glyph-name="Ncommaaccent" unicode="&#x145;" 
d="M117 0v1536h1521v-1536h-1521zM328 201h1099v1134h-1099v-1134zM1083 416l-215 215l-215 -215l-127 125l217 217l-217 215l127 127l215 -217l215 215l127 -125l-215 -215l215 -217z" />
    <glyph glyph-name="ncommaaccent" unicode="&#x146;" 
d="M117 0v1536h1521v-1536h-1521zM328 201h1099v1134h-1099v-1134zM1083 416l-215 215l-215 -215l-127 125l217 217l-217 215l127 127l215 -217l215 215l127 -125l-215 -215l215 -217z" />
    <glyph glyph-name="Ncaron" unicode="&#x147;" 
d="M117 0v1536h1521v-1536h-1521zM328 201h1099v1134h-1099v-1134zM1083 416l-215 215l-215 -215l-127 125l217 217l-217 215l127 127l215 -217l215 215l127 -125l-215 -215l215 -217z" />
    <glyph glyph-name="ncaron" unicode="&#x148;" 
d="M117 0v1536h1521v-1536h-1521zM328 201h1099v1134h-1099v-1134zM1083 416l-215 215l-215 -215l-127 125l217 217l-217 215l127 127l215 -217l215 215l127 -125l-215 -215l215 -217z" />
    <glyph glyph-name="Eng" unicode="&#x14a;" 
d="M117 0v1536h1521v-1536h-1521zM328 201h1099v1134h-1099v-1134zM1083 416l-215 215l-215 -215l-127 125l217 217l-217 215l127 127l215 -217l215 215l127 -125l-215 -215l215 -217z" />
    <glyph glyph-name="eng" unicode="&#x14b;" 
d="M117 0v1536h1521v-1536h-1521zM328 201h1099v1134h-1099v-1134zM1083 416l-215 215l-215 -215l-127 125l217 217l-217 215l127 127l215 -217l215 215l127 -125l-215 -215l215 -217z" />
    <glyph glyph-name="Omacron" unicode="&#x14c;" 
d="M117 0v1536h1521v-1536h-1521zM328 201h1099v1134h-1099v-1134zM1083 416l-215 215l-215 -215l-127 125l217 217l-217 215l127 127l215 -217l215 215l127 -125l-215 -215l215 -217z" />
    <glyph glyph-name="omacron" unicode="&#x14d;" 
d="M117 0v1536h1521v-1536h-1521zM328 201h1099v1134h-1099v-1134zM1083 416l-215 215l-215 -215l-127 125l217 217l-217 215l127 127l215 -217l215 215l127 -125l-215 -215l215 -217z" />
    <glyph glyph-name="Obreve" unicode="&#x14e;" 
d="M117 0v1536h1521v-1536h-1521zM328 201h1099v1134h-1099v-1134zM1083 416l-215 215l-215 -215l-127 125l217 217l-217 215l127 127l215 -217l215 215l127 -125l-215 -215l215 -217z" />
    <glyph glyph-name="obreve" unicode="&#x14f;" 
d="M117 0v1536h1521v-1536h-1521zM328 201h1099v1134h-1099v-1134zM1083 416l-215 215l-215 -215l-127 125l217 217l-217 215l127 127l215 -217l215 215l127 -125l-215 -215l215 -217z" />
    <glyph glyph-name="Ohungarumlaut" unicode="&#x150;" 
d="M117 0v1536h1521v-1536h-1521zM328 201h1099v1134h-1099v-1134zM1083 416l-215 215l-215 -215l-127 125l217 217l-217 215l127 127l215 -217l215 215l127 -125l-215 -215l215 -217z" />
    <glyph glyph-name="ohungarumlaut" unicode="&#x151;" 
d="M117 0v1536h1521v-1536h-1521zM328 201h1099v1134h-1099v-1134zM1083 416l-215 215l-215 -215l-127 125l217 217l-217 215l127 127l215 -217l215 215l127 -125l-215 -215l215 -217z" />
    <glyph glyph-name="OE" unicode="&#x152;" 
d="M117 0v1536h1521v-1536h-1521zM328 201h1099v1134h-1099v-1134zM1083 416l-215 215l-215 -215l-127 125l217 217l-217 215l127 127l215 -217l215 215l127 -125l-215 -215l215 -217z" />
    <glyph glyph-name="oe" unicode="&#x153;" 
d="M117 0v1536h1521v-1536h-1521zM328 201h1099v1134h-1099v-1134zM1083 416l-215 215l-215 -215l-127 125l217 217l-217 215l127 127l215 -217l215 215l127 -125l-215 -215l215 -217z" />
    <glyph glyph-name="Racute" unicode="&#x154;" 
d="M117 0v1536h1521v-1536h-1521zM328 201h1099v1134h-1099v-1134zM1083 416l-215 215l-215 -215l-127 125l217 217l-217 215l127 127l215 -217l215 215l127 -125l-215 -215l215 -217z" />
    <glyph glyph-name="racute" unicode="&#x155;" 
d="M117 0v1536h1521v-1536h-1521zM328 201h1099v1134h-1099v-1134zM1083 416l-215 215l-215 -215l-127 125l217 217l-217 215l127 127l215 -217l215 215l127 -125l-215 -215l215 -217z" />
    <glyph glyph-name="Rcommaaccent" unicode="&#x156;" 
d="M117 0v1536h1521v-1536h-1521zM328 201h1099v1134h-1099v-1134zM1083 416l-215 215l-215 -215l-127 125l217 217l-217 215l127 127l215 -217l215 215l127 -125l-215 -215l215 -217z" />
    <glyph glyph-name="rcommaaccent" unicode="&#x157;" 
d="M117 0v1536h1521v-1536h-1521zM328 201h1099v1134h-1099v-1134zM1083 416l-215 215l-215 -215l-127 125l217 217l-217 215l127 127l215 -217l215 215l127 -125l-215 -215l215 -217z" />
    <glyph glyph-name="Rcaron" unicode="&#x158;" 
d="M117 0v1536h1521v-1536h-1521zM328 201h1099v1134h-1099v-1134zM1083 416l-215 215l-215 -215l-127 125l217 217l-217 215l127 127l215 -217l215 215l127 -125l-215 -215l215 -217z" />
    <glyph glyph-name="rcaron" unicode="&#x159;" 
d="M117 0v1536h1521v-1536h-1521zM328 201h1099v1134h-1099v-1134zM1083 416l-215 215l-215 -215l-127 125l217 217l-217 215l127 127l215 -217l215 215l127 -125l-215 -215l215 -217z" />
    <glyph glyph-name="Sacute" unicode="&#x15a;" 
d="M117 0v1536h1521v-1536h-1521zM328 201h1099v1134h-1099v-1134zM1083 416l-215 215l-215 -215l-127 125l217 217l-217 215l127 127l215 -217l215 215l127 -125l-215 -215l215 -217z" />
    <glyph glyph-name="sacute" unicode="&#x15b;" 
d="M117 0v1536h1521v-1536h-1521zM328 201h1099v1134h-1099v-1134zM1083 416l-215 215l-215 -215l-127 125l217 217l-217 215l127 127l215 -217l215 215l127 -125l-215 -215l215 -217z" />
    <glyph glyph-name="Scircumflex" unicode="&#x15c;" 
d="M117 0v1536h1521v-1536h-1521zM328 201h1099v1134h-1099v-1134zM1083 416l-215 215l-215 -215l-127 125l217 217l-217 215l127 127l215 -217l215 215l127 -125l-215 -215l215 -217z" />
    <glyph glyph-name="scircumflex" unicode="&#x15d;" 
d="M117 0v1536h1521v-1536h-1521zM328 201h1099v1134h-1099v-1134zM1083 416l-215 215l-215 -215l-127 125l217 217l-217 215l127 127l215 -217l215 215l127 -125l-215 -215l215 -217z" />
    <glyph glyph-name="Scedilla" unicode="&#x15e;" 
d="M117 0v1536h1521v-1536h-1521zM328 201h1099v1134h-1099v-1134zM1083 416l-215 215l-215 -215l-127 125l217 217l-217 215l127 127l215 -217l215 215l127 -125l-215 -215l215 -217z" />
    <glyph glyph-name="scedilla" unicode="&#x15f;" 
d="M117 0v1536h1521v-1536h-1521zM328 201h1099v1134h-1099v-1134zM1083 416l-215 215l-215 -215l-127 125l217 217l-217 215l127 127l215 -217l215 215l127 -125l-215 -215l215 -217z" />
    <glyph glyph-name="Scaron" unicode="&#x160;" 
d="M117 0v1536h1521v-1536h-1521zM328 201h1099v1134h-1099v-1134zM1083 416l-215 215l-215 -215l-127 125l217 217l-217 215l127 127l215 -217l215 215l127 -125l-215 -215l215 -217z" />
    <glyph glyph-name="scaron" unicode="&#x161;" 
d="M117 0v1536h1521v-1536h-1521zM328 201h1099v1134h-1099v-1134zM1083 416l-215 215l-215 -215l-127 125l217 217l-217 215l127 127l215 -217l215 215l127 -125l-215 -215l215 -217z" />
    <glyph glyph-name="uni0162" unicode="&#x162;" 
d="M117 0v1536h1521v-1536h-1521zM328 201h1099v1134h-1099v-1134zM1083 416l-215 215l-215 -215l-127 125l217 217l-217 215l127 127l215 -217l215 215l127 -125l-215 -215l215 -217z" />
    <glyph glyph-name="uni0163" unicode="&#x163;" 
d="M117 0v1536h1521v-1536h-1521zM328 201h1099v1134h-1099v-1134zM1083 416l-215 215l-215 -215l-127 125l217 217l-217 215l127 127l215 -217l215 215l127 -125l-215 -215l215 -217z" />
    <glyph glyph-name="Tcaron" unicode="&#x164;" 
d="M117 0v1536h1521v-1536h-1521zM328 201h1099v1134h-1099v-1134zM1083 416l-215 215l-215 -215l-127 125l217 217l-217 215l127 127l215 -217l215 215l127 -125l-215 -215l215 -217z" />
    <glyph glyph-name="tcaron" unicode="&#x165;" 
d="M117 0v1536h1521v-1536h-1521zM328 201h1099v1134h-1099v-1134zM1083 416l-215 215l-215 -215l-127 125l217 217l-217 215l127 127l215 -217l215 215l127 -125l-215 -215l215 -217z" />
    <glyph glyph-name="Tbar" unicode="&#x166;" 
d="M117 0v1536h1521v-1536h-1521zM328 201h1099v1134h-1099v-1134zM1083 416l-215 215l-215 -215l-127 125l217 217l-217 215l127 127l215 -217l215 215l127 -125l-215 -215l215 -217z" />
    <glyph glyph-name="tbar" unicode="&#x167;" 
d="M117 0v1536h1521v-1536h-1521zM328 201h1099v1134h-1099v-1134zM1083 416l-215 215l-215 -215l-127 125l217 217l-217 215l127 127l215 -217l215 215l127 -125l-215 -215l215 -217z" />
    <glyph glyph-name="Utilde" unicode="&#x168;" 
d="M117 0v1536h1521v-1536h-1521zM328 201h1099v1134h-1099v-1134zM1083 416l-215 215l-215 -215l-127 125l217 217l-217 215l127 127l215 -217l215 215l127 -125l-215 -215l215 -217z" />
    <glyph glyph-name="utilde" unicode="&#x169;" 
d="M117 0v1536h1521v-1536h-1521zM328 201h1099v1134h-1099v-1134zM1083 416l-215 215l-215 -215l-127 125l217 217l-217 215l127 127l215 -217l215 215l127 -125l-215 -215l215 -217z" />
    <glyph glyph-name="Umacron" unicode="&#x16a;" 
d="M117 0v1536h1521v-1536h-1521zM328 201h1099v1134h-1099v-1134zM1083 416l-215 215l-215 -215l-127 125l217 217l-217 215l127 127l215 -217l215 215l127 -125l-215 -215l215 -217z" />
    <glyph glyph-name="umacron" unicode="&#x16b;" 
d="M117 0v1536h1521v-1536h-1521zM328 201h1099v1134h-1099v-1134zM1083 416l-215 215l-215 -215l-127 125l217 217l-217 215l127 127l215 -217l215 215l127 -125l-215 -215l215 -217z" />
    <glyph glyph-name="Ubreve" unicode="&#x16c;" 
d="M117 0v1536h1521v-1536h-1521zM328 201h1099v1134h-1099v-1134zM1083 416l-215 215l-215 -215l-127 125l217 217l-217 215l127 127l215 -217l215 215l127 -125l-215 -215l215 -217z" />
    <glyph glyph-name="ubreve" unicode="&#x16d;" 
d="M117 0v1536h1521v-1536h-1521zM328 201h1099v1134h-1099v-1134zM1083 416l-215 215l-215 -215l-127 125l217 217l-217 215l127 127l215 -217l215 215l127 -125l-215 -215l215 -217z" />
    <glyph glyph-name="Uring" unicode="&#x16e;" 
d="M117 0v1536h1521v-1536h-1521zM328 201h1099v1134h-1099v-1134zM1083 416l-215 215l-215 -215l-127 125l217 217l-217 215l127 127l215 -217l215 215l127 -125l-215 -215l215 -217z" />
    <glyph glyph-name="uring" unicode="&#x16f;" 
d="M117 0v1536h1521v-1536h-1521zM328 201h1099v1134h-1099v-1134zM1083 416l-215 215l-215 -215l-127 125l217 217l-217 215l127 127l215 -217l215 215l127 -125l-215 -215l215 -217z" />
    <glyph glyph-name="Uhungarumlaut" unicode="&#x170;" 
d="M117 0v1536h1521v-1536h-1521zM328 201h1099v1134h-1099v-1134zM1083 416l-215 215l-215 -215l-127 125l217 217l-217 215l127 127l215 -217l215 215l127 -125l-215 -215l215 -217z" />
    <glyph glyph-name="uhungarumlaut" unicode="&#x171;" 
d="M117 0v1536h1521v-1536h-1521zM328 201h1099v1134h-1099v-1134zM1083 416l-215 215l-215 -215l-127 125l217 217l-217 215l127 127l215 -217l215 215l127 -125l-215 -215l215 -217z" />
    <glyph glyph-name="Uogonek" unicode="&#x172;" 
d="M117 0v1536h1521v-1536h-1521zM328 201h1099v1134h-1099v-1134zM1083 416l-215 215l-215 -215l-127 125l217 217l-217 215l127 127l215 -217l215 215l127 -125l-215 -215l215 -217z" />
    <glyph glyph-name="uogonek" unicode="&#x173;" 
d="M117 0v1536h1521v-1536h-1521zM328 201h1099v1134h-1099v-1134zM1083 416l-215 215l-215 -215l-127 125l217 217l-217 215l127 127l215 -217l215 215l127 -125l-215 -215l215 -217z" />
    <glyph glyph-name="Wcircumflex" unicode="&#x174;" 
d="M117 0v1536h1521v-1536h-1521zM328 201h1099v1134h-1099v-1134zM1083 416l-215 215l-215 -215l-127 125l217 217l-217 215l127 127l215 -217l215 215l127 -125l-215 -215l215 -217z" />
    <glyph glyph-name="wcircumflex" unicode="&#x175;" 
d="M117 0v1536h1521v-1536h-1521zM328 201h1099v1134h-1099v-1134zM1083 416l-215 215l-215 -215l-127 125l217 217l-217 215l127 127l215 -217l215 215l127 -125l-215 -215l215 -217z" />
    <glyph glyph-name="Ycircumflex" unicode="&#x176;" 
d="M117 0v1536h1521v-1536h-1521zM328 201h1099v1134h-1099v-1134zM1083 416l-215 215l-215 -215l-127 125l217 217l-217 215l127 127l215 -217l215 215l127 -125l-215 -215l215 -217z" />
    <glyph glyph-name="ycircumflex" unicode="&#x177;" 
d="M117 0v1536h1521v-1536h-1521zM328 201h1099v1134h-1099v-1134zM1083 416l-215 215l-215 -215l-127 125l217 217l-217 215l127 127l215 -217l215 215l127 -125l-215 -215l215 -217z" />
    <glyph glyph-name="Ydieresis" unicode="&#x178;" 
d="M117 0v1536h1521v-1536h-1521zM328 201h1099v1134h-1099v-1134zM1083 416l-215 215l-215 -215l-127 125l217 217l-217 215l127 127l215 -217l215 215l127 -125l-215 -215l215 -217z" />
    <glyph glyph-name="Zacute" unicode="&#x179;" 
d="M117 0v1536h1521v-1536h-1521zM328 201h1099v1134h-1099v-1134zM1083 416l-215 215l-215 -215l-127 125l217 217l-217 215l127 127l215 -217l215 215l127 -125l-215 -215l215 -217z" />
    <glyph glyph-name="zacute" unicode="&#x17a;" 
d="M117 0v1536h1521v-1536h-1521zM328 201h1099v1134h-1099v-1134zM1083 416l-215 215l-215 -215l-127 125l217 217l-217 215l127 127l215 -217l215 215l127 -125l-215 -215l215 -217z" />
    <glyph glyph-name="Zdotaccent" unicode="&#x17b;" 
d="M117 0v1536h1521v-1536h-1521zM328 201h1099v1134h-1099v-1134zM1083 416l-215 215l-215 -215l-127 125l217 217l-217 215l127 127l215 -217l215 215l127 -125l-215 -215l215 -217z" />
    <glyph glyph-name="zdotaccent" unicode="&#x17c;" 
d="M117 0v1536h1521v-1536h-1521zM328 201h1099v1134h-1099v-1134zM1083 416l-215 215l-215 -215l-127 125l217 217l-217 215l127 127l215 -217l215 215l127 -125l-215 -215l215 -217z" />
    <glyph glyph-name="Zcaron" unicode="&#x17d;" 
d="M117 0v1536h1521v-1536h-1521zM328 201h1099v1134h-1099v-1134zM1083 416l-215 215l-215 -215l-127 125l217 217l-217 215l127 127l215 -217l215 215l127 -125l-215 -215l215 -217z" />
    <glyph glyph-name="zcaron" unicode="&#x17e;" 
d="M117 0v1536h1521v-1536h-1521zM328 201h1099v1134h-1099v-1134zM1083 416l-215 215l-215 -215l-127 125l217 217l-217 215l127 127l215 -217l215 215l127 -125l-215 -215l215 -217z" />
    <glyph glyph-name="florin" unicode="&#x192;" 
d="M117 0v1536h1521v-1536h-1521zM328 201h1099v1134h-1099v-1134zM1083 416l-215 215l-215 -215l-127 125l217 217l-217 215l127 127l215 -217l215 215l127 -125l-215 -215l215 -217z" />
    <glyph glyph-name="Aringacute" unicode="&#x1fa;" 
d="M117 0v1536h1521v-1536h-1521zM328 201h1099v1134h-1099v-1134zM1083 416l-215 215l-215 -215l-127 125l217 217l-217 215l127 127l215 -217l215 215l127 -125l-215 -215l215 -217z" />
    <glyph glyph-name="aringacute" unicode="&#x1fb;" 
d="M117 0v1536h1521v-1536h-1521zM328 201h1099v1134h-1099v-1134zM1083 416l-215 215l-215 -215l-127 125l217 217l-217 215l127 127l215 -217l215 215l127 -125l-215 -215l215 -217z" />
    <glyph glyph-name="AEacute" unicode="&#x1fc;" 
d="M117 0v1536h1521v-1536h-1521zM328 201h1099v1134h-1099v-1134zM1083 416l-215 215l-215 -215l-127 125l217 217l-217 215l127 127l215 -217l215 215l127 -125l-215 -215l215 -217z" />
    <glyph glyph-name="aeacute" unicode="&#x1fd;" 
d="M117 0v1536h1521v-1536h-1521zM328 201h1099v1134h-1099v-1134zM1083 416l-215 215l-215 -215l-127 125l217 217l-217 215l127 127l215 -217l215 215l127 -125l-215 -215l215 -217z" />
    <glyph glyph-name="Oslashacute" unicode="&#x1fe;" 
d="M117 0v1536h1521v-1536h-1521zM328 201h1099v1134h-1099v-1134zM1083 416l-215 215l-215 -215l-127 125l217 217l-217 215l127 127l215 -217l215 215l127 -125l-215 -215l215 -217z" />
    <glyph glyph-name="oslashacute" unicode="&#x1ff;" 
d="M117 0v1536h1521v-1536h-1521zM328 201h1099v1134h-1099v-1134zM1083 416l-215 215l-215 -215l-127 125l217 217l-217 215l127 127l215 -217l215 215l127 -125l-215 -215l215 -217z" />
    <glyph glyph-name="Scommaaccent" unicode="&#x218;" 
d="M117 0v1536h1521v-1536h-1521zM328 201h1099v1134h-1099v-1134zM1083 416l-215 215l-215 -215l-127 125l217 217l-217 215l127 127l215 -217l215 215l127 -125l-215 -215l215 -217z" />
    <glyph glyph-name="scommaaccent" unicode="&#x219;" 
d="M117 0v1536h1521v-1536h-1521zM328 201h1099v1134h-1099v-1134zM1083 416l-215 215l-215 -215l-127 125l217 217l-217 215l127 127l215 -217l215 215l127 -125l-215 -215l215 -217z" />
    <glyph glyph-name="uni021A" unicode="&#x21a;" 
d="M117 0v1536h1521v-1536h-1521zM328 201h1099v1134h-1099v-1134zM1083 416l-215 215l-215 -215l-127 125l217 217l-217 215l127 127l215 -217l215 215l127 -125l-215 -215l215 -217z" />
    <glyph glyph-name="uni021B" unicode="&#x21b;" 
d="M117 0v1536h1521v-1536h-1521zM328 201h1099v1134h-1099v-1134zM1083 416l-215 215l-215 -215l-127 125l217 217l-217 215l127 127l215 -217l215 215l127 -125l-215 -215l215 -217z" />
    <glyph glyph-name="circumflex" unicode="&#x2c6;" 
d="M117 0v1536h1521v-1536h-1521zM328 201h1099v1134h-1099v-1134zM1083 416l-215 215l-215 -215l-127 125l217 217l-217 215l127 127l215 -217l215 215l127 -125l-215 -215l215 -217z" />
    <glyph glyph-name="caron" unicode="&#x2c7;" 
d="M117 0v1536h1521v-1536h-1521zM328 201h1099v1134h-1099v-1134zM1083 416l-215 215l-215 -215l-127 125l217 217l-217 215l127 127l215 -217l215 215l127 -125l-215 -215l215 -217z" />
    <glyph glyph-name="breve" unicode="&#x2d8;" 
d="M117 0v1536h1521v-1536h-1521zM328 201h1099v1134h-1099v-1134zM1083 416l-215 215l-215 -215l-127 125l217 217l-217 215l127 127l215 -217l215 215l127 -125l-215 -215l215 -217z" />
    <glyph glyph-name="dotaccent" unicode="&#x2d9;" 
d="M117 0v1536h1521v-1536h-1521zM328 201h1099v1134h-1099v-1134zM1083 416l-215 215l-215 -215l-127 125l217 217l-217 215l127 127l215 -217l215 215l127 -125l-215 -215l215 -217z" />
    <glyph glyph-name="ring" unicode="&#x2da;" 
d="M117 0v1536h1521v-1536h-1521zM328 201h1099v1134h-1099v-1134zM1083 416l-215 215l-215 -215l-127 125l217 217l-217 215l127 127l215 -217l215 215l127 -125l-215 -215l215 -217z" />
    <glyph glyph-name="ogonek" unicode="&#x2db;" 
d="M117 0v1536h1521v-1536h-1521zM328 201h1099v1134h-1099v-1134zM1083 416l-215 215l-215 -215l-127 125l217 217l-217 215l127 127l215 -217l215 215l127 -125l-215 -215l215 -217z" />
    <glyph glyph-name="tilde" unicode="&#x2dc;" 
d="M117 0v1536h1521v-1536h-1521zM328 201h1099v1134h-1099v-1134zM1083 416l-215 215l-215 -215l-127 125l217 217l-217 215l127 127l215 -217l215 215l127 -125l-215 -215l215 -217z" />
    <glyph glyph-name="hungarumlaut" unicode="&#x2dd;" 
d="M117 0v1536h1521v-1536h-1521zM328 201h1099v1134h-1099v-1134zM1083 416l-215 215l-215 -215l-127 125l217 217l-217 215l127 127l215 -217l215 215l127 -125l-215 -215l215 -217z" />
    <glyph glyph-name="gravecomb" unicode="&#x300;" 
d="M117 0v1536h1521v-1536h-1521zM328 201h1099v1134h-1099v-1134zM1083 416l-215 215l-215 -215l-127 125l217 217l-217 215l127 127l215 -217l215 215l127 -125l-215 -215l215 -217z" />
    <glyph glyph-name="acutecomb" unicode="&#x301;" 
d="M117 0v1536h1521v-1536h-1521zM328 201h1099v1134h-1099v-1134zM1083 416l-215 215l-215 -215l-127 125l217 217l-217 215l127 127l215 -217l215 215l127 -125l-215 -215l215 -217z" />
    <glyph glyph-name="circumflexcomb" unicode="&#x302;" 
d="M117 0v1536h1521v-1536h-1521zM328 201h1099v1134h-1099v-1134zM1083 416l-215 215l-215 -215l-127 125l217 217l-217 215l127 127l215 -217l215 215l127 -125l-215 -215l215 -217z" />
    <glyph glyph-name="tildecomb" unicode="&#x303;" 
d="M117 0v1536h1521v-1536h-1521zM328 201h1099v1134h-1099v-1134zM1083 416l-215 215l-215 -215l-127 125l217 217l-217 215l127 127l215 -217l215 215l127 -125l-215 -215l215 -217z" />
    <glyph glyph-name="macroncomb" unicode="&#x304;" 
d="M117 0v1536h1521v-1536h-1521zM328 201h1099v1134h-1099v-1134zM1083 416l-215 215l-215 -215l-127 125l217 217l-217 215l127 127l215 -217l215 215l127 -125l-215 -215l215 -217z" />
    <glyph glyph-name="brevecomb" unicode="&#x306;" 
d="M117 0v1536h1521v-1536h-1521zM328 201h1099v1134h-1099v-1134zM1083 416l-215 215l-215 -215l-127 125l217 217l-217 215l127 127l215 -217l215 215l127 -125l-215 -215l215 -217z" />
    <glyph glyph-name="dotaccentcomb" unicode="&#x307;" 
d="M117 0v1536h1521v-1536h-1521zM328 201h1099v1134h-1099v-1134zM1083 416l-215 215l-215 -215l-127 125l217 217l-217 215l127 127l215 -217l215 215l127 -125l-215 -215l215 -217z" />
    <glyph glyph-name="dieresiscomb" unicode="&#x308;" 
d="M117 0v1536h1521v-1536h-1521zM328 201h1099v1134h-1099v-1134zM1083 416l-215 215l-215 -215l-127 125l217 217l-217 215l127 127l215 -217l215 215l127 -125l-215 -215l215 -217z" />
    <glyph glyph-name="ringcomb" unicode="&#x30a;" 
d="M117 0v1536h1521v-1536h-1521zM328 201h1099v1134h-1099v-1134zM1083 416l-215 215l-215 -215l-127 125l217 217l-217 215l127 127l215 -217l215 215l127 -125l-215 -215l215 -217z" />
    <glyph glyph-name="hungarumlautcomb" unicode="&#x30b;" 
d="M117 0v1536h1521v-1536h-1521zM328 201h1099v1134h-1099v-1134zM1083 416l-215 215l-215 -215l-127 125l217 217l-217 215l127 127l215 -217l215 215l127 -125l-215 -215l215 -217z" />
    <glyph glyph-name="caroncomb" unicode="&#x30c;" 
d="M117 0v1536h1521v-1536h-1521zM328 201h1099v1134h-1099v-1134zM1083 416l-215 215l-215 -215l-127 125l217 217l-217 215l127 127l215 -217l215 215l127 -125l-215 -215l215 -217z" />
    <glyph glyph-name="commaaccentcomb" unicode="&#x326;" 
d="M117 0v1536h1521v-1536h-1521zM328 201h1099v1134h-1099v-1134zM1083 416l-215 215l-215 -215l-127 125l217 217l-217 215l127 127l215 -217l215 215l127 -125l-215 -215l215 -217z" />
    <glyph glyph-name="cedillacomb" unicode="&#x327;" 
d="M117 0v1536h1521v-1536h-1521zM328 201h1099v1134h-1099v-1134zM1083 416l-215 215l-215 -215l-127 125l217 217l-217 215l127 127l215 -217l215 215l127 -125l-215 -215l215 -217z" />
    <glyph glyph-name="ogonekcomb" unicode="&#x328;" 
d="M117 0v1536h1521v-1536h-1521zM328 201h1099v1134h-1099v-1134zM1083 416l-215 215l-215 -215l-127 125l217 217l-217 215l127 127l215 -217l215 215l127 -125l-215 -215l215 -217z" />
    <glyph glyph-name="pi" unicode="&#x3c0;" 
d="M117 0v1536h1521v-1536h-1521zM328 201h1099v1134h-1099v-1134zM1083 416l-215 215l-215 -215l-127 125l217 217l-217 215l127 127l215 -217l215 215l127 -125l-215 -215l215 -217z" />
    <glyph glyph-name="Wgrave" unicode="&#x1e80;" 
d="M117 0v1536h1521v-1536h-1521zM328 201h1099v1134h-1099v-1134zM1083 416l-215 215l-215 -215l-127 125l217 217l-217 215l127 127l215 -217l215 215l127 -125l-215 -215l215 -217z" />
    <glyph glyph-name="wgrave" unicode="&#x1e81;" 
d="M117 0v1536h1521v-1536h-1521zM328 201h1099v1134h-1099v-1134zM1083 416l-215 215l-215 -215l-127 125l217 217l-217 215l127 127l215 -217l215 215l127 -125l-215 -215l215 -217z" />
    <glyph glyph-name="Wacute" unicode="&#x1e82;" 
d="M117 0v1536h1521v-1536h-1521zM328 201h1099v1134h-1099v-1134zM1083 416l-215 215l-215 -215l-127 125l217 217l-217 215l127 127l215 -217l215 215l127 -125l-215 -215l215 -217z" />
    <glyph glyph-name="wacute" unicode="&#x1e83;" 
d="M117 0v1536h1521v-1536h-1521zM328 201h1099v1134h-1099v-1134zM1083 416l-215 215l-215 -215l-127 125l217 217l-217 215l127 127l215 -217l215 215l127 -125l-215 -215l215 -217z" />
    <glyph glyph-name="Wdieresis" unicode="&#x1e84;" 
d="M117 0v1536h1521v-1536h-1521zM328 201h1099v1134h-1099v-1134zM1083 416l-215 215l-215 -215l-127 125l217 217l-217 215l127 127l215 -217l215 215l127 -125l-215 -215l215 -217z" />
    <glyph glyph-name="wdieresis" unicode="&#x1e85;" 
d="M117 0v1536h1521v-1536h-1521zM328 201h1099v1134h-1099v-1134zM1083 416l-215 215l-215 -215l-127 125l217 217l-217 215l127 127l215 -217l215 215l127 -125l-215 -215l215 -217z" />
    <glyph glyph-name="uni1E9E" unicode="&#x1e9e;" 
d="M117 0v1536h1521v-1536h-1521zM328 201h1099v1134h-1099v-1134zM1083 416l-215 215l-215 -215l-127 125l217 217l-217 215l127 127l215 -217l215 215l127 -125l-215 -215l215 -217z" />
    <glyph glyph-name="Ygrave" unicode="&#x1ef2;" 
d="M117 0v1536h1521v-1536h-1521zM328 201h1099v1134h-1099v-1134zM1083 416l-215 215l-215 -215l-127 125l217 217l-217 215l127 127l215 -217l215 215l127 -125l-215 -215l215 -217z" />
    <glyph glyph-name="ygrave" unicode="&#x1ef3;" 
d="M117 0v1536h1521v-1536h-1521zM328 201h1099v1134h-1099v-1134zM1083 416l-215 215l-215 -215l-127 125l217 217l-217 215l127 127l215 -217l215 215l127 -125l-215 -215l215 -217z" />
    <glyph glyph-name="endash" unicode="&#x2013;" 
d="M117 0v1536h1521v-1536h-1521zM328 201h1099v1134h-1099v-1134zM1083 416l-215 215l-215 -215l-127 125l217 217l-217 215l127 127l215 -217l215 215l127 -125l-215 -215l215 -217z" />
    <glyph glyph-name="emdash" unicode="&#x2014;" 
d="M117 0v1536h1521v-1536h-1521zM328 201h1099v1134h-1099v-1134zM1083 416l-215 215l-215 -215l-127 125l217 217l-217 215l127 127l215 -217l215 215l127 -125l-215 -215l215 -217z" />
    <glyph glyph-name="quoteleft" unicode="&#x2018;" 
d="M117 0v1536h1521v-1536h-1521zM328 201h1099v1134h-1099v-1134zM1083 416l-215 215l-215 -215l-127 125l217 217l-217 215l127 127l215 -217l215 215l127 -125l-215 -215l215 -217z" />
    <glyph glyph-name="quoteright" unicode="&#x2019;" 
d="M117 0v1536h1521v-1536h-1521zM328 201h1099v1134h-1099v-1134zM1083 416l-215 215l-215 -215l-127 125l217 217l-217 215l127 127l215 -217l215 215l127 -125l-215 -215l215 -217z" />
    <glyph glyph-name="quotesinglbase" unicode="&#x201a;" 
d="M117 0v1536h1521v-1536h-1521zM328 201h1099v1134h-1099v-1134zM1083 416l-215 215l-215 -215l-127 125l217 217l-217 215l127 127l215 -217l215 215l127 -125l-215 -215l215 -217z" />
    <glyph glyph-name="quotedblleft" unicode="&#x201c;" 
d="M117 0v1536h1521v-1536h-1521zM328 201h1099v1134h-1099v-1134zM1083 416l-215 215l-215 -215l-127 125l217 217l-217 215l127 127l215 -217l215 215l127 -125l-215 -215l215 -217z" />
    <glyph glyph-name="quotedblright" unicode="&#x201d;" 
d="M117 0v1536h1521v-1536h-1521zM328 201h1099v1134h-1099v-1134zM1083 416l-215 215l-215 -215l-127 125l217 217l-217 215l127 127l215 -217l215 215l127 -125l-215 -215l215 -217z" />
    <glyph glyph-name="quotedblbase" unicode="&#x201e;" 
d="M117 0v1536h1521v-1536h-1521zM328 201h1099v1134h-1099v-1134zM1083 416l-215 215l-215 -215l-127 125l217 217l-217 215l127 127l215 -217l215 215l127 -125l-215 -215l215 -217z" />
    <glyph glyph-name="dagger" unicode="&#x2020;" 
d="M117 0v1536h1521v-1536h-1521zM328 201h1099v1134h-1099v-1134zM1083 416l-215 215l-215 -215l-127 125l217 217l-217 215l127 127l215 -217l215 215l127 -125l-215 -215l215 -217z" />
    <glyph glyph-name="daggerdbl" unicode="&#x2021;" 
d="M117 0v1536h1521v-1536h-1521zM328 201h1099v1134h-1099v-1134zM1083 416l-215 215l-215 -215l-127 125l217 217l-217 215l127 127l215 -217l215 215l127 -125l-215 -215l215 -217z" />
    <glyph glyph-name="bullet" unicode="&#x2022;" 
d="M117 0v1536h1521v-1536h-1521zM328 201h1099v1134h-1099v-1134zM1083 416l-215 215l-215 -215l-127 125l217 217l-217 215l127 127l215 -217l215 215l127 -125l-215 -215l215 -217z" />
    <glyph glyph-name="ellipsis" unicode="&#x2026;" 
d="M117 0v1536h1521v-1536h-1521zM328 201h1099v1134h-1099v-1134zM1083 416l-215 215l-215 -215l-127 125l217 217l-217 215l127 127l215 -217l215 215l127 -125l-215 -215l215 -217z" />
    <glyph glyph-name="perthousand" unicode="&#x2030;" 
d="M117 0v1536h1521v-1536h-1521zM328 201h1099v1134h-1099v-1134zM1083 416l-215 215l-215 -215l-127 125l217 217l-217 215l127 127l215 -217l215 215l127 -125l-215 -215l215 -217z" />
    <glyph glyph-name="guilsinglleft" unicode="&#x2039;" 
d="M117 0v1536h1521v-1536h-1521zM328 201h1099v1134h-1099v-1134zM1083 416l-215 215l-215 -215l-127 125l217 217l-217 215l127 127l215 -217l215 215l127 -125l-215 -215l215 -217z" />
    <glyph glyph-name="guilsinglright" unicode="&#x203a;" 
d="M117 0v1536h1521v-1536h-1521zM328 201h1099v1134h-1099v-1134zM1083 416l-215 215l-215 -215l-127 125l217 217l-217 215l127 127l215 -217l215 215l127 -125l-215 -215l215 -217z" />
    <glyph glyph-name="fraction" unicode="&#x2044;" 
d="M117 0v1536h1521v-1536h-1521zM328 201h1099v1134h-1099v-1134zM1083 416l-215 215l-215 -215l-127 125l217 217l-217 215l127 127l215 -217l215 215l127 -125l-215 -215l215 -217z" />
    <glyph glyph-name="Euro" unicode="&#x20ac;" 
d="M117 0v1536h1521v-1536h-1521zM328 201h1099v1134h-1099v-1134zM1083 416l-215 215l-215 -215l-127 125l217 217l-217 215l127 127l215 -217l215 215l127 -125l-215 -215l215 -217z" />
    <glyph glyph-name="uni2116" unicode="&#x2116;" 
d="M117 0v1536h1521v-1536h-1521zM328 201h1099v1134h-1099v-1134zM1083 416l-215 215l-215 -215l-127 125l217 217l-217 215l127 127l215 -217l215 215l127 -125l-215 -215l215 -217z" />
    <glyph glyph-name="uni2117" unicode="&#x2117;" 
d="M117 0v1536h1521v-1536h-1521zM328 201h1099v1134h-1099v-1134zM1083 416l-215 215l-215 -215l-127 125l217 217l-217 215l127 127l215 -217l215 215l127 -125l-215 -215l215 -217z" />
    <glyph glyph-name="uni2120" unicode="&#x2120;" 
d="M117 0v1536h1521v-1536h-1521zM328 201h1099v1134h-1099v-1134zM1083 416l-215 215l-215 -215l-127 125l217 217l-217 215l127 127l215 -217l215 215l127 -125l-215 -215l215 -217z" />
    <glyph glyph-name="trademark" unicode="&#x2122;" 
d="M117 0v1536h1521v-1536h-1521zM328 201h1099v1134h-1099v-1134zM1083 416l-215 215l-215 -215l-127 125l217 217l-217 215l127 127l215 -217l215 215l127 -125l-215 -215l215 -217z" />
    <glyph glyph-name="uni2150" unicode="&#x2150;" 
d="M117 0v1536h1521v-1536h-1521zM328 201h1099v1134h-1099v-1134zM1083 416l-215 215l-215 -215l-127 125l217 217l-217 215l127 127l215 -217l215 215l127 -125l-215 -215l215 -217z" />
    <glyph glyph-name="uni2151" unicode="&#x2151;" 
d="M117 0v1536h1521v-1536h-1521zM328 201h1099v1134h-1099v-1134zM1083 416l-215 215l-215 -215l-127 125l217 217l-217 215l127 127l215 -217l215 215l127 -125l-215 -215l215 -217z" />
    <glyph glyph-name="uni2153" unicode="&#x2153;" 
d="M117 0v1536h1521v-1536h-1521zM328 201h1099v1134h-1099v-1134zM1083 416l-215 215l-215 -215l-127 125l217 217l-217 215l127 127l215 -217l215 215l127 -125l-215 -215l215 -217z" />
    <glyph glyph-name="uni2154" unicode="&#x2154;" 
d="M117 0v1536h1521v-1536h-1521zM328 201h1099v1134h-1099v-1134zM1083 416l-215 215l-215 -215l-127 125l217 217l-217 215l127 127l215 -217l215 215l127 -125l-215 -215l215 -217z" />
    <glyph glyph-name="uni2155" unicode="&#x2155;" 
d="M117 0v1536h1521v-1536h-1521zM328 201h1099v1134h-1099v-1134zM1083 416l-215 215l-215 -215l-127 125l217 217l-217 215l127 127l215 -217l215 215l127 -125l-215 -215l215 -217z" />
    <glyph glyph-name="uni2156" unicode="&#x2156;" 
d="M117 0v1536h1521v-1536h-1521zM328 201h1099v1134h-1099v-1134zM1083 416l-215 215l-215 -215l-127 125l217 217l-217 215l127 127l215 -217l215 215l127 -125l-215 -215l215 -217z" />
    <glyph glyph-name="uni2157" unicode="&#x2157;" 
d="M117 0v1536h1521v-1536h-1521zM328 201h1099v1134h-1099v-1134zM1083 416l-215 215l-215 -215l-127 125l217 217l-217 215l127 127l215 -217l215 215l127 -125l-215 -215l215 -217z" />
    <glyph glyph-name="uni2158" unicode="&#x2158;" 
d="M117 0v1536h1521v-1536h-1521zM328 201h1099v1134h-1099v-1134zM1083 416l-215 215l-215 -215l-127 125l217 217l-217 215l127 127l215 -217l215 215l127 -125l-215 -215l215 -217z" />
    <glyph glyph-name="uni2159" unicode="&#x2159;" 
d="M117 0v1536h1521v-1536h-1521zM328 201h1099v1134h-1099v-1134zM1083 416l-215 215l-215 -215l-127 125l217 217l-217 215l127 127l215 -217l215 215l127 -125l-215 -215l215 -217z" />
    <glyph glyph-name="oneeighth" unicode="&#x215b;" 
d="M117 0v1536h1521v-1536h-1521zM328 201h1099v1134h-1099v-1134zM1083 416l-215 215l-215 -215l-127 125l217 217l-217 215l127 127l215 -217l215 215l127 -125l-215 -215l215 -217z" />
    <glyph glyph-name="arrowleft" unicode="&#x2190;" 
d="M117 0v1536h1521v-1536h-1521zM328 201h1099v1134h-1099v-1134zM1083 416l-215 215l-215 -215l-127 125l217 217l-217 215l127 127l215 -217l215 215l127 -125l-215 -215l215 -217z" />
    <glyph glyph-name="arrowup" unicode="&#x2191;" 
d="M117 0v1536h1521v-1536h-1521zM328 201h1099v1134h-1099v-1134zM1083 416l-215 215l-215 -215l-127 125l217 217l-217 215l127 127l215 -217l215 215l127 -125l-215 -215l215 -217z" />
    <glyph glyph-name="arrowright" unicode="&#x2192;" 
d="M117 0v1536h1521v-1536h-1521zM328 201h1099v1134h-1099v-1134zM1083 416l-215 215l-215 -215l-127 125l217 217l-217 215l127 127l215 -217l215 215l127 -125l-215 -215l215 -217z" />
    <glyph glyph-name="arrowdown" unicode="&#x2193;" 
d="M117 0v1536h1521v-1536h-1521zM328 201h1099v1134h-1099v-1134zM1083 416l-215 215l-215 -215l-127 125l217 217l-217 215l127 127l215 -217l215 215l127 -125l-215 -215l215 -217z" />
    <glyph glyph-name="arrowboth" unicode="&#x2194;" 
d="M117 0v1536h1521v-1536h-1521zM328 201h1099v1134h-1099v-1134zM1083 416l-215 215l-215 -215l-127 125l217 217l-217 215l127 127l215 -217l215 215l127 -125l-215 -215l215 -217z" />
    <glyph glyph-name="arrowupdn" unicode="&#x2195;" 
d="M117 0v1536h1521v-1536h-1521zM328 201h1099v1134h-1099v-1134zM1083 416l-215 215l-215 -215l-127 125l217 217l-217 215l127 127l215 -217l215 215l127 -125l-215 -215l215 -217z" />
    <glyph glyph-name="uni2196" unicode="&#x2196;" 
d="M117 0v1536h1521v-1536h-1521zM328 201h1099v1134h-1099v-1134zM1083 416l-215 215l-215 -215l-127 125l217 217l-217 215l127 127l215 -217l215 215l127 -125l-215 -215l215 -217z" />
    <glyph glyph-name="uni2197" unicode="&#x2197;" 
d="M117 0v1536h1521v-1536h-1521zM328 201h1099v1134h-1099v-1134zM1083 416l-215 215l-215 -215l-127 125l217 217l-217 215l127 127l215 -217l215 215l127 -125l-215 -215l215 -217z" />
    <glyph glyph-name="uni2198" unicode="&#x2198;" 
d="M117 0v1536h1521v-1536h-1521zM328 201h1099v1134h-1099v-1134zM1083 416l-215 215l-215 -215l-127 125l217 217l-217 215l127 127l215 -217l215 215l127 -125l-215 -215l215 -217z" />
    <glyph glyph-name="uni2199" unicode="&#x2199;" 
d="M117 0v1536h1521v-1536h-1521zM328 201h1099v1134h-1099v-1134zM1083 416l-215 215l-215 -215l-127 125l217 217l-217 215l127 127l215 -217l215 215l127 -125l-215 -215l215 -217z" />
    <glyph glyph-name="minus" unicode="&#x2212;" 
d="M117 0v1536h1521v-1536h-1521zM328 201h1099v1134h-1099v-1134zM1083 416l-215 215l-215 -215l-127 125l217 217l-217 215l127 127l215 -217l215 215l127 -125l-215 -215l215 -217z" />
    <glyph glyph-name="infinity" unicode="&#x221e;" 
d="M117 0v1536h1521v-1536h-1521zM328 201h1099v1134h-1099v-1134zM1083 416l-215 215l-215 -215l-127 125l217 217l-217 215l127 127l215 -217l215 215l127 -125l-215 -215l215 -217z" />
    <glyph glyph-name="approxequal" unicode="&#x2248;" 
d="M117 0v1536h1521v-1536h-1521zM328 201h1099v1134h-1099v-1134zM1083 416l-215 215l-215 -215l-127 125l217 217l-217 215l127 127l215 -217l215 215l127 -125l-215 -215l215 -217z" />
    <glyph glyph-name="notequal" unicode="&#x2260;" 
d="M117 0v1536h1521v-1536h-1521zM328 201h1099v1134h-1099v-1134zM1083 416l-215 215l-215 -215l-127 125l217 217l-217 215l127 127l215 -217l215 215l127 -125l-215 -215l215 -217z" />
    <glyph glyph-name="lessequal" unicode="&#x2264;" 
d="M117 0v1536h1521v-1536h-1521zM328 201h1099v1134h-1099v-1134zM1083 416l-215 215l-215 -215l-127 125l217 217l-217 215l127 127l215 -217l215 215l127 -125l-215 -215l215 -217z" />
    <glyph glyph-name="greaterequal" unicode="&#x2265;" 
d="M117 0v1536h1521v-1536h-1521zM328 201h1099v1134h-1099v-1134zM1083 416l-215 215l-215 -215l-127 125l217 217l-217 215l127 127l215 -217l215 215l127 -125l-215 -215l215 -217z" />
    <glyph glyph-name="house" unicode="&#x2302;" 
d="M117 0v1536h1521v-1536h-1521zM328 201h1099v1134h-1099v-1134zM1083 416l-215 215l-215 -215l-127 125l217 217l-217 215l127 127l215 -217l215 215l127 -125l-215 -215l215 -217z" />
    <glyph glyph-name="blacksquare" unicode="&#x25a0;" 
d="M117 0v1536h1521v-1536h-1521zM328 201h1099v1134h-1099v-1134zM1083 416l-215 215l-215 -215l-127 125l217 217l-217 215l127 127l215 -217l215 215l127 -125l-215 -215l215 -217z" />
    <glyph glyph-name="whitesquare" unicode="&#x25a1;" 
d="M117 0v1536h1521v-1536h-1521zM328 201h1099v1134h-1099v-1134zM1083 416l-215 215l-215 -215l-127 125l217 217l-217 215l127 127l215 -217l215 215l127 -125l-215 -215l215 -217z" />
    <glyph glyph-name="blacksmallsquare" unicode="&#x25aa;" 
d="M117 0v1536h1521v-1536h-1521zM328 201h1099v1134h-1099v-1134zM1083 416l-215 215l-215 -215l-127 125l217 217l-217 215l127 127l215 -217l215 215l127 -125l-215 -215l215 -217z" />
    <glyph glyph-name="whitesmallsquare" unicode="&#x25ab;" 
d="M117 0v1536h1521v-1536h-1521zM328 201h1099v1134h-1099v-1134zM1083 416l-215 215l-215 -215l-127 125l217 217l-217 215l127 127l215 -217l215 215l127 -125l-215 -215l215 -217z" />
    <glyph glyph-name="triagup" unicode="&#x25b2;" 
d="M117 0v1536h1521v-1536h-1521zM328 201h1099v1134h-1099v-1134zM1083 416l-215 215l-215 -215l-127 125l217 217l-217 215l127 127l215 -217l215 215l127 -125l-215 -215l215 -217z" />
    <glyph glyph-name="triagrt" unicode="&#x25ba;" 
d="M117 0v1536h1521v-1536h-1521zM328 201h1099v1134h-1099v-1134zM1083 416l-215 215l-215 -215l-127 125l217 217l-217 215l127 127l215 -217l215 215l127 -125l-215 -215l215 -217z" />
    <glyph glyph-name="triagdn" unicode="&#x25bc;" 
d="M117 0v1536h1521v-1536h-1521zM328 201h1099v1134h-1099v-1134zM1083 416l-215 215l-215 -215l-127 125l217 217l-217 215l127 127l215 -217l215 215l127 -125l-215 -215l215 -217z" />
    <glyph glyph-name="triaglf" unicode="&#x25c4;" 
d="M117 0v1536h1521v-1536h-1521zM328 201h1099v1134h-1099v-1134zM1083 416l-215 215l-215 -215l-127 125l217 217l-217 215l127 127l215 -217l215 215l127 -125l-215 -215l215 -217z" />
    <glyph glyph-name="whitecircle" unicode="&#x25cb;" 
d="M117 0v1536h1521v-1536h-1521zM328 201h1099v1134h-1099v-1134zM1083 416l-215 215l-215 -215l-127 125l217 217l-217 215l127 127l215 -217l215 215l127 -125l-215 -215l215 -217z" />
    <glyph glyph-name="blackcircle" unicode="&#x25cf;" 
d="M117 0v1536h1521v-1536h-1521zM328 201h1099v1134h-1099v-1134zM1083 416l-215 215l-215 -215l-127 125l217 217l-217 215l127 127l215 -217l215 215l127 -125l-215 -215l215 -217z" />
    <glyph glyph-name="mediumwhitecircle" unicode="&#x26ac;" 
d="M117 0v1536h1521v-1536h-1521zM328 201h1099v1134h-1099v-1134zM1083 416l-215 215l-215 -215l-127 125l217 217l-217 215l127 127l215 -217l215 215l127 -125l-215 -215l215 -217z" />
    <glyph glyph-name="dotlessj" unicode="&#xf6be;" 
d="M117 0v1536h1521v-1536h-1521zM328 201h1099v1134h-1099v-1134zM1083 416l-215 215l-215 -215l-127 125l217 217l-217 215l127 127l215 -217l215 215l127 -125l-215 -215l215 -217z" />
    <glyph glyph-name="fi" unicode="&#xfb01;" 
d="M117 0v1536h1521v-1536h-1521zM328 201h1099v1134h-1099v-1134zM1083 416l-215 215l-215 -215l-127 125l217 217l-217 215l127 127l215 -217l215 215l127 -125l-215 -215l215 -217z" />
    <glyph glyph-name="fl" unicode="&#xfb02;" 
d="M117 0v1536h1521v-1536h-1521zM328 201h1099v1134h-1099v-1134zM1083 416l-215 215l-215 -215l-127 125l217 217l-217 215l127 127l215 -217l215 215l127 -125l-215 -215l215 -217z" />
    <glyph glyph-name="zero.numr" 
d="M117 0v1536h1521v-1536h-1521zM328 201h1099v1134h-1099v-1134zM1083 416l-215 215l-215 -215l-127 125l217 217l-217 215l127 127l215 -217l215 215l127 -125l-215 -215l215 -217z" />
    <glyph glyph-name="one.numr" 
d="M117 0v1536h1521v-1536h-1521zM328 201h1099v1134h-1099v-1134zM1083 416l-215 215l-215 -215l-127 125l217 217l-217 215l127 127l215 -217l215 215l127 -125l-215 -215l215 -217z" />
    <glyph glyph-name="two.numr" 
d="M117 0v1536h1521v-1536h-1521zM328 201h1099v1134h-1099v-1134zM1083 416l-215 215l-215 -215l-127 125l217 217l-217 215l127 127l215 -217l215 215l127 -125l-215 -215l215 -217z" />
    <glyph glyph-name="three.numr" 
d="M117 0v1536h1521v-1536h-1521zM328 201h1099v1134h-1099v-1134zM1083 416l-215 215l-215 -215l-127 125l217 217l-217 215l127 127l215 -217l215 215l127 -125l-215 -215l215 -217z" />
    <glyph glyph-name="four.numr" 
d="M117 0v1536h1521v-1536h-1521zM328 201h1099v1134h-1099v-1134zM1083 416l-215 215l-215 -215l-127 125l217 217l-217 215l127 127l215 -217l215 215l127 -125l-215 -215l215 -217z" />
    <glyph glyph-name="five.numr" 
d="M117 0v1536h1521v-1536h-1521zM328 201h1099v1134h-1099v-1134zM1083 416l-215 215l-215 -215l-127 125l217 217l-217 215l127 127l215 -217l215 215l127 -125l-215 -215l215 -217z" />
    <glyph glyph-name="six.numr" 
d="M117 0v1536h1521v-1536h-1521zM328 201h1099v1134h-1099v-1134zM1083 416l-215 215l-215 -215l-127 125l217 217l-217 215l127 127l215 -217l215 215l127 -125l-215 -215l215 -217z" />
    <glyph glyph-name="seven.numr" 
d="M117 0v1536h1521v-1536h-1521zM328 201h1099v1134h-1099v-1134zM1083 416l-215 215l-215 -215l-127 125l217 217l-217 215l127 127l215 -217l215 215l127 -125l-215 -215l215 -217z" />
    <glyph glyph-name="eight.numr" 
d="M117 0v1536h1521v-1536h-1521zM328 201h1099v1134h-1099v-1134zM1083 416l-215 215l-215 -215l-127 125l217 217l-217 215l127 127l215 -217l215 215l127 -125l-215 -215l215 -217z" />
    <glyph glyph-name="nine.numr" 
d="M117 0v1536h1521v-1536h-1521zM328 201h1099v1134h-1099v-1134zM1083 416l-215 215l-215 -215l-127 125l217 217l-217 215l127 127l215 -217l215 215l127 -125l-215 -215l215 -217z" />
    <glyph glyph-name="zero.dnom" 
d="M117 0v1536h1521v-1536h-1521zM328 201h1099v1134h-1099v-1134zM1083 416l-215 215l-215 -215l-127 125l217 217l-217 215l127 127l215 -217l215 215l127 -125l-215 -215l215 -217z" />
    <glyph glyph-name="one.dnom" 
d="M117 0v1536h1521v-1536h-1521zM328 201h1099v1134h-1099v-1134zM1083 416l-215 215l-215 -215l-127 125l217 217l-217 215l127 127l215 -217l215 215l127 -125l-215 -215l215 -217z" />
    <glyph glyph-name="two.dnom" 
d="M117 0v1536h1521v-1536h-1521zM328 201h1099v1134h-1099v-1134zM1083 416l-215 215l-215 -215l-127 125l217 217l-217 215l127 127l215 -217l215 215l127 -125l-215 -215l215 -217z" />
    <glyph glyph-name="three.dnom" 
d="M117 0v1536h1521v-1536h-1521zM328 201h1099v1134h-1099v-1134zM1083 416l-215 215l-215 -215l-127 125l217 217l-217 215l127 127l215 -217l215 215l127 -125l-215 -215l215 -217z" />
    <glyph glyph-name="four.dnom" 
d="M117 0v1536h1521v-1536h-1521zM328 201h1099v1134h-1099v-1134zM1083 416l-215 215l-215 -215l-127 125l217 217l-217 215l127 127l215 -217l215 215l127 -125l-215 -215l215 -217z" />
    <glyph glyph-name="five.dnom" 
d="M117 0v1536h1521v-1536h-1521zM328 201h1099v1134h-1099v-1134zM1083 416l-215 215l-215 -215l-127 125l217 217l-217 215l127 127l215 -217l215 215l127 -125l-215 -215l215 -217z" />
    <glyph glyph-name="six.dnom" 
d="M117 0v1536h1521v-1536h-1521zM328 201h1099v1134h-1099v-1134zM1083 416l-215 215l-215 -215l-127 125l217 217l-217 215l127 127l215 -217l215 215l127 -125l-215 -215l215 -217z" />
    <glyph glyph-name="seven.dnom" 
d="M117 0v1536h1521v-1536h-1521zM328 201h1099v1134h-1099v-1134zM1083 416l-215 215l-215 -215l-127 125l217 217l-217 215l127 127l215 -217l215 215l127 -125l-215 -215l215 -217z" />
    <glyph glyph-name="eight.dnom" 
d="M117 0v1536h1521v-1536h-1521zM328 201h1099v1134h-1099v-1134zM1083 416l-215 215l-215 -215l-127 125l217 217l-217 215l127 127l215 -217l215 215l127 -125l-215 -215l215 -217z" />
    <glyph glyph-name="nine.dnom" 
d="M117 0v1536h1521v-1536h-1521zM328 201h1099v1134h-1099v-1134zM1083 416l-215 215l-215 -215l-127 125l217 217l-217 215l127 127l215 -217l215 215l127 -125l-215 -215l215 -217z" />
    <glyph glyph-name="zero.sups" 
d="M117 0v1536h1521v-1536h-1521zM328 201h1099v1134h-1099v-1134zM1083 416l-215 215l-215 -215l-127 125l217 217l-217 215l127 127l215 -217l215 215l127 -125l-215 -215l215 -217z" />
    <glyph glyph-name="one.sups" 
d="M117 0v1536h1521v-1536h-1521zM328 201h1099v1134h-1099v-1134zM1083 416l-215 215l-215 -215l-127 125l217 217l-217 215l127 127l215 -217l215 215l127 -125l-215 -215l215 -217z" />
    <glyph glyph-name="two.sups" 
d="M117 0v1536h1521v-1536h-1521zM328 201h1099v1134h-1099v-1134zM1083 416l-215 215l-215 -215l-127 125l217 217l-217 215l127 127l215 -217l215 215l127 -125l-215 -215l215 -217z" />
    <glyph glyph-name="three.sups" 
d="M117 0v1536h1521v-1536h-1521zM328 201h1099v1134h-1099v-1134zM1083 416l-215 215l-215 -215l-127 125l217 217l-217 215l127 127l215 -217l215 215l127 -125l-215 -215l215 -217z" />
    <glyph glyph-name="four.sups" 
d="M117 0v1536h1521v-1536h-1521zM328 201h1099v1134h-1099v-1134zM1083 416l-215 215l-215 -215l-127 125l217 217l-217 215l127 127l215 -217l215 215l127 -125l-215 -215l215 -217z" />
    <glyph glyph-name="five.sups" 
d="M117 0v1536h1521v-1536h-1521zM328 201h1099v1134h-1099v-1134zM1083 416l-215 215l-215 -215l-127 125l217 217l-217 215l127 127l215 -217l215 215l127 -125l-215 -215l215 -217z" />
    <glyph glyph-name="six.sups" 
d="M117 0v1536h1521v-1536h-1521zM328 201h1099v1134h-1099v-1134zM1083 416l-215 215l-215 -215l-127 125l217 217l-217 215l127 127l215 -217l215 215l127 -125l-215 -215l215 -217z" />
    <glyph glyph-name="seven.sups" 
d="M117 0v1536h1521v-1536h-1521zM328 201h1099v1134h-1099v-1134zM1083 416l-215 215l-215 -215l-127 125l217 217l-217 215l127 127l215 -217l215 215l127 -125l-215 -215l215 -217z" />
    <glyph glyph-name="eight.sups" 
d="M117 0v1536h1521v-1536h-1521zM328 201h1099v1134h-1099v-1134zM1083 416l-215 215l-215 -215l-127 125l217 217l-217 215l127 127l215 -217l215 215l127 -125l-215 -215l215 -217z" />
    <glyph glyph-name="nine.sups" 
d="M117 0v1536h1521v-1536h-1521zM328 201h1099v1134h-1099v-1134zM1083 416l-215 215l-215 -215l-127 125l217 217l-217 215l127 127l215 -217l215 215l127 -125l-215 -215l215 -217z" />
    <glyph glyph-name="period.sups" 
d="M117 0v1536h1521v-1536h-1521zM328 201h1099v1134h-1099v-1134zM1083 416l-215 215l-215 -215l-127 125l217 217l-217 215l127 127l215 -217l215 215l127 -125l-215 -215l215 -217z" />
    <glyph glyph-name="comma.sups" 
d="M117 0v1536h1521v-1536h-1521zM328 201h1099v1134h-1099v-1134zM1083 416l-215 215l-215 -215l-127 125l217 217l-217 215l127 127l215 -217l215 215l127 -125l-215 -215l215 -217z" />
    <glyph glyph-name="hyphen.sups" 
d="M117 0v1536h1521v-1536h-1521zM328 201h1099v1134h-1099v-1134zM1083 416l-215 215l-215 -215l-127 125l217 217l-217 215l127 127l215 -217l215 215l127 -125l-215 -215l215 -217z" />
    <glyph glyph-name="parenleft.sups" 
d="M117 0v1536h1521v-1536h-1521zM328 201h1099v1134h-1099v-1134zM1083 416l-215 215l-215 -215l-127 125l217 217l-217 215l127 127l215 -217l215 215l127 -125l-215 -215l215 -217z" />
    <glyph glyph-name="parenright.sups" 
d="M117 0v1536h1521v-1536h-1521zM328 201h1099v1134h-1099v-1134zM1083 416l-215 215l-215 -215l-127 125l217 217l-217 215l127 127l215 -217l215 215l127 -125l-215 -215l215 -217z" />
    <glyph glyph-name="plus.sups" 
d="M117 0v1536h1521v-1536h-1521zM328 201h1099v1134h-1099v-1134zM1083 416l-215 215l-215 -215l-127 125l217 217l-217 215l127 127l215 -217l215 215l127 -125l-215 -215l215 -217z" />
    <glyph glyph-name="minus.sups" 
d="M117 0v1536h1521v-1536h-1521zM328 201h1099v1134h-1099v-1134zM1083 416l-215 215l-215 -215l-127 125l217 217l-217 215l127 127l215 -217l215 215l127 -125l-215 -215l215 -217z" />
    <glyph glyph-name="multiply.sups" 
d="M117 0v1536h1521v-1536h-1521zM328 201h1099v1134h-1099v-1134zM1083 416l-215 215l-215 -215l-127 125l217 217l-217 215l127 127l215 -217l215 215l127 -125l-215 -215l215 -217z" />
    <glyph glyph-name="equal.sups" 
d="M117 0v1536h1521v-1536h-1521zM328 201h1099v1134h-1099v-1134zM1083 416l-215 215l-215 -215l-127 125l217 217l-217 215l127 127l215 -217l215 215l127 -125l-215 -215l215 -217z" />
    <glyph glyph-name="divide.sups" 
d="M117 0v1536h1521v-1536h-1521zM328 201h1099v1134h-1099v-1134zM1083 416l-215 215l-215 -215l-127 125l217 217l-217 215l127 127l215 -217l215 215l127 -125l-215 -215l215 -217z" />
    <glyph glyph-name="a.sups" 
d="M117 0v1536h1521v-1536h-1521zM328 201h1099v1134h-1099v-1134zM1083 416l-215 215l-215 -215l-127 125l217 217l-217 215l127 127l215 -217l215 215l127 -125l-215 -215l215 -217z" />
    <glyph glyph-name="b.sups" 
d="M117 0v1536h1521v-1536h-1521zM328 201h1099v1134h-1099v-1134zM1083 416l-215 215l-215 -215l-127 125l217 217l-217 215l127 127l215 -217l215 215l127 -125l-215 -215l215 -217z" />
    <glyph glyph-name="c.sups" 
d="M117 0v1536h1521v-1536h-1521zM328 201h1099v1134h-1099v-1134zM1083 416l-215 215l-215 -215l-127 125l217 217l-217 215l127 127l215 -217l215 215l127 -125l-215 -215l215 -217z" />
    <glyph glyph-name="d.sups" 
d="M117 0v1536h1521v-1536h-1521zM328 201h1099v1134h-1099v-1134zM1083 416l-215 215l-215 -215l-127 125l217 217l-217 215l127 127l215 -217l215 215l127 -125l-215 -215l215 -217z" />
    <glyph glyph-name="e.sups" 
d="M117 0v1536h1521v-1536h-1521zM328 201h1099v1134h-1099v-1134zM1083 416l-215 215l-215 -215l-127 125l217 217l-217 215l127 127l215 -217l215 215l127 -125l-215 -215l215 -217z" />
    <glyph glyph-name="f.sups" 
d="M117 0v1536h1521v-1536h-1521zM328 201h1099v1134h-1099v-1134zM1083 416l-215 215l-215 -215l-127 125l217 217l-217 215l127 127l215 -217l215 215l127 -125l-215 -215l215 -217z" />
    <glyph glyph-name="g.sups" 
d="M117 0v1536h1521v-1536h-1521zM328 201h1099v1134h-1099v-1134zM1083 416l-215 215l-215 -215l-127 125l217 217l-217 215l127 127l215 -217l215 215l127 -125l-215 -215l215 -217z" />
    <glyph glyph-name="h.sups" 
d="M117 0v1536h1521v-1536h-1521zM328 201h1099v1134h-1099v-1134zM1083 416l-215 215l-215 -215l-127 125l217 217l-217 215l127 127l215 -217l215 215l127 -125l-215 -215l215 -217z" />
    <glyph glyph-name="i.sups" 
d="M117 0v1536h1521v-1536h-1521zM328 201h1099v1134h-1099v-1134zM1083 416l-215 215l-215 -215l-127 125l217 217l-217 215l127 127l215 -217l215 215l127 -125l-215 -215l215 -217z" />
    <glyph glyph-name="j.sups" 
d="M117 0v1536h1521v-1536h-1521zM328 201h1099v1134h-1099v-1134zM1083 416l-215 215l-215 -215l-127 125l217 217l-217 215l127 127l215 -217l215 215l127 -125l-215 -215l215 -217z" />
    <glyph glyph-name="k.sups" 
d="M117 0v1536h1521v-1536h-1521zM328 201h1099v1134h-1099v-1134zM1083 416l-215 215l-215 -215l-127 125l217 217l-217 215l127 127l215 -217l215 215l127 -125l-215 -215l215 -217z" />
    <glyph glyph-name="l.sups" 
d="M117 0v1536h1521v-1536h-1521zM328 201h1099v1134h-1099v-1134zM1083 416l-215 215l-215 -215l-127 125l217 217l-217 215l127 127l215 -217l215 215l127 -125l-215 -215l215 -217z" />
    <glyph glyph-name="m.sups" 
d="M117 0v1536h1521v-1536h-1521zM328 201h1099v1134h-1099v-1134zM1083 416l-215 215l-215 -215l-127 125l217 217l-217 215l127 127l215 -217l215 215l127 -125l-215 -215l215 -217z" />
    <glyph glyph-name="n.sups" 
d="M117 0v1536h1521v-1536h-1521zM328 201h1099v1134h-1099v-1134zM1083 416l-215 215l-215 -215l-127 125l217 217l-217 215l127 127l215 -217l215 215l127 -125l-215 -215l215 -217z" />
    <glyph glyph-name="o.sups" 
d="M117 0v1536h1521v-1536h-1521zM328 201h1099v1134h-1099v-1134zM1083 416l-215 215l-215 -215l-127 125l217 217l-217 215l127 127l215 -217l215 215l127 -125l-215 -215l215 -217z" />
    <glyph glyph-name="p.sups" 
d="M117 0v1536h1521v-1536h-1521zM328 201h1099v1134h-1099v-1134zM1083 416l-215 215l-215 -215l-127 125l217 217l-217 215l127 127l215 -217l215 215l127 -125l-215 -215l215 -217z" />
    <glyph glyph-name="q.sups" 
d="M117 0v1536h1521v-1536h-1521zM328 201h1099v1134h-1099v-1134zM1083 416l-215 215l-215 -215l-127 125l217 217l-217 215l127 127l215 -217l215 215l127 -125l-215 -215l215 -217z" />
    <glyph glyph-name="r.sups" 
d="M117 0v1536h1521v-1536h-1521zM328 201h1099v1134h-1099v-1134zM1083 416l-215 215l-215 -215l-127 125l217 217l-217 215l127 127l215 -217l215 215l127 -125l-215 -215l215 -217z" />
    <glyph glyph-name="s.sups" 
d="M117 0v1536h1521v-1536h-1521zM328 201h1099v1134h-1099v-1134zM1083 416l-215 215l-215 -215l-127 125l217 217l-217 215l127 127l215 -217l215 215l127 -125l-215 -215l215 -217z" />
    <glyph glyph-name="t.sups" 
d="M117 0v1536h1521v-1536h-1521zM328 201h1099v1134h-1099v-1134zM1083 416l-215 215l-215 -215l-127 125l217 217l-217 215l127 127l215 -217l215 215l127 -125l-215 -215l215 -217z" />
    <glyph glyph-name="u.sups" 
d="M117 0v1536h1521v-1536h-1521zM328 201h1099v1134h-1099v-1134zM1083 416l-215 215l-215 -215l-127 125l217 217l-217 215l127 127l215 -217l215 215l127 -125l-215 -215l215 -217z" />
    <glyph glyph-name="v.sups" 
d="M117 0v1536h1521v-1536h-1521zM328 201h1099v1134h-1099v-1134zM1083 416l-215 215l-215 -215l-127 125l217 217l-217 215l127 127l215 -217l215 215l127 -125l-215 -215l215 -217z" />
    <glyph glyph-name="w.sups" 
d="M117 0v1536h1521v-1536h-1521zM328 201h1099v1134h-1099v-1134zM1083 416l-215 215l-215 -215l-127 125l217 217l-217 215l127 127l215 -217l215 215l127 -125l-215 -215l215 -217z" />
    <glyph glyph-name="x.sups" 
d="M117 0v1536h1521v-1536h-1521zM328 201h1099v1134h-1099v-1134zM1083 416l-215 215l-215 -215l-127 125l217 217l-217 215l127 127l215 -217l215 215l127 -125l-215 -215l215 -217z" />
    <glyph glyph-name="y.sups" 
d="M117 0v1536h1521v-1536h-1521zM328 201h1099v1134h-1099v-1134zM1083 416l-215 215l-215 -215l-127 125l217 217l-217 215l127 127l215 -217l215 215l127 -125l-215 -215l215 -217z" />
    <glyph glyph-name="z.sups" 
d="M117 0v1536h1521v-1536h-1521zM328 201h1099v1134h-1099v-1134zM1083 416l-215 215l-215 -215l-127 125l217 217l-217 215l127 127l215 -217l215 215l127 -125l-215 -215l215 -217z" />
    <glyph glyph-name="zero.subs" 
d="M117 0v1536h1521v-1536h-1521zM328 201h1099v1134h-1099v-1134zM1083 416l-215 215l-215 -215l-127 125l217 217l-217 215l127 127l215 -217l215 215l127 -125l-215 -215l215 -217z" />
    <glyph glyph-name="one.subs" 
d="M117 0v1536h1521v-1536h-1521zM328 201h1099v1134h-1099v-1134zM1083 416l-215 215l-215 -215l-127 125l217 217l-217 215l127 127l215 -217l215 215l127 -125l-215 -215l215 -217z" />
    <glyph glyph-name="two.subs" 
d="M117 0v1536h1521v-1536h-1521zM328 201h1099v1134h-1099v-1134zM1083 416l-215 215l-215 -215l-127 125l217 217l-217 215l127 127l215 -217l215 215l127 -125l-215 -215l215 -217z" />
    <glyph glyph-name="three.subs" 
d="M117 0v1536h1521v-1536h-1521zM328 201h1099v1134h-1099v-1134zM1083 416l-215 215l-215 -215l-127 125l217 217l-217 215l127 127l215 -217l215 215l127 -125l-215 -215l215 -217z" />
    <glyph glyph-name="four.subs" 
d="M117 0v1536h1521v-1536h-1521zM328 201h1099v1134h-1099v-1134zM1083 416l-215 215l-215 -215l-127 125l217 217l-217 215l127 127l215 -217l215 215l127 -125l-215 -215l215 -217z" />
    <glyph glyph-name="five.subs" 
d="M117 0v1536h1521v-1536h-1521zM328 201h1099v1134h-1099v-1134zM1083 416l-215 215l-215 -215l-127 125l217 217l-217 215l127 127l215 -217l215 215l127 -125l-215 -215l215 -217z" />
    <glyph glyph-name="six.subs" 
d="M117 0v1536h1521v-1536h-1521zM328 201h1099v1134h-1099v-1134zM1083 416l-215 215l-215 -215l-127 125l217 217l-217 215l127 127l215 -217l215 215l127 -125l-215 -215l215 -217z" />
    <glyph glyph-name="seven.subs" 
d="M117 0v1536h1521v-1536h-1521zM328 201h1099v1134h-1099v-1134zM1083 416l-215 215l-215 -215l-127 125l217 217l-217 215l127 127l215 -217l215 215l127 -125l-215 -215l215 -217z" />
    <glyph glyph-name="eight.subs" 
d="M117 0v1536h1521v-1536h-1521zM328 201h1099v1134h-1099v-1134zM1083 416l-215 215l-215 -215l-127 125l217 217l-217 215l127 127l215 -217l215 215l127 -125l-215 -215l215 -217z" />
    <glyph glyph-name="nine.subs" 
d="M117 0v1536h1521v-1536h-1521zM328 201h1099v1134h-1099v-1134zM1083 416l-215 215l-215 -215l-127 125l217 217l-217 215l127 127l215 -217l215 215l127 -125l-215 -215l215 -217z" />
    <glyph glyph-name="period.subs" 
d="M117 0v1536h1521v-1536h-1521zM328 201h1099v1134h-1099v-1134zM1083 416l-215 215l-215 -215l-127 125l217 217l-217 215l127 127l215 -217l215 215l127 -125l-215 -215l215 -217z" />
    <glyph glyph-name="comma.subs" 
d="M117 0v1536h1521v-1536h-1521zM328 201h1099v1134h-1099v-1134zM1083 416l-215 215l-215 -215l-127 125l217 217l-217 215l127 127l215 -217l215 215l127 -125l-215 -215l215 -217z" />
    <glyph glyph-name="hyphen.subs" 
d="M117 0v1536h1521v-1536h-1521zM328 201h1099v1134h-1099v-1134zM1083 416l-215 215l-215 -215l-127 125l217 217l-217 215l127 127l215 -217l215 215l127 -125l-215 -215l215 -217z" />
    <glyph glyph-name="parenleft.subs" 
d="M117 0v1536h1521v-1536h-1521zM328 201h1099v1134h-1099v-1134zM1083 416l-215 215l-215 -215l-127 125l217 217l-217 215l127 127l215 -217l215 215l127 -125l-215 -215l215 -217z" />
    <glyph glyph-name="parenright.subs" 
d="M117 0v1536h1521v-1536h-1521zM328 201h1099v1134h-1099v-1134zM1083 416l-215 215l-215 -215l-127 125l217 217l-217 215l127 127l215 -217l215 215l127 -125l-215 -215l215 -217z" />
    <glyph glyph-name="plus.subs" 
d="M117 0v1536h1521v-1536h-1521zM328 201h1099v1134h-1099v-1134zM1083 416l-215 215l-215 -215l-127 125l217 217l-217 215l127 127l215 -217l215 215l127 -125l-215 -215l215 -217z" />
    <glyph glyph-name="minus.subs" 
d="M117 0v1536h1521v-1536h-1521zM328 201h1099v1134h-1099v-1134zM1083 416l-215 215l-215 -215l-127 125l217 217l-217 215l127 127l215 -217l215 215l127 -125l-215 -215l215 -217z" />
    <glyph glyph-name="multiply.subs" 
d="M117 0v1536h1521v-1536h-1521zM328 201h1099v1134h-1099v-1134zM1083 416l-215 215l-215 -215l-127 125l217 217l-217 215l127 127l215 -217l215 215l127 -125l-215 -215l215 -217z" />
    <glyph glyph-name="equal.subs" 
d="M117 0v1536h1521v-1536h-1521zM328 201h1099v1134h-1099v-1134zM1083 416l-215 215l-215 -215l-127 125l217 217l-217 215l127 127l215 -217l215 215l127 -125l-215 -215l215 -217z" />
    <glyph glyph-name="divide.subs" 
d="M117 0v1536h1521v-1536h-1521zM328 201h1099v1134h-1099v-1134zM1083 416l-215 215l-215 -215l-127 125l217 217l-217 215l127 127l215 -217l215 215l127 -125l-215 -215l215 -217z" />
    <glyph glyph-name="a.subs" 
d="M117 0v1536h1521v-1536h-1521zM328 201h1099v1134h-1099v-1134zM1083 416l-215 215l-215 -215l-127 125l217 217l-217 215l127 127l215 -217l215 215l127 -125l-215 -215l215 -217z" />
    <glyph glyph-name="b.subs" 
d="M117 0v1536h1521v-1536h-1521zM328 201h1099v1134h-1099v-1134zM1083 416l-215 215l-215 -215l-127 125l217 217l-217 215l127 127l215 -217l215 215l127 -125l-215 -215l215 -217z" />
    <glyph glyph-name="c.subs" 
d="M117 0v1536h1521v-1536h-1521zM328 201h1099v1134h-1099v-1134zM1083 416l-215 215l-215 -215l-127 125l217 217l-217 215l127 127l215 -217l215 215l127 -125l-215 -215l215 -217z" />
    <glyph glyph-name="d.subs" 
d="M117 0v1536h1521v-1536h-1521zM328 201h1099v1134h-1099v-1134zM1083 416l-215 215l-215 -215l-127 125l217 217l-217 215l127 127l215 -217l215 215l127 -125l-215 -215l215 -217z" />
    <glyph glyph-name="e.subs" 
d="M117 0v1536h1521v-1536h-1521zM328 201h1099v1134h-1099v-1134zM1083 416l-215 215l-215 -215l-127 125l217 217l-217 215l127 127l215 -217l215 215l127 -125l-215 -215l215 -217z" />
    <glyph glyph-name="f.subs" 
d="M117 0v1536h1521v-1536h-1521zM328 201h1099v1134h-1099v-1134zM1083 416l-215 215l-215 -215l-127 125l217 217l-217 215l127 127l215 -217l215 215l127 -125l-215 -215l215 -217z" />
    <glyph glyph-name="g.subs" 
d="M117 0v1536h1521v-1536h-1521zM328 201h1099v1134h-1099v-1134zM1083 416l-215 215l-215 -215l-127 125l217 217l-217 215l127 127l215 -217l215 215l127 -125l-215 -215l215 -217z" />
    <glyph glyph-name="h.subs" 
d="M117 0v1536h1521v-1536h-1521zM328 201h1099v1134h-1099v-1134zM1083 416l-215 215l-215 -215l-127 125l217 217l-217 215l127 127l215 -217l215 215l127 -125l-215 -215l215 -217z" />
    <glyph glyph-name="i.subs" 
d="M117 0v1536h1521v-1536h-1521zM328 201h1099v1134h-1099v-1134zM1083 416l-215 215l-215 -215l-127 125l217 217l-217 215l127 127l215 -217l215 215l127 -125l-215 -215l215 -217z" />
    <glyph glyph-name="j.subs" 
d="M117 0v1536h1521v-1536h-1521zM328 201h1099v1134h-1099v-1134zM1083 416l-215 215l-215 -215l-127 125l217 217l-217 215l127 127l215 -217l215 215l127 -125l-215 -215l215 -217z" />
    <glyph glyph-name="k.subs" 
d="M117 0v1536h1521v-1536h-1521zM328 201h1099v1134h-1099v-1134zM1083 416l-215 215l-215 -215l-127 125l217 217l-217 215l127 127l215 -217l215 215l127 -125l-215 -215l215 -217z" />
    <glyph glyph-name="l.subs" 
d="M117 0v1536h1521v-1536h-1521zM328 201h1099v1134h-1099v-1134zM1083 416l-215 215l-215 -215l-127 125l217 217l-217 215l127 127l215 -217l215 215l127 -125l-215 -215l215 -217z" />
    <glyph glyph-name="m.subs" 
d="M117 0v1536h1521v-1536h-1521zM328 201h1099v1134h-1099v-1134zM1083 416l-215 215l-215 -215l-127 125l217 217l-217 215l127 127l215 -217l215 215l127 -125l-215 -215l215 -217z" />
    <glyph glyph-name="n.subs" 
d="M117 0v1536h1521v-1536h-1521zM328 201h1099v1134h-1099v-1134zM1083 416l-215 215l-215 -215l-127 125l217 217l-217 215l127 127l215 -217l215 215l127 -125l-215 -215l215 -217z" />
    <glyph glyph-name="o.subs" 
d="M117 0v1536h1521v-1536h-1521zM328 201h1099v1134h-1099v-1134zM1083 416l-215 215l-215 -215l-127 125l217 217l-217 215l127 127l215 -217l215 215l127 -125l-215 -215l215 -217z" />
    <glyph glyph-name="p.subs" 
d="M117 0v1536h1521v-1536h-1521zM328 201h1099v1134h-1099v-1134zM1083 416l-215 215l-215 -215l-127 125l217 217l-217 215l127 127l215 -217l215 215l127 -125l-215 -215l215 -217z" />
    <glyph glyph-name="q.subs" 
d="M117 0v1536h1521v-1536h-1521zM328 201h1099v1134h-1099v-1134zM1083 416l-215 215l-215 -215l-127 125l217 217l-217 215l127 127l215 -217l215 215l127 -125l-215 -215l215 -217z" />
    <glyph glyph-name="r.subs" 
d="M117 0v1536h1521v-1536h-1521zM328 201h1099v1134h-1099v-1134zM1083 416l-215 215l-215 -215l-127 125l217 217l-217 215l127 127l215 -217l215 215l127 -125l-215 -215l215 -217z" />
    <glyph glyph-name="s.subs" 
d="M117 0v1536h1521v-1536h-1521zM328 201h1099v1134h-1099v-1134zM1083 416l-215 215l-215 -215l-127 125l217 217l-217 215l127 127l215 -217l215 215l127 -125l-215 -215l215 -217z" />
    <glyph glyph-name="t.subs" 
d="M117 0v1536h1521v-1536h-1521zM328 201h1099v1134h-1099v-1134zM1083 416l-215 215l-215 -215l-127 125l217 217l-217 215l127 127l215 -217l215 215l127 -125l-215 -215l215 -217z" />
    <glyph glyph-name="u.subs" 
d="M117 0v1536h1521v-1536h-1521zM328 201h1099v1134h-1099v-1134zM1083 416l-215 215l-215 -215l-127 125l217 217l-217 215l127 127l215 -217l215 215l127 -125l-215 -215l215 -217z" />
    <glyph glyph-name="v.subs" 
d="M117 0v1536h1521v-1536h-1521zM328 201h1099v1134h-1099v-1134zM1083 416l-215 215l-215 -215l-127 125l217 217l-217 215l127 127l215 -217l215 215l127 -125l-215 -215l215 -217z" />
    <glyph glyph-name="w.subs" 
d="M117 0v1536h1521v-1536h-1521zM328 201h1099v1134h-1099v-1134zM1083 416l-215 215l-215 -215l-127 125l217 217l-217 215l127 127l215 -217l215 215l127 -125l-215 -215l215 -217z" />
    <glyph glyph-name="x.subs" 
d="M117 0v1536h1521v-1536h-1521zM328 201h1099v1134h-1099v-1134zM1083 416l-215 215l-215 -215l-127 125l217 217l-217 215l127 127l215 -217l215 215l127 -125l-215 -215l215 -217z" />
    <glyph glyph-name="y.subs" 
d="M117 0v1536h1521v-1536h-1521zM328 201h1099v1134h-1099v-1134zM1083 416l-215 215l-215 -215l-127 125l217 217l-217 215l127 127l215 -217l215 215l127 -125l-215 -215l215 -217z" />
    <glyph glyph-name="z.subs" 
d="M117 0v1536h1521v-1536h-1521zM328 201h1099v1134h-1099v-1134zM1083 416l-215 215l-215 -215l-127 125l217 217l-217 215l127 127l215 -217l215 215l127 -125l-215 -215l215 -217z" />
    <glyph glyph-name="IJacute" 
d="M117 0v1536h1521v-1536h-1521zM328 201h1099v1134h-1099v-1134zM1083 416l-215 215l-215 -215l-127 125l217 217l-217 215l127 127l215 -217l215 215l127 -125l-215 -215l215 -217z" />
    <glyph glyph-name="ijacute" 
d="M117 0v1536h1521v-1536h-1521zM328 201h1099v1134h-1099v-1134zM1083 416l-215 215l-215 -215l-127 125l217 217l-217 215l127 127l215 -217l215 215l127 -125l-215 -215l215 -217z" />
    <glyph glyph-name="f_f" 
d="M117 0v1536h1521v-1536h-1521zM328 201h1099v1134h-1099v-1134zM1083 416l-215 215l-215 -215l-127 125l217 217l-217 215l127 127l215 -217l215 215l127 -125l-215 -215l215 -217z" />
    <glyph glyph-name="f_f_i" 
d="M117 0v1536h1521v-1536h-1521zM328 201h1099v1134h-1099v-1134zM1083 416l-215 215l-215 -215l-127 125l217 217l-217 215l127 127l215 -217l215 215l127 -125l-215 -215l215 -217z" />
    <glyph glyph-name="f_f_l" 
d="M117 0v1536h1521v-1536h-1521zM328 201h1099v1134h-1099v-1134zM1083 416l-215 215l-215 -215l-127 125l217 217l-217 215l127 127l215 -217l215 215l127 -125l-215 -215l215 -217z" />
    <glyph glyph-name="f_b" 
d="M117 0v1536h1521v-1536h-1521zM328 201h1099v1134h-1099v-1134zM1083 416l-215 215l-215 -215l-127 125l217 217l-217 215l127 127l215 -217l215 215l127 -125l-215 -215l215 -217z" />
    <glyph glyph-name="f_f_b" 
d="M117 0v1536h1521v-1536h-1521zM328 201h1099v1134h-1099v-1134zM1083 416l-215 215l-215 -215l-127 125l217 217l-217 215l127 127l215 -217l215 215l127 -125l-215 -215l215 -217z" />
    <glyph glyph-name="f_h" 
d="M117 0v1536h1521v-1536h-1521zM328 201h1099v1134h-1099v-1134zM1083 416l-215 215l-215 -215l-127 125l217 217l-217 215l127 127l215 -217l215 215l127 -125l-215 -215l215 -217z" />
    <glyph glyph-name="f_f_h" 
d="M117 0v1536h1521v-1536h-1521zM328 201h1099v1134h-1099v-1134zM1083 416l-215 215l-215 -215l-127 125l217 217l-217 215l127 127l215 -217l215 215l127 -125l-215 -215l215 -217z" />
    <glyph glyph-name="f_k" 
d="M117 0v1536h1521v-1536h-1521zM328 201h1099v1134h-1099v-1134zM1083 416l-215 215l-215 -215l-127 125l217 217l-217 215l127 127l215 -217l215 215l127 -125l-215 -215l215 -217z" />
    <glyph glyph-name="f_f_k" 
d="M117 0v1536h1521v-1536h-1521zM328 201h1099v1134h-1099v-1134zM1083 416l-215 215l-215 -215l-127 125l217 217l-217 215l127 127l215 -217l215 215l127 -125l-215 -215l215 -217z" />
    <glyph glyph-name="f_j" 
d="M117 0v1536h1521v-1536h-1521zM328 201h1099v1134h-1099v-1134zM1083 416l-215 215l-215 -215l-127 125l217 217l-217 215l127 127l215 -217l215 215l127 -125l-215 -215l215 -217z" />
    <glyph glyph-name="f_f_j" 
d="M117 0v1536h1521v-1536h-1521zM328 201h1099v1134h-1099v-1134zM1083 416l-215 215l-215 -215l-127 125l217 217l-217 215l127 127l215 -217l215 215l127 -125l-215 -215l215 -217z" />
    <glyph glyph-name="f_idieresis" 
d="M117 0v1536h1521v-1536h-1521zM328 201h1099v1134h-1099v-1134zM1083 416l-215 215l-215 -215l-127 125l217 217l-217 215l127 127l215 -217l215 215l127 -125l-215 -215l215 -217z" />
    <glyph glyph-name="revcommaaccentcomb" 
d="M117 0v1536h1521v-1536h-1521zM328 201h1099v1134h-1099v-1134zM1083 416l-215 215l-215 -215l-127 125l217 217l-217 215l127 127l215 -217l215 215l127 -125l-215 -215l215 -217z" />
    <glyph glyph-name="gravecomb.case" 
d="M117 0v1536h1521v-1536h-1521zM328 201h1099v1134h-1099v-1134zM1083 416l-215 215l-215 -215l-127 125l217 217l-217 215l127 127l215 -217l215 215l127 -125l-215 -215l215 -217z" />
    <glyph glyph-name="acutecomb.case" 
d="M117 0v1536h1521v-1536h-1521zM328 201h1099v1134h-1099v-1134zM1083 416l-215 215l-215 -215l-127 125l217 217l-217 215l127 127l215 -217l215 215l127 -125l-215 -215l215 -217z" />
    <glyph glyph-name="dieresiscomb.case" 
d="M117 0v1536h1521v-1536h-1521zM328 201h1099v1134h-1099v-1134zM1083 416l-215 215l-215 -215l-127 125l217 217l-217 215l127 127l215 -217l215 215l127 -125l-215 -215l215 -217z" />
    <glyph glyph-name="circumflexcomb.case" 
d="M117 0v1536h1521v-1536h-1521zM328 201h1099v1134h-1099v-1134zM1083 416l-215 215l-215 -215l-127 125l217 217l-217 215l127 127l215 -217l215 215l127 -125l-215 -215l215 -217z" />
    <glyph glyph-name="tildecomb.case" 
d="M117 0v1536h1521v-1536h-1521zM328 201h1099v1134h-1099v-1134zM1083 416l-215 215l-215 -215l-127 125l217 217l-217 215l127 127l215 -217l215 215l127 -125l-215 -215l215 -217z" />
    <glyph glyph-name="macroncomb.case" 
d="M117 0v1536h1521v-1536h-1521zM328 201h1099v1134h-1099v-1134zM1083 416l-215 215l-215 -215l-127 125l217 217l-217 215l127 127l215 -217l215 215l127 -125l-215 -215l215 -217z" />
    <glyph glyph-name="brevecomb.case" 
d="M117 0v1536h1521v-1536h-1521zM328 201h1099v1134h-1099v-1134zM1083 416l-215 215l-215 -215l-127 125l217 217l-217 215l127 127l215 -217l215 215l127 -125l-215 -215l215 -217z" />
    <glyph glyph-name="dotaccentcomb.case" 
d="M117 0v1536h1521v-1536h-1521zM328 201h1099v1134h-1099v-1134zM1083 416l-215 215l-215 -215l-127 125l217 217l-217 215l127 127l215 -217l215 215l127 -125l-215 -215l215 -217z" />
    <glyph glyph-name="revcommaaccentcomb.case" 
d="M117 0v1536h1521v-1536h-1521zM328 201h1099v1134h-1099v-1134zM1083 416l-215 215l-215 -215l-127 125l217 217l-217 215l127 127l215 -217l215 215l127 -125l-215 -215l215 -217z" />
    <glyph glyph-name="ringcomb.case" 
d="M117 0v1536h1521v-1536h-1521zM328 201h1099v1134h-1099v-1134zM1083 416l-215 215l-215 -215l-127 125l217 217l-217 215l127 127l215 -217l215 215l127 -125l-215 -215l215 -217z" />
    <glyph glyph-name="hungarumlautcomb.case" 
d="M117 0v1536h1521v-1536h-1521zM328 201h1099v1134h-1099v-1134zM1083 416l-215 215l-215 -215l-127 125l217 217l-217 215l127 127l215 -217l215 215l127 -125l-215 -215l215 -217z" />
    <glyph glyph-name="caroncomb.case" 
d="M117 0v1536h1521v-1536h-1521zM328 201h1099v1134h-1099v-1134zM1083 416l-215 215l-215 -215l-127 125l217 217l-217 215l127 127l215 -217l215 215l127 -125l-215 -215l215 -217z" />
    <glyph glyph-name="exclamdown.case" 
d="M117 0v1536h1521v-1536h-1521zM328 201h1099v1134h-1099v-1134zM1083 416l-215 215l-215 -215l-127 125l217 217l-217 215l127 127l215 -217l215 215l127 -125l-215 -215l215 -217z" />
    <glyph glyph-name="questiondown.case" 
d="M117 0v1536h1521v-1536h-1521zM328 201h1099v1134h-1099v-1134zM1083 416l-215 215l-215 -215l-127 125l217 217l-217 215l127 127l215 -217l215 215l127 -125l-215 -215l215 -217z" />
    <glyph glyph-name="braceleft.case" 
d="M117 0v1536h1521v-1536h-1521zM328 201h1099v1134h-1099v-1134zM1083 416l-215 215l-215 -215l-127 125l217 217l-217 215l127 127l215 -217l215 215l127 -125l-215 -215l215 -217z" />
    <glyph glyph-name="braceright.case" 
d="M117 0v1536h1521v-1536h-1521zM328 201h1099v1134h-1099v-1134zM1083 416l-215 215l-215 -215l-127 125l217 217l-217 215l127 127l215 -217l215 215l127 -125l-215 -215l215 -217z" />
    <glyph glyph-name="bracketleft.case" 
d="M117 0v1536h1521v-1536h-1521zM328 201h1099v1134h-1099v-1134zM1083 416l-215 215l-215 -215l-127 125l217 217l-217 215l127 127l215 -217l215 215l127 -125l-215 -215l215 -217z" />
    <glyph glyph-name="bracketright.case" 
d="M117 0v1536h1521v-1536h-1521zM328 201h1099v1134h-1099v-1134zM1083 416l-215 215l-215 -215l-127 125l217 217l-217 215l127 127l215 -217l215 215l127 -125l-215 -215l215 -217z" />
    <glyph glyph-name="hyphen.case" 
d="M117 0v1536h1521v-1536h-1521zM328 201h1099v1134h-1099v-1134zM1083 416l-215 215l-215 -215l-127 125l217 217l-217 215l127 127l215 -217l215 215l127 -125l-215 -215l215 -217z" />
    <glyph glyph-name="endash.case" 
d="M117 0v1536h1521v-1536h-1521zM328 201h1099v1134h-1099v-1134zM1083 416l-215 215l-215 -215l-127 125l217 217l-217 215l127 127l215 -217l215 215l127 -125l-215 -215l215 -217z" />
    <glyph glyph-name="emdash.case" 
d="M117 0v1536h1521v-1536h-1521zM328 201h1099v1134h-1099v-1134zM1083 416l-215 215l-215 -215l-127 125l217 217l-217 215l127 127l215 -217l215 215l127 -125l-215 -215l215 -217z" />
    <glyph glyph-name="guillemotleft.case" 
d="M117 0v1536h1521v-1536h-1521zM328 201h1099v1134h-1099v-1134zM1083 416l-215 215l-215 -215l-127 125l217 217l-217 215l127 127l215 -217l215 215l127 -125l-215 -215l215 -217z" />
    <glyph glyph-name="guillemotright.case" 
d="M117 0v1536h1521v-1536h-1521zM328 201h1099v1134h-1099v-1134zM1083 416l-215 215l-215 -215l-127 125l217 217l-217 215l127 127l215 -217l215 215l127 -125l-215 -215l215 -217z" />
    <glyph glyph-name="guilsinglleft.case" 
d="M117 0v1536h1521v-1536h-1521zM328 201h1099v1134h-1099v-1134zM1083 416l-215 215l-215 -215l-127 125l217 217l-217 215l127 127l215 -217l215 215l127 -125l-215 -215l215 -217z" />
    <glyph glyph-name="guilsinglright.case" 
d="M117 0v1536h1521v-1536h-1521zM328 201h1099v1134h-1099v-1134zM1083 416l-215 215l-215 -215l-127 125l217 217l-217 215l127 127l215 -217l215 215l127 -125l-215 -215l215 -217z" />
    <glyph glyph-name="arrowleft.case" 
d="M117 0v1536h1521v-1536h-1521zM328 201h1099v1134h-1099v-1134zM1083 416l-215 215l-215 -215l-127 125l217 217l-217 215l127 127l215 -217l215 215l127 -125l-215 -215l215 -217z" />
    <glyph glyph-name="arrowright.case" 
d="M117 0v1536h1521v-1536h-1521zM328 201h1099v1134h-1099v-1134zM1083 416l-215 215l-215 -215l-127 125l217 217l-217 215l127 127l215 -217l215 215l127 -125l-215 -215l215 -217z" />
    <glyph glyph-name="arrowup.case" 
d="M117 0v1536h1521v-1536h-1521zM328 201h1099v1134h-1099v-1134zM1083 416l-215 215l-215 -215l-127 125l217 217l-217 215l127 127l215 -217l215 215l127 -125l-215 -215l215 -217z" />
    <glyph glyph-name="arrowdown.case" 
d="M117 0v1536h1521v-1536h-1521zM328 201h1099v1134h-1099v-1134zM1083 416l-215 215l-215 -215l-127 125l217 217l-217 215l127 127l215 -217l215 215l127 -125l-215 -215l215 -217z" />
    <glyph glyph-name="arrowboth.case" 
d="M117 0v1536h1521v-1536h-1521zM328 201h1099v1134h-1099v-1134zM1083 416l-215 215l-215 -215l-127 125l217 217l-217 215l127 127l215 -217l215 215l127 -125l-215 -215l215 -217z" />
    <glyph glyph-name="arrowupdn.case" 
d="M117 0v1536h1521v-1536h-1521zM328 201h1099v1134h-1099v-1134zM1083 416l-215 215l-215 -215l-127 125l217 217l-217 215l127 127l215 -217l215 215l127 -125l-215 -215l215 -217z" />
    <glyph glyph-name="uni2196.case" 
d="M117 0v1536h1521v-1536h-1521zM328 201h1099v1134h-1099v-1134zM1083 416l-215 215l-215 -215l-127 125l217 217l-217 215l127 127l215 -217l215 215l127 -125l-215 -215l215 -217z" />
    <glyph glyph-name="uni2197.case" 
d="M117 0v1536h1521v-1536h-1521zM328 201h1099v1134h-1099v-1134zM1083 416l-215 215l-215 -215l-127 125l217 217l-217 215l127 127l215 -217l215 215l127 -125l-215 -215l215 -217z" />
    <glyph glyph-name="uni2198.case" 
d="M117 0v1536h1521v-1536h-1521zM328 201h1099v1134h-1099v-1134zM1083 416l-215 215l-215 -215l-127 125l217 217l-217 215l127 127l215 -217l215 215l127 -125l-215 -215l215 -217z" />
    <glyph glyph-name="uni2199.case" 
d="M117 0v1536h1521v-1536h-1521zM328 201h1099v1134h-1099v-1134zM1083 416l-215 215l-215 -215l-127 125l217 217l-217 215l127 127l215 -217l215 215l127 -125l-215 -215l215 -217z" />
    <glyph glyph-name="at.case" 
d="M117 0v1536h1521v-1536h-1521zM328 201h1099v1134h-1099v-1134zM1083 416l-215 215l-215 -215l-127 125l217 217l-217 215l127 127l215 -217l215 215l127 -125l-215 -215l215 -217z" />
    <glyph glyph-name="colon.case" 
d="M117 0v1536h1521v-1536h-1521zM328 201h1099v1134h-1099v-1134zM1083 416l-215 215l-215 -215l-127 125l217 217l-217 215l127 127l215 -217l215 215l127 -125l-215 -215l215 -217z" />
    <glyph glyph-name="periodcentered.case" 
d="M117 0v1536h1521v-1536h-1521zM328 201h1099v1134h-1099v-1134zM1083 416l-215 215l-215 -215l-127 125l217 217l-217 215l127 127l215 -217l215 215l127 -125l-215 -215l215 -217z" />
    <glyph glyph-name="mediumblackcircle" 
d="M117 0v1536h1521v-1536h-1521zM328 201h1099v1134h-1099v-1134zM1083 416l-215 215l-215 -215l-127 125l217 217l-217 215l127 127l215 -217l215 215l127 -125l-215 -215l215 -217z" />
    <glyph glyph-name="squaremultiply" 
d="M117 0v1536h1521v-1536h-1521zM328 201h1099v1134h-1099v-1134zM1083 416l-215 215l-215 -215l-127 125l217 217l-217 215l127 127l215 -217l215 215l127 -125l-215 -215l215 -217z" />
    <glyph glyph-name="ballotboxwithx" 
d="M117 0v1536h1521v-1536h-1521zM328 201h1099v1134h-1099v-1134zM1083 416l-215 215l-215 -215l-127 125l217 217l-217 215l127 127l215 -217l215 215l127 -125l-215 -215l215 -217z" />
    <glyph glyph-name="oneCircled" 
d="M117 0v1536h1521v-1536h-1521zM328 201h1099v1134h-1099v-1134zM1083 416l-215 215l-215 -215l-127 125l217 217l-217 215l127 127l215 -217l215 215l127 -125l-215 -215l215 -217z" />
    <glyph glyph-name="twoCircled" 
d="M117 0v1536h1521v-1536h-1521zM328 201h1099v1134h-1099v-1134zM1083 416l-215 215l-215 -215l-127 125l217 217l-217 215l127 127l215 -217l215 215l127 -125l-215 -215l215 -217z" />
    <glyph glyph-name="threeCircled" 
d="M117 0v1536h1521v-1536h-1521zM328 201h1099v1134h-1099v-1134zM1083 416l-215 215l-215 -215l-127 125l217 217l-217 215l127 127l215 -217l215 215l127 -125l-215 -215l215 -217z" />
    <glyph glyph-name="fourCircled" 
d="M117 0v1536h1521v-1536h-1521zM328 201h1099v1134h-1099v-1134zM1083 416l-215 215l-215 -215l-127 125l217 217l-217 215l127 127l215 -217l215 215l127 -125l-215 -215l215 -217z" />
    <glyph glyph-name="fiveCircled" 
d="M117 0v1536h1521v-1536h-1521zM328 201h1099v1134h-1099v-1134zM1083 416l-215 215l-215 -215l-127 125l217 217l-217 215l127 127l215 -217l215 215l127 -125l-215 -215l215 -217z" />
    <glyph glyph-name="sixCircled" 
d="M117 0v1536h1521v-1536h-1521zM328 201h1099v1134h-1099v-1134zM1083 416l-215 215l-215 -215l-127 125l217 217l-217 215l127 127l215 -217l215 215l127 -125l-215 -215l215 -217z" />
    <glyph glyph-name="sevenCircled" 
d="M117 0v1536h1521v-1536h-1521zM328 201h1099v1134h-1099v-1134zM1083 416l-215 215l-215 -215l-127 125l217 217l-217 215l127 127l215 -217l215 215l127 -125l-215 -215l215 -217z" />
    <glyph glyph-name="eightCircled" 
d="M117 0v1536h1521v-1536h-1521zM328 201h1099v1134h-1099v-1134zM1083 416l-215 215l-215 -215l-127 125l217 217l-217 215l127 127l215 -217l215 215l127 -125l-215 -215l215 -217z" />
    <glyph glyph-name="nineCircled" 
d="M117 0v1536h1521v-1536h-1521zM328 201h1099v1134h-1099v-1134zM1083 416l-215 215l-215 -215l-127 125l217 217l-217 215l127 127l215 -217l215 215l127 -125l-215 -215l215 -217z" />
    <glyph glyph-name="zeroCircled" 
d="M117 0v1536h1521v-1536h-1521zM328 201h1099v1134h-1099v-1134zM1083 416l-215 215l-215 -215l-127 125l217 217l-217 215l127 127l215 -217l215 215l127 -125l-215 -215l215 -217z" />
    <glyph glyph-name="idotaccent" 
d="M117 0v1536h1521v-1536h-1521zM328 201h1099v1134h-1099v-1134zM1083 416l-215 215l-215 -215l-127 125l217 217l-217 215l127 127l215 -217l215 215l127 -125l-215 -215l215 -217z" />
    </font>
</defs>
</svg>
