<?xml version="1.0" standalone="no"?>
<!DOCTYPE svg PUBLIC "-//W3C//DTD SVG 1.1//EN" "http://www.w3.org/Graphics/SVG/1.1/DTD/svg11.dtd" >
<svg xmlns="http://www.w3.org/2000/svg" xmlns:xlink="http://www.w3.org/1999/xlink" version="1.1">
<metadata>
Created by FontForge 20170731 at Fri Mar 31 19:44:50 2023
 By Aleksey,,,
Copyright Daniel Sabino | Blackletra Type Foundry
</metadata>
<defs>
<font id="NokaTrial-Medium" horiz-adv-x="1787" >
  <font-face 
    font-family="Noka Trial Medium"
    font-weight="500"
    font-stretch="normal"
    units-per-em="2048"
    panose-1="0 0 0 0 0 0 0 0 0 0"
    ascent="1638"
    descent="-410"
    x-height="1044"
    cap-height="1536"
    bbox="8 -410 1939 1567"
    underline-thickness="0"
    underline-position="0"
    unicode-range="U+0020-FB02"
  />
<missing-glyph 
d="M133 0v1536h1522v-1536h-1522zM293 147h1202v1242h-1202v-1242zM1108 438l-223 226l-228 -228l-90 92l226 226l-226 225l90 92l228 -225l223 223l92 -90l-225 -225l225 -226z" />
    <glyph glyph-name=".notdef" 
d="M133 0v1536h1522v-1536h-1522zM293 147h1202v1242h-1202v-1242zM1108 438l-223 226l-228 -228l-90 92l226 226l-226 225l90 92l228 -225l223 223l92 -90l-225 -225l225 -226z" />
    <glyph glyph-name=".null" horiz-adv-x="0" 
 />
    <glyph glyph-name="nonmarkingreturn" horiz-adv-x="682" 
 />
    <glyph glyph-name="space" unicode=" " horiz-adv-x="450" 
 />
    <glyph glyph-name="exclam" unicode="!" 
d="M133 0v1536h1522v-1536h-1522zM293 147h1202v1242h-1202v-1242zM1108 438l-223 226l-228 -228l-90 92l226 226l-226 225l90 92l228 -225l223 223l92 -90l-225 -225l225 -226z" />
    <glyph glyph-name="quotedbl" unicode="&#x22;" 
d="M133 0v1536h1522v-1536h-1522zM293 147h1202v1242h-1202v-1242zM1108 438l-223 226l-228 -228l-90 92l226 226l-226 225l90 92l228 -225l223 223l92 -90l-225 -225l225 -226z" />
    <glyph glyph-name="numbersign" unicode="#" 
d="M133 0v1536h1522v-1536h-1522zM293 147h1202v1242h-1202v-1242zM1108 438l-223 226l-228 -228l-90 92l226 226l-226 225l90 92l228 -225l223 223l92 -90l-225 -225l225 -226z" />
    <glyph glyph-name="dollar" unicode="$" 
d="M133 0v1536h1522v-1536h-1522zM293 147h1202v1242h-1202v-1242zM1108 438l-223 226l-228 -228l-90 92l226 226l-226 225l90 92l228 -225l223 223l92 -90l-225 -225l225 -226z" />
    <glyph glyph-name="percent" unicode="%" 
d="M133 0v1536h1522v-1536h-1522zM293 147h1202v1242h-1202v-1242zM1108 438l-223 226l-228 -228l-90 92l226 226l-226 225l90 92l228 -225l223 223l92 -90l-225 -225l225 -226z" />
    <glyph glyph-name="ampersand" unicode="&#x26;" 
d="M133 0v1536h1522v-1536h-1522zM293 147h1202v1242h-1202v-1242zM1108 438l-223 226l-228 -228l-90 92l226 226l-226 225l90 92l228 -225l223 223l92 -90l-225 -225l225 -226z" />
    <glyph glyph-name="quotesingle" unicode="'" 
d="M133 0v1536h1522v-1536h-1522zM293 147h1202v1242h-1202v-1242zM1108 438l-223 226l-228 -228l-90 92l226 226l-226 225l90 92l228 -225l223 223l92 -90l-225 -225l225 -226z" />
    <glyph glyph-name="parenleft" unicode="(" 
d="M133 0v1536h1522v-1536h-1522zM293 147h1202v1242h-1202v-1242zM1108 438l-223 226l-228 -228l-90 92l226 226l-226 225l90 92l228 -225l223 223l92 -90l-225 -225l225 -226z" />
    <glyph glyph-name="parenright" unicode=")" 
d="M133 0v1536h1522v-1536h-1522zM293 147h1202v1242h-1202v-1242zM1108 438l-223 226l-228 -228l-90 92l226 226l-226 225l90 92l228 -225l223 223l92 -90l-225 -225l225 -226z" />
    <glyph glyph-name="asterisk" unicode="*" 
d="M133 0v1536h1522v-1536h-1522zM293 147h1202v1242h-1202v-1242zM1108 438l-223 226l-228 -228l-90 92l226 226l-226 225l90 92l228 -225l223 223l92 -90l-225 -225l225 -226z" />
    <glyph glyph-name="plus" unicode="+" 
d="M133 0v1536h1522v-1536h-1522zM293 147h1202v1242h-1202v-1242zM1108 438l-223 226l-228 -228l-90 92l226 226l-226 225l90 92l228 -225l223 223l92 -90l-225 -225l225 -226z" />
    <glyph glyph-name="comma" unicode="," horiz-adv-x="514" 
d="M180 -326h-129l170 592h180z" />
    <glyph glyph-name="hyphen" unicode="-" horiz-adv-x="923" 
d="M780 502h-637v129h637v-129z" />
    <glyph glyph-name="period" unicode="." horiz-adv-x="438" 
d="M299 0h-160v266h160v-266z" />
    <glyph glyph-name="slash" unicode="/" 
d="M133 0v1536h1522v-1536h-1522zM293 147h1202v1242h-1202v-1242zM1108 438l-223 226l-228 -228l-90 92l226 226l-226 225l90 92l228 -225l223 223l92 -90l-225 -225l225 -226z" />
    <glyph glyph-name="zero" unicode="0" horiz-adv-x="1249" 
d="M1141 496q0 -230 -143.5 -378.5t-374.5 -148.5q-227 0 -372 149t-145 378v542q0 226 145 376.5t372 150.5q231 0 374.5 -149.5t143.5 -377.5v-542zM268 496q0 -164 96 -265.5t259 -101.5q166 0 261 101t95 266v542q0 164 -95 265.5t-261 101.5q-161 0 -258 -102.5
t-97 -264.5v-542z" />
    <glyph glyph-name="one" unicode="1" horiz-adv-x="1249" 
d="M1008 152v-152h-766v152h309v1232h-309v152h469v-1384h297z" />
    <glyph glyph-name="two" unicode="2" horiz-adv-x="1249" 
d="M1085 152v-152h-923v164l581 635q92 99 127 175.5t35 155.5q0 124 -72.5 203.5t-214.5 79.5q-141 0 -218.5 -86t-77.5 -209v-28h-160v28q0 119 54.5 220t160 164t241.5 63q106 0 192 -35.5t141 -95.5t84.5 -137.5t29.5 -163.5q0 -116 -48.5 -217t-174.5 -240l-477 -524
h720z" />
    <glyph glyph-name="three" unicode="3" horiz-adv-x="1249" 
d="M1102 481q0 -98 -33 -182.5t-98.5 -152.5t-175 -107t-252.5 -39h-396v152h406q193 0 291 94t98 233q0 65 -18.5 118t-61 98t-121 70.5t-188.5 25.5h-250l440 593h-571v152h866l-456 -600q135 -2 237.5 -39t163 -100.5t90 -142.5t29.5 -173z" />
    <glyph glyph-name="four" unicode="4" horiz-adv-x="1249" 
d="M1063 1536v-1536h-154v721h-725v815h154v-664h571v664h154z" />
    <glyph glyph-name="five" unicode="5" horiz-adv-x="1249" 
d="M539 0h-387v152h397q193 0 291 94t98 233q0 65 -18.5 118t-61 98t-121 70.5t-188.5 25.5h-397v745h819v-152h-660v-442h238q140 0 248 -37t172.5 -101.5t96.5 -146t32 -176.5q0 -98 -33 -182.5t-98.5 -152.5t-175 -107t-252.5 -39z" />
    <glyph glyph-name="six" unicode="6" horiz-adv-x="1249" 
d="M1126 446q0 -204 -143 -340.5t-360 -136.5q-140 0 -255.5 62.5t-181 172t-65.5 242.5q0 142 88 275l534 815h193l-422 -631q50 15 109 15q216 0 359.5 -137t143.5 -337zM285 449q0 -140 97.5 -234t240.5 -94q146 0 243 93.5t97 234.5q0 139 -96.5 232t-243.5 93
q-143 0 -240.5 -93.5t-97.5 -231.5z" />
    <glyph glyph-name="seven" unicode="7" horiz-adv-x="1249" 
d="M1083 1536l-596 -1536h-170l545 1384h-698v152h919z" />
    <glyph glyph-name="eight" unicode="8" horiz-adv-x="1249" 
d="M1126 453q0 -204 -143.5 -344t-359.5 -140q-214 0 -358 140t-144 344q0 135 73.5 247.5t196.5 171.5q-84 50 -133 132.5t-49 179.5q0 159 120.5 270t293.5 111q177 0 296 -110.5t119 -270.5q0 -98 -48.5 -180t-133.5 -132q125 -59 197.5 -171t72.5 -248zM373 1174
q0 -103 71.5 -172.5t178.5 -69.5q109 0 180 69t71 173q0 105 -69.5 172t-181.5 67q-107 0 -178.5 -68t-71.5 -171zM285 455q0 -143 96 -238.5t242 -95.5q148 0 244 95.5t96 238.5q0 141 -96 237t-244 96q-145 0 -241.5 -97t-96.5 -236z" />
    <glyph glyph-name="nine" unicode="9" horiz-adv-x="1249" 
d="M1038 815l-534 -815h-189l422 633q-47 -17 -112 -17q-216 0 -360 137t-144 337q0 203 143.5 340t360.5 137q140 0 255 -62.5t180.5 -172t65.5 -242.5q0 -142 -88 -275zM285 1087q0 -139 96.5 -232t243.5 -93q143 0 240.5 93.5t97.5 231.5q0 140 -97.5 234t-240.5 94
q-146 0 -243 -93.5t-97 -234.5z" />
    <glyph glyph-name="colon" unicode=":" 
d="M133 0v1536h1522v-1536h-1522zM293 147h1202v1242h-1202v-1242zM1108 438l-223 226l-228 -228l-90 92l226 226l-226 225l90 92l228 -225l223 223l92 -90l-225 -225l225 -226z" />
    <glyph glyph-name="semicolon" unicode=";" 
d="M133 0v1536h1522v-1536h-1522zM293 147h1202v1242h-1202v-1242zM1108 438l-223 226l-228 -228l-90 92l226 226l-226 225l90 92l228 -225l223 223l92 -90l-225 -225l225 -226z" />
    <glyph glyph-name="less" unicode="&#x3c;" 
d="M133 0v1536h1522v-1536h-1522zM293 147h1202v1242h-1202v-1242zM1108 438l-223 226l-228 -228l-90 92l226 226l-226 225l90 92l228 -225l223 223l92 -90l-225 -225l225 -226z" />
    <glyph glyph-name="equal" unicode="=" 
d="M133 0v1536h1522v-1536h-1522zM293 147h1202v1242h-1202v-1242zM1108 438l-223 226l-228 -228l-90 92l226 226l-226 225l90 92l228 -225l223 223l92 -90l-225 -225l225 -226z" />
    <glyph glyph-name="greater" unicode="&#x3e;" 
d="M133 0v1536h1522v-1536h-1522zM293 147h1202v1242h-1202v-1242zM1108 438l-223 226l-228 -228l-90 92l226 226l-226 225l90 92l228 -225l223 223l92 -90l-225 -225l225 -226z" />
    <glyph glyph-name="question" unicode="?" 
d="M133 0v1536h1522v-1536h-1522zM293 147h1202v1242h-1202v-1242zM1108 438l-223 226l-228 -228l-90 92l226 226l-226 225l90 92l228 -225l223 223l92 -90l-225 -225l225 -226z" />
    <glyph glyph-name="at" unicode="@" 
d="M133 0v1536h1522v-1536h-1522zM293 147h1202v1242h-1202v-1242zM1108 438l-223 226l-228 -228l-90 92l226 226l-226 225l90 92l228 -225l223 223l92 -90l-225 -225l225 -226z" />
    <glyph glyph-name="A" unicode="A" horiz-adv-x="1310" 
d="M1073 0l-119 475h-598l-118 -475h-164l389 1536h387l387 -1536h-164zM586 1393l-193 -775h527l-193 775h-141z" />
    <glyph glyph-name="B" unicode="B" horiz-adv-x="1353" 
d="M1292 477q0 -98 -33 -182t-98.5 -151t-175 -105.5t-252.5 -38.5h-569v1536h534q116 0 204.5 -28t142 -78t80 -113.5t26.5 -138.5q0 -210 -178 -297q162 -42 240.5 -149.5t78.5 -254.5zM698 1393h-381v-478h381q77 0 136 21t93 56.5t51 78t17 90.5q0 47 -14 86t-45.5 73.5
t-92 53.5t-145.5 19zM743 782h-426v-639h426q193 0 291.5 94.5t98.5 233.5q0 51 -11 94.5t-38.5 84.5t-71 69.5t-112 45.5t-157.5 17z" />
    <glyph glyph-name="C" unicode="C" horiz-adv-x="1738" 
d="M1647 547q-79 -263 -280.5 -420.5t-473.5 -157.5q-168 0 -316.5 62t-253 168t-165 253.5t-60.5 313.5q0 167 60.5 315t165 254t253 168t316.5 62q269 0 473 -153t281 -408h-164q-73 190 -226.5 301.5t-363.5 111.5q-183 0 -328 -84t-226 -233t-81 -334t81 -333t226 -232
t328 -84q214 0 370 116.5t224 313.5h160z" />
    <glyph glyph-name="D" unicode="D" horiz-adv-x="1521" 
d="M602 0h-438v1536h436q192 0 347.5 -56t259.5 -157t160 -243t56 -312q0 -171 -56 -313t-160.5 -242.5t-259 -156.5t-345.5 -56zM598 1393h-281v-1250h283q174 0 305.5 49t209 136t115.5 197.5t38 242.5q0 104 -23 195t-74.5 171t-128.5 136.5t-190 89.5t-254 33z" />
    <glyph glyph-name="E" unicode="E" horiz-adv-x="1202" 
d="M1120 143v-143h-956v1536h923v-143h-770v-492h738v-143h-738v-615h803z" />
    <glyph glyph-name="F" unicode="F" horiz-adv-x="942" 
d="M827 758h-510v-758h-153v1536h704v-143h-551v-492h510v-143z" />
    <glyph glyph-name="G" unicode="G" horiz-adv-x="1763" 
d="M1669 731q0 -156 -60.5 -297.5t-164 -243t-247.5 -161.5t-304 -60q-168 0 -316.5 62t-253 168t-165 253.5t-60.5 313.5q0 167 59.5 315t163.5 254t250.5 168t313.5 62q266 0 475 -154t285 -407h-162q-72 188 -230.5 300.5t-367.5 112.5q-136 0 -252.5 -49.5t-199 -135.5
t-129 -206.5t-46.5 -259.5q0 -185 81 -333t226 -232t328 -84q244 0 417.5 150t202.5 382h-509v144h665v-62z" />
    <glyph glyph-name="H" unicode="H" horiz-adv-x="1449" 
d="M1133 0v758h-816v-758h-153v1536h153v-635h816v635h153v-1536h-153z" />
    <glyph glyph-name="I" unicode="I" horiz-adv-x="522" 
d="M338 0h-154v1536h154v-1536z" />
    <glyph glyph-name="J" unicode="J" horiz-adv-x="892" 
d="M309 0h-227v143h227q150 0 223.5 79t73.5 241v1073h154v-1079q0 -225 -117.5 -341t-333.5 -116z" />
    <glyph glyph-name="K" unicode="K" horiz-adv-x="1251" 
d="M1051 0l-545 758h-189v-758h-153v1536h153v-635h177l526 635h190l-571 -694l602 -842h-190z" />
    <glyph glyph-name="L" unicode="L" horiz-adv-x="880" 
d="M799 143v-143h-635v1536h153v-1393h482z" />
    <glyph glyph-name="M" unicode="M" horiz-adv-x="1761" 
d="M317 0h-153v1536h360l326 -928h61l326 928h360v-1536h-153v1393h-92l-330 -928h-283l-329 928h-93v-1393z" />
    <glyph glyph-name="N" unicode="N" horiz-adv-x="1566" 
d="M317 0h-153v1536h342l651 -1393h92v1393h154v-1536h-342l-651 1393h-93v-1393z" />
    <glyph glyph-name="O" unicode="O" horiz-adv-x="1794" 
d="M1696 766q0 -166 -60.5 -313.5t-165.5 -253.5t-254 -168t-319 -62q-169 0 -318 62t-254 168t-166 253.5t-61 313.5q0 167 61 315t166 254t254 168t318 62q170 0 319 -62t254 -168t165.5 -254t60.5 -315zM258 766q0 -184 81.5 -332.5t227.5 -232.5t330 -84t330 84
t227.5 232.5t81.5 332.5q0 185 -81.5 334t-227.5 233t-330 84t-330 -84t-227.5 -233t-81.5 -334z" />
    <glyph glyph-name="P" unicode="P" horiz-adv-x="1255" 
d="M684 594h-367v-594h-153v1536h518q248 0 390 -130.5t142 -338.5q0 -210 -141.5 -341.5t-388.5 -131.5zM692 1393h-375v-656h367q97 0 170.5 26.5t116 73t63.5 104.5t21 126q0 65 -20.5 122t-62 103.5t-113.5 73.5t-167 27z" />
    <glyph glyph-name="Q" unicode="Q" horiz-adv-x="1794" 
d="M1696 766q0 -209 -92 -383.5t-257 -283t-372 -126.5v-239h-154v239q-207 17 -372.5 125t-258 283.5t-92.5 384.5q0 167 61 315t166 254t254 168t318 62q170 0 319 -62t254 -168t165.5 -254t60.5 -315zM258 766q0 -259 157 -439t406 -206v534h154v-534q164 17 292 104.5
t198.5 228.5t70.5 312q0 185 -81.5 334t-227.5 233t-330 84t-330 -84t-227.5 -233t-81.5 -334z" />
    <glyph glyph-name="R" unicode="R" horiz-adv-x="1308" 
d="M707 614h-390v-614h-153v1536h541q247 0 388.5 -128t141.5 -331q0 -151 -78 -263t-221 -163l293 -651h-168l-279 618q-50 -4 -75 -4zM715 1393h-398v-635h390q96 0 169 25.5t115.5 70.5t63 101t20.5 122q0 63 -20.5 118t-61.5 100.5t-112.5 71.5t-165.5 26z" />
    <glyph glyph-name="S" unicode="S" horiz-adv-x="1265" 
d="M655 0h-594v152h605q193 0 291 94t98 233q0 65 -18.5 118t-61 98t-121 70.5t-188.5 25.5h-185q-178 0 -293.5 102t-115.5 264q0 168 118 273.5t304 105.5h622v-152h-631q-123 0 -188.5 -64t-65.5 -163q0 -93 65.5 -154t188.5 -61h181q140 0 248 -37t172 -101.5t96 -146
t32 -176.5q0 -98 -33 -182.5t-98.5 -152.5t-175 -107t-252.5 -39z" />
    <glyph glyph-name="T" unicode="T" horiz-adv-x="1028" 
d="M590 0h-154v1393h-395v143h946v-143h-397v-1393z" />
    <glyph glyph-name="U" unicode="U" horiz-adv-x="1388" 
d="M1255 569q0 -279 -151 -439.5t-410 -160.5q-258 0 -409.5 161t-151.5 439v967h154v-981q0 -200 107.5 -319t299.5 -119q193 0 300.5 119t107.5 319v981h153v-967z" />
    <glyph glyph-name="V" unicode="V" horiz-adv-x="1269" 
d="M809 0h-346l-389 1536h162l352 -1393h96l350 1393h162z" />
    <glyph glyph-name="W" unicode="W" horiz-adv-x="2013" 
d="M1208 0l-200 721l-201 -721h-344l-389 1536h162l352 -1393h96l240 826v211h168v-211l239 -826h96l351 1393h161l-387 -1536h-344z" />
    <glyph glyph-name="X" unicode="X" horiz-adv-x="1220" 
d="M500 754l-322 -754h-168l352 823l-331 713h168l301 -639h221l301 639h168l-332 -713l352 -823h-168l-321 754h-221z" />
    <glyph glyph-name="Y" unicode="Y" horiz-adv-x="1245" 
d="M942 578h-242v-578h-153v578h-242l-244 958h162l207 -815h387l205 815h162z" />
    <glyph glyph-name="Z" unicode="Z" horiz-adv-x="1159" 
d="M1085 0h-1011v279l835 1021v93h-815v143h969v-281l-834 -1019v-93h856v-143z" />
    <glyph glyph-name="bracketleft" unicode="[" 
d="M133 0v1536h1522v-1536h-1522zM293 147h1202v1242h-1202v-1242zM1108 438l-223 226l-228 -228l-90 92l226 226l-226 225l90 92l228 -225l223 223l92 -90l-225 -225l225 -226z" />
    <glyph glyph-name="backslash" unicode="\" 
d="M133 0v1536h1522v-1536h-1522zM293 147h1202v1242h-1202v-1242zM1108 438l-223 226l-228 -228l-90 92l226 226l-226 225l90 92l228 -225l223 223l92 -90l-225 -225l225 -226z" />
    <glyph glyph-name="bracketright" unicode="]" 
d="M133 0v1536h1522v-1536h-1522zM293 147h1202v1242h-1202v-1242zM1108 438l-223 226l-228 -228l-90 92l226 226l-226 225l90 92l228 -225l223 223l92 -90l-225 -225l225 -226z" />
    <glyph glyph-name="asciicircum" unicode="^" 
d="M133 0v1536h1522v-1536h-1522zM293 147h1202v1242h-1202v-1242zM1108 438l-223 226l-228 -228l-90 92l226 226l-226 225l90 92l228 -225l223 223l92 -90l-225 -225l225 -226z" />
    <glyph glyph-name="underscore" unicode="_" 
d="M133 0v1536h1522v-1536h-1522zM293 147h1202v1242h-1202v-1242zM1108 438l-223 226l-228 -228l-90 92l226 226l-226 225l90 92l228 -225l223 223l92 -90l-225 -225l225 -226z" />
    <glyph glyph-name="grave" unicode="`" 
d="M133 0v1536h1522v-1536h-1522zM293 147h1202v1242h-1202v-1242zM1108 438l-223 226l-228 -228l-90 92l226 226l-226 225l90 92l228 -225l223 223l92 -90l-225 -225l225 -226z" />
    <glyph glyph-name="a" unicode="a" horiz-adv-x="1286" 
d="M995 0v164q-69 -93 -163.5 -144t-206.5 -51q-106 0 -203 43t-168.5 116.5t-113.5 177t-42 218.5q0 114 42 216t113.5 175t168.5 115.5t203 42.5q226 0 370 -190v161h160v-1044h-160zM262 524q0 -175 105 -289t258 -114q117 0 214.5 63.5t155.5 167.5v344
q-54 100 -153 163t-217 63q-152 0 -257.5 -113.5t-105.5 -284.5z" />
    <glyph glyph-name="b" unicode="b" horiz-adv-x="1286" 
d="M1188 524q0 -153 -71.5 -281t-192 -201t-262.5 -73q-112 0 -207 51t-164 144v-164h-160v1536h160v-653q69 91 164 140.5t207 49.5q142 0 262.5 -72t192 -199t71.5 -278zM662 922q-118 0 -217.5 -63t-153.5 -163v-344q58 -104 155.5 -167.5t215.5 -63.5q153 0 257.5 114
t104.5 289q0 172 -105 285t-257 113z" />
    <glyph glyph-name="c" unicode="c" horiz-adv-x="1273" 
d="M1188 330q-52 -165 -195.5 -263t-324.5 -98q-119 0 -225 44t-181.5 118.5t-119.5 177t-44 215.5q0 112 44 213.5t119.5 175t182 117t224.5 43.5q182 0 323.5 -97t196.5 -265h-170q-44 96 -137.5 153.5t-212.5 57.5q-176 0 -291 -114.5t-115 -283.5q0 -172 115 -287.5
t291 -115.5q121 0 213.5 56.5t136.5 152.5h170z" />
    <glyph glyph-name="d" unicode="d" horiz-adv-x="1286" 
d="M995 0v164q-69 -93 -163.5 -144t-206.5 -51q-106 0 -203 43t-168.5 116.5t-113.5 177t-42 218.5q0 114 42 216t113.5 175t168.5 115.5t203 42.5q226 0 370 -190v653h160v-1536h-160zM262 524q0 -175 105 -289t258 -114q117 0 214.5 63.5t155.5 167.5v344
q-54 100 -153 163t-217 63q-152 0 -257.5 -113.5t-105.5 -284.5z" />
    <glyph glyph-name="e" unicode="e" horiz-adv-x="1259" 
d="M1145 330q-52 -171 -192 -266t-308 -95q-234 0 -390.5 159t-156.5 402q0 149 74.5 274.5t199 197t269.5 71.5q153 0 273.5 -76.5t185.5 -207t65 -289.5h-907q10 -172 116.5 -275.5t270.5 -103.5q105 0 201.5 55.5t138.5 153.5h160zM641 922q-138 0 -238.5 -76.5
t-132.5 -206.5h713q-27 132 -115 207.5t-227 75.5z" />
    <glyph glyph-name="f" unicode="f" horiz-adv-x="651" 
d="M121 -410h-113v144h123q109 0 109 110v1057h-220v143h220v246q0 112 70.5 179t207.5 67h113v-143h-123q-109 0 -109 -111v-238h232v-143h-232v-1065q0 -112 -70.5 -179t-207.5 -67z" />
    <glyph glyph-name="g" unicode="g" horiz-adv-x="1286" 
d="M1155 -164q0 -112 -70.5 -179t-207.5 -67h-607v144h617q108 0 108 110v316q-69 -91 -163.5 -141t-206.5 -50q-106 0 -203 42.5t-168.5 115.5t-113.5 175t-42 216q0 115 42 218.5t113.5 177t168.5 116.5t203 43q112 0 206.5 -50.5t163.5 -143.5v165h160v-1208zM262 518
q0 -171 105 -284t258 -113q118 0 217 62.5t153 162.5v344q-58 104 -155.5 168t-214.5 64q-153 0 -258 -114.5t-105 -289.5z" />
    <glyph glyph-name="h" unicode="h" horiz-adv-x="1204" 
d="M635 922q-118 0 -208.5 -57t-135.5 -136v-729h-160v1536h160v-633q62 79 155 124.5t197 45.5q210 0 328.5 -127t118.5 -334v-612h-160v604q0 144 -72 231t-223 87z" />
    <glyph glyph-name="i" unicode="i" horiz-adv-x="438" 
d="M299 1270h-160v266h160v-266zM299 0h-160v1044h160v-1044z" />
    <glyph glyph-name="j" unicode="j" horiz-adv-x="438" 
d="M299 1270h-160v266h160v-266zM299 -410h-160v1454h160v-1454z" />
    <glyph glyph-name="k" unicode="k" horiz-adv-x="1040" 
d="M801 0l-316 483h-194v-483h-160v1536h160v-909h184l309 417h195l-363 -479l383 -565h-198z" />
    <glyph glyph-name="l" unicode="l" horiz-adv-x="438" 
d="M299 0h-160v1536h160v-1536z" />
    <glyph glyph-name="m" unicode="m" horiz-adv-x="1982" 
d="M645 922q-116 0 -209.5 -60t-144.5 -141v-721h-160v1044h160v-153q67 83 166 132.5t205 49.5q131 0 226.5 -55.5t147.5 -155.5q67 95 177.5 153t230.5 58q195 0 309.5 -119t114.5 -311v-643h-160v629q0 130 -71 211.5t-210 81.5q-113 0 -204 -56.5t-144 -134.5
q6 -44 6 -88v-643h-159v629q0 130 -71 211.5t-210 81.5z" />
    <glyph glyph-name="n" unicode="n" horiz-adv-x="1204" 
d="M647 922q-117 0 -211 -60t-145 -141v-721h-160v1044h160v-155q67 84 167 134t206 50q197 0 311.5 -119t114.5 -311v-643h-160v629q0 130 -71.5 211.5t-211.5 81.5z" />
    <glyph glyph-name="o" unicode="o" horiz-adv-x="1343" 
d="M1245 524q0 -152 -74.5 -279t-206.5 -201.5t-292 -74.5q-159 0 -291 74.5t-207.5 201.5t-75.5 279q0 150 75.5 276t207.5 199.5t291 73.5q120 0 226.5 -43.5t182.5 -117t120 -175t44 -213.5zM262 524q0 -171 116.5 -287t293.5 -116t293 115.5t116 287.5q0 169 -116 283.5
t-293 114.5t-293.5 -114.5t-116.5 -283.5z" />
    <glyph glyph-name="p" unicode="p" horiz-adv-x="1286" 
d="M662 -31q-112 0 -207 50t-164 141v-570h-160v1454h160v-165q69 92 164 143t207 51q142 0 262.5 -73t192 -201t71.5 -281q0 -151 -71.5 -278t-192 -199t-262.5 -72zM662 922q-117 0 -215 -64t-156 -168v-344q54 -100 153.5 -162.5t217.5 -62.5q152 0 257 113t105 284
q0 175 -104.5 289.5t-257.5 114.5z" />
    <glyph glyph-name="q" unicode="q" horiz-adv-x="1286" 
d="M1155 1044v-1454h-160v570q-69 -91 -163.5 -141t-206.5 -50q-106 0 -203 42.5t-168.5 115.5t-113.5 175t-42 216q0 115 42 218.5t113.5 177t168.5 116.5t203 43q112 0 206.5 -50.5t163.5 -143.5v165h160zM262 518q0 -171 105 -284t258 -113q118 0 217 62.5t153 162.5v344
q-58 104 -155.5 168t-214.5 64q-153 0 -258 -114.5t-105 -289.5z" />
    <glyph glyph-name="r" unicode="r" horiz-adv-x="706" 
d="M653 901q-125 0 -219.5 -48t-142.5 -116v-737h-160v1044h160v-116q152 145 362 145v-172z" />
    <glyph glyph-name="s" unicode="s" horiz-adv-x="944" 
d="M508 0h-426v143h416q117 0 174 54t57 139q0 75 -53 122.5t-174 47.5h-117q-136 0 -221.5 74.5t-85.5 193.5q0 120 86 195t221 75h451v-143h-445q-76 0 -115.5 -35t-39.5 -92q0 -55 40 -90t115 -35h119q185 0 281 -89t96 -226q0 -69 -23 -128.5t-68 -106t-119 -73
t-169 -26.5z" />
    <glyph glyph-name="t" unicode="t" horiz-adv-x="641" 
d="M621 901h-222v-901h-159v901h-220v143h220v295h159v-295h222v-143z" />
    <glyph glyph-name="u" unicode="u" horiz-adv-x="1196" 
d="M905 0v152q-67 -83 -165.5 -133t-202.5 -50q-195 0 -308.5 119t-113.5 311v645h159v-630q0 -130 70.5 -211.5t208.5 -81.5q116 0 208.5 59.5t143.5 141.5v722h160v-1044h-160z" />
    <glyph glyph-name="v" unicode="v" horiz-adv-x="976" 
d="M659 0h-342l-276 1044h166l235 -901h93l235 901h166z" />
    <glyph glyph-name="w" unicode="w" horiz-adv-x="1511" 
d="M872 0l-116 512l-119 -512h-332l-264 1044h162l233 -907h76l164 627v160h160v-160l161 -627h76l236 907h161l-264 -1044h-334z" />
    <glyph glyph-name="x" unicode="x" horiz-adv-x="1044" 
d="M827 0l-266 487h-100l-244 -487h-176l281 553l-267 491h178l226 -423h100l234 423h176l-273 -489l308 -555h-177z" />
    <glyph glyph-name="y" unicode="y" horiz-adv-x="987" 
d="M637 -190q-28 -109 -92.5 -164.5t-182.5 -55.5h-131l-38 144h167q99 0 123 94l45 172h-227l-260 1044h162l227 -901h127l227 901h162z" />
    <glyph glyph-name="z" unicode="z" horiz-adv-x="944" 
d="M874 0h-796v213l604 637v51h-582v143h752v-221l-594 -626v-54h616v-143z" />
    <glyph glyph-name="braceleft" unicode="{" 
d="M133 0v1536h1522v-1536h-1522zM293 147h1202v1242h-1202v-1242zM1108 438l-223 226l-228 -228l-90 92l226 226l-226 225l90 92l228 -225l223 223l92 -90l-225 -225l225 -226z" />
    <glyph glyph-name="bar" unicode="|" 
d="M133 0v1536h1522v-1536h-1522zM293 147h1202v1242h-1202v-1242zM1108 438l-223 226l-228 -228l-90 92l226 226l-226 225l90 92l228 -225l223 223l92 -90l-225 -225l225 -226z" />
    <glyph glyph-name="braceright" unicode="}" 
d="M133 0v1536h1522v-1536h-1522zM293 147h1202v1242h-1202v-1242zM1108 438l-223 226l-228 -228l-90 92l226 226l-226 225l90 92l228 -225l223 223l92 -90l-225 -225l225 -226z" />
    <glyph glyph-name="asciitilde" unicode="~" 
d="M133 0v1536h1522v-1536h-1522zM293 147h1202v1242h-1202v-1242zM1108 438l-223 226l-228 -228l-90 92l226 226l-226 225l90 92l228 -225l223 223l92 -90l-225 -225l225 -226z" />
    <glyph glyph-name="exclamdown" unicode="&#xa1;" 
d="M133 0v1536h1522v-1536h-1522zM293 147h1202v1242h-1202v-1242zM1108 438l-223 226l-228 -228l-90 92l226 226l-226 225l90 92l228 -225l223 223l92 -90l-225 -225l225 -226z" />
    <glyph glyph-name="cent" unicode="&#xa2;" 
d="M133 0v1536h1522v-1536h-1522zM293 147h1202v1242h-1202v-1242zM1108 438l-223 226l-228 -228l-90 92l226 226l-226 225l90 92l228 -225l223 223l92 -90l-225 -225l225 -226z" />
    <glyph glyph-name="sterling" unicode="&#xa3;" 
d="M133 0v1536h1522v-1536h-1522zM293 147h1202v1242h-1202v-1242zM1108 438l-223 226l-228 -228l-90 92l226 226l-226 225l90 92l228 -225l223 223l92 -90l-225 -225l225 -226z" />
    <glyph glyph-name="currency" unicode="&#xa4;" 
d="M133 0v1536h1522v-1536h-1522zM293 147h1202v1242h-1202v-1242zM1108 438l-223 226l-228 -228l-90 92l226 226l-226 225l90 92l228 -225l223 223l92 -90l-225 -225l225 -226z" />
    <glyph glyph-name="yen" unicode="&#xa5;" 
d="M133 0v1536h1522v-1536h-1522zM293 147h1202v1242h-1202v-1242zM1108 438l-223 226l-228 -228l-90 92l226 226l-226 225l90 92l228 -225l223 223l92 -90l-225 -225l225 -226z" />
    <glyph glyph-name="brokenbar" unicode="&#xa6;" 
d="M133 0v1536h1522v-1536h-1522zM293 147h1202v1242h-1202v-1242zM1108 438l-223 226l-228 -228l-90 92l226 226l-226 225l90 92l228 -225l223 223l92 -90l-225 -225l225 -226z" />
    <glyph glyph-name="section" unicode="&#xa7;" 
d="M133 0v1536h1522v-1536h-1522zM293 147h1202v1242h-1202v-1242zM1108 438l-223 226l-228 -228l-90 92l226 226l-226 225l90 92l228 -225l223 223l92 -90l-225 -225l225 -226z" />
    <glyph glyph-name="dieresis" unicode="&#xa8;" 
d="M133 0v1536h1522v-1536h-1522zM293 147h1202v1242h-1202v-1242zM1108 438l-223 226l-228 -228l-90 92l226 226l-226 225l90 92l228 -225l223 223l92 -90l-225 -225l225 -226z" />
    <glyph glyph-name="copyright" unicode="&#xa9;" 
d="M133 0v1536h1522v-1536h-1522zM293 147h1202v1242h-1202v-1242zM1108 438l-223 226l-228 -228l-90 92l226 226l-226 225l90 92l228 -225l223 223l92 -90l-225 -225l225 -226z" />
    <glyph glyph-name="ordfeminine" unicode="&#xaa;" 
d="M133 0v1536h1522v-1536h-1522zM293 147h1202v1242h-1202v-1242zM1108 438l-223 226l-228 -228l-90 92l226 226l-226 225l90 92l228 -225l223 223l92 -90l-225 -225l225 -226z" />
    <glyph glyph-name="guillemotleft" unicode="&#xab;" 
d="M133 0v1536h1522v-1536h-1522zM293 147h1202v1242h-1202v-1242zM1108 438l-223 226l-228 -228l-90 92l226 226l-226 225l90 92l228 -225l223 223l92 -90l-225 -225l225 -226z" />
    <glyph glyph-name="registered" unicode="&#xae;" 
d="M133 0v1536h1522v-1536h-1522zM293 147h1202v1242h-1202v-1242zM1108 438l-223 226l-228 -228l-90 92l226 226l-226 225l90 92l228 -225l223 223l92 -90l-225 -225l225 -226z" />
    <glyph glyph-name="macron" unicode="&#xaf;" 
d="M133 0v1536h1522v-1536h-1522zM293 147h1202v1242h-1202v-1242zM1108 438l-223 226l-228 -228l-90 92l226 226l-226 225l90 92l228 -225l223 223l92 -90l-225 -225l225 -226z" />
    <glyph glyph-name="degree" unicode="&#xb0;" 
d="M133 0v1536h1522v-1536h-1522zM293 147h1202v1242h-1202v-1242zM1108 438l-223 226l-228 -228l-90 92l226 226l-226 225l90 92l228 -225l223 223l92 -90l-225 -225l225 -226z" />
    <glyph glyph-name="plusminus" unicode="&#xb1;" 
d="M133 0v1536h1522v-1536h-1522zM293 147h1202v1242h-1202v-1242zM1108 438l-223 226l-228 -228l-90 92l226 226l-226 225l90 92l228 -225l223 223l92 -90l-225 -225l225 -226z" />
    <glyph glyph-name="acute" unicode="&#xb4;" 
d="M133 0v1536h1522v-1536h-1522zM293 147h1202v1242h-1202v-1242zM1108 438l-223 226l-228 -228l-90 92l226 226l-226 225l90 92l228 -225l223 223l92 -90l-225 -225l225 -226z" />
    <glyph glyph-name="paragraph" unicode="&#xb6;" 
d="M133 0v1536h1522v-1536h-1522zM293 147h1202v1242h-1202v-1242zM1108 438l-223 226l-228 -228l-90 92l226 226l-226 225l90 92l228 -225l223 223l92 -90l-225 -225l225 -226z" />
    <glyph glyph-name="periodcentered" unicode="&#xb7;" 
d="M133 0v1536h1522v-1536h-1522zM293 147h1202v1242h-1202v-1242zM1108 438l-223 226l-228 -228l-90 92l226 226l-226 225l90 92l228 -225l223 223l92 -90l-225 -225l225 -226z" />
    <glyph glyph-name="cedilla" unicode="&#xb8;" 
d="M133 0v1536h1522v-1536h-1522zM293 147h1202v1242h-1202v-1242zM1108 438l-223 226l-228 -228l-90 92l226 226l-226 225l90 92l228 -225l223 223l92 -90l-225 -225l225 -226z" />
    <glyph glyph-name="ordmasculine" unicode="&#xba;" 
d="M133 0v1536h1522v-1536h-1522zM293 147h1202v1242h-1202v-1242zM1108 438l-223 226l-228 -228l-90 92l226 226l-226 225l90 92l228 -225l223 223l92 -90l-225 -225l225 -226z" />
    <glyph glyph-name="guillemotright" unicode="&#xbb;" 
d="M133 0v1536h1522v-1536h-1522zM293 147h1202v1242h-1202v-1242zM1108 438l-223 226l-228 -228l-90 92l226 226l-226 225l90 92l228 -225l223 223l92 -90l-225 -225l225 -226z" />
    <glyph glyph-name="onequarter" unicode="&#xbc;" 
d="M133 0v1536h1522v-1536h-1522zM293 147h1202v1242h-1202v-1242zM1108 438l-223 226l-228 -228l-90 92l226 226l-226 225l90 92l228 -225l223 223l92 -90l-225 -225l225 -226z" />
    <glyph glyph-name="onehalf" unicode="&#xbd;" 
d="M133 0v1536h1522v-1536h-1522zM293 147h1202v1242h-1202v-1242zM1108 438l-223 226l-228 -228l-90 92l226 226l-226 225l90 92l228 -225l223 223l92 -90l-225 -225l225 -226z" />
    <glyph glyph-name="threequarters" unicode="&#xbe;" 
d="M133 0v1536h1522v-1536h-1522zM293 147h1202v1242h-1202v-1242zM1108 438l-223 226l-228 -228l-90 92l226 226l-226 225l90 92l228 -225l223 223l92 -90l-225 -225l225 -226z" />
    <glyph glyph-name="questiondown" unicode="&#xbf;" 
d="M133 0v1536h1522v-1536h-1522zM293 147h1202v1242h-1202v-1242zM1108 438l-223 226l-228 -228l-90 92l226 226l-226 225l90 92l228 -225l223 223l92 -90l-225 -225l225 -226z" />
    <glyph glyph-name="Agrave" unicode="&#xc0;" 
d="M133 0v1536h1522v-1536h-1522zM293 147h1202v1242h-1202v-1242zM1108 438l-223 226l-228 -228l-90 92l226 226l-226 225l90 92l228 -225l223 223l92 -90l-225 -225l225 -226z" />
    <glyph glyph-name="Aacute" unicode="&#xc1;" 
d="M133 0v1536h1522v-1536h-1522zM293 147h1202v1242h-1202v-1242zM1108 438l-223 226l-228 -228l-90 92l226 226l-226 225l90 92l228 -225l223 223l92 -90l-225 -225l225 -226z" />
    <glyph glyph-name="Acircumflex" unicode="&#xc2;" 
d="M133 0v1536h1522v-1536h-1522zM293 147h1202v1242h-1202v-1242zM1108 438l-223 226l-228 -228l-90 92l226 226l-226 225l90 92l228 -225l223 223l92 -90l-225 -225l225 -226z" />
    <glyph glyph-name="Atilde" unicode="&#xc3;" 
d="M133 0v1536h1522v-1536h-1522zM293 147h1202v1242h-1202v-1242zM1108 438l-223 226l-228 -228l-90 92l226 226l-226 225l90 92l228 -225l223 223l92 -90l-225 -225l225 -226z" />
    <glyph glyph-name="Adieresis" unicode="&#xc4;" 
d="M133 0v1536h1522v-1536h-1522zM293 147h1202v1242h-1202v-1242zM1108 438l-223 226l-228 -228l-90 92l226 226l-226 225l90 92l228 -225l223 223l92 -90l-225 -225l225 -226z" />
    <glyph glyph-name="Aring" unicode="&#xc5;" 
d="M133 0v1536h1522v-1536h-1522zM293 147h1202v1242h-1202v-1242zM1108 438l-223 226l-228 -228l-90 92l226 226l-226 225l90 92l228 -225l223 223l92 -90l-225 -225l225 -226z" />
    <glyph glyph-name="AE" unicode="&#xc6;" 
d="M133 0v1536h1522v-1536h-1522zM293 147h1202v1242h-1202v-1242zM1108 438l-223 226l-228 -228l-90 92l226 226l-226 225l90 92l228 -225l223 223l92 -90l-225 -225l225 -226z" />
    <glyph glyph-name="Ccedilla" unicode="&#xc7;" 
d="M133 0v1536h1522v-1536h-1522zM293 147h1202v1242h-1202v-1242zM1108 438l-223 226l-228 -228l-90 92l226 226l-226 225l90 92l228 -225l223 223l92 -90l-225 -225l225 -226z" />
    <glyph glyph-name="Egrave" unicode="&#xc8;" 
d="M133 0v1536h1522v-1536h-1522zM293 147h1202v1242h-1202v-1242zM1108 438l-223 226l-228 -228l-90 92l226 226l-226 225l90 92l228 -225l223 223l92 -90l-225 -225l225 -226z" />
    <glyph glyph-name="Eacute" unicode="&#xc9;" 
d="M133 0v1536h1522v-1536h-1522zM293 147h1202v1242h-1202v-1242zM1108 438l-223 226l-228 -228l-90 92l226 226l-226 225l90 92l228 -225l223 223l92 -90l-225 -225l225 -226z" />
    <glyph glyph-name="Ecircumflex" unicode="&#xca;" 
d="M133 0v1536h1522v-1536h-1522zM293 147h1202v1242h-1202v-1242zM1108 438l-223 226l-228 -228l-90 92l226 226l-226 225l90 92l228 -225l223 223l92 -90l-225 -225l225 -226z" />
    <glyph glyph-name="Edieresis" unicode="&#xcb;" 
d="M133 0v1536h1522v-1536h-1522zM293 147h1202v1242h-1202v-1242zM1108 438l-223 226l-228 -228l-90 92l226 226l-226 225l90 92l228 -225l223 223l92 -90l-225 -225l225 -226z" />
    <glyph glyph-name="Igrave" unicode="&#xcc;" 
d="M133 0v1536h1522v-1536h-1522zM293 147h1202v1242h-1202v-1242zM1108 438l-223 226l-228 -228l-90 92l226 226l-226 225l90 92l228 -225l223 223l92 -90l-225 -225l225 -226z" />
    <glyph glyph-name="Iacute" unicode="&#xcd;" 
d="M133 0v1536h1522v-1536h-1522zM293 147h1202v1242h-1202v-1242zM1108 438l-223 226l-228 -228l-90 92l226 226l-226 225l90 92l228 -225l223 223l92 -90l-225 -225l225 -226z" />
    <glyph glyph-name="Icircumflex" unicode="&#xce;" 
d="M133 0v1536h1522v-1536h-1522zM293 147h1202v1242h-1202v-1242zM1108 438l-223 226l-228 -228l-90 92l226 226l-226 225l90 92l228 -225l223 223l92 -90l-225 -225l225 -226z" />
    <glyph glyph-name="Idieresis" unicode="&#xcf;" 
d="M133 0v1536h1522v-1536h-1522zM293 147h1202v1242h-1202v-1242zM1108 438l-223 226l-228 -228l-90 92l226 226l-226 225l90 92l228 -225l223 223l92 -90l-225 -225l225 -226z" />
    <glyph glyph-name="Eth" unicode="&#xd0;" 
d="M133 0v1536h1522v-1536h-1522zM293 147h1202v1242h-1202v-1242zM1108 438l-223 226l-228 -228l-90 92l226 226l-226 225l90 92l228 -225l223 223l92 -90l-225 -225l225 -226z" />
    <glyph glyph-name="Ntilde" unicode="&#xd1;" 
d="M133 0v1536h1522v-1536h-1522zM293 147h1202v1242h-1202v-1242zM1108 438l-223 226l-228 -228l-90 92l226 226l-226 225l90 92l228 -225l223 223l92 -90l-225 -225l225 -226z" />
    <glyph glyph-name="Ograve" unicode="&#xd2;" 
d="M133 0v1536h1522v-1536h-1522zM293 147h1202v1242h-1202v-1242zM1108 438l-223 226l-228 -228l-90 92l226 226l-226 225l90 92l228 -225l223 223l92 -90l-225 -225l225 -226z" />
    <glyph glyph-name="Oacute" unicode="&#xd3;" 
d="M133 0v1536h1522v-1536h-1522zM293 147h1202v1242h-1202v-1242zM1108 438l-223 226l-228 -228l-90 92l226 226l-226 225l90 92l228 -225l223 223l92 -90l-225 -225l225 -226z" />
    <glyph glyph-name="Ocircumflex" unicode="&#xd4;" 
d="M133 0v1536h1522v-1536h-1522zM293 147h1202v1242h-1202v-1242zM1108 438l-223 226l-228 -228l-90 92l226 226l-226 225l90 92l228 -225l223 223l92 -90l-225 -225l225 -226z" />
    <glyph glyph-name="Otilde" unicode="&#xd5;" 
d="M133 0v1536h1522v-1536h-1522zM293 147h1202v1242h-1202v-1242zM1108 438l-223 226l-228 -228l-90 92l226 226l-226 225l90 92l228 -225l223 223l92 -90l-225 -225l225 -226z" />
    <glyph glyph-name="Odieresis" unicode="&#xd6;" 
d="M133 0v1536h1522v-1536h-1522zM293 147h1202v1242h-1202v-1242zM1108 438l-223 226l-228 -228l-90 92l226 226l-226 225l90 92l228 -225l223 223l92 -90l-225 -225l225 -226z" />
    <glyph glyph-name="multiply" unicode="&#xd7;" 
d="M133 0v1536h1522v-1536h-1522zM293 147h1202v1242h-1202v-1242zM1108 438l-223 226l-228 -228l-90 92l226 226l-226 225l90 92l228 -225l223 223l92 -90l-225 -225l225 -226z" />
    <glyph glyph-name="Oslash" unicode="&#xd8;" 
d="M133 0v1536h1522v-1536h-1522zM293 147h1202v1242h-1202v-1242zM1108 438l-223 226l-228 -228l-90 92l226 226l-226 225l90 92l228 -225l223 223l92 -90l-225 -225l225 -226z" />
    <glyph glyph-name="Ugrave" unicode="&#xd9;" 
d="M133 0v1536h1522v-1536h-1522zM293 147h1202v1242h-1202v-1242zM1108 438l-223 226l-228 -228l-90 92l226 226l-226 225l90 92l228 -225l223 223l92 -90l-225 -225l225 -226z" />
    <glyph glyph-name="Uacute" unicode="&#xda;" 
d="M133 0v1536h1522v-1536h-1522zM293 147h1202v1242h-1202v-1242zM1108 438l-223 226l-228 -228l-90 92l226 226l-226 225l90 92l228 -225l223 223l92 -90l-225 -225l225 -226z" />
    <glyph glyph-name="Ucircumflex" unicode="&#xdb;" 
d="M133 0v1536h1522v-1536h-1522zM293 147h1202v1242h-1202v-1242zM1108 438l-223 226l-228 -228l-90 92l226 226l-226 225l90 92l228 -225l223 223l92 -90l-225 -225l225 -226z" />
    <glyph glyph-name="Udieresis" unicode="&#xdc;" 
d="M133 0v1536h1522v-1536h-1522zM293 147h1202v1242h-1202v-1242zM1108 438l-223 226l-228 -228l-90 92l226 226l-226 225l90 92l228 -225l223 223l92 -90l-225 -225l225 -226z" />
    <glyph glyph-name="Yacute" unicode="&#xdd;" 
d="M133 0v1536h1522v-1536h-1522zM293 147h1202v1242h-1202v-1242zM1108 438l-223 226l-228 -228l-90 92l226 226l-226 225l90 92l228 -225l223 223l92 -90l-225 -225l225 -226z" />
    <glyph glyph-name="Thorn" unicode="&#xde;" 
d="M133 0v1536h1522v-1536h-1522zM293 147h1202v1242h-1202v-1242zM1108 438l-223 226l-228 -228l-90 92l226 226l-226 225l90 92l228 -225l223 223l92 -90l-225 -225l225 -226z" />
    <glyph glyph-name="germandbls" unicode="&#xdf;" 
d="M133 0v1536h1522v-1536h-1522zM293 147h1202v1242h-1202v-1242zM1108 438l-223 226l-228 -228l-90 92l226 226l-226 225l90 92l228 -225l223 223l92 -90l-225 -225l225 -226z" />
    <glyph glyph-name="agrave" unicode="&#xe0;" 
d="M133 0v1536h1522v-1536h-1522zM293 147h1202v1242h-1202v-1242zM1108 438l-223 226l-228 -228l-90 92l226 226l-226 225l90 92l228 -225l223 223l92 -90l-225 -225l225 -226z" />
    <glyph glyph-name="aacute" unicode="&#xe1;" 
d="M133 0v1536h1522v-1536h-1522zM293 147h1202v1242h-1202v-1242zM1108 438l-223 226l-228 -228l-90 92l226 226l-226 225l90 92l228 -225l223 223l92 -90l-225 -225l225 -226z" />
    <glyph glyph-name="acircumflex" unicode="&#xe2;" 
d="M133 0v1536h1522v-1536h-1522zM293 147h1202v1242h-1202v-1242zM1108 438l-223 226l-228 -228l-90 92l226 226l-226 225l90 92l228 -225l223 223l92 -90l-225 -225l225 -226z" />
    <glyph glyph-name="atilde" unicode="&#xe3;" 
d="M133 0v1536h1522v-1536h-1522zM293 147h1202v1242h-1202v-1242zM1108 438l-223 226l-228 -228l-90 92l226 226l-226 225l90 92l228 -225l223 223l92 -90l-225 -225l225 -226z" />
    <glyph glyph-name="adieresis" unicode="&#xe4;" 
d="M133 0v1536h1522v-1536h-1522zM293 147h1202v1242h-1202v-1242zM1108 438l-223 226l-228 -228l-90 92l226 226l-226 225l90 92l228 -225l223 223l92 -90l-225 -225l225 -226z" />
    <glyph glyph-name="aring" unicode="&#xe5;" 
d="M133 0v1536h1522v-1536h-1522zM293 147h1202v1242h-1202v-1242zM1108 438l-223 226l-228 -228l-90 92l226 226l-226 225l90 92l228 -225l223 223l92 -90l-225 -225l225 -226z" />
    <glyph glyph-name="ae" unicode="&#xe6;" 
d="M133 0v1536h1522v-1536h-1522zM293 147h1202v1242h-1202v-1242zM1108 438l-223 226l-228 -228l-90 92l226 226l-226 225l90 92l228 -225l223 223l92 -90l-225 -225l225 -226z" />
    <glyph glyph-name="ccedilla" unicode="&#xe7;" 
d="M133 0v1536h1522v-1536h-1522zM293 147h1202v1242h-1202v-1242zM1108 438l-223 226l-228 -228l-90 92l226 226l-226 225l90 92l228 -225l223 223l92 -90l-225 -225l225 -226z" />
    <glyph glyph-name="egrave" unicode="&#xe8;" 
d="M133 0v1536h1522v-1536h-1522zM293 147h1202v1242h-1202v-1242zM1108 438l-223 226l-228 -228l-90 92l226 226l-226 225l90 92l228 -225l223 223l92 -90l-225 -225l225 -226z" />
    <glyph glyph-name="eacute" unicode="&#xe9;" 
d="M133 0v1536h1522v-1536h-1522zM293 147h1202v1242h-1202v-1242zM1108 438l-223 226l-228 -228l-90 92l226 226l-226 225l90 92l228 -225l223 223l92 -90l-225 -225l225 -226z" />
    <glyph glyph-name="ecircumflex" unicode="&#xea;" 
d="M133 0v1536h1522v-1536h-1522zM293 147h1202v1242h-1202v-1242zM1108 438l-223 226l-228 -228l-90 92l226 226l-226 225l90 92l228 -225l223 223l92 -90l-225 -225l225 -226z" />
    <glyph glyph-name="edieresis" unicode="&#xeb;" 
d="M133 0v1536h1522v-1536h-1522zM293 147h1202v1242h-1202v-1242zM1108 438l-223 226l-228 -228l-90 92l226 226l-226 225l90 92l228 -225l223 223l92 -90l-225 -225l225 -226z" />
    <glyph glyph-name="igrave" unicode="&#xec;" 
d="M133 0v1536h1522v-1536h-1522zM293 147h1202v1242h-1202v-1242zM1108 438l-223 226l-228 -228l-90 92l226 226l-226 225l90 92l228 -225l223 223l92 -90l-225 -225l225 -226z" />
    <glyph glyph-name="iacute" unicode="&#xed;" 
d="M133 0v1536h1522v-1536h-1522zM293 147h1202v1242h-1202v-1242zM1108 438l-223 226l-228 -228l-90 92l226 226l-226 225l90 92l228 -225l223 223l92 -90l-225 -225l225 -226z" />
    <glyph glyph-name="icircumflex" unicode="&#xee;" 
d="M133 0v1536h1522v-1536h-1522zM293 147h1202v1242h-1202v-1242zM1108 438l-223 226l-228 -228l-90 92l226 226l-226 225l90 92l228 -225l223 223l92 -90l-225 -225l225 -226z" />
    <glyph glyph-name="idieresis" unicode="&#xef;" 
d="M133 0v1536h1522v-1536h-1522zM293 147h1202v1242h-1202v-1242zM1108 438l-223 226l-228 -228l-90 92l226 226l-226 225l90 92l228 -225l223 223l92 -90l-225 -225l225 -226z" />
    <glyph glyph-name="eth" unicode="&#xf0;" 
d="M133 0v1536h1522v-1536h-1522zM293 147h1202v1242h-1202v-1242zM1108 438l-223 226l-228 -228l-90 92l226 226l-226 225l90 92l228 -225l223 223l92 -90l-225 -225l225 -226z" />
    <glyph glyph-name="ntilde" unicode="&#xf1;" 
d="M133 0v1536h1522v-1536h-1522zM293 147h1202v1242h-1202v-1242zM1108 438l-223 226l-228 -228l-90 92l226 226l-226 225l90 92l228 -225l223 223l92 -90l-225 -225l225 -226z" />
    <glyph glyph-name="ograve" unicode="&#xf2;" 
d="M133 0v1536h1522v-1536h-1522zM293 147h1202v1242h-1202v-1242zM1108 438l-223 226l-228 -228l-90 92l226 226l-226 225l90 92l228 -225l223 223l92 -90l-225 -225l225 -226z" />
    <glyph glyph-name="oacute" unicode="&#xf3;" 
d="M133 0v1536h1522v-1536h-1522zM293 147h1202v1242h-1202v-1242zM1108 438l-223 226l-228 -228l-90 92l226 226l-226 225l90 92l228 -225l223 223l92 -90l-225 -225l225 -226z" />
    <glyph glyph-name="ocircumflex" unicode="&#xf4;" 
d="M133 0v1536h1522v-1536h-1522zM293 147h1202v1242h-1202v-1242zM1108 438l-223 226l-228 -228l-90 92l226 226l-226 225l90 92l228 -225l223 223l92 -90l-225 -225l225 -226z" />
    <glyph glyph-name="otilde" unicode="&#xf5;" 
d="M133 0v1536h1522v-1536h-1522zM293 147h1202v1242h-1202v-1242zM1108 438l-223 226l-228 -228l-90 92l226 226l-226 225l90 92l228 -225l223 223l92 -90l-225 -225l225 -226z" />
    <glyph glyph-name="odieresis" unicode="&#xf6;" 
d="M133 0v1536h1522v-1536h-1522zM293 147h1202v1242h-1202v-1242zM1108 438l-223 226l-228 -228l-90 92l226 226l-226 225l90 92l228 -225l223 223l92 -90l-225 -225l225 -226z" />
    <glyph glyph-name="divide" unicode="&#xf7;" 
d="M133 0v1536h1522v-1536h-1522zM293 147h1202v1242h-1202v-1242zM1108 438l-223 226l-228 -228l-90 92l226 226l-226 225l90 92l228 -225l223 223l92 -90l-225 -225l225 -226z" />
    <glyph glyph-name="oslash" unicode="&#xf8;" 
d="M133 0v1536h1522v-1536h-1522zM293 147h1202v1242h-1202v-1242zM1108 438l-223 226l-228 -228l-90 92l226 226l-226 225l90 92l228 -225l223 223l92 -90l-225 -225l225 -226z" />
    <glyph glyph-name="ugrave" unicode="&#xf9;" 
d="M133 0v1536h1522v-1536h-1522zM293 147h1202v1242h-1202v-1242zM1108 438l-223 226l-228 -228l-90 92l226 226l-226 225l90 92l228 -225l223 223l92 -90l-225 -225l225 -226z" />
    <glyph glyph-name="uacute" unicode="&#xfa;" 
d="M133 0v1536h1522v-1536h-1522zM293 147h1202v1242h-1202v-1242zM1108 438l-223 226l-228 -228l-90 92l226 226l-226 225l90 92l228 -225l223 223l92 -90l-225 -225l225 -226z" />
    <glyph glyph-name="ucircumflex" unicode="&#xfb;" 
d="M133 0v1536h1522v-1536h-1522zM293 147h1202v1242h-1202v-1242zM1108 438l-223 226l-228 -228l-90 92l226 226l-226 225l90 92l228 -225l223 223l92 -90l-225 -225l225 -226z" />
    <glyph glyph-name="udieresis" unicode="&#xfc;" 
d="M133 0v1536h1522v-1536h-1522zM293 147h1202v1242h-1202v-1242zM1108 438l-223 226l-228 -228l-90 92l226 226l-226 225l90 92l228 -225l223 223l92 -90l-225 -225l225 -226z" />
    <glyph glyph-name="yacute" unicode="&#xfd;" 
d="M133 0v1536h1522v-1536h-1522zM293 147h1202v1242h-1202v-1242zM1108 438l-223 226l-228 -228l-90 92l226 226l-226 225l90 92l228 -225l223 223l92 -90l-225 -225l225 -226z" />
    <glyph glyph-name="thorn" unicode="&#xfe;" 
d="M133 0v1536h1522v-1536h-1522zM293 147h1202v1242h-1202v-1242zM1108 438l-223 226l-228 -228l-90 92l226 226l-226 225l90 92l228 -225l223 223l92 -90l-225 -225l225 -226z" />
    <glyph glyph-name="ydieresis" unicode="&#xff;" 
d="M133 0v1536h1522v-1536h-1522zM293 147h1202v1242h-1202v-1242zM1108 438l-223 226l-228 -228l-90 92l226 226l-226 225l90 92l228 -225l223 223l92 -90l-225 -225l225 -226z" />
    <glyph glyph-name="Amacron" unicode="&#x100;" 
d="M133 0v1536h1522v-1536h-1522zM293 147h1202v1242h-1202v-1242zM1108 438l-223 226l-228 -228l-90 92l226 226l-226 225l90 92l228 -225l223 223l92 -90l-225 -225l225 -226z" />
    <glyph glyph-name="amacron" unicode="&#x101;" 
d="M133 0v1536h1522v-1536h-1522zM293 147h1202v1242h-1202v-1242zM1108 438l-223 226l-228 -228l-90 92l226 226l-226 225l90 92l228 -225l223 223l92 -90l-225 -225l225 -226z" />
    <glyph glyph-name="Abreve" unicode="&#x102;" 
d="M133 0v1536h1522v-1536h-1522zM293 147h1202v1242h-1202v-1242zM1108 438l-223 226l-228 -228l-90 92l226 226l-226 225l90 92l228 -225l223 223l92 -90l-225 -225l225 -226z" />
    <glyph glyph-name="abreve" unicode="&#x103;" 
d="M133 0v1536h1522v-1536h-1522zM293 147h1202v1242h-1202v-1242zM1108 438l-223 226l-228 -228l-90 92l226 226l-226 225l90 92l228 -225l223 223l92 -90l-225 -225l225 -226z" />
    <glyph glyph-name="Aogonek" unicode="&#x104;" 
d="M133 0v1536h1522v-1536h-1522zM293 147h1202v1242h-1202v-1242zM1108 438l-223 226l-228 -228l-90 92l226 226l-226 225l90 92l228 -225l223 223l92 -90l-225 -225l225 -226z" />
    <glyph glyph-name="aogonek" unicode="&#x105;" 
d="M133 0v1536h1522v-1536h-1522zM293 147h1202v1242h-1202v-1242zM1108 438l-223 226l-228 -228l-90 92l226 226l-226 225l90 92l228 -225l223 223l92 -90l-225 -225l225 -226z" />
    <glyph glyph-name="Cacute" unicode="&#x106;" 
d="M133 0v1536h1522v-1536h-1522zM293 147h1202v1242h-1202v-1242zM1108 438l-223 226l-228 -228l-90 92l226 226l-226 225l90 92l228 -225l223 223l92 -90l-225 -225l225 -226z" />
    <glyph glyph-name="cacute" unicode="&#x107;" 
d="M133 0v1536h1522v-1536h-1522zM293 147h1202v1242h-1202v-1242zM1108 438l-223 226l-228 -228l-90 92l226 226l-226 225l90 92l228 -225l223 223l92 -90l-225 -225l225 -226z" />
    <glyph glyph-name="Ccircumflex" unicode="&#x108;" 
d="M133 0v1536h1522v-1536h-1522zM293 147h1202v1242h-1202v-1242zM1108 438l-223 226l-228 -228l-90 92l226 226l-226 225l90 92l228 -225l223 223l92 -90l-225 -225l225 -226z" />
    <glyph glyph-name="ccircumflex" unicode="&#x109;" 
d="M133 0v1536h1522v-1536h-1522zM293 147h1202v1242h-1202v-1242zM1108 438l-223 226l-228 -228l-90 92l226 226l-226 225l90 92l228 -225l223 223l92 -90l-225 -225l225 -226z" />
    <glyph glyph-name="Cdotaccent" unicode="&#x10a;" 
d="M133 0v1536h1522v-1536h-1522zM293 147h1202v1242h-1202v-1242zM1108 438l-223 226l-228 -228l-90 92l226 226l-226 225l90 92l228 -225l223 223l92 -90l-225 -225l225 -226z" />
    <glyph glyph-name="cdotaccent" unicode="&#x10b;" 
d="M133 0v1536h1522v-1536h-1522zM293 147h1202v1242h-1202v-1242zM1108 438l-223 226l-228 -228l-90 92l226 226l-226 225l90 92l228 -225l223 223l92 -90l-225 -225l225 -226z" />
    <glyph glyph-name="Ccaron" unicode="&#x10c;" 
d="M133 0v1536h1522v-1536h-1522zM293 147h1202v1242h-1202v-1242zM1108 438l-223 226l-228 -228l-90 92l226 226l-226 225l90 92l228 -225l223 223l92 -90l-225 -225l225 -226z" />
    <glyph glyph-name="ccaron" unicode="&#x10d;" 
d="M133 0v1536h1522v-1536h-1522zM293 147h1202v1242h-1202v-1242zM1108 438l-223 226l-228 -228l-90 92l226 226l-226 225l90 92l228 -225l223 223l92 -90l-225 -225l225 -226z" />
    <glyph glyph-name="Dcaron" unicode="&#x10e;" 
d="M133 0v1536h1522v-1536h-1522zM293 147h1202v1242h-1202v-1242zM1108 438l-223 226l-228 -228l-90 92l226 226l-226 225l90 92l228 -225l223 223l92 -90l-225 -225l225 -226z" />
    <glyph glyph-name="dcaron" unicode="&#x10f;" 
d="M133 0v1536h1522v-1536h-1522zM293 147h1202v1242h-1202v-1242zM1108 438l-223 226l-228 -228l-90 92l226 226l-226 225l90 92l228 -225l223 223l92 -90l-225 -225l225 -226z" />
    <glyph glyph-name="Dcroat" unicode="&#x110;" 
d="M133 0v1536h1522v-1536h-1522zM293 147h1202v1242h-1202v-1242zM1108 438l-223 226l-228 -228l-90 92l226 226l-226 225l90 92l228 -225l223 223l92 -90l-225 -225l225 -226z" />
    <glyph glyph-name="dcroat" unicode="&#x111;" 
d="M133 0v1536h1522v-1536h-1522zM293 147h1202v1242h-1202v-1242zM1108 438l-223 226l-228 -228l-90 92l226 226l-226 225l90 92l228 -225l223 223l92 -90l-225 -225l225 -226z" />
    <glyph glyph-name="Emacron" unicode="&#x112;" 
d="M133 0v1536h1522v-1536h-1522zM293 147h1202v1242h-1202v-1242zM1108 438l-223 226l-228 -228l-90 92l226 226l-226 225l90 92l228 -225l223 223l92 -90l-225 -225l225 -226z" />
    <glyph glyph-name="emacron" unicode="&#x113;" 
d="M133 0v1536h1522v-1536h-1522zM293 147h1202v1242h-1202v-1242zM1108 438l-223 226l-228 -228l-90 92l226 226l-226 225l90 92l228 -225l223 223l92 -90l-225 -225l225 -226z" />
    <glyph glyph-name="Ebreve" unicode="&#x114;" 
d="M133 0v1536h1522v-1536h-1522zM293 147h1202v1242h-1202v-1242zM1108 438l-223 226l-228 -228l-90 92l226 226l-226 225l90 92l228 -225l223 223l92 -90l-225 -225l225 -226z" />
    <glyph glyph-name="ebreve" unicode="&#x115;" 
d="M133 0v1536h1522v-1536h-1522zM293 147h1202v1242h-1202v-1242zM1108 438l-223 226l-228 -228l-90 92l226 226l-226 225l90 92l228 -225l223 223l92 -90l-225 -225l225 -226z" />
    <glyph glyph-name="Edotaccent" unicode="&#x116;" 
d="M133 0v1536h1522v-1536h-1522zM293 147h1202v1242h-1202v-1242zM1108 438l-223 226l-228 -228l-90 92l226 226l-226 225l90 92l228 -225l223 223l92 -90l-225 -225l225 -226z" />
    <glyph glyph-name="edotaccent" unicode="&#x117;" 
d="M133 0v1536h1522v-1536h-1522zM293 147h1202v1242h-1202v-1242zM1108 438l-223 226l-228 -228l-90 92l226 226l-226 225l90 92l228 -225l223 223l92 -90l-225 -225l225 -226z" />
    <glyph glyph-name="Eogonek" unicode="&#x118;" 
d="M133 0v1536h1522v-1536h-1522zM293 147h1202v1242h-1202v-1242zM1108 438l-223 226l-228 -228l-90 92l226 226l-226 225l90 92l228 -225l223 223l92 -90l-225 -225l225 -226z" />
    <glyph glyph-name="eogonek" unicode="&#x119;" 
d="M133 0v1536h1522v-1536h-1522zM293 147h1202v1242h-1202v-1242zM1108 438l-223 226l-228 -228l-90 92l226 226l-226 225l90 92l228 -225l223 223l92 -90l-225 -225l225 -226z" />
    <glyph glyph-name="Ecaron" unicode="&#x11a;" 
d="M133 0v1536h1522v-1536h-1522zM293 147h1202v1242h-1202v-1242zM1108 438l-223 226l-228 -228l-90 92l226 226l-226 225l90 92l228 -225l223 223l92 -90l-225 -225l225 -226z" />
    <glyph glyph-name="ecaron" unicode="&#x11b;" 
d="M133 0v1536h1522v-1536h-1522zM293 147h1202v1242h-1202v-1242zM1108 438l-223 226l-228 -228l-90 92l226 226l-226 225l90 92l228 -225l223 223l92 -90l-225 -225l225 -226z" />
    <glyph glyph-name="Gcircumflex" unicode="&#x11c;" 
d="M133 0v1536h1522v-1536h-1522zM293 147h1202v1242h-1202v-1242zM1108 438l-223 226l-228 -228l-90 92l226 226l-226 225l90 92l228 -225l223 223l92 -90l-225 -225l225 -226z" />
    <glyph glyph-name="gcircumflex" unicode="&#x11d;" 
d="M133 0v1536h1522v-1536h-1522zM293 147h1202v1242h-1202v-1242zM1108 438l-223 226l-228 -228l-90 92l226 226l-226 225l90 92l228 -225l223 223l92 -90l-225 -225l225 -226z" />
    <glyph glyph-name="Gbreve" unicode="&#x11e;" 
d="M133 0v1536h1522v-1536h-1522zM293 147h1202v1242h-1202v-1242zM1108 438l-223 226l-228 -228l-90 92l226 226l-226 225l90 92l228 -225l223 223l92 -90l-225 -225l225 -226z" />
    <glyph glyph-name="gbreve" unicode="&#x11f;" 
d="M133 0v1536h1522v-1536h-1522zM293 147h1202v1242h-1202v-1242zM1108 438l-223 226l-228 -228l-90 92l226 226l-226 225l90 92l228 -225l223 223l92 -90l-225 -225l225 -226z" />
    <glyph glyph-name="Gdotaccent" unicode="&#x120;" 
d="M133 0v1536h1522v-1536h-1522zM293 147h1202v1242h-1202v-1242zM1108 438l-223 226l-228 -228l-90 92l226 226l-226 225l90 92l228 -225l223 223l92 -90l-225 -225l225 -226z" />
    <glyph glyph-name="gdotaccent" unicode="&#x121;" 
d="M133 0v1536h1522v-1536h-1522zM293 147h1202v1242h-1202v-1242zM1108 438l-223 226l-228 -228l-90 92l226 226l-226 225l90 92l228 -225l223 223l92 -90l-225 -225l225 -226z" />
    <glyph glyph-name="Gcommaaccent" unicode="&#x122;" 
d="M133 0v1536h1522v-1536h-1522zM293 147h1202v1242h-1202v-1242zM1108 438l-223 226l-228 -228l-90 92l226 226l-226 225l90 92l228 -225l223 223l92 -90l-225 -225l225 -226z" />
    <glyph glyph-name="gcommaaccent" unicode="&#x123;" 
d="M133 0v1536h1522v-1536h-1522zM293 147h1202v1242h-1202v-1242zM1108 438l-223 226l-228 -228l-90 92l226 226l-226 225l90 92l228 -225l223 223l92 -90l-225 -225l225 -226z" />
    <glyph glyph-name="Hcircumflex" unicode="&#x124;" 
d="M133 0v1536h1522v-1536h-1522zM293 147h1202v1242h-1202v-1242zM1108 438l-223 226l-228 -228l-90 92l226 226l-226 225l90 92l228 -225l223 223l92 -90l-225 -225l225 -226z" />
    <glyph glyph-name="hcircumflex" unicode="&#x125;" 
d="M133 0v1536h1522v-1536h-1522zM293 147h1202v1242h-1202v-1242zM1108 438l-223 226l-228 -228l-90 92l226 226l-226 225l90 92l228 -225l223 223l92 -90l-225 -225l225 -226z" />
    <glyph glyph-name="Hbar" unicode="&#x126;" 
d="M133 0v1536h1522v-1536h-1522zM293 147h1202v1242h-1202v-1242zM1108 438l-223 226l-228 -228l-90 92l226 226l-226 225l90 92l228 -225l223 223l92 -90l-225 -225l225 -226z" />
    <glyph glyph-name="hbar" unicode="&#x127;" 
d="M133 0v1536h1522v-1536h-1522zM293 147h1202v1242h-1202v-1242zM1108 438l-223 226l-228 -228l-90 92l226 226l-226 225l90 92l228 -225l223 223l92 -90l-225 -225l225 -226z" />
    <glyph glyph-name="Itilde" unicode="&#x128;" 
d="M133 0v1536h1522v-1536h-1522zM293 147h1202v1242h-1202v-1242zM1108 438l-223 226l-228 -228l-90 92l226 226l-226 225l90 92l228 -225l223 223l92 -90l-225 -225l225 -226z" />
    <glyph glyph-name="itilde" unicode="&#x129;" 
d="M133 0v1536h1522v-1536h-1522zM293 147h1202v1242h-1202v-1242zM1108 438l-223 226l-228 -228l-90 92l226 226l-226 225l90 92l228 -225l223 223l92 -90l-225 -225l225 -226z" />
    <glyph glyph-name="Imacron" unicode="&#x12a;" 
d="M133 0v1536h1522v-1536h-1522zM293 147h1202v1242h-1202v-1242zM1108 438l-223 226l-228 -228l-90 92l226 226l-226 225l90 92l228 -225l223 223l92 -90l-225 -225l225 -226z" />
    <glyph glyph-name="imacron" unicode="&#x12b;" 
d="M133 0v1536h1522v-1536h-1522zM293 147h1202v1242h-1202v-1242zM1108 438l-223 226l-228 -228l-90 92l226 226l-226 225l90 92l228 -225l223 223l92 -90l-225 -225l225 -226z" />
    <glyph glyph-name="Ibreve" unicode="&#x12c;" 
d="M133 0v1536h1522v-1536h-1522zM293 147h1202v1242h-1202v-1242zM1108 438l-223 226l-228 -228l-90 92l226 226l-226 225l90 92l228 -225l223 223l92 -90l-225 -225l225 -226z" />
    <glyph glyph-name="ibreve" unicode="&#x12d;" 
d="M133 0v1536h1522v-1536h-1522zM293 147h1202v1242h-1202v-1242zM1108 438l-223 226l-228 -228l-90 92l226 226l-226 225l90 92l228 -225l223 223l92 -90l-225 -225l225 -226z" />
    <glyph glyph-name="Iogonek" unicode="&#x12e;" 
d="M133 0v1536h1522v-1536h-1522zM293 147h1202v1242h-1202v-1242zM1108 438l-223 226l-228 -228l-90 92l226 226l-226 225l90 92l228 -225l223 223l92 -90l-225 -225l225 -226z" />
    <glyph glyph-name="iogonek" unicode="&#x12f;" 
d="M133 0v1536h1522v-1536h-1522zM293 147h1202v1242h-1202v-1242zM1108 438l-223 226l-228 -228l-90 92l226 226l-226 225l90 92l228 -225l223 223l92 -90l-225 -225l225 -226z" />
    <glyph glyph-name="Idotaccent" unicode="&#x130;" 
d="M133 0v1536h1522v-1536h-1522zM293 147h1202v1242h-1202v-1242zM1108 438l-223 226l-228 -228l-90 92l226 226l-226 225l90 92l228 -225l223 223l92 -90l-225 -225l225 -226z" />
    <glyph glyph-name="dotlessi" unicode="&#x131;" 
d="M133 0v1536h1522v-1536h-1522zM293 147h1202v1242h-1202v-1242zM1108 438l-223 226l-228 -228l-90 92l226 226l-226 225l90 92l228 -225l223 223l92 -90l-225 -225l225 -226z" />
    <glyph glyph-name="IJ" unicode="&#x132;" 
d="M133 0v1536h1522v-1536h-1522zM293 147h1202v1242h-1202v-1242zM1108 438l-223 226l-228 -228l-90 92l226 226l-226 225l90 92l228 -225l223 223l92 -90l-225 -225l225 -226z" />
    <glyph glyph-name="ij" unicode="&#x133;" 
d="M133 0v1536h1522v-1536h-1522zM293 147h1202v1242h-1202v-1242zM1108 438l-223 226l-228 -228l-90 92l226 226l-226 225l90 92l228 -225l223 223l92 -90l-225 -225l225 -226z" />
    <glyph glyph-name="Jcircumflex" unicode="&#x134;" 
d="M133 0v1536h1522v-1536h-1522zM293 147h1202v1242h-1202v-1242zM1108 438l-223 226l-228 -228l-90 92l226 226l-226 225l90 92l228 -225l223 223l92 -90l-225 -225l225 -226z" />
    <glyph glyph-name="jcircumflex" unicode="&#x135;" 
d="M133 0v1536h1522v-1536h-1522zM293 147h1202v1242h-1202v-1242zM1108 438l-223 226l-228 -228l-90 92l226 226l-226 225l90 92l228 -225l223 223l92 -90l-225 -225l225 -226z" />
    <glyph glyph-name="Kcommaaccent" unicode="&#x136;" 
d="M133 0v1536h1522v-1536h-1522zM293 147h1202v1242h-1202v-1242zM1108 438l-223 226l-228 -228l-90 92l226 226l-226 225l90 92l228 -225l223 223l92 -90l-225 -225l225 -226z" />
    <glyph glyph-name="kcommaaccent" unicode="&#x137;" 
d="M133 0v1536h1522v-1536h-1522zM293 147h1202v1242h-1202v-1242zM1108 438l-223 226l-228 -228l-90 92l226 226l-226 225l90 92l228 -225l223 223l92 -90l-225 -225l225 -226z" />
    <glyph glyph-name="Lacute" unicode="&#x139;" 
d="M133 0v1536h1522v-1536h-1522zM293 147h1202v1242h-1202v-1242zM1108 438l-223 226l-228 -228l-90 92l226 226l-226 225l90 92l228 -225l223 223l92 -90l-225 -225l225 -226z" />
    <glyph glyph-name="lacute" unicode="&#x13a;" 
d="M133 0v1536h1522v-1536h-1522zM293 147h1202v1242h-1202v-1242zM1108 438l-223 226l-228 -228l-90 92l226 226l-226 225l90 92l228 -225l223 223l92 -90l-225 -225l225 -226z" />
    <glyph glyph-name="Lcommaaccent" unicode="&#x13b;" 
d="M133 0v1536h1522v-1536h-1522zM293 147h1202v1242h-1202v-1242zM1108 438l-223 226l-228 -228l-90 92l226 226l-226 225l90 92l228 -225l223 223l92 -90l-225 -225l225 -226z" />
    <glyph glyph-name="lcommaaccent" unicode="&#x13c;" 
d="M133 0v1536h1522v-1536h-1522zM293 147h1202v1242h-1202v-1242zM1108 438l-223 226l-228 -228l-90 92l226 226l-226 225l90 92l228 -225l223 223l92 -90l-225 -225l225 -226z" />
    <glyph glyph-name="Lcaron" unicode="&#x13d;" 
d="M133 0v1536h1522v-1536h-1522zM293 147h1202v1242h-1202v-1242zM1108 438l-223 226l-228 -228l-90 92l226 226l-226 225l90 92l228 -225l223 223l92 -90l-225 -225l225 -226z" />
    <glyph glyph-name="lcaron" unicode="&#x13e;" 
d="M133 0v1536h1522v-1536h-1522zM293 147h1202v1242h-1202v-1242zM1108 438l-223 226l-228 -228l-90 92l226 226l-226 225l90 92l228 -225l223 223l92 -90l-225 -225l225 -226z" />
    <glyph glyph-name="Ldot" unicode="&#x13f;" 
d="M133 0v1536h1522v-1536h-1522zM293 147h1202v1242h-1202v-1242zM1108 438l-223 226l-228 -228l-90 92l226 226l-226 225l90 92l228 -225l223 223l92 -90l-225 -225l225 -226z" />
    <glyph glyph-name="ldot" unicode="&#x140;" 
d="M133 0v1536h1522v-1536h-1522zM293 147h1202v1242h-1202v-1242zM1108 438l-223 226l-228 -228l-90 92l226 226l-226 225l90 92l228 -225l223 223l92 -90l-225 -225l225 -226z" />
    <glyph glyph-name="Lslash" unicode="&#x141;" 
d="M133 0v1536h1522v-1536h-1522zM293 147h1202v1242h-1202v-1242zM1108 438l-223 226l-228 -228l-90 92l226 226l-226 225l90 92l228 -225l223 223l92 -90l-225 -225l225 -226z" />
    <glyph glyph-name="lslash" unicode="&#x142;" 
d="M133 0v1536h1522v-1536h-1522zM293 147h1202v1242h-1202v-1242zM1108 438l-223 226l-228 -228l-90 92l226 226l-226 225l90 92l228 -225l223 223l92 -90l-225 -225l225 -226z" />
    <glyph glyph-name="Nacute" unicode="&#x143;" 
d="M133 0v1536h1522v-1536h-1522zM293 147h1202v1242h-1202v-1242zM1108 438l-223 226l-228 -228l-90 92l226 226l-226 225l90 92l228 -225l223 223l92 -90l-225 -225l225 -226z" />
    <glyph glyph-name="nacute" unicode="&#x144;" 
d="M133 0v1536h1522v-1536h-1522zM293 147h1202v1242h-1202v-1242zM1108 438l-223 226l-228 -228l-90 92l226 226l-226 225l90 92l228 -225l223 223l92 -90l-225 -225l225 -226z" />
    <glyph glyph-name="Ncommaaccent" unicode="&#x145;" 
d="M133 0v1536h1522v-1536h-1522zM293 147h1202v1242h-1202v-1242zM1108 438l-223 226l-228 -228l-90 92l226 226l-226 225l90 92l228 -225l223 223l92 -90l-225 -225l225 -226z" />
    <glyph glyph-name="ncommaaccent" unicode="&#x146;" 
d="M133 0v1536h1522v-1536h-1522zM293 147h1202v1242h-1202v-1242zM1108 438l-223 226l-228 -228l-90 92l226 226l-226 225l90 92l228 -225l223 223l92 -90l-225 -225l225 -226z" />
    <glyph glyph-name="Ncaron" unicode="&#x147;" 
d="M133 0v1536h1522v-1536h-1522zM293 147h1202v1242h-1202v-1242zM1108 438l-223 226l-228 -228l-90 92l226 226l-226 225l90 92l228 -225l223 223l92 -90l-225 -225l225 -226z" />
    <glyph glyph-name="ncaron" unicode="&#x148;" 
d="M133 0v1536h1522v-1536h-1522zM293 147h1202v1242h-1202v-1242zM1108 438l-223 226l-228 -228l-90 92l226 226l-226 225l90 92l228 -225l223 223l92 -90l-225 -225l225 -226z" />
    <glyph glyph-name="Eng" unicode="&#x14a;" 
d="M133 0v1536h1522v-1536h-1522zM293 147h1202v1242h-1202v-1242zM1108 438l-223 226l-228 -228l-90 92l226 226l-226 225l90 92l228 -225l223 223l92 -90l-225 -225l225 -226z" />
    <glyph glyph-name="eng" unicode="&#x14b;" 
d="M133 0v1536h1522v-1536h-1522zM293 147h1202v1242h-1202v-1242zM1108 438l-223 226l-228 -228l-90 92l226 226l-226 225l90 92l228 -225l223 223l92 -90l-225 -225l225 -226z" />
    <glyph glyph-name="Omacron" unicode="&#x14c;" 
d="M133 0v1536h1522v-1536h-1522zM293 147h1202v1242h-1202v-1242zM1108 438l-223 226l-228 -228l-90 92l226 226l-226 225l90 92l228 -225l223 223l92 -90l-225 -225l225 -226z" />
    <glyph glyph-name="omacron" unicode="&#x14d;" 
d="M133 0v1536h1522v-1536h-1522zM293 147h1202v1242h-1202v-1242zM1108 438l-223 226l-228 -228l-90 92l226 226l-226 225l90 92l228 -225l223 223l92 -90l-225 -225l225 -226z" />
    <glyph glyph-name="Obreve" unicode="&#x14e;" 
d="M133 0v1536h1522v-1536h-1522zM293 147h1202v1242h-1202v-1242zM1108 438l-223 226l-228 -228l-90 92l226 226l-226 225l90 92l228 -225l223 223l92 -90l-225 -225l225 -226z" />
    <glyph glyph-name="obreve" unicode="&#x14f;" 
d="M133 0v1536h1522v-1536h-1522zM293 147h1202v1242h-1202v-1242zM1108 438l-223 226l-228 -228l-90 92l226 226l-226 225l90 92l228 -225l223 223l92 -90l-225 -225l225 -226z" />
    <glyph glyph-name="Ohungarumlaut" unicode="&#x150;" 
d="M133 0v1536h1522v-1536h-1522zM293 147h1202v1242h-1202v-1242zM1108 438l-223 226l-228 -228l-90 92l226 226l-226 225l90 92l228 -225l223 223l92 -90l-225 -225l225 -226z" />
    <glyph glyph-name="ohungarumlaut" unicode="&#x151;" 
d="M133 0v1536h1522v-1536h-1522zM293 147h1202v1242h-1202v-1242zM1108 438l-223 226l-228 -228l-90 92l226 226l-226 225l90 92l228 -225l223 223l92 -90l-225 -225l225 -226z" />
    <glyph glyph-name="OE" unicode="&#x152;" 
d="M133 0v1536h1522v-1536h-1522zM293 147h1202v1242h-1202v-1242zM1108 438l-223 226l-228 -228l-90 92l226 226l-226 225l90 92l228 -225l223 223l92 -90l-225 -225l225 -226z" />
    <glyph glyph-name="oe" unicode="&#x153;" 
d="M133 0v1536h1522v-1536h-1522zM293 147h1202v1242h-1202v-1242zM1108 438l-223 226l-228 -228l-90 92l226 226l-226 225l90 92l228 -225l223 223l92 -90l-225 -225l225 -226z" />
    <glyph glyph-name="Racute" unicode="&#x154;" 
d="M133 0v1536h1522v-1536h-1522zM293 147h1202v1242h-1202v-1242zM1108 438l-223 226l-228 -228l-90 92l226 226l-226 225l90 92l228 -225l223 223l92 -90l-225 -225l225 -226z" />
    <glyph glyph-name="racute" unicode="&#x155;" 
d="M133 0v1536h1522v-1536h-1522zM293 147h1202v1242h-1202v-1242zM1108 438l-223 226l-228 -228l-90 92l226 226l-226 225l90 92l228 -225l223 223l92 -90l-225 -225l225 -226z" />
    <glyph glyph-name="Rcommaaccent" unicode="&#x156;" 
d="M133 0v1536h1522v-1536h-1522zM293 147h1202v1242h-1202v-1242zM1108 438l-223 226l-228 -228l-90 92l226 226l-226 225l90 92l228 -225l223 223l92 -90l-225 -225l225 -226z" />
    <glyph glyph-name="rcommaaccent" unicode="&#x157;" 
d="M133 0v1536h1522v-1536h-1522zM293 147h1202v1242h-1202v-1242zM1108 438l-223 226l-228 -228l-90 92l226 226l-226 225l90 92l228 -225l223 223l92 -90l-225 -225l225 -226z" />
    <glyph glyph-name="Rcaron" unicode="&#x158;" 
d="M133 0v1536h1522v-1536h-1522zM293 147h1202v1242h-1202v-1242zM1108 438l-223 226l-228 -228l-90 92l226 226l-226 225l90 92l228 -225l223 223l92 -90l-225 -225l225 -226z" />
    <glyph glyph-name="rcaron" unicode="&#x159;" 
d="M133 0v1536h1522v-1536h-1522zM293 147h1202v1242h-1202v-1242zM1108 438l-223 226l-228 -228l-90 92l226 226l-226 225l90 92l228 -225l223 223l92 -90l-225 -225l225 -226z" />
    <glyph glyph-name="Sacute" unicode="&#x15a;" 
d="M133 0v1536h1522v-1536h-1522zM293 147h1202v1242h-1202v-1242zM1108 438l-223 226l-228 -228l-90 92l226 226l-226 225l90 92l228 -225l223 223l92 -90l-225 -225l225 -226z" />
    <glyph glyph-name="sacute" unicode="&#x15b;" 
d="M133 0v1536h1522v-1536h-1522zM293 147h1202v1242h-1202v-1242zM1108 438l-223 226l-228 -228l-90 92l226 226l-226 225l90 92l228 -225l223 223l92 -90l-225 -225l225 -226z" />
    <glyph glyph-name="Scircumflex" unicode="&#x15c;" 
d="M133 0v1536h1522v-1536h-1522zM293 147h1202v1242h-1202v-1242zM1108 438l-223 226l-228 -228l-90 92l226 226l-226 225l90 92l228 -225l223 223l92 -90l-225 -225l225 -226z" />
    <glyph glyph-name="scircumflex" unicode="&#x15d;" 
d="M133 0v1536h1522v-1536h-1522zM293 147h1202v1242h-1202v-1242zM1108 438l-223 226l-228 -228l-90 92l226 226l-226 225l90 92l228 -225l223 223l92 -90l-225 -225l225 -226z" />
    <glyph glyph-name="Scedilla" unicode="&#x15e;" 
d="M133 0v1536h1522v-1536h-1522zM293 147h1202v1242h-1202v-1242zM1108 438l-223 226l-228 -228l-90 92l226 226l-226 225l90 92l228 -225l223 223l92 -90l-225 -225l225 -226z" />
    <glyph glyph-name="scedilla" unicode="&#x15f;" 
d="M133 0v1536h1522v-1536h-1522zM293 147h1202v1242h-1202v-1242zM1108 438l-223 226l-228 -228l-90 92l226 226l-226 225l90 92l228 -225l223 223l92 -90l-225 -225l225 -226z" />
    <glyph glyph-name="Scaron" unicode="&#x160;" 
d="M133 0v1536h1522v-1536h-1522zM293 147h1202v1242h-1202v-1242zM1108 438l-223 226l-228 -228l-90 92l226 226l-226 225l90 92l228 -225l223 223l92 -90l-225 -225l225 -226z" />
    <glyph glyph-name="scaron" unicode="&#x161;" 
d="M133 0v1536h1522v-1536h-1522zM293 147h1202v1242h-1202v-1242zM1108 438l-223 226l-228 -228l-90 92l226 226l-226 225l90 92l228 -225l223 223l92 -90l-225 -225l225 -226z" />
    <glyph glyph-name="uni0162" unicode="&#x162;" 
d="M133 0v1536h1522v-1536h-1522zM293 147h1202v1242h-1202v-1242zM1108 438l-223 226l-228 -228l-90 92l226 226l-226 225l90 92l228 -225l223 223l92 -90l-225 -225l225 -226z" />
    <glyph glyph-name="uni0163" unicode="&#x163;" 
d="M133 0v1536h1522v-1536h-1522zM293 147h1202v1242h-1202v-1242zM1108 438l-223 226l-228 -228l-90 92l226 226l-226 225l90 92l228 -225l223 223l92 -90l-225 -225l225 -226z" />
    <glyph glyph-name="Tcaron" unicode="&#x164;" 
d="M133 0v1536h1522v-1536h-1522zM293 147h1202v1242h-1202v-1242zM1108 438l-223 226l-228 -228l-90 92l226 226l-226 225l90 92l228 -225l223 223l92 -90l-225 -225l225 -226z" />
    <glyph glyph-name="tcaron" unicode="&#x165;" 
d="M133 0v1536h1522v-1536h-1522zM293 147h1202v1242h-1202v-1242zM1108 438l-223 226l-228 -228l-90 92l226 226l-226 225l90 92l228 -225l223 223l92 -90l-225 -225l225 -226z" />
    <glyph glyph-name="Tbar" unicode="&#x166;" 
d="M133 0v1536h1522v-1536h-1522zM293 147h1202v1242h-1202v-1242zM1108 438l-223 226l-228 -228l-90 92l226 226l-226 225l90 92l228 -225l223 223l92 -90l-225 -225l225 -226z" />
    <glyph glyph-name="tbar" unicode="&#x167;" 
d="M133 0v1536h1522v-1536h-1522zM293 147h1202v1242h-1202v-1242zM1108 438l-223 226l-228 -228l-90 92l226 226l-226 225l90 92l228 -225l223 223l92 -90l-225 -225l225 -226z" />
    <glyph glyph-name="Utilde" unicode="&#x168;" 
d="M133 0v1536h1522v-1536h-1522zM293 147h1202v1242h-1202v-1242zM1108 438l-223 226l-228 -228l-90 92l226 226l-226 225l90 92l228 -225l223 223l92 -90l-225 -225l225 -226z" />
    <glyph glyph-name="utilde" unicode="&#x169;" 
d="M133 0v1536h1522v-1536h-1522zM293 147h1202v1242h-1202v-1242zM1108 438l-223 226l-228 -228l-90 92l226 226l-226 225l90 92l228 -225l223 223l92 -90l-225 -225l225 -226z" />
    <glyph glyph-name="Umacron" unicode="&#x16a;" 
d="M133 0v1536h1522v-1536h-1522zM293 147h1202v1242h-1202v-1242zM1108 438l-223 226l-228 -228l-90 92l226 226l-226 225l90 92l228 -225l223 223l92 -90l-225 -225l225 -226z" />
    <glyph glyph-name="umacron" unicode="&#x16b;" 
d="M133 0v1536h1522v-1536h-1522zM293 147h1202v1242h-1202v-1242zM1108 438l-223 226l-228 -228l-90 92l226 226l-226 225l90 92l228 -225l223 223l92 -90l-225 -225l225 -226z" />
    <glyph glyph-name="Ubreve" unicode="&#x16c;" 
d="M133 0v1536h1522v-1536h-1522zM293 147h1202v1242h-1202v-1242zM1108 438l-223 226l-228 -228l-90 92l226 226l-226 225l90 92l228 -225l223 223l92 -90l-225 -225l225 -226z" />
    <glyph glyph-name="ubreve" unicode="&#x16d;" 
d="M133 0v1536h1522v-1536h-1522zM293 147h1202v1242h-1202v-1242zM1108 438l-223 226l-228 -228l-90 92l226 226l-226 225l90 92l228 -225l223 223l92 -90l-225 -225l225 -226z" />
    <glyph glyph-name="Uring" unicode="&#x16e;" 
d="M133 0v1536h1522v-1536h-1522zM293 147h1202v1242h-1202v-1242zM1108 438l-223 226l-228 -228l-90 92l226 226l-226 225l90 92l228 -225l223 223l92 -90l-225 -225l225 -226z" />
    <glyph glyph-name="uring" unicode="&#x16f;" 
d="M133 0v1536h1522v-1536h-1522zM293 147h1202v1242h-1202v-1242zM1108 438l-223 226l-228 -228l-90 92l226 226l-226 225l90 92l228 -225l223 223l92 -90l-225 -225l225 -226z" />
    <glyph glyph-name="Uhungarumlaut" unicode="&#x170;" 
d="M133 0v1536h1522v-1536h-1522zM293 147h1202v1242h-1202v-1242zM1108 438l-223 226l-228 -228l-90 92l226 226l-226 225l90 92l228 -225l223 223l92 -90l-225 -225l225 -226z" />
    <glyph glyph-name="uhungarumlaut" unicode="&#x171;" 
d="M133 0v1536h1522v-1536h-1522zM293 147h1202v1242h-1202v-1242zM1108 438l-223 226l-228 -228l-90 92l226 226l-226 225l90 92l228 -225l223 223l92 -90l-225 -225l225 -226z" />
    <glyph glyph-name="Uogonek" unicode="&#x172;" 
d="M133 0v1536h1522v-1536h-1522zM293 147h1202v1242h-1202v-1242zM1108 438l-223 226l-228 -228l-90 92l226 226l-226 225l90 92l228 -225l223 223l92 -90l-225 -225l225 -226z" />
    <glyph glyph-name="uogonek" unicode="&#x173;" 
d="M133 0v1536h1522v-1536h-1522zM293 147h1202v1242h-1202v-1242zM1108 438l-223 226l-228 -228l-90 92l226 226l-226 225l90 92l228 -225l223 223l92 -90l-225 -225l225 -226z" />
    <glyph glyph-name="Wcircumflex" unicode="&#x174;" 
d="M133 0v1536h1522v-1536h-1522zM293 147h1202v1242h-1202v-1242zM1108 438l-223 226l-228 -228l-90 92l226 226l-226 225l90 92l228 -225l223 223l92 -90l-225 -225l225 -226z" />
    <glyph glyph-name="wcircumflex" unicode="&#x175;" 
d="M133 0v1536h1522v-1536h-1522zM293 147h1202v1242h-1202v-1242zM1108 438l-223 226l-228 -228l-90 92l226 226l-226 225l90 92l228 -225l223 223l92 -90l-225 -225l225 -226z" />
    <glyph glyph-name="Ycircumflex" unicode="&#x176;" 
d="M133 0v1536h1522v-1536h-1522zM293 147h1202v1242h-1202v-1242zM1108 438l-223 226l-228 -228l-90 92l226 226l-226 225l90 92l228 -225l223 223l92 -90l-225 -225l225 -226z" />
    <glyph glyph-name="ycircumflex" unicode="&#x177;" 
d="M133 0v1536h1522v-1536h-1522zM293 147h1202v1242h-1202v-1242zM1108 438l-223 226l-228 -228l-90 92l226 226l-226 225l90 92l228 -225l223 223l92 -90l-225 -225l225 -226z" />
    <glyph glyph-name="Ydieresis" unicode="&#x178;" 
d="M133 0v1536h1522v-1536h-1522zM293 147h1202v1242h-1202v-1242zM1108 438l-223 226l-228 -228l-90 92l226 226l-226 225l90 92l228 -225l223 223l92 -90l-225 -225l225 -226z" />
    <glyph glyph-name="Zacute" unicode="&#x179;" 
d="M133 0v1536h1522v-1536h-1522zM293 147h1202v1242h-1202v-1242zM1108 438l-223 226l-228 -228l-90 92l226 226l-226 225l90 92l228 -225l223 223l92 -90l-225 -225l225 -226z" />
    <glyph glyph-name="zacute" unicode="&#x17a;" 
d="M133 0v1536h1522v-1536h-1522zM293 147h1202v1242h-1202v-1242zM1108 438l-223 226l-228 -228l-90 92l226 226l-226 225l90 92l228 -225l223 223l92 -90l-225 -225l225 -226z" />
    <glyph glyph-name="Zdotaccent" unicode="&#x17b;" 
d="M133 0v1536h1522v-1536h-1522zM293 147h1202v1242h-1202v-1242zM1108 438l-223 226l-228 -228l-90 92l226 226l-226 225l90 92l228 -225l223 223l92 -90l-225 -225l225 -226z" />
    <glyph glyph-name="zdotaccent" unicode="&#x17c;" 
d="M133 0v1536h1522v-1536h-1522zM293 147h1202v1242h-1202v-1242zM1108 438l-223 226l-228 -228l-90 92l226 226l-226 225l90 92l228 -225l223 223l92 -90l-225 -225l225 -226z" />
    <glyph glyph-name="Zcaron" unicode="&#x17d;" 
d="M133 0v1536h1522v-1536h-1522zM293 147h1202v1242h-1202v-1242zM1108 438l-223 226l-228 -228l-90 92l226 226l-226 225l90 92l228 -225l223 223l92 -90l-225 -225l225 -226z" />
    <glyph glyph-name="zcaron" unicode="&#x17e;" 
d="M133 0v1536h1522v-1536h-1522zM293 147h1202v1242h-1202v-1242zM1108 438l-223 226l-228 -228l-90 92l226 226l-226 225l90 92l228 -225l223 223l92 -90l-225 -225l225 -226z" />
    <glyph glyph-name="florin" unicode="&#x192;" 
d="M133 0v1536h1522v-1536h-1522zM293 147h1202v1242h-1202v-1242zM1108 438l-223 226l-228 -228l-90 92l226 226l-226 225l90 92l228 -225l223 223l92 -90l-225 -225l225 -226z" />
    <glyph glyph-name="Aringacute" unicode="&#x1fa;" 
d="M133 0v1536h1522v-1536h-1522zM293 147h1202v1242h-1202v-1242zM1108 438l-223 226l-228 -228l-90 92l226 226l-226 225l90 92l228 -225l223 223l92 -90l-225 -225l225 -226z" />
    <glyph glyph-name="aringacute" unicode="&#x1fb;" 
d="M133 0v1536h1522v-1536h-1522zM293 147h1202v1242h-1202v-1242zM1108 438l-223 226l-228 -228l-90 92l226 226l-226 225l90 92l228 -225l223 223l92 -90l-225 -225l225 -226z" />
    <glyph glyph-name="AEacute" unicode="&#x1fc;" 
d="M133 0v1536h1522v-1536h-1522zM293 147h1202v1242h-1202v-1242zM1108 438l-223 226l-228 -228l-90 92l226 226l-226 225l90 92l228 -225l223 223l92 -90l-225 -225l225 -226z" />
    <glyph glyph-name="aeacute" unicode="&#x1fd;" 
d="M133 0v1536h1522v-1536h-1522zM293 147h1202v1242h-1202v-1242zM1108 438l-223 226l-228 -228l-90 92l226 226l-226 225l90 92l228 -225l223 223l92 -90l-225 -225l225 -226z" />
    <glyph glyph-name="Oslashacute" unicode="&#x1fe;" 
d="M133 0v1536h1522v-1536h-1522zM293 147h1202v1242h-1202v-1242zM1108 438l-223 226l-228 -228l-90 92l226 226l-226 225l90 92l228 -225l223 223l92 -90l-225 -225l225 -226z" />
    <glyph glyph-name="oslashacute" unicode="&#x1ff;" 
d="M133 0v1536h1522v-1536h-1522zM293 147h1202v1242h-1202v-1242zM1108 438l-223 226l-228 -228l-90 92l226 226l-226 225l90 92l228 -225l223 223l92 -90l-225 -225l225 -226z" />
    <glyph glyph-name="Scommaaccent" unicode="&#x218;" 
d="M133 0v1536h1522v-1536h-1522zM293 147h1202v1242h-1202v-1242zM1108 438l-223 226l-228 -228l-90 92l226 226l-226 225l90 92l228 -225l223 223l92 -90l-225 -225l225 -226z" />
    <glyph glyph-name="scommaaccent" unicode="&#x219;" 
d="M133 0v1536h1522v-1536h-1522zM293 147h1202v1242h-1202v-1242zM1108 438l-223 226l-228 -228l-90 92l226 226l-226 225l90 92l228 -225l223 223l92 -90l-225 -225l225 -226z" />
    <glyph glyph-name="uni021A" unicode="&#x21a;" 
d="M133 0v1536h1522v-1536h-1522zM293 147h1202v1242h-1202v-1242zM1108 438l-223 226l-228 -228l-90 92l226 226l-226 225l90 92l228 -225l223 223l92 -90l-225 -225l225 -226z" />
    <glyph glyph-name="uni021B" unicode="&#x21b;" 
d="M133 0v1536h1522v-1536h-1522zM293 147h1202v1242h-1202v-1242zM1108 438l-223 226l-228 -228l-90 92l226 226l-226 225l90 92l228 -225l223 223l92 -90l-225 -225l225 -226z" />
    <glyph glyph-name="circumflex" unicode="&#x2c6;" 
d="M133 0v1536h1522v-1536h-1522zM293 147h1202v1242h-1202v-1242zM1108 438l-223 226l-228 -228l-90 92l226 226l-226 225l90 92l228 -225l223 223l92 -90l-225 -225l225 -226z" />
    <glyph glyph-name="caron" unicode="&#x2c7;" 
d="M133 0v1536h1522v-1536h-1522zM293 147h1202v1242h-1202v-1242zM1108 438l-223 226l-228 -228l-90 92l226 226l-226 225l90 92l228 -225l223 223l92 -90l-225 -225l225 -226z" />
    <glyph glyph-name="breve" unicode="&#x2d8;" 
d="M133 0v1536h1522v-1536h-1522zM293 147h1202v1242h-1202v-1242zM1108 438l-223 226l-228 -228l-90 92l226 226l-226 225l90 92l228 -225l223 223l92 -90l-225 -225l225 -226z" />
    <glyph glyph-name="dotaccent" unicode="&#x2d9;" 
d="M133 0v1536h1522v-1536h-1522zM293 147h1202v1242h-1202v-1242zM1108 438l-223 226l-228 -228l-90 92l226 226l-226 225l90 92l228 -225l223 223l92 -90l-225 -225l225 -226z" />
    <glyph glyph-name="ring" unicode="&#x2da;" 
d="M133 0v1536h1522v-1536h-1522zM293 147h1202v1242h-1202v-1242zM1108 438l-223 226l-228 -228l-90 92l226 226l-226 225l90 92l228 -225l223 223l92 -90l-225 -225l225 -226z" />
    <glyph glyph-name="ogonek" unicode="&#x2db;" 
d="M133 0v1536h1522v-1536h-1522zM293 147h1202v1242h-1202v-1242zM1108 438l-223 226l-228 -228l-90 92l226 226l-226 225l90 92l228 -225l223 223l92 -90l-225 -225l225 -226z" />
    <glyph glyph-name="tilde" unicode="&#x2dc;" 
d="M133 0v1536h1522v-1536h-1522zM293 147h1202v1242h-1202v-1242zM1108 438l-223 226l-228 -228l-90 92l226 226l-226 225l90 92l228 -225l223 223l92 -90l-225 -225l225 -226z" />
    <glyph glyph-name="hungarumlaut" unicode="&#x2dd;" 
d="M133 0v1536h1522v-1536h-1522zM293 147h1202v1242h-1202v-1242zM1108 438l-223 226l-228 -228l-90 92l226 226l-226 225l90 92l228 -225l223 223l92 -90l-225 -225l225 -226z" />
    <glyph glyph-name="gravecomb" unicode="&#x300;" 
d="M133 0v1536h1522v-1536h-1522zM293 147h1202v1242h-1202v-1242zM1108 438l-223 226l-228 -228l-90 92l226 226l-226 225l90 92l228 -225l223 223l92 -90l-225 -225l225 -226z" />
    <glyph glyph-name="acutecomb" unicode="&#x301;" 
d="M133 0v1536h1522v-1536h-1522zM293 147h1202v1242h-1202v-1242zM1108 438l-223 226l-228 -228l-90 92l226 226l-226 225l90 92l228 -225l223 223l92 -90l-225 -225l225 -226z" />
    <glyph glyph-name="circumflexcomb" unicode="&#x302;" 
d="M133 0v1536h1522v-1536h-1522zM293 147h1202v1242h-1202v-1242zM1108 438l-223 226l-228 -228l-90 92l226 226l-226 225l90 92l228 -225l223 223l92 -90l-225 -225l225 -226z" />
    <glyph glyph-name="tildecomb" unicode="&#x303;" 
d="M133 0v1536h1522v-1536h-1522zM293 147h1202v1242h-1202v-1242zM1108 438l-223 226l-228 -228l-90 92l226 226l-226 225l90 92l228 -225l223 223l92 -90l-225 -225l225 -226z" />
    <glyph glyph-name="macroncomb" unicode="&#x304;" 
d="M133 0v1536h1522v-1536h-1522zM293 147h1202v1242h-1202v-1242zM1108 438l-223 226l-228 -228l-90 92l226 226l-226 225l90 92l228 -225l223 223l92 -90l-225 -225l225 -226z" />
    <glyph glyph-name="brevecomb" unicode="&#x306;" 
d="M133 0v1536h1522v-1536h-1522zM293 147h1202v1242h-1202v-1242zM1108 438l-223 226l-228 -228l-90 92l226 226l-226 225l90 92l228 -225l223 223l92 -90l-225 -225l225 -226z" />
    <glyph glyph-name="dotaccentcomb" unicode="&#x307;" 
d="M133 0v1536h1522v-1536h-1522zM293 147h1202v1242h-1202v-1242zM1108 438l-223 226l-228 -228l-90 92l226 226l-226 225l90 92l228 -225l223 223l92 -90l-225 -225l225 -226z" />
    <glyph glyph-name="dieresiscomb" unicode="&#x308;" 
d="M133 0v1536h1522v-1536h-1522zM293 147h1202v1242h-1202v-1242zM1108 438l-223 226l-228 -228l-90 92l226 226l-226 225l90 92l228 -225l223 223l92 -90l-225 -225l225 -226z" />
    <glyph glyph-name="ringcomb" unicode="&#x30a;" 
d="M133 0v1536h1522v-1536h-1522zM293 147h1202v1242h-1202v-1242zM1108 438l-223 226l-228 -228l-90 92l226 226l-226 225l90 92l228 -225l223 223l92 -90l-225 -225l225 -226z" />
    <glyph glyph-name="hungarumlautcomb" unicode="&#x30b;" 
d="M133 0v1536h1522v-1536h-1522zM293 147h1202v1242h-1202v-1242zM1108 438l-223 226l-228 -228l-90 92l226 226l-226 225l90 92l228 -225l223 223l92 -90l-225 -225l225 -226z" />
    <glyph glyph-name="caroncomb" unicode="&#x30c;" 
d="M133 0v1536h1522v-1536h-1522zM293 147h1202v1242h-1202v-1242zM1108 438l-223 226l-228 -228l-90 92l226 226l-226 225l90 92l228 -225l223 223l92 -90l-225 -225l225 -226z" />
    <glyph glyph-name="commaaccentcomb" unicode="&#x326;" 
d="M133 0v1536h1522v-1536h-1522zM293 147h1202v1242h-1202v-1242zM1108 438l-223 226l-228 -228l-90 92l226 226l-226 225l90 92l228 -225l223 223l92 -90l-225 -225l225 -226z" />
    <glyph glyph-name="cedillacomb" unicode="&#x327;" 
d="M133 0v1536h1522v-1536h-1522zM293 147h1202v1242h-1202v-1242zM1108 438l-223 226l-228 -228l-90 92l226 226l-226 225l90 92l228 -225l223 223l92 -90l-225 -225l225 -226z" />
    <glyph glyph-name="ogonekcomb" unicode="&#x328;" 
d="M133 0v1536h1522v-1536h-1522zM293 147h1202v1242h-1202v-1242zM1108 438l-223 226l-228 -228l-90 92l226 226l-226 225l90 92l228 -225l223 223l92 -90l-225 -225l225 -226z" />
    <glyph glyph-name="pi" unicode="&#x3c0;" 
d="M133 0v1536h1522v-1536h-1522zM293 147h1202v1242h-1202v-1242zM1108 438l-223 226l-228 -228l-90 92l226 226l-226 225l90 92l228 -225l223 223l92 -90l-225 -225l225 -226z" />
    <glyph glyph-name="Wgrave" unicode="&#x1e80;" 
d="M133 0v1536h1522v-1536h-1522zM293 147h1202v1242h-1202v-1242zM1108 438l-223 226l-228 -228l-90 92l226 226l-226 225l90 92l228 -225l223 223l92 -90l-225 -225l225 -226z" />
    <glyph glyph-name="wgrave" unicode="&#x1e81;" 
d="M133 0v1536h1522v-1536h-1522zM293 147h1202v1242h-1202v-1242zM1108 438l-223 226l-228 -228l-90 92l226 226l-226 225l90 92l228 -225l223 223l92 -90l-225 -225l225 -226z" />
    <glyph glyph-name="Wacute" unicode="&#x1e82;" 
d="M133 0v1536h1522v-1536h-1522zM293 147h1202v1242h-1202v-1242zM1108 438l-223 226l-228 -228l-90 92l226 226l-226 225l90 92l228 -225l223 223l92 -90l-225 -225l225 -226z" />
    <glyph glyph-name="wacute" unicode="&#x1e83;" 
d="M133 0v1536h1522v-1536h-1522zM293 147h1202v1242h-1202v-1242zM1108 438l-223 226l-228 -228l-90 92l226 226l-226 225l90 92l228 -225l223 223l92 -90l-225 -225l225 -226z" />
    <glyph glyph-name="Wdieresis" unicode="&#x1e84;" 
d="M133 0v1536h1522v-1536h-1522zM293 147h1202v1242h-1202v-1242zM1108 438l-223 226l-228 -228l-90 92l226 226l-226 225l90 92l228 -225l223 223l92 -90l-225 -225l225 -226z" />
    <glyph glyph-name="wdieresis" unicode="&#x1e85;" 
d="M133 0v1536h1522v-1536h-1522zM293 147h1202v1242h-1202v-1242zM1108 438l-223 226l-228 -228l-90 92l226 226l-226 225l90 92l228 -225l223 223l92 -90l-225 -225l225 -226z" />
    <glyph glyph-name="uni1E9E" unicode="&#x1e9e;" 
d="M133 0v1536h1522v-1536h-1522zM293 147h1202v1242h-1202v-1242zM1108 438l-223 226l-228 -228l-90 92l226 226l-226 225l90 92l228 -225l223 223l92 -90l-225 -225l225 -226z" />
    <glyph glyph-name="Ygrave" unicode="&#x1ef2;" 
d="M133 0v1536h1522v-1536h-1522zM293 147h1202v1242h-1202v-1242zM1108 438l-223 226l-228 -228l-90 92l226 226l-226 225l90 92l228 -225l223 223l92 -90l-225 -225l225 -226z" />
    <glyph glyph-name="ygrave" unicode="&#x1ef3;" 
d="M133 0v1536h1522v-1536h-1522zM293 147h1202v1242h-1202v-1242zM1108 438l-223 226l-228 -228l-90 92l226 226l-226 225l90 92l228 -225l223 223l92 -90l-225 -225l225 -226z" />
    <glyph glyph-name="endash" unicode="&#x2013;" 
d="M133 0v1536h1522v-1536h-1522zM293 147h1202v1242h-1202v-1242zM1108 438l-223 226l-228 -228l-90 92l226 226l-226 225l90 92l228 -225l223 223l92 -90l-225 -225l225 -226z" />
    <glyph glyph-name="emdash" unicode="&#x2014;" 
d="M133 0v1536h1522v-1536h-1522zM293 147h1202v1242h-1202v-1242zM1108 438l-223 226l-228 -228l-90 92l226 226l-226 225l90 92l228 -225l223 223l92 -90l-225 -225l225 -226z" />
    <glyph glyph-name="quoteleft" unicode="&#x2018;" 
d="M133 0v1536h1522v-1536h-1522zM293 147h1202v1242h-1202v-1242zM1108 438l-223 226l-228 -228l-90 92l226 226l-226 225l90 92l228 -225l223 223l92 -90l-225 -225l225 -226z" />
    <glyph glyph-name="quoteright" unicode="&#x2019;" 
d="M133 0v1536h1522v-1536h-1522zM293 147h1202v1242h-1202v-1242zM1108 438l-223 226l-228 -228l-90 92l226 226l-226 225l90 92l228 -225l223 223l92 -90l-225 -225l225 -226z" />
    <glyph glyph-name="quotesinglbase" unicode="&#x201a;" 
d="M133 0v1536h1522v-1536h-1522zM293 147h1202v1242h-1202v-1242zM1108 438l-223 226l-228 -228l-90 92l226 226l-226 225l90 92l228 -225l223 223l92 -90l-225 -225l225 -226z" />
    <glyph glyph-name="quotedblleft" unicode="&#x201c;" 
d="M133 0v1536h1522v-1536h-1522zM293 147h1202v1242h-1202v-1242zM1108 438l-223 226l-228 -228l-90 92l226 226l-226 225l90 92l228 -225l223 223l92 -90l-225 -225l225 -226z" />
    <glyph glyph-name="quotedblright" unicode="&#x201d;" 
d="M133 0v1536h1522v-1536h-1522zM293 147h1202v1242h-1202v-1242zM1108 438l-223 226l-228 -228l-90 92l226 226l-226 225l90 92l228 -225l223 223l92 -90l-225 -225l225 -226z" />
    <glyph glyph-name="quotedblbase" unicode="&#x201e;" 
d="M133 0v1536h1522v-1536h-1522zM293 147h1202v1242h-1202v-1242zM1108 438l-223 226l-228 -228l-90 92l226 226l-226 225l90 92l228 -225l223 223l92 -90l-225 -225l225 -226z" />
    <glyph glyph-name="dagger" unicode="&#x2020;" 
d="M133 0v1536h1522v-1536h-1522zM293 147h1202v1242h-1202v-1242zM1108 438l-223 226l-228 -228l-90 92l226 226l-226 225l90 92l228 -225l223 223l92 -90l-225 -225l225 -226z" />
    <glyph glyph-name="daggerdbl" unicode="&#x2021;" 
d="M133 0v1536h1522v-1536h-1522zM293 147h1202v1242h-1202v-1242zM1108 438l-223 226l-228 -228l-90 92l226 226l-226 225l90 92l228 -225l223 223l92 -90l-225 -225l225 -226z" />
    <glyph glyph-name="bullet" unicode="&#x2022;" 
d="M133 0v1536h1522v-1536h-1522zM293 147h1202v1242h-1202v-1242zM1108 438l-223 226l-228 -228l-90 92l226 226l-226 225l90 92l228 -225l223 223l92 -90l-225 -225l225 -226z" />
    <glyph glyph-name="ellipsis" unicode="&#x2026;" 
d="M133 0v1536h1522v-1536h-1522zM293 147h1202v1242h-1202v-1242zM1108 438l-223 226l-228 -228l-90 92l226 226l-226 225l90 92l228 -225l223 223l92 -90l-225 -225l225 -226z" />
    <glyph glyph-name="perthousand" unicode="&#x2030;" 
d="M133 0v1536h1522v-1536h-1522zM293 147h1202v1242h-1202v-1242zM1108 438l-223 226l-228 -228l-90 92l226 226l-226 225l90 92l228 -225l223 223l92 -90l-225 -225l225 -226z" />
    <glyph glyph-name="guilsinglleft" unicode="&#x2039;" 
d="M133 0v1536h1522v-1536h-1522zM293 147h1202v1242h-1202v-1242zM1108 438l-223 226l-228 -228l-90 92l226 226l-226 225l90 92l228 -225l223 223l92 -90l-225 -225l225 -226z" />
    <glyph glyph-name="guilsinglright" unicode="&#x203a;" 
d="M133 0v1536h1522v-1536h-1522zM293 147h1202v1242h-1202v-1242zM1108 438l-223 226l-228 -228l-90 92l226 226l-226 225l90 92l228 -225l223 223l92 -90l-225 -225l225 -226z" />
    <glyph glyph-name="fraction" unicode="&#x2044;" 
d="M133 0v1536h1522v-1536h-1522zM293 147h1202v1242h-1202v-1242zM1108 438l-223 226l-228 -228l-90 92l226 226l-226 225l90 92l228 -225l223 223l92 -90l-225 -225l225 -226z" />
    <glyph glyph-name="Euro" unicode="&#x20ac;" 
d="M133 0v1536h1522v-1536h-1522zM293 147h1202v1242h-1202v-1242zM1108 438l-223 226l-228 -228l-90 92l226 226l-226 225l90 92l228 -225l223 223l92 -90l-225 -225l225 -226z" />
    <glyph glyph-name="uni2116" unicode="&#x2116;" 
d="M133 0v1536h1522v-1536h-1522zM293 147h1202v1242h-1202v-1242zM1108 438l-223 226l-228 -228l-90 92l226 226l-226 225l90 92l228 -225l223 223l92 -90l-225 -225l225 -226z" />
    <glyph glyph-name="uni2117" unicode="&#x2117;" 
d="M133 0v1536h1522v-1536h-1522zM293 147h1202v1242h-1202v-1242zM1108 438l-223 226l-228 -228l-90 92l226 226l-226 225l90 92l228 -225l223 223l92 -90l-225 -225l225 -226z" />
    <glyph glyph-name="uni2120" unicode="&#x2120;" 
d="M133 0v1536h1522v-1536h-1522zM293 147h1202v1242h-1202v-1242zM1108 438l-223 226l-228 -228l-90 92l226 226l-226 225l90 92l228 -225l223 223l92 -90l-225 -225l225 -226z" />
    <glyph glyph-name="trademark" unicode="&#x2122;" 
d="M133 0v1536h1522v-1536h-1522zM293 147h1202v1242h-1202v-1242zM1108 438l-223 226l-228 -228l-90 92l226 226l-226 225l90 92l228 -225l223 223l92 -90l-225 -225l225 -226z" />
    <glyph glyph-name="uni2150" unicode="&#x2150;" 
d="M133 0v1536h1522v-1536h-1522zM293 147h1202v1242h-1202v-1242zM1108 438l-223 226l-228 -228l-90 92l226 226l-226 225l90 92l228 -225l223 223l92 -90l-225 -225l225 -226z" />
    <glyph glyph-name="uni2151" unicode="&#x2151;" 
d="M133 0v1536h1522v-1536h-1522zM293 147h1202v1242h-1202v-1242zM1108 438l-223 226l-228 -228l-90 92l226 226l-226 225l90 92l228 -225l223 223l92 -90l-225 -225l225 -226z" />
    <glyph glyph-name="uni2153" unicode="&#x2153;" 
d="M133 0v1536h1522v-1536h-1522zM293 147h1202v1242h-1202v-1242zM1108 438l-223 226l-228 -228l-90 92l226 226l-226 225l90 92l228 -225l223 223l92 -90l-225 -225l225 -226z" />
    <glyph glyph-name="uni2154" unicode="&#x2154;" 
d="M133 0v1536h1522v-1536h-1522zM293 147h1202v1242h-1202v-1242zM1108 438l-223 226l-228 -228l-90 92l226 226l-226 225l90 92l228 -225l223 223l92 -90l-225 -225l225 -226z" />
    <glyph glyph-name="uni2155" unicode="&#x2155;" 
d="M133 0v1536h1522v-1536h-1522zM293 147h1202v1242h-1202v-1242zM1108 438l-223 226l-228 -228l-90 92l226 226l-226 225l90 92l228 -225l223 223l92 -90l-225 -225l225 -226z" />
    <glyph glyph-name="uni2156" unicode="&#x2156;" 
d="M133 0v1536h1522v-1536h-1522zM293 147h1202v1242h-1202v-1242zM1108 438l-223 226l-228 -228l-90 92l226 226l-226 225l90 92l228 -225l223 223l92 -90l-225 -225l225 -226z" />
    <glyph glyph-name="uni2157" unicode="&#x2157;" 
d="M133 0v1536h1522v-1536h-1522zM293 147h1202v1242h-1202v-1242zM1108 438l-223 226l-228 -228l-90 92l226 226l-226 225l90 92l228 -225l223 223l92 -90l-225 -225l225 -226z" />
    <glyph glyph-name="uni2158" unicode="&#x2158;" 
d="M133 0v1536h1522v-1536h-1522zM293 147h1202v1242h-1202v-1242zM1108 438l-223 226l-228 -228l-90 92l226 226l-226 225l90 92l228 -225l223 223l92 -90l-225 -225l225 -226z" />
    <glyph glyph-name="uni2159" unicode="&#x2159;" 
d="M133 0v1536h1522v-1536h-1522zM293 147h1202v1242h-1202v-1242zM1108 438l-223 226l-228 -228l-90 92l226 226l-226 225l90 92l228 -225l223 223l92 -90l-225 -225l225 -226z" />
    <glyph glyph-name="oneeighth" unicode="&#x215b;" 
d="M133 0v1536h1522v-1536h-1522zM293 147h1202v1242h-1202v-1242zM1108 438l-223 226l-228 -228l-90 92l226 226l-226 225l90 92l228 -225l223 223l92 -90l-225 -225l225 -226z" />
    <glyph glyph-name="arrowleft" unicode="&#x2190;" 
d="M133 0v1536h1522v-1536h-1522zM293 147h1202v1242h-1202v-1242zM1108 438l-223 226l-228 -228l-90 92l226 226l-226 225l90 92l228 -225l223 223l92 -90l-225 -225l225 -226z" />
    <glyph glyph-name="arrowup" unicode="&#x2191;" 
d="M133 0v1536h1522v-1536h-1522zM293 147h1202v1242h-1202v-1242zM1108 438l-223 226l-228 -228l-90 92l226 226l-226 225l90 92l228 -225l223 223l92 -90l-225 -225l225 -226z" />
    <glyph glyph-name="arrowright" unicode="&#x2192;" 
d="M133 0v1536h1522v-1536h-1522zM293 147h1202v1242h-1202v-1242zM1108 438l-223 226l-228 -228l-90 92l226 226l-226 225l90 92l228 -225l223 223l92 -90l-225 -225l225 -226z" />
    <glyph glyph-name="arrowdown" unicode="&#x2193;" 
d="M133 0v1536h1522v-1536h-1522zM293 147h1202v1242h-1202v-1242zM1108 438l-223 226l-228 -228l-90 92l226 226l-226 225l90 92l228 -225l223 223l92 -90l-225 -225l225 -226z" />
    <glyph glyph-name="arrowboth" unicode="&#x2194;" 
d="M133 0v1536h1522v-1536h-1522zM293 147h1202v1242h-1202v-1242zM1108 438l-223 226l-228 -228l-90 92l226 226l-226 225l90 92l228 -225l223 223l92 -90l-225 -225l225 -226z" />
    <glyph glyph-name="arrowupdn" unicode="&#x2195;" 
d="M133 0v1536h1522v-1536h-1522zM293 147h1202v1242h-1202v-1242zM1108 438l-223 226l-228 -228l-90 92l226 226l-226 225l90 92l228 -225l223 223l92 -90l-225 -225l225 -226z" />
    <glyph glyph-name="uni2196" unicode="&#x2196;" 
d="M133 0v1536h1522v-1536h-1522zM293 147h1202v1242h-1202v-1242zM1108 438l-223 226l-228 -228l-90 92l226 226l-226 225l90 92l228 -225l223 223l92 -90l-225 -225l225 -226z" />
    <glyph glyph-name="uni2197" unicode="&#x2197;" 
d="M133 0v1536h1522v-1536h-1522zM293 147h1202v1242h-1202v-1242zM1108 438l-223 226l-228 -228l-90 92l226 226l-226 225l90 92l228 -225l223 223l92 -90l-225 -225l225 -226z" />
    <glyph glyph-name="uni2198" unicode="&#x2198;" 
d="M133 0v1536h1522v-1536h-1522zM293 147h1202v1242h-1202v-1242zM1108 438l-223 226l-228 -228l-90 92l226 226l-226 225l90 92l228 -225l223 223l92 -90l-225 -225l225 -226z" />
    <glyph glyph-name="uni2199" unicode="&#x2199;" 
d="M133 0v1536h1522v-1536h-1522zM293 147h1202v1242h-1202v-1242zM1108 438l-223 226l-228 -228l-90 92l226 226l-226 225l90 92l228 -225l223 223l92 -90l-225 -225l225 -226z" />
    <glyph glyph-name="minus" unicode="&#x2212;" 
d="M133 0v1536h1522v-1536h-1522zM293 147h1202v1242h-1202v-1242zM1108 438l-223 226l-228 -228l-90 92l226 226l-226 225l90 92l228 -225l223 223l92 -90l-225 -225l225 -226z" />
    <glyph glyph-name="infinity" unicode="&#x221e;" 
d="M133 0v1536h1522v-1536h-1522zM293 147h1202v1242h-1202v-1242zM1108 438l-223 226l-228 -228l-90 92l226 226l-226 225l90 92l228 -225l223 223l92 -90l-225 -225l225 -226z" />
    <glyph glyph-name="approxequal" unicode="&#x2248;" 
d="M133 0v1536h1522v-1536h-1522zM293 147h1202v1242h-1202v-1242zM1108 438l-223 226l-228 -228l-90 92l226 226l-226 225l90 92l228 -225l223 223l92 -90l-225 -225l225 -226z" />
    <glyph glyph-name="notequal" unicode="&#x2260;" 
d="M133 0v1536h1522v-1536h-1522zM293 147h1202v1242h-1202v-1242zM1108 438l-223 226l-228 -228l-90 92l226 226l-226 225l90 92l228 -225l223 223l92 -90l-225 -225l225 -226z" />
    <glyph glyph-name="lessequal" unicode="&#x2264;" 
d="M133 0v1536h1522v-1536h-1522zM293 147h1202v1242h-1202v-1242zM1108 438l-223 226l-228 -228l-90 92l226 226l-226 225l90 92l228 -225l223 223l92 -90l-225 -225l225 -226z" />
    <glyph glyph-name="greaterequal" unicode="&#x2265;" 
d="M133 0v1536h1522v-1536h-1522zM293 147h1202v1242h-1202v-1242zM1108 438l-223 226l-228 -228l-90 92l226 226l-226 225l90 92l228 -225l223 223l92 -90l-225 -225l225 -226z" />
    <glyph glyph-name="house" unicode="&#x2302;" 
d="M133 0v1536h1522v-1536h-1522zM293 147h1202v1242h-1202v-1242zM1108 438l-223 226l-228 -228l-90 92l226 226l-226 225l90 92l228 -225l223 223l92 -90l-225 -225l225 -226z" />
    <glyph glyph-name="blacksquare" unicode="&#x25a0;" 
d="M133 0v1536h1522v-1536h-1522zM293 147h1202v1242h-1202v-1242zM1108 438l-223 226l-228 -228l-90 92l226 226l-226 225l90 92l228 -225l223 223l92 -90l-225 -225l225 -226z" />
    <glyph glyph-name="whitesquare" unicode="&#x25a1;" 
d="M133 0v1536h1522v-1536h-1522zM293 147h1202v1242h-1202v-1242zM1108 438l-223 226l-228 -228l-90 92l226 226l-226 225l90 92l228 -225l223 223l92 -90l-225 -225l225 -226z" />
    <glyph glyph-name="blacksmallsquare" unicode="&#x25aa;" 
d="M133 0v1536h1522v-1536h-1522zM293 147h1202v1242h-1202v-1242zM1108 438l-223 226l-228 -228l-90 92l226 226l-226 225l90 92l228 -225l223 223l92 -90l-225 -225l225 -226z" />
    <glyph glyph-name="whitesmallsquare" unicode="&#x25ab;" 
d="M133 0v1536h1522v-1536h-1522zM293 147h1202v1242h-1202v-1242zM1108 438l-223 226l-228 -228l-90 92l226 226l-226 225l90 92l228 -225l223 223l92 -90l-225 -225l225 -226z" />
    <glyph glyph-name="triagup" unicode="&#x25b2;" 
d="M133 0v1536h1522v-1536h-1522zM293 147h1202v1242h-1202v-1242zM1108 438l-223 226l-228 -228l-90 92l226 226l-226 225l90 92l228 -225l223 223l92 -90l-225 -225l225 -226z" />
    <glyph glyph-name="triagrt" unicode="&#x25ba;" 
d="M133 0v1536h1522v-1536h-1522zM293 147h1202v1242h-1202v-1242zM1108 438l-223 226l-228 -228l-90 92l226 226l-226 225l90 92l228 -225l223 223l92 -90l-225 -225l225 -226z" />
    <glyph glyph-name="triagdn" unicode="&#x25bc;" 
d="M133 0v1536h1522v-1536h-1522zM293 147h1202v1242h-1202v-1242zM1108 438l-223 226l-228 -228l-90 92l226 226l-226 225l90 92l228 -225l223 223l92 -90l-225 -225l225 -226z" />
    <glyph glyph-name="triaglf" unicode="&#x25c4;" 
d="M133 0v1536h1522v-1536h-1522zM293 147h1202v1242h-1202v-1242zM1108 438l-223 226l-228 -228l-90 92l226 226l-226 225l90 92l228 -225l223 223l92 -90l-225 -225l225 -226z" />
    <glyph glyph-name="whitecircle" unicode="&#x25cb;" 
d="M133 0v1536h1522v-1536h-1522zM293 147h1202v1242h-1202v-1242zM1108 438l-223 226l-228 -228l-90 92l226 226l-226 225l90 92l228 -225l223 223l92 -90l-225 -225l225 -226z" />
    <glyph glyph-name="blackcircle" unicode="&#x25cf;" 
d="M133 0v1536h1522v-1536h-1522zM293 147h1202v1242h-1202v-1242zM1108 438l-223 226l-228 -228l-90 92l226 226l-226 225l90 92l228 -225l223 223l92 -90l-225 -225l225 -226z" />
    <glyph glyph-name="mediumwhitecircle" unicode="&#x26ac;" 
d="M133 0v1536h1522v-1536h-1522zM293 147h1202v1242h-1202v-1242zM1108 438l-223 226l-228 -228l-90 92l226 226l-226 225l90 92l228 -225l223 223l92 -90l-225 -225l225 -226z" />
    <glyph glyph-name="dotlessj" unicode="&#xf6be;" 
d="M133 0v1536h1522v-1536h-1522zM293 147h1202v1242h-1202v-1242zM1108 438l-223 226l-228 -228l-90 92l226 226l-226 225l90 92l228 -225l223 223l92 -90l-225 -225l225 -226z" />
    <glyph glyph-name="fi" unicode="&#xfb01;" 
d="M133 0v1536h1522v-1536h-1522zM293 147h1202v1242h-1202v-1242zM1108 438l-223 226l-228 -228l-90 92l226 226l-226 225l90 92l228 -225l223 223l92 -90l-225 -225l225 -226z" />
    <glyph glyph-name="fl" unicode="&#xfb02;" 
d="M133 0v1536h1522v-1536h-1522zM293 147h1202v1242h-1202v-1242zM1108 438l-223 226l-228 -228l-90 92l226 226l-226 225l90 92l228 -225l223 223l92 -90l-225 -225l225 -226z" />
    <glyph glyph-name="zero.numr" 
d="M133 0v1536h1522v-1536h-1522zM293 147h1202v1242h-1202v-1242zM1108 438l-223 226l-228 -228l-90 92l226 226l-226 225l90 92l228 -225l223 223l92 -90l-225 -225l225 -226z" />
    <glyph glyph-name="one.numr" 
d="M133 0v1536h1522v-1536h-1522zM293 147h1202v1242h-1202v-1242zM1108 438l-223 226l-228 -228l-90 92l226 226l-226 225l90 92l228 -225l223 223l92 -90l-225 -225l225 -226z" />
    <glyph glyph-name="two.numr" 
d="M133 0v1536h1522v-1536h-1522zM293 147h1202v1242h-1202v-1242zM1108 438l-223 226l-228 -228l-90 92l226 226l-226 225l90 92l228 -225l223 223l92 -90l-225 -225l225 -226z" />
    <glyph glyph-name="three.numr" 
d="M133 0v1536h1522v-1536h-1522zM293 147h1202v1242h-1202v-1242zM1108 438l-223 226l-228 -228l-90 92l226 226l-226 225l90 92l228 -225l223 223l92 -90l-225 -225l225 -226z" />
    <glyph glyph-name="four.numr" 
d="M133 0v1536h1522v-1536h-1522zM293 147h1202v1242h-1202v-1242zM1108 438l-223 226l-228 -228l-90 92l226 226l-226 225l90 92l228 -225l223 223l92 -90l-225 -225l225 -226z" />
    <glyph glyph-name="five.numr" 
d="M133 0v1536h1522v-1536h-1522zM293 147h1202v1242h-1202v-1242zM1108 438l-223 226l-228 -228l-90 92l226 226l-226 225l90 92l228 -225l223 223l92 -90l-225 -225l225 -226z" />
    <glyph glyph-name="six.numr" 
d="M133 0v1536h1522v-1536h-1522zM293 147h1202v1242h-1202v-1242zM1108 438l-223 226l-228 -228l-90 92l226 226l-226 225l90 92l228 -225l223 223l92 -90l-225 -225l225 -226z" />
    <glyph glyph-name="seven.numr" 
d="M133 0v1536h1522v-1536h-1522zM293 147h1202v1242h-1202v-1242zM1108 438l-223 226l-228 -228l-90 92l226 226l-226 225l90 92l228 -225l223 223l92 -90l-225 -225l225 -226z" />
    <glyph glyph-name="eight.numr" 
d="M133 0v1536h1522v-1536h-1522zM293 147h1202v1242h-1202v-1242zM1108 438l-223 226l-228 -228l-90 92l226 226l-226 225l90 92l228 -225l223 223l92 -90l-225 -225l225 -226z" />
    <glyph glyph-name="nine.numr" 
d="M133 0v1536h1522v-1536h-1522zM293 147h1202v1242h-1202v-1242zM1108 438l-223 226l-228 -228l-90 92l226 226l-226 225l90 92l228 -225l223 223l92 -90l-225 -225l225 -226z" />
    <glyph glyph-name="zero.dnom" 
d="M133 0v1536h1522v-1536h-1522zM293 147h1202v1242h-1202v-1242zM1108 438l-223 226l-228 -228l-90 92l226 226l-226 225l90 92l228 -225l223 223l92 -90l-225 -225l225 -226z" />
    <glyph glyph-name="one.dnom" 
d="M133 0v1536h1522v-1536h-1522zM293 147h1202v1242h-1202v-1242zM1108 438l-223 226l-228 -228l-90 92l226 226l-226 225l90 92l228 -225l223 223l92 -90l-225 -225l225 -226z" />
    <glyph glyph-name="two.dnom" 
d="M133 0v1536h1522v-1536h-1522zM293 147h1202v1242h-1202v-1242zM1108 438l-223 226l-228 -228l-90 92l226 226l-226 225l90 92l228 -225l223 223l92 -90l-225 -225l225 -226z" />
    <glyph glyph-name="three.dnom" 
d="M133 0v1536h1522v-1536h-1522zM293 147h1202v1242h-1202v-1242zM1108 438l-223 226l-228 -228l-90 92l226 226l-226 225l90 92l228 -225l223 223l92 -90l-225 -225l225 -226z" />
    <glyph glyph-name="four.dnom" 
d="M133 0v1536h1522v-1536h-1522zM293 147h1202v1242h-1202v-1242zM1108 438l-223 226l-228 -228l-90 92l226 226l-226 225l90 92l228 -225l223 223l92 -90l-225 -225l225 -226z" />
    <glyph glyph-name="five.dnom" 
d="M133 0v1536h1522v-1536h-1522zM293 147h1202v1242h-1202v-1242zM1108 438l-223 226l-228 -228l-90 92l226 226l-226 225l90 92l228 -225l223 223l92 -90l-225 -225l225 -226z" />
    <glyph glyph-name="six.dnom" 
d="M133 0v1536h1522v-1536h-1522zM293 147h1202v1242h-1202v-1242zM1108 438l-223 226l-228 -228l-90 92l226 226l-226 225l90 92l228 -225l223 223l92 -90l-225 -225l225 -226z" />
    <glyph glyph-name="seven.dnom" 
d="M133 0v1536h1522v-1536h-1522zM293 147h1202v1242h-1202v-1242zM1108 438l-223 226l-228 -228l-90 92l226 226l-226 225l90 92l228 -225l223 223l92 -90l-225 -225l225 -226z" />
    <glyph glyph-name="eight.dnom" 
d="M133 0v1536h1522v-1536h-1522zM293 147h1202v1242h-1202v-1242zM1108 438l-223 226l-228 -228l-90 92l226 226l-226 225l90 92l228 -225l223 223l92 -90l-225 -225l225 -226z" />
    <glyph glyph-name="nine.dnom" 
d="M133 0v1536h1522v-1536h-1522zM293 147h1202v1242h-1202v-1242zM1108 438l-223 226l-228 -228l-90 92l226 226l-226 225l90 92l228 -225l223 223l92 -90l-225 -225l225 -226z" />
    <glyph glyph-name="zero.sups" 
d="M133 0v1536h1522v-1536h-1522zM293 147h1202v1242h-1202v-1242zM1108 438l-223 226l-228 -228l-90 92l226 226l-226 225l90 92l228 -225l223 223l92 -90l-225 -225l225 -226z" />
    <glyph glyph-name="one.sups" 
d="M133 0v1536h1522v-1536h-1522zM293 147h1202v1242h-1202v-1242zM1108 438l-223 226l-228 -228l-90 92l226 226l-226 225l90 92l228 -225l223 223l92 -90l-225 -225l225 -226z" />
    <glyph glyph-name="two.sups" 
d="M133 0v1536h1522v-1536h-1522zM293 147h1202v1242h-1202v-1242zM1108 438l-223 226l-228 -228l-90 92l226 226l-226 225l90 92l228 -225l223 223l92 -90l-225 -225l225 -226z" />
    <glyph glyph-name="three.sups" 
d="M133 0v1536h1522v-1536h-1522zM293 147h1202v1242h-1202v-1242zM1108 438l-223 226l-228 -228l-90 92l226 226l-226 225l90 92l228 -225l223 223l92 -90l-225 -225l225 -226z" />
    <glyph glyph-name="four.sups" 
d="M133 0v1536h1522v-1536h-1522zM293 147h1202v1242h-1202v-1242zM1108 438l-223 226l-228 -228l-90 92l226 226l-226 225l90 92l228 -225l223 223l92 -90l-225 -225l225 -226z" />
    <glyph glyph-name="five.sups" 
d="M133 0v1536h1522v-1536h-1522zM293 147h1202v1242h-1202v-1242zM1108 438l-223 226l-228 -228l-90 92l226 226l-226 225l90 92l228 -225l223 223l92 -90l-225 -225l225 -226z" />
    <glyph glyph-name="six.sups" 
d="M133 0v1536h1522v-1536h-1522zM293 147h1202v1242h-1202v-1242zM1108 438l-223 226l-228 -228l-90 92l226 226l-226 225l90 92l228 -225l223 223l92 -90l-225 -225l225 -226z" />
    <glyph glyph-name="seven.sups" 
d="M133 0v1536h1522v-1536h-1522zM293 147h1202v1242h-1202v-1242zM1108 438l-223 226l-228 -228l-90 92l226 226l-226 225l90 92l228 -225l223 223l92 -90l-225 -225l225 -226z" />
    <glyph glyph-name="eight.sups" 
d="M133 0v1536h1522v-1536h-1522zM293 147h1202v1242h-1202v-1242zM1108 438l-223 226l-228 -228l-90 92l226 226l-226 225l90 92l228 -225l223 223l92 -90l-225 -225l225 -226z" />
    <glyph glyph-name="nine.sups" 
d="M133 0v1536h1522v-1536h-1522zM293 147h1202v1242h-1202v-1242zM1108 438l-223 226l-228 -228l-90 92l226 226l-226 225l90 92l228 -225l223 223l92 -90l-225 -225l225 -226z" />
    <glyph glyph-name="period.sups" 
d="M133 0v1536h1522v-1536h-1522zM293 147h1202v1242h-1202v-1242zM1108 438l-223 226l-228 -228l-90 92l226 226l-226 225l90 92l228 -225l223 223l92 -90l-225 -225l225 -226z" />
    <glyph glyph-name="comma.sups" 
d="M133 0v1536h1522v-1536h-1522zM293 147h1202v1242h-1202v-1242zM1108 438l-223 226l-228 -228l-90 92l226 226l-226 225l90 92l228 -225l223 223l92 -90l-225 -225l225 -226z" />
    <glyph glyph-name="hyphen.sups" 
d="M133 0v1536h1522v-1536h-1522zM293 147h1202v1242h-1202v-1242zM1108 438l-223 226l-228 -228l-90 92l226 226l-226 225l90 92l228 -225l223 223l92 -90l-225 -225l225 -226z" />
    <glyph glyph-name="parenleft.sups" 
d="M133 0v1536h1522v-1536h-1522zM293 147h1202v1242h-1202v-1242zM1108 438l-223 226l-228 -228l-90 92l226 226l-226 225l90 92l228 -225l223 223l92 -90l-225 -225l225 -226z" />
    <glyph glyph-name="parenright.sups" 
d="M133 0v1536h1522v-1536h-1522zM293 147h1202v1242h-1202v-1242zM1108 438l-223 226l-228 -228l-90 92l226 226l-226 225l90 92l228 -225l223 223l92 -90l-225 -225l225 -226z" />
    <glyph glyph-name="plus.sups" 
d="M133 0v1536h1522v-1536h-1522zM293 147h1202v1242h-1202v-1242zM1108 438l-223 226l-228 -228l-90 92l226 226l-226 225l90 92l228 -225l223 223l92 -90l-225 -225l225 -226z" />
    <glyph glyph-name="minus.sups" 
d="M133 0v1536h1522v-1536h-1522zM293 147h1202v1242h-1202v-1242zM1108 438l-223 226l-228 -228l-90 92l226 226l-226 225l90 92l228 -225l223 223l92 -90l-225 -225l225 -226z" />
    <glyph glyph-name="multiply.sups" 
d="M133 0v1536h1522v-1536h-1522zM293 147h1202v1242h-1202v-1242zM1108 438l-223 226l-228 -228l-90 92l226 226l-226 225l90 92l228 -225l223 223l92 -90l-225 -225l225 -226z" />
    <glyph glyph-name="equal.sups" 
d="M133 0v1536h1522v-1536h-1522zM293 147h1202v1242h-1202v-1242zM1108 438l-223 226l-228 -228l-90 92l226 226l-226 225l90 92l228 -225l223 223l92 -90l-225 -225l225 -226z" />
    <glyph glyph-name="divide.sups" 
d="M133 0v1536h1522v-1536h-1522zM293 147h1202v1242h-1202v-1242zM1108 438l-223 226l-228 -228l-90 92l226 226l-226 225l90 92l228 -225l223 223l92 -90l-225 -225l225 -226z" />
    <glyph glyph-name="a.sups" 
d="M133 0v1536h1522v-1536h-1522zM293 147h1202v1242h-1202v-1242zM1108 438l-223 226l-228 -228l-90 92l226 226l-226 225l90 92l228 -225l223 223l92 -90l-225 -225l225 -226z" />
    <glyph glyph-name="b.sups" 
d="M133 0v1536h1522v-1536h-1522zM293 147h1202v1242h-1202v-1242zM1108 438l-223 226l-228 -228l-90 92l226 226l-226 225l90 92l228 -225l223 223l92 -90l-225 -225l225 -226z" />
    <glyph glyph-name="c.sups" 
d="M133 0v1536h1522v-1536h-1522zM293 147h1202v1242h-1202v-1242zM1108 438l-223 226l-228 -228l-90 92l226 226l-226 225l90 92l228 -225l223 223l92 -90l-225 -225l225 -226z" />
    <glyph glyph-name="d.sups" 
d="M133 0v1536h1522v-1536h-1522zM293 147h1202v1242h-1202v-1242zM1108 438l-223 226l-228 -228l-90 92l226 226l-226 225l90 92l228 -225l223 223l92 -90l-225 -225l225 -226z" />
    <glyph glyph-name="e.sups" 
d="M133 0v1536h1522v-1536h-1522zM293 147h1202v1242h-1202v-1242zM1108 438l-223 226l-228 -228l-90 92l226 226l-226 225l90 92l228 -225l223 223l92 -90l-225 -225l225 -226z" />
    <glyph glyph-name="f.sups" 
d="M133 0v1536h1522v-1536h-1522zM293 147h1202v1242h-1202v-1242zM1108 438l-223 226l-228 -228l-90 92l226 226l-226 225l90 92l228 -225l223 223l92 -90l-225 -225l225 -226z" />
    <glyph glyph-name="g.sups" 
d="M133 0v1536h1522v-1536h-1522zM293 147h1202v1242h-1202v-1242zM1108 438l-223 226l-228 -228l-90 92l226 226l-226 225l90 92l228 -225l223 223l92 -90l-225 -225l225 -226z" />
    <glyph glyph-name="h.sups" 
d="M133 0v1536h1522v-1536h-1522zM293 147h1202v1242h-1202v-1242zM1108 438l-223 226l-228 -228l-90 92l226 226l-226 225l90 92l228 -225l223 223l92 -90l-225 -225l225 -226z" />
    <glyph glyph-name="i.sups" 
d="M133 0v1536h1522v-1536h-1522zM293 147h1202v1242h-1202v-1242zM1108 438l-223 226l-228 -228l-90 92l226 226l-226 225l90 92l228 -225l223 223l92 -90l-225 -225l225 -226z" />
    <glyph glyph-name="j.sups" 
d="M133 0v1536h1522v-1536h-1522zM293 147h1202v1242h-1202v-1242zM1108 438l-223 226l-228 -228l-90 92l226 226l-226 225l90 92l228 -225l223 223l92 -90l-225 -225l225 -226z" />
    <glyph glyph-name="k.sups" 
d="M133 0v1536h1522v-1536h-1522zM293 147h1202v1242h-1202v-1242zM1108 438l-223 226l-228 -228l-90 92l226 226l-226 225l90 92l228 -225l223 223l92 -90l-225 -225l225 -226z" />
    <glyph glyph-name="l.sups" 
d="M133 0v1536h1522v-1536h-1522zM293 147h1202v1242h-1202v-1242zM1108 438l-223 226l-228 -228l-90 92l226 226l-226 225l90 92l228 -225l223 223l92 -90l-225 -225l225 -226z" />
    <glyph glyph-name="m.sups" 
d="M133 0v1536h1522v-1536h-1522zM293 147h1202v1242h-1202v-1242zM1108 438l-223 226l-228 -228l-90 92l226 226l-226 225l90 92l228 -225l223 223l92 -90l-225 -225l225 -226z" />
    <glyph glyph-name="n.sups" 
d="M133 0v1536h1522v-1536h-1522zM293 147h1202v1242h-1202v-1242zM1108 438l-223 226l-228 -228l-90 92l226 226l-226 225l90 92l228 -225l223 223l92 -90l-225 -225l225 -226z" />
    <glyph glyph-name="o.sups" 
d="M133 0v1536h1522v-1536h-1522zM293 147h1202v1242h-1202v-1242zM1108 438l-223 226l-228 -228l-90 92l226 226l-226 225l90 92l228 -225l223 223l92 -90l-225 -225l225 -226z" />
    <glyph glyph-name="p.sups" 
d="M133 0v1536h1522v-1536h-1522zM293 147h1202v1242h-1202v-1242zM1108 438l-223 226l-228 -228l-90 92l226 226l-226 225l90 92l228 -225l223 223l92 -90l-225 -225l225 -226z" />
    <glyph glyph-name="q.sups" 
d="M133 0v1536h1522v-1536h-1522zM293 147h1202v1242h-1202v-1242zM1108 438l-223 226l-228 -228l-90 92l226 226l-226 225l90 92l228 -225l223 223l92 -90l-225 -225l225 -226z" />
    <glyph glyph-name="r.sups" 
d="M133 0v1536h1522v-1536h-1522zM293 147h1202v1242h-1202v-1242zM1108 438l-223 226l-228 -228l-90 92l226 226l-226 225l90 92l228 -225l223 223l92 -90l-225 -225l225 -226z" />
    <glyph glyph-name="s.sups" 
d="M133 0v1536h1522v-1536h-1522zM293 147h1202v1242h-1202v-1242zM1108 438l-223 226l-228 -228l-90 92l226 226l-226 225l90 92l228 -225l223 223l92 -90l-225 -225l225 -226z" />
    <glyph glyph-name="t.sups" 
d="M133 0v1536h1522v-1536h-1522zM293 147h1202v1242h-1202v-1242zM1108 438l-223 226l-228 -228l-90 92l226 226l-226 225l90 92l228 -225l223 223l92 -90l-225 -225l225 -226z" />
    <glyph glyph-name="u.sups" 
d="M133 0v1536h1522v-1536h-1522zM293 147h1202v1242h-1202v-1242zM1108 438l-223 226l-228 -228l-90 92l226 226l-226 225l90 92l228 -225l223 223l92 -90l-225 -225l225 -226z" />
    <glyph glyph-name="v.sups" 
d="M133 0v1536h1522v-1536h-1522zM293 147h1202v1242h-1202v-1242zM1108 438l-223 226l-228 -228l-90 92l226 226l-226 225l90 92l228 -225l223 223l92 -90l-225 -225l225 -226z" />
    <glyph glyph-name="w.sups" 
d="M133 0v1536h1522v-1536h-1522zM293 147h1202v1242h-1202v-1242zM1108 438l-223 226l-228 -228l-90 92l226 226l-226 225l90 92l228 -225l223 223l92 -90l-225 -225l225 -226z" />
    <glyph glyph-name="x.sups" 
d="M133 0v1536h1522v-1536h-1522zM293 147h1202v1242h-1202v-1242zM1108 438l-223 226l-228 -228l-90 92l226 226l-226 225l90 92l228 -225l223 223l92 -90l-225 -225l225 -226z" />
    <glyph glyph-name="y.sups" 
d="M133 0v1536h1522v-1536h-1522zM293 147h1202v1242h-1202v-1242zM1108 438l-223 226l-228 -228l-90 92l226 226l-226 225l90 92l228 -225l223 223l92 -90l-225 -225l225 -226z" />
    <glyph glyph-name="z.sups" 
d="M133 0v1536h1522v-1536h-1522zM293 147h1202v1242h-1202v-1242zM1108 438l-223 226l-228 -228l-90 92l226 226l-226 225l90 92l228 -225l223 223l92 -90l-225 -225l225 -226z" />
    <glyph glyph-name="zero.subs" 
d="M133 0v1536h1522v-1536h-1522zM293 147h1202v1242h-1202v-1242zM1108 438l-223 226l-228 -228l-90 92l226 226l-226 225l90 92l228 -225l223 223l92 -90l-225 -225l225 -226z" />
    <glyph glyph-name="one.subs" 
d="M133 0v1536h1522v-1536h-1522zM293 147h1202v1242h-1202v-1242zM1108 438l-223 226l-228 -228l-90 92l226 226l-226 225l90 92l228 -225l223 223l92 -90l-225 -225l225 -226z" />
    <glyph glyph-name="two.subs" 
d="M133 0v1536h1522v-1536h-1522zM293 147h1202v1242h-1202v-1242zM1108 438l-223 226l-228 -228l-90 92l226 226l-226 225l90 92l228 -225l223 223l92 -90l-225 -225l225 -226z" />
    <glyph glyph-name="three.subs" 
d="M133 0v1536h1522v-1536h-1522zM293 147h1202v1242h-1202v-1242zM1108 438l-223 226l-228 -228l-90 92l226 226l-226 225l90 92l228 -225l223 223l92 -90l-225 -225l225 -226z" />
    <glyph glyph-name="four.subs" 
d="M133 0v1536h1522v-1536h-1522zM293 147h1202v1242h-1202v-1242zM1108 438l-223 226l-228 -228l-90 92l226 226l-226 225l90 92l228 -225l223 223l92 -90l-225 -225l225 -226z" />
    <glyph glyph-name="five.subs" 
d="M133 0v1536h1522v-1536h-1522zM293 147h1202v1242h-1202v-1242zM1108 438l-223 226l-228 -228l-90 92l226 226l-226 225l90 92l228 -225l223 223l92 -90l-225 -225l225 -226z" />
    <glyph glyph-name="six.subs" 
d="M133 0v1536h1522v-1536h-1522zM293 147h1202v1242h-1202v-1242zM1108 438l-223 226l-228 -228l-90 92l226 226l-226 225l90 92l228 -225l223 223l92 -90l-225 -225l225 -226z" />
    <glyph glyph-name="seven.subs" 
d="M133 0v1536h1522v-1536h-1522zM293 147h1202v1242h-1202v-1242zM1108 438l-223 226l-228 -228l-90 92l226 226l-226 225l90 92l228 -225l223 223l92 -90l-225 -225l225 -226z" />
    <glyph glyph-name="eight.subs" 
d="M133 0v1536h1522v-1536h-1522zM293 147h1202v1242h-1202v-1242zM1108 438l-223 226l-228 -228l-90 92l226 226l-226 225l90 92l228 -225l223 223l92 -90l-225 -225l225 -226z" />
    <glyph glyph-name="nine.subs" 
d="M133 0v1536h1522v-1536h-1522zM293 147h1202v1242h-1202v-1242zM1108 438l-223 226l-228 -228l-90 92l226 226l-226 225l90 92l228 -225l223 223l92 -90l-225 -225l225 -226z" />
    <glyph glyph-name="period.subs" 
d="M133 0v1536h1522v-1536h-1522zM293 147h1202v1242h-1202v-1242zM1108 438l-223 226l-228 -228l-90 92l226 226l-226 225l90 92l228 -225l223 223l92 -90l-225 -225l225 -226z" />
    <glyph glyph-name="comma.subs" 
d="M133 0v1536h1522v-1536h-1522zM293 147h1202v1242h-1202v-1242zM1108 438l-223 226l-228 -228l-90 92l226 226l-226 225l90 92l228 -225l223 223l92 -90l-225 -225l225 -226z" />
    <glyph glyph-name="hyphen.subs" 
d="M133 0v1536h1522v-1536h-1522zM293 147h1202v1242h-1202v-1242zM1108 438l-223 226l-228 -228l-90 92l226 226l-226 225l90 92l228 -225l223 223l92 -90l-225 -225l225 -226z" />
    <glyph glyph-name="parenleft.subs" 
d="M133 0v1536h1522v-1536h-1522zM293 147h1202v1242h-1202v-1242zM1108 438l-223 226l-228 -228l-90 92l226 226l-226 225l90 92l228 -225l223 223l92 -90l-225 -225l225 -226z" />
    <glyph glyph-name="parenright.subs" 
d="M133 0v1536h1522v-1536h-1522zM293 147h1202v1242h-1202v-1242zM1108 438l-223 226l-228 -228l-90 92l226 226l-226 225l90 92l228 -225l223 223l92 -90l-225 -225l225 -226z" />
    <glyph glyph-name="plus.subs" 
d="M133 0v1536h1522v-1536h-1522zM293 147h1202v1242h-1202v-1242zM1108 438l-223 226l-228 -228l-90 92l226 226l-226 225l90 92l228 -225l223 223l92 -90l-225 -225l225 -226z" />
    <glyph glyph-name="minus.subs" 
d="M133 0v1536h1522v-1536h-1522zM293 147h1202v1242h-1202v-1242zM1108 438l-223 226l-228 -228l-90 92l226 226l-226 225l90 92l228 -225l223 223l92 -90l-225 -225l225 -226z" />
    <glyph glyph-name="multiply.subs" 
d="M133 0v1536h1522v-1536h-1522zM293 147h1202v1242h-1202v-1242zM1108 438l-223 226l-228 -228l-90 92l226 226l-226 225l90 92l228 -225l223 223l92 -90l-225 -225l225 -226z" />
    <glyph glyph-name="equal.subs" 
d="M133 0v1536h1522v-1536h-1522zM293 147h1202v1242h-1202v-1242zM1108 438l-223 226l-228 -228l-90 92l226 226l-226 225l90 92l228 -225l223 223l92 -90l-225 -225l225 -226z" />
    <glyph glyph-name="divide.subs" 
d="M133 0v1536h1522v-1536h-1522zM293 147h1202v1242h-1202v-1242zM1108 438l-223 226l-228 -228l-90 92l226 226l-226 225l90 92l228 -225l223 223l92 -90l-225 -225l225 -226z" />
    <glyph glyph-name="a.subs" 
d="M133 0v1536h1522v-1536h-1522zM293 147h1202v1242h-1202v-1242zM1108 438l-223 226l-228 -228l-90 92l226 226l-226 225l90 92l228 -225l223 223l92 -90l-225 -225l225 -226z" />
    <glyph glyph-name="b.subs" 
d="M133 0v1536h1522v-1536h-1522zM293 147h1202v1242h-1202v-1242zM1108 438l-223 226l-228 -228l-90 92l226 226l-226 225l90 92l228 -225l223 223l92 -90l-225 -225l225 -226z" />
    <glyph glyph-name="c.subs" 
d="M133 0v1536h1522v-1536h-1522zM293 147h1202v1242h-1202v-1242zM1108 438l-223 226l-228 -228l-90 92l226 226l-226 225l90 92l228 -225l223 223l92 -90l-225 -225l225 -226z" />
    <glyph glyph-name="d.subs" 
d="M133 0v1536h1522v-1536h-1522zM293 147h1202v1242h-1202v-1242zM1108 438l-223 226l-228 -228l-90 92l226 226l-226 225l90 92l228 -225l223 223l92 -90l-225 -225l225 -226z" />
    <glyph glyph-name="e.subs" 
d="M133 0v1536h1522v-1536h-1522zM293 147h1202v1242h-1202v-1242zM1108 438l-223 226l-228 -228l-90 92l226 226l-226 225l90 92l228 -225l223 223l92 -90l-225 -225l225 -226z" />
    <glyph glyph-name="f.subs" 
d="M133 0v1536h1522v-1536h-1522zM293 147h1202v1242h-1202v-1242zM1108 438l-223 226l-228 -228l-90 92l226 226l-226 225l90 92l228 -225l223 223l92 -90l-225 -225l225 -226z" />
    <glyph glyph-name="g.subs" 
d="M133 0v1536h1522v-1536h-1522zM293 147h1202v1242h-1202v-1242zM1108 438l-223 226l-228 -228l-90 92l226 226l-226 225l90 92l228 -225l223 223l92 -90l-225 -225l225 -226z" />
    <glyph glyph-name="h.subs" 
d="M133 0v1536h1522v-1536h-1522zM293 147h1202v1242h-1202v-1242zM1108 438l-223 226l-228 -228l-90 92l226 226l-226 225l90 92l228 -225l223 223l92 -90l-225 -225l225 -226z" />
    <glyph glyph-name="i.subs" 
d="M133 0v1536h1522v-1536h-1522zM293 147h1202v1242h-1202v-1242zM1108 438l-223 226l-228 -228l-90 92l226 226l-226 225l90 92l228 -225l223 223l92 -90l-225 -225l225 -226z" />
    <glyph glyph-name="j.subs" 
d="M133 0v1536h1522v-1536h-1522zM293 147h1202v1242h-1202v-1242zM1108 438l-223 226l-228 -228l-90 92l226 226l-226 225l90 92l228 -225l223 223l92 -90l-225 -225l225 -226z" />
    <glyph glyph-name="k.subs" 
d="M133 0v1536h1522v-1536h-1522zM293 147h1202v1242h-1202v-1242zM1108 438l-223 226l-228 -228l-90 92l226 226l-226 225l90 92l228 -225l223 223l92 -90l-225 -225l225 -226z" />
    <glyph glyph-name="l.subs" 
d="M133 0v1536h1522v-1536h-1522zM293 147h1202v1242h-1202v-1242zM1108 438l-223 226l-228 -228l-90 92l226 226l-226 225l90 92l228 -225l223 223l92 -90l-225 -225l225 -226z" />
    <glyph glyph-name="m.subs" 
d="M133 0v1536h1522v-1536h-1522zM293 147h1202v1242h-1202v-1242zM1108 438l-223 226l-228 -228l-90 92l226 226l-226 225l90 92l228 -225l223 223l92 -90l-225 -225l225 -226z" />
    <glyph glyph-name="n.subs" 
d="M133 0v1536h1522v-1536h-1522zM293 147h1202v1242h-1202v-1242zM1108 438l-223 226l-228 -228l-90 92l226 226l-226 225l90 92l228 -225l223 223l92 -90l-225 -225l225 -226z" />
    <glyph glyph-name="o.subs" 
d="M133 0v1536h1522v-1536h-1522zM293 147h1202v1242h-1202v-1242zM1108 438l-223 226l-228 -228l-90 92l226 226l-226 225l90 92l228 -225l223 223l92 -90l-225 -225l225 -226z" />
    <glyph glyph-name="p.subs" 
d="M133 0v1536h1522v-1536h-1522zM293 147h1202v1242h-1202v-1242zM1108 438l-223 226l-228 -228l-90 92l226 226l-226 225l90 92l228 -225l223 223l92 -90l-225 -225l225 -226z" />
    <glyph glyph-name="q.subs" 
d="M133 0v1536h1522v-1536h-1522zM293 147h1202v1242h-1202v-1242zM1108 438l-223 226l-228 -228l-90 92l226 226l-226 225l90 92l228 -225l223 223l92 -90l-225 -225l225 -226z" />
    <glyph glyph-name="r.subs" 
d="M133 0v1536h1522v-1536h-1522zM293 147h1202v1242h-1202v-1242zM1108 438l-223 226l-228 -228l-90 92l226 226l-226 225l90 92l228 -225l223 223l92 -90l-225 -225l225 -226z" />
    <glyph glyph-name="s.subs" 
d="M133 0v1536h1522v-1536h-1522zM293 147h1202v1242h-1202v-1242zM1108 438l-223 226l-228 -228l-90 92l226 226l-226 225l90 92l228 -225l223 223l92 -90l-225 -225l225 -226z" />
    <glyph glyph-name="t.subs" 
d="M133 0v1536h1522v-1536h-1522zM293 147h1202v1242h-1202v-1242zM1108 438l-223 226l-228 -228l-90 92l226 226l-226 225l90 92l228 -225l223 223l92 -90l-225 -225l225 -226z" />
    <glyph glyph-name="u.subs" 
d="M133 0v1536h1522v-1536h-1522zM293 147h1202v1242h-1202v-1242zM1108 438l-223 226l-228 -228l-90 92l226 226l-226 225l90 92l228 -225l223 223l92 -90l-225 -225l225 -226z" />
    <glyph glyph-name="v.subs" 
d="M133 0v1536h1522v-1536h-1522zM293 147h1202v1242h-1202v-1242zM1108 438l-223 226l-228 -228l-90 92l226 226l-226 225l90 92l228 -225l223 223l92 -90l-225 -225l225 -226z" />
    <glyph glyph-name="w.subs" 
d="M133 0v1536h1522v-1536h-1522zM293 147h1202v1242h-1202v-1242zM1108 438l-223 226l-228 -228l-90 92l226 226l-226 225l90 92l228 -225l223 223l92 -90l-225 -225l225 -226z" />
    <glyph glyph-name="x.subs" 
d="M133 0v1536h1522v-1536h-1522zM293 147h1202v1242h-1202v-1242zM1108 438l-223 226l-228 -228l-90 92l226 226l-226 225l90 92l228 -225l223 223l92 -90l-225 -225l225 -226z" />
    <glyph glyph-name="y.subs" 
d="M133 0v1536h1522v-1536h-1522zM293 147h1202v1242h-1202v-1242zM1108 438l-223 226l-228 -228l-90 92l226 226l-226 225l90 92l228 -225l223 223l92 -90l-225 -225l225 -226z" />
    <glyph glyph-name="z.subs" 
d="M133 0v1536h1522v-1536h-1522zM293 147h1202v1242h-1202v-1242zM1108 438l-223 226l-228 -228l-90 92l226 226l-226 225l90 92l228 -225l223 223l92 -90l-225 -225l225 -226z" />
    <glyph glyph-name="IJacute" 
d="M133 0v1536h1522v-1536h-1522zM293 147h1202v1242h-1202v-1242zM1108 438l-223 226l-228 -228l-90 92l226 226l-226 225l90 92l228 -225l223 223l92 -90l-225 -225l225 -226z" />
    <glyph glyph-name="ijacute" 
d="M133 0v1536h1522v-1536h-1522zM293 147h1202v1242h-1202v-1242zM1108 438l-223 226l-228 -228l-90 92l226 226l-226 225l90 92l228 -225l223 223l92 -90l-225 -225l225 -226z" />
    <glyph glyph-name="f_f" 
d="M133 0v1536h1522v-1536h-1522zM293 147h1202v1242h-1202v-1242zM1108 438l-223 226l-228 -228l-90 92l226 226l-226 225l90 92l228 -225l223 223l92 -90l-225 -225l225 -226z" />
    <glyph glyph-name="f_f_i" 
d="M133 0v1536h1522v-1536h-1522zM293 147h1202v1242h-1202v-1242zM1108 438l-223 226l-228 -228l-90 92l226 226l-226 225l90 92l228 -225l223 223l92 -90l-225 -225l225 -226z" />
    <glyph glyph-name="f_f_l" 
d="M133 0v1536h1522v-1536h-1522zM293 147h1202v1242h-1202v-1242zM1108 438l-223 226l-228 -228l-90 92l226 226l-226 225l90 92l228 -225l223 223l92 -90l-225 -225l225 -226z" />
    <glyph glyph-name="f_b" 
d="M133 0v1536h1522v-1536h-1522zM293 147h1202v1242h-1202v-1242zM1108 438l-223 226l-228 -228l-90 92l226 226l-226 225l90 92l228 -225l223 223l92 -90l-225 -225l225 -226z" />
    <glyph glyph-name="f_f_b" 
d="M133 0v1536h1522v-1536h-1522zM293 147h1202v1242h-1202v-1242zM1108 438l-223 226l-228 -228l-90 92l226 226l-226 225l90 92l228 -225l223 223l92 -90l-225 -225l225 -226z" />
    <glyph glyph-name="f_h" 
d="M133 0v1536h1522v-1536h-1522zM293 147h1202v1242h-1202v-1242zM1108 438l-223 226l-228 -228l-90 92l226 226l-226 225l90 92l228 -225l223 223l92 -90l-225 -225l225 -226z" />
    <glyph glyph-name="f_f_h" 
d="M133 0v1536h1522v-1536h-1522zM293 147h1202v1242h-1202v-1242zM1108 438l-223 226l-228 -228l-90 92l226 226l-226 225l90 92l228 -225l223 223l92 -90l-225 -225l225 -226z" />
    <glyph glyph-name="f_k" 
d="M133 0v1536h1522v-1536h-1522zM293 147h1202v1242h-1202v-1242zM1108 438l-223 226l-228 -228l-90 92l226 226l-226 225l90 92l228 -225l223 223l92 -90l-225 -225l225 -226z" />
    <glyph glyph-name="f_f_k" 
d="M133 0v1536h1522v-1536h-1522zM293 147h1202v1242h-1202v-1242zM1108 438l-223 226l-228 -228l-90 92l226 226l-226 225l90 92l228 -225l223 223l92 -90l-225 -225l225 -226z" />
    <glyph glyph-name="f_j" 
d="M133 0v1536h1522v-1536h-1522zM293 147h1202v1242h-1202v-1242zM1108 438l-223 226l-228 -228l-90 92l226 226l-226 225l90 92l228 -225l223 223l92 -90l-225 -225l225 -226z" />
    <glyph glyph-name="f_f_j" 
d="M133 0v1536h1522v-1536h-1522zM293 147h1202v1242h-1202v-1242zM1108 438l-223 226l-228 -228l-90 92l226 226l-226 225l90 92l228 -225l223 223l92 -90l-225 -225l225 -226z" />
    <glyph glyph-name="f_idieresis" 
d="M133 0v1536h1522v-1536h-1522zM293 147h1202v1242h-1202v-1242zM1108 438l-223 226l-228 -228l-90 92l226 226l-226 225l90 92l228 -225l223 223l92 -90l-225 -225l225 -226z" />
    <glyph glyph-name="revcommaaccentcomb" 
d="M133 0v1536h1522v-1536h-1522zM293 147h1202v1242h-1202v-1242zM1108 438l-223 226l-228 -228l-90 92l226 226l-226 225l90 92l228 -225l223 223l92 -90l-225 -225l225 -226z" />
    <glyph glyph-name="gravecomb.case" 
d="M133 0v1536h1522v-1536h-1522zM293 147h1202v1242h-1202v-1242zM1108 438l-223 226l-228 -228l-90 92l226 226l-226 225l90 92l228 -225l223 223l92 -90l-225 -225l225 -226z" />
    <glyph glyph-name="acutecomb.case" 
d="M133 0v1536h1522v-1536h-1522zM293 147h1202v1242h-1202v-1242zM1108 438l-223 226l-228 -228l-90 92l226 226l-226 225l90 92l228 -225l223 223l92 -90l-225 -225l225 -226z" />
    <glyph glyph-name="dieresiscomb.case" 
d="M133 0v1536h1522v-1536h-1522zM293 147h1202v1242h-1202v-1242zM1108 438l-223 226l-228 -228l-90 92l226 226l-226 225l90 92l228 -225l223 223l92 -90l-225 -225l225 -226z" />
    <glyph glyph-name="circumflexcomb.case" 
d="M133 0v1536h1522v-1536h-1522zM293 147h1202v1242h-1202v-1242zM1108 438l-223 226l-228 -228l-90 92l226 226l-226 225l90 92l228 -225l223 223l92 -90l-225 -225l225 -226z" />
    <glyph glyph-name="tildecomb.case" 
d="M133 0v1536h1522v-1536h-1522zM293 147h1202v1242h-1202v-1242zM1108 438l-223 226l-228 -228l-90 92l226 226l-226 225l90 92l228 -225l223 223l92 -90l-225 -225l225 -226z" />
    <glyph glyph-name="macroncomb.case" 
d="M133 0v1536h1522v-1536h-1522zM293 147h1202v1242h-1202v-1242zM1108 438l-223 226l-228 -228l-90 92l226 226l-226 225l90 92l228 -225l223 223l92 -90l-225 -225l225 -226z" />
    <glyph glyph-name="brevecomb.case" 
d="M133 0v1536h1522v-1536h-1522zM293 147h1202v1242h-1202v-1242zM1108 438l-223 226l-228 -228l-90 92l226 226l-226 225l90 92l228 -225l223 223l92 -90l-225 -225l225 -226z" />
    <glyph glyph-name="dotaccentcomb.case" 
d="M133 0v1536h1522v-1536h-1522zM293 147h1202v1242h-1202v-1242zM1108 438l-223 226l-228 -228l-90 92l226 226l-226 225l90 92l228 -225l223 223l92 -90l-225 -225l225 -226z" />
    <glyph glyph-name="revcommaaccentcomb.case" 
d="M133 0v1536h1522v-1536h-1522zM293 147h1202v1242h-1202v-1242zM1108 438l-223 226l-228 -228l-90 92l226 226l-226 225l90 92l228 -225l223 223l92 -90l-225 -225l225 -226z" />
    <glyph glyph-name="ringcomb.case" 
d="M133 0v1536h1522v-1536h-1522zM293 147h1202v1242h-1202v-1242zM1108 438l-223 226l-228 -228l-90 92l226 226l-226 225l90 92l228 -225l223 223l92 -90l-225 -225l225 -226z" />
    <glyph glyph-name="hungarumlautcomb.case" 
d="M133 0v1536h1522v-1536h-1522zM293 147h1202v1242h-1202v-1242zM1108 438l-223 226l-228 -228l-90 92l226 226l-226 225l90 92l228 -225l223 223l92 -90l-225 -225l225 -226z" />
    <glyph glyph-name="caroncomb.case" 
d="M133 0v1536h1522v-1536h-1522zM293 147h1202v1242h-1202v-1242zM1108 438l-223 226l-228 -228l-90 92l226 226l-226 225l90 92l228 -225l223 223l92 -90l-225 -225l225 -226z" />
    <glyph glyph-name="exclamdown.case" 
d="M133 0v1536h1522v-1536h-1522zM293 147h1202v1242h-1202v-1242zM1108 438l-223 226l-228 -228l-90 92l226 226l-226 225l90 92l228 -225l223 223l92 -90l-225 -225l225 -226z" />
    <glyph glyph-name="questiondown.case" 
d="M133 0v1536h1522v-1536h-1522zM293 147h1202v1242h-1202v-1242zM1108 438l-223 226l-228 -228l-90 92l226 226l-226 225l90 92l228 -225l223 223l92 -90l-225 -225l225 -226z" />
    <glyph glyph-name="braceleft.case" 
d="M133 0v1536h1522v-1536h-1522zM293 147h1202v1242h-1202v-1242zM1108 438l-223 226l-228 -228l-90 92l226 226l-226 225l90 92l228 -225l223 223l92 -90l-225 -225l225 -226z" />
    <glyph glyph-name="braceright.case" 
d="M133 0v1536h1522v-1536h-1522zM293 147h1202v1242h-1202v-1242zM1108 438l-223 226l-228 -228l-90 92l226 226l-226 225l90 92l228 -225l223 223l92 -90l-225 -225l225 -226z" />
    <glyph glyph-name="bracketleft.case" 
d="M133 0v1536h1522v-1536h-1522zM293 147h1202v1242h-1202v-1242zM1108 438l-223 226l-228 -228l-90 92l226 226l-226 225l90 92l228 -225l223 223l92 -90l-225 -225l225 -226z" />
    <glyph glyph-name="bracketright.case" 
d="M133 0v1536h1522v-1536h-1522zM293 147h1202v1242h-1202v-1242zM1108 438l-223 226l-228 -228l-90 92l226 226l-226 225l90 92l228 -225l223 223l92 -90l-225 -225l225 -226z" />
    <glyph glyph-name="hyphen.case" 
d="M133 0v1536h1522v-1536h-1522zM293 147h1202v1242h-1202v-1242zM1108 438l-223 226l-228 -228l-90 92l226 226l-226 225l90 92l228 -225l223 223l92 -90l-225 -225l225 -226z" />
    <glyph glyph-name="endash.case" 
d="M133 0v1536h1522v-1536h-1522zM293 147h1202v1242h-1202v-1242zM1108 438l-223 226l-228 -228l-90 92l226 226l-226 225l90 92l228 -225l223 223l92 -90l-225 -225l225 -226z" />
    <glyph glyph-name="emdash.case" 
d="M133 0v1536h1522v-1536h-1522zM293 147h1202v1242h-1202v-1242zM1108 438l-223 226l-228 -228l-90 92l226 226l-226 225l90 92l228 -225l223 223l92 -90l-225 -225l225 -226z" />
    <glyph glyph-name="guillemotleft.case" 
d="M133 0v1536h1522v-1536h-1522zM293 147h1202v1242h-1202v-1242zM1108 438l-223 226l-228 -228l-90 92l226 226l-226 225l90 92l228 -225l223 223l92 -90l-225 -225l225 -226z" />
    <glyph glyph-name="guillemotright.case" 
d="M133 0v1536h1522v-1536h-1522zM293 147h1202v1242h-1202v-1242zM1108 438l-223 226l-228 -228l-90 92l226 226l-226 225l90 92l228 -225l223 223l92 -90l-225 -225l225 -226z" />
    <glyph glyph-name="guilsinglleft.case" 
d="M133 0v1536h1522v-1536h-1522zM293 147h1202v1242h-1202v-1242zM1108 438l-223 226l-228 -228l-90 92l226 226l-226 225l90 92l228 -225l223 223l92 -90l-225 -225l225 -226z" />
    <glyph glyph-name="guilsinglright.case" 
d="M133 0v1536h1522v-1536h-1522zM293 147h1202v1242h-1202v-1242zM1108 438l-223 226l-228 -228l-90 92l226 226l-226 225l90 92l228 -225l223 223l92 -90l-225 -225l225 -226z" />
    <glyph glyph-name="arrowleft.case" 
d="M133 0v1536h1522v-1536h-1522zM293 147h1202v1242h-1202v-1242zM1108 438l-223 226l-228 -228l-90 92l226 226l-226 225l90 92l228 -225l223 223l92 -90l-225 -225l225 -226z" />
    <glyph glyph-name="arrowright.case" 
d="M133 0v1536h1522v-1536h-1522zM293 147h1202v1242h-1202v-1242zM1108 438l-223 226l-228 -228l-90 92l226 226l-226 225l90 92l228 -225l223 223l92 -90l-225 -225l225 -226z" />
    <glyph glyph-name="arrowup.case" 
d="M133 0v1536h1522v-1536h-1522zM293 147h1202v1242h-1202v-1242zM1108 438l-223 226l-228 -228l-90 92l226 226l-226 225l90 92l228 -225l223 223l92 -90l-225 -225l225 -226z" />
    <glyph glyph-name="arrowdown.case" 
d="M133 0v1536h1522v-1536h-1522zM293 147h1202v1242h-1202v-1242zM1108 438l-223 226l-228 -228l-90 92l226 226l-226 225l90 92l228 -225l223 223l92 -90l-225 -225l225 -226z" />
    <glyph glyph-name="arrowboth.case" 
d="M133 0v1536h1522v-1536h-1522zM293 147h1202v1242h-1202v-1242zM1108 438l-223 226l-228 -228l-90 92l226 226l-226 225l90 92l228 -225l223 223l92 -90l-225 -225l225 -226z" />
    <glyph glyph-name="arrowupdn.case" 
d="M133 0v1536h1522v-1536h-1522zM293 147h1202v1242h-1202v-1242zM1108 438l-223 226l-228 -228l-90 92l226 226l-226 225l90 92l228 -225l223 223l92 -90l-225 -225l225 -226z" />
    <glyph glyph-name="uni2196.case" 
d="M133 0v1536h1522v-1536h-1522zM293 147h1202v1242h-1202v-1242zM1108 438l-223 226l-228 -228l-90 92l226 226l-226 225l90 92l228 -225l223 223l92 -90l-225 -225l225 -226z" />
    <glyph glyph-name="uni2197.case" 
d="M133 0v1536h1522v-1536h-1522zM293 147h1202v1242h-1202v-1242zM1108 438l-223 226l-228 -228l-90 92l226 226l-226 225l90 92l228 -225l223 223l92 -90l-225 -225l225 -226z" />
    <glyph glyph-name="uni2198.case" 
d="M133 0v1536h1522v-1536h-1522zM293 147h1202v1242h-1202v-1242zM1108 438l-223 226l-228 -228l-90 92l226 226l-226 225l90 92l228 -225l223 223l92 -90l-225 -225l225 -226z" />
    <glyph glyph-name="uni2199.case" 
d="M133 0v1536h1522v-1536h-1522zM293 147h1202v1242h-1202v-1242zM1108 438l-223 226l-228 -228l-90 92l226 226l-226 225l90 92l228 -225l223 223l92 -90l-225 -225l225 -226z" />
    <glyph glyph-name="at.case" 
d="M133 0v1536h1522v-1536h-1522zM293 147h1202v1242h-1202v-1242zM1108 438l-223 226l-228 -228l-90 92l226 226l-226 225l90 92l228 -225l223 223l92 -90l-225 -225l225 -226z" />
    <glyph glyph-name="colon.case" 
d="M133 0v1536h1522v-1536h-1522zM293 147h1202v1242h-1202v-1242zM1108 438l-223 226l-228 -228l-90 92l226 226l-226 225l90 92l228 -225l223 223l92 -90l-225 -225l225 -226z" />
    <glyph glyph-name="periodcentered.case" 
d="M133 0v1536h1522v-1536h-1522zM293 147h1202v1242h-1202v-1242zM1108 438l-223 226l-228 -228l-90 92l226 226l-226 225l90 92l228 -225l223 223l92 -90l-225 -225l225 -226z" />
    <glyph glyph-name="mediumblackcircle" 
d="M133 0v1536h1522v-1536h-1522zM293 147h1202v1242h-1202v-1242zM1108 438l-223 226l-228 -228l-90 92l226 226l-226 225l90 92l228 -225l223 223l92 -90l-225 -225l225 -226z" />
    <glyph glyph-name="squaremultiply" 
d="M133 0v1536h1522v-1536h-1522zM293 147h1202v1242h-1202v-1242zM1108 438l-223 226l-228 -228l-90 92l226 226l-226 225l90 92l228 -225l223 223l92 -90l-225 -225l225 -226z" />
    <glyph glyph-name="ballotboxwithx" 
d="M133 0v1536h1522v-1536h-1522zM293 147h1202v1242h-1202v-1242zM1108 438l-223 226l-228 -228l-90 92l226 226l-226 225l90 92l228 -225l223 223l92 -90l-225 -225l225 -226z" />
    <glyph glyph-name="oneCircled" 
d="M133 0v1536h1522v-1536h-1522zM293 147h1202v1242h-1202v-1242zM1108 438l-223 226l-228 -228l-90 92l226 226l-226 225l90 92l228 -225l223 223l92 -90l-225 -225l225 -226z" />
    <glyph glyph-name="twoCircled" 
d="M133 0v1536h1522v-1536h-1522zM293 147h1202v1242h-1202v-1242zM1108 438l-223 226l-228 -228l-90 92l226 226l-226 225l90 92l228 -225l223 223l92 -90l-225 -225l225 -226z" />
    <glyph glyph-name="threeCircled" 
d="M133 0v1536h1522v-1536h-1522zM293 147h1202v1242h-1202v-1242zM1108 438l-223 226l-228 -228l-90 92l226 226l-226 225l90 92l228 -225l223 223l92 -90l-225 -225l225 -226z" />
    <glyph glyph-name="fourCircled" 
d="M133 0v1536h1522v-1536h-1522zM293 147h1202v1242h-1202v-1242zM1108 438l-223 226l-228 -228l-90 92l226 226l-226 225l90 92l228 -225l223 223l92 -90l-225 -225l225 -226z" />
    <glyph glyph-name="fiveCircled" 
d="M133 0v1536h1522v-1536h-1522zM293 147h1202v1242h-1202v-1242zM1108 438l-223 226l-228 -228l-90 92l226 226l-226 225l90 92l228 -225l223 223l92 -90l-225 -225l225 -226z" />
    <glyph glyph-name="sixCircled" 
d="M133 0v1536h1522v-1536h-1522zM293 147h1202v1242h-1202v-1242zM1108 438l-223 226l-228 -228l-90 92l226 226l-226 225l90 92l228 -225l223 223l92 -90l-225 -225l225 -226z" />
    <glyph glyph-name="sevenCircled" 
d="M133 0v1536h1522v-1536h-1522zM293 147h1202v1242h-1202v-1242zM1108 438l-223 226l-228 -228l-90 92l226 226l-226 225l90 92l228 -225l223 223l92 -90l-225 -225l225 -226z" />
    <glyph glyph-name="eightCircled" 
d="M133 0v1536h1522v-1536h-1522zM293 147h1202v1242h-1202v-1242zM1108 438l-223 226l-228 -228l-90 92l226 226l-226 225l90 92l228 -225l223 223l92 -90l-225 -225l225 -226z" />
    <glyph glyph-name="nineCircled" 
d="M133 0v1536h1522v-1536h-1522zM293 147h1202v1242h-1202v-1242zM1108 438l-223 226l-228 -228l-90 92l226 226l-226 225l90 92l228 -225l223 223l92 -90l-225 -225l225 -226z" />
    <glyph glyph-name="zeroCircled" 
d="M133 0v1536h1522v-1536h-1522zM293 147h1202v1242h-1202v-1242zM1108 438l-223 226l-228 -228l-90 92l226 226l-226 225l90 92l228 -225l223 223l92 -90l-225 -225l225 -226z" />
    <glyph glyph-name="idotaccent" 
d="M133 0v1536h1522v-1536h-1522zM293 147h1202v1242h-1202v-1242zM1108 438l-223 226l-228 -228l-90 92l226 226l-226 225l90 92l228 -225l223 223l92 -90l-225 -225l225 -226z" />
    </font>
</defs>
</svg>
