<?xml version="1.0" standalone="no"?>
<!DOCTYPE svg PUBLIC "-//W3C//DTD SVG 1.1//EN" "http://www.w3.org/Graphics/SVG/1.1/DTD/svg11.dtd" >
<svg xmlns="http://www.w3.org/2000/svg" xmlns:xlink="http://www.w3.org/1999/xlink" version="1.1">
<metadata>
Created by FontForge 20170731 at Fri Mar 31 19:44:50 2023
 By Aleksey,,,
Copyright Daniel Sabino | Blackletra Type Foundry
</metadata>
<defs>
<font id="NokaTrial-Hairline" horiz-adv-x="1767" >
  <font-face 
    font-family="Noka Trial Hairline"
    font-weight="250"
    font-stretch="normal"
    units-per-em="2048"
    panose-1="0 0 0 0 0 0 0 0 0 0"
    ascent="1638"
    descent="-410"
    x-height="1024"
    cap-height="1536"
    bbox="-57 -410 2007 1561"
    underline-thickness="0"
    underline-position="0"
    unicode-range="U+0020-FB02"
  />
<missing-glyph 
d="M123 0v1536h1522v-1536h-1522zM147 25h1473v1486h-1473v-1486zM1116 500l-235 235l-238 -237l-16 18l237 238l-237 235l16 19l238 -238l235 236l19 -17l-236 -235l236 -238z" />
    <glyph glyph-name=".notdef" 
d="M123 0v1536h1522v-1536h-1522zM147 25h1473v1486h-1473v-1486zM1116 500l-235 235l-238 -237l-16 18l237 238l-237 235l16 19l238 -238l235 236l19 -17l-236 -235l236 -238z" />
    <glyph glyph-name=".null" horiz-adv-x="0" 
 />
    <glyph glyph-name="nonmarkingreturn" horiz-adv-x="682" 
 />
    <glyph glyph-name="space" unicode=" " horiz-adv-x="450" 
 />
    <glyph glyph-name="exclam" unicode="!" 
d="M123 0v1536h1522v-1536h-1522zM147 25h1473v1486h-1473v-1486zM1116 500l-235 235l-238 -237l-16 18l237 238l-237 235l16 19l238 -238l235 236l19 -17l-236 -235l236 -238z" />
    <glyph glyph-name="quotedbl" unicode="&#x22;" 
d="M123 0v1536h1522v-1536h-1522zM147 25h1473v1486h-1473v-1486zM1116 500l-235 235l-238 -237l-16 18l237 238l-237 235l16 19l238 -238l235 236l19 -17l-236 -235l236 -238z" />
    <glyph glyph-name="numbersign" unicode="#" 
d="M123 0v1536h1522v-1536h-1522zM147 25h1473v1486h-1473v-1486zM1116 500l-235 235l-238 -237l-16 18l237 238l-237 235l16 19l238 -238l235 236l19 -17l-236 -235l236 -238z" />
    <glyph glyph-name="dollar" unicode="$" 
d="M123 0v1536h1522v-1536h-1522zM147 25h1473v1486h-1473v-1486zM1116 500l-235 235l-238 -237l-16 18l237 238l-237 235l16 19l238 -238l235 236l19 -17l-236 -235l236 -238z" />
    <glyph glyph-name="percent" unicode="%" 
d="M123 0v1536h1522v-1536h-1522zM147 25h1473v1486h-1473v-1486zM1116 500l-235 235l-238 -237l-16 18l237 238l-237 235l16 19l238 -238l235 236l19 -17l-236 -235l236 -238z" />
    <glyph glyph-name="ampersand" unicode="&#x26;" 
d="M123 0v1536h1522v-1536h-1522zM147 25h1473v1486h-1473v-1486zM1116 500l-235 235l-238 -237l-16 18l237 238l-237 235l16 19l238 -238l235 236l19 -17l-236 -235l236 -238z" />
    <glyph glyph-name="quotesingle" unicode="'" 
d="M123 0v1536h1522v-1536h-1522zM147 25h1473v1486h-1473v-1486zM1116 500l-235 235l-238 -237l-16 18l237 238l-237 235l16 19l238 -238l235 236l19 -17l-236 -235l236 -238z" />
    <glyph glyph-name="parenleft" unicode="(" 
d="M123 0v1536h1522v-1536h-1522zM147 25h1473v1486h-1473v-1486zM1116 500l-235 235l-238 -237l-16 18l237 238l-237 235l16 19l238 -238l235 236l19 -17l-236 -235l236 -238z" />
    <glyph glyph-name="parenright" unicode=")" 
d="M123 0v1536h1522v-1536h-1522zM147 25h1473v1486h-1473v-1486zM1116 500l-235 235l-238 -237l-16 18l237 238l-237 235l16 19l238 -238l235 236l19 -17l-236 -235l236 -238z" />
    <glyph glyph-name="asterisk" unicode="*" 
d="M123 0v1536h1522v-1536h-1522zM147 25h1473v1486h-1473v-1486zM1116 500l-235 235l-238 -237l-16 18l237 238l-237 235l16 19l238 -238l235 236l19 -17l-236 -235l236 -238z" />
    <glyph glyph-name="plus" unicode="+" 
d="M123 0v1536h1522v-1536h-1522zM147 25h1473v1486h-1473v-1486zM1116 500l-235 235l-238 -237l-16 18l237 238l-237 235l16 19l238 -238l235 236l19 -17l-236 -235l236 -238z" />
    <glyph glyph-name="comma" unicode="," horiz-adv-x="311" 
d="M45 -252h-25l162 490h27z" />
    <glyph glyph-name="hyphen" unicode="-" horiz-adv-x="940" 
d="M797 567h-654v25h654v-25z" />
    <glyph glyph-name="period" unicode="." horiz-adv-x="352" 
d="M188 0h-24v238h24v-238z" />
    <glyph glyph-name="slash" unicode="/" 
d="M123 0v1536h1522v-1536h-1522zM147 25h1473v1486h-1473v-1486zM1116 500l-235 235l-238 -237l-16 18l237 238l-237 235l16 19l238 -238l235 236l19 -17l-236 -235l236 -238z" />
    <glyph glyph-name="zero" unicode="0" horiz-adv-x="1249" 
d="M1130 479q0 -215 -143.5 -359.5t-363.5 -144.5q-215 0 -360.5 145t-145.5 359v572q0 141 66 258t182.5 184.5t257.5 67.5q220 0 363.5 -147t143.5 -363v-572zM141 479q0 -204 140 -341.5t342 -137.5q207 0 345 137t138 342v572q0 206 -138.5 345.5t-344.5 139.5
q-200 0 -341 -141t-141 -344v-572z" />
    <glyph glyph-name="one" unicode="1" horiz-adv-x="1249" 
d="M1065 25v-25h-879v25h439v1486h-420v25h444v-1511h416z" />
    <glyph glyph-name="two" unicode="2" horiz-adv-x="1249" 
d="M1044 25v-25h-841v29l618 731q87 103 132.5 193.5t45.5 195.5q0 76 -24 144.5t-70 123.5t-120 87t-167 32q-89 0 -164 -31.5t-123.5 -83.5t-75.5 -118t-28 -136v-24h-24v24q0 102 48.5 191t145 146t221.5 57q98 0 177 -34.5t128 -92.5t75 -131t26 -154q0 -187 -178 -397
l-615 -727h813z" />
    <glyph glyph-name="three" unicode="3" horiz-adv-x="1249" 
d="M1063 436q0 -89 -30.5 -166.5t-90.5 -138.5t-157.5 -96t-221.5 -35h-377v25h377q118 0 211 33t149.5 90.5t85.5 130.5t29 157t-29 157.5t-85.5 131.5t-149.5 91.5t-211 33.5h-164l539 661h-743v25h796l-538 -662h110q124 0 221.5 -35.5t157.5 -96.5t90.5 -139t30.5 -167z
" />
    <glyph glyph-name="four" unicode="4" horiz-adv-x="1249" 
d="M1030 1536v-1536h-24v754h-789v782h25v-758h764v758h24z" />
    <glyph glyph-name="five" unicode="5" horiz-adv-x="1249" 
d="M565 0h-381v25h381q120 0 213 33.5t149 91.5t84.5 130.5t28.5 155.5t-27.5 155.5t-83 131.5t-149 93t-215.5 34h-381v686h754v-25h-729v-637h356q124 0 221.5 -35.5t157.5 -96.5t90.5 -139t30.5 -167t-30.5 -166.5t-90.5 -138.5t-157.5 -96t-221.5 -35z" />
    <glyph glyph-name="six" unicode="6" horiz-adv-x="1249" 
d="M1100 436q0 -196 -135.5 -328.5t-341.5 -132.5q-202 0 -339 133t-137 328q0 119 68 238l502 862h26l-446 -766q143 123 326 123q205 0 341 -132.5t136 -324.5zM172 436q0 -185 130.5 -310.5t320.5 -125.5q193 0 322.5 125t129.5 311q0 184 -129 309t-323 125
q-189 0 -320 -126t-131 -308z" />
    <glyph glyph-name="seven" unicode="7" horiz-adv-x="1249" 
d="M1073 1536l-631 -1536h-28l622 1511h-829v25h866z" />
    <glyph glyph-name="eight" unicode="8" horiz-adv-x="1249" 
d="M1110 436q0 -196 -138 -328.5t-349 -132.5q-207 0 -346.5 133t-139.5 328q0 166 109 293t274 156q-119 31 -193.5 121t-74.5 208q0 147 107.5 247t263.5 100q161 0 266.5 -99.5t105.5 -247.5q0 -120 -74.5 -210.5t-191.5 -118.5q169 -32 275 -157.5t106 -291.5zM276 1214
q0 -136 100 -227.5t247 -91.5q150 0 249 91t99 228q0 138 -99 230t-249 92q-146 0 -246.5 -93t-100.5 -229zM162 436q0 -185 133.5 -310.5t327.5 -125.5q198 0 330 125t132 311q0 184 -132 310t-330 126q-193 0 -327 -127t-134 -309z" />
    <glyph glyph-name="nine" unicode="9" horiz-adv-x="1249" 
d="M1032 862l-502 -862h-26l446 766q-143 -123 -325 -123q-205 0 -341.5 132.5t-136.5 324.5q0 196 136 328.5t342 132.5q202 0 338.5 -133t136.5 -328q0 -119 -68 -238zM172 1100q0 -184 129.5 -309t323.5 -125q189 0 319.5 126t130.5 308q0 185 -130 310.5t-320 125.5
q-193 0 -323 -125t-130 -311z" />
    <glyph glyph-name="colon" unicode=":" 
d="M123 0v1536h1522v-1536h-1522zM147 25h1473v1486h-1473v-1486zM1116 500l-235 235l-238 -237l-16 18l237 238l-237 235l16 19l238 -238l235 236l19 -17l-236 -235l236 -238z" />
    <glyph glyph-name="semicolon" unicode=";" 
d="M123 0v1536h1522v-1536h-1522zM147 25h1473v1486h-1473v-1486zM1116 500l-235 235l-238 -237l-16 18l237 238l-237 235l16 19l238 -238l235 236l19 -17l-236 -235l236 -238z" />
    <glyph glyph-name="less" unicode="&#x3c;" 
d="M123 0v1536h1522v-1536h-1522zM147 25h1473v1486h-1473v-1486zM1116 500l-235 235l-238 -237l-16 18l237 238l-237 235l16 19l238 -238l235 236l19 -17l-236 -235l236 -238z" />
    <glyph glyph-name="equal" unicode="=" 
d="M123 0v1536h1522v-1536h-1522zM147 25h1473v1486h-1473v-1486zM1116 500l-235 235l-238 -237l-16 18l237 238l-237 235l16 19l238 -238l235 236l19 -17l-236 -235l236 -238z" />
    <glyph glyph-name="greater" unicode="&#x3e;" 
d="M123 0v1536h1522v-1536h-1522zM147 25h1473v1486h-1473v-1486zM1116 500l-235 235l-238 -237l-16 18l237 238l-237 235l16 19l238 -238l235 236l19 -17l-236 -235l236 -238z" />
    <glyph glyph-name="question" unicode="?" 
d="M123 0v1536h1522v-1536h-1522zM147 25h1473v1486h-1473v-1486zM1116 500l-235 235l-238 -237l-16 18l237 238l-237 235l16 19l238 -238l235 236l19 -17l-236 -235l236 -238z" />
    <glyph glyph-name="at" unicode="@" 
d="M123 0v1536h1522v-1536h-1522zM147 25h1473v1486h-1473v-1486zM1116 500l-235 235l-238 -237l-16 18l237 238l-237 235l16 19l238 -238l235 236l19 -17l-236 -235l236 -238z" />
    <glyph glyph-name="A" unicode="A" horiz-adv-x="1280" 
d="M1171 0l-192 614h-678l-192 -614h-27l481 1536h154l481 -1536h-27zM584 1511l-275 -872h662l-275 872h-112z" />
    <glyph glyph-name="B" unicode="B" horiz-adv-x="1341" 
d="M1268 436q0 -89 -30.5 -166.5t-90.5 -138.5t-157.5 -96t-221.5 -35h-543v1536h504q102 0 180 -27.5t124.5 -75.5t69.5 -107.5t23 -127.5q0 -114 -65 -205t-191 -125q195 -27 296.5 -146.5t101.5 -285.5zM729 1511h-479v-637h483q76 0 138 18t104.5 48.5t71.5 72.5
t42 88.5t13 96.5q0 134 -93.5 223.5t-279.5 89.5zM768 850h-518v-825h518q120 0 213.5 33.5t149.5 91.5t84 130.5t28 155.5t-27.5 155.5t-83 131.5t-149 93t-215.5 34z" />
    <glyph glyph-name="C" unicode="C" horiz-adv-x="1726" 
d="M1655 516q-84 -244 -289 -392.5t-471 -148.5q-167 0 -316 62t-255.5 168t-169 253t-62.5 310t62.5 310t169 253t255.5 168t316 62q261 0 464.5 -143.5t289.5 -379.5h-27q-84 223 -281 360.5t-446 137.5q-214 0 -393 -102t-282 -278.5t-103 -387.5t103 -387.5t282 -278.5
t393 -102q255 0 454.5 143t280.5 373h25z" />
    <glyph glyph-name="D" unicode="D" horiz-adv-x="1499" 
d="M641 0h-416v1536h414q248 0 422.5 -97t260 -268t85.5 -403t-86 -403.5t-260 -268t-420 -96.5zM637 1511h-387v-1486h389q186 0 329.5 55.5t233 156t135 234.5t45.5 297q0 162 -45.5 295.5t-135 234.5t-233.5 157t-331 56z" />
    <glyph glyph-name="E" unicode="E" horiz-adv-x="1202" 
d="M1100 25v-25h-875v1536h846v-25h-821v-667h770v-25h-770v-794h850z" />
    <glyph glyph-name="F" unicode="F" horiz-adv-x="940" 
d="M799 815h-551v-815h-25v1536h625v-25h-600v-671h551v-25z" />
    <glyph glyph-name="G" unicode="G" horiz-adv-x="1736" 
d="M1655 754q0 -165 -56.5 -309t-155.5 -247.5t-240 -163t-304 -59.5q-167 0 -316.5 62t-257 168t-170.5 253t-63 310q0 218 104.5 400t287 287.5t401.5 105.5q257 0 455.5 -142.5t287.5 -380.5h-26q-85 223 -278.5 360.5t-438.5 137.5q-158 0 -300.5 -60.5t-245 -163
t-162.5 -244.5t-60 -300t61.5 -300t165.5 -244.5t249 -163t306 -60.5q156 0 292 57.5t232 156.5t151.5 236.5t55.5 292.5h-688v23h713v-12z" />
    <glyph glyph-name="H" unicode="H" horiz-adv-x="1445" 
d="M1196 0v815h-946v-815h-25v1536h25v-696h946v696h25v-1536h-25z" />
    <glyph glyph-name="I" unicode="I" horiz-adv-x="475" 
d="M250 0h-25v1536h25v-1536z" />
    <glyph glyph-name="J" unicode="J" horiz-adv-x="790" 
d="M262 0h-190v25h190q299 0 299 305v1206h25v-1206q0 -162 -81.5 -246t-242.5 -84z" />
    <glyph glyph-name="K" unicode="K" horiz-adv-x="1183" 
d="M1087 0l-606 815h-231v-815h-25v1536h25v-696h229l588 696h35l-596 -707l616 -829h-35z" />
    <glyph glyph-name="L" unicode="L" horiz-adv-x="866" 
d="M795 25v-25h-570v1536h25v-1511h545z" />
    <glyph glyph-name="M" unicode="M" horiz-adv-x="1812" 
d="M250 0h-25v1536h176l451 -1081h109l450 1081h176v-1536h-24v1511h-133l-449 -1081h-150l-448 1081h-133v-1511z" />
    <glyph glyph-name="N" unicode="N" horiz-adv-x="1521" 
d="M250 0h-25v1536h193l706 -1511h148v1511h24v-1536h-188l-707 1511h-151v-1511z" />
    <glyph glyph-name="O" unicode="O" horiz-adv-x="1789" 
d="M1698 768q0 -163 -62 -310t-168.5 -253t-255.5 -168t-317 -62q-167 0 -316 62t-255.5 168t-169 253t-62.5 310t62.5 310t169 253t255.5 168t316 62q168 0 317 -62t255.5 -168t168.5 -253t62 -310zM117 768q0 -211 103 -387.5t282 -278.5t393 -102t393 102t282 278.5
t103 387.5t-103 387.5t-282 278.5t-393 102t-393 -102t-282 -278.5t-103 -387.5z" />
    <glyph glyph-name="P" unicode="P" horiz-adv-x="1208" 
d="M653 674h-420v-674h-24v1536h442q248 0 377 -118t129 -310q0 -193 -128.5 -313.5t-375.5 -120.5zM649 1511h-416v-813h418q122 0 216 32t151.5 88.5t86 129.5t28.5 160q0 178 -121.5 290.5t-362.5 112.5z" />
    <glyph glyph-name="Q" unicode="Q" horiz-adv-x="1789" 
d="M1698 768q0 -216 -103.5 -397t-285 -287t-402.5 -109v-297h-24v297q-164 2 -311 65t-252 169t-166.5 251.5t-61.5 307.5q0 163 62.5 310t169 253t255.5 168t316 62q168 0 317 -62t255.5 -168t168.5 -253t62 -310zM117 768q0 -125 38 -241.5t108 -210.5t164 -165
t211.5 -110t244.5 -41v504h24v-504q127 2 244.5 41t211.5 110t164 165t108 210.5t38 241.5q0 211 -103 387.5t-282 278.5t-393 102t-393 -102t-282 -278.5t-103 -387.5z" />
    <glyph glyph-name="R" unicode="R" horiz-adv-x="1234" 
d="M670 674h-420v-674h-25v1536h443q248 0 377 -118t129 -310q0 -160 -90 -273t-267 -147l313 -688h-28l-311 682q-49 -8 -121 -8zM666 1511h-416v-813h418q122 0 216 32t151 88.5t85.5 129.5t28.5 160q0 86 -28.5 157.5t-85.5 127t-151.5 87t-217.5 31.5z" />
    <glyph glyph-name="S" unicode="S" horiz-adv-x="1269" 
d="M688 0h-586v25h586q118 0 211 33t149.5 90.5t85.5 130.5t29 157t-29 157.5t-85.5 131.5t-149.5 91.5t-211 33.5h-182q-185 0 -290 100t-105 244t105 243t290 99h534v-25h-534q-176 0 -273.5 -90.5t-97.5 -226.5t98 -228t273 -92h182q124 0 221.5 -35.5t157.5 -96.5
t90.5 -139t30.5 -167t-30.5 -166.5t-90.5 -138.5t-157.5 -96t-221.5 -35z" />
    <glyph glyph-name="T" unicode="T" horiz-adv-x="874" 
d="M449 0h-25v1511h-414v25h854v-25h-415v-1511z" />
    <glyph glyph-name="U" unicode="U" horiz-adv-x="1429" 
d="M1225 539q0 -264 -135.5 -414t-374.5 -150t-374.5 150t-135.5 414v997h24v-997q0 -250 128 -394.5t358 -144.5q231 0 358 144.5t127 394.5v997h25v-997z" />
    <glyph glyph-name="V" unicode="V" horiz-adv-x="1357" 
d="M795 0h-232l-481 1536h27l475 -1511h190l475 1511h27z" />
    <glyph glyph-name="W" unicode="W" horiz-adv-x="2088" 
d="M1368 0l-324 870l-323 -870h-158l-481 1536h27l475 -1511h116l332 876v330h25v-330l332 -876h116l475 1511h27l-481 -1536h-158z" />
    <glyph glyph-name="X" unicode="X" horiz-adv-x="1150" 
d="M471 815l-381 -815h-29l388 827l-357 709h29l350 -696h209l350 696h29l-357 -709l388 -827h-29l-381 815h-209z" />
    <glyph glyph-name="Y" unicode="Y" horiz-adv-x="1157" 
d="M809 621h-219v-621h-25v621h-217l-287 915h29l279 -891h419l279 891h29z" />
    <glyph glyph-name="Z" unicode="Z" horiz-adv-x="1105" 
d="M1024 0h-922v127l856 1290v94h-804v25h829v-125l-856 -1290v-96h897v-25z" />
    <glyph glyph-name="bracketleft" unicode="[" 
d="M123 0v1536h1522v-1536h-1522zM147 25h1473v1486h-1473v-1486zM1116 500l-235 235l-238 -237l-16 18l237 238l-237 235l16 19l238 -238l235 236l19 -17l-236 -235l236 -238z" />
    <glyph glyph-name="backslash" unicode="\" 
d="M123 0v1536h1522v-1536h-1522zM147 25h1473v1486h-1473v-1486zM1116 500l-235 235l-238 -237l-16 18l237 238l-237 235l16 19l238 -238l235 236l19 -17l-236 -235l236 -238z" />
    <glyph glyph-name="bracketright" unicode="]" 
d="M123 0v1536h1522v-1536h-1522zM147 25h1473v1486h-1473v-1486zM1116 500l-235 235l-238 -237l-16 18l237 238l-237 235l16 19l238 -238l235 236l19 -17l-236 -235l236 -238z" />
    <glyph glyph-name="asciicircum" unicode="^" 
d="M123 0v1536h1522v-1536h-1522zM147 25h1473v1486h-1473v-1486zM1116 500l-235 235l-238 -237l-16 18l237 238l-237 235l16 19l238 -238l235 236l19 -17l-236 -235l236 -238z" />
    <glyph glyph-name="underscore" unicode="_" 
d="M123 0v1536h1522v-1536h-1522zM147 25h1473v1486h-1473v-1486zM1116 500l-235 235l-238 -237l-16 18l237 238l-237 235l16 19l238 -238l235 236l19 -17l-236 -235l236 -238z" />
    <glyph glyph-name="grave" unicode="`" 
d="M123 0v1536h1522v-1536h-1522zM147 25h1473v1486h-1473v-1486zM1116 500l-235 235l-238 -237l-16 18l237 238l-237 235l16 19l238 -238l235 236l19 -17l-236 -235l236 -238z" />
    <glyph glyph-name="a" unicode="a" horiz-adv-x="1157" 
d="M989 0v236q-58 -115 -167 -188t-251 -73q-133 0 -244 67t-178 191t-67 279q0 115 39.5 216t106 171t156 110t187.5 40q141 0 251.5 -74t166.5 -189v238h25v-1024h-25zM106 512q0 -111 38 -208t102 -163t148.5 -103.5t176.5 -37.5q150 0 263 84.5t155 208.5v440
q-47 125 -158 208t-260 83q-123 0 -229 -64t-171 -182.5t-65 -265.5z" />
    <glyph glyph-name="b" unicode="b" horiz-adv-x="1157" 
d="M1075 512q0 -155 -67 -279t-178 -191t-244 -67q-142 0 -251 73t-167 188v-236h-25v1536h25v-750q56 115 166.5 189t251.5 74q98 0 187.5 -40t156 -110t106 -171t39.5 -216zM586 1024q-149 0 -260 -83t-158 -208v-440q45 -126 157 -209.5t261 -83.5q92 0 176.5 37.5
t148.5 103.5t102 163t38 208q0 147 -65 265.5t-171 182.5t-229 64z" />
    <glyph glyph-name="c" unicode="c" horiz-adv-x="1138" 
d="M1065 268q-61 -133 -186 -213t-279 -80q-146 0 -265 70.5t-186 193.5t-67 273q0 149 67 272t186 194t265 71q155 0 279.5 -80.5t185.5 -214.5h-27q-62 125 -178 197.5t-260 72.5q-209 0 -351.5 -147.5t-142.5 -364.5q0 -143 65 -260.5t178 -184.5t251 -67
q143 0 260.5 73.5t175.5 194.5h29z" />
    <glyph glyph-name="d" unicode="d" horiz-adv-x="1157" 
d="M989 0v236q-58 -115 -167 -188t-251 -73q-133 0 -244 67t-178 191t-67 279q0 115 39.5 216t106 171t156 110t187.5 40q141 0 251.5 -74t166.5 -189v750h25v-1536h-25zM106 512q0 -111 38 -208t102 -163t148.5 -103.5t176.5 -37.5q150 0 263 84.5t155 208.5v440
q-47 125 -158 208t-260 83q-123 0 -229 -64t-171 -182.5t-65 -265.5z" />
    <glyph glyph-name="e" unicode="e" horiz-adv-x="1132" 
d="M1044 268q-61 -133 -182 -213t-272 -80q-217 0 -362.5 154.5t-145.5 382.5q0 111 39 210.5t106 171t161.5 113.5t201.5 42q201 0 335 -144.5t134 -367.5h-953v-25q0 -143 64 -260.5t175 -184.5t245 -67q139 0 253.5 73t172.5 195h28zM590 1024q-191 0 -327.5 -132
t-153.5 -331h923q-5 196 -131 329.5t-311 133.5z" />
    <glyph glyph-name="f" unicode="f" horiz-adv-x="630" 
d="M0 -410h-57v23h57q54 0 100 14.5t83.5 45.5t59 84.5t21.5 125.5v1116h-233v25h233v221q0 146 79.5 218.5t209.5 72.5h57v-23h-57q-54 0 -100 -14.5t-83.5 -45.5t-59 -84.5t-21.5 -125.5v-219h321v-25h-321v-1118q0 -146 -79.5 -218.5t-209.5 -72.5z" />
    <glyph glyph-name="g" unicode="g" horiz-adv-x="1157" 
d="M1014 -119q0 -146 -79.5 -218.5t-209.5 -72.5h-459v23h459q54 0 100 14.5t83.5 45.5t59 84.5t21.5 125.5v355q-56 -115 -166.5 -189t-251.5 -74q-98 0 -187.5 40t-156 110t-106 171t-39.5 216q0 155 67 279t178 191t244 67q142 0 251 -73t167 -188v236h25v-1143zM106 512
q0 -147 65 -265.5t171 -182.5t229 -64q149 0 260 83t158 208v440q-45 126 -157 209.5t-261 83.5q-92 0 -176.5 -37.5t-148.5 -103.5t-102 -163t-38 -208z" />
    <glyph glyph-name="h" unicode="h" horiz-adv-x="1110" 
d="M582 1024q-126 0 -239 -75.5t-171 -186.5v-762h-25v1536h25v-733q64 108 175 177t235 69q181 0 289 -112t108 -308v-629h-25v629q0 184 -100 289.5t-272 105.5z" />
    <glyph glyph-name="i" unicode="i" horiz-adv-x="352" 
d="M188 1298h-24v238h24v-238zM188 0h-24v1024h24v-1024z" />
    <glyph glyph-name="j" unicode="j" horiz-adv-x="352" 
d="M188 1298h-24v238h24v-238zM188 -410h-24v1434h24v-1434z" />
    <glyph glyph-name="k" unicode="k" horiz-adv-x="944" 
d="M872 0l-415 530h-285v-530h-25v1536h25v-981h283l405 469h31l-412 -479l424 -545h-31z" />
    <glyph glyph-name="l" unicode="l" horiz-adv-x="352" 
d="M188 0h-24v1536h24v-1536z" />
    <glyph glyph-name="m" unicode="m" horiz-adv-x="1900" 
d="M578 1024q-126 0 -237 -75t-169 -187v-762h-25v1024h25v-219q64 107 173.5 175.5t232.5 68.5q137 0 234.5 -67t135.5 -191q64 113 178 185.5t244 72.5q182 0 290.5 -112t108.5 -308v-629h-24v629q0 184 -100.5 289.5t-274.5 105.5q-128 0 -242 -75t-172 -185
q17 -70 17 -135v-629h-25v629q0 184 -99.5 289.5t-270.5 105.5z" />
    <glyph glyph-name="n" unicode="n" horiz-adv-x="1110" 
d="M582 1024q-126 0 -239 -75.5t-171 -186.5v-762h-25v1024h25v-221q64 108 175 177t235 69q181 0 289 -112t108 -308v-629h-25v629q0 184 -100 289.5t-272 105.5z" />
    <glyph glyph-name="o" unicode="o" horiz-adv-x="1200" 
d="M1118 512q0 -228 -147.5 -382.5t-370.5 -154.5q-146 0 -265 70.5t-186 193.5t-67 273q0 149 67 272t186 194t265 71q147 0 266 -71t185.5 -194t66.5 -272zM106 512q0 -143 65 -260.5t178 -184.5t251 -67t251 67t178 184.5t65 260.5q0 217 -142.5 364.5t-351.5 147.5
t-351.5 -147.5t-142.5 -364.5z" />
    <glyph glyph-name="p" unicode="p" horiz-adv-x="1157" 
d="M586 -25q-141 0 -251.5 74t-166.5 189v-648h-25v1434h25v-236q58 115 167 188t251 73q133 0 244 -67t178 -191t67 -279q0 -115 -39.5 -216t-106 -171t-156 -110t-187.5 -40zM586 1024q-150 0 -263 -84.5t-155 -208.5v-440q47 -125 158 -208t260 -83q123 0 229 64
t171 182.5t65 265.5q0 111 -38 208t-102 163t-148.5 103.5t-176.5 37.5z" />
    <glyph glyph-name="q" unicode="q" horiz-adv-x="1157" 
d="M1014 1024v-1434h-25v648q-56 -115 -166.5 -189t-251.5 -74q-98 0 -187.5 40t-156 110t-106 171t-39.5 216q0 155 67 279t178 191t244 67q142 0 251 -73t167 -188v236h25zM106 512q0 -147 65 -265.5t171 -182.5t229 -64q149 0 260 83t158 208v440q-45 126 -157 209.5
t-261 83.5q-92 0 -176.5 -37.5t-148.5 -103.5t-102 -163t-38 -208z" />
    <glyph glyph-name="r" unicode="r" horiz-adv-x="663" 
d="M606 1024q-143 0 -258.5 -72t-175.5 -190v-762h-25v1024h25v-217q66 111 180.5 176.5t253.5 65.5v-25z" />
    <glyph glyph-name="s" unicode="s" horiz-adv-x="849" 
d="M455 0h-389v25h391q154 0 232.5 77t78.5 193t-78.5 192t-232.5 76h-129q-117 0 -187.5 63.5t-70.5 166.5q0 106 70.5 168.5t187.5 62.5h370v-25h-370q-109 0 -171.5 -55.5t-62.5 -150.5q0 -93 62.5 -149t171.5 -56h129q164 0 250 -83.5t86 -209.5t-86 -210.5t-252 -84.5z
" />
    <glyph glyph-name="t" unicode="t" horiz-adv-x="552" 
d="M522 999h-233v-999h-25v999h-233v25h233v283h25v-283h233v-25z" />
    <glyph glyph-name="u" unicode="u" horiz-adv-x="1110" 
d="M938 0v221q-64 -108 -175 -177t-235 -69q-181 0 -289 112t-108 308v629h25v-629q0 -184 100 -289.5t272 -105.5q126 0 239 75.5t171 186.5v762h25v-1024h-25z" />
    <glyph glyph-name="v" unicode="v" horiz-adv-x="952" 
d="M580 0h-207l-322 1024h25l315 -999h170l316 999h24z" />
    <glyph glyph-name="w" unicode="w" horiz-adv-x="1511" 
d="M1014 0l-258 594l-258 -594h-125l-322 1024h25l315 -999h90l262 596v176h25v-176l262 -596h90l316 999h24l-321 -1024h-125z" />
    <glyph glyph-name="x" unicode="x" horiz-adv-x="915" 
d="M375 537l-305 -537h-29l311 549l-295 475h27l291 -463h168l288 463h29l-295 -475l309 -549h-26l-305 537h-168z" />
    <glyph glyph-name="y" unicode="y" horiz-adv-x="962" 
d="M553 -119q-47 -150 -121 -220.5t-194 -70.5h-58v23h58q107 0 176.5 64.5t113.5 205.5l37 117h-192l-322 1024h25l315 -999h180l316 999h24z" />
    <glyph glyph-name="z" unicode="z" horiz-adv-x="821" 
d="M764 0h-694v98l645 834v67h-625v25h649v-98l-645 -834v-67h670v-25z" />
    <glyph glyph-name="braceleft" unicode="{" 
d="M123 0v1536h1522v-1536h-1522zM147 25h1473v1486h-1473v-1486zM1116 500l-235 235l-238 -237l-16 18l237 238l-237 235l16 19l238 -238l235 236l19 -17l-236 -235l236 -238z" />
    <glyph glyph-name="bar" unicode="|" 
d="M123 0v1536h1522v-1536h-1522zM147 25h1473v1486h-1473v-1486zM1116 500l-235 235l-238 -237l-16 18l237 238l-237 235l16 19l238 -238l235 236l19 -17l-236 -235l236 -238z" />
    <glyph glyph-name="braceright" unicode="}" 
d="M123 0v1536h1522v-1536h-1522zM147 25h1473v1486h-1473v-1486zM1116 500l-235 235l-238 -237l-16 18l237 238l-237 235l16 19l238 -238l235 236l19 -17l-236 -235l236 -238z" />
    <glyph glyph-name="asciitilde" unicode="~" 
d="M123 0v1536h1522v-1536h-1522zM147 25h1473v1486h-1473v-1486zM1116 500l-235 235l-238 -237l-16 18l237 238l-237 235l16 19l238 -238l235 236l19 -17l-236 -235l236 -238z" />
    <glyph glyph-name="exclamdown" unicode="&#xa1;" 
d="M123 0v1536h1522v-1536h-1522zM147 25h1473v1486h-1473v-1486zM1116 500l-235 235l-238 -237l-16 18l237 238l-237 235l16 19l238 -238l235 236l19 -17l-236 -235l236 -238z" />
    <glyph glyph-name="cent" unicode="&#xa2;" 
d="M123 0v1536h1522v-1536h-1522zM147 25h1473v1486h-1473v-1486zM1116 500l-235 235l-238 -237l-16 18l237 238l-237 235l16 19l238 -238l235 236l19 -17l-236 -235l236 -238z" />
    <glyph glyph-name="sterling" unicode="&#xa3;" 
d="M123 0v1536h1522v-1536h-1522zM147 25h1473v1486h-1473v-1486zM1116 500l-235 235l-238 -237l-16 18l237 238l-237 235l16 19l238 -238l235 236l19 -17l-236 -235l236 -238z" />
    <glyph glyph-name="currency" unicode="&#xa4;" 
d="M123 0v1536h1522v-1536h-1522zM147 25h1473v1486h-1473v-1486zM1116 500l-235 235l-238 -237l-16 18l237 238l-237 235l16 19l238 -238l235 236l19 -17l-236 -235l236 -238z" />
    <glyph glyph-name="yen" unicode="&#xa5;" 
d="M123 0v1536h1522v-1536h-1522zM147 25h1473v1486h-1473v-1486zM1116 500l-235 235l-238 -237l-16 18l237 238l-237 235l16 19l238 -238l235 236l19 -17l-236 -235l236 -238z" />
    <glyph glyph-name="brokenbar" unicode="&#xa6;" 
d="M123 0v1536h1522v-1536h-1522zM147 25h1473v1486h-1473v-1486zM1116 500l-235 235l-238 -237l-16 18l237 238l-237 235l16 19l238 -238l235 236l19 -17l-236 -235l236 -238z" />
    <glyph glyph-name="section" unicode="&#xa7;" 
d="M123 0v1536h1522v-1536h-1522zM147 25h1473v1486h-1473v-1486zM1116 500l-235 235l-238 -237l-16 18l237 238l-237 235l16 19l238 -238l235 236l19 -17l-236 -235l236 -238z" />
    <glyph glyph-name="dieresis" unicode="&#xa8;" 
d="M123 0v1536h1522v-1536h-1522zM147 25h1473v1486h-1473v-1486zM1116 500l-235 235l-238 -237l-16 18l237 238l-237 235l16 19l238 -238l235 236l19 -17l-236 -235l236 -238z" />
    <glyph glyph-name="copyright" unicode="&#xa9;" 
d="M123 0v1536h1522v-1536h-1522zM147 25h1473v1486h-1473v-1486zM1116 500l-235 235l-238 -237l-16 18l237 238l-237 235l16 19l238 -238l235 236l19 -17l-236 -235l236 -238z" />
    <glyph glyph-name="ordfeminine" unicode="&#xaa;" 
d="M123 0v1536h1522v-1536h-1522zM147 25h1473v1486h-1473v-1486zM1116 500l-235 235l-238 -237l-16 18l237 238l-237 235l16 19l238 -238l235 236l19 -17l-236 -235l236 -238z" />
    <glyph glyph-name="guillemotleft" unicode="&#xab;" 
d="M123 0v1536h1522v-1536h-1522zM147 25h1473v1486h-1473v-1486zM1116 500l-235 235l-238 -237l-16 18l237 238l-237 235l16 19l238 -238l235 236l19 -17l-236 -235l236 -238z" />
    <glyph glyph-name="registered" unicode="&#xae;" 
d="M123 0v1536h1522v-1536h-1522zM147 25h1473v1486h-1473v-1486zM1116 500l-235 235l-238 -237l-16 18l237 238l-237 235l16 19l238 -238l235 236l19 -17l-236 -235l236 -238z" />
    <glyph glyph-name="macron" unicode="&#xaf;" 
d="M123 0v1536h1522v-1536h-1522zM147 25h1473v1486h-1473v-1486zM1116 500l-235 235l-238 -237l-16 18l237 238l-237 235l16 19l238 -238l235 236l19 -17l-236 -235l236 -238z" />
    <glyph glyph-name="degree" unicode="&#xb0;" 
d="M123 0v1536h1522v-1536h-1522zM147 25h1473v1486h-1473v-1486zM1116 500l-235 235l-238 -237l-16 18l237 238l-237 235l16 19l238 -238l235 236l19 -17l-236 -235l236 -238z" />
    <glyph glyph-name="plusminus" unicode="&#xb1;" 
d="M123 0v1536h1522v-1536h-1522zM147 25h1473v1486h-1473v-1486zM1116 500l-235 235l-238 -237l-16 18l237 238l-237 235l16 19l238 -238l235 236l19 -17l-236 -235l236 -238z" />
    <glyph glyph-name="acute" unicode="&#xb4;" 
d="M123 0v1536h1522v-1536h-1522zM147 25h1473v1486h-1473v-1486zM1116 500l-235 235l-238 -237l-16 18l237 238l-237 235l16 19l238 -238l235 236l19 -17l-236 -235l236 -238z" />
    <glyph glyph-name="paragraph" unicode="&#xb6;" 
d="M123 0v1536h1522v-1536h-1522zM147 25h1473v1486h-1473v-1486zM1116 500l-235 235l-238 -237l-16 18l237 238l-237 235l16 19l238 -238l235 236l19 -17l-236 -235l236 -238z" />
    <glyph glyph-name="periodcentered" unicode="&#xb7;" 
d="M123 0v1536h1522v-1536h-1522zM147 25h1473v1486h-1473v-1486zM1116 500l-235 235l-238 -237l-16 18l237 238l-237 235l16 19l238 -238l235 236l19 -17l-236 -235l236 -238z" />
    <glyph glyph-name="cedilla" unicode="&#xb8;" 
d="M123 0v1536h1522v-1536h-1522zM147 25h1473v1486h-1473v-1486zM1116 500l-235 235l-238 -237l-16 18l237 238l-237 235l16 19l238 -238l235 236l19 -17l-236 -235l236 -238z" />
    <glyph glyph-name="ordmasculine" unicode="&#xba;" 
d="M123 0v1536h1522v-1536h-1522zM147 25h1473v1486h-1473v-1486zM1116 500l-235 235l-238 -237l-16 18l237 238l-237 235l16 19l238 -238l235 236l19 -17l-236 -235l236 -238z" />
    <glyph glyph-name="guillemotright" unicode="&#xbb;" 
d="M123 0v1536h1522v-1536h-1522zM147 25h1473v1486h-1473v-1486zM1116 500l-235 235l-238 -237l-16 18l237 238l-237 235l16 19l238 -238l235 236l19 -17l-236 -235l236 -238z" />
    <glyph glyph-name="onequarter" unicode="&#xbc;" 
d="M123 0v1536h1522v-1536h-1522zM147 25h1473v1486h-1473v-1486zM1116 500l-235 235l-238 -237l-16 18l237 238l-237 235l16 19l238 -238l235 236l19 -17l-236 -235l236 -238z" />
    <glyph glyph-name="onehalf" unicode="&#xbd;" 
d="M123 0v1536h1522v-1536h-1522zM147 25h1473v1486h-1473v-1486zM1116 500l-235 235l-238 -237l-16 18l237 238l-237 235l16 19l238 -238l235 236l19 -17l-236 -235l236 -238z" />
    <glyph glyph-name="threequarters" unicode="&#xbe;" 
d="M123 0v1536h1522v-1536h-1522zM147 25h1473v1486h-1473v-1486zM1116 500l-235 235l-238 -237l-16 18l237 238l-237 235l16 19l238 -238l235 236l19 -17l-236 -235l236 -238z" />
    <glyph glyph-name="questiondown" unicode="&#xbf;" 
d="M123 0v1536h1522v-1536h-1522zM147 25h1473v1486h-1473v-1486zM1116 500l-235 235l-238 -237l-16 18l237 238l-237 235l16 19l238 -238l235 236l19 -17l-236 -235l236 -238z" />
    <glyph glyph-name="Agrave" unicode="&#xc0;" 
d="M123 0v1536h1522v-1536h-1522zM147 25h1473v1486h-1473v-1486zM1116 500l-235 235l-238 -237l-16 18l237 238l-237 235l16 19l238 -238l235 236l19 -17l-236 -235l236 -238z" />
    <glyph glyph-name="Aacute" unicode="&#xc1;" 
d="M123 0v1536h1522v-1536h-1522zM147 25h1473v1486h-1473v-1486zM1116 500l-235 235l-238 -237l-16 18l237 238l-237 235l16 19l238 -238l235 236l19 -17l-236 -235l236 -238z" />
    <glyph glyph-name="Acircumflex" unicode="&#xc2;" 
d="M123 0v1536h1522v-1536h-1522zM147 25h1473v1486h-1473v-1486zM1116 500l-235 235l-238 -237l-16 18l237 238l-237 235l16 19l238 -238l235 236l19 -17l-236 -235l236 -238z" />
    <glyph glyph-name="Atilde" unicode="&#xc3;" 
d="M123 0v1536h1522v-1536h-1522zM147 25h1473v1486h-1473v-1486zM1116 500l-235 235l-238 -237l-16 18l237 238l-237 235l16 19l238 -238l235 236l19 -17l-236 -235l236 -238z" />
    <glyph glyph-name="Adieresis" unicode="&#xc4;" 
d="M123 0v1536h1522v-1536h-1522zM147 25h1473v1486h-1473v-1486zM1116 500l-235 235l-238 -237l-16 18l237 238l-237 235l16 19l238 -238l235 236l19 -17l-236 -235l236 -238z" />
    <glyph glyph-name="Aring" unicode="&#xc5;" 
d="M123 0v1536h1522v-1536h-1522zM147 25h1473v1486h-1473v-1486zM1116 500l-235 235l-238 -237l-16 18l237 238l-237 235l16 19l238 -238l235 236l19 -17l-236 -235l236 -238z" />
    <glyph glyph-name="AE" unicode="&#xc6;" 
d="M123 0v1536h1522v-1536h-1522zM147 25h1473v1486h-1473v-1486zM1116 500l-235 235l-238 -237l-16 18l237 238l-237 235l16 19l238 -238l235 236l19 -17l-236 -235l236 -238z" />
    <glyph glyph-name="Ccedilla" unicode="&#xc7;" 
d="M123 0v1536h1522v-1536h-1522zM147 25h1473v1486h-1473v-1486zM1116 500l-235 235l-238 -237l-16 18l237 238l-237 235l16 19l238 -238l235 236l19 -17l-236 -235l236 -238z" />
    <glyph glyph-name="Egrave" unicode="&#xc8;" 
d="M123 0v1536h1522v-1536h-1522zM147 25h1473v1486h-1473v-1486zM1116 500l-235 235l-238 -237l-16 18l237 238l-237 235l16 19l238 -238l235 236l19 -17l-236 -235l236 -238z" />
    <glyph glyph-name="Eacute" unicode="&#xc9;" 
d="M123 0v1536h1522v-1536h-1522zM147 25h1473v1486h-1473v-1486zM1116 500l-235 235l-238 -237l-16 18l237 238l-237 235l16 19l238 -238l235 236l19 -17l-236 -235l236 -238z" />
    <glyph glyph-name="Ecircumflex" unicode="&#xca;" 
d="M123 0v1536h1522v-1536h-1522zM147 25h1473v1486h-1473v-1486zM1116 500l-235 235l-238 -237l-16 18l237 238l-237 235l16 19l238 -238l235 236l19 -17l-236 -235l236 -238z" />
    <glyph glyph-name="Edieresis" unicode="&#xcb;" 
d="M123 0v1536h1522v-1536h-1522zM147 25h1473v1486h-1473v-1486zM1116 500l-235 235l-238 -237l-16 18l237 238l-237 235l16 19l238 -238l235 236l19 -17l-236 -235l236 -238z" />
    <glyph glyph-name="Igrave" unicode="&#xcc;" 
d="M123 0v1536h1522v-1536h-1522zM147 25h1473v1486h-1473v-1486zM1116 500l-235 235l-238 -237l-16 18l237 238l-237 235l16 19l238 -238l235 236l19 -17l-236 -235l236 -238z" />
    <glyph glyph-name="Iacute" unicode="&#xcd;" 
d="M123 0v1536h1522v-1536h-1522zM147 25h1473v1486h-1473v-1486zM1116 500l-235 235l-238 -237l-16 18l237 238l-237 235l16 19l238 -238l235 236l19 -17l-236 -235l236 -238z" />
    <glyph glyph-name="Icircumflex" unicode="&#xce;" 
d="M123 0v1536h1522v-1536h-1522zM147 25h1473v1486h-1473v-1486zM1116 500l-235 235l-238 -237l-16 18l237 238l-237 235l16 19l238 -238l235 236l19 -17l-236 -235l236 -238z" />
    <glyph glyph-name="Idieresis" unicode="&#xcf;" 
d="M123 0v1536h1522v-1536h-1522zM147 25h1473v1486h-1473v-1486zM1116 500l-235 235l-238 -237l-16 18l237 238l-237 235l16 19l238 -238l235 236l19 -17l-236 -235l236 -238z" />
    <glyph glyph-name="Eth" unicode="&#xd0;" 
d="M123 0v1536h1522v-1536h-1522zM147 25h1473v1486h-1473v-1486zM1116 500l-235 235l-238 -237l-16 18l237 238l-237 235l16 19l238 -238l235 236l19 -17l-236 -235l236 -238z" />
    <glyph glyph-name="Ntilde" unicode="&#xd1;" 
d="M123 0v1536h1522v-1536h-1522zM147 25h1473v1486h-1473v-1486zM1116 500l-235 235l-238 -237l-16 18l237 238l-237 235l16 19l238 -238l235 236l19 -17l-236 -235l236 -238z" />
    <glyph glyph-name="Ograve" unicode="&#xd2;" 
d="M123 0v1536h1522v-1536h-1522zM147 25h1473v1486h-1473v-1486zM1116 500l-235 235l-238 -237l-16 18l237 238l-237 235l16 19l238 -238l235 236l19 -17l-236 -235l236 -238z" />
    <glyph glyph-name="Oacute" unicode="&#xd3;" 
d="M123 0v1536h1522v-1536h-1522zM147 25h1473v1486h-1473v-1486zM1116 500l-235 235l-238 -237l-16 18l237 238l-237 235l16 19l238 -238l235 236l19 -17l-236 -235l236 -238z" />
    <glyph glyph-name="Ocircumflex" unicode="&#xd4;" 
d="M123 0v1536h1522v-1536h-1522zM147 25h1473v1486h-1473v-1486zM1116 500l-235 235l-238 -237l-16 18l237 238l-237 235l16 19l238 -238l235 236l19 -17l-236 -235l236 -238z" />
    <glyph glyph-name="Otilde" unicode="&#xd5;" 
d="M123 0v1536h1522v-1536h-1522zM147 25h1473v1486h-1473v-1486zM1116 500l-235 235l-238 -237l-16 18l237 238l-237 235l16 19l238 -238l235 236l19 -17l-236 -235l236 -238z" />
    <glyph glyph-name="Odieresis" unicode="&#xd6;" 
d="M123 0v1536h1522v-1536h-1522zM147 25h1473v1486h-1473v-1486zM1116 500l-235 235l-238 -237l-16 18l237 238l-237 235l16 19l238 -238l235 236l19 -17l-236 -235l236 -238z" />
    <glyph glyph-name="multiply" unicode="&#xd7;" 
d="M123 0v1536h1522v-1536h-1522zM147 25h1473v1486h-1473v-1486zM1116 500l-235 235l-238 -237l-16 18l237 238l-237 235l16 19l238 -238l235 236l19 -17l-236 -235l236 -238z" />
    <glyph glyph-name="Oslash" unicode="&#xd8;" 
d="M123 0v1536h1522v-1536h-1522zM147 25h1473v1486h-1473v-1486zM1116 500l-235 235l-238 -237l-16 18l237 238l-237 235l16 19l238 -238l235 236l19 -17l-236 -235l236 -238z" />
    <glyph glyph-name="Ugrave" unicode="&#xd9;" 
d="M123 0v1536h1522v-1536h-1522zM147 25h1473v1486h-1473v-1486zM1116 500l-235 235l-238 -237l-16 18l237 238l-237 235l16 19l238 -238l235 236l19 -17l-236 -235l236 -238z" />
    <glyph glyph-name="Uacute" unicode="&#xda;" 
d="M123 0v1536h1522v-1536h-1522zM147 25h1473v1486h-1473v-1486zM1116 500l-235 235l-238 -237l-16 18l237 238l-237 235l16 19l238 -238l235 236l19 -17l-236 -235l236 -238z" />
    <glyph glyph-name="Ucircumflex" unicode="&#xdb;" 
d="M123 0v1536h1522v-1536h-1522zM147 25h1473v1486h-1473v-1486zM1116 500l-235 235l-238 -237l-16 18l237 238l-237 235l16 19l238 -238l235 236l19 -17l-236 -235l236 -238z" />
    <glyph glyph-name="Udieresis" unicode="&#xdc;" 
d="M123 0v1536h1522v-1536h-1522zM147 25h1473v1486h-1473v-1486zM1116 500l-235 235l-238 -237l-16 18l237 238l-237 235l16 19l238 -238l235 236l19 -17l-236 -235l236 -238z" />
    <glyph glyph-name="Yacute" unicode="&#xdd;" 
d="M123 0v1536h1522v-1536h-1522zM147 25h1473v1486h-1473v-1486zM1116 500l-235 235l-238 -237l-16 18l237 238l-237 235l16 19l238 -238l235 236l19 -17l-236 -235l236 -238z" />
    <glyph glyph-name="Thorn" unicode="&#xde;" 
d="M123 0v1536h1522v-1536h-1522zM147 25h1473v1486h-1473v-1486zM1116 500l-235 235l-238 -237l-16 18l237 238l-237 235l16 19l238 -238l235 236l19 -17l-236 -235l236 -238z" />
    <glyph glyph-name="germandbls" unicode="&#xdf;" 
d="M123 0v1536h1522v-1536h-1522zM147 25h1473v1486h-1473v-1486zM1116 500l-235 235l-238 -237l-16 18l237 238l-237 235l16 19l238 -238l235 236l19 -17l-236 -235l236 -238z" />
    <glyph glyph-name="agrave" unicode="&#xe0;" 
d="M123 0v1536h1522v-1536h-1522zM147 25h1473v1486h-1473v-1486zM1116 500l-235 235l-238 -237l-16 18l237 238l-237 235l16 19l238 -238l235 236l19 -17l-236 -235l236 -238z" />
    <glyph glyph-name="aacute" unicode="&#xe1;" 
d="M123 0v1536h1522v-1536h-1522zM147 25h1473v1486h-1473v-1486zM1116 500l-235 235l-238 -237l-16 18l237 238l-237 235l16 19l238 -238l235 236l19 -17l-236 -235l236 -238z" />
    <glyph glyph-name="acircumflex" unicode="&#xe2;" 
d="M123 0v1536h1522v-1536h-1522zM147 25h1473v1486h-1473v-1486zM1116 500l-235 235l-238 -237l-16 18l237 238l-237 235l16 19l238 -238l235 236l19 -17l-236 -235l236 -238z" />
    <glyph glyph-name="atilde" unicode="&#xe3;" 
d="M123 0v1536h1522v-1536h-1522zM147 25h1473v1486h-1473v-1486zM1116 500l-235 235l-238 -237l-16 18l237 238l-237 235l16 19l238 -238l235 236l19 -17l-236 -235l236 -238z" />
    <glyph glyph-name="adieresis" unicode="&#xe4;" 
d="M123 0v1536h1522v-1536h-1522zM147 25h1473v1486h-1473v-1486zM1116 500l-235 235l-238 -237l-16 18l237 238l-237 235l16 19l238 -238l235 236l19 -17l-236 -235l236 -238z" />
    <glyph glyph-name="aring" unicode="&#xe5;" 
d="M123 0v1536h1522v-1536h-1522zM147 25h1473v1486h-1473v-1486zM1116 500l-235 235l-238 -237l-16 18l237 238l-237 235l16 19l238 -238l235 236l19 -17l-236 -235l236 -238z" />
    <glyph glyph-name="ae" unicode="&#xe6;" 
d="M123 0v1536h1522v-1536h-1522zM147 25h1473v1486h-1473v-1486zM1116 500l-235 235l-238 -237l-16 18l237 238l-237 235l16 19l238 -238l235 236l19 -17l-236 -235l236 -238z" />
    <glyph glyph-name="ccedilla" unicode="&#xe7;" 
d="M123 0v1536h1522v-1536h-1522zM147 25h1473v1486h-1473v-1486zM1116 500l-235 235l-238 -237l-16 18l237 238l-237 235l16 19l238 -238l235 236l19 -17l-236 -235l236 -238z" />
    <glyph glyph-name="egrave" unicode="&#xe8;" 
d="M123 0v1536h1522v-1536h-1522zM147 25h1473v1486h-1473v-1486zM1116 500l-235 235l-238 -237l-16 18l237 238l-237 235l16 19l238 -238l235 236l19 -17l-236 -235l236 -238z" />
    <glyph glyph-name="eacute" unicode="&#xe9;" 
d="M123 0v1536h1522v-1536h-1522zM147 25h1473v1486h-1473v-1486zM1116 500l-235 235l-238 -237l-16 18l237 238l-237 235l16 19l238 -238l235 236l19 -17l-236 -235l236 -238z" />
    <glyph glyph-name="ecircumflex" unicode="&#xea;" 
d="M123 0v1536h1522v-1536h-1522zM147 25h1473v1486h-1473v-1486zM1116 500l-235 235l-238 -237l-16 18l237 238l-237 235l16 19l238 -238l235 236l19 -17l-236 -235l236 -238z" />
    <glyph glyph-name="edieresis" unicode="&#xeb;" 
d="M123 0v1536h1522v-1536h-1522zM147 25h1473v1486h-1473v-1486zM1116 500l-235 235l-238 -237l-16 18l237 238l-237 235l16 19l238 -238l235 236l19 -17l-236 -235l236 -238z" />
    <glyph glyph-name="igrave" unicode="&#xec;" 
d="M123 0v1536h1522v-1536h-1522zM147 25h1473v1486h-1473v-1486zM1116 500l-235 235l-238 -237l-16 18l237 238l-237 235l16 19l238 -238l235 236l19 -17l-236 -235l236 -238z" />
    <glyph glyph-name="iacute" unicode="&#xed;" 
d="M123 0v1536h1522v-1536h-1522zM147 25h1473v1486h-1473v-1486zM1116 500l-235 235l-238 -237l-16 18l237 238l-237 235l16 19l238 -238l235 236l19 -17l-236 -235l236 -238z" />
    <glyph glyph-name="icircumflex" unicode="&#xee;" 
d="M123 0v1536h1522v-1536h-1522zM147 25h1473v1486h-1473v-1486zM1116 500l-235 235l-238 -237l-16 18l237 238l-237 235l16 19l238 -238l235 236l19 -17l-236 -235l236 -238z" />
    <glyph glyph-name="idieresis" unicode="&#xef;" 
d="M123 0v1536h1522v-1536h-1522zM147 25h1473v1486h-1473v-1486zM1116 500l-235 235l-238 -237l-16 18l237 238l-237 235l16 19l238 -238l235 236l19 -17l-236 -235l236 -238z" />
    <glyph glyph-name="eth" unicode="&#xf0;" 
d="M123 0v1536h1522v-1536h-1522zM147 25h1473v1486h-1473v-1486zM1116 500l-235 235l-238 -237l-16 18l237 238l-237 235l16 19l238 -238l235 236l19 -17l-236 -235l236 -238z" />
    <glyph glyph-name="ntilde" unicode="&#xf1;" 
d="M123 0v1536h1522v-1536h-1522zM147 25h1473v1486h-1473v-1486zM1116 500l-235 235l-238 -237l-16 18l237 238l-237 235l16 19l238 -238l235 236l19 -17l-236 -235l236 -238z" />
    <glyph glyph-name="ograve" unicode="&#xf2;" 
d="M123 0v1536h1522v-1536h-1522zM147 25h1473v1486h-1473v-1486zM1116 500l-235 235l-238 -237l-16 18l237 238l-237 235l16 19l238 -238l235 236l19 -17l-236 -235l236 -238z" />
    <glyph glyph-name="oacute" unicode="&#xf3;" 
d="M123 0v1536h1522v-1536h-1522zM147 25h1473v1486h-1473v-1486zM1116 500l-235 235l-238 -237l-16 18l237 238l-237 235l16 19l238 -238l235 236l19 -17l-236 -235l236 -238z" />
    <glyph glyph-name="ocircumflex" unicode="&#xf4;" 
d="M123 0v1536h1522v-1536h-1522zM147 25h1473v1486h-1473v-1486zM1116 500l-235 235l-238 -237l-16 18l237 238l-237 235l16 19l238 -238l235 236l19 -17l-236 -235l236 -238z" />
    <glyph glyph-name="otilde" unicode="&#xf5;" 
d="M123 0v1536h1522v-1536h-1522zM147 25h1473v1486h-1473v-1486zM1116 500l-235 235l-238 -237l-16 18l237 238l-237 235l16 19l238 -238l235 236l19 -17l-236 -235l236 -238z" />
    <glyph glyph-name="odieresis" unicode="&#xf6;" 
d="M123 0v1536h1522v-1536h-1522zM147 25h1473v1486h-1473v-1486zM1116 500l-235 235l-238 -237l-16 18l237 238l-237 235l16 19l238 -238l235 236l19 -17l-236 -235l236 -238z" />
    <glyph glyph-name="divide" unicode="&#xf7;" 
d="M123 0v1536h1522v-1536h-1522zM147 25h1473v1486h-1473v-1486zM1116 500l-235 235l-238 -237l-16 18l237 238l-237 235l16 19l238 -238l235 236l19 -17l-236 -235l236 -238z" />
    <glyph glyph-name="oslash" unicode="&#xf8;" 
d="M123 0v1536h1522v-1536h-1522zM147 25h1473v1486h-1473v-1486zM1116 500l-235 235l-238 -237l-16 18l237 238l-237 235l16 19l238 -238l235 236l19 -17l-236 -235l236 -238z" />
    <glyph glyph-name="ugrave" unicode="&#xf9;" 
d="M123 0v1536h1522v-1536h-1522zM147 25h1473v1486h-1473v-1486zM1116 500l-235 235l-238 -237l-16 18l237 238l-237 235l16 19l238 -238l235 236l19 -17l-236 -235l236 -238z" />
    <glyph glyph-name="uacute" unicode="&#xfa;" 
d="M123 0v1536h1522v-1536h-1522zM147 25h1473v1486h-1473v-1486zM1116 500l-235 235l-238 -237l-16 18l237 238l-237 235l16 19l238 -238l235 236l19 -17l-236 -235l236 -238z" />
    <glyph glyph-name="ucircumflex" unicode="&#xfb;" 
d="M123 0v1536h1522v-1536h-1522zM147 25h1473v1486h-1473v-1486zM1116 500l-235 235l-238 -237l-16 18l237 238l-237 235l16 19l238 -238l235 236l19 -17l-236 -235l236 -238z" />
    <glyph glyph-name="udieresis" unicode="&#xfc;" 
d="M123 0v1536h1522v-1536h-1522zM147 25h1473v1486h-1473v-1486zM1116 500l-235 235l-238 -237l-16 18l237 238l-237 235l16 19l238 -238l235 236l19 -17l-236 -235l236 -238z" />
    <glyph glyph-name="yacute" unicode="&#xfd;" 
d="M123 0v1536h1522v-1536h-1522zM147 25h1473v1486h-1473v-1486zM1116 500l-235 235l-238 -237l-16 18l237 238l-237 235l16 19l238 -238l235 236l19 -17l-236 -235l236 -238z" />
    <glyph glyph-name="thorn" unicode="&#xfe;" 
d="M123 0v1536h1522v-1536h-1522zM147 25h1473v1486h-1473v-1486zM1116 500l-235 235l-238 -237l-16 18l237 238l-237 235l16 19l238 -238l235 236l19 -17l-236 -235l236 -238z" />
    <glyph glyph-name="ydieresis" unicode="&#xff;" 
d="M123 0v1536h1522v-1536h-1522zM147 25h1473v1486h-1473v-1486zM1116 500l-235 235l-238 -237l-16 18l237 238l-237 235l16 19l238 -238l235 236l19 -17l-236 -235l236 -238z" />
    <glyph glyph-name="Amacron" unicode="&#x100;" 
d="M123 0v1536h1522v-1536h-1522zM147 25h1473v1486h-1473v-1486zM1116 500l-235 235l-238 -237l-16 18l237 238l-237 235l16 19l238 -238l235 236l19 -17l-236 -235l236 -238z" />
    <glyph glyph-name="amacron" unicode="&#x101;" 
d="M123 0v1536h1522v-1536h-1522zM147 25h1473v1486h-1473v-1486zM1116 500l-235 235l-238 -237l-16 18l237 238l-237 235l16 19l238 -238l235 236l19 -17l-236 -235l236 -238z" />
    <glyph glyph-name="Abreve" unicode="&#x102;" 
d="M123 0v1536h1522v-1536h-1522zM147 25h1473v1486h-1473v-1486zM1116 500l-235 235l-238 -237l-16 18l237 238l-237 235l16 19l238 -238l235 236l19 -17l-236 -235l236 -238z" />
    <glyph glyph-name="abreve" unicode="&#x103;" 
d="M123 0v1536h1522v-1536h-1522zM147 25h1473v1486h-1473v-1486zM1116 500l-235 235l-238 -237l-16 18l237 238l-237 235l16 19l238 -238l235 236l19 -17l-236 -235l236 -238z" />
    <glyph glyph-name="Aogonek" unicode="&#x104;" 
d="M123 0v1536h1522v-1536h-1522zM147 25h1473v1486h-1473v-1486zM1116 500l-235 235l-238 -237l-16 18l237 238l-237 235l16 19l238 -238l235 236l19 -17l-236 -235l236 -238z" />
    <glyph glyph-name="aogonek" unicode="&#x105;" 
d="M123 0v1536h1522v-1536h-1522zM147 25h1473v1486h-1473v-1486zM1116 500l-235 235l-238 -237l-16 18l237 238l-237 235l16 19l238 -238l235 236l19 -17l-236 -235l236 -238z" />
    <glyph glyph-name="Cacute" unicode="&#x106;" 
d="M123 0v1536h1522v-1536h-1522zM147 25h1473v1486h-1473v-1486zM1116 500l-235 235l-238 -237l-16 18l237 238l-237 235l16 19l238 -238l235 236l19 -17l-236 -235l236 -238z" />
    <glyph glyph-name="cacute" unicode="&#x107;" 
d="M123 0v1536h1522v-1536h-1522zM147 25h1473v1486h-1473v-1486zM1116 500l-235 235l-238 -237l-16 18l237 238l-237 235l16 19l238 -238l235 236l19 -17l-236 -235l236 -238z" />
    <glyph glyph-name="Ccircumflex" unicode="&#x108;" 
d="M123 0v1536h1522v-1536h-1522zM147 25h1473v1486h-1473v-1486zM1116 500l-235 235l-238 -237l-16 18l237 238l-237 235l16 19l238 -238l235 236l19 -17l-236 -235l236 -238z" />
    <glyph glyph-name="ccircumflex" unicode="&#x109;" 
d="M123 0v1536h1522v-1536h-1522zM147 25h1473v1486h-1473v-1486zM1116 500l-235 235l-238 -237l-16 18l237 238l-237 235l16 19l238 -238l235 236l19 -17l-236 -235l236 -238z" />
    <glyph glyph-name="Cdotaccent" unicode="&#x10a;" 
d="M123 0v1536h1522v-1536h-1522zM147 25h1473v1486h-1473v-1486zM1116 500l-235 235l-238 -237l-16 18l237 238l-237 235l16 19l238 -238l235 236l19 -17l-236 -235l236 -238z" />
    <glyph glyph-name="cdotaccent" unicode="&#x10b;" 
d="M123 0v1536h1522v-1536h-1522zM147 25h1473v1486h-1473v-1486zM1116 500l-235 235l-238 -237l-16 18l237 238l-237 235l16 19l238 -238l235 236l19 -17l-236 -235l236 -238z" />
    <glyph glyph-name="Ccaron" unicode="&#x10c;" 
d="M123 0v1536h1522v-1536h-1522zM147 25h1473v1486h-1473v-1486zM1116 500l-235 235l-238 -237l-16 18l237 238l-237 235l16 19l238 -238l235 236l19 -17l-236 -235l236 -238z" />
    <glyph glyph-name="ccaron" unicode="&#x10d;" 
d="M123 0v1536h1522v-1536h-1522zM147 25h1473v1486h-1473v-1486zM1116 500l-235 235l-238 -237l-16 18l237 238l-237 235l16 19l238 -238l235 236l19 -17l-236 -235l236 -238z" />
    <glyph glyph-name="Dcaron" unicode="&#x10e;" 
d="M123 0v1536h1522v-1536h-1522zM147 25h1473v1486h-1473v-1486zM1116 500l-235 235l-238 -237l-16 18l237 238l-237 235l16 19l238 -238l235 236l19 -17l-236 -235l236 -238z" />
    <glyph glyph-name="dcaron" unicode="&#x10f;" 
d="M123 0v1536h1522v-1536h-1522zM147 25h1473v1486h-1473v-1486zM1116 500l-235 235l-238 -237l-16 18l237 238l-237 235l16 19l238 -238l235 236l19 -17l-236 -235l236 -238z" />
    <glyph glyph-name="Dcroat" unicode="&#x110;" 
d="M123 0v1536h1522v-1536h-1522zM147 25h1473v1486h-1473v-1486zM1116 500l-235 235l-238 -237l-16 18l237 238l-237 235l16 19l238 -238l235 236l19 -17l-236 -235l236 -238z" />
    <glyph glyph-name="dcroat" unicode="&#x111;" 
d="M123 0v1536h1522v-1536h-1522zM147 25h1473v1486h-1473v-1486zM1116 500l-235 235l-238 -237l-16 18l237 238l-237 235l16 19l238 -238l235 236l19 -17l-236 -235l236 -238z" />
    <glyph glyph-name="Emacron" unicode="&#x112;" 
d="M123 0v1536h1522v-1536h-1522zM147 25h1473v1486h-1473v-1486zM1116 500l-235 235l-238 -237l-16 18l237 238l-237 235l16 19l238 -238l235 236l19 -17l-236 -235l236 -238z" />
    <glyph glyph-name="emacron" unicode="&#x113;" 
d="M123 0v1536h1522v-1536h-1522zM147 25h1473v1486h-1473v-1486zM1116 500l-235 235l-238 -237l-16 18l237 238l-237 235l16 19l238 -238l235 236l19 -17l-236 -235l236 -238z" />
    <glyph glyph-name="Ebreve" unicode="&#x114;" 
d="M123 0v1536h1522v-1536h-1522zM147 25h1473v1486h-1473v-1486zM1116 500l-235 235l-238 -237l-16 18l237 238l-237 235l16 19l238 -238l235 236l19 -17l-236 -235l236 -238z" />
    <glyph glyph-name="ebreve" unicode="&#x115;" 
d="M123 0v1536h1522v-1536h-1522zM147 25h1473v1486h-1473v-1486zM1116 500l-235 235l-238 -237l-16 18l237 238l-237 235l16 19l238 -238l235 236l19 -17l-236 -235l236 -238z" />
    <glyph glyph-name="Edotaccent" unicode="&#x116;" 
d="M123 0v1536h1522v-1536h-1522zM147 25h1473v1486h-1473v-1486zM1116 500l-235 235l-238 -237l-16 18l237 238l-237 235l16 19l238 -238l235 236l19 -17l-236 -235l236 -238z" />
    <glyph glyph-name="edotaccent" unicode="&#x117;" 
d="M123 0v1536h1522v-1536h-1522zM147 25h1473v1486h-1473v-1486zM1116 500l-235 235l-238 -237l-16 18l237 238l-237 235l16 19l238 -238l235 236l19 -17l-236 -235l236 -238z" />
    <glyph glyph-name="Eogonek" unicode="&#x118;" 
d="M123 0v1536h1522v-1536h-1522zM147 25h1473v1486h-1473v-1486zM1116 500l-235 235l-238 -237l-16 18l237 238l-237 235l16 19l238 -238l235 236l19 -17l-236 -235l236 -238z" />
    <glyph glyph-name="eogonek" unicode="&#x119;" 
d="M123 0v1536h1522v-1536h-1522zM147 25h1473v1486h-1473v-1486zM1116 500l-235 235l-238 -237l-16 18l237 238l-237 235l16 19l238 -238l235 236l19 -17l-236 -235l236 -238z" />
    <glyph glyph-name="Ecaron" unicode="&#x11a;" 
d="M123 0v1536h1522v-1536h-1522zM147 25h1473v1486h-1473v-1486zM1116 500l-235 235l-238 -237l-16 18l237 238l-237 235l16 19l238 -238l235 236l19 -17l-236 -235l236 -238z" />
    <glyph glyph-name="ecaron" unicode="&#x11b;" 
d="M123 0v1536h1522v-1536h-1522zM147 25h1473v1486h-1473v-1486zM1116 500l-235 235l-238 -237l-16 18l237 238l-237 235l16 19l238 -238l235 236l19 -17l-236 -235l236 -238z" />
    <glyph glyph-name="Gcircumflex" unicode="&#x11c;" 
d="M123 0v1536h1522v-1536h-1522zM147 25h1473v1486h-1473v-1486zM1116 500l-235 235l-238 -237l-16 18l237 238l-237 235l16 19l238 -238l235 236l19 -17l-236 -235l236 -238z" />
    <glyph glyph-name="gcircumflex" unicode="&#x11d;" 
d="M123 0v1536h1522v-1536h-1522zM147 25h1473v1486h-1473v-1486zM1116 500l-235 235l-238 -237l-16 18l237 238l-237 235l16 19l238 -238l235 236l19 -17l-236 -235l236 -238z" />
    <glyph glyph-name="Gbreve" unicode="&#x11e;" 
d="M123 0v1536h1522v-1536h-1522zM147 25h1473v1486h-1473v-1486zM1116 500l-235 235l-238 -237l-16 18l237 238l-237 235l16 19l238 -238l235 236l19 -17l-236 -235l236 -238z" />
    <glyph glyph-name="gbreve" unicode="&#x11f;" 
d="M123 0v1536h1522v-1536h-1522zM147 25h1473v1486h-1473v-1486zM1116 500l-235 235l-238 -237l-16 18l237 238l-237 235l16 19l238 -238l235 236l19 -17l-236 -235l236 -238z" />
    <glyph glyph-name="Gdotaccent" unicode="&#x120;" 
d="M123 0v1536h1522v-1536h-1522zM147 25h1473v1486h-1473v-1486zM1116 500l-235 235l-238 -237l-16 18l237 238l-237 235l16 19l238 -238l235 236l19 -17l-236 -235l236 -238z" />
    <glyph glyph-name="gdotaccent" unicode="&#x121;" 
d="M123 0v1536h1522v-1536h-1522zM147 25h1473v1486h-1473v-1486zM1116 500l-235 235l-238 -237l-16 18l237 238l-237 235l16 19l238 -238l235 236l19 -17l-236 -235l236 -238z" />
    <glyph glyph-name="Gcommaaccent" unicode="&#x122;" 
d="M123 0v1536h1522v-1536h-1522zM147 25h1473v1486h-1473v-1486zM1116 500l-235 235l-238 -237l-16 18l237 238l-237 235l16 19l238 -238l235 236l19 -17l-236 -235l236 -238z" />
    <glyph glyph-name="gcommaaccent" unicode="&#x123;" 
d="M123 0v1536h1522v-1536h-1522zM147 25h1473v1486h-1473v-1486zM1116 500l-235 235l-238 -237l-16 18l237 238l-237 235l16 19l238 -238l235 236l19 -17l-236 -235l236 -238z" />
    <glyph glyph-name="Hcircumflex" unicode="&#x124;" 
d="M123 0v1536h1522v-1536h-1522zM147 25h1473v1486h-1473v-1486zM1116 500l-235 235l-238 -237l-16 18l237 238l-237 235l16 19l238 -238l235 236l19 -17l-236 -235l236 -238z" />
    <glyph glyph-name="hcircumflex" unicode="&#x125;" 
d="M123 0v1536h1522v-1536h-1522zM147 25h1473v1486h-1473v-1486zM1116 500l-235 235l-238 -237l-16 18l237 238l-237 235l16 19l238 -238l235 236l19 -17l-236 -235l236 -238z" />
    <glyph glyph-name="Hbar" unicode="&#x126;" 
d="M123 0v1536h1522v-1536h-1522zM147 25h1473v1486h-1473v-1486zM1116 500l-235 235l-238 -237l-16 18l237 238l-237 235l16 19l238 -238l235 236l19 -17l-236 -235l236 -238z" />
    <glyph glyph-name="hbar" unicode="&#x127;" 
d="M123 0v1536h1522v-1536h-1522zM147 25h1473v1486h-1473v-1486zM1116 500l-235 235l-238 -237l-16 18l237 238l-237 235l16 19l238 -238l235 236l19 -17l-236 -235l236 -238z" />
    <glyph glyph-name="Itilde" unicode="&#x128;" 
d="M123 0v1536h1522v-1536h-1522zM147 25h1473v1486h-1473v-1486zM1116 500l-235 235l-238 -237l-16 18l237 238l-237 235l16 19l238 -238l235 236l19 -17l-236 -235l236 -238z" />
    <glyph glyph-name="itilde" unicode="&#x129;" 
d="M123 0v1536h1522v-1536h-1522zM147 25h1473v1486h-1473v-1486zM1116 500l-235 235l-238 -237l-16 18l237 238l-237 235l16 19l238 -238l235 236l19 -17l-236 -235l236 -238z" />
    <glyph glyph-name="Imacron" unicode="&#x12a;" 
d="M123 0v1536h1522v-1536h-1522zM147 25h1473v1486h-1473v-1486zM1116 500l-235 235l-238 -237l-16 18l237 238l-237 235l16 19l238 -238l235 236l19 -17l-236 -235l236 -238z" />
    <glyph glyph-name="imacron" unicode="&#x12b;" 
d="M123 0v1536h1522v-1536h-1522zM147 25h1473v1486h-1473v-1486zM1116 500l-235 235l-238 -237l-16 18l237 238l-237 235l16 19l238 -238l235 236l19 -17l-236 -235l236 -238z" />
    <glyph glyph-name="Ibreve" unicode="&#x12c;" 
d="M123 0v1536h1522v-1536h-1522zM147 25h1473v1486h-1473v-1486zM1116 500l-235 235l-238 -237l-16 18l237 238l-237 235l16 19l238 -238l235 236l19 -17l-236 -235l236 -238z" />
    <glyph glyph-name="ibreve" unicode="&#x12d;" 
d="M123 0v1536h1522v-1536h-1522zM147 25h1473v1486h-1473v-1486zM1116 500l-235 235l-238 -237l-16 18l237 238l-237 235l16 19l238 -238l235 236l19 -17l-236 -235l236 -238z" />
    <glyph glyph-name="Iogonek" unicode="&#x12e;" 
d="M123 0v1536h1522v-1536h-1522zM147 25h1473v1486h-1473v-1486zM1116 500l-235 235l-238 -237l-16 18l237 238l-237 235l16 19l238 -238l235 236l19 -17l-236 -235l236 -238z" />
    <glyph glyph-name="iogonek" unicode="&#x12f;" 
d="M123 0v1536h1522v-1536h-1522zM147 25h1473v1486h-1473v-1486zM1116 500l-235 235l-238 -237l-16 18l237 238l-237 235l16 19l238 -238l235 236l19 -17l-236 -235l236 -238z" />
    <glyph glyph-name="Idotaccent" unicode="&#x130;" 
d="M123 0v1536h1522v-1536h-1522zM147 25h1473v1486h-1473v-1486zM1116 500l-235 235l-238 -237l-16 18l237 238l-237 235l16 19l238 -238l235 236l19 -17l-236 -235l236 -238z" />
    <glyph glyph-name="dotlessi" unicode="&#x131;" 
d="M123 0v1536h1522v-1536h-1522zM147 25h1473v1486h-1473v-1486zM1116 500l-235 235l-238 -237l-16 18l237 238l-237 235l16 19l238 -238l235 236l19 -17l-236 -235l236 -238z" />
    <glyph glyph-name="IJ" unicode="&#x132;" 
d="M123 0v1536h1522v-1536h-1522zM147 25h1473v1486h-1473v-1486zM1116 500l-235 235l-238 -237l-16 18l237 238l-237 235l16 19l238 -238l235 236l19 -17l-236 -235l236 -238z" />
    <glyph glyph-name="ij" unicode="&#x133;" 
d="M123 0v1536h1522v-1536h-1522zM147 25h1473v1486h-1473v-1486zM1116 500l-235 235l-238 -237l-16 18l237 238l-237 235l16 19l238 -238l235 236l19 -17l-236 -235l236 -238z" />
    <glyph glyph-name="Jcircumflex" unicode="&#x134;" 
d="M123 0v1536h1522v-1536h-1522zM147 25h1473v1486h-1473v-1486zM1116 500l-235 235l-238 -237l-16 18l237 238l-237 235l16 19l238 -238l235 236l19 -17l-236 -235l236 -238z" />
    <glyph glyph-name="jcircumflex" unicode="&#x135;" 
d="M123 0v1536h1522v-1536h-1522zM147 25h1473v1486h-1473v-1486zM1116 500l-235 235l-238 -237l-16 18l237 238l-237 235l16 19l238 -238l235 236l19 -17l-236 -235l236 -238z" />
    <glyph glyph-name="Kcommaaccent" unicode="&#x136;" 
d="M123 0v1536h1522v-1536h-1522zM147 25h1473v1486h-1473v-1486zM1116 500l-235 235l-238 -237l-16 18l237 238l-237 235l16 19l238 -238l235 236l19 -17l-236 -235l236 -238z" />
    <glyph glyph-name="kcommaaccent" unicode="&#x137;" 
d="M123 0v1536h1522v-1536h-1522zM147 25h1473v1486h-1473v-1486zM1116 500l-235 235l-238 -237l-16 18l237 238l-237 235l16 19l238 -238l235 236l19 -17l-236 -235l236 -238z" />
    <glyph glyph-name="Lacute" unicode="&#x139;" 
d="M123 0v1536h1522v-1536h-1522zM147 25h1473v1486h-1473v-1486zM1116 500l-235 235l-238 -237l-16 18l237 238l-237 235l16 19l238 -238l235 236l19 -17l-236 -235l236 -238z" />
    <glyph glyph-name="lacute" unicode="&#x13a;" 
d="M123 0v1536h1522v-1536h-1522zM147 25h1473v1486h-1473v-1486zM1116 500l-235 235l-238 -237l-16 18l237 238l-237 235l16 19l238 -238l235 236l19 -17l-236 -235l236 -238z" />
    <glyph glyph-name="Lcommaaccent" unicode="&#x13b;" 
d="M123 0v1536h1522v-1536h-1522zM147 25h1473v1486h-1473v-1486zM1116 500l-235 235l-238 -237l-16 18l237 238l-237 235l16 19l238 -238l235 236l19 -17l-236 -235l236 -238z" />
    <glyph glyph-name="lcommaaccent" unicode="&#x13c;" 
d="M123 0v1536h1522v-1536h-1522zM147 25h1473v1486h-1473v-1486zM1116 500l-235 235l-238 -237l-16 18l237 238l-237 235l16 19l238 -238l235 236l19 -17l-236 -235l236 -238z" />
    <glyph glyph-name="Lcaron" unicode="&#x13d;" 
d="M123 0v1536h1522v-1536h-1522zM147 25h1473v1486h-1473v-1486zM1116 500l-235 235l-238 -237l-16 18l237 238l-237 235l16 19l238 -238l235 236l19 -17l-236 -235l236 -238z" />
    <glyph glyph-name="lcaron" unicode="&#x13e;" 
d="M123 0v1536h1522v-1536h-1522zM147 25h1473v1486h-1473v-1486zM1116 500l-235 235l-238 -237l-16 18l237 238l-237 235l16 19l238 -238l235 236l19 -17l-236 -235l236 -238z" />
    <glyph glyph-name="Ldot" unicode="&#x13f;" 
d="M123 0v1536h1522v-1536h-1522zM147 25h1473v1486h-1473v-1486zM1116 500l-235 235l-238 -237l-16 18l237 238l-237 235l16 19l238 -238l235 236l19 -17l-236 -235l236 -238z" />
    <glyph glyph-name="ldot" unicode="&#x140;" 
d="M123 0v1536h1522v-1536h-1522zM147 25h1473v1486h-1473v-1486zM1116 500l-235 235l-238 -237l-16 18l237 238l-237 235l16 19l238 -238l235 236l19 -17l-236 -235l236 -238z" />
    <glyph glyph-name="Lslash" unicode="&#x141;" 
d="M123 0v1536h1522v-1536h-1522zM147 25h1473v1486h-1473v-1486zM1116 500l-235 235l-238 -237l-16 18l237 238l-237 235l16 19l238 -238l235 236l19 -17l-236 -235l236 -238z" />
    <glyph glyph-name="lslash" unicode="&#x142;" 
d="M123 0v1536h1522v-1536h-1522zM147 25h1473v1486h-1473v-1486zM1116 500l-235 235l-238 -237l-16 18l237 238l-237 235l16 19l238 -238l235 236l19 -17l-236 -235l236 -238z" />
    <glyph glyph-name="Nacute" unicode="&#x143;" 
d="M123 0v1536h1522v-1536h-1522zM147 25h1473v1486h-1473v-1486zM1116 500l-235 235l-238 -237l-16 18l237 238l-237 235l16 19l238 -238l235 236l19 -17l-236 -235l236 -238z" />
    <glyph glyph-name="nacute" unicode="&#x144;" 
d="M123 0v1536h1522v-1536h-1522zM147 25h1473v1486h-1473v-1486zM1116 500l-235 235l-238 -237l-16 18l237 238l-237 235l16 19l238 -238l235 236l19 -17l-236 -235l236 -238z" />
    <glyph glyph-name="Ncommaaccent" unicode="&#x145;" 
d="M123 0v1536h1522v-1536h-1522zM147 25h1473v1486h-1473v-1486zM1116 500l-235 235l-238 -237l-16 18l237 238l-237 235l16 19l238 -238l235 236l19 -17l-236 -235l236 -238z" />
    <glyph glyph-name="ncommaaccent" unicode="&#x146;" 
d="M123 0v1536h1522v-1536h-1522zM147 25h1473v1486h-1473v-1486zM1116 500l-235 235l-238 -237l-16 18l237 238l-237 235l16 19l238 -238l235 236l19 -17l-236 -235l236 -238z" />
    <glyph glyph-name="Ncaron" unicode="&#x147;" 
d="M123 0v1536h1522v-1536h-1522zM147 25h1473v1486h-1473v-1486zM1116 500l-235 235l-238 -237l-16 18l237 238l-237 235l16 19l238 -238l235 236l19 -17l-236 -235l236 -238z" />
    <glyph glyph-name="ncaron" unicode="&#x148;" 
d="M123 0v1536h1522v-1536h-1522zM147 25h1473v1486h-1473v-1486zM1116 500l-235 235l-238 -237l-16 18l237 238l-237 235l16 19l238 -238l235 236l19 -17l-236 -235l236 -238z" />
    <glyph glyph-name="Eng" unicode="&#x14a;" 
d="M123 0v1536h1522v-1536h-1522zM147 25h1473v1486h-1473v-1486zM1116 500l-235 235l-238 -237l-16 18l237 238l-237 235l16 19l238 -238l235 236l19 -17l-236 -235l236 -238z" />
    <glyph glyph-name="eng" unicode="&#x14b;" 
d="M123 0v1536h1522v-1536h-1522zM147 25h1473v1486h-1473v-1486zM1116 500l-235 235l-238 -237l-16 18l237 238l-237 235l16 19l238 -238l235 236l19 -17l-236 -235l236 -238z" />
    <glyph glyph-name="Omacron" unicode="&#x14c;" 
d="M123 0v1536h1522v-1536h-1522zM147 25h1473v1486h-1473v-1486zM1116 500l-235 235l-238 -237l-16 18l237 238l-237 235l16 19l238 -238l235 236l19 -17l-236 -235l236 -238z" />
    <glyph glyph-name="omacron" unicode="&#x14d;" 
d="M123 0v1536h1522v-1536h-1522zM147 25h1473v1486h-1473v-1486zM1116 500l-235 235l-238 -237l-16 18l237 238l-237 235l16 19l238 -238l235 236l19 -17l-236 -235l236 -238z" />
    <glyph glyph-name="Obreve" unicode="&#x14e;" 
d="M123 0v1536h1522v-1536h-1522zM147 25h1473v1486h-1473v-1486zM1116 500l-235 235l-238 -237l-16 18l237 238l-237 235l16 19l238 -238l235 236l19 -17l-236 -235l236 -238z" />
    <glyph glyph-name="obreve" unicode="&#x14f;" 
d="M123 0v1536h1522v-1536h-1522zM147 25h1473v1486h-1473v-1486zM1116 500l-235 235l-238 -237l-16 18l237 238l-237 235l16 19l238 -238l235 236l19 -17l-236 -235l236 -238z" />
    <glyph glyph-name="Ohungarumlaut" unicode="&#x150;" 
d="M123 0v1536h1522v-1536h-1522zM147 25h1473v1486h-1473v-1486zM1116 500l-235 235l-238 -237l-16 18l237 238l-237 235l16 19l238 -238l235 236l19 -17l-236 -235l236 -238z" />
    <glyph glyph-name="ohungarumlaut" unicode="&#x151;" 
d="M123 0v1536h1522v-1536h-1522zM147 25h1473v1486h-1473v-1486zM1116 500l-235 235l-238 -237l-16 18l237 238l-237 235l16 19l238 -238l235 236l19 -17l-236 -235l236 -238z" />
    <glyph glyph-name="OE" unicode="&#x152;" 
d="M123 0v1536h1522v-1536h-1522zM147 25h1473v1486h-1473v-1486zM1116 500l-235 235l-238 -237l-16 18l237 238l-237 235l16 19l238 -238l235 236l19 -17l-236 -235l236 -238z" />
    <glyph glyph-name="oe" unicode="&#x153;" 
d="M123 0v1536h1522v-1536h-1522zM147 25h1473v1486h-1473v-1486zM1116 500l-235 235l-238 -237l-16 18l237 238l-237 235l16 19l238 -238l235 236l19 -17l-236 -235l236 -238z" />
    <glyph glyph-name="Racute" unicode="&#x154;" 
d="M123 0v1536h1522v-1536h-1522zM147 25h1473v1486h-1473v-1486zM1116 500l-235 235l-238 -237l-16 18l237 238l-237 235l16 19l238 -238l235 236l19 -17l-236 -235l236 -238z" />
    <glyph glyph-name="racute" unicode="&#x155;" 
d="M123 0v1536h1522v-1536h-1522zM147 25h1473v1486h-1473v-1486zM1116 500l-235 235l-238 -237l-16 18l237 238l-237 235l16 19l238 -238l235 236l19 -17l-236 -235l236 -238z" />
    <glyph glyph-name="Rcommaaccent" unicode="&#x156;" 
d="M123 0v1536h1522v-1536h-1522zM147 25h1473v1486h-1473v-1486zM1116 500l-235 235l-238 -237l-16 18l237 238l-237 235l16 19l238 -238l235 236l19 -17l-236 -235l236 -238z" />
    <glyph glyph-name="rcommaaccent" unicode="&#x157;" 
d="M123 0v1536h1522v-1536h-1522zM147 25h1473v1486h-1473v-1486zM1116 500l-235 235l-238 -237l-16 18l237 238l-237 235l16 19l238 -238l235 236l19 -17l-236 -235l236 -238z" />
    <glyph glyph-name="Rcaron" unicode="&#x158;" 
d="M123 0v1536h1522v-1536h-1522zM147 25h1473v1486h-1473v-1486zM1116 500l-235 235l-238 -237l-16 18l237 238l-237 235l16 19l238 -238l235 236l19 -17l-236 -235l236 -238z" />
    <glyph glyph-name="rcaron" unicode="&#x159;" 
d="M123 0v1536h1522v-1536h-1522zM147 25h1473v1486h-1473v-1486zM1116 500l-235 235l-238 -237l-16 18l237 238l-237 235l16 19l238 -238l235 236l19 -17l-236 -235l236 -238z" />
    <glyph glyph-name="Sacute" unicode="&#x15a;" 
d="M123 0v1536h1522v-1536h-1522zM147 25h1473v1486h-1473v-1486zM1116 500l-235 235l-238 -237l-16 18l237 238l-237 235l16 19l238 -238l235 236l19 -17l-236 -235l236 -238z" />
    <glyph glyph-name="sacute" unicode="&#x15b;" 
d="M123 0v1536h1522v-1536h-1522zM147 25h1473v1486h-1473v-1486zM1116 500l-235 235l-238 -237l-16 18l237 238l-237 235l16 19l238 -238l235 236l19 -17l-236 -235l236 -238z" />
    <glyph glyph-name="Scircumflex" unicode="&#x15c;" 
d="M123 0v1536h1522v-1536h-1522zM147 25h1473v1486h-1473v-1486zM1116 500l-235 235l-238 -237l-16 18l237 238l-237 235l16 19l238 -238l235 236l19 -17l-236 -235l236 -238z" />
    <glyph glyph-name="scircumflex" unicode="&#x15d;" 
d="M123 0v1536h1522v-1536h-1522zM147 25h1473v1486h-1473v-1486zM1116 500l-235 235l-238 -237l-16 18l237 238l-237 235l16 19l238 -238l235 236l19 -17l-236 -235l236 -238z" />
    <glyph glyph-name="Scedilla" unicode="&#x15e;" 
d="M123 0v1536h1522v-1536h-1522zM147 25h1473v1486h-1473v-1486zM1116 500l-235 235l-238 -237l-16 18l237 238l-237 235l16 19l238 -238l235 236l19 -17l-236 -235l236 -238z" />
    <glyph glyph-name="scedilla" unicode="&#x15f;" 
d="M123 0v1536h1522v-1536h-1522zM147 25h1473v1486h-1473v-1486zM1116 500l-235 235l-238 -237l-16 18l237 238l-237 235l16 19l238 -238l235 236l19 -17l-236 -235l236 -238z" />
    <glyph glyph-name="Scaron" unicode="&#x160;" 
d="M123 0v1536h1522v-1536h-1522zM147 25h1473v1486h-1473v-1486zM1116 500l-235 235l-238 -237l-16 18l237 238l-237 235l16 19l238 -238l235 236l19 -17l-236 -235l236 -238z" />
    <glyph glyph-name="scaron" unicode="&#x161;" 
d="M123 0v1536h1522v-1536h-1522zM147 25h1473v1486h-1473v-1486zM1116 500l-235 235l-238 -237l-16 18l237 238l-237 235l16 19l238 -238l235 236l19 -17l-236 -235l236 -238z" />
    <glyph glyph-name="uni0162" unicode="&#x162;" 
d="M123 0v1536h1522v-1536h-1522zM147 25h1473v1486h-1473v-1486zM1116 500l-235 235l-238 -237l-16 18l237 238l-237 235l16 19l238 -238l235 236l19 -17l-236 -235l236 -238z" />
    <glyph glyph-name="uni0163" unicode="&#x163;" 
d="M123 0v1536h1522v-1536h-1522zM147 25h1473v1486h-1473v-1486zM1116 500l-235 235l-238 -237l-16 18l237 238l-237 235l16 19l238 -238l235 236l19 -17l-236 -235l236 -238z" />
    <glyph glyph-name="Tcaron" unicode="&#x164;" 
d="M123 0v1536h1522v-1536h-1522zM147 25h1473v1486h-1473v-1486zM1116 500l-235 235l-238 -237l-16 18l237 238l-237 235l16 19l238 -238l235 236l19 -17l-236 -235l236 -238z" />
    <glyph glyph-name="tcaron" unicode="&#x165;" 
d="M123 0v1536h1522v-1536h-1522zM147 25h1473v1486h-1473v-1486zM1116 500l-235 235l-238 -237l-16 18l237 238l-237 235l16 19l238 -238l235 236l19 -17l-236 -235l236 -238z" />
    <glyph glyph-name="Tbar" unicode="&#x166;" 
d="M123 0v1536h1522v-1536h-1522zM147 25h1473v1486h-1473v-1486zM1116 500l-235 235l-238 -237l-16 18l237 238l-237 235l16 19l238 -238l235 236l19 -17l-236 -235l236 -238z" />
    <glyph glyph-name="tbar" unicode="&#x167;" 
d="M123 0v1536h1522v-1536h-1522zM147 25h1473v1486h-1473v-1486zM1116 500l-235 235l-238 -237l-16 18l237 238l-237 235l16 19l238 -238l235 236l19 -17l-236 -235l236 -238z" />
    <glyph glyph-name="Utilde" unicode="&#x168;" 
d="M123 0v1536h1522v-1536h-1522zM147 25h1473v1486h-1473v-1486zM1116 500l-235 235l-238 -237l-16 18l237 238l-237 235l16 19l238 -238l235 236l19 -17l-236 -235l236 -238z" />
    <glyph glyph-name="utilde" unicode="&#x169;" 
d="M123 0v1536h1522v-1536h-1522zM147 25h1473v1486h-1473v-1486zM1116 500l-235 235l-238 -237l-16 18l237 238l-237 235l16 19l238 -238l235 236l19 -17l-236 -235l236 -238z" />
    <glyph glyph-name="Umacron" unicode="&#x16a;" 
d="M123 0v1536h1522v-1536h-1522zM147 25h1473v1486h-1473v-1486zM1116 500l-235 235l-238 -237l-16 18l237 238l-237 235l16 19l238 -238l235 236l19 -17l-236 -235l236 -238z" />
    <glyph glyph-name="umacron" unicode="&#x16b;" 
d="M123 0v1536h1522v-1536h-1522zM147 25h1473v1486h-1473v-1486zM1116 500l-235 235l-238 -237l-16 18l237 238l-237 235l16 19l238 -238l235 236l19 -17l-236 -235l236 -238z" />
    <glyph glyph-name="Ubreve" unicode="&#x16c;" 
d="M123 0v1536h1522v-1536h-1522zM147 25h1473v1486h-1473v-1486zM1116 500l-235 235l-238 -237l-16 18l237 238l-237 235l16 19l238 -238l235 236l19 -17l-236 -235l236 -238z" />
    <glyph glyph-name="ubreve" unicode="&#x16d;" 
d="M123 0v1536h1522v-1536h-1522zM147 25h1473v1486h-1473v-1486zM1116 500l-235 235l-238 -237l-16 18l237 238l-237 235l16 19l238 -238l235 236l19 -17l-236 -235l236 -238z" />
    <glyph glyph-name="Uring" unicode="&#x16e;" 
d="M123 0v1536h1522v-1536h-1522zM147 25h1473v1486h-1473v-1486zM1116 500l-235 235l-238 -237l-16 18l237 238l-237 235l16 19l238 -238l235 236l19 -17l-236 -235l236 -238z" />
    <glyph glyph-name="uring" unicode="&#x16f;" 
d="M123 0v1536h1522v-1536h-1522zM147 25h1473v1486h-1473v-1486zM1116 500l-235 235l-238 -237l-16 18l237 238l-237 235l16 19l238 -238l235 236l19 -17l-236 -235l236 -238z" />
    <glyph glyph-name="Uhungarumlaut" unicode="&#x170;" 
d="M123 0v1536h1522v-1536h-1522zM147 25h1473v1486h-1473v-1486zM1116 500l-235 235l-238 -237l-16 18l237 238l-237 235l16 19l238 -238l235 236l19 -17l-236 -235l236 -238z" />
    <glyph glyph-name="uhungarumlaut" unicode="&#x171;" 
d="M123 0v1536h1522v-1536h-1522zM147 25h1473v1486h-1473v-1486zM1116 500l-235 235l-238 -237l-16 18l237 238l-237 235l16 19l238 -238l235 236l19 -17l-236 -235l236 -238z" />
    <glyph glyph-name="Uogonek" unicode="&#x172;" 
d="M123 0v1536h1522v-1536h-1522zM147 25h1473v1486h-1473v-1486zM1116 500l-235 235l-238 -237l-16 18l237 238l-237 235l16 19l238 -238l235 236l19 -17l-236 -235l236 -238z" />
    <glyph glyph-name="uogonek" unicode="&#x173;" 
d="M123 0v1536h1522v-1536h-1522zM147 25h1473v1486h-1473v-1486zM1116 500l-235 235l-238 -237l-16 18l237 238l-237 235l16 19l238 -238l235 236l19 -17l-236 -235l236 -238z" />
    <glyph glyph-name="Wcircumflex" unicode="&#x174;" 
d="M123 0v1536h1522v-1536h-1522zM147 25h1473v1486h-1473v-1486zM1116 500l-235 235l-238 -237l-16 18l237 238l-237 235l16 19l238 -238l235 236l19 -17l-236 -235l236 -238z" />
    <glyph glyph-name="wcircumflex" unicode="&#x175;" 
d="M123 0v1536h1522v-1536h-1522zM147 25h1473v1486h-1473v-1486zM1116 500l-235 235l-238 -237l-16 18l237 238l-237 235l16 19l238 -238l235 236l19 -17l-236 -235l236 -238z" />
    <glyph glyph-name="Ycircumflex" unicode="&#x176;" 
d="M123 0v1536h1522v-1536h-1522zM147 25h1473v1486h-1473v-1486zM1116 500l-235 235l-238 -237l-16 18l237 238l-237 235l16 19l238 -238l235 236l19 -17l-236 -235l236 -238z" />
    <glyph glyph-name="ycircumflex" unicode="&#x177;" 
d="M123 0v1536h1522v-1536h-1522zM147 25h1473v1486h-1473v-1486zM1116 500l-235 235l-238 -237l-16 18l237 238l-237 235l16 19l238 -238l235 236l19 -17l-236 -235l236 -238z" />
    <glyph glyph-name="Ydieresis" unicode="&#x178;" 
d="M123 0v1536h1522v-1536h-1522zM147 25h1473v1486h-1473v-1486zM1116 500l-235 235l-238 -237l-16 18l237 238l-237 235l16 19l238 -238l235 236l19 -17l-236 -235l236 -238z" />
    <glyph glyph-name="Zacute" unicode="&#x179;" 
d="M123 0v1536h1522v-1536h-1522zM147 25h1473v1486h-1473v-1486zM1116 500l-235 235l-238 -237l-16 18l237 238l-237 235l16 19l238 -238l235 236l19 -17l-236 -235l236 -238z" />
    <glyph glyph-name="zacute" unicode="&#x17a;" 
d="M123 0v1536h1522v-1536h-1522zM147 25h1473v1486h-1473v-1486zM1116 500l-235 235l-238 -237l-16 18l237 238l-237 235l16 19l238 -238l235 236l19 -17l-236 -235l236 -238z" />
    <glyph glyph-name="Zdotaccent" unicode="&#x17b;" 
d="M123 0v1536h1522v-1536h-1522zM147 25h1473v1486h-1473v-1486zM1116 500l-235 235l-238 -237l-16 18l237 238l-237 235l16 19l238 -238l235 236l19 -17l-236 -235l236 -238z" />
    <glyph glyph-name="zdotaccent" unicode="&#x17c;" 
d="M123 0v1536h1522v-1536h-1522zM147 25h1473v1486h-1473v-1486zM1116 500l-235 235l-238 -237l-16 18l237 238l-237 235l16 19l238 -238l235 236l19 -17l-236 -235l236 -238z" />
    <glyph glyph-name="Zcaron" unicode="&#x17d;" 
d="M123 0v1536h1522v-1536h-1522zM147 25h1473v1486h-1473v-1486zM1116 500l-235 235l-238 -237l-16 18l237 238l-237 235l16 19l238 -238l235 236l19 -17l-236 -235l236 -238z" />
    <glyph glyph-name="zcaron" unicode="&#x17e;" 
d="M123 0v1536h1522v-1536h-1522zM147 25h1473v1486h-1473v-1486zM1116 500l-235 235l-238 -237l-16 18l237 238l-237 235l16 19l238 -238l235 236l19 -17l-236 -235l236 -238z" />
    <glyph glyph-name="florin" unicode="&#x192;" 
d="M123 0v1536h1522v-1536h-1522zM147 25h1473v1486h-1473v-1486zM1116 500l-235 235l-238 -237l-16 18l237 238l-237 235l16 19l238 -238l235 236l19 -17l-236 -235l236 -238z" />
    <glyph glyph-name="Aringacute" unicode="&#x1fa;" 
d="M123 0v1536h1522v-1536h-1522zM147 25h1473v1486h-1473v-1486zM1116 500l-235 235l-238 -237l-16 18l237 238l-237 235l16 19l238 -238l235 236l19 -17l-236 -235l236 -238z" />
    <glyph glyph-name="aringacute" unicode="&#x1fb;" 
d="M123 0v1536h1522v-1536h-1522zM147 25h1473v1486h-1473v-1486zM1116 500l-235 235l-238 -237l-16 18l237 238l-237 235l16 19l238 -238l235 236l19 -17l-236 -235l236 -238z" />
    <glyph glyph-name="AEacute" unicode="&#x1fc;" 
d="M123 0v1536h1522v-1536h-1522zM147 25h1473v1486h-1473v-1486zM1116 500l-235 235l-238 -237l-16 18l237 238l-237 235l16 19l238 -238l235 236l19 -17l-236 -235l236 -238z" />
    <glyph glyph-name="aeacute" unicode="&#x1fd;" 
d="M123 0v1536h1522v-1536h-1522zM147 25h1473v1486h-1473v-1486zM1116 500l-235 235l-238 -237l-16 18l237 238l-237 235l16 19l238 -238l235 236l19 -17l-236 -235l236 -238z" />
    <glyph glyph-name="Oslashacute" unicode="&#x1fe;" 
d="M123 0v1536h1522v-1536h-1522zM147 25h1473v1486h-1473v-1486zM1116 500l-235 235l-238 -237l-16 18l237 238l-237 235l16 19l238 -238l235 236l19 -17l-236 -235l236 -238z" />
    <glyph glyph-name="oslashacute" unicode="&#x1ff;" 
d="M123 0v1536h1522v-1536h-1522zM147 25h1473v1486h-1473v-1486zM1116 500l-235 235l-238 -237l-16 18l237 238l-237 235l16 19l238 -238l235 236l19 -17l-236 -235l236 -238z" />
    <glyph glyph-name="Scommaaccent" unicode="&#x218;" 
d="M123 0v1536h1522v-1536h-1522zM147 25h1473v1486h-1473v-1486zM1116 500l-235 235l-238 -237l-16 18l237 238l-237 235l16 19l238 -238l235 236l19 -17l-236 -235l236 -238z" />
    <glyph glyph-name="scommaaccent" unicode="&#x219;" 
d="M123 0v1536h1522v-1536h-1522zM147 25h1473v1486h-1473v-1486zM1116 500l-235 235l-238 -237l-16 18l237 238l-237 235l16 19l238 -238l235 236l19 -17l-236 -235l236 -238z" />
    <glyph glyph-name="uni021A" unicode="&#x21a;" 
d="M123 0v1536h1522v-1536h-1522zM147 25h1473v1486h-1473v-1486zM1116 500l-235 235l-238 -237l-16 18l237 238l-237 235l16 19l238 -238l235 236l19 -17l-236 -235l236 -238z" />
    <glyph glyph-name="uni021B" unicode="&#x21b;" 
d="M123 0v1536h1522v-1536h-1522zM147 25h1473v1486h-1473v-1486zM1116 500l-235 235l-238 -237l-16 18l237 238l-237 235l16 19l238 -238l235 236l19 -17l-236 -235l236 -238z" />
    <glyph glyph-name="circumflex" unicode="&#x2c6;" 
d="M123 0v1536h1522v-1536h-1522zM147 25h1473v1486h-1473v-1486zM1116 500l-235 235l-238 -237l-16 18l237 238l-237 235l16 19l238 -238l235 236l19 -17l-236 -235l236 -238z" />
    <glyph glyph-name="caron" unicode="&#x2c7;" 
d="M123 0v1536h1522v-1536h-1522zM147 25h1473v1486h-1473v-1486zM1116 500l-235 235l-238 -237l-16 18l237 238l-237 235l16 19l238 -238l235 236l19 -17l-236 -235l236 -238z" />
    <glyph glyph-name="breve" unicode="&#x2d8;" 
d="M123 0v1536h1522v-1536h-1522zM147 25h1473v1486h-1473v-1486zM1116 500l-235 235l-238 -237l-16 18l237 238l-237 235l16 19l238 -238l235 236l19 -17l-236 -235l236 -238z" />
    <glyph glyph-name="dotaccent" unicode="&#x2d9;" 
d="M123 0v1536h1522v-1536h-1522zM147 25h1473v1486h-1473v-1486zM1116 500l-235 235l-238 -237l-16 18l237 238l-237 235l16 19l238 -238l235 236l19 -17l-236 -235l236 -238z" />
    <glyph glyph-name="ring" unicode="&#x2da;" 
d="M123 0v1536h1522v-1536h-1522zM147 25h1473v1486h-1473v-1486zM1116 500l-235 235l-238 -237l-16 18l237 238l-237 235l16 19l238 -238l235 236l19 -17l-236 -235l236 -238z" />
    <glyph glyph-name="ogonek" unicode="&#x2db;" 
d="M123 0v1536h1522v-1536h-1522zM147 25h1473v1486h-1473v-1486zM1116 500l-235 235l-238 -237l-16 18l237 238l-237 235l16 19l238 -238l235 236l19 -17l-236 -235l236 -238z" />
    <glyph glyph-name="tilde" unicode="&#x2dc;" 
d="M123 0v1536h1522v-1536h-1522zM147 25h1473v1486h-1473v-1486zM1116 500l-235 235l-238 -237l-16 18l237 238l-237 235l16 19l238 -238l235 236l19 -17l-236 -235l236 -238z" />
    <glyph glyph-name="hungarumlaut" unicode="&#x2dd;" 
d="M123 0v1536h1522v-1536h-1522zM147 25h1473v1486h-1473v-1486zM1116 500l-235 235l-238 -237l-16 18l237 238l-237 235l16 19l238 -238l235 236l19 -17l-236 -235l236 -238z" />
    <glyph glyph-name="gravecomb" unicode="&#x300;" 
d="M123 0v1536h1522v-1536h-1522zM147 25h1473v1486h-1473v-1486zM1116 500l-235 235l-238 -237l-16 18l237 238l-237 235l16 19l238 -238l235 236l19 -17l-236 -235l236 -238z" />
    <glyph glyph-name="acutecomb" unicode="&#x301;" 
d="M123 0v1536h1522v-1536h-1522zM147 25h1473v1486h-1473v-1486zM1116 500l-235 235l-238 -237l-16 18l237 238l-237 235l16 19l238 -238l235 236l19 -17l-236 -235l236 -238z" />
    <glyph glyph-name="circumflexcomb" unicode="&#x302;" 
d="M123 0v1536h1522v-1536h-1522zM147 25h1473v1486h-1473v-1486zM1116 500l-235 235l-238 -237l-16 18l237 238l-237 235l16 19l238 -238l235 236l19 -17l-236 -235l236 -238z" />
    <glyph glyph-name="tildecomb" unicode="&#x303;" 
d="M123 0v1536h1522v-1536h-1522zM147 25h1473v1486h-1473v-1486zM1116 500l-235 235l-238 -237l-16 18l237 238l-237 235l16 19l238 -238l235 236l19 -17l-236 -235l236 -238z" />
    <glyph glyph-name="macroncomb" unicode="&#x304;" 
d="M123 0v1536h1522v-1536h-1522zM147 25h1473v1486h-1473v-1486zM1116 500l-235 235l-238 -237l-16 18l237 238l-237 235l16 19l238 -238l235 236l19 -17l-236 -235l236 -238z" />
    <glyph glyph-name="brevecomb" unicode="&#x306;" 
d="M123 0v1536h1522v-1536h-1522zM147 25h1473v1486h-1473v-1486zM1116 500l-235 235l-238 -237l-16 18l237 238l-237 235l16 19l238 -238l235 236l19 -17l-236 -235l236 -238z" />
    <glyph glyph-name="dotaccentcomb" unicode="&#x307;" 
d="M123 0v1536h1522v-1536h-1522zM147 25h1473v1486h-1473v-1486zM1116 500l-235 235l-238 -237l-16 18l237 238l-237 235l16 19l238 -238l235 236l19 -17l-236 -235l236 -238z" />
    <glyph glyph-name="dieresiscomb" unicode="&#x308;" 
d="M123 0v1536h1522v-1536h-1522zM147 25h1473v1486h-1473v-1486zM1116 500l-235 235l-238 -237l-16 18l237 238l-237 235l16 19l238 -238l235 236l19 -17l-236 -235l236 -238z" />
    <glyph glyph-name="ringcomb" unicode="&#x30a;" 
d="M123 0v1536h1522v-1536h-1522zM147 25h1473v1486h-1473v-1486zM1116 500l-235 235l-238 -237l-16 18l237 238l-237 235l16 19l238 -238l235 236l19 -17l-236 -235l236 -238z" />
    <glyph glyph-name="hungarumlautcomb" unicode="&#x30b;" 
d="M123 0v1536h1522v-1536h-1522zM147 25h1473v1486h-1473v-1486zM1116 500l-235 235l-238 -237l-16 18l237 238l-237 235l16 19l238 -238l235 236l19 -17l-236 -235l236 -238z" />
    <glyph glyph-name="caroncomb" unicode="&#x30c;" 
d="M123 0v1536h1522v-1536h-1522zM147 25h1473v1486h-1473v-1486zM1116 500l-235 235l-238 -237l-16 18l237 238l-237 235l16 19l238 -238l235 236l19 -17l-236 -235l236 -238z" />
    <glyph glyph-name="commaaccentcomb" unicode="&#x326;" 
d="M123 0v1536h1522v-1536h-1522zM147 25h1473v1486h-1473v-1486zM1116 500l-235 235l-238 -237l-16 18l237 238l-237 235l16 19l238 -238l235 236l19 -17l-236 -235l236 -238z" />
    <glyph glyph-name="cedillacomb" unicode="&#x327;" 
d="M123 0v1536h1522v-1536h-1522zM147 25h1473v1486h-1473v-1486zM1116 500l-235 235l-238 -237l-16 18l237 238l-237 235l16 19l238 -238l235 236l19 -17l-236 -235l236 -238z" />
    <glyph glyph-name="ogonekcomb" unicode="&#x328;" 
d="M123 0v1536h1522v-1536h-1522zM147 25h1473v1486h-1473v-1486zM1116 500l-235 235l-238 -237l-16 18l237 238l-237 235l16 19l238 -238l235 236l19 -17l-236 -235l236 -238z" />
    <glyph glyph-name="pi" unicode="&#x3c0;" 
d="M123 0v1536h1522v-1536h-1522zM147 25h1473v1486h-1473v-1486zM1116 500l-235 235l-238 -237l-16 18l237 238l-237 235l16 19l238 -238l235 236l19 -17l-236 -235l236 -238z" />
    <glyph glyph-name="Wgrave" unicode="&#x1e80;" 
d="M123 0v1536h1522v-1536h-1522zM147 25h1473v1486h-1473v-1486zM1116 500l-235 235l-238 -237l-16 18l237 238l-237 235l16 19l238 -238l235 236l19 -17l-236 -235l236 -238z" />
    <glyph glyph-name="wgrave" unicode="&#x1e81;" 
d="M123 0v1536h1522v-1536h-1522zM147 25h1473v1486h-1473v-1486zM1116 500l-235 235l-238 -237l-16 18l237 238l-237 235l16 19l238 -238l235 236l19 -17l-236 -235l236 -238z" />
    <glyph glyph-name="Wacute" unicode="&#x1e82;" 
d="M123 0v1536h1522v-1536h-1522zM147 25h1473v1486h-1473v-1486zM1116 500l-235 235l-238 -237l-16 18l237 238l-237 235l16 19l238 -238l235 236l19 -17l-236 -235l236 -238z" />
    <glyph glyph-name="wacute" unicode="&#x1e83;" 
d="M123 0v1536h1522v-1536h-1522zM147 25h1473v1486h-1473v-1486zM1116 500l-235 235l-238 -237l-16 18l237 238l-237 235l16 19l238 -238l235 236l19 -17l-236 -235l236 -238z" />
    <glyph glyph-name="Wdieresis" unicode="&#x1e84;" 
d="M123 0v1536h1522v-1536h-1522zM147 25h1473v1486h-1473v-1486zM1116 500l-235 235l-238 -237l-16 18l237 238l-237 235l16 19l238 -238l235 236l19 -17l-236 -235l236 -238z" />
    <glyph glyph-name="wdieresis" unicode="&#x1e85;" 
d="M123 0v1536h1522v-1536h-1522zM147 25h1473v1486h-1473v-1486zM1116 500l-235 235l-238 -237l-16 18l237 238l-237 235l16 19l238 -238l235 236l19 -17l-236 -235l236 -238z" />
    <glyph glyph-name="uni1E9E" unicode="&#x1e9e;" 
d="M123 0v1536h1522v-1536h-1522zM147 25h1473v1486h-1473v-1486zM1116 500l-235 235l-238 -237l-16 18l237 238l-237 235l16 19l238 -238l235 236l19 -17l-236 -235l236 -238z" />
    <glyph glyph-name="Ygrave" unicode="&#x1ef2;" 
d="M123 0v1536h1522v-1536h-1522zM147 25h1473v1486h-1473v-1486zM1116 500l-235 235l-238 -237l-16 18l237 238l-237 235l16 19l238 -238l235 236l19 -17l-236 -235l236 -238z" />
    <glyph glyph-name="ygrave" unicode="&#x1ef3;" 
d="M123 0v1536h1522v-1536h-1522zM147 25h1473v1486h-1473v-1486zM1116 500l-235 235l-238 -237l-16 18l237 238l-237 235l16 19l238 -238l235 236l19 -17l-236 -235l236 -238z" />
    <glyph glyph-name="endash" unicode="&#x2013;" 
d="M123 0v1536h1522v-1536h-1522zM147 25h1473v1486h-1473v-1486zM1116 500l-235 235l-238 -237l-16 18l237 238l-237 235l16 19l238 -238l235 236l19 -17l-236 -235l236 -238z" />
    <glyph glyph-name="emdash" unicode="&#x2014;" 
d="M123 0v1536h1522v-1536h-1522zM147 25h1473v1486h-1473v-1486zM1116 500l-235 235l-238 -237l-16 18l237 238l-237 235l16 19l238 -238l235 236l19 -17l-236 -235l236 -238z" />
    <glyph glyph-name="quoteleft" unicode="&#x2018;" 
d="M123 0v1536h1522v-1536h-1522zM147 25h1473v1486h-1473v-1486zM1116 500l-235 235l-238 -237l-16 18l237 238l-237 235l16 19l238 -238l235 236l19 -17l-236 -235l236 -238z" />
    <glyph glyph-name="quoteright" unicode="&#x2019;" 
d="M123 0v1536h1522v-1536h-1522zM147 25h1473v1486h-1473v-1486zM1116 500l-235 235l-238 -237l-16 18l237 238l-237 235l16 19l238 -238l235 236l19 -17l-236 -235l236 -238z" />
    <glyph glyph-name="quotesinglbase" unicode="&#x201a;" 
d="M123 0v1536h1522v-1536h-1522zM147 25h1473v1486h-1473v-1486zM1116 500l-235 235l-238 -237l-16 18l237 238l-237 235l16 19l238 -238l235 236l19 -17l-236 -235l236 -238z" />
    <glyph glyph-name="quotedblleft" unicode="&#x201c;" 
d="M123 0v1536h1522v-1536h-1522zM147 25h1473v1486h-1473v-1486zM1116 500l-235 235l-238 -237l-16 18l237 238l-237 235l16 19l238 -238l235 236l19 -17l-236 -235l236 -238z" />
    <glyph glyph-name="quotedblright" unicode="&#x201d;" 
d="M123 0v1536h1522v-1536h-1522zM147 25h1473v1486h-1473v-1486zM1116 500l-235 235l-238 -237l-16 18l237 238l-237 235l16 19l238 -238l235 236l19 -17l-236 -235l236 -238z" />
    <glyph glyph-name="quotedblbase" unicode="&#x201e;" 
d="M123 0v1536h1522v-1536h-1522zM147 25h1473v1486h-1473v-1486zM1116 500l-235 235l-238 -237l-16 18l237 238l-237 235l16 19l238 -238l235 236l19 -17l-236 -235l236 -238z" />
    <glyph glyph-name="dagger" unicode="&#x2020;" 
d="M123 0v1536h1522v-1536h-1522zM147 25h1473v1486h-1473v-1486zM1116 500l-235 235l-238 -237l-16 18l237 238l-237 235l16 19l238 -238l235 236l19 -17l-236 -235l236 -238z" />
    <glyph glyph-name="daggerdbl" unicode="&#x2021;" 
d="M123 0v1536h1522v-1536h-1522zM147 25h1473v1486h-1473v-1486zM1116 500l-235 235l-238 -237l-16 18l237 238l-237 235l16 19l238 -238l235 236l19 -17l-236 -235l236 -238z" />
    <glyph glyph-name="bullet" unicode="&#x2022;" 
d="M123 0v1536h1522v-1536h-1522zM147 25h1473v1486h-1473v-1486zM1116 500l-235 235l-238 -237l-16 18l237 238l-237 235l16 19l238 -238l235 236l19 -17l-236 -235l236 -238z" />
    <glyph glyph-name="ellipsis" unicode="&#x2026;" 
d="M123 0v1536h1522v-1536h-1522zM147 25h1473v1486h-1473v-1486zM1116 500l-235 235l-238 -237l-16 18l237 238l-237 235l16 19l238 -238l235 236l19 -17l-236 -235l236 -238z" />
    <glyph glyph-name="perthousand" unicode="&#x2030;" 
d="M123 0v1536h1522v-1536h-1522zM147 25h1473v1486h-1473v-1486zM1116 500l-235 235l-238 -237l-16 18l237 238l-237 235l16 19l238 -238l235 236l19 -17l-236 -235l236 -238z" />
    <glyph glyph-name="guilsinglleft" unicode="&#x2039;" 
d="M123 0v1536h1522v-1536h-1522zM147 25h1473v1486h-1473v-1486zM1116 500l-235 235l-238 -237l-16 18l237 238l-237 235l16 19l238 -238l235 236l19 -17l-236 -235l236 -238z" />
    <glyph glyph-name="guilsinglright" unicode="&#x203a;" 
d="M123 0v1536h1522v-1536h-1522zM147 25h1473v1486h-1473v-1486zM1116 500l-235 235l-238 -237l-16 18l237 238l-237 235l16 19l238 -238l235 236l19 -17l-236 -235l236 -238z" />
    <glyph glyph-name="fraction" unicode="&#x2044;" 
d="M123 0v1536h1522v-1536h-1522zM147 25h1473v1486h-1473v-1486zM1116 500l-235 235l-238 -237l-16 18l237 238l-237 235l16 19l238 -238l235 236l19 -17l-236 -235l236 -238z" />
    <glyph glyph-name="Euro" unicode="&#x20ac;" 
d="M123 0v1536h1522v-1536h-1522zM147 25h1473v1486h-1473v-1486zM1116 500l-235 235l-238 -237l-16 18l237 238l-237 235l16 19l238 -238l235 236l19 -17l-236 -235l236 -238z" />
    <glyph glyph-name="uni2116" unicode="&#x2116;" 
d="M123 0v1536h1522v-1536h-1522zM147 25h1473v1486h-1473v-1486zM1116 500l-235 235l-238 -237l-16 18l237 238l-237 235l16 19l238 -238l235 236l19 -17l-236 -235l236 -238z" />
    <glyph glyph-name="uni2117" unicode="&#x2117;" 
d="M123 0v1536h1522v-1536h-1522zM147 25h1473v1486h-1473v-1486zM1116 500l-235 235l-238 -237l-16 18l237 238l-237 235l16 19l238 -238l235 236l19 -17l-236 -235l236 -238z" />
    <glyph glyph-name="uni2120" unicode="&#x2120;" 
d="M123 0v1536h1522v-1536h-1522zM147 25h1473v1486h-1473v-1486zM1116 500l-235 235l-238 -237l-16 18l237 238l-237 235l16 19l238 -238l235 236l19 -17l-236 -235l236 -238z" />
    <glyph glyph-name="trademark" unicode="&#x2122;" 
d="M123 0v1536h1522v-1536h-1522zM147 25h1473v1486h-1473v-1486zM1116 500l-235 235l-238 -237l-16 18l237 238l-237 235l16 19l238 -238l235 236l19 -17l-236 -235l236 -238z" />
    <glyph glyph-name="uni2150" unicode="&#x2150;" 
d="M123 0v1536h1522v-1536h-1522zM147 25h1473v1486h-1473v-1486zM1116 500l-235 235l-238 -237l-16 18l237 238l-237 235l16 19l238 -238l235 236l19 -17l-236 -235l236 -238z" />
    <glyph glyph-name="uni2151" unicode="&#x2151;" 
d="M123 0v1536h1522v-1536h-1522zM147 25h1473v1486h-1473v-1486zM1116 500l-235 235l-238 -237l-16 18l237 238l-237 235l16 19l238 -238l235 236l19 -17l-236 -235l236 -238z" />
    <glyph glyph-name="uni2153" unicode="&#x2153;" 
d="M123 0v1536h1522v-1536h-1522zM147 25h1473v1486h-1473v-1486zM1116 500l-235 235l-238 -237l-16 18l237 238l-237 235l16 19l238 -238l235 236l19 -17l-236 -235l236 -238z" />
    <glyph glyph-name="uni2154" unicode="&#x2154;" 
d="M123 0v1536h1522v-1536h-1522zM147 25h1473v1486h-1473v-1486zM1116 500l-235 235l-238 -237l-16 18l237 238l-237 235l16 19l238 -238l235 236l19 -17l-236 -235l236 -238z" />
    <glyph glyph-name="uni2155" unicode="&#x2155;" 
d="M123 0v1536h1522v-1536h-1522zM147 25h1473v1486h-1473v-1486zM1116 500l-235 235l-238 -237l-16 18l237 238l-237 235l16 19l238 -238l235 236l19 -17l-236 -235l236 -238z" />
    <glyph glyph-name="uni2156" unicode="&#x2156;" 
d="M123 0v1536h1522v-1536h-1522zM147 25h1473v1486h-1473v-1486zM1116 500l-235 235l-238 -237l-16 18l237 238l-237 235l16 19l238 -238l235 236l19 -17l-236 -235l236 -238z" />
    <glyph glyph-name="uni2157" unicode="&#x2157;" 
d="M123 0v1536h1522v-1536h-1522zM147 25h1473v1486h-1473v-1486zM1116 500l-235 235l-238 -237l-16 18l237 238l-237 235l16 19l238 -238l235 236l19 -17l-236 -235l236 -238z" />
    <glyph glyph-name="uni2158" unicode="&#x2158;" 
d="M123 0v1536h1522v-1536h-1522zM147 25h1473v1486h-1473v-1486zM1116 500l-235 235l-238 -237l-16 18l237 238l-237 235l16 19l238 -238l235 236l19 -17l-236 -235l236 -238z" />
    <glyph glyph-name="uni2159" unicode="&#x2159;" 
d="M123 0v1536h1522v-1536h-1522zM147 25h1473v1486h-1473v-1486zM1116 500l-235 235l-238 -237l-16 18l237 238l-237 235l16 19l238 -238l235 236l19 -17l-236 -235l236 -238z" />
    <glyph glyph-name="oneeighth" unicode="&#x215b;" 
d="M123 0v1536h1522v-1536h-1522zM147 25h1473v1486h-1473v-1486zM1116 500l-235 235l-238 -237l-16 18l237 238l-237 235l16 19l238 -238l235 236l19 -17l-236 -235l236 -238z" />
    <glyph glyph-name="arrowleft" unicode="&#x2190;" 
d="M123 0v1536h1522v-1536h-1522zM147 25h1473v1486h-1473v-1486zM1116 500l-235 235l-238 -237l-16 18l237 238l-237 235l16 19l238 -238l235 236l19 -17l-236 -235l236 -238z" />
    <glyph glyph-name="arrowup" unicode="&#x2191;" 
d="M123 0v1536h1522v-1536h-1522zM147 25h1473v1486h-1473v-1486zM1116 500l-235 235l-238 -237l-16 18l237 238l-237 235l16 19l238 -238l235 236l19 -17l-236 -235l236 -238z" />
    <glyph glyph-name="arrowright" unicode="&#x2192;" 
d="M123 0v1536h1522v-1536h-1522zM147 25h1473v1486h-1473v-1486zM1116 500l-235 235l-238 -237l-16 18l237 238l-237 235l16 19l238 -238l235 236l19 -17l-236 -235l236 -238z" />
    <glyph glyph-name="arrowdown" unicode="&#x2193;" 
d="M123 0v1536h1522v-1536h-1522zM147 25h1473v1486h-1473v-1486zM1116 500l-235 235l-238 -237l-16 18l237 238l-237 235l16 19l238 -238l235 236l19 -17l-236 -235l236 -238z" />
    <glyph glyph-name="arrowboth" unicode="&#x2194;" 
d="M123 0v1536h1522v-1536h-1522zM147 25h1473v1486h-1473v-1486zM1116 500l-235 235l-238 -237l-16 18l237 238l-237 235l16 19l238 -238l235 236l19 -17l-236 -235l236 -238z" />
    <glyph glyph-name="arrowupdn" unicode="&#x2195;" 
d="M123 0v1536h1522v-1536h-1522zM147 25h1473v1486h-1473v-1486zM1116 500l-235 235l-238 -237l-16 18l237 238l-237 235l16 19l238 -238l235 236l19 -17l-236 -235l236 -238z" />
    <glyph glyph-name="uni2196" unicode="&#x2196;" 
d="M123 0v1536h1522v-1536h-1522zM147 25h1473v1486h-1473v-1486zM1116 500l-235 235l-238 -237l-16 18l237 238l-237 235l16 19l238 -238l235 236l19 -17l-236 -235l236 -238z" />
    <glyph glyph-name="uni2197" unicode="&#x2197;" 
d="M123 0v1536h1522v-1536h-1522zM147 25h1473v1486h-1473v-1486zM1116 500l-235 235l-238 -237l-16 18l237 238l-237 235l16 19l238 -238l235 236l19 -17l-236 -235l236 -238z" />
    <glyph glyph-name="uni2198" unicode="&#x2198;" 
d="M123 0v1536h1522v-1536h-1522zM147 25h1473v1486h-1473v-1486zM1116 500l-235 235l-238 -237l-16 18l237 238l-237 235l16 19l238 -238l235 236l19 -17l-236 -235l236 -238z" />
    <glyph glyph-name="uni2199" unicode="&#x2199;" 
d="M123 0v1536h1522v-1536h-1522zM147 25h1473v1486h-1473v-1486zM1116 500l-235 235l-238 -237l-16 18l237 238l-237 235l16 19l238 -238l235 236l19 -17l-236 -235l236 -238z" />
    <glyph glyph-name="minus" unicode="&#x2212;" 
d="M123 0v1536h1522v-1536h-1522zM147 25h1473v1486h-1473v-1486zM1116 500l-235 235l-238 -237l-16 18l237 238l-237 235l16 19l238 -238l235 236l19 -17l-236 -235l236 -238z" />
    <glyph glyph-name="infinity" unicode="&#x221e;" 
d="M123 0v1536h1522v-1536h-1522zM147 25h1473v1486h-1473v-1486zM1116 500l-235 235l-238 -237l-16 18l237 238l-237 235l16 19l238 -238l235 236l19 -17l-236 -235l236 -238z" />
    <glyph glyph-name="approxequal" unicode="&#x2248;" 
d="M123 0v1536h1522v-1536h-1522zM147 25h1473v1486h-1473v-1486zM1116 500l-235 235l-238 -237l-16 18l237 238l-237 235l16 19l238 -238l235 236l19 -17l-236 -235l236 -238z" />
    <glyph glyph-name="notequal" unicode="&#x2260;" 
d="M123 0v1536h1522v-1536h-1522zM147 25h1473v1486h-1473v-1486zM1116 500l-235 235l-238 -237l-16 18l237 238l-237 235l16 19l238 -238l235 236l19 -17l-236 -235l236 -238z" />
    <glyph glyph-name="lessequal" unicode="&#x2264;" 
d="M123 0v1536h1522v-1536h-1522zM147 25h1473v1486h-1473v-1486zM1116 500l-235 235l-238 -237l-16 18l237 238l-237 235l16 19l238 -238l235 236l19 -17l-236 -235l236 -238z" />
    <glyph glyph-name="greaterequal" unicode="&#x2265;" 
d="M123 0v1536h1522v-1536h-1522zM147 25h1473v1486h-1473v-1486zM1116 500l-235 235l-238 -237l-16 18l237 238l-237 235l16 19l238 -238l235 236l19 -17l-236 -235l236 -238z" />
    <glyph glyph-name="house" unicode="&#x2302;" 
d="M123 0v1536h1522v-1536h-1522zM147 25h1473v1486h-1473v-1486zM1116 500l-235 235l-238 -237l-16 18l237 238l-237 235l16 19l238 -238l235 236l19 -17l-236 -235l236 -238z" />
    <glyph glyph-name="blacksquare" unicode="&#x25a0;" 
d="M123 0v1536h1522v-1536h-1522zM147 25h1473v1486h-1473v-1486zM1116 500l-235 235l-238 -237l-16 18l237 238l-237 235l16 19l238 -238l235 236l19 -17l-236 -235l236 -238z" />
    <glyph glyph-name="whitesquare" unicode="&#x25a1;" 
d="M123 0v1536h1522v-1536h-1522zM147 25h1473v1486h-1473v-1486zM1116 500l-235 235l-238 -237l-16 18l237 238l-237 235l16 19l238 -238l235 236l19 -17l-236 -235l236 -238z" />
    <glyph glyph-name="blacksmallsquare" unicode="&#x25aa;" 
d="M123 0v1536h1522v-1536h-1522zM147 25h1473v1486h-1473v-1486zM1116 500l-235 235l-238 -237l-16 18l237 238l-237 235l16 19l238 -238l235 236l19 -17l-236 -235l236 -238z" />
    <glyph glyph-name="whitesmallsquare" unicode="&#x25ab;" 
d="M123 0v1536h1522v-1536h-1522zM147 25h1473v1486h-1473v-1486zM1116 500l-235 235l-238 -237l-16 18l237 238l-237 235l16 19l238 -238l235 236l19 -17l-236 -235l236 -238z" />
    <glyph glyph-name="triagup" unicode="&#x25b2;" 
d="M123 0v1536h1522v-1536h-1522zM147 25h1473v1486h-1473v-1486zM1116 500l-235 235l-238 -237l-16 18l237 238l-237 235l16 19l238 -238l235 236l19 -17l-236 -235l236 -238z" />
    <glyph glyph-name="triagrt" unicode="&#x25ba;" 
d="M123 0v1536h1522v-1536h-1522zM147 25h1473v1486h-1473v-1486zM1116 500l-235 235l-238 -237l-16 18l237 238l-237 235l16 19l238 -238l235 236l19 -17l-236 -235l236 -238z" />
    <glyph glyph-name="triagdn" unicode="&#x25bc;" 
d="M123 0v1536h1522v-1536h-1522zM147 25h1473v1486h-1473v-1486zM1116 500l-235 235l-238 -237l-16 18l237 238l-237 235l16 19l238 -238l235 236l19 -17l-236 -235l236 -238z" />
    <glyph glyph-name="triaglf" unicode="&#x25c4;" 
d="M123 0v1536h1522v-1536h-1522zM147 25h1473v1486h-1473v-1486zM1116 500l-235 235l-238 -237l-16 18l237 238l-237 235l16 19l238 -238l235 236l19 -17l-236 -235l236 -238z" />
    <glyph glyph-name="whitecircle" unicode="&#x25cb;" 
d="M123 0v1536h1522v-1536h-1522zM147 25h1473v1486h-1473v-1486zM1116 500l-235 235l-238 -237l-16 18l237 238l-237 235l16 19l238 -238l235 236l19 -17l-236 -235l236 -238z" />
    <glyph glyph-name="blackcircle" unicode="&#x25cf;" 
d="M123 0v1536h1522v-1536h-1522zM147 25h1473v1486h-1473v-1486zM1116 500l-235 235l-238 -237l-16 18l237 238l-237 235l16 19l238 -238l235 236l19 -17l-236 -235l236 -238z" />
    <glyph glyph-name="mediumwhitecircle" unicode="&#x26ac;" 
d="M123 0v1536h1522v-1536h-1522zM147 25h1473v1486h-1473v-1486zM1116 500l-235 235l-238 -237l-16 18l237 238l-237 235l16 19l238 -238l235 236l19 -17l-236 -235l236 -238z" />
    <glyph glyph-name="dotlessj" unicode="&#xf6be;" 
d="M123 0v1536h1522v-1536h-1522zM147 25h1473v1486h-1473v-1486zM1116 500l-235 235l-238 -237l-16 18l237 238l-237 235l16 19l238 -238l235 236l19 -17l-236 -235l236 -238z" />
    <glyph glyph-name="fi" unicode="&#xfb01;" 
d="M123 0v1536h1522v-1536h-1522zM147 25h1473v1486h-1473v-1486zM1116 500l-235 235l-238 -237l-16 18l237 238l-237 235l16 19l238 -238l235 236l19 -17l-236 -235l236 -238z" />
    <glyph glyph-name="fl" unicode="&#xfb02;" 
d="M123 0v1536h1522v-1536h-1522zM147 25h1473v1486h-1473v-1486zM1116 500l-235 235l-238 -237l-16 18l237 238l-237 235l16 19l238 -238l235 236l19 -17l-236 -235l236 -238z" />
    <glyph glyph-name="zero.numr" 
d="M123 0v1536h1522v-1536h-1522zM147 25h1473v1486h-1473v-1486zM1116 500l-235 235l-238 -237l-16 18l237 238l-237 235l16 19l238 -238l235 236l19 -17l-236 -235l236 -238z" />
    <glyph glyph-name="one.numr" 
d="M123 0v1536h1522v-1536h-1522zM147 25h1473v1486h-1473v-1486zM1116 500l-235 235l-238 -237l-16 18l237 238l-237 235l16 19l238 -238l235 236l19 -17l-236 -235l236 -238z" />
    <glyph glyph-name="two.numr" 
d="M123 0v1536h1522v-1536h-1522zM147 25h1473v1486h-1473v-1486zM1116 500l-235 235l-238 -237l-16 18l237 238l-237 235l16 19l238 -238l235 236l19 -17l-236 -235l236 -238z" />
    <glyph glyph-name="three.numr" 
d="M123 0v1536h1522v-1536h-1522zM147 25h1473v1486h-1473v-1486zM1116 500l-235 235l-238 -237l-16 18l237 238l-237 235l16 19l238 -238l235 236l19 -17l-236 -235l236 -238z" />
    <glyph glyph-name="four.numr" 
d="M123 0v1536h1522v-1536h-1522zM147 25h1473v1486h-1473v-1486zM1116 500l-235 235l-238 -237l-16 18l237 238l-237 235l16 19l238 -238l235 236l19 -17l-236 -235l236 -238z" />
    <glyph glyph-name="five.numr" 
d="M123 0v1536h1522v-1536h-1522zM147 25h1473v1486h-1473v-1486zM1116 500l-235 235l-238 -237l-16 18l237 238l-237 235l16 19l238 -238l235 236l19 -17l-236 -235l236 -238z" />
    <glyph glyph-name="six.numr" 
d="M123 0v1536h1522v-1536h-1522zM147 25h1473v1486h-1473v-1486zM1116 500l-235 235l-238 -237l-16 18l237 238l-237 235l16 19l238 -238l235 236l19 -17l-236 -235l236 -238z" />
    <glyph glyph-name="seven.numr" 
d="M123 0v1536h1522v-1536h-1522zM147 25h1473v1486h-1473v-1486zM1116 500l-235 235l-238 -237l-16 18l237 238l-237 235l16 19l238 -238l235 236l19 -17l-236 -235l236 -238z" />
    <glyph glyph-name="eight.numr" 
d="M123 0v1536h1522v-1536h-1522zM147 25h1473v1486h-1473v-1486zM1116 500l-235 235l-238 -237l-16 18l237 238l-237 235l16 19l238 -238l235 236l19 -17l-236 -235l236 -238z" />
    <glyph glyph-name="nine.numr" 
d="M123 0v1536h1522v-1536h-1522zM147 25h1473v1486h-1473v-1486zM1116 500l-235 235l-238 -237l-16 18l237 238l-237 235l16 19l238 -238l235 236l19 -17l-236 -235l236 -238z" />
    <glyph glyph-name="zero.dnom" 
d="M123 0v1536h1522v-1536h-1522zM147 25h1473v1486h-1473v-1486zM1116 500l-235 235l-238 -237l-16 18l237 238l-237 235l16 19l238 -238l235 236l19 -17l-236 -235l236 -238z" />
    <glyph glyph-name="one.dnom" 
d="M123 0v1536h1522v-1536h-1522zM147 25h1473v1486h-1473v-1486zM1116 500l-235 235l-238 -237l-16 18l237 238l-237 235l16 19l238 -238l235 236l19 -17l-236 -235l236 -238z" />
    <glyph glyph-name="two.dnom" 
d="M123 0v1536h1522v-1536h-1522zM147 25h1473v1486h-1473v-1486zM1116 500l-235 235l-238 -237l-16 18l237 238l-237 235l16 19l238 -238l235 236l19 -17l-236 -235l236 -238z" />
    <glyph glyph-name="three.dnom" 
d="M123 0v1536h1522v-1536h-1522zM147 25h1473v1486h-1473v-1486zM1116 500l-235 235l-238 -237l-16 18l237 238l-237 235l16 19l238 -238l235 236l19 -17l-236 -235l236 -238z" />
    <glyph glyph-name="four.dnom" 
d="M123 0v1536h1522v-1536h-1522zM147 25h1473v1486h-1473v-1486zM1116 500l-235 235l-238 -237l-16 18l237 238l-237 235l16 19l238 -238l235 236l19 -17l-236 -235l236 -238z" />
    <glyph glyph-name="five.dnom" 
d="M123 0v1536h1522v-1536h-1522zM147 25h1473v1486h-1473v-1486zM1116 500l-235 235l-238 -237l-16 18l237 238l-237 235l16 19l238 -238l235 236l19 -17l-236 -235l236 -238z" />
    <glyph glyph-name="six.dnom" 
d="M123 0v1536h1522v-1536h-1522zM147 25h1473v1486h-1473v-1486zM1116 500l-235 235l-238 -237l-16 18l237 238l-237 235l16 19l238 -238l235 236l19 -17l-236 -235l236 -238z" />
    <glyph glyph-name="seven.dnom" 
d="M123 0v1536h1522v-1536h-1522zM147 25h1473v1486h-1473v-1486zM1116 500l-235 235l-238 -237l-16 18l237 238l-237 235l16 19l238 -238l235 236l19 -17l-236 -235l236 -238z" />
    <glyph glyph-name="eight.dnom" 
d="M123 0v1536h1522v-1536h-1522zM147 25h1473v1486h-1473v-1486zM1116 500l-235 235l-238 -237l-16 18l237 238l-237 235l16 19l238 -238l235 236l19 -17l-236 -235l236 -238z" />
    <glyph glyph-name="nine.dnom" 
d="M123 0v1536h1522v-1536h-1522zM147 25h1473v1486h-1473v-1486zM1116 500l-235 235l-238 -237l-16 18l237 238l-237 235l16 19l238 -238l235 236l19 -17l-236 -235l236 -238z" />
    <glyph glyph-name="zero.sups" 
d="M123 0v1536h1522v-1536h-1522zM147 25h1473v1486h-1473v-1486zM1116 500l-235 235l-238 -237l-16 18l237 238l-237 235l16 19l238 -238l235 236l19 -17l-236 -235l236 -238z" />
    <glyph glyph-name="one.sups" 
d="M123 0v1536h1522v-1536h-1522zM147 25h1473v1486h-1473v-1486zM1116 500l-235 235l-238 -237l-16 18l237 238l-237 235l16 19l238 -238l235 236l19 -17l-236 -235l236 -238z" />
    <glyph glyph-name="two.sups" 
d="M123 0v1536h1522v-1536h-1522zM147 25h1473v1486h-1473v-1486zM1116 500l-235 235l-238 -237l-16 18l237 238l-237 235l16 19l238 -238l235 236l19 -17l-236 -235l236 -238z" />
    <glyph glyph-name="three.sups" 
d="M123 0v1536h1522v-1536h-1522zM147 25h1473v1486h-1473v-1486zM1116 500l-235 235l-238 -237l-16 18l237 238l-237 235l16 19l238 -238l235 236l19 -17l-236 -235l236 -238z" />
    <glyph glyph-name="four.sups" 
d="M123 0v1536h1522v-1536h-1522zM147 25h1473v1486h-1473v-1486zM1116 500l-235 235l-238 -237l-16 18l237 238l-237 235l16 19l238 -238l235 236l19 -17l-236 -235l236 -238z" />
    <glyph glyph-name="five.sups" 
d="M123 0v1536h1522v-1536h-1522zM147 25h1473v1486h-1473v-1486zM1116 500l-235 235l-238 -237l-16 18l237 238l-237 235l16 19l238 -238l235 236l19 -17l-236 -235l236 -238z" />
    <glyph glyph-name="six.sups" 
d="M123 0v1536h1522v-1536h-1522zM147 25h1473v1486h-1473v-1486zM1116 500l-235 235l-238 -237l-16 18l237 238l-237 235l16 19l238 -238l235 236l19 -17l-236 -235l236 -238z" />
    <glyph glyph-name="seven.sups" 
d="M123 0v1536h1522v-1536h-1522zM147 25h1473v1486h-1473v-1486zM1116 500l-235 235l-238 -237l-16 18l237 238l-237 235l16 19l238 -238l235 236l19 -17l-236 -235l236 -238z" />
    <glyph glyph-name="eight.sups" 
d="M123 0v1536h1522v-1536h-1522zM147 25h1473v1486h-1473v-1486zM1116 500l-235 235l-238 -237l-16 18l237 238l-237 235l16 19l238 -238l235 236l19 -17l-236 -235l236 -238z" />
    <glyph glyph-name="nine.sups" 
d="M123 0v1536h1522v-1536h-1522zM147 25h1473v1486h-1473v-1486zM1116 500l-235 235l-238 -237l-16 18l237 238l-237 235l16 19l238 -238l235 236l19 -17l-236 -235l236 -238z" />
    <glyph glyph-name="period.sups" 
d="M123 0v1536h1522v-1536h-1522zM147 25h1473v1486h-1473v-1486zM1116 500l-235 235l-238 -237l-16 18l237 238l-237 235l16 19l238 -238l235 236l19 -17l-236 -235l236 -238z" />
    <glyph glyph-name="comma.sups" 
d="M123 0v1536h1522v-1536h-1522zM147 25h1473v1486h-1473v-1486zM1116 500l-235 235l-238 -237l-16 18l237 238l-237 235l16 19l238 -238l235 236l19 -17l-236 -235l236 -238z" />
    <glyph glyph-name="hyphen.sups" 
d="M123 0v1536h1522v-1536h-1522zM147 25h1473v1486h-1473v-1486zM1116 500l-235 235l-238 -237l-16 18l237 238l-237 235l16 19l238 -238l235 236l19 -17l-236 -235l236 -238z" />
    <glyph glyph-name="parenleft.sups" 
d="M123 0v1536h1522v-1536h-1522zM147 25h1473v1486h-1473v-1486zM1116 500l-235 235l-238 -237l-16 18l237 238l-237 235l16 19l238 -238l235 236l19 -17l-236 -235l236 -238z" />
    <glyph glyph-name="parenright.sups" 
d="M123 0v1536h1522v-1536h-1522zM147 25h1473v1486h-1473v-1486zM1116 500l-235 235l-238 -237l-16 18l237 238l-237 235l16 19l238 -238l235 236l19 -17l-236 -235l236 -238z" />
    <glyph glyph-name="plus.sups" 
d="M123 0v1536h1522v-1536h-1522zM147 25h1473v1486h-1473v-1486zM1116 500l-235 235l-238 -237l-16 18l237 238l-237 235l16 19l238 -238l235 236l19 -17l-236 -235l236 -238z" />
    <glyph glyph-name="minus.sups" 
d="M123 0v1536h1522v-1536h-1522zM147 25h1473v1486h-1473v-1486zM1116 500l-235 235l-238 -237l-16 18l237 238l-237 235l16 19l238 -238l235 236l19 -17l-236 -235l236 -238z" />
    <glyph glyph-name="multiply.sups" 
d="M123 0v1536h1522v-1536h-1522zM147 25h1473v1486h-1473v-1486zM1116 500l-235 235l-238 -237l-16 18l237 238l-237 235l16 19l238 -238l235 236l19 -17l-236 -235l236 -238z" />
    <glyph glyph-name="equal.sups" 
d="M123 0v1536h1522v-1536h-1522zM147 25h1473v1486h-1473v-1486zM1116 500l-235 235l-238 -237l-16 18l237 238l-237 235l16 19l238 -238l235 236l19 -17l-236 -235l236 -238z" />
    <glyph glyph-name="divide.sups" 
d="M123 0v1536h1522v-1536h-1522zM147 25h1473v1486h-1473v-1486zM1116 500l-235 235l-238 -237l-16 18l237 238l-237 235l16 19l238 -238l235 236l19 -17l-236 -235l236 -238z" />
    <glyph glyph-name="a.sups" 
d="M123 0v1536h1522v-1536h-1522zM147 25h1473v1486h-1473v-1486zM1116 500l-235 235l-238 -237l-16 18l237 238l-237 235l16 19l238 -238l235 236l19 -17l-236 -235l236 -238z" />
    <glyph glyph-name="b.sups" 
d="M123 0v1536h1522v-1536h-1522zM147 25h1473v1486h-1473v-1486zM1116 500l-235 235l-238 -237l-16 18l237 238l-237 235l16 19l238 -238l235 236l19 -17l-236 -235l236 -238z" />
    <glyph glyph-name="c.sups" 
d="M123 0v1536h1522v-1536h-1522zM147 25h1473v1486h-1473v-1486zM1116 500l-235 235l-238 -237l-16 18l237 238l-237 235l16 19l238 -238l235 236l19 -17l-236 -235l236 -238z" />
    <glyph glyph-name="d.sups" 
d="M123 0v1536h1522v-1536h-1522zM147 25h1473v1486h-1473v-1486zM1116 500l-235 235l-238 -237l-16 18l237 238l-237 235l16 19l238 -238l235 236l19 -17l-236 -235l236 -238z" />
    <glyph glyph-name="e.sups" 
d="M123 0v1536h1522v-1536h-1522zM147 25h1473v1486h-1473v-1486zM1116 500l-235 235l-238 -237l-16 18l237 238l-237 235l16 19l238 -238l235 236l19 -17l-236 -235l236 -238z" />
    <glyph glyph-name="f.sups" 
d="M123 0v1536h1522v-1536h-1522zM147 25h1473v1486h-1473v-1486zM1116 500l-235 235l-238 -237l-16 18l237 238l-237 235l16 19l238 -238l235 236l19 -17l-236 -235l236 -238z" />
    <glyph glyph-name="g.sups" 
d="M123 0v1536h1522v-1536h-1522zM147 25h1473v1486h-1473v-1486zM1116 500l-235 235l-238 -237l-16 18l237 238l-237 235l16 19l238 -238l235 236l19 -17l-236 -235l236 -238z" />
    <glyph glyph-name="h.sups" 
d="M123 0v1536h1522v-1536h-1522zM147 25h1473v1486h-1473v-1486zM1116 500l-235 235l-238 -237l-16 18l237 238l-237 235l16 19l238 -238l235 236l19 -17l-236 -235l236 -238z" />
    <glyph glyph-name="i.sups" 
d="M123 0v1536h1522v-1536h-1522zM147 25h1473v1486h-1473v-1486zM1116 500l-235 235l-238 -237l-16 18l237 238l-237 235l16 19l238 -238l235 236l19 -17l-236 -235l236 -238z" />
    <glyph glyph-name="j.sups" 
d="M123 0v1536h1522v-1536h-1522zM147 25h1473v1486h-1473v-1486zM1116 500l-235 235l-238 -237l-16 18l237 238l-237 235l16 19l238 -238l235 236l19 -17l-236 -235l236 -238z" />
    <glyph glyph-name="k.sups" 
d="M123 0v1536h1522v-1536h-1522zM147 25h1473v1486h-1473v-1486zM1116 500l-235 235l-238 -237l-16 18l237 238l-237 235l16 19l238 -238l235 236l19 -17l-236 -235l236 -238z" />
    <glyph glyph-name="l.sups" 
d="M123 0v1536h1522v-1536h-1522zM147 25h1473v1486h-1473v-1486zM1116 500l-235 235l-238 -237l-16 18l237 238l-237 235l16 19l238 -238l235 236l19 -17l-236 -235l236 -238z" />
    <glyph glyph-name="m.sups" 
d="M123 0v1536h1522v-1536h-1522zM147 25h1473v1486h-1473v-1486zM1116 500l-235 235l-238 -237l-16 18l237 238l-237 235l16 19l238 -238l235 236l19 -17l-236 -235l236 -238z" />
    <glyph glyph-name="n.sups" 
d="M123 0v1536h1522v-1536h-1522zM147 25h1473v1486h-1473v-1486zM1116 500l-235 235l-238 -237l-16 18l237 238l-237 235l16 19l238 -238l235 236l19 -17l-236 -235l236 -238z" />
    <glyph glyph-name="o.sups" 
d="M123 0v1536h1522v-1536h-1522zM147 25h1473v1486h-1473v-1486zM1116 500l-235 235l-238 -237l-16 18l237 238l-237 235l16 19l238 -238l235 236l19 -17l-236 -235l236 -238z" />
    <glyph glyph-name="p.sups" 
d="M123 0v1536h1522v-1536h-1522zM147 25h1473v1486h-1473v-1486zM1116 500l-235 235l-238 -237l-16 18l237 238l-237 235l16 19l238 -238l235 236l19 -17l-236 -235l236 -238z" />
    <glyph glyph-name="q.sups" 
d="M123 0v1536h1522v-1536h-1522zM147 25h1473v1486h-1473v-1486zM1116 500l-235 235l-238 -237l-16 18l237 238l-237 235l16 19l238 -238l235 236l19 -17l-236 -235l236 -238z" />
    <glyph glyph-name="r.sups" 
d="M123 0v1536h1522v-1536h-1522zM147 25h1473v1486h-1473v-1486zM1116 500l-235 235l-238 -237l-16 18l237 238l-237 235l16 19l238 -238l235 236l19 -17l-236 -235l236 -238z" />
    <glyph glyph-name="s.sups" 
d="M123 0v1536h1522v-1536h-1522zM147 25h1473v1486h-1473v-1486zM1116 500l-235 235l-238 -237l-16 18l237 238l-237 235l16 19l238 -238l235 236l19 -17l-236 -235l236 -238z" />
    <glyph glyph-name="t.sups" 
d="M123 0v1536h1522v-1536h-1522zM147 25h1473v1486h-1473v-1486zM1116 500l-235 235l-238 -237l-16 18l237 238l-237 235l16 19l238 -238l235 236l19 -17l-236 -235l236 -238z" />
    <glyph glyph-name="u.sups" 
d="M123 0v1536h1522v-1536h-1522zM147 25h1473v1486h-1473v-1486zM1116 500l-235 235l-238 -237l-16 18l237 238l-237 235l16 19l238 -238l235 236l19 -17l-236 -235l236 -238z" />
    <glyph glyph-name="v.sups" 
d="M123 0v1536h1522v-1536h-1522zM147 25h1473v1486h-1473v-1486zM1116 500l-235 235l-238 -237l-16 18l237 238l-237 235l16 19l238 -238l235 236l19 -17l-236 -235l236 -238z" />
    <glyph glyph-name="w.sups" 
d="M123 0v1536h1522v-1536h-1522zM147 25h1473v1486h-1473v-1486zM1116 500l-235 235l-238 -237l-16 18l237 238l-237 235l16 19l238 -238l235 236l19 -17l-236 -235l236 -238z" />
    <glyph glyph-name="x.sups" 
d="M123 0v1536h1522v-1536h-1522zM147 25h1473v1486h-1473v-1486zM1116 500l-235 235l-238 -237l-16 18l237 238l-237 235l16 19l238 -238l235 236l19 -17l-236 -235l236 -238z" />
    <glyph glyph-name="y.sups" 
d="M123 0v1536h1522v-1536h-1522zM147 25h1473v1486h-1473v-1486zM1116 500l-235 235l-238 -237l-16 18l237 238l-237 235l16 19l238 -238l235 236l19 -17l-236 -235l236 -238z" />
    <glyph glyph-name="z.sups" 
d="M123 0v1536h1522v-1536h-1522zM147 25h1473v1486h-1473v-1486zM1116 500l-235 235l-238 -237l-16 18l237 238l-237 235l16 19l238 -238l235 236l19 -17l-236 -235l236 -238z" />
    <glyph glyph-name="zero.subs" 
d="M123 0v1536h1522v-1536h-1522zM147 25h1473v1486h-1473v-1486zM1116 500l-235 235l-238 -237l-16 18l237 238l-237 235l16 19l238 -238l235 236l19 -17l-236 -235l236 -238z" />
    <glyph glyph-name="one.subs" 
d="M123 0v1536h1522v-1536h-1522zM147 25h1473v1486h-1473v-1486zM1116 500l-235 235l-238 -237l-16 18l237 238l-237 235l16 19l238 -238l235 236l19 -17l-236 -235l236 -238z" />
    <glyph glyph-name="two.subs" 
d="M123 0v1536h1522v-1536h-1522zM147 25h1473v1486h-1473v-1486zM1116 500l-235 235l-238 -237l-16 18l237 238l-237 235l16 19l238 -238l235 236l19 -17l-236 -235l236 -238z" />
    <glyph glyph-name="three.subs" 
d="M123 0v1536h1522v-1536h-1522zM147 25h1473v1486h-1473v-1486zM1116 500l-235 235l-238 -237l-16 18l237 238l-237 235l16 19l238 -238l235 236l19 -17l-236 -235l236 -238z" />
    <glyph glyph-name="four.subs" 
d="M123 0v1536h1522v-1536h-1522zM147 25h1473v1486h-1473v-1486zM1116 500l-235 235l-238 -237l-16 18l237 238l-237 235l16 19l238 -238l235 236l19 -17l-236 -235l236 -238z" />
    <glyph glyph-name="five.subs" 
d="M123 0v1536h1522v-1536h-1522zM147 25h1473v1486h-1473v-1486zM1116 500l-235 235l-238 -237l-16 18l237 238l-237 235l16 19l238 -238l235 236l19 -17l-236 -235l236 -238z" />
    <glyph glyph-name="six.subs" 
d="M123 0v1536h1522v-1536h-1522zM147 25h1473v1486h-1473v-1486zM1116 500l-235 235l-238 -237l-16 18l237 238l-237 235l16 19l238 -238l235 236l19 -17l-236 -235l236 -238z" />
    <glyph glyph-name="seven.subs" 
d="M123 0v1536h1522v-1536h-1522zM147 25h1473v1486h-1473v-1486zM1116 500l-235 235l-238 -237l-16 18l237 238l-237 235l16 19l238 -238l235 236l19 -17l-236 -235l236 -238z" />
    <glyph glyph-name="eight.subs" 
d="M123 0v1536h1522v-1536h-1522zM147 25h1473v1486h-1473v-1486zM1116 500l-235 235l-238 -237l-16 18l237 238l-237 235l16 19l238 -238l235 236l19 -17l-236 -235l236 -238z" />
    <glyph glyph-name="nine.subs" 
d="M123 0v1536h1522v-1536h-1522zM147 25h1473v1486h-1473v-1486zM1116 500l-235 235l-238 -237l-16 18l237 238l-237 235l16 19l238 -238l235 236l19 -17l-236 -235l236 -238z" />
    <glyph glyph-name="period.subs" 
d="M123 0v1536h1522v-1536h-1522zM147 25h1473v1486h-1473v-1486zM1116 500l-235 235l-238 -237l-16 18l237 238l-237 235l16 19l238 -238l235 236l19 -17l-236 -235l236 -238z" />
    <glyph glyph-name="comma.subs" 
d="M123 0v1536h1522v-1536h-1522zM147 25h1473v1486h-1473v-1486zM1116 500l-235 235l-238 -237l-16 18l237 238l-237 235l16 19l238 -238l235 236l19 -17l-236 -235l236 -238z" />
    <glyph glyph-name="hyphen.subs" 
d="M123 0v1536h1522v-1536h-1522zM147 25h1473v1486h-1473v-1486zM1116 500l-235 235l-238 -237l-16 18l237 238l-237 235l16 19l238 -238l235 236l19 -17l-236 -235l236 -238z" />
    <glyph glyph-name="parenleft.subs" 
d="M123 0v1536h1522v-1536h-1522zM147 25h1473v1486h-1473v-1486zM1116 500l-235 235l-238 -237l-16 18l237 238l-237 235l16 19l238 -238l235 236l19 -17l-236 -235l236 -238z" />
    <glyph glyph-name="parenright.subs" 
d="M123 0v1536h1522v-1536h-1522zM147 25h1473v1486h-1473v-1486zM1116 500l-235 235l-238 -237l-16 18l237 238l-237 235l16 19l238 -238l235 236l19 -17l-236 -235l236 -238z" />
    <glyph glyph-name="plus.subs" 
d="M123 0v1536h1522v-1536h-1522zM147 25h1473v1486h-1473v-1486zM1116 500l-235 235l-238 -237l-16 18l237 238l-237 235l16 19l238 -238l235 236l19 -17l-236 -235l236 -238z" />
    <glyph glyph-name="minus.subs" 
d="M123 0v1536h1522v-1536h-1522zM147 25h1473v1486h-1473v-1486zM1116 500l-235 235l-238 -237l-16 18l237 238l-237 235l16 19l238 -238l235 236l19 -17l-236 -235l236 -238z" />
    <glyph glyph-name="multiply.subs" 
d="M123 0v1536h1522v-1536h-1522zM147 25h1473v1486h-1473v-1486zM1116 500l-235 235l-238 -237l-16 18l237 238l-237 235l16 19l238 -238l235 236l19 -17l-236 -235l236 -238z" />
    <glyph glyph-name="equal.subs" 
d="M123 0v1536h1522v-1536h-1522zM147 25h1473v1486h-1473v-1486zM1116 500l-235 235l-238 -237l-16 18l237 238l-237 235l16 19l238 -238l235 236l19 -17l-236 -235l236 -238z" />
    <glyph glyph-name="divide.subs" 
d="M123 0v1536h1522v-1536h-1522zM147 25h1473v1486h-1473v-1486zM1116 500l-235 235l-238 -237l-16 18l237 238l-237 235l16 19l238 -238l235 236l19 -17l-236 -235l236 -238z" />
    <glyph glyph-name="a.subs" 
d="M123 0v1536h1522v-1536h-1522zM147 25h1473v1486h-1473v-1486zM1116 500l-235 235l-238 -237l-16 18l237 238l-237 235l16 19l238 -238l235 236l19 -17l-236 -235l236 -238z" />
    <glyph glyph-name="b.subs" 
d="M123 0v1536h1522v-1536h-1522zM147 25h1473v1486h-1473v-1486zM1116 500l-235 235l-238 -237l-16 18l237 238l-237 235l16 19l238 -238l235 236l19 -17l-236 -235l236 -238z" />
    <glyph glyph-name="c.subs" 
d="M123 0v1536h1522v-1536h-1522zM147 25h1473v1486h-1473v-1486zM1116 500l-235 235l-238 -237l-16 18l237 238l-237 235l16 19l238 -238l235 236l19 -17l-236 -235l236 -238z" />
    <glyph glyph-name="d.subs" 
d="M123 0v1536h1522v-1536h-1522zM147 25h1473v1486h-1473v-1486zM1116 500l-235 235l-238 -237l-16 18l237 238l-237 235l16 19l238 -238l235 236l19 -17l-236 -235l236 -238z" />
    <glyph glyph-name="e.subs" 
d="M123 0v1536h1522v-1536h-1522zM147 25h1473v1486h-1473v-1486zM1116 500l-235 235l-238 -237l-16 18l237 238l-237 235l16 19l238 -238l235 236l19 -17l-236 -235l236 -238z" />
    <glyph glyph-name="f.subs" 
d="M123 0v1536h1522v-1536h-1522zM147 25h1473v1486h-1473v-1486zM1116 500l-235 235l-238 -237l-16 18l237 238l-237 235l16 19l238 -238l235 236l19 -17l-236 -235l236 -238z" />
    <glyph glyph-name="g.subs" 
d="M123 0v1536h1522v-1536h-1522zM147 25h1473v1486h-1473v-1486zM1116 500l-235 235l-238 -237l-16 18l237 238l-237 235l16 19l238 -238l235 236l19 -17l-236 -235l236 -238z" />
    <glyph glyph-name="h.subs" 
d="M123 0v1536h1522v-1536h-1522zM147 25h1473v1486h-1473v-1486zM1116 500l-235 235l-238 -237l-16 18l237 238l-237 235l16 19l238 -238l235 236l19 -17l-236 -235l236 -238z" />
    <glyph glyph-name="i.subs" 
d="M123 0v1536h1522v-1536h-1522zM147 25h1473v1486h-1473v-1486zM1116 500l-235 235l-238 -237l-16 18l237 238l-237 235l16 19l238 -238l235 236l19 -17l-236 -235l236 -238z" />
    <glyph glyph-name="j.subs" 
d="M123 0v1536h1522v-1536h-1522zM147 25h1473v1486h-1473v-1486zM1116 500l-235 235l-238 -237l-16 18l237 238l-237 235l16 19l238 -238l235 236l19 -17l-236 -235l236 -238z" />
    <glyph glyph-name="k.subs" 
d="M123 0v1536h1522v-1536h-1522zM147 25h1473v1486h-1473v-1486zM1116 500l-235 235l-238 -237l-16 18l237 238l-237 235l16 19l238 -238l235 236l19 -17l-236 -235l236 -238z" />
    <glyph glyph-name="l.subs" 
d="M123 0v1536h1522v-1536h-1522zM147 25h1473v1486h-1473v-1486zM1116 500l-235 235l-238 -237l-16 18l237 238l-237 235l16 19l238 -238l235 236l19 -17l-236 -235l236 -238z" />
    <glyph glyph-name="m.subs" 
d="M123 0v1536h1522v-1536h-1522zM147 25h1473v1486h-1473v-1486zM1116 500l-235 235l-238 -237l-16 18l237 238l-237 235l16 19l238 -238l235 236l19 -17l-236 -235l236 -238z" />
    <glyph glyph-name="n.subs" 
d="M123 0v1536h1522v-1536h-1522zM147 25h1473v1486h-1473v-1486zM1116 500l-235 235l-238 -237l-16 18l237 238l-237 235l16 19l238 -238l235 236l19 -17l-236 -235l236 -238z" />
    <glyph glyph-name="o.subs" 
d="M123 0v1536h1522v-1536h-1522zM147 25h1473v1486h-1473v-1486zM1116 500l-235 235l-238 -237l-16 18l237 238l-237 235l16 19l238 -238l235 236l19 -17l-236 -235l236 -238z" />
    <glyph glyph-name="p.subs" 
d="M123 0v1536h1522v-1536h-1522zM147 25h1473v1486h-1473v-1486zM1116 500l-235 235l-238 -237l-16 18l237 238l-237 235l16 19l238 -238l235 236l19 -17l-236 -235l236 -238z" />
    <glyph glyph-name="q.subs" 
d="M123 0v1536h1522v-1536h-1522zM147 25h1473v1486h-1473v-1486zM1116 500l-235 235l-238 -237l-16 18l237 238l-237 235l16 19l238 -238l235 236l19 -17l-236 -235l236 -238z" />
    <glyph glyph-name="r.subs" 
d="M123 0v1536h1522v-1536h-1522zM147 25h1473v1486h-1473v-1486zM1116 500l-235 235l-238 -237l-16 18l237 238l-237 235l16 19l238 -238l235 236l19 -17l-236 -235l236 -238z" />
    <glyph glyph-name="s.subs" 
d="M123 0v1536h1522v-1536h-1522zM147 25h1473v1486h-1473v-1486zM1116 500l-235 235l-238 -237l-16 18l237 238l-237 235l16 19l238 -238l235 236l19 -17l-236 -235l236 -238z" />
    <glyph glyph-name="t.subs" 
d="M123 0v1536h1522v-1536h-1522zM147 25h1473v1486h-1473v-1486zM1116 500l-235 235l-238 -237l-16 18l237 238l-237 235l16 19l238 -238l235 236l19 -17l-236 -235l236 -238z" />
    <glyph glyph-name="u.subs" 
d="M123 0v1536h1522v-1536h-1522zM147 25h1473v1486h-1473v-1486zM1116 500l-235 235l-238 -237l-16 18l237 238l-237 235l16 19l238 -238l235 236l19 -17l-236 -235l236 -238z" />
    <glyph glyph-name="v.subs" 
d="M123 0v1536h1522v-1536h-1522zM147 25h1473v1486h-1473v-1486zM1116 500l-235 235l-238 -237l-16 18l237 238l-237 235l16 19l238 -238l235 236l19 -17l-236 -235l236 -238z" />
    <glyph glyph-name="w.subs" 
d="M123 0v1536h1522v-1536h-1522zM147 25h1473v1486h-1473v-1486zM1116 500l-235 235l-238 -237l-16 18l237 238l-237 235l16 19l238 -238l235 236l19 -17l-236 -235l236 -238z" />
    <glyph glyph-name="x.subs" 
d="M123 0v1536h1522v-1536h-1522zM147 25h1473v1486h-1473v-1486zM1116 500l-235 235l-238 -237l-16 18l237 238l-237 235l16 19l238 -238l235 236l19 -17l-236 -235l236 -238z" />
    <glyph glyph-name="y.subs" 
d="M123 0v1536h1522v-1536h-1522zM147 25h1473v1486h-1473v-1486zM1116 500l-235 235l-238 -237l-16 18l237 238l-237 235l16 19l238 -238l235 236l19 -17l-236 -235l236 -238z" />
    <glyph glyph-name="z.subs" 
d="M123 0v1536h1522v-1536h-1522zM147 25h1473v1486h-1473v-1486zM1116 500l-235 235l-238 -237l-16 18l237 238l-237 235l16 19l238 -238l235 236l19 -17l-236 -235l236 -238z" />
    <glyph glyph-name="IJacute" 
d="M123 0v1536h1522v-1536h-1522zM147 25h1473v1486h-1473v-1486zM1116 500l-235 235l-238 -237l-16 18l237 238l-237 235l16 19l238 -238l235 236l19 -17l-236 -235l236 -238z" />
    <glyph glyph-name="ijacute" 
d="M123 0v1536h1522v-1536h-1522zM147 25h1473v1486h-1473v-1486zM1116 500l-235 235l-238 -237l-16 18l237 238l-237 235l16 19l238 -238l235 236l19 -17l-236 -235l236 -238z" />
    <glyph glyph-name="f_f" 
d="M123 0v1536h1522v-1536h-1522zM147 25h1473v1486h-1473v-1486zM1116 500l-235 235l-238 -237l-16 18l237 238l-237 235l16 19l238 -238l235 236l19 -17l-236 -235l236 -238z" />
    <glyph glyph-name="f_f_i" 
d="M123 0v1536h1522v-1536h-1522zM147 25h1473v1486h-1473v-1486zM1116 500l-235 235l-238 -237l-16 18l237 238l-237 235l16 19l238 -238l235 236l19 -17l-236 -235l236 -238z" />
    <glyph glyph-name="f_f_l" 
d="M123 0v1536h1522v-1536h-1522zM147 25h1473v1486h-1473v-1486zM1116 500l-235 235l-238 -237l-16 18l237 238l-237 235l16 19l238 -238l235 236l19 -17l-236 -235l236 -238z" />
    <glyph glyph-name="f_b" 
d="M123 0v1536h1522v-1536h-1522zM147 25h1473v1486h-1473v-1486zM1116 500l-235 235l-238 -237l-16 18l237 238l-237 235l16 19l238 -238l235 236l19 -17l-236 -235l236 -238z" />
    <glyph glyph-name="f_f_b" 
d="M123 0v1536h1522v-1536h-1522zM147 25h1473v1486h-1473v-1486zM1116 500l-235 235l-238 -237l-16 18l237 238l-237 235l16 19l238 -238l235 236l19 -17l-236 -235l236 -238z" />
    <glyph glyph-name="f_h" 
d="M123 0v1536h1522v-1536h-1522zM147 25h1473v1486h-1473v-1486zM1116 500l-235 235l-238 -237l-16 18l237 238l-237 235l16 19l238 -238l235 236l19 -17l-236 -235l236 -238z" />
    <glyph glyph-name="f_f_h" 
d="M123 0v1536h1522v-1536h-1522zM147 25h1473v1486h-1473v-1486zM1116 500l-235 235l-238 -237l-16 18l237 238l-237 235l16 19l238 -238l235 236l19 -17l-236 -235l236 -238z" />
    <glyph glyph-name="f_k" 
d="M123 0v1536h1522v-1536h-1522zM147 25h1473v1486h-1473v-1486zM1116 500l-235 235l-238 -237l-16 18l237 238l-237 235l16 19l238 -238l235 236l19 -17l-236 -235l236 -238z" />
    <glyph glyph-name="f_f_k" 
d="M123 0v1536h1522v-1536h-1522zM147 25h1473v1486h-1473v-1486zM1116 500l-235 235l-238 -237l-16 18l237 238l-237 235l16 19l238 -238l235 236l19 -17l-236 -235l236 -238z" />
    <glyph glyph-name="f_j" 
d="M123 0v1536h1522v-1536h-1522zM147 25h1473v1486h-1473v-1486zM1116 500l-235 235l-238 -237l-16 18l237 238l-237 235l16 19l238 -238l235 236l19 -17l-236 -235l236 -238z" />
    <glyph glyph-name="f_f_j" 
d="M123 0v1536h1522v-1536h-1522zM147 25h1473v1486h-1473v-1486zM1116 500l-235 235l-238 -237l-16 18l237 238l-237 235l16 19l238 -238l235 236l19 -17l-236 -235l236 -238z" />
    <glyph glyph-name="f_idieresis" 
d="M123 0v1536h1522v-1536h-1522zM147 25h1473v1486h-1473v-1486zM1116 500l-235 235l-238 -237l-16 18l237 238l-237 235l16 19l238 -238l235 236l19 -17l-236 -235l236 -238z" />
    <glyph glyph-name="revcommaaccentcomb" 
d="M123 0v1536h1522v-1536h-1522zM147 25h1473v1486h-1473v-1486zM1116 500l-235 235l-238 -237l-16 18l237 238l-237 235l16 19l238 -238l235 236l19 -17l-236 -235l236 -238z" />
    <glyph glyph-name="gravecomb.case" 
d="M123 0v1536h1522v-1536h-1522zM147 25h1473v1486h-1473v-1486zM1116 500l-235 235l-238 -237l-16 18l237 238l-237 235l16 19l238 -238l235 236l19 -17l-236 -235l236 -238z" />
    <glyph glyph-name="acutecomb.case" 
d="M123 0v1536h1522v-1536h-1522zM147 25h1473v1486h-1473v-1486zM1116 500l-235 235l-238 -237l-16 18l237 238l-237 235l16 19l238 -238l235 236l19 -17l-236 -235l236 -238z" />
    <glyph glyph-name="dieresiscomb.case" 
d="M123 0v1536h1522v-1536h-1522zM147 25h1473v1486h-1473v-1486zM1116 500l-235 235l-238 -237l-16 18l237 238l-237 235l16 19l238 -238l235 236l19 -17l-236 -235l236 -238z" />
    <glyph glyph-name="circumflexcomb.case" 
d="M123 0v1536h1522v-1536h-1522zM147 25h1473v1486h-1473v-1486zM1116 500l-235 235l-238 -237l-16 18l237 238l-237 235l16 19l238 -238l235 236l19 -17l-236 -235l236 -238z" />
    <glyph glyph-name="tildecomb.case" 
d="M123 0v1536h1522v-1536h-1522zM147 25h1473v1486h-1473v-1486zM1116 500l-235 235l-238 -237l-16 18l237 238l-237 235l16 19l238 -238l235 236l19 -17l-236 -235l236 -238z" />
    <glyph glyph-name="macroncomb.case" 
d="M123 0v1536h1522v-1536h-1522zM147 25h1473v1486h-1473v-1486zM1116 500l-235 235l-238 -237l-16 18l237 238l-237 235l16 19l238 -238l235 236l19 -17l-236 -235l236 -238z" />
    <glyph glyph-name="brevecomb.case" 
d="M123 0v1536h1522v-1536h-1522zM147 25h1473v1486h-1473v-1486zM1116 500l-235 235l-238 -237l-16 18l237 238l-237 235l16 19l238 -238l235 236l19 -17l-236 -235l236 -238z" />
    <glyph glyph-name="dotaccentcomb.case" 
d="M123 0v1536h1522v-1536h-1522zM147 25h1473v1486h-1473v-1486zM1116 500l-235 235l-238 -237l-16 18l237 238l-237 235l16 19l238 -238l235 236l19 -17l-236 -235l236 -238z" />
    <glyph glyph-name="revcommaaccentcomb.case" 
d="M123 0v1536h1522v-1536h-1522zM147 25h1473v1486h-1473v-1486zM1116 500l-235 235l-238 -237l-16 18l237 238l-237 235l16 19l238 -238l235 236l19 -17l-236 -235l236 -238z" />
    <glyph glyph-name="ringcomb.case" 
d="M123 0v1536h1522v-1536h-1522zM147 25h1473v1486h-1473v-1486zM1116 500l-235 235l-238 -237l-16 18l237 238l-237 235l16 19l238 -238l235 236l19 -17l-236 -235l236 -238z" />
    <glyph glyph-name="hungarumlautcomb.case" 
d="M123 0v1536h1522v-1536h-1522zM147 25h1473v1486h-1473v-1486zM1116 500l-235 235l-238 -237l-16 18l237 238l-237 235l16 19l238 -238l235 236l19 -17l-236 -235l236 -238z" />
    <glyph glyph-name="caroncomb.case" 
d="M123 0v1536h1522v-1536h-1522zM147 25h1473v1486h-1473v-1486zM1116 500l-235 235l-238 -237l-16 18l237 238l-237 235l16 19l238 -238l235 236l19 -17l-236 -235l236 -238z" />
    <glyph glyph-name="exclamdown.case" 
d="M123 0v1536h1522v-1536h-1522zM147 25h1473v1486h-1473v-1486zM1116 500l-235 235l-238 -237l-16 18l237 238l-237 235l16 19l238 -238l235 236l19 -17l-236 -235l236 -238z" />
    <glyph glyph-name="questiondown.case" 
d="M123 0v1536h1522v-1536h-1522zM147 25h1473v1486h-1473v-1486zM1116 500l-235 235l-238 -237l-16 18l237 238l-237 235l16 19l238 -238l235 236l19 -17l-236 -235l236 -238z" />
    <glyph glyph-name="braceleft.case" 
d="M123 0v1536h1522v-1536h-1522zM147 25h1473v1486h-1473v-1486zM1116 500l-235 235l-238 -237l-16 18l237 238l-237 235l16 19l238 -238l235 236l19 -17l-236 -235l236 -238z" />
    <glyph glyph-name="braceright.case" 
d="M123 0v1536h1522v-1536h-1522zM147 25h1473v1486h-1473v-1486zM1116 500l-235 235l-238 -237l-16 18l237 238l-237 235l16 19l238 -238l235 236l19 -17l-236 -235l236 -238z" />
    <glyph glyph-name="bracketleft.case" 
d="M123 0v1536h1522v-1536h-1522zM147 25h1473v1486h-1473v-1486zM1116 500l-235 235l-238 -237l-16 18l237 238l-237 235l16 19l238 -238l235 236l19 -17l-236 -235l236 -238z" />
    <glyph glyph-name="bracketright.case" 
d="M123 0v1536h1522v-1536h-1522zM147 25h1473v1486h-1473v-1486zM1116 500l-235 235l-238 -237l-16 18l237 238l-237 235l16 19l238 -238l235 236l19 -17l-236 -235l236 -238z" />
    <glyph glyph-name="hyphen.case" 
d="M123 0v1536h1522v-1536h-1522zM147 25h1473v1486h-1473v-1486zM1116 500l-235 235l-238 -237l-16 18l237 238l-237 235l16 19l238 -238l235 236l19 -17l-236 -235l236 -238z" />
    <glyph glyph-name="endash.case" 
d="M123 0v1536h1522v-1536h-1522zM147 25h1473v1486h-1473v-1486zM1116 500l-235 235l-238 -237l-16 18l237 238l-237 235l16 19l238 -238l235 236l19 -17l-236 -235l236 -238z" />
    <glyph glyph-name="emdash.case" 
d="M123 0v1536h1522v-1536h-1522zM147 25h1473v1486h-1473v-1486zM1116 500l-235 235l-238 -237l-16 18l237 238l-237 235l16 19l238 -238l235 236l19 -17l-236 -235l236 -238z" />
    <glyph glyph-name="guillemotleft.case" 
d="M123 0v1536h1522v-1536h-1522zM147 25h1473v1486h-1473v-1486zM1116 500l-235 235l-238 -237l-16 18l237 238l-237 235l16 19l238 -238l235 236l19 -17l-236 -235l236 -238z" />
    <glyph glyph-name="guillemotright.case" 
d="M123 0v1536h1522v-1536h-1522zM147 25h1473v1486h-1473v-1486zM1116 500l-235 235l-238 -237l-16 18l237 238l-237 235l16 19l238 -238l235 236l19 -17l-236 -235l236 -238z" />
    <glyph glyph-name="guilsinglleft.case" 
d="M123 0v1536h1522v-1536h-1522zM147 25h1473v1486h-1473v-1486zM1116 500l-235 235l-238 -237l-16 18l237 238l-237 235l16 19l238 -238l235 236l19 -17l-236 -235l236 -238z" />
    <glyph glyph-name="guilsinglright.case" 
d="M123 0v1536h1522v-1536h-1522zM147 25h1473v1486h-1473v-1486zM1116 500l-235 235l-238 -237l-16 18l237 238l-237 235l16 19l238 -238l235 236l19 -17l-236 -235l236 -238z" />
    <glyph glyph-name="arrowleft.case" 
d="M123 0v1536h1522v-1536h-1522zM147 25h1473v1486h-1473v-1486zM1116 500l-235 235l-238 -237l-16 18l237 238l-237 235l16 19l238 -238l235 236l19 -17l-236 -235l236 -238z" />
    <glyph glyph-name="arrowright.case" 
d="M123 0v1536h1522v-1536h-1522zM147 25h1473v1486h-1473v-1486zM1116 500l-235 235l-238 -237l-16 18l237 238l-237 235l16 19l238 -238l235 236l19 -17l-236 -235l236 -238z" />
    <glyph glyph-name="arrowup.case" 
d="M123 0v1536h1522v-1536h-1522zM147 25h1473v1486h-1473v-1486zM1116 500l-235 235l-238 -237l-16 18l237 238l-237 235l16 19l238 -238l235 236l19 -17l-236 -235l236 -238z" />
    <glyph glyph-name="arrowdown.case" 
d="M123 0v1536h1522v-1536h-1522zM147 25h1473v1486h-1473v-1486zM1116 500l-235 235l-238 -237l-16 18l237 238l-237 235l16 19l238 -238l235 236l19 -17l-236 -235l236 -238z" />
    <glyph glyph-name="arrowboth.case" 
d="M123 0v1536h1522v-1536h-1522zM147 25h1473v1486h-1473v-1486zM1116 500l-235 235l-238 -237l-16 18l237 238l-237 235l16 19l238 -238l235 236l19 -17l-236 -235l236 -238z" />
    <glyph glyph-name="arrowupdn.case" 
d="M123 0v1536h1522v-1536h-1522zM147 25h1473v1486h-1473v-1486zM1116 500l-235 235l-238 -237l-16 18l237 238l-237 235l16 19l238 -238l235 236l19 -17l-236 -235l236 -238z" />
    <glyph glyph-name="uni2196.case" 
d="M123 0v1536h1522v-1536h-1522zM147 25h1473v1486h-1473v-1486zM1116 500l-235 235l-238 -237l-16 18l237 238l-237 235l16 19l238 -238l235 236l19 -17l-236 -235l236 -238z" />
    <glyph glyph-name="uni2197.case" 
d="M123 0v1536h1522v-1536h-1522zM147 25h1473v1486h-1473v-1486zM1116 500l-235 235l-238 -237l-16 18l237 238l-237 235l16 19l238 -238l235 236l19 -17l-236 -235l236 -238z" />
    <glyph glyph-name="uni2198.case" 
d="M123 0v1536h1522v-1536h-1522zM147 25h1473v1486h-1473v-1486zM1116 500l-235 235l-238 -237l-16 18l237 238l-237 235l16 19l238 -238l235 236l19 -17l-236 -235l236 -238z" />
    <glyph glyph-name="uni2199.case" 
d="M123 0v1536h1522v-1536h-1522zM147 25h1473v1486h-1473v-1486zM1116 500l-235 235l-238 -237l-16 18l237 238l-237 235l16 19l238 -238l235 236l19 -17l-236 -235l236 -238z" />
    <glyph glyph-name="at.case" 
d="M123 0v1536h1522v-1536h-1522zM147 25h1473v1486h-1473v-1486zM1116 500l-235 235l-238 -237l-16 18l237 238l-237 235l16 19l238 -238l235 236l19 -17l-236 -235l236 -238z" />
    <glyph glyph-name="colon.case" 
d="M123 0v1536h1522v-1536h-1522zM147 25h1473v1486h-1473v-1486zM1116 500l-235 235l-238 -237l-16 18l237 238l-237 235l16 19l238 -238l235 236l19 -17l-236 -235l236 -238z" />
    <glyph glyph-name="periodcentered.case" 
d="M123 0v1536h1522v-1536h-1522zM147 25h1473v1486h-1473v-1486zM1116 500l-235 235l-238 -237l-16 18l237 238l-237 235l16 19l238 -238l235 236l19 -17l-236 -235l236 -238z" />
    <glyph glyph-name="mediumblackcircle" 
d="M123 0v1536h1522v-1536h-1522zM147 25h1473v1486h-1473v-1486zM1116 500l-235 235l-238 -237l-16 18l237 238l-237 235l16 19l238 -238l235 236l19 -17l-236 -235l236 -238z" />
    <glyph glyph-name="squaremultiply" 
d="M123 0v1536h1522v-1536h-1522zM147 25h1473v1486h-1473v-1486zM1116 500l-235 235l-238 -237l-16 18l237 238l-237 235l16 19l238 -238l235 236l19 -17l-236 -235l236 -238z" />
    <glyph glyph-name="ballotboxwithx" 
d="M123 0v1536h1522v-1536h-1522zM147 25h1473v1486h-1473v-1486zM1116 500l-235 235l-238 -237l-16 18l237 238l-237 235l16 19l238 -238l235 236l19 -17l-236 -235l236 -238z" />
    <glyph glyph-name="oneCircled" 
d="M123 0v1536h1522v-1536h-1522zM147 25h1473v1486h-1473v-1486zM1116 500l-235 235l-238 -237l-16 18l237 238l-237 235l16 19l238 -238l235 236l19 -17l-236 -235l236 -238z" />
    <glyph glyph-name="twoCircled" 
d="M123 0v1536h1522v-1536h-1522zM147 25h1473v1486h-1473v-1486zM1116 500l-235 235l-238 -237l-16 18l237 238l-237 235l16 19l238 -238l235 236l19 -17l-236 -235l236 -238z" />
    <glyph glyph-name="threeCircled" 
d="M123 0v1536h1522v-1536h-1522zM147 25h1473v1486h-1473v-1486zM1116 500l-235 235l-238 -237l-16 18l237 238l-237 235l16 19l238 -238l235 236l19 -17l-236 -235l236 -238z" />
    <glyph glyph-name="fourCircled" 
d="M123 0v1536h1522v-1536h-1522zM147 25h1473v1486h-1473v-1486zM1116 500l-235 235l-238 -237l-16 18l237 238l-237 235l16 19l238 -238l235 236l19 -17l-236 -235l236 -238z" />
    <glyph glyph-name="fiveCircled" 
d="M123 0v1536h1522v-1536h-1522zM147 25h1473v1486h-1473v-1486zM1116 500l-235 235l-238 -237l-16 18l237 238l-237 235l16 19l238 -238l235 236l19 -17l-236 -235l236 -238z" />
    <glyph glyph-name="sixCircled" 
d="M123 0v1536h1522v-1536h-1522zM147 25h1473v1486h-1473v-1486zM1116 500l-235 235l-238 -237l-16 18l237 238l-237 235l16 19l238 -238l235 236l19 -17l-236 -235l236 -238z" />
    <glyph glyph-name="sevenCircled" 
d="M123 0v1536h1522v-1536h-1522zM147 25h1473v1486h-1473v-1486zM1116 500l-235 235l-238 -237l-16 18l237 238l-237 235l16 19l238 -238l235 236l19 -17l-236 -235l236 -238z" />
    <glyph glyph-name="eightCircled" 
d="M123 0v1536h1522v-1536h-1522zM147 25h1473v1486h-1473v-1486zM1116 500l-235 235l-238 -237l-16 18l237 238l-237 235l16 19l238 -238l235 236l19 -17l-236 -235l236 -238z" />
    <glyph glyph-name="nineCircled" 
d="M123 0v1536h1522v-1536h-1522zM147 25h1473v1486h-1473v-1486zM1116 500l-235 235l-238 -237l-16 18l237 238l-237 235l16 19l238 -238l235 236l19 -17l-236 -235l236 -238z" />
    <glyph glyph-name="zeroCircled" 
d="M123 0v1536h1522v-1536h-1522zM147 25h1473v1486h-1473v-1486zM1116 500l-235 235l-238 -237l-16 18l237 238l-237 235l16 19l238 -238l235 236l19 -17l-236 -235l236 -238z" />
    <glyph glyph-name="idotaccent" 
d="M123 0v1536h1522v-1536h-1522zM147 25h1473v1486h-1473v-1486zM1116 500l-235 235l-238 -237l-16 18l237 238l-237 235l16 19l238 -238l235 236l19 -17l-236 -235l236 -238z" />
    </font>
</defs>
</svg>
