<?xml version="1.0" standalone="no"?>
<!DOCTYPE svg PUBLIC "-//W3C//DTD SVG 1.1//EN" "http://www.w3.org/Graphics/SVG/1.1/DTD/svg11.dtd" >
<svg xmlns="http://www.w3.org/2000/svg" xmlns:xlink="http://www.w3.org/1999/xlink" version="1.1">
<metadata>
Created by FontForge 20170731 at Fri Mar 31 19:44:49 2023
 By Aleksey,,,
Copyright Daniel Sabino | Blackletra Type Foundry
</metadata>
<defs>
<font id="NokaTrial-Black" horiz-adv-x="1705" >
  <font-face 
    font-family="Noka Trial Black"
    font-weight="900"
    font-stretch="normal"
    units-per-em="2048"
    panose-1="0 0 0 0 0 0 0 0 0 0"
    ascent="1638"
    descent="-410"
    x-height="1065"
    cap-height="1536"
    bbox="10 -410 2161 1565"
    underline-thickness="0"
    underline-position="0"
    unicode-range="U+0020-FB02"
  />
<missing-glyph 
d="M92 0v1536h1522v-1536h-1522zM381 279h944v978h-944v-978zM1047 383l-201 201l-201 -201l-178 178l201 201l-201 201l178 178l201 -201l201 201l178 -178l-201 -201l201 -201z" />
    <glyph glyph-name=".notdef" 
d="M92 0v1536h1522v-1536h-1522zM381 279h944v978h-944v-978zM1047 383l-201 201l-201 -201l-178 178l201 201l-201 201l178 178l201 -201l201 201l178 -178l-201 -201l201 -201z" />
    <glyph glyph-name=".null" horiz-adv-x="0" 
 />
    <glyph glyph-name="nonmarkingreturn" horiz-adv-x="682" 
 />
    <glyph glyph-name="space" unicode=" " horiz-adv-x="409" 
 />
    <glyph glyph-name="exclam" unicode="!" 
d="M92 0v1536h1522v-1536h-1522zM381 279h944v978h-944v-978zM1047 383l-201 201l-201 -201l-178 178l201 201l-201 201l178 178l201 -201l201 201l178 -178l-201 -201l201 -201z" />
    <glyph glyph-name="quotedbl" unicode="&#x22;" 
d="M92 0v1536h1522v-1536h-1522zM381 279h944v978h-944v-978zM1047 383l-201 201l-201 -201l-178 178l201 201l-201 201l178 178l201 -201l201 201l178 -178l-201 -201l201 -201z" />
    <glyph glyph-name="numbersign" unicode="#" 
d="M92 0v1536h1522v-1536h-1522zM381 279h944v978h-944v-978zM1047 383l-201 201l-201 -201l-178 178l201 201l-201 201l178 178l201 -201l201 201l178 -178l-201 -201l201 -201z" />
    <glyph glyph-name="dollar" unicode="$" 
d="M92 0v1536h1522v-1536h-1522zM381 279h944v978h-944v-978zM1047 383l-201 201l-201 -201l-178 178l201 201l-201 201l178 178l201 -201l201 201l178 -178l-201 -201l201 -201z" />
    <glyph glyph-name="percent" unicode="%" 
d="M92 0v1536h1522v-1536h-1522zM381 279h944v978h-944v-978zM1047 383l-201 201l-201 -201l-178 178l201 201l-201 201l178 178l201 -201l201 201l178 -178l-201 -201l201 -201z" />
    <glyph glyph-name="ampersand" unicode="&#x26;" 
d="M92 0v1536h1522v-1536h-1522zM381 279h944v978h-944v-978zM1047 383l-201 201l-201 -201l-178 178l201 201l-201 201l178 178l201 -201l201 201l178 -178l-201 -201l201 -201z" />
    <glyph glyph-name="quotesingle" unicode="'" 
d="M92 0v1536h1522v-1536h-1522zM381 279h944v978h-944v-978zM1047 383l-201 201l-201 -201l-178 178l201 201l-201 201l178 178l201 -201l201 201l178 -178l-201 -201l201 -201z" />
    <glyph glyph-name="parenleft" unicode="(" 
d="M92 0v1536h1522v-1536h-1522zM381 279h944v978h-944v-978zM1047 383l-201 201l-201 -201l-178 178l201 201l-201 201l178 178l201 -201l201 201l178 -178l-201 -201l201 -201z" />
    <glyph glyph-name="parenright" unicode=")" 
d="M92 0v1536h1522v-1536h-1522zM381 279h944v978h-944v-978zM1047 383l-201 201l-201 -201l-178 178l201 201l-201 201l178 178l201 -201l201 201l178 -178l-201 -201l201 -201z" />
    <glyph glyph-name="asterisk" unicode="*" 
d="M92 0v1536h1522v-1536h-1522zM381 279h944v978h-944v-978zM1047 383l-201 201l-201 -201l-178 178l201 201l-201 201l178 178l201 -201l201 201l178 -178l-201 -201l201 -201z" />
    <glyph glyph-name="plus" unicode="+" 
d="M92 0v1536h1522v-1536h-1522zM381 279h944v978h-944v-978zM1047 383l-201 201l-201 -201l-178 178l201 201l-201 201l178 178l201 -201l201 201l178 -178l-201 -201l201 -201z" />
    <glyph glyph-name="comma" unicode="," horiz-adv-x="690" 
d="M365 -266h-345l125 641h484z" />
    <glyph glyph-name="hyphen" unicode="-" horiz-adv-x="913" 
d="M791 381h-668v299h668v-299z" />
    <glyph glyph-name="period" unicode="." horiz-adv-x="579" 
d="M508 0h-436v375h436v-375z" />
    <glyph glyph-name="slash" unicode="/" 
d="M92 0v1536h1522v-1536h-1522zM381 279h944v978h-944v-978zM1047 383l-201 201l-201 -201l-178 178l201 201l-201 201l178 178l201 -201l201 201l178 -178l-201 -201l201 -201z" />
    <glyph glyph-name="zero" unicode="0" horiz-adv-x="1249" 
d="M1194 557q0 -172 -67 -304t-197 -207t-307 -75t-307 75t-196.5 207t-66.5 304v422q0 170 66.5 301.5t197 208t306.5 76.5t306.5 -76.5t197.5 -208t67 -301.5v-422zM532 537q0 -69 19 -100t72 -31t72.5 31t19.5 100v462q0 66 -19.5 98.5t-72.5 32.5q-52 0 -71.5 -32
t-19.5 -99v-462z" />
    <glyph glyph-name="one" unicode="1" horiz-adv-x="1249" 
d="M1196 440v-440h-1143v440h330v654h-330v442h821v-1096h322z" />
    <glyph glyph-name="two" unicode="2" horiz-adv-x="1249" 
d="M1206 440v-440h-1151v328l576 647q35 38 35 76q0 27 -17 44t-47 17t-46.5 -20.5t-16.5 -51.5v-18h-484v18q0 240 149.5 382.5t432.5 142.5q261 0 409 -138t148 -356q0 -103 -42 -193t-126 -186l-221 -252h401z" />
    <glyph glyph-name="three" unicode="3" horiz-adv-x="1249" 
d="M1165 526q0 -229 -160.5 -377.5t-404.5 -148.5h-547v440h412q53 0 86 25.5t33 71.5q0 47 -32 70.5t-85 23.5h-297l272 463h-389v442h1096l-299 -539q145 -61 230 -185t85 -286z" />
    <glyph glyph-name="four" unicode="4" horiz-adv-x="1249" 
d="M1196 1536v-1536h-500v578h-643v958h500v-596h143v596h500z" />
    <glyph glyph-name="five" unicode="5" horiz-adv-x="1249" 
d="M672 0h-619v440h537q45 0 65.5 19t20.5 45q0 27 -20.5 46t-63.5 19h-539v967h1059v-442h-590v-109h150q239 0 381.5 -138t142.5 -353q0 -216 -142.5 -355t-381.5 -139z" />
    <glyph glyph-name="six" unicode="6" horiz-adv-x="1249" 
d="M1233 524q0 -243 -171 -398t-439 -155q-176 0 -315 68t-216.5 190t-77.5 277q0 131 58 244l397 786h592l-264 -508q136 -23 236 -98t150 -180t50 -226zM487 522q0 -56 37.5 -89.5t98.5 -33.5q62 0 99.5 33t37.5 90q0 55 -38 90t-99 35q-60 0 -98 -35.5t-38 -89.5z" />
    <glyph glyph-name="seven" unicode="7" horiz-adv-x="1249" 
d="M1221 1536l-512 -1536h-576l375 1094h-481v442h1194z" />
    <glyph glyph-name="eight" unicode="8" horiz-adv-x="1249" 
d="M1204 471q0 -217 -159.5 -358.5t-421.5 -141.5q-260 0 -420 141.5t-160 358.5q0 101 44 193t122 157q-105 117 -105 285q0 201 142 330t377 129q233 0 376.5 -129t143.5 -330q0 -167 -107 -283q80 -66 124 -158.5t44 -193.5zM516 1081q0 -50 30 -79t77 -29q50 0 79 28.5
t29 79.5q0 49 -29 78t-79 29q-47 0 -77 -29t-30 -78zM500 508q0 -53 34 -85t89 -32q56 0 90.5 31.5t34.5 85.5q0 53 -35 86t-90 33q-54 0 -88.5 -33.5t-34.5 -85.5z" />
    <glyph glyph-name="nine" unicode="9" horiz-adv-x="1249" 
d="M1176 786l-398 -786h-592l265 508q-203 34 -320 176t-117 328q0 243 171.5 398t439.5 155q267 0 437.5 -150t170.5 -385q0 -133 -57 -244zM487 1014q0 -54 38.5 -89.5t99.5 -35.5q60 0 97.5 35.5t37.5 89.5q0 56 -37 89.5t-98 33.5q-62 0 -100 -33.5t-38 -89.5z" />
    <glyph glyph-name="colon" unicode=":" 
d="M92 0v1536h1522v-1536h-1522zM381 279h944v978h-944v-978zM1047 383l-201 201l-201 -201l-178 178l201 201l-201 201l178 178l201 -201l201 201l178 -178l-201 -201l201 -201z" />
    <glyph glyph-name="semicolon" unicode=";" 
d="M92 0v1536h1522v-1536h-1522zM381 279h944v978h-944v-978zM1047 383l-201 201l-201 -201l-178 178l201 201l-201 201l178 178l201 -201l201 201l178 -178l-201 -201l201 -201z" />
    <glyph glyph-name="less" unicode="&#x3c;" 
d="M92 0v1536h1522v-1536h-1522zM381 279h944v978h-944v-978zM1047 383l-201 201l-201 -201l-178 178l201 201l-201 201l178 178l201 -201l201 201l178 -178l-201 -201l201 -201z" />
    <glyph glyph-name="equal" unicode="=" 
d="M92 0v1536h1522v-1536h-1522zM381 279h944v978h-944v-978zM1047 383l-201 201l-201 -201l-178 178l201 201l-201 201l178 178l201 -201l201 201l178 -178l-201 -201l201 -201z" />
    <glyph glyph-name="greater" unicode="&#x3e;" 
d="M92 0v1536h1522v-1536h-1522zM381 279h944v978h-944v-978zM1047 383l-201 201l-201 -201l-178 178l201 201l-201 201l178 178l201 -201l201 201l178 -178l-201 -201l201 -201z" />
    <glyph glyph-name="question" unicode="?" 
d="M92 0v1536h1522v-1536h-1522zM381 279h944v978h-944v-978zM1047 383l-201 201l-201 -201l-178 178l201 201l-201 201l178 178l201 -201l201 201l178 -178l-201 -201l201 -201z" />
    <glyph glyph-name="at" unicode="@" 
d="M92 0v1536h1522v-1536h-1522zM381 279h944v978h-944v-978zM1047 383l-201 201l-201 -201l-178 178l201 201l-201 201l178 178l201 -201l201 201l178 -178l-201 -201l201 -201z" />
    <glyph glyph-name="A" unicode="A" horiz-adv-x="1542" 
d="M963 0l-39 270h-306l-38 -270h-570l338 1536h846l338 -1536h-569zM731 1044l-53 -368h186l-53 368h-80z" />
    <glyph glyph-name="B" unicode="B" horiz-adv-x="1419" 
d="M1378 481q0 -215 -142 -348t-382 -133h-782v1536h757q218 0 348 -122.5t130 -317.5q0 -62 -25.5 -136.5t-62.5 -128.5q66 -58 112.5 -150t46.5 -200zM733 1098h-139v-154h137q36 0 56 21.5t20 54.5t-20 55.5t-54 22.5zM778 610h-184v-178h182q45 0 68.5 24.5t23.5 63.5
t-23 64.5t-67 25.5z" />
    <glyph glyph-name="C" unicode="C" horiz-adv-x="1736" 
d="M1696 700q-13 -214 -125 -381t-294 -257.5t-403 -90.5q-180 0 -335.5 61t-264.5 167.5t-171 255.5t-62 321q0 225 105.5 405t296 282t431.5 102q163 0 309.5 -52.5t256 -145t178 -227.5t78.5 -292h-559q-26 87 -95 140.5t-168 53.5q-120 0 -193 -77t-73 -197
q0 -119 73 -196.5t193 -77.5q101 0 171.5 57.5t93.5 148.5h557z" />
    <glyph glyph-name="D" unicode="D" horiz-adv-x="1538" 
d="M674 0h-602v1536h600q191 0 347 -56.5t260.5 -157t161 -240.5t56.5 -306q0 -170 -57 -313t-161.5 -245.5t-259.5 -160t-345 -57.5zM657 1044h-45v-542h47q132 0 202.5 72t70.5 198q0 128 -71 200t-204 72z" />
    <glyph glyph-name="E" unicode="E" horiz-adv-x="1159" 
d="M1098 440v-440h-1026v1536h1020v-440h-459v-129h436v-373h-436v-154h465z" />
    <glyph glyph-name="F" unicode="F" horiz-adv-x="927" 
d="M858 594h-225v-594h-561v1536h805v-440h-244v-129h225v-373z" />
    <glyph glyph-name="G" unicode="G" horiz-adv-x="1738" 
d="M1698 784q0 -173 -63.5 -325t-173 -258.5t-260.5 -168t-320 -61.5q-183 0 -340 60.5t-266.5 166.5t-171.5 254.5t-62 319.5q0 226 104.5 407t294 283.5t430.5 102.5q193 0 357 -66.5t281.5 -198.5t164.5 -313h-600q-19 32 -71.5 57t-116.5 25q-124 0 -202.5 -84.5
t-78.5 -216.5q0 -135 80.5 -225t212.5 -90q160 0 248 106h-293v299h840q6 -60 6 -74z" />
    <glyph glyph-name="H" unicode="H" horiz-adv-x="1460" 
d="M827 0v584h-194v-584h-561v1536h561v-545h194v545h562v-1536h-562z" />
    <glyph glyph-name="I" unicode="I" horiz-adv-x="704" 
d="M633 0h-561v1536h561v-1536z" />
    <glyph glyph-name="J" unicode="J" horiz-adv-x="915" 
d="M354 0h-309v446h129q52 0 80.5 31t28.5 88v971h561v-1059q0 -233 -125.5 -355t-364.5 -122z" />
    <glyph glyph-name="K" unicode="K" horiz-adv-x="1548" 
d="M915 0l-190 584h-92v-584h-561v1536h561v-545h76l186 545h602l-283 -707l324 -829h-623z" />
    <glyph glyph-name="L" unicode="L" horiz-adv-x="913" 
d="M862 440v-440h-790v1536h561v-1096h229z" />
    <glyph glyph-name="M" unicode="M" horiz-adv-x="2220" 
d="M633 0h-561v1536h872l131 -651h70l131 651h872v-1536h-561v858h-69l-146 -764h-524l-146 764h-69v-858z" />
    <glyph glyph-name="N" unicode="N" horiz-adv-x="1607" 
d="M584 0h-512v1536h571l311 -655h70v655h512v-1536h-592l-291 655h-69v-655z" />
    <glyph glyph-name="O" unicode="O" horiz-adv-x="1751" 
d="M1710 776q0 -229 -105.5 -412.5t-297 -288t-433.5 -104.5q-180 0 -335.5 61t-264.5 167.5t-171 255.5t-62 321q0 225 105.5 405t296 282t431.5 102q182 0 338 -59.5t265 -164t171 -250.5t62 -315zM608 768q0 -119 73 -196.5t193 -77.5q121 0 195 77.5t74 196.5
q0 120 -74 197t-195 77q-120 0 -193 -77t-73 -197z" />
    <glyph glyph-name="P" unicode="P" horiz-adv-x="1466" 
d="M819 352h-186v-352h-561v1536h745q285 0 452 -158t167 -432q0 -275 -166.5 -434.5t-450.5 -159.5zM729 1100h-96v-312h98q74 0 114 45.5t40 112.5q0 66 -40 110t-116 44z" />
    <glyph glyph-name="Q" unicode="Q" horiz-adv-x="1751" 
d="M1710 776q0 -278 -153.5 -484.5t-411.5 -283.5l4 -344h-549l4 344q-257 77 -410 283.5t-153 484.5q0 225 105.5 405t296 282t431.5 102q182 0 338 -59.5t265 -164t171 -250.5t62 -315zM608 768q0 -119 73 -196.5t193 -77.5q121 0 195 77.5t74 196.5q0 120 -74 197
t-195 77q-120 0 -193 -77t-73 -197z" />
    <glyph glyph-name="R" unicode="R" horiz-adv-x="1497" 
d="M883 0l-154 442h-96v-442h-561v1536h821q272 0 421.5 -153t149.5 -412q0 -141 -53 -252t-154 -178l209 -541h-583zM752 1100h-119v-291h121q69 0 101 40.5t32 106.5q0 64 -32.5 104t-102.5 40z" />
    <glyph glyph-name="S" unicode="S" horiz-adv-x="1333" 
d="M784 0h-721v440h578q45 0 65.5 19t20.5 45q0 27 -20.5 46t-63.5 19h-90q-236 0 -378 133.5t-142 350.5t142 350t378 133h698v-440h-544q-37 0 -57.5 -15t-20.5 -41q0 -25 21 -40t57 -15h77q239 0 382 -138t143 -353q0 -216 -143 -355t-382 -139z" />
    <glyph glyph-name="T" unicode="T" horiz-adv-x="1095" 
d="M829 0h-561v1096h-217v440h993v-440h-215v-1096z" />
    <glyph glyph-name="U" unicode="U" horiz-adv-x="1478" 
d="M1413 625q0 -300 -183 -477t-491 -177q-307 0 -490 177t-183 477v911h561v-936q0 -60 30 -97.5t82 -37.5t82.5 37.5t30.5 97.5v936h561v-911z" />
    <glyph glyph-name="V" unicode="V" horiz-adv-x="1574" 
d="M1227 0h-879l-338 1536h590l145 -1044h84l146 1044h590z" />
    <glyph glyph-name="W" unicode="W" horiz-adv-x="2170" 
d="M1233 0l-148 555l-147 -555h-590l-338 1536h559l109 -815h63l84 375v293h521v-291l84 -377h63l109 815h559l-338 -1536h-590z" />
    <glyph glyph-name="X" unicode="X" horiz-adv-x="1536" 
d="M926 0l-115 584h-86l-115 -584h-600l234 807l-209 729h604l92 -545h74l92 545h604l-219 -727l244 -809h-600z" />
    <glyph glyph-name="Y" unicode="Y" horiz-adv-x="1462" 
d="M1231 530h-219v-530h-561v530h-220l-221 1006h590l88 -631h84l88 631h592z" />
    <glyph glyph-name="Z" unicode="Z" horiz-adv-x="1228" 
d="M1171 0h-1114v420l484 604v72h-471v440h1093v-492l-426 -532v-72h434v-440z" />
    <glyph glyph-name="bracketleft" unicode="[" 
d="M92 0v1536h1522v-1536h-1522zM381 279h944v978h-944v-978zM1047 383l-201 201l-201 -201l-178 178l201 201l-201 201l178 178l201 -201l201 201l178 -178l-201 -201l201 -201z" />
    <glyph glyph-name="backslash" unicode="\" 
d="M92 0v1536h1522v-1536h-1522zM381 279h944v978h-944v-978zM1047 383l-201 201l-201 -201l-178 178l201 201l-201 201l178 178l201 -201l201 201l178 -178l-201 -201l201 -201z" />
    <glyph glyph-name="bracketright" unicode="]" 
d="M92 0v1536h1522v-1536h-1522zM381 279h944v978h-944v-978zM1047 383l-201 201l-201 -201l-178 178l201 201l-201 201l178 178l201 -201l201 201l178 -178l-201 -201l201 -201z" />
    <glyph glyph-name="asciicircum" unicode="^" 
d="M92 0v1536h1522v-1536h-1522zM381 279h944v978h-944v-978zM1047 383l-201 201l-201 -201l-178 178l201 201l-201 201l178 178l201 -201l201 201l178 -178l-201 -201l201 -201z" />
    <glyph glyph-name="underscore" unicode="_" 
d="M92 0v1536h1522v-1536h-1522zM381 279h944v978h-944v-978zM1047 383l-201 201l-201 -201l-178 178l201 201l-201 201l178 178l201 -201l201 201l178 -178l-201 -201l201 -201z" />
    <glyph glyph-name="grave" unicode="`" 
d="M92 0v1536h1522v-1536h-1522zM381 279h944v978h-944v-978zM1047 383l-201 201l-201 -201l-178 178l201 201l-201 201l178 178l201 -201l201 201l178 -178l-201 -201l201 -201z" />
    <glyph glyph-name="a" unicode="a" horiz-adv-x="1349" 
d="M807 0v197q-49 -108 -136 -167t-190 -59q-188 0 -309 156.5t-121 404.5q0 246 121 404t309 158q102 0 189 -59t137 -167v197h471v-1065h-471zM522 532q0 -59 38.5 -95t96.5 -36q52 0 94.5 29.5t55.5 63.5v71q-20 39 -59.5 69t-90.5 30q-58 0 -96.5 -37t-38.5 -95z" />
    <glyph glyph-name="b" unicode="b" horiz-adv-x="1349" 
d="M1298 532q0 -248 -121 -404.5t-309 -156.5q-103 0 -189.5 59t-135.5 167v-197h-471v1536h471v-668q51 108 137 167t188 59q188 0 309 -158t121 -404zM692 664q-51 0 -90 -29.5t-59 -69.5v-71q13 -34 55 -63.5t94 -29.5q58 0 96.5 36t38.5 95q0 58 -38.5 95t-96.5 37z" />
    <glyph glyph-name="c" unicode="c" horiz-adv-x="1259" 
d="M1206 467q-12 -228 -168 -362t-397 -134q-269 0 -429.5 155t-160.5 406q0 249 161 405.5t429 156.5q240 0 397.5 -140t169.5 -370h-432q-16 39 -51 63.5t-84 24.5q-63 0 -102 -40t-39 -100q0 -61 38.5 -100t102.5 -39q88 0 131 74h434z" />
    <glyph glyph-name="d" unicode="d" horiz-adv-x="1349" 
d="M807 0v197q-49 -108 -136 -167t-190 -59q-188 0 -309 156.5t-121 404.5q0 246 121 404t309 158q102 0 189 -59t137 -167v668h471v-1536h-471zM522 532q0 -59 38.5 -95t96.5 -36q52 0 94.5 29.5t55.5 63.5v71q-20 39 -59.5 69t-90.5 30q-58 0 -96.5 -37t-38.5 -95z" />
    <glyph glyph-name="e" unicode="e" horiz-adv-x="1236" 
d="M1182 426q-25 -198 -178.5 -326.5t-382.5 -128.5q-163 0 -294 73.5t-203.5 202.5t-72.5 288q0 154 69 280.5t199 202.5t297 76q119 0 217 -36t162 -94t108.5 -135.5t63.5 -157t19 -161.5h-735q9 -74 54.5 -115t115.5 -41q56 0 96 21.5t55 50.5h410zM618 733
q-116 0 -155 -104h305q-35 104 -150 104z" />
    <glyph glyph-name="f" unicode="f" horiz-adv-x="831" 
d="M193 -410h-168v355h84q55 0 55 57v698h-127v365h127v70q0 196 115.5 298.5t347.5 102.5h168v-354h-84q-56 0 -56 -58v-59h140v-365h-140v-708q0 -196 -115 -299t-347 -103z" />
    <glyph glyph-name="g" unicode="g" horiz-adv-x="1349" 
d="M1278 -8q0 -196 -115.5 -299t-347.5 -103h-549v351h484q57 0 57 59v213q-50 -99 -137 -153t-189 -54q-188 0 -309 147t-121 379q0 248 121 405t309 157q103 0 190 -59t136 -167v197h471v-1073zM522 532q0 -58 38.5 -94.5t96.5 -36.5q51 0 90.5 30t59.5 69v71
q-13 34 -55.5 63.5t-94.5 29.5q-58 0 -96.5 -36.5t-38.5 -95.5z" />
    <glyph glyph-name="h" unicode="h" horiz-adv-x="1298" 
d="M647 664q-40 0 -84 -21v-643h-491v1536h491v-686q54 114 153 179t216 65q136 0 215.5 -94t79.5 -261v-739h-492v561q0 103 -88 103z" />
    <glyph glyph-name="i" unicode="i" horiz-adv-x="634" 
d="M563 1182h-491v354h491v-354zM563 0h-491v1065h491v-1065z" />
    <glyph glyph-name="j" unicode="j" horiz-adv-x="634" 
d="M563 1182h-491v354h491v-354zM563 -410h-491v1475h491v-1475z" />
    <glyph glyph-name="k" unicode="k" horiz-adv-x="1277" 
d="M748 0l-121 354h-64v-354h-491v1536h491v-817h58l122 346h500l-203 -496l228 -569h-520z" />
    <glyph glyph-name="l" unicode="l" horiz-adv-x="634" 
d="M563 0h-491v1536h491v-1536z" />
    <glyph glyph-name="m" unicode="m" horiz-adv-x="1961" 
d="M647 664q-40 0 -84 -21v-643h-491v1065h491v-215q54 114 153 179t216 65q116 0 191.5 -68t95.5 -192q52 121 153 190.5t223 69.5q136 0 215.5 -94t79.5 -261v-739h-491v561q0 103 -88 103q-40 0 -84 -21v-643h-492v561q0 103 -88 103z" />
    <glyph glyph-name="n" unicode="n" horiz-adv-x="1298" 
d="M647 664q-40 0 -84 -21v-643h-491v1065h491v-215q54 114 153 179t216 65q136 0 215.5 -94t79.5 -261v-739h-492v561q0 103 -88 103z" />
    <glyph glyph-name="o" unicode="o" horiz-adv-x="1282" 
d="M1231 532q0 -251 -161 -406t-429 -155q-269 0 -429.5 155t-160.5 406q0 249 161 405.5t429 156.5q267 0 428.5 -156.5t161.5 -405.5zM500 532q0 -61 38.5 -100t102.5 -39t102.5 39t38.5 100q0 60 -39 100t-102 40t-102 -40t-39 -100z" />
    <glyph glyph-name="p" unicode="p" horiz-adv-x="1349" 
d="M868 -29q-102 0 -188 59t-137 167v-607h-471v1475h471v-197q49 108 135.5 167t189.5 59q188 0 309 -157t121 -405q0 -246 -121 -403.5t-309 -157.5zM692 664q-52 0 -94 -29.5t-55 -63.5v-71q20 -40 59 -69.5t90 -29.5q58 0 96.5 36.5t38.5 94.5q0 59 -38.5 95.5
t-96.5 36.5z" />
    <glyph glyph-name="q" unicode="q" horiz-adv-x="1349" 
d="M1278 1065v-1475h-471v607q-50 -108 -137 -167t-189 -59q-188 0 -309 157.5t-121 403.5q0 248 121 405t309 157q103 0 190 -59t136 -167v197h471zM522 532q0 -58 38.5 -94.5t96.5 -36.5q51 0 90.5 30t59.5 69v71q-13 34 -55.5 63.5t-94.5 29.5q-58 0 -96.5 -36.5
t-38.5 -95.5z" />
    <glyph glyph-name="r" unicode="r" horiz-adv-x="925" 
d="M874 545q-154 0 -311 -15v-530h-491v1065h491v-293q39 148 124 235t187 87v-549z" />
    <glyph glyph-name="s" unicode="s" horiz-adv-x="1062" 
d="M647 0h-577v338h514q39 0 39 33q0 32 -39 32h-172q-177 0 -274 91t-97 243q0 143 106 235.5t263 92.5h559v-332h-469q-39 0 -39 -33q0 -32 39 -32h149q181 0 279 -89.5t98 -240.5t-102 -244.5t-277 -93.5z" />
    <glyph glyph-name="t" unicode="t" horiz-adv-x="819" 
d="M782 700h-127v-700h-491v700h-127v365h127v297h491v-297h127v-365z" />
    <glyph glyph-name="u" unicode="u" horiz-adv-x="1298" 
d="M735 0v215q-54 -114 -152.5 -179t-215.5 -65q-136 0 -215.5 94t-79.5 261v739h491v-561q0 -103 88 -103q40 0 84 21v643h492v-1065h-492z" />
    <glyph glyph-name="v" unicode="v" horiz-adv-x="1185" 
d="M942 0h-698l-234 1065h488l61 -676h64l61 676h492z" />
    <glyph glyph-name="w" unicode="w" horiz-adv-x="1884" 
d="M1061 0l-119 358l-119 -358h-579l-234 1065h477l80 -567h58l102 280v176h430v-176l103 -280h57l80 567h477l-234 -1065h-579z" />
    <glyph glyph-name="x" unicode="x" horiz-adv-x="1239" 
d="M725 0l-82 360h-47l-82 -360h-504l211 547l-196 518h497l74 -356h47l74 356h497l-196 -518l211 -547h-504z" />
    <glyph glyph-name="y" unicode="y" horiz-adv-x="1226" 
d="M967 -74q-38 -172 -143 -254t-285 -82h-299l-76 355h299q52 0 78.5 17t38.5 58l4 17h-348l-226 1028h498l65 -676h76l66 676h502z" />
    <glyph glyph-name="z" unicode="z" horiz-adv-x="1024" 
d="M983 0h-942v295l346 330v61h-328v379h906v-354l-293 -271v-61h311v-379z" />
    <glyph glyph-name="braceleft" unicode="{" 
d="M92 0v1536h1522v-1536h-1522zM381 279h944v978h-944v-978zM1047 383l-201 201l-201 -201l-178 178l201 201l-201 201l178 178l201 -201l201 201l178 -178l-201 -201l201 -201z" />
    <glyph glyph-name="bar" unicode="|" 
d="M92 0v1536h1522v-1536h-1522zM381 279h944v978h-944v-978zM1047 383l-201 201l-201 -201l-178 178l201 201l-201 201l178 178l201 -201l201 201l178 -178l-201 -201l201 -201z" />
    <glyph glyph-name="braceright" unicode="}" 
d="M92 0v1536h1522v-1536h-1522zM381 279h944v978h-944v-978zM1047 383l-201 201l-201 -201l-178 178l201 201l-201 201l178 178l201 -201l201 201l178 -178l-201 -201l201 -201z" />
    <glyph glyph-name="asciitilde" unicode="~" 
d="M92 0v1536h1522v-1536h-1522zM381 279h944v978h-944v-978zM1047 383l-201 201l-201 -201l-178 178l201 201l-201 201l178 178l201 -201l201 201l178 -178l-201 -201l201 -201z" />
    <glyph glyph-name="exclamdown" unicode="&#xa1;" 
d="M92 0v1536h1522v-1536h-1522zM381 279h944v978h-944v-978zM1047 383l-201 201l-201 -201l-178 178l201 201l-201 201l178 178l201 -201l201 201l178 -178l-201 -201l201 -201z" />
    <glyph glyph-name="cent" unicode="&#xa2;" 
d="M92 0v1536h1522v-1536h-1522zM381 279h944v978h-944v-978zM1047 383l-201 201l-201 -201l-178 178l201 201l-201 201l178 178l201 -201l201 201l178 -178l-201 -201l201 -201z" />
    <glyph glyph-name="sterling" unicode="&#xa3;" 
d="M92 0v1536h1522v-1536h-1522zM381 279h944v978h-944v-978zM1047 383l-201 201l-201 -201l-178 178l201 201l-201 201l178 178l201 -201l201 201l178 -178l-201 -201l201 -201z" />
    <glyph glyph-name="currency" unicode="&#xa4;" 
d="M92 0v1536h1522v-1536h-1522zM381 279h944v978h-944v-978zM1047 383l-201 201l-201 -201l-178 178l201 201l-201 201l178 178l201 -201l201 201l178 -178l-201 -201l201 -201z" />
    <glyph glyph-name="yen" unicode="&#xa5;" 
d="M92 0v1536h1522v-1536h-1522zM381 279h944v978h-944v-978zM1047 383l-201 201l-201 -201l-178 178l201 201l-201 201l178 178l201 -201l201 201l178 -178l-201 -201l201 -201z" />
    <glyph glyph-name="brokenbar" unicode="&#xa6;" 
d="M92 0v1536h1522v-1536h-1522zM381 279h944v978h-944v-978zM1047 383l-201 201l-201 -201l-178 178l201 201l-201 201l178 178l201 -201l201 201l178 -178l-201 -201l201 -201z" />
    <glyph glyph-name="section" unicode="&#xa7;" 
d="M92 0v1536h1522v-1536h-1522zM381 279h944v978h-944v-978zM1047 383l-201 201l-201 -201l-178 178l201 201l-201 201l178 178l201 -201l201 201l178 -178l-201 -201l201 -201z" />
    <glyph glyph-name="dieresis" unicode="&#xa8;" 
d="M92 0v1536h1522v-1536h-1522zM381 279h944v978h-944v-978zM1047 383l-201 201l-201 -201l-178 178l201 201l-201 201l178 178l201 -201l201 201l178 -178l-201 -201l201 -201z" />
    <glyph glyph-name="copyright" unicode="&#xa9;" 
d="M92 0v1536h1522v-1536h-1522zM381 279h944v978h-944v-978zM1047 383l-201 201l-201 -201l-178 178l201 201l-201 201l178 178l201 -201l201 201l178 -178l-201 -201l201 -201z" />
    <glyph glyph-name="ordfeminine" unicode="&#xaa;" 
d="M92 0v1536h1522v-1536h-1522zM381 279h944v978h-944v-978zM1047 383l-201 201l-201 -201l-178 178l201 201l-201 201l178 178l201 -201l201 201l178 -178l-201 -201l201 -201z" />
    <glyph glyph-name="guillemotleft" unicode="&#xab;" 
d="M92 0v1536h1522v-1536h-1522zM381 279h944v978h-944v-978zM1047 383l-201 201l-201 -201l-178 178l201 201l-201 201l178 178l201 -201l201 201l178 -178l-201 -201l201 -201z" />
    <glyph glyph-name="registered" unicode="&#xae;" 
d="M92 0v1536h1522v-1536h-1522zM381 279h944v978h-944v-978zM1047 383l-201 201l-201 -201l-178 178l201 201l-201 201l178 178l201 -201l201 201l178 -178l-201 -201l201 -201z" />
    <glyph glyph-name="macron" unicode="&#xaf;" 
d="M92 0v1536h1522v-1536h-1522zM381 279h944v978h-944v-978zM1047 383l-201 201l-201 -201l-178 178l201 201l-201 201l178 178l201 -201l201 201l178 -178l-201 -201l201 -201z" />
    <glyph glyph-name="degree" unicode="&#xb0;" 
d="M92 0v1536h1522v-1536h-1522zM381 279h944v978h-944v-978zM1047 383l-201 201l-201 -201l-178 178l201 201l-201 201l178 178l201 -201l201 201l178 -178l-201 -201l201 -201z" />
    <glyph glyph-name="plusminus" unicode="&#xb1;" 
d="M92 0v1536h1522v-1536h-1522zM381 279h944v978h-944v-978zM1047 383l-201 201l-201 -201l-178 178l201 201l-201 201l178 178l201 -201l201 201l178 -178l-201 -201l201 -201z" />
    <glyph glyph-name="acute" unicode="&#xb4;" 
d="M92 0v1536h1522v-1536h-1522zM381 279h944v978h-944v-978zM1047 383l-201 201l-201 -201l-178 178l201 201l-201 201l178 178l201 -201l201 201l178 -178l-201 -201l201 -201z" />
    <glyph glyph-name="paragraph" unicode="&#xb6;" 
d="M92 0v1536h1522v-1536h-1522zM381 279h944v978h-944v-978zM1047 383l-201 201l-201 -201l-178 178l201 201l-201 201l178 178l201 -201l201 201l178 -178l-201 -201l201 -201z" />
    <glyph glyph-name="periodcentered" unicode="&#xb7;" 
d="M92 0v1536h1522v-1536h-1522zM381 279h944v978h-944v-978zM1047 383l-201 201l-201 -201l-178 178l201 201l-201 201l178 178l201 -201l201 201l178 -178l-201 -201l201 -201z" />
    <glyph glyph-name="cedilla" unicode="&#xb8;" 
d="M92 0v1536h1522v-1536h-1522zM381 279h944v978h-944v-978zM1047 383l-201 201l-201 -201l-178 178l201 201l-201 201l178 178l201 -201l201 201l178 -178l-201 -201l201 -201z" />
    <glyph glyph-name="ordmasculine" unicode="&#xba;" 
d="M92 0v1536h1522v-1536h-1522zM381 279h944v978h-944v-978zM1047 383l-201 201l-201 -201l-178 178l201 201l-201 201l178 178l201 -201l201 201l178 -178l-201 -201l201 -201z" />
    <glyph glyph-name="guillemotright" unicode="&#xbb;" 
d="M92 0v1536h1522v-1536h-1522zM381 279h944v978h-944v-978zM1047 383l-201 201l-201 -201l-178 178l201 201l-201 201l178 178l201 -201l201 201l178 -178l-201 -201l201 -201z" />
    <glyph glyph-name="onequarter" unicode="&#xbc;" 
d="M92 0v1536h1522v-1536h-1522zM381 279h944v978h-944v-978zM1047 383l-201 201l-201 -201l-178 178l201 201l-201 201l178 178l201 -201l201 201l178 -178l-201 -201l201 -201z" />
    <glyph glyph-name="onehalf" unicode="&#xbd;" 
d="M92 0v1536h1522v-1536h-1522zM381 279h944v978h-944v-978zM1047 383l-201 201l-201 -201l-178 178l201 201l-201 201l178 178l201 -201l201 201l178 -178l-201 -201l201 -201z" />
    <glyph glyph-name="threequarters" unicode="&#xbe;" 
d="M92 0v1536h1522v-1536h-1522zM381 279h944v978h-944v-978zM1047 383l-201 201l-201 -201l-178 178l201 201l-201 201l178 178l201 -201l201 201l178 -178l-201 -201l201 -201z" />
    <glyph glyph-name="questiondown" unicode="&#xbf;" 
d="M92 0v1536h1522v-1536h-1522zM381 279h944v978h-944v-978zM1047 383l-201 201l-201 -201l-178 178l201 201l-201 201l178 178l201 -201l201 201l178 -178l-201 -201l201 -201z" />
    <glyph glyph-name="Agrave" unicode="&#xc0;" 
d="M92 0v1536h1522v-1536h-1522zM381 279h944v978h-944v-978zM1047 383l-201 201l-201 -201l-178 178l201 201l-201 201l178 178l201 -201l201 201l178 -178l-201 -201l201 -201z" />
    <glyph glyph-name="Aacute" unicode="&#xc1;" 
d="M92 0v1536h1522v-1536h-1522zM381 279h944v978h-944v-978zM1047 383l-201 201l-201 -201l-178 178l201 201l-201 201l178 178l201 -201l201 201l178 -178l-201 -201l201 -201z" />
    <glyph glyph-name="Acircumflex" unicode="&#xc2;" 
d="M92 0v1536h1522v-1536h-1522zM381 279h944v978h-944v-978zM1047 383l-201 201l-201 -201l-178 178l201 201l-201 201l178 178l201 -201l201 201l178 -178l-201 -201l201 -201z" />
    <glyph glyph-name="Atilde" unicode="&#xc3;" 
d="M92 0v1536h1522v-1536h-1522zM381 279h944v978h-944v-978zM1047 383l-201 201l-201 -201l-178 178l201 201l-201 201l178 178l201 -201l201 201l178 -178l-201 -201l201 -201z" />
    <glyph glyph-name="Adieresis" unicode="&#xc4;" 
d="M92 0v1536h1522v-1536h-1522zM381 279h944v978h-944v-978zM1047 383l-201 201l-201 -201l-178 178l201 201l-201 201l178 178l201 -201l201 201l178 -178l-201 -201l201 -201z" />
    <glyph glyph-name="Aring" unicode="&#xc5;" 
d="M92 0v1536h1522v-1536h-1522zM381 279h944v978h-944v-978zM1047 383l-201 201l-201 -201l-178 178l201 201l-201 201l178 178l201 -201l201 201l178 -178l-201 -201l201 -201z" />
    <glyph glyph-name="AE" unicode="&#xc6;" 
d="M92 0v1536h1522v-1536h-1522zM381 279h944v978h-944v-978zM1047 383l-201 201l-201 -201l-178 178l201 201l-201 201l178 178l201 -201l201 201l178 -178l-201 -201l201 -201z" />
    <glyph glyph-name="Ccedilla" unicode="&#xc7;" 
d="M92 0v1536h1522v-1536h-1522zM381 279h944v978h-944v-978zM1047 383l-201 201l-201 -201l-178 178l201 201l-201 201l178 178l201 -201l201 201l178 -178l-201 -201l201 -201z" />
    <glyph glyph-name="Egrave" unicode="&#xc8;" 
d="M92 0v1536h1522v-1536h-1522zM381 279h944v978h-944v-978zM1047 383l-201 201l-201 -201l-178 178l201 201l-201 201l178 178l201 -201l201 201l178 -178l-201 -201l201 -201z" />
    <glyph glyph-name="Eacute" unicode="&#xc9;" 
d="M92 0v1536h1522v-1536h-1522zM381 279h944v978h-944v-978zM1047 383l-201 201l-201 -201l-178 178l201 201l-201 201l178 178l201 -201l201 201l178 -178l-201 -201l201 -201z" />
    <glyph glyph-name="Ecircumflex" unicode="&#xca;" 
d="M92 0v1536h1522v-1536h-1522zM381 279h944v978h-944v-978zM1047 383l-201 201l-201 -201l-178 178l201 201l-201 201l178 178l201 -201l201 201l178 -178l-201 -201l201 -201z" />
    <glyph glyph-name="Edieresis" unicode="&#xcb;" 
d="M92 0v1536h1522v-1536h-1522zM381 279h944v978h-944v-978zM1047 383l-201 201l-201 -201l-178 178l201 201l-201 201l178 178l201 -201l201 201l178 -178l-201 -201l201 -201z" />
    <glyph glyph-name="Igrave" unicode="&#xcc;" 
d="M92 0v1536h1522v-1536h-1522zM381 279h944v978h-944v-978zM1047 383l-201 201l-201 -201l-178 178l201 201l-201 201l178 178l201 -201l201 201l178 -178l-201 -201l201 -201z" />
    <glyph glyph-name="Iacute" unicode="&#xcd;" 
d="M92 0v1536h1522v-1536h-1522zM381 279h944v978h-944v-978zM1047 383l-201 201l-201 -201l-178 178l201 201l-201 201l178 178l201 -201l201 201l178 -178l-201 -201l201 -201z" />
    <glyph glyph-name="Icircumflex" unicode="&#xce;" 
d="M92 0v1536h1522v-1536h-1522zM381 279h944v978h-944v-978zM1047 383l-201 201l-201 -201l-178 178l201 201l-201 201l178 178l201 -201l201 201l178 -178l-201 -201l201 -201z" />
    <glyph glyph-name="Idieresis" unicode="&#xcf;" 
d="M92 0v1536h1522v-1536h-1522zM381 279h944v978h-944v-978zM1047 383l-201 201l-201 -201l-178 178l201 201l-201 201l178 178l201 -201l201 201l178 -178l-201 -201l201 -201z" />
    <glyph glyph-name="Eth" unicode="&#xd0;" 
d="M92 0v1536h1522v-1536h-1522zM381 279h944v978h-944v-978zM1047 383l-201 201l-201 -201l-178 178l201 201l-201 201l178 178l201 -201l201 201l178 -178l-201 -201l201 -201z" />
    <glyph glyph-name="Ntilde" unicode="&#xd1;" 
d="M92 0v1536h1522v-1536h-1522zM381 279h944v978h-944v-978zM1047 383l-201 201l-201 -201l-178 178l201 201l-201 201l178 178l201 -201l201 201l178 -178l-201 -201l201 -201z" />
    <glyph glyph-name="Ograve" unicode="&#xd2;" 
d="M92 0v1536h1522v-1536h-1522zM381 279h944v978h-944v-978zM1047 383l-201 201l-201 -201l-178 178l201 201l-201 201l178 178l201 -201l201 201l178 -178l-201 -201l201 -201z" />
    <glyph glyph-name="Oacute" unicode="&#xd3;" 
d="M92 0v1536h1522v-1536h-1522zM381 279h944v978h-944v-978zM1047 383l-201 201l-201 -201l-178 178l201 201l-201 201l178 178l201 -201l201 201l178 -178l-201 -201l201 -201z" />
    <glyph glyph-name="Ocircumflex" unicode="&#xd4;" 
d="M92 0v1536h1522v-1536h-1522zM381 279h944v978h-944v-978zM1047 383l-201 201l-201 -201l-178 178l201 201l-201 201l178 178l201 -201l201 201l178 -178l-201 -201l201 -201z" />
    <glyph glyph-name="Otilde" unicode="&#xd5;" 
d="M92 0v1536h1522v-1536h-1522zM381 279h944v978h-944v-978zM1047 383l-201 201l-201 -201l-178 178l201 201l-201 201l178 178l201 -201l201 201l178 -178l-201 -201l201 -201z" />
    <glyph glyph-name="Odieresis" unicode="&#xd6;" 
d="M92 0v1536h1522v-1536h-1522zM381 279h944v978h-944v-978zM1047 383l-201 201l-201 -201l-178 178l201 201l-201 201l178 178l201 -201l201 201l178 -178l-201 -201l201 -201z" />
    <glyph glyph-name="multiply" unicode="&#xd7;" 
d="M92 0v1536h1522v-1536h-1522zM381 279h944v978h-944v-978zM1047 383l-201 201l-201 -201l-178 178l201 201l-201 201l178 178l201 -201l201 201l178 -178l-201 -201l201 -201z" />
    <glyph glyph-name="Oslash" unicode="&#xd8;" 
d="M92 0v1536h1522v-1536h-1522zM381 279h944v978h-944v-978zM1047 383l-201 201l-201 -201l-178 178l201 201l-201 201l178 178l201 -201l201 201l178 -178l-201 -201l201 -201z" />
    <glyph glyph-name="Ugrave" unicode="&#xd9;" 
d="M92 0v1536h1522v-1536h-1522zM381 279h944v978h-944v-978zM1047 383l-201 201l-201 -201l-178 178l201 201l-201 201l178 178l201 -201l201 201l178 -178l-201 -201l201 -201z" />
    <glyph glyph-name="Uacute" unicode="&#xda;" 
d="M92 0v1536h1522v-1536h-1522zM381 279h944v978h-944v-978zM1047 383l-201 201l-201 -201l-178 178l201 201l-201 201l178 178l201 -201l201 201l178 -178l-201 -201l201 -201z" />
    <glyph glyph-name="Ucircumflex" unicode="&#xdb;" 
d="M92 0v1536h1522v-1536h-1522zM381 279h944v978h-944v-978zM1047 383l-201 201l-201 -201l-178 178l201 201l-201 201l178 178l201 -201l201 201l178 -178l-201 -201l201 -201z" />
    <glyph glyph-name="Udieresis" unicode="&#xdc;" 
d="M92 0v1536h1522v-1536h-1522zM381 279h944v978h-944v-978zM1047 383l-201 201l-201 -201l-178 178l201 201l-201 201l178 178l201 -201l201 201l178 -178l-201 -201l201 -201z" />
    <glyph glyph-name="Yacute" unicode="&#xdd;" 
d="M92 0v1536h1522v-1536h-1522zM381 279h944v978h-944v-978zM1047 383l-201 201l-201 -201l-178 178l201 201l-201 201l178 178l201 -201l201 201l178 -178l-201 -201l201 -201z" />
    <glyph glyph-name="Thorn" unicode="&#xde;" 
d="M92 0v1536h1522v-1536h-1522zM381 279h944v978h-944v-978zM1047 383l-201 201l-201 -201l-178 178l201 201l-201 201l178 178l201 -201l201 201l178 -178l-201 -201l201 -201z" />
    <glyph glyph-name="germandbls" unicode="&#xdf;" 
d="M92 0v1536h1522v-1536h-1522zM381 279h944v978h-944v-978zM1047 383l-201 201l-201 -201l-178 178l201 201l-201 201l178 178l201 -201l201 201l178 -178l-201 -201l201 -201z" />
    <glyph glyph-name="agrave" unicode="&#xe0;" 
d="M92 0v1536h1522v-1536h-1522zM381 279h944v978h-944v-978zM1047 383l-201 201l-201 -201l-178 178l201 201l-201 201l178 178l201 -201l201 201l178 -178l-201 -201l201 -201z" />
    <glyph glyph-name="aacute" unicode="&#xe1;" 
d="M92 0v1536h1522v-1536h-1522zM381 279h944v978h-944v-978zM1047 383l-201 201l-201 -201l-178 178l201 201l-201 201l178 178l201 -201l201 201l178 -178l-201 -201l201 -201z" />
    <glyph glyph-name="acircumflex" unicode="&#xe2;" 
d="M92 0v1536h1522v-1536h-1522zM381 279h944v978h-944v-978zM1047 383l-201 201l-201 -201l-178 178l201 201l-201 201l178 178l201 -201l201 201l178 -178l-201 -201l201 -201z" />
    <glyph glyph-name="atilde" unicode="&#xe3;" 
d="M92 0v1536h1522v-1536h-1522zM381 279h944v978h-944v-978zM1047 383l-201 201l-201 -201l-178 178l201 201l-201 201l178 178l201 -201l201 201l178 -178l-201 -201l201 -201z" />
    <glyph glyph-name="adieresis" unicode="&#xe4;" 
d="M92 0v1536h1522v-1536h-1522zM381 279h944v978h-944v-978zM1047 383l-201 201l-201 -201l-178 178l201 201l-201 201l178 178l201 -201l201 201l178 -178l-201 -201l201 -201z" />
    <glyph glyph-name="aring" unicode="&#xe5;" 
d="M92 0v1536h1522v-1536h-1522zM381 279h944v978h-944v-978zM1047 383l-201 201l-201 -201l-178 178l201 201l-201 201l178 178l201 -201l201 201l178 -178l-201 -201l201 -201z" />
    <glyph glyph-name="ae" unicode="&#xe6;" 
d="M92 0v1536h1522v-1536h-1522zM381 279h944v978h-944v-978zM1047 383l-201 201l-201 -201l-178 178l201 201l-201 201l178 178l201 -201l201 201l178 -178l-201 -201l201 -201z" />
    <glyph glyph-name="ccedilla" unicode="&#xe7;" 
d="M92 0v1536h1522v-1536h-1522zM381 279h944v978h-944v-978zM1047 383l-201 201l-201 -201l-178 178l201 201l-201 201l178 178l201 -201l201 201l178 -178l-201 -201l201 -201z" />
    <glyph glyph-name="egrave" unicode="&#xe8;" 
d="M92 0v1536h1522v-1536h-1522zM381 279h944v978h-944v-978zM1047 383l-201 201l-201 -201l-178 178l201 201l-201 201l178 178l201 -201l201 201l178 -178l-201 -201l201 -201z" />
    <glyph glyph-name="eacute" unicode="&#xe9;" 
d="M92 0v1536h1522v-1536h-1522zM381 279h944v978h-944v-978zM1047 383l-201 201l-201 -201l-178 178l201 201l-201 201l178 178l201 -201l201 201l178 -178l-201 -201l201 -201z" />
    <glyph glyph-name="ecircumflex" unicode="&#xea;" 
d="M92 0v1536h1522v-1536h-1522zM381 279h944v978h-944v-978zM1047 383l-201 201l-201 -201l-178 178l201 201l-201 201l178 178l201 -201l201 201l178 -178l-201 -201l201 -201z" />
    <glyph glyph-name="edieresis" unicode="&#xeb;" 
d="M92 0v1536h1522v-1536h-1522zM381 279h944v978h-944v-978zM1047 383l-201 201l-201 -201l-178 178l201 201l-201 201l178 178l201 -201l201 201l178 -178l-201 -201l201 -201z" />
    <glyph glyph-name="igrave" unicode="&#xec;" 
d="M92 0v1536h1522v-1536h-1522zM381 279h944v978h-944v-978zM1047 383l-201 201l-201 -201l-178 178l201 201l-201 201l178 178l201 -201l201 201l178 -178l-201 -201l201 -201z" />
    <glyph glyph-name="iacute" unicode="&#xed;" 
d="M92 0v1536h1522v-1536h-1522zM381 279h944v978h-944v-978zM1047 383l-201 201l-201 -201l-178 178l201 201l-201 201l178 178l201 -201l201 201l178 -178l-201 -201l201 -201z" />
    <glyph glyph-name="icircumflex" unicode="&#xee;" 
d="M92 0v1536h1522v-1536h-1522zM381 279h944v978h-944v-978zM1047 383l-201 201l-201 -201l-178 178l201 201l-201 201l178 178l201 -201l201 201l178 -178l-201 -201l201 -201z" />
    <glyph glyph-name="idieresis" unicode="&#xef;" 
d="M92 0v1536h1522v-1536h-1522zM381 279h944v978h-944v-978zM1047 383l-201 201l-201 -201l-178 178l201 201l-201 201l178 178l201 -201l201 201l178 -178l-201 -201l201 -201z" />
    <glyph glyph-name="eth" unicode="&#xf0;" 
d="M92 0v1536h1522v-1536h-1522zM381 279h944v978h-944v-978zM1047 383l-201 201l-201 -201l-178 178l201 201l-201 201l178 178l201 -201l201 201l178 -178l-201 -201l201 -201z" />
    <glyph glyph-name="ntilde" unicode="&#xf1;" 
d="M92 0v1536h1522v-1536h-1522zM381 279h944v978h-944v-978zM1047 383l-201 201l-201 -201l-178 178l201 201l-201 201l178 178l201 -201l201 201l178 -178l-201 -201l201 -201z" />
    <glyph glyph-name="ograve" unicode="&#xf2;" 
d="M92 0v1536h1522v-1536h-1522zM381 279h944v978h-944v-978zM1047 383l-201 201l-201 -201l-178 178l201 201l-201 201l178 178l201 -201l201 201l178 -178l-201 -201l201 -201z" />
    <glyph glyph-name="oacute" unicode="&#xf3;" 
d="M92 0v1536h1522v-1536h-1522zM381 279h944v978h-944v-978zM1047 383l-201 201l-201 -201l-178 178l201 201l-201 201l178 178l201 -201l201 201l178 -178l-201 -201l201 -201z" />
    <glyph glyph-name="ocircumflex" unicode="&#xf4;" 
d="M92 0v1536h1522v-1536h-1522zM381 279h944v978h-944v-978zM1047 383l-201 201l-201 -201l-178 178l201 201l-201 201l178 178l201 -201l201 201l178 -178l-201 -201l201 -201z" />
    <glyph glyph-name="otilde" unicode="&#xf5;" 
d="M92 0v1536h1522v-1536h-1522zM381 279h944v978h-944v-978zM1047 383l-201 201l-201 -201l-178 178l201 201l-201 201l178 178l201 -201l201 201l178 -178l-201 -201l201 -201z" />
    <glyph glyph-name="odieresis" unicode="&#xf6;" 
d="M92 0v1536h1522v-1536h-1522zM381 279h944v978h-944v-978zM1047 383l-201 201l-201 -201l-178 178l201 201l-201 201l178 178l201 -201l201 201l178 -178l-201 -201l201 -201z" />
    <glyph glyph-name="divide" unicode="&#xf7;" 
d="M92 0v1536h1522v-1536h-1522zM381 279h944v978h-944v-978zM1047 383l-201 201l-201 -201l-178 178l201 201l-201 201l178 178l201 -201l201 201l178 -178l-201 -201l201 -201z" />
    <glyph glyph-name="oslash" unicode="&#xf8;" 
d="M92 0v1536h1522v-1536h-1522zM381 279h944v978h-944v-978zM1047 383l-201 201l-201 -201l-178 178l201 201l-201 201l178 178l201 -201l201 201l178 -178l-201 -201l201 -201z" />
    <glyph glyph-name="ugrave" unicode="&#xf9;" 
d="M92 0v1536h1522v-1536h-1522zM381 279h944v978h-944v-978zM1047 383l-201 201l-201 -201l-178 178l201 201l-201 201l178 178l201 -201l201 201l178 -178l-201 -201l201 -201z" />
    <glyph glyph-name="uacute" unicode="&#xfa;" 
d="M92 0v1536h1522v-1536h-1522zM381 279h944v978h-944v-978zM1047 383l-201 201l-201 -201l-178 178l201 201l-201 201l178 178l201 -201l201 201l178 -178l-201 -201l201 -201z" />
    <glyph glyph-name="ucircumflex" unicode="&#xfb;" 
d="M92 0v1536h1522v-1536h-1522zM381 279h944v978h-944v-978zM1047 383l-201 201l-201 -201l-178 178l201 201l-201 201l178 178l201 -201l201 201l178 -178l-201 -201l201 -201z" />
    <glyph glyph-name="udieresis" unicode="&#xfc;" 
d="M92 0v1536h1522v-1536h-1522zM381 279h944v978h-944v-978zM1047 383l-201 201l-201 -201l-178 178l201 201l-201 201l178 178l201 -201l201 201l178 -178l-201 -201l201 -201z" />
    <glyph glyph-name="yacute" unicode="&#xfd;" 
d="M92 0v1536h1522v-1536h-1522zM381 279h944v978h-944v-978zM1047 383l-201 201l-201 -201l-178 178l201 201l-201 201l178 178l201 -201l201 201l178 -178l-201 -201l201 -201z" />
    <glyph glyph-name="thorn" unicode="&#xfe;" 
d="M92 0v1536h1522v-1536h-1522zM381 279h944v978h-944v-978zM1047 383l-201 201l-201 -201l-178 178l201 201l-201 201l178 178l201 -201l201 201l178 -178l-201 -201l201 -201z" />
    <glyph glyph-name="ydieresis" unicode="&#xff;" 
d="M92 0v1536h1522v-1536h-1522zM381 279h944v978h-944v-978zM1047 383l-201 201l-201 -201l-178 178l201 201l-201 201l178 178l201 -201l201 201l178 -178l-201 -201l201 -201z" />
    <glyph glyph-name="Amacron" unicode="&#x100;" 
d="M92 0v1536h1522v-1536h-1522zM381 279h944v978h-944v-978zM1047 383l-201 201l-201 -201l-178 178l201 201l-201 201l178 178l201 -201l201 201l178 -178l-201 -201l201 -201z" />
    <glyph glyph-name="amacron" unicode="&#x101;" 
d="M92 0v1536h1522v-1536h-1522zM381 279h944v978h-944v-978zM1047 383l-201 201l-201 -201l-178 178l201 201l-201 201l178 178l201 -201l201 201l178 -178l-201 -201l201 -201z" />
    <glyph glyph-name="Abreve" unicode="&#x102;" 
d="M92 0v1536h1522v-1536h-1522zM381 279h944v978h-944v-978zM1047 383l-201 201l-201 -201l-178 178l201 201l-201 201l178 178l201 -201l201 201l178 -178l-201 -201l201 -201z" />
    <glyph glyph-name="abreve" unicode="&#x103;" 
d="M92 0v1536h1522v-1536h-1522zM381 279h944v978h-944v-978zM1047 383l-201 201l-201 -201l-178 178l201 201l-201 201l178 178l201 -201l201 201l178 -178l-201 -201l201 -201z" />
    <glyph glyph-name="Aogonek" unicode="&#x104;" 
d="M92 0v1536h1522v-1536h-1522zM381 279h944v978h-944v-978zM1047 383l-201 201l-201 -201l-178 178l201 201l-201 201l178 178l201 -201l201 201l178 -178l-201 -201l201 -201z" />
    <glyph glyph-name="aogonek" unicode="&#x105;" 
d="M92 0v1536h1522v-1536h-1522zM381 279h944v978h-944v-978zM1047 383l-201 201l-201 -201l-178 178l201 201l-201 201l178 178l201 -201l201 201l178 -178l-201 -201l201 -201z" />
    <glyph glyph-name="Cacute" unicode="&#x106;" 
d="M92 0v1536h1522v-1536h-1522zM381 279h944v978h-944v-978zM1047 383l-201 201l-201 -201l-178 178l201 201l-201 201l178 178l201 -201l201 201l178 -178l-201 -201l201 -201z" />
    <glyph glyph-name="cacute" unicode="&#x107;" 
d="M92 0v1536h1522v-1536h-1522zM381 279h944v978h-944v-978zM1047 383l-201 201l-201 -201l-178 178l201 201l-201 201l178 178l201 -201l201 201l178 -178l-201 -201l201 -201z" />
    <glyph glyph-name="Ccircumflex" unicode="&#x108;" 
d="M92 0v1536h1522v-1536h-1522zM381 279h944v978h-944v-978zM1047 383l-201 201l-201 -201l-178 178l201 201l-201 201l178 178l201 -201l201 201l178 -178l-201 -201l201 -201z" />
    <glyph glyph-name="ccircumflex" unicode="&#x109;" 
d="M92 0v1536h1522v-1536h-1522zM381 279h944v978h-944v-978zM1047 383l-201 201l-201 -201l-178 178l201 201l-201 201l178 178l201 -201l201 201l178 -178l-201 -201l201 -201z" />
    <glyph glyph-name="Cdotaccent" unicode="&#x10a;" 
d="M92 0v1536h1522v-1536h-1522zM381 279h944v978h-944v-978zM1047 383l-201 201l-201 -201l-178 178l201 201l-201 201l178 178l201 -201l201 201l178 -178l-201 -201l201 -201z" />
    <glyph glyph-name="cdotaccent" unicode="&#x10b;" 
d="M92 0v1536h1522v-1536h-1522zM381 279h944v978h-944v-978zM1047 383l-201 201l-201 -201l-178 178l201 201l-201 201l178 178l201 -201l201 201l178 -178l-201 -201l201 -201z" />
    <glyph glyph-name="Ccaron" unicode="&#x10c;" 
d="M92 0v1536h1522v-1536h-1522zM381 279h944v978h-944v-978zM1047 383l-201 201l-201 -201l-178 178l201 201l-201 201l178 178l201 -201l201 201l178 -178l-201 -201l201 -201z" />
    <glyph glyph-name="ccaron" unicode="&#x10d;" 
d="M92 0v1536h1522v-1536h-1522zM381 279h944v978h-944v-978zM1047 383l-201 201l-201 -201l-178 178l201 201l-201 201l178 178l201 -201l201 201l178 -178l-201 -201l201 -201z" />
    <glyph glyph-name="Dcaron" unicode="&#x10e;" 
d="M92 0v1536h1522v-1536h-1522zM381 279h944v978h-944v-978zM1047 383l-201 201l-201 -201l-178 178l201 201l-201 201l178 178l201 -201l201 201l178 -178l-201 -201l201 -201z" />
    <glyph glyph-name="dcaron" unicode="&#x10f;" 
d="M92 0v1536h1522v-1536h-1522zM381 279h944v978h-944v-978zM1047 383l-201 201l-201 -201l-178 178l201 201l-201 201l178 178l201 -201l201 201l178 -178l-201 -201l201 -201z" />
    <glyph glyph-name="Dcroat" unicode="&#x110;" 
d="M92 0v1536h1522v-1536h-1522zM381 279h944v978h-944v-978zM1047 383l-201 201l-201 -201l-178 178l201 201l-201 201l178 178l201 -201l201 201l178 -178l-201 -201l201 -201z" />
    <glyph glyph-name="dcroat" unicode="&#x111;" 
d="M92 0v1536h1522v-1536h-1522zM381 279h944v978h-944v-978zM1047 383l-201 201l-201 -201l-178 178l201 201l-201 201l178 178l201 -201l201 201l178 -178l-201 -201l201 -201z" />
    <glyph glyph-name="Emacron" unicode="&#x112;" 
d="M92 0v1536h1522v-1536h-1522zM381 279h944v978h-944v-978zM1047 383l-201 201l-201 -201l-178 178l201 201l-201 201l178 178l201 -201l201 201l178 -178l-201 -201l201 -201z" />
    <glyph glyph-name="emacron" unicode="&#x113;" 
d="M92 0v1536h1522v-1536h-1522zM381 279h944v978h-944v-978zM1047 383l-201 201l-201 -201l-178 178l201 201l-201 201l178 178l201 -201l201 201l178 -178l-201 -201l201 -201z" />
    <glyph glyph-name="Ebreve" unicode="&#x114;" 
d="M92 0v1536h1522v-1536h-1522zM381 279h944v978h-944v-978zM1047 383l-201 201l-201 -201l-178 178l201 201l-201 201l178 178l201 -201l201 201l178 -178l-201 -201l201 -201z" />
    <glyph glyph-name="ebreve" unicode="&#x115;" 
d="M92 0v1536h1522v-1536h-1522zM381 279h944v978h-944v-978zM1047 383l-201 201l-201 -201l-178 178l201 201l-201 201l178 178l201 -201l201 201l178 -178l-201 -201l201 -201z" />
    <glyph glyph-name="Edotaccent" unicode="&#x116;" 
d="M92 0v1536h1522v-1536h-1522zM381 279h944v978h-944v-978zM1047 383l-201 201l-201 -201l-178 178l201 201l-201 201l178 178l201 -201l201 201l178 -178l-201 -201l201 -201z" />
    <glyph glyph-name="edotaccent" unicode="&#x117;" 
d="M92 0v1536h1522v-1536h-1522zM381 279h944v978h-944v-978zM1047 383l-201 201l-201 -201l-178 178l201 201l-201 201l178 178l201 -201l201 201l178 -178l-201 -201l201 -201z" />
    <glyph glyph-name="Eogonek" unicode="&#x118;" 
d="M92 0v1536h1522v-1536h-1522zM381 279h944v978h-944v-978zM1047 383l-201 201l-201 -201l-178 178l201 201l-201 201l178 178l201 -201l201 201l178 -178l-201 -201l201 -201z" />
    <glyph glyph-name="eogonek" unicode="&#x119;" 
d="M92 0v1536h1522v-1536h-1522zM381 279h944v978h-944v-978zM1047 383l-201 201l-201 -201l-178 178l201 201l-201 201l178 178l201 -201l201 201l178 -178l-201 -201l201 -201z" />
    <glyph glyph-name="Ecaron" unicode="&#x11a;" 
d="M92 0v1536h1522v-1536h-1522zM381 279h944v978h-944v-978zM1047 383l-201 201l-201 -201l-178 178l201 201l-201 201l178 178l201 -201l201 201l178 -178l-201 -201l201 -201z" />
    <glyph glyph-name="ecaron" unicode="&#x11b;" 
d="M92 0v1536h1522v-1536h-1522zM381 279h944v978h-944v-978zM1047 383l-201 201l-201 -201l-178 178l201 201l-201 201l178 178l201 -201l201 201l178 -178l-201 -201l201 -201z" />
    <glyph glyph-name="Gcircumflex" unicode="&#x11c;" 
d="M92 0v1536h1522v-1536h-1522zM381 279h944v978h-944v-978zM1047 383l-201 201l-201 -201l-178 178l201 201l-201 201l178 178l201 -201l201 201l178 -178l-201 -201l201 -201z" />
    <glyph glyph-name="gcircumflex" unicode="&#x11d;" 
d="M92 0v1536h1522v-1536h-1522zM381 279h944v978h-944v-978zM1047 383l-201 201l-201 -201l-178 178l201 201l-201 201l178 178l201 -201l201 201l178 -178l-201 -201l201 -201z" />
    <glyph glyph-name="Gbreve" unicode="&#x11e;" 
d="M92 0v1536h1522v-1536h-1522zM381 279h944v978h-944v-978zM1047 383l-201 201l-201 -201l-178 178l201 201l-201 201l178 178l201 -201l201 201l178 -178l-201 -201l201 -201z" />
    <glyph glyph-name="gbreve" unicode="&#x11f;" 
d="M92 0v1536h1522v-1536h-1522zM381 279h944v978h-944v-978zM1047 383l-201 201l-201 -201l-178 178l201 201l-201 201l178 178l201 -201l201 201l178 -178l-201 -201l201 -201z" />
    <glyph glyph-name="Gdotaccent" unicode="&#x120;" 
d="M92 0v1536h1522v-1536h-1522zM381 279h944v978h-944v-978zM1047 383l-201 201l-201 -201l-178 178l201 201l-201 201l178 178l201 -201l201 201l178 -178l-201 -201l201 -201z" />
    <glyph glyph-name="gdotaccent" unicode="&#x121;" 
d="M92 0v1536h1522v-1536h-1522zM381 279h944v978h-944v-978zM1047 383l-201 201l-201 -201l-178 178l201 201l-201 201l178 178l201 -201l201 201l178 -178l-201 -201l201 -201z" />
    <glyph glyph-name="Gcommaaccent" unicode="&#x122;" 
d="M92 0v1536h1522v-1536h-1522zM381 279h944v978h-944v-978zM1047 383l-201 201l-201 -201l-178 178l201 201l-201 201l178 178l201 -201l201 201l178 -178l-201 -201l201 -201z" />
    <glyph glyph-name="gcommaaccent" unicode="&#x123;" 
d="M92 0v1536h1522v-1536h-1522zM381 279h944v978h-944v-978zM1047 383l-201 201l-201 -201l-178 178l201 201l-201 201l178 178l201 -201l201 201l178 -178l-201 -201l201 -201z" />
    <glyph glyph-name="Hcircumflex" unicode="&#x124;" 
d="M92 0v1536h1522v-1536h-1522zM381 279h944v978h-944v-978zM1047 383l-201 201l-201 -201l-178 178l201 201l-201 201l178 178l201 -201l201 201l178 -178l-201 -201l201 -201z" />
    <glyph glyph-name="hcircumflex" unicode="&#x125;" 
d="M92 0v1536h1522v-1536h-1522zM381 279h944v978h-944v-978zM1047 383l-201 201l-201 -201l-178 178l201 201l-201 201l178 178l201 -201l201 201l178 -178l-201 -201l201 -201z" />
    <glyph glyph-name="Hbar" unicode="&#x126;" 
d="M92 0v1536h1522v-1536h-1522zM381 279h944v978h-944v-978zM1047 383l-201 201l-201 -201l-178 178l201 201l-201 201l178 178l201 -201l201 201l178 -178l-201 -201l201 -201z" />
    <glyph glyph-name="hbar" unicode="&#x127;" 
d="M92 0v1536h1522v-1536h-1522zM381 279h944v978h-944v-978zM1047 383l-201 201l-201 -201l-178 178l201 201l-201 201l178 178l201 -201l201 201l178 -178l-201 -201l201 -201z" />
    <glyph glyph-name="Itilde" unicode="&#x128;" 
d="M92 0v1536h1522v-1536h-1522zM381 279h944v978h-944v-978zM1047 383l-201 201l-201 -201l-178 178l201 201l-201 201l178 178l201 -201l201 201l178 -178l-201 -201l201 -201z" />
    <glyph glyph-name="itilde" unicode="&#x129;" 
d="M92 0v1536h1522v-1536h-1522zM381 279h944v978h-944v-978zM1047 383l-201 201l-201 -201l-178 178l201 201l-201 201l178 178l201 -201l201 201l178 -178l-201 -201l201 -201z" />
    <glyph glyph-name="Imacron" unicode="&#x12a;" 
d="M92 0v1536h1522v-1536h-1522zM381 279h944v978h-944v-978zM1047 383l-201 201l-201 -201l-178 178l201 201l-201 201l178 178l201 -201l201 201l178 -178l-201 -201l201 -201z" />
    <glyph glyph-name="imacron" unicode="&#x12b;" 
d="M92 0v1536h1522v-1536h-1522zM381 279h944v978h-944v-978zM1047 383l-201 201l-201 -201l-178 178l201 201l-201 201l178 178l201 -201l201 201l178 -178l-201 -201l201 -201z" />
    <glyph glyph-name="Ibreve" unicode="&#x12c;" 
d="M92 0v1536h1522v-1536h-1522zM381 279h944v978h-944v-978zM1047 383l-201 201l-201 -201l-178 178l201 201l-201 201l178 178l201 -201l201 201l178 -178l-201 -201l201 -201z" />
    <glyph glyph-name="ibreve" unicode="&#x12d;" 
d="M92 0v1536h1522v-1536h-1522zM381 279h944v978h-944v-978zM1047 383l-201 201l-201 -201l-178 178l201 201l-201 201l178 178l201 -201l201 201l178 -178l-201 -201l201 -201z" />
    <glyph glyph-name="Iogonek" unicode="&#x12e;" 
d="M92 0v1536h1522v-1536h-1522zM381 279h944v978h-944v-978zM1047 383l-201 201l-201 -201l-178 178l201 201l-201 201l178 178l201 -201l201 201l178 -178l-201 -201l201 -201z" />
    <glyph glyph-name="iogonek" unicode="&#x12f;" 
d="M92 0v1536h1522v-1536h-1522zM381 279h944v978h-944v-978zM1047 383l-201 201l-201 -201l-178 178l201 201l-201 201l178 178l201 -201l201 201l178 -178l-201 -201l201 -201z" />
    <glyph glyph-name="Idotaccent" unicode="&#x130;" 
d="M92 0v1536h1522v-1536h-1522zM381 279h944v978h-944v-978zM1047 383l-201 201l-201 -201l-178 178l201 201l-201 201l178 178l201 -201l201 201l178 -178l-201 -201l201 -201z" />
    <glyph glyph-name="dotlessi" unicode="&#x131;" 
d="M92 0v1536h1522v-1536h-1522zM381 279h944v978h-944v-978zM1047 383l-201 201l-201 -201l-178 178l201 201l-201 201l178 178l201 -201l201 201l178 -178l-201 -201l201 -201z" />
    <glyph glyph-name="IJ" unicode="&#x132;" 
d="M92 0v1536h1522v-1536h-1522zM381 279h944v978h-944v-978zM1047 383l-201 201l-201 -201l-178 178l201 201l-201 201l178 178l201 -201l201 201l178 -178l-201 -201l201 -201z" />
    <glyph glyph-name="ij" unicode="&#x133;" 
d="M92 0v1536h1522v-1536h-1522zM381 279h944v978h-944v-978zM1047 383l-201 201l-201 -201l-178 178l201 201l-201 201l178 178l201 -201l201 201l178 -178l-201 -201l201 -201z" />
    <glyph glyph-name="Jcircumflex" unicode="&#x134;" 
d="M92 0v1536h1522v-1536h-1522zM381 279h944v978h-944v-978zM1047 383l-201 201l-201 -201l-178 178l201 201l-201 201l178 178l201 -201l201 201l178 -178l-201 -201l201 -201z" />
    <glyph glyph-name="jcircumflex" unicode="&#x135;" 
d="M92 0v1536h1522v-1536h-1522zM381 279h944v978h-944v-978zM1047 383l-201 201l-201 -201l-178 178l201 201l-201 201l178 178l201 -201l201 201l178 -178l-201 -201l201 -201z" />
    <glyph glyph-name="Kcommaaccent" unicode="&#x136;" 
d="M92 0v1536h1522v-1536h-1522zM381 279h944v978h-944v-978zM1047 383l-201 201l-201 -201l-178 178l201 201l-201 201l178 178l201 -201l201 201l178 -178l-201 -201l201 -201z" />
    <glyph glyph-name="kcommaaccent" unicode="&#x137;" 
d="M92 0v1536h1522v-1536h-1522zM381 279h944v978h-944v-978zM1047 383l-201 201l-201 -201l-178 178l201 201l-201 201l178 178l201 -201l201 201l178 -178l-201 -201l201 -201z" />
    <glyph glyph-name="Lacute" unicode="&#x139;" 
d="M92 0v1536h1522v-1536h-1522zM381 279h944v978h-944v-978zM1047 383l-201 201l-201 -201l-178 178l201 201l-201 201l178 178l201 -201l201 201l178 -178l-201 -201l201 -201z" />
    <glyph glyph-name="lacute" unicode="&#x13a;" 
d="M92 0v1536h1522v-1536h-1522zM381 279h944v978h-944v-978zM1047 383l-201 201l-201 -201l-178 178l201 201l-201 201l178 178l201 -201l201 201l178 -178l-201 -201l201 -201z" />
    <glyph glyph-name="Lcommaaccent" unicode="&#x13b;" 
d="M92 0v1536h1522v-1536h-1522zM381 279h944v978h-944v-978zM1047 383l-201 201l-201 -201l-178 178l201 201l-201 201l178 178l201 -201l201 201l178 -178l-201 -201l201 -201z" />
    <glyph glyph-name="lcommaaccent" unicode="&#x13c;" 
d="M92 0v1536h1522v-1536h-1522zM381 279h944v978h-944v-978zM1047 383l-201 201l-201 -201l-178 178l201 201l-201 201l178 178l201 -201l201 201l178 -178l-201 -201l201 -201z" />
    <glyph glyph-name="Lcaron" unicode="&#x13d;" 
d="M92 0v1536h1522v-1536h-1522zM381 279h944v978h-944v-978zM1047 383l-201 201l-201 -201l-178 178l201 201l-201 201l178 178l201 -201l201 201l178 -178l-201 -201l201 -201z" />
    <glyph glyph-name="lcaron" unicode="&#x13e;" 
d="M92 0v1536h1522v-1536h-1522zM381 279h944v978h-944v-978zM1047 383l-201 201l-201 -201l-178 178l201 201l-201 201l178 178l201 -201l201 201l178 -178l-201 -201l201 -201z" />
    <glyph glyph-name="Ldot" unicode="&#x13f;" 
d="M92 0v1536h1522v-1536h-1522zM381 279h944v978h-944v-978zM1047 383l-201 201l-201 -201l-178 178l201 201l-201 201l178 178l201 -201l201 201l178 -178l-201 -201l201 -201z" />
    <glyph glyph-name="ldot" unicode="&#x140;" 
d="M92 0v1536h1522v-1536h-1522zM381 279h944v978h-944v-978zM1047 383l-201 201l-201 -201l-178 178l201 201l-201 201l178 178l201 -201l201 201l178 -178l-201 -201l201 -201z" />
    <glyph glyph-name="Lslash" unicode="&#x141;" 
d="M92 0v1536h1522v-1536h-1522zM381 279h944v978h-944v-978zM1047 383l-201 201l-201 -201l-178 178l201 201l-201 201l178 178l201 -201l201 201l178 -178l-201 -201l201 -201z" />
    <glyph glyph-name="lslash" unicode="&#x142;" 
d="M92 0v1536h1522v-1536h-1522zM381 279h944v978h-944v-978zM1047 383l-201 201l-201 -201l-178 178l201 201l-201 201l178 178l201 -201l201 201l178 -178l-201 -201l201 -201z" />
    <glyph glyph-name="Nacute" unicode="&#x143;" 
d="M92 0v1536h1522v-1536h-1522zM381 279h944v978h-944v-978zM1047 383l-201 201l-201 -201l-178 178l201 201l-201 201l178 178l201 -201l201 201l178 -178l-201 -201l201 -201z" />
    <glyph glyph-name="nacute" unicode="&#x144;" 
d="M92 0v1536h1522v-1536h-1522zM381 279h944v978h-944v-978zM1047 383l-201 201l-201 -201l-178 178l201 201l-201 201l178 178l201 -201l201 201l178 -178l-201 -201l201 -201z" />
    <glyph glyph-name="Ncommaaccent" unicode="&#x145;" 
d="M92 0v1536h1522v-1536h-1522zM381 279h944v978h-944v-978zM1047 383l-201 201l-201 -201l-178 178l201 201l-201 201l178 178l201 -201l201 201l178 -178l-201 -201l201 -201z" />
    <glyph glyph-name="ncommaaccent" unicode="&#x146;" 
d="M92 0v1536h1522v-1536h-1522zM381 279h944v978h-944v-978zM1047 383l-201 201l-201 -201l-178 178l201 201l-201 201l178 178l201 -201l201 201l178 -178l-201 -201l201 -201z" />
    <glyph glyph-name="Ncaron" unicode="&#x147;" 
d="M92 0v1536h1522v-1536h-1522zM381 279h944v978h-944v-978zM1047 383l-201 201l-201 -201l-178 178l201 201l-201 201l178 178l201 -201l201 201l178 -178l-201 -201l201 -201z" />
    <glyph glyph-name="ncaron" unicode="&#x148;" 
d="M92 0v1536h1522v-1536h-1522zM381 279h944v978h-944v-978zM1047 383l-201 201l-201 -201l-178 178l201 201l-201 201l178 178l201 -201l201 201l178 -178l-201 -201l201 -201z" />
    <glyph glyph-name="Eng" unicode="&#x14a;" 
d="M92 0v1536h1522v-1536h-1522zM381 279h944v978h-944v-978zM1047 383l-201 201l-201 -201l-178 178l201 201l-201 201l178 178l201 -201l201 201l178 -178l-201 -201l201 -201z" />
    <glyph glyph-name="eng" unicode="&#x14b;" 
d="M92 0v1536h1522v-1536h-1522zM381 279h944v978h-944v-978zM1047 383l-201 201l-201 -201l-178 178l201 201l-201 201l178 178l201 -201l201 201l178 -178l-201 -201l201 -201z" />
    <glyph glyph-name="Omacron" unicode="&#x14c;" 
d="M92 0v1536h1522v-1536h-1522zM381 279h944v978h-944v-978zM1047 383l-201 201l-201 -201l-178 178l201 201l-201 201l178 178l201 -201l201 201l178 -178l-201 -201l201 -201z" />
    <glyph glyph-name="omacron" unicode="&#x14d;" 
d="M92 0v1536h1522v-1536h-1522zM381 279h944v978h-944v-978zM1047 383l-201 201l-201 -201l-178 178l201 201l-201 201l178 178l201 -201l201 201l178 -178l-201 -201l201 -201z" />
    <glyph glyph-name="Obreve" unicode="&#x14e;" 
d="M92 0v1536h1522v-1536h-1522zM381 279h944v978h-944v-978zM1047 383l-201 201l-201 -201l-178 178l201 201l-201 201l178 178l201 -201l201 201l178 -178l-201 -201l201 -201z" />
    <glyph glyph-name="obreve" unicode="&#x14f;" 
d="M92 0v1536h1522v-1536h-1522zM381 279h944v978h-944v-978zM1047 383l-201 201l-201 -201l-178 178l201 201l-201 201l178 178l201 -201l201 201l178 -178l-201 -201l201 -201z" />
    <glyph glyph-name="Ohungarumlaut" unicode="&#x150;" 
d="M92 0v1536h1522v-1536h-1522zM381 279h944v978h-944v-978zM1047 383l-201 201l-201 -201l-178 178l201 201l-201 201l178 178l201 -201l201 201l178 -178l-201 -201l201 -201z" />
    <glyph glyph-name="ohungarumlaut" unicode="&#x151;" 
d="M92 0v1536h1522v-1536h-1522zM381 279h944v978h-944v-978zM1047 383l-201 201l-201 -201l-178 178l201 201l-201 201l178 178l201 -201l201 201l178 -178l-201 -201l201 -201z" />
    <glyph glyph-name="OE" unicode="&#x152;" 
d="M92 0v1536h1522v-1536h-1522zM381 279h944v978h-944v-978zM1047 383l-201 201l-201 -201l-178 178l201 201l-201 201l178 178l201 -201l201 201l178 -178l-201 -201l201 -201z" />
    <glyph glyph-name="oe" unicode="&#x153;" 
d="M92 0v1536h1522v-1536h-1522zM381 279h944v978h-944v-978zM1047 383l-201 201l-201 -201l-178 178l201 201l-201 201l178 178l201 -201l201 201l178 -178l-201 -201l201 -201z" />
    <glyph glyph-name="Racute" unicode="&#x154;" 
d="M92 0v1536h1522v-1536h-1522zM381 279h944v978h-944v-978zM1047 383l-201 201l-201 -201l-178 178l201 201l-201 201l178 178l201 -201l201 201l178 -178l-201 -201l201 -201z" />
    <glyph glyph-name="racute" unicode="&#x155;" 
d="M92 0v1536h1522v-1536h-1522zM381 279h944v978h-944v-978zM1047 383l-201 201l-201 -201l-178 178l201 201l-201 201l178 178l201 -201l201 201l178 -178l-201 -201l201 -201z" />
    <glyph glyph-name="Rcommaaccent" unicode="&#x156;" 
d="M92 0v1536h1522v-1536h-1522zM381 279h944v978h-944v-978zM1047 383l-201 201l-201 -201l-178 178l201 201l-201 201l178 178l201 -201l201 201l178 -178l-201 -201l201 -201z" />
    <glyph glyph-name="rcommaaccent" unicode="&#x157;" 
d="M92 0v1536h1522v-1536h-1522zM381 279h944v978h-944v-978zM1047 383l-201 201l-201 -201l-178 178l201 201l-201 201l178 178l201 -201l201 201l178 -178l-201 -201l201 -201z" />
    <glyph glyph-name="Rcaron" unicode="&#x158;" 
d="M92 0v1536h1522v-1536h-1522zM381 279h944v978h-944v-978zM1047 383l-201 201l-201 -201l-178 178l201 201l-201 201l178 178l201 -201l201 201l178 -178l-201 -201l201 -201z" />
    <glyph glyph-name="rcaron" unicode="&#x159;" 
d="M92 0v1536h1522v-1536h-1522zM381 279h944v978h-944v-978zM1047 383l-201 201l-201 -201l-178 178l201 201l-201 201l178 178l201 -201l201 201l178 -178l-201 -201l201 -201z" />
    <glyph glyph-name="Sacute" unicode="&#x15a;" 
d="M92 0v1536h1522v-1536h-1522zM381 279h944v978h-944v-978zM1047 383l-201 201l-201 -201l-178 178l201 201l-201 201l178 178l201 -201l201 201l178 -178l-201 -201l201 -201z" />
    <glyph glyph-name="sacute" unicode="&#x15b;" 
d="M92 0v1536h1522v-1536h-1522zM381 279h944v978h-944v-978zM1047 383l-201 201l-201 -201l-178 178l201 201l-201 201l178 178l201 -201l201 201l178 -178l-201 -201l201 -201z" />
    <glyph glyph-name="Scircumflex" unicode="&#x15c;" 
d="M92 0v1536h1522v-1536h-1522zM381 279h944v978h-944v-978zM1047 383l-201 201l-201 -201l-178 178l201 201l-201 201l178 178l201 -201l201 201l178 -178l-201 -201l201 -201z" />
    <glyph glyph-name="scircumflex" unicode="&#x15d;" 
d="M92 0v1536h1522v-1536h-1522zM381 279h944v978h-944v-978zM1047 383l-201 201l-201 -201l-178 178l201 201l-201 201l178 178l201 -201l201 201l178 -178l-201 -201l201 -201z" />
    <glyph glyph-name="Scedilla" unicode="&#x15e;" 
d="M92 0v1536h1522v-1536h-1522zM381 279h944v978h-944v-978zM1047 383l-201 201l-201 -201l-178 178l201 201l-201 201l178 178l201 -201l201 201l178 -178l-201 -201l201 -201z" />
    <glyph glyph-name="scedilla" unicode="&#x15f;" 
d="M92 0v1536h1522v-1536h-1522zM381 279h944v978h-944v-978zM1047 383l-201 201l-201 -201l-178 178l201 201l-201 201l178 178l201 -201l201 201l178 -178l-201 -201l201 -201z" />
    <glyph glyph-name="Scaron" unicode="&#x160;" 
d="M92 0v1536h1522v-1536h-1522zM381 279h944v978h-944v-978zM1047 383l-201 201l-201 -201l-178 178l201 201l-201 201l178 178l201 -201l201 201l178 -178l-201 -201l201 -201z" />
    <glyph glyph-name="scaron" unicode="&#x161;" 
d="M92 0v1536h1522v-1536h-1522zM381 279h944v978h-944v-978zM1047 383l-201 201l-201 -201l-178 178l201 201l-201 201l178 178l201 -201l201 201l178 -178l-201 -201l201 -201z" />
    <glyph glyph-name="uni0162" unicode="&#x162;" 
d="M92 0v1536h1522v-1536h-1522zM381 279h944v978h-944v-978zM1047 383l-201 201l-201 -201l-178 178l201 201l-201 201l178 178l201 -201l201 201l178 -178l-201 -201l201 -201z" />
    <glyph glyph-name="uni0163" unicode="&#x163;" 
d="M92 0v1536h1522v-1536h-1522zM381 279h944v978h-944v-978zM1047 383l-201 201l-201 -201l-178 178l201 201l-201 201l178 178l201 -201l201 201l178 -178l-201 -201l201 -201z" />
    <glyph glyph-name="Tcaron" unicode="&#x164;" 
d="M92 0v1536h1522v-1536h-1522zM381 279h944v978h-944v-978zM1047 383l-201 201l-201 -201l-178 178l201 201l-201 201l178 178l201 -201l201 201l178 -178l-201 -201l201 -201z" />
    <glyph glyph-name="tcaron" unicode="&#x165;" 
d="M92 0v1536h1522v-1536h-1522zM381 279h944v978h-944v-978zM1047 383l-201 201l-201 -201l-178 178l201 201l-201 201l178 178l201 -201l201 201l178 -178l-201 -201l201 -201z" />
    <glyph glyph-name="Tbar" unicode="&#x166;" 
d="M92 0v1536h1522v-1536h-1522zM381 279h944v978h-944v-978zM1047 383l-201 201l-201 -201l-178 178l201 201l-201 201l178 178l201 -201l201 201l178 -178l-201 -201l201 -201z" />
    <glyph glyph-name="tbar" unicode="&#x167;" 
d="M92 0v1536h1522v-1536h-1522zM381 279h944v978h-944v-978zM1047 383l-201 201l-201 -201l-178 178l201 201l-201 201l178 178l201 -201l201 201l178 -178l-201 -201l201 -201z" />
    <glyph glyph-name="Utilde" unicode="&#x168;" 
d="M92 0v1536h1522v-1536h-1522zM381 279h944v978h-944v-978zM1047 383l-201 201l-201 -201l-178 178l201 201l-201 201l178 178l201 -201l201 201l178 -178l-201 -201l201 -201z" />
    <glyph glyph-name="utilde" unicode="&#x169;" 
d="M92 0v1536h1522v-1536h-1522zM381 279h944v978h-944v-978zM1047 383l-201 201l-201 -201l-178 178l201 201l-201 201l178 178l201 -201l201 201l178 -178l-201 -201l201 -201z" />
    <glyph glyph-name="Umacron" unicode="&#x16a;" 
d="M92 0v1536h1522v-1536h-1522zM381 279h944v978h-944v-978zM1047 383l-201 201l-201 -201l-178 178l201 201l-201 201l178 178l201 -201l201 201l178 -178l-201 -201l201 -201z" />
    <glyph glyph-name="umacron" unicode="&#x16b;" 
d="M92 0v1536h1522v-1536h-1522zM381 279h944v978h-944v-978zM1047 383l-201 201l-201 -201l-178 178l201 201l-201 201l178 178l201 -201l201 201l178 -178l-201 -201l201 -201z" />
    <glyph glyph-name="Ubreve" unicode="&#x16c;" 
d="M92 0v1536h1522v-1536h-1522zM381 279h944v978h-944v-978zM1047 383l-201 201l-201 -201l-178 178l201 201l-201 201l178 178l201 -201l201 201l178 -178l-201 -201l201 -201z" />
    <glyph glyph-name="ubreve" unicode="&#x16d;" 
d="M92 0v1536h1522v-1536h-1522zM381 279h944v978h-944v-978zM1047 383l-201 201l-201 -201l-178 178l201 201l-201 201l178 178l201 -201l201 201l178 -178l-201 -201l201 -201z" />
    <glyph glyph-name="Uring" unicode="&#x16e;" 
d="M92 0v1536h1522v-1536h-1522zM381 279h944v978h-944v-978zM1047 383l-201 201l-201 -201l-178 178l201 201l-201 201l178 178l201 -201l201 201l178 -178l-201 -201l201 -201z" />
    <glyph glyph-name="uring" unicode="&#x16f;" 
d="M92 0v1536h1522v-1536h-1522zM381 279h944v978h-944v-978zM1047 383l-201 201l-201 -201l-178 178l201 201l-201 201l178 178l201 -201l201 201l178 -178l-201 -201l201 -201z" />
    <glyph glyph-name="Uhungarumlaut" unicode="&#x170;" 
d="M92 0v1536h1522v-1536h-1522zM381 279h944v978h-944v-978zM1047 383l-201 201l-201 -201l-178 178l201 201l-201 201l178 178l201 -201l201 201l178 -178l-201 -201l201 -201z" />
    <glyph glyph-name="uhungarumlaut" unicode="&#x171;" 
d="M92 0v1536h1522v-1536h-1522zM381 279h944v978h-944v-978zM1047 383l-201 201l-201 -201l-178 178l201 201l-201 201l178 178l201 -201l201 201l178 -178l-201 -201l201 -201z" />
    <glyph glyph-name="Uogonek" unicode="&#x172;" 
d="M92 0v1536h1522v-1536h-1522zM381 279h944v978h-944v-978zM1047 383l-201 201l-201 -201l-178 178l201 201l-201 201l178 178l201 -201l201 201l178 -178l-201 -201l201 -201z" />
    <glyph glyph-name="uogonek" unicode="&#x173;" 
d="M92 0v1536h1522v-1536h-1522zM381 279h944v978h-944v-978zM1047 383l-201 201l-201 -201l-178 178l201 201l-201 201l178 178l201 -201l201 201l178 -178l-201 -201l201 -201z" />
    <glyph glyph-name="Wcircumflex" unicode="&#x174;" 
d="M92 0v1536h1522v-1536h-1522zM381 279h944v978h-944v-978zM1047 383l-201 201l-201 -201l-178 178l201 201l-201 201l178 178l201 -201l201 201l178 -178l-201 -201l201 -201z" />
    <glyph glyph-name="wcircumflex" unicode="&#x175;" 
d="M92 0v1536h1522v-1536h-1522zM381 279h944v978h-944v-978zM1047 383l-201 201l-201 -201l-178 178l201 201l-201 201l178 178l201 -201l201 201l178 -178l-201 -201l201 -201z" />
    <glyph glyph-name="Ycircumflex" unicode="&#x176;" 
d="M92 0v1536h1522v-1536h-1522zM381 279h944v978h-944v-978zM1047 383l-201 201l-201 -201l-178 178l201 201l-201 201l178 178l201 -201l201 201l178 -178l-201 -201l201 -201z" />
    <glyph glyph-name="ycircumflex" unicode="&#x177;" 
d="M92 0v1536h1522v-1536h-1522zM381 279h944v978h-944v-978zM1047 383l-201 201l-201 -201l-178 178l201 201l-201 201l178 178l201 -201l201 201l178 -178l-201 -201l201 -201z" />
    <glyph glyph-name="Ydieresis" unicode="&#x178;" 
d="M92 0v1536h1522v-1536h-1522zM381 279h944v978h-944v-978zM1047 383l-201 201l-201 -201l-178 178l201 201l-201 201l178 178l201 -201l201 201l178 -178l-201 -201l201 -201z" />
    <glyph glyph-name="Zacute" unicode="&#x179;" 
d="M92 0v1536h1522v-1536h-1522zM381 279h944v978h-944v-978zM1047 383l-201 201l-201 -201l-178 178l201 201l-201 201l178 178l201 -201l201 201l178 -178l-201 -201l201 -201z" />
    <glyph glyph-name="zacute" unicode="&#x17a;" 
d="M92 0v1536h1522v-1536h-1522zM381 279h944v978h-944v-978zM1047 383l-201 201l-201 -201l-178 178l201 201l-201 201l178 178l201 -201l201 201l178 -178l-201 -201l201 -201z" />
    <glyph glyph-name="Zdotaccent" unicode="&#x17b;" 
d="M92 0v1536h1522v-1536h-1522zM381 279h944v978h-944v-978zM1047 383l-201 201l-201 -201l-178 178l201 201l-201 201l178 178l201 -201l201 201l178 -178l-201 -201l201 -201z" />
    <glyph glyph-name="zdotaccent" unicode="&#x17c;" 
d="M92 0v1536h1522v-1536h-1522zM381 279h944v978h-944v-978zM1047 383l-201 201l-201 -201l-178 178l201 201l-201 201l178 178l201 -201l201 201l178 -178l-201 -201l201 -201z" />
    <glyph glyph-name="Zcaron" unicode="&#x17d;" 
d="M92 0v1536h1522v-1536h-1522zM381 279h944v978h-944v-978zM1047 383l-201 201l-201 -201l-178 178l201 201l-201 201l178 178l201 -201l201 201l178 -178l-201 -201l201 -201z" />
    <glyph glyph-name="zcaron" unicode="&#x17e;" 
d="M92 0v1536h1522v-1536h-1522zM381 279h944v978h-944v-978zM1047 383l-201 201l-201 -201l-178 178l201 201l-201 201l178 178l201 -201l201 201l178 -178l-201 -201l201 -201z" />
    <glyph glyph-name="florin" unicode="&#x192;" 
d="M92 0v1536h1522v-1536h-1522zM381 279h944v978h-944v-978zM1047 383l-201 201l-201 -201l-178 178l201 201l-201 201l178 178l201 -201l201 201l178 -178l-201 -201l201 -201z" />
    <glyph glyph-name="Aringacute" unicode="&#x1fa;" 
d="M92 0v1536h1522v-1536h-1522zM381 279h944v978h-944v-978zM1047 383l-201 201l-201 -201l-178 178l201 201l-201 201l178 178l201 -201l201 201l178 -178l-201 -201l201 -201z" />
    <glyph glyph-name="aringacute" unicode="&#x1fb;" 
d="M92 0v1536h1522v-1536h-1522zM381 279h944v978h-944v-978zM1047 383l-201 201l-201 -201l-178 178l201 201l-201 201l178 178l201 -201l201 201l178 -178l-201 -201l201 -201z" />
    <glyph glyph-name="AEacute" unicode="&#x1fc;" 
d="M92 0v1536h1522v-1536h-1522zM381 279h944v978h-944v-978zM1047 383l-201 201l-201 -201l-178 178l201 201l-201 201l178 178l201 -201l201 201l178 -178l-201 -201l201 -201z" />
    <glyph glyph-name="aeacute" unicode="&#x1fd;" 
d="M92 0v1536h1522v-1536h-1522zM381 279h944v978h-944v-978zM1047 383l-201 201l-201 -201l-178 178l201 201l-201 201l178 178l201 -201l201 201l178 -178l-201 -201l201 -201z" />
    <glyph glyph-name="Oslashacute" unicode="&#x1fe;" 
d="M92 0v1536h1522v-1536h-1522zM381 279h944v978h-944v-978zM1047 383l-201 201l-201 -201l-178 178l201 201l-201 201l178 178l201 -201l201 201l178 -178l-201 -201l201 -201z" />
    <glyph glyph-name="oslashacute" unicode="&#x1ff;" 
d="M92 0v1536h1522v-1536h-1522zM381 279h944v978h-944v-978zM1047 383l-201 201l-201 -201l-178 178l201 201l-201 201l178 178l201 -201l201 201l178 -178l-201 -201l201 -201z" />
    <glyph glyph-name="Scommaaccent" unicode="&#x218;" 
d="M92 0v1536h1522v-1536h-1522zM381 279h944v978h-944v-978zM1047 383l-201 201l-201 -201l-178 178l201 201l-201 201l178 178l201 -201l201 201l178 -178l-201 -201l201 -201z" />
    <glyph glyph-name="scommaaccent" unicode="&#x219;" 
d="M92 0v1536h1522v-1536h-1522zM381 279h944v978h-944v-978zM1047 383l-201 201l-201 -201l-178 178l201 201l-201 201l178 178l201 -201l201 201l178 -178l-201 -201l201 -201z" />
    <glyph glyph-name="uni021A" unicode="&#x21a;" 
d="M92 0v1536h1522v-1536h-1522zM381 279h944v978h-944v-978zM1047 383l-201 201l-201 -201l-178 178l201 201l-201 201l178 178l201 -201l201 201l178 -178l-201 -201l201 -201z" />
    <glyph glyph-name="uni021B" unicode="&#x21b;" 
d="M92 0v1536h1522v-1536h-1522zM381 279h944v978h-944v-978zM1047 383l-201 201l-201 -201l-178 178l201 201l-201 201l178 178l201 -201l201 201l178 -178l-201 -201l201 -201z" />
    <glyph glyph-name="circumflex" unicode="&#x2c6;" 
d="M92 0v1536h1522v-1536h-1522zM381 279h944v978h-944v-978zM1047 383l-201 201l-201 -201l-178 178l201 201l-201 201l178 178l201 -201l201 201l178 -178l-201 -201l201 -201z" />
    <glyph glyph-name="caron" unicode="&#x2c7;" 
d="M92 0v1536h1522v-1536h-1522zM381 279h944v978h-944v-978zM1047 383l-201 201l-201 -201l-178 178l201 201l-201 201l178 178l201 -201l201 201l178 -178l-201 -201l201 -201z" />
    <glyph glyph-name="breve" unicode="&#x2d8;" 
d="M92 0v1536h1522v-1536h-1522zM381 279h944v978h-944v-978zM1047 383l-201 201l-201 -201l-178 178l201 201l-201 201l178 178l201 -201l201 201l178 -178l-201 -201l201 -201z" />
    <glyph glyph-name="dotaccent" unicode="&#x2d9;" 
d="M92 0v1536h1522v-1536h-1522zM381 279h944v978h-944v-978zM1047 383l-201 201l-201 -201l-178 178l201 201l-201 201l178 178l201 -201l201 201l178 -178l-201 -201l201 -201z" />
    <glyph glyph-name="ring" unicode="&#x2da;" 
d="M92 0v1536h1522v-1536h-1522zM381 279h944v978h-944v-978zM1047 383l-201 201l-201 -201l-178 178l201 201l-201 201l178 178l201 -201l201 201l178 -178l-201 -201l201 -201z" />
    <glyph glyph-name="ogonek" unicode="&#x2db;" 
d="M92 0v1536h1522v-1536h-1522zM381 279h944v978h-944v-978zM1047 383l-201 201l-201 -201l-178 178l201 201l-201 201l178 178l201 -201l201 201l178 -178l-201 -201l201 -201z" />
    <glyph glyph-name="tilde" unicode="&#x2dc;" 
d="M92 0v1536h1522v-1536h-1522zM381 279h944v978h-944v-978zM1047 383l-201 201l-201 -201l-178 178l201 201l-201 201l178 178l201 -201l201 201l178 -178l-201 -201l201 -201z" />
    <glyph glyph-name="hungarumlaut" unicode="&#x2dd;" 
d="M92 0v1536h1522v-1536h-1522zM381 279h944v978h-944v-978zM1047 383l-201 201l-201 -201l-178 178l201 201l-201 201l178 178l201 -201l201 201l178 -178l-201 -201l201 -201z" />
    <glyph glyph-name="gravecomb" unicode="&#x300;" 
d="M92 0v1536h1522v-1536h-1522zM381 279h944v978h-944v-978zM1047 383l-201 201l-201 -201l-178 178l201 201l-201 201l178 178l201 -201l201 201l178 -178l-201 -201l201 -201z" />
    <glyph glyph-name="acutecomb" unicode="&#x301;" 
d="M92 0v1536h1522v-1536h-1522zM381 279h944v978h-944v-978zM1047 383l-201 201l-201 -201l-178 178l201 201l-201 201l178 178l201 -201l201 201l178 -178l-201 -201l201 -201z" />
    <glyph glyph-name="circumflexcomb" unicode="&#x302;" 
d="M92 0v1536h1522v-1536h-1522zM381 279h944v978h-944v-978zM1047 383l-201 201l-201 -201l-178 178l201 201l-201 201l178 178l201 -201l201 201l178 -178l-201 -201l201 -201z" />
    <glyph glyph-name="tildecomb" unicode="&#x303;" 
d="M92 0v1536h1522v-1536h-1522zM381 279h944v978h-944v-978zM1047 383l-201 201l-201 -201l-178 178l201 201l-201 201l178 178l201 -201l201 201l178 -178l-201 -201l201 -201z" />
    <glyph glyph-name="macroncomb" unicode="&#x304;" 
d="M92 0v1536h1522v-1536h-1522zM381 279h944v978h-944v-978zM1047 383l-201 201l-201 -201l-178 178l201 201l-201 201l178 178l201 -201l201 201l178 -178l-201 -201l201 -201z" />
    <glyph glyph-name="brevecomb" unicode="&#x306;" 
d="M92 0v1536h1522v-1536h-1522zM381 279h944v978h-944v-978zM1047 383l-201 201l-201 -201l-178 178l201 201l-201 201l178 178l201 -201l201 201l178 -178l-201 -201l201 -201z" />
    <glyph glyph-name="dotaccentcomb" unicode="&#x307;" 
d="M92 0v1536h1522v-1536h-1522zM381 279h944v978h-944v-978zM1047 383l-201 201l-201 -201l-178 178l201 201l-201 201l178 178l201 -201l201 201l178 -178l-201 -201l201 -201z" />
    <glyph glyph-name="dieresiscomb" unicode="&#x308;" 
d="M92 0v1536h1522v-1536h-1522zM381 279h944v978h-944v-978zM1047 383l-201 201l-201 -201l-178 178l201 201l-201 201l178 178l201 -201l201 201l178 -178l-201 -201l201 -201z" />
    <glyph glyph-name="ringcomb" unicode="&#x30a;" 
d="M92 0v1536h1522v-1536h-1522zM381 279h944v978h-944v-978zM1047 383l-201 201l-201 -201l-178 178l201 201l-201 201l178 178l201 -201l201 201l178 -178l-201 -201l201 -201z" />
    <glyph glyph-name="hungarumlautcomb" unicode="&#x30b;" 
d="M92 0v1536h1522v-1536h-1522zM381 279h944v978h-944v-978zM1047 383l-201 201l-201 -201l-178 178l201 201l-201 201l178 178l201 -201l201 201l178 -178l-201 -201l201 -201z" />
    <glyph glyph-name="caroncomb" unicode="&#x30c;" 
d="M92 0v1536h1522v-1536h-1522zM381 279h944v978h-944v-978zM1047 383l-201 201l-201 -201l-178 178l201 201l-201 201l178 178l201 -201l201 201l178 -178l-201 -201l201 -201z" />
    <glyph glyph-name="commaaccentcomb" unicode="&#x326;" 
d="M92 0v1536h1522v-1536h-1522zM381 279h944v978h-944v-978zM1047 383l-201 201l-201 -201l-178 178l201 201l-201 201l178 178l201 -201l201 201l178 -178l-201 -201l201 -201z" />
    <glyph glyph-name="cedillacomb" unicode="&#x327;" 
d="M92 0v1536h1522v-1536h-1522zM381 279h944v978h-944v-978zM1047 383l-201 201l-201 -201l-178 178l201 201l-201 201l178 178l201 -201l201 201l178 -178l-201 -201l201 -201z" />
    <glyph glyph-name="ogonekcomb" unicode="&#x328;" 
d="M92 0v1536h1522v-1536h-1522zM381 279h944v978h-944v-978zM1047 383l-201 201l-201 -201l-178 178l201 201l-201 201l178 178l201 -201l201 201l178 -178l-201 -201l201 -201z" />
    <glyph glyph-name="pi" unicode="&#x3c0;" 
d="M92 0v1536h1522v-1536h-1522zM381 279h944v978h-944v-978zM1047 383l-201 201l-201 -201l-178 178l201 201l-201 201l178 178l201 -201l201 201l178 -178l-201 -201l201 -201z" />
    <glyph glyph-name="Wgrave" unicode="&#x1e80;" 
d="M92 0v1536h1522v-1536h-1522zM381 279h944v978h-944v-978zM1047 383l-201 201l-201 -201l-178 178l201 201l-201 201l178 178l201 -201l201 201l178 -178l-201 -201l201 -201z" />
    <glyph glyph-name="wgrave" unicode="&#x1e81;" 
d="M92 0v1536h1522v-1536h-1522zM381 279h944v978h-944v-978zM1047 383l-201 201l-201 -201l-178 178l201 201l-201 201l178 178l201 -201l201 201l178 -178l-201 -201l201 -201z" />
    <glyph glyph-name="Wacute" unicode="&#x1e82;" 
d="M92 0v1536h1522v-1536h-1522zM381 279h944v978h-944v-978zM1047 383l-201 201l-201 -201l-178 178l201 201l-201 201l178 178l201 -201l201 201l178 -178l-201 -201l201 -201z" />
    <glyph glyph-name="wacute" unicode="&#x1e83;" 
d="M92 0v1536h1522v-1536h-1522zM381 279h944v978h-944v-978zM1047 383l-201 201l-201 -201l-178 178l201 201l-201 201l178 178l201 -201l201 201l178 -178l-201 -201l201 -201z" />
    <glyph glyph-name="Wdieresis" unicode="&#x1e84;" 
d="M92 0v1536h1522v-1536h-1522zM381 279h944v978h-944v-978zM1047 383l-201 201l-201 -201l-178 178l201 201l-201 201l178 178l201 -201l201 201l178 -178l-201 -201l201 -201z" />
    <glyph glyph-name="wdieresis" unicode="&#x1e85;" 
d="M92 0v1536h1522v-1536h-1522zM381 279h944v978h-944v-978zM1047 383l-201 201l-201 -201l-178 178l201 201l-201 201l178 178l201 -201l201 201l178 -178l-201 -201l201 -201z" />
    <glyph glyph-name="uni1E9E" unicode="&#x1e9e;" 
d="M92 0v1536h1522v-1536h-1522zM381 279h944v978h-944v-978zM1047 383l-201 201l-201 -201l-178 178l201 201l-201 201l178 178l201 -201l201 201l178 -178l-201 -201l201 -201z" />
    <glyph glyph-name="Ygrave" unicode="&#x1ef2;" 
d="M92 0v1536h1522v-1536h-1522zM381 279h944v978h-944v-978zM1047 383l-201 201l-201 -201l-178 178l201 201l-201 201l178 178l201 -201l201 201l178 -178l-201 -201l201 -201z" />
    <glyph glyph-name="ygrave" unicode="&#x1ef3;" 
d="M92 0v1536h1522v-1536h-1522zM381 279h944v978h-944v-978zM1047 383l-201 201l-201 -201l-178 178l201 201l-201 201l178 178l201 -201l201 201l178 -178l-201 -201l201 -201z" />
    <glyph glyph-name="endash" unicode="&#x2013;" 
d="M92 0v1536h1522v-1536h-1522zM381 279h944v978h-944v-978zM1047 383l-201 201l-201 -201l-178 178l201 201l-201 201l178 178l201 -201l201 201l178 -178l-201 -201l201 -201z" />
    <glyph glyph-name="emdash" unicode="&#x2014;" 
d="M92 0v1536h1522v-1536h-1522zM381 279h944v978h-944v-978zM1047 383l-201 201l-201 -201l-178 178l201 201l-201 201l178 178l201 -201l201 201l178 -178l-201 -201l201 -201z" />
    <glyph glyph-name="quoteleft" unicode="&#x2018;" 
d="M92 0v1536h1522v-1536h-1522zM381 279h944v978h-944v-978zM1047 383l-201 201l-201 -201l-178 178l201 201l-201 201l178 178l201 -201l201 201l178 -178l-201 -201l201 -201z" />
    <glyph glyph-name="quoteright" unicode="&#x2019;" 
d="M92 0v1536h1522v-1536h-1522zM381 279h944v978h-944v-978zM1047 383l-201 201l-201 -201l-178 178l201 201l-201 201l178 178l201 -201l201 201l178 -178l-201 -201l201 -201z" />
    <glyph glyph-name="quotesinglbase" unicode="&#x201a;" 
d="M92 0v1536h1522v-1536h-1522zM381 279h944v978h-944v-978zM1047 383l-201 201l-201 -201l-178 178l201 201l-201 201l178 178l201 -201l201 201l178 -178l-201 -201l201 -201z" />
    <glyph glyph-name="quotedblleft" unicode="&#x201c;" 
d="M92 0v1536h1522v-1536h-1522zM381 279h944v978h-944v-978zM1047 383l-201 201l-201 -201l-178 178l201 201l-201 201l178 178l201 -201l201 201l178 -178l-201 -201l201 -201z" />
    <glyph glyph-name="quotedblright" unicode="&#x201d;" 
d="M92 0v1536h1522v-1536h-1522zM381 279h944v978h-944v-978zM1047 383l-201 201l-201 -201l-178 178l201 201l-201 201l178 178l201 -201l201 201l178 -178l-201 -201l201 -201z" />
    <glyph glyph-name="quotedblbase" unicode="&#x201e;" 
d="M92 0v1536h1522v-1536h-1522zM381 279h944v978h-944v-978zM1047 383l-201 201l-201 -201l-178 178l201 201l-201 201l178 178l201 -201l201 201l178 -178l-201 -201l201 -201z" />
    <glyph glyph-name="dagger" unicode="&#x2020;" 
d="M92 0v1536h1522v-1536h-1522zM381 279h944v978h-944v-978zM1047 383l-201 201l-201 -201l-178 178l201 201l-201 201l178 178l201 -201l201 201l178 -178l-201 -201l201 -201z" />
    <glyph glyph-name="daggerdbl" unicode="&#x2021;" 
d="M92 0v1536h1522v-1536h-1522zM381 279h944v978h-944v-978zM1047 383l-201 201l-201 -201l-178 178l201 201l-201 201l178 178l201 -201l201 201l178 -178l-201 -201l201 -201z" />
    <glyph glyph-name="bullet" unicode="&#x2022;" 
d="M92 0v1536h1522v-1536h-1522zM381 279h944v978h-944v-978zM1047 383l-201 201l-201 -201l-178 178l201 201l-201 201l178 178l201 -201l201 201l178 -178l-201 -201l201 -201z" />
    <glyph glyph-name="ellipsis" unicode="&#x2026;" 
d="M92 0v1536h1522v-1536h-1522zM381 279h944v978h-944v-978zM1047 383l-201 201l-201 -201l-178 178l201 201l-201 201l178 178l201 -201l201 201l178 -178l-201 -201l201 -201z" />
    <glyph glyph-name="perthousand" unicode="&#x2030;" 
d="M92 0v1536h1522v-1536h-1522zM381 279h944v978h-944v-978zM1047 383l-201 201l-201 -201l-178 178l201 201l-201 201l178 178l201 -201l201 201l178 -178l-201 -201l201 -201z" />
    <glyph glyph-name="guilsinglleft" unicode="&#x2039;" 
d="M92 0v1536h1522v-1536h-1522zM381 279h944v978h-944v-978zM1047 383l-201 201l-201 -201l-178 178l201 201l-201 201l178 178l201 -201l201 201l178 -178l-201 -201l201 -201z" />
    <glyph glyph-name="guilsinglright" unicode="&#x203a;" 
d="M92 0v1536h1522v-1536h-1522zM381 279h944v978h-944v-978zM1047 383l-201 201l-201 -201l-178 178l201 201l-201 201l178 178l201 -201l201 201l178 -178l-201 -201l201 -201z" />
    <glyph glyph-name="fraction" unicode="&#x2044;" 
d="M92 0v1536h1522v-1536h-1522zM381 279h944v978h-944v-978zM1047 383l-201 201l-201 -201l-178 178l201 201l-201 201l178 178l201 -201l201 201l178 -178l-201 -201l201 -201z" />
    <glyph glyph-name="Euro" unicode="&#x20ac;" 
d="M92 0v1536h1522v-1536h-1522zM381 279h944v978h-944v-978zM1047 383l-201 201l-201 -201l-178 178l201 201l-201 201l178 178l201 -201l201 201l178 -178l-201 -201l201 -201z" />
    <glyph glyph-name="uni2116" unicode="&#x2116;" 
d="M92 0v1536h1522v-1536h-1522zM381 279h944v978h-944v-978zM1047 383l-201 201l-201 -201l-178 178l201 201l-201 201l178 178l201 -201l201 201l178 -178l-201 -201l201 -201z" />
    <glyph glyph-name="uni2117" unicode="&#x2117;" 
d="M92 0v1536h1522v-1536h-1522zM381 279h944v978h-944v-978zM1047 383l-201 201l-201 -201l-178 178l201 201l-201 201l178 178l201 -201l201 201l178 -178l-201 -201l201 -201z" />
    <glyph glyph-name="uni2120" unicode="&#x2120;" 
d="M92 0v1536h1522v-1536h-1522zM381 279h944v978h-944v-978zM1047 383l-201 201l-201 -201l-178 178l201 201l-201 201l178 178l201 -201l201 201l178 -178l-201 -201l201 -201z" />
    <glyph glyph-name="trademark" unicode="&#x2122;" 
d="M92 0v1536h1522v-1536h-1522zM381 279h944v978h-944v-978zM1047 383l-201 201l-201 -201l-178 178l201 201l-201 201l178 178l201 -201l201 201l178 -178l-201 -201l201 -201z" />
    <glyph glyph-name="uni2150" unicode="&#x2150;" 
d="M92 0v1536h1522v-1536h-1522zM381 279h944v978h-944v-978zM1047 383l-201 201l-201 -201l-178 178l201 201l-201 201l178 178l201 -201l201 201l178 -178l-201 -201l201 -201z" />
    <glyph glyph-name="uni2151" unicode="&#x2151;" 
d="M92 0v1536h1522v-1536h-1522zM381 279h944v978h-944v-978zM1047 383l-201 201l-201 -201l-178 178l201 201l-201 201l178 178l201 -201l201 201l178 -178l-201 -201l201 -201z" />
    <glyph glyph-name="uni2153" unicode="&#x2153;" 
d="M92 0v1536h1522v-1536h-1522zM381 279h944v978h-944v-978zM1047 383l-201 201l-201 -201l-178 178l201 201l-201 201l178 178l201 -201l201 201l178 -178l-201 -201l201 -201z" />
    <glyph glyph-name="uni2154" unicode="&#x2154;" 
d="M92 0v1536h1522v-1536h-1522zM381 279h944v978h-944v-978zM1047 383l-201 201l-201 -201l-178 178l201 201l-201 201l178 178l201 -201l201 201l178 -178l-201 -201l201 -201z" />
    <glyph glyph-name="uni2155" unicode="&#x2155;" 
d="M92 0v1536h1522v-1536h-1522zM381 279h944v978h-944v-978zM1047 383l-201 201l-201 -201l-178 178l201 201l-201 201l178 178l201 -201l201 201l178 -178l-201 -201l201 -201z" />
    <glyph glyph-name="uni2156" unicode="&#x2156;" 
d="M92 0v1536h1522v-1536h-1522zM381 279h944v978h-944v-978zM1047 383l-201 201l-201 -201l-178 178l201 201l-201 201l178 178l201 -201l201 201l178 -178l-201 -201l201 -201z" />
    <glyph glyph-name="uni2157" unicode="&#x2157;" 
d="M92 0v1536h1522v-1536h-1522zM381 279h944v978h-944v-978zM1047 383l-201 201l-201 -201l-178 178l201 201l-201 201l178 178l201 -201l201 201l178 -178l-201 -201l201 -201z" />
    <glyph glyph-name="uni2158" unicode="&#x2158;" 
d="M92 0v1536h1522v-1536h-1522zM381 279h944v978h-944v-978zM1047 383l-201 201l-201 -201l-178 178l201 201l-201 201l178 178l201 -201l201 201l178 -178l-201 -201l201 -201z" />
    <glyph glyph-name="uni2159" unicode="&#x2159;" 
d="M92 0v1536h1522v-1536h-1522zM381 279h944v978h-944v-978zM1047 383l-201 201l-201 -201l-178 178l201 201l-201 201l178 178l201 -201l201 201l178 -178l-201 -201l201 -201z" />
    <glyph glyph-name="oneeighth" unicode="&#x215b;" 
d="M92 0v1536h1522v-1536h-1522zM381 279h944v978h-944v-978zM1047 383l-201 201l-201 -201l-178 178l201 201l-201 201l178 178l201 -201l201 201l178 -178l-201 -201l201 -201z" />
    <glyph glyph-name="arrowleft" unicode="&#x2190;" 
d="M92 0v1536h1522v-1536h-1522zM381 279h944v978h-944v-978zM1047 383l-201 201l-201 -201l-178 178l201 201l-201 201l178 178l201 -201l201 201l178 -178l-201 -201l201 -201z" />
    <glyph glyph-name="arrowup" unicode="&#x2191;" 
d="M92 0v1536h1522v-1536h-1522zM381 279h944v978h-944v-978zM1047 383l-201 201l-201 -201l-178 178l201 201l-201 201l178 178l201 -201l201 201l178 -178l-201 -201l201 -201z" />
    <glyph glyph-name="arrowright" unicode="&#x2192;" 
d="M92 0v1536h1522v-1536h-1522zM381 279h944v978h-944v-978zM1047 383l-201 201l-201 -201l-178 178l201 201l-201 201l178 178l201 -201l201 201l178 -178l-201 -201l201 -201z" />
    <glyph glyph-name="arrowdown" unicode="&#x2193;" 
d="M92 0v1536h1522v-1536h-1522zM381 279h944v978h-944v-978zM1047 383l-201 201l-201 -201l-178 178l201 201l-201 201l178 178l201 -201l201 201l178 -178l-201 -201l201 -201z" />
    <glyph glyph-name="arrowboth" unicode="&#x2194;" 
d="M92 0v1536h1522v-1536h-1522zM381 279h944v978h-944v-978zM1047 383l-201 201l-201 -201l-178 178l201 201l-201 201l178 178l201 -201l201 201l178 -178l-201 -201l201 -201z" />
    <glyph glyph-name="arrowupdn" unicode="&#x2195;" 
d="M92 0v1536h1522v-1536h-1522zM381 279h944v978h-944v-978zM1047 383l-201 201l-201 -201l-178 178l201 201l-201 201l178 178l201 -201l201 201l178 -178l-201 -201l201 -201z" />
    <glyph glyph-name="uni2196" unicode="&#x2196;" 
d="M92 0v1536h1522v-1536h-1522zM381 279h944v978h-944v-978zM1047 383l-201 201l-201 -201l-178 178l201 201l-201 201l178 178l201 -201l201 201l178 -178l-201 -201l201 -201z" />
    <glyph glyph-name="uni2197" unicode="&#x2197;" 
d="M92 0v1536h1522v-1536h-1522zM381 279h944v978h-944v-978zM1047 383l-201 201l-201 -201l-178 178l201 201l-201 201l178 178l201 -201l201 201l178 -178l-201 -201l201 -201z" />
    <glyph glyph-name="uni2198" unicode="&#x2198;" 
d="M92 0v1536h1522v-1536h-1522zM381 279h944v978h-944v-978zM1047 383l-201 201l-201 -201l-178 178l201 201l-201 201l178 178l201 -201l201 201l178 -178l-201 -201l201 -201z" />
    <glyph glyph-name="uni2199" unicode="&#x2199;" 
d="M92 0v1536h1522v-1536h-1522zM381 279h944v978h-944v-978zM1047 383l-201 201l-201 -201l-178 178l201 201l-201 201l178 178l201 -201l201 201l178 -178l-201 -201l201 -201z" />
    <glyph glyph-name="minus" unicode="&#x2212;" 
d="M92 0v1536h1522v-1536h-1522zM381 279h944v978h-944v-978zM1047 383l-201 201l-201 -201l-178 178l201 201l-201 201l178 178l201 -201l201 201l178 -178l-201 -201l201 -201z" />
    <glyph glyph-name="infinity" unicode="&#x221e;" 
d="M92 0v1536h1522v-1536h-1522zM381 279h944v978h-944v-978zM1047 383l-201 201l-201 -201l-178 178l201 201l-201 201l178 178l201 -201l201 201l178 -178l-201 -201l201 -201z" />
    <glyph glyph-name="approxequal" unicode="&#x2248;" 
d="M92 0v1536h1522v-1536h-1522zM381 279h944v978h-944v-978zM1047 383l-201 201l-201 -201l-178 178l201 201l-201 201l178 178l201 -201l201 201l178 -178l-201 -201l201 -201z" />
    <glyph glyph-name="notequal" unicode="&#x2260;" 
d="M92 0v1536h1522v-1536h-1522zM381 279h944v978h-944v-978zM1047 383l-201 201l-201 -201l-178 178l201 201l-201 201l178 178l201 -201l201 201l178 -178l-201 -201l201 -201z" />
    <glyph glyph-name="lessequal" unicode="&#x2264;" 
d="M92 0v1536h1522v-1536h-1522zM381 279h944v978h-944v-978zM1047 383l-201 201l-201 -201l-178 178l201 201l-201 201l178 178l201 -201l201 201l178 -178l-201 -201l201 -201z" />
    <glyph glyph-name="greaterequal" unicode="&#x2265;" 
d="M92 0v1536h1522v-1536h-1522zM381 279h944v978h-944v-978zM1047 383l-201 201l-201 -201l-178 178l201 201l-201 201l178 178l201 -201l201 201l178 -178l-201 -201l201 -201z" />
    <glyph glyph-name="house" unicode="&#x2302;" 
d="M92 0v1536h1522v-1536h-1522zM381 279h944v978h-944v-978zM1047 383l-201 201l-201 -201l-178 178l201 201l-201 201l178 178l201 -201l201 201l178 -178l-201 -201l201 -201z" />
    <glyph glyph-name="blacksquare" unicode="&#x25a0;" 
d="M92 0v1536h1522v-1536h-1522zM381 279h944v978h-944v-978zM1047 383l-201 201l-201 -201l-178 178l201 201l-201 201l178 178l201 -201l201 201l178 -178l-201 -201l201 -201z" />
    <glyph glyph-name="whitesquare" unicode="&#x25a1;" 
d="M92 0v1536h1522v-1536h-1522zM381 279h944v978h-944v-978zM1047 383l-201 201l-201 -201l-178 178l201 201l-201 201l178 178l201 -201l201 201l178 -178l-201 -201l201 -201z" />
    <glyph glyph-name="blacksmallsquare" unicode="&#x25aa;" 
d="M92 0v1536h1522v-1536h-1522zM381 279h944v978h-944v-978zM1047 383l-201 201l-201 -201l-178 178l201 201l-201 201l178 178l201 -201l201 201l178 -178l-201 -201l201 -201z" />
    <glyph glyph-name="whitesmallsquare" unicode="&#x25ab;" 
d="M92 0v1536h1522v-1536h-1522zM381 279h944v978h-944v-978zM1047 383l-201 201l-201 -201l-178 178l201 201l-201 201l178 178l201 -201l201 201l178 -178l-201 -201l201 -201z" />
    <glyph glyph-name="triagup" unicode="&#x25b2;" 
d="M92 0v1536h1522v-1536h-1522zM381 279h944v978h-944v-978zM1047 383l-201 201l-201 -201l-178 178l201 201l-201 201l178 178l201 -201l201 201l178 -178l-201 -201l201 -201z" />
    <glyph glyph-name="triagrt" unicode="&#x25ba;" 
d="M92 0v1536h1522v-1536h-1522zM381 279h944v978h-944v-978zM1047 383l-201 201l-201 -201l-178 178l201 201l-201 201l178 178l201 -201l201 201l178 -178l-201 -201l201 -201z" />
    <glyph glyph-name="triagdn" unicode="&#x25bc;" 
d="M92 0v1536h1522v-1536h-1522zM381 279h944v978h-944v-978zM1047 383l-201 201l-201 -201l-178 178l201 201l-201 201l178 178l201 -201l201 201l178 -178l-201 -201l201 -201z" />
    <glyph glyph-name="triaglf" unicode="&#x25c4;" 
d="M92 0v1536h1522v-1536h-1522zM381 279h944v978h-944v-978zM1047 383l-201 201l-201 -201l-178 178l201 201l-201 201l178 178l201 -201l201 201l178 -178l-201 -201l201 -201z" />
    <glyph glyph-name="whitecircle" unicode="&#x25cb;" 
d="M92 0v1536h1522v-1536h-1522zM381 279h944v978h-944v-978zM1047 383l-201 201l-201 -201l-178 178l201 201l-201 201l178 178l201 -201l201 201l178 -178l-201 -201l201 -201z" />
    <glyph glyph-name="blackcircle" unicode="&#x25cf;" 
d="M92 0v1536h1522v-1536h-1522zM381 279h944v978h-944v-978zM1047 383l-201 201l-201 -201l-178 178l201 201l-201 201l178 178l201 -201l201 201l178 -178l-201 -201l201 -201z" />
    <glyph glyph-name="mediumwhitecircle" unicode="&#x26ac;" 
d="M92 0v1536h1522v-1536h-1522zM381 279h944v978h-944v-978zM1047 383l-201 201l-201 -201l-178 178l201 201l-201 201l178 178l201 -201l201 201l178 -178l-201 -201l201 -201z" />
    <glyph glyph-name="dotlessj" unicode="&#xf6be;" 
d="M92 0v1536h1522v-1536h-1522zM381 279h944v978h-944v-978zM1047 383l-201 201l-201 -201l-178 178l201 201l-201 201l178 178l201 -201l201 201l178 -178l-201 -201l201 -201z" />
    <glyph glyph-name="fi" unicode="&#xfb01;" 
d="M92 0v1536h1522v-1536h-1522zM381 279h944v978h-944v-978zM1047 383l-201 201l-201 -201l-178 178l201 201l-201 201l178 178l201 -201l201 201l178 -178l-201 -201l201 -201z" />
    <glyph glyph-name="fl" unicode="&#xfb02;" 
d="M92 0v1536h1522v-1536h-1522zM381 279h944v978h-944v-978zM1047 383l-201 201l-201 -201l-178 178l201 201l-201 201l178 178l201 -201l201 201l178 -178l-201 -201l201 -201z" />
    <glyph glyph-name="zero.numr" 
d="M92 0v1536h1522v-1536h-1522zM381 279h944v978h-944v-978zM1047 383l-201 201l-201 -201l-178 178l201 201l-201 201l178 178l201 -201l201 201l178 -178l-201 -201l201 -201z" />
    <glyph glyph-name="one.numr" 
d="M92 0v1536h1522v-1536h-1522zM381 279h944v978h-944v-978zM1047 383l-201 201l-201 -201l-178 178l201 201l-201 201l178 178l201 -201l201 201l178 -178l-201 -201l201 -201z" />
    <glyph glyph-name="two.numr" 
d="M92 0v1536h1522v-1536h-1522zM381 279h944v978h-944v-978zM1047 383l-201 201l-201 -201l-178 178l201 201l-201 201l178 178l201 -201l201 201l178 -178l-201 -201l201 -201z" />
    <glyph glyph-name="three.numr" 
d="M92 0v1536h1522v-1536h-1522zM381 279h944v978h-944v-978zM1047 383l-201 201l-201 -201l-178 178l201 201l-201 201l178 178l201 -201l201 201l178 -178l-201 -201l201 -201z" />
    <glyph glyph-name="four.numr" 
d="M92 0v1536h1522v-1536h-1522zM381 279h944v978h-944v-978zM1047 383l-201 201l-201 -201l-178 178l201 201l-201 201l178 178l201 -201l201 201l178 -178l-201 -201l201 -201z" />
    <glyph glyph-name="five.numr" 
d="M92 0v1536h1522v-1536h-1522zM381 279h944v978h-944v-978zM1047 383l-201 201l-201 -201l-178 178l201 201l-201 201l178 178l201 -201l201 201l178 -178l-201 -201l201 -201z" />
    <glyph glyph-name="six.numr" 
d="M92 0v1536h1522v-1536h-1522zM381 279h944v978h-944v-978zM1047 383l-201 201l-201 -201l-178 178l201 201l-201 201l178 178l201 -201l201 201l178 -178l-201 -201l201 -201z" />
    <glyph glyph-name="seven.numr" 
d="M92 0v1536h1522v-1536h-1522zM381 279h944v978h-944v-978zM1047 383l-201 201l-201 -201l-178 178l201 201l-201 201l178 178l201 -201l201 201l178 -178l-201 -201l201 -201z" />
    <glyph glyph-name="eight.numr" 
d="M92 0v1536h1522v-1536h-1522zM381 279h944v978h-944v-978zM1047 383l-201 201l-201 -201l-178 178l201 201l-201 201l178 178l201 -201l201 201l178 -178l-201 -201l201 -201z" />
    <glyph glyph-name="nine.numr" 
d="M92 0v1536h1522v-1536h-1522zM381 279h944v978h-944v-978zM1047 383l-201 201l-201 -201l-178 178l201 201l-201 201l178 178l201 -201l201 201l178 -178l-201 -201l201 -201z" />
    <glyph glyph-name="zero.dnom" 
d="M92 0v1536h1522v-1536h-1522zM381 279h944v978h-944v-978zM1047 383l-201 201l-201 -201l-178 178l201 201l-201 201l178 178l201 -201l201 201l178 -178l-201 -201l201 -201z" />
    <glyph glyph-name="one.dnom" 
d="M92 0v1536h1522v-1536h-1522zM381 279h944v978h-944v-978zM1047 383l-201 201l-201 -201l-178 178l201 201l-201 201l178 178l201 -201l201 201l178 -178l-201 -201l201 -201z" />
    <glyph glyph-name="two.dnom" 
d="M92 0v1536h1522v-1536h-1522zM381 279h944v978h-944v-978zM1047 383l-201 201l-201 -201l-178 178l201 201l-201 201l178 178l201 -201l201 201l178 -178l-201 -201l201 -201z" />
    <glyph glyph-name="three.dnom" 
d="M92 0v1536h1522v-1536h-1522zM381 279h944v978h-944v-978zM1047 383l-201 201l-201 -201l-178 178l201 201l-201 201l178 178l201 -201l201 201l178 -178l-201 -201l201 -201z" />
    <glyph glyph-name="four.dnom" 
d="M92 0v1536h1522v-1536h-1522zM381 279h944v978h-944v-978zM1047 383l-201 201l-201 -201l-178 178l201 201l-201 201l178 178l201 -201l201 201l178 -178l-201 -201l201 -201z" />
    <glyph glyph-name="five.dnom" 
d="M92 0v1536h1522v-1536h-1522zM381 279h944v978h-944v-978zM1047 383l-201 201l-201 -201l-178 178l201 201l-201 201l178 178l201 -201l201 201l178 -178l-201 -201l201 -201z" />
    <glyph glyph-name="six.dnom" 
d="M92 0v1536h1522v-1536h-1522zM381 279h944v978h-944v-978zM1047 383l-201 201l-201 -201l-178 178l201 201l-201 201l178 178l201 -201l201 201l178 -178l-201 -201l201 -201z" />
    <glyph glyph-name="seven.dnom" 
d="M92 0v1536h1522v-1536h-1522zM381 279h944v978h-944v-978zM1047 383l-201 201l-201 -201l-178 178l201 201l-201 201l178 178l201 -201l201 201l178 -178l-201 -201l201 -201z" />
    <glyph glyph-name="eight.dnom" 
d="M92 0v1536h1522v-1536h-1522zM381 279h944v978h-944v-978zM1047 383l-201 201l-201 -201l-178 178l201 201l-201 201l178 178l201 -201l201 201l178 -178l-201 -201l201 -201z" />
    <glyph glyph-name="nine.dnom" 
d="M92 0v1536h1522v-1536h-1522zM381 279h944v978h-944v-978zM1047 383l-201 201l-201 -201l-178 178l201 201l-201 201l178 178l201 -201l201 201l178 -178l-201 -201l201 -201z" />
    <glyph glyph-name="zero.sups" 
d="M92 0v1536h1522v-1536h-1522zM381 279h944v978h-944v-978zM1047 383l-201 201l-201 -201l-178 178l201 201l-201 201l178 178l201 -201l201 201l178 -178l-201 -201l201 -201z" />
    <glyph glyph-name="one.sups" 
d="M92 0v1536h1522v-1536h-1522zM381 279h944v978h-944v-978zM1047 383l-201 201l-201 -201l-178 178l201 201l-201 201l178 178l201 -201l201 201l178 -178l-201 -201l201 -201z" />
    <glyph glyph-name="two.sups" 
d="M92 0v1536h1522v-1536h-1522zM381 279h944v978h-944v-978zM1047 383l-201 201l-201 -201l-178 178l201 201l-201 201l178 178l201 -201l201 201l178 -178l-201 -201l201 -201z" />
    <glyph glyph-name="three.sups" 
d="M92 0v1536h1522v-1536h-1522zM381 279h944v978h-944v-978zM1047 383l-201 201l-201 -201l-178 178l201 201l-201 201l178 178l201 -201l201 201l178 -178l-201 -201l201 -201z" />
    <glyph glyph-name="four.sups" 
d="M92 0v1536h1522v-1536h-1522zM381 279h944v978h-944v-978zM1047 383l-201 201l-201 -201l-178 178l201 201l-201 201l178 178l201 -201l201 201l178 -178l-201 -201l201 -201z" />
    <glyph glyph-name="five.sups" 
d="M92 0v1536h1522v-1536h-1522zM381 279h944v978h-944v-978zM1047 383l-201 201l-201 -201l-178 178l201 201l-201 201l178 178l201 -201l201 201l178 -178l-201 -201l201 -201z" />
    <glyph glyph-name="six.sups" 
d="M92 0v1536h1522v-1536h-1522zM381 279h944v978h-944v-978zM1047 383l-201 201l-201 -201l-178 178l201 201l-201 201l178 178l201 -201l201 201l178 -178l-201 -201l201 -201z" />
    <glyph glyph-name="seven.sups" 
d="M92 0v1536h1522v-1536h-1522zM381 279h944v978h-944v-978zM1047 383l-201 201l-201 -201l-178 178l201 201l-201 201l178 178l201 -201l201 201l178 -178l-201 -201l201 -201z" />
    <glyph glyph-name="eight.sups" 
d="M92 0v1536h1522v-1536h-1522zM381 279h944v978h-944v-978zM1047 383l-201 201l-201 -201l-178 178l201 201l-201 201l178 178l201 -201l201 201l178 -178l-201 -201l201 -201z" />
    <glyph glyph-name="nine.sups" 
d="M92 0v1536h1522v-1536h-1522zM381 279h944v978h-944v-978zM1047 383l-201 201l-201 -201l-178 178l201 201l-201 201l178 178l201 -201l201 201l178 -178l-201 -201l201 -201z" />
    <glyph glyph-name="period.sups" 
d="M92 0v1536h1522v-1536h-1522zM381 279h944v978h-944v-978zM1047 383l-201 201l-201 -201l-178 178l201 201l-201 201l178 178l201 -201l201 201l178 -178l-201 -201l201 -201z" />
    <glyph glyph-name="comma.sups" 
d="M92 0v1536h1522v-1536h-1522zM381 279h944v978h-944v-978zM1047 383l-201 201l-201 -201l-178 178l201 201l-201 201l178 178l201 -201l201 201l178 -178l-201 -201l201 -201z" />
    <glyph glyph-name="hyphen.sups" 
d="M92 0v1536h1522v-1536h-1522zM381 279h944v978h-944v-978zM1047 383l-201 201l-201 -201l-178 178l201 201l-201 201l178 178l201 -201l201 201l178 -178l-201 -201l201 -201z" />
    <glyph glyph-name="parenleft.sups" 
d="M92 0v1536h1522v-1536h-1522zM381 279h944v978h-944v-978zM1047 383l-201 201l-201 -201l-178 178l201 201l-201 201l178 178l201 -201l201 201l178 -178l-201 -201l201 -201z" />
    <glyph glyph-name="parenright.sups" 
d="M92 0v1536h1522v-1536h-1522zM381 279h944v978h-944v-978zM1047 383l-201 201l-201 -201l-178 178l201 201l-201 201l178 178l201 -201l201 201l178 -178l-201 -201l201 -201z" />
    <glyph glyph-name="plus.sups" 
d="M92 0v1536h1522v-1536h-1522zM381 279h944v978h-944v-978zM1047 383l-201 201l-201 -201l-178 178l201 201l-201 201l178 178l201 -201l201 201l178 -178l-201 -201l201 -201z" />
    <glyph glyph-name="minus.sups" 
d="M92 0v1536h1522v-1536h-1522zM381 279h944v978h-944v-978zM1047 383l-201 201l-201 -201l-178 178l201 201l-201 201l178 178l201 -201l201 201l178 -178l-201 -201l201 -201z" />
    <glyph glyph-name="multiply.sups" 
d="M92 0v1536h1522v-1536h-1522zM381 279h944v978h-944v-978zM1047 383l-201 201l-201 -201l-178 178l201 201l-201 201l178 178l201 -201l201 201l178 -178l-201 -201l201 -201z" />
    <glyph glyph-name="equal.sups" 
d="M92 0v1536h1522v-1536h-1522zM381 279h944v978h-944v-978zM1047 383l-201 201l-201 -201l-178 178l201 201l-201 201l178 178l201 -201l201 201l178 -178l-201 -201l201 -201z" />
    <glyph glyph-name="divide.sups" 
d="M92 0v1536h1522v-1536h-1522zM381 279h944v978h-944v-978zM1047 383l-201 201l-201 -201l-178 178l201 201l-201 201l178 178l201 -201l201 201l178 -178l-201 -201l201 -201z" />
    <glyph glyph-name="a.sups" 
d="M92 0v1536h1522v-1536h-1522zM381 279h944v978h-944v-978zM1047 383l-201 201l-201 -201l-178 178l201 201l-201 201l178 178l201 -201l201 201l178 -178l-201 -201l201 -201z" />
    <glyph glyph-name="b.sups" 
d="M92 0v1536h1522v-1536h-1522zM381 279h944v978h-944v-978zM1047 383l-201 201l-201 -201l-178 178l201 201l-201 201l178 178l201 -201l201 201l178 -178l-201 -201l201 -201z" />
    <glyph glyph-name="c.sups" 
d="M92 0v1536h1522v-1536h-1522zM381 279h944v978h-944v-978zM1047 383l-201 201l-201 -201l-178 178l201 201l-201 201l178 178l201 -201l201 201l178 -178l-201 -201l201 -201z" />
    <glyph glyph-name="d.sups" 
d="M92 0v1536h1522v-1536h-1522zM381 279h944v978h-944v-978zM1047 383l-201 201l-201 -201l-178 178l201 201l-201 201l178 178l201 -201l201 201l178 -178l-201 -201l201 -201z" />
    <glyph glyph-name="e.sups" 
d="M92 0v1536h1522v-1536h-1522zM381 279h944v978h-944v-978zM1047 383l-201 201l-201 -201l-178 178l201 201l-201 201l178 178l201 -201l201 201l178 -178l-201 -201l201 -201z" />
    <glyph glyph-name="f.sups" 
d="M92 0v1536h1522v-1536h-1522zM381 279h944v978h-944v-978zM1047 383l-201 201l-201 -201l-178 178l201 201l-201 201l178 178l201 -201l201 201l178 -178l-201 -201l201 -201z" />
    <glyph glyph-name="g.sups" 
d="M92 0v1536h1522v-1536h-1522zM381 279h944v978h-944v-978zM1047 383l-201 201l-201 -201l-178 178l201 201l-201 201l178 178l201 -201l201 201l178 -178l-201 -201l201 -201z" />
    <glyph glyph-name="h.sups" 
d="M92 0v1536h1522v-1536h-1522zM381 279h944v978h-944v-978zM1047 383l-201 201l-201 -201l-178 178l201 201l-201 201l178 178l201 -201l201 201l178 -178l-201 -201l201 -201z" />
    <glyph glyph-name="i.sups" 
d="M92 0v1536h1522v-1536h-1522zM381 279h944v978h-944v-978zM1047 383l-201 201l-201 -201l-178 178l201 201l-201 201l178 178l201 -201l201 201l178 -178l-201 -201l201 -201z" />
    <glyph glyph-name="j.sups" 
d="M92 0v1536h1522v-1536h-1522zM381 279h944v978h-944v-978zM1047 383l-201 201l-201 -201l-178 178l201 201l-201 201l178 178l201 -201l201 201l178 -178l-201 -201l201 -201z" />
    <glyph glyph-name="k.sups" 
d="M92 0v1536h1522v-1536h-1522zM381 279h944v978h-944v-978zM1047 383l-201 201l-201 -201l-178 178l201 201l-201 201l178 178l201 -201l201 201l178 -178l-201 -201l201 -201z" />
    <glyph glyph-name="l.sups" 
d="M92 0v1536h1522v-1536h-1522zM381 279h944v978h-944v-978zM1047 383l-201 201l-201 -201l-178 178l201 201l-201 201l178 178l201 -201l201 201l178 -178l-201 -201l201 -201z" />
    <glyph glyph-name="m.sups" 
d="M92 0v1536h1522v-1536h-1522zM381 279h944v978h-944v-978zM1047 383l-201 201l-201 -201l-178 178l201 201l-201 201l178 178l201 -201l201 201l178 -178l-201 -201l201 -201z" />
    <glyph glyph-name="n.sups" 
d="M92 0v1536h1522v-1536h-1522zM381 279h944v978h-944v-978zM1047 383l-201 201l-201 -201l-178 178l201 201l-201 201l178 178l201 -201l201 201l178 -178l-201 -201l201 -201z" />
    <glyph glyph-name="o.sups" 
d="M92 0v1536h1522v-1536h-1522zM381 279h944v978h-944v-978zM1047 383l-201 201l-201 -201l-178 178l201 201l-201 201l178 178l201 -201l201 201l178 -178l-201 -201l201 -201z" />
    <glyph glyph-name="p.sups" 
d="M92 0v1536h1522v-1536h-1522zM381 279h944v978h-944v-978zM1047 383l-201 201l-201 -201l-178 178l201 201l-201 201l178 178l201 -201l201 201l178 -178l-201 -201l201 -201z" />
    <glyph glyph-name="q.sups" 
d="M92 0v1536h1522v-1536h-1522zM381 279h944v978h-944v-978zM1047 383l-201 201l-201 -201l-178 178l201 201l-201 201l178 178l201 -201l201 201l178 -178l-201 -201l201 -201z" />
    <glyph glyph-name="r.sups" 
d="M92 0v1536h1522v-1536h-1522zM381 279h944v978h-944v-978zM1047 383l-201 201l-201 -201l-178 178l201 201l-201 201l178 178l201 -201l201 201l178 -178l-201 -201l201 -201z" />
    <glyph glyph-name="s.sups" 
d="M92 0v1536h1522v-1536h-1522zM381 279h944v978h-944v-978zM1047 383l-201 201l-201 -201l-178 178l201 201l-201 201l178 178l201 -201l201 201l178 -178l-201 -201l201 -201z" />
    <glyph glyph-name="t.sups" 
d="M92 0v1536h1522v-1536h-1522zM381 279h944v978h-944v-978zM1047 383l-201 201l-201 -201l-178 178l201 201l-201 201l178 178l201 -201l201 201l178 -178l-201 -201l201 -201z" />
    <glyph glyph-name="u.sups" 
d="M92 0v1536h1522v-1536h-1522zM381 279h944v978h-944v-978zM1047 383l-201 201l-201 -201l-178 178l201 201l-201 201l178 178l201 -201l201 201l178 -178l-201 -201l201 -201z" />
    <glyph glyph-name="v.sups" 
d="M92 0v1536h1522v-1536h-1522zM381 279h944v978h-944v-978zM1047 383l-201 201l-201 -201l-178 178l201 201l-201 201l178 178l201 -201l201 201l178 -178l-201 -201l201 -201z" />
    <glyph glyph-name="w.sups" 
d="M92 0v1536h1522v-1536h-1522zM381 279h944v978h-944v-978zM1047 383l-201 201l-201 -201l-178 178l201 201l-201 201l178 178l201 -201l201 201l178 -178l-201 -201l201 -201z" />
    <glyph glyph-name="x.sups" 
d="M92 0v1536h1522v-1536h-1522zM381 279h944v978h-944v-978zM1047 383l-201 201l-201 -201l-178 178l201 201l-201 201l178 178l201 -201l201 201l178 -178l-201 -201l201 -201z" />
    <glyph glyph-name="y.sups" 
d="M92 0v1536h1522v-1536h-1522zM381 279h944v978h-944v-978zM1047 383l-201 201l-201 -201l-178 178l201 201l-201 201l178 178l201 -201l201 201l178 -178l-201 -201l201 -201z" />
    <glyph glyph-name="z.sups" 
d="M92 0v1536h1522v-1536h-1522zM381 279h944v978h-944v-978zM1047 383l-201 201l-201 -201l-178 178l201 201l-201 201l178 178l201 -201l201 201l178 -178l-201 -201l201 -201z" />
    <glyph glyph-name="zero.subs" 
d="M92 0v1536h1522v-1536h-1522zM381 279h944v978h-944v-978zM1047 383l-201 201l-201 -201l-178 178l201 201l-201 201l178 178l201 -201l201 201l178 -178l-201 -201l201 -201z" />
    <glyph glyph-name="one.subs" 
d="M92 0v1536h1522v-1536h-1522zM381 279h944v978h-944v-978zM1047 383l-201 201l-201 -201l-178 178l201 201l-201 201l178 178l201 -201l201 201l178 -178l-201 -201l201 -201z" />
    <glyph glyph-name="two.subs" 
d="M92 0v1536h1522v-1536h-1522zM381 279h944v978h-944v-978zM1047 383l-201 201l-201 -201l-178 178l201 201l-201 201l178 178l201 -201l201 201l178 -178l-201 -201l201 -201z" />
    <glyph glyph-name="three.subs" 
d="M92 0v1536h1522v-1536h-1522zM381 279h944v978h-944v-978zM1047 383l-201 201l-201 -201l-178 178l201 201l-201 201l178 178l201 -201l201 201l178 -178l-201 -201l201 -201z" />
    <glyph glyph-name="four.subs" 
d="M92 0v1536h1522v-1536h-1522zM381 279h944v978h-944v-978zM1047 383l-201 201l-201 -201l-178 178l201 201l-201 201l178 178l201 -201l201 201l178 -178l-201 -201l201 -201z" />
    <glyph glyph-name="five.subs" 
d="M92 0v1536h1522v-1536h-1522zM381 279h944v978h-944v-978zM1047 383l-201 201l-201 -201l-178 178l201 201l-201 201l178 178l201 -201l201 201l178 -178l-201 -201l201 -201z" />
    <glyph glyph-name="six.subs" 
d="M92 0v1536h1522v-1536h-1522zM381 279h944v978h-944v-978zM1047 383l-201 201l-201 -201l-178 178l201 201l-201 201l178 178l201 -201l201 201l178 -178l-201 -201l201 -201z" />
    <glyph glyph-name="seven.subs" 
d="M92 0v1536h1522v-1536h-1522zM381 279h944v978h-944v-978zM1047 383l-201 201l-201 -201l-178 178l201 201l-201 201l178 178l201 -201l201 201l178 -178l-201 -201l201 -201z" />
    <glyph glyph-name="eight.subs" 
d="M92 0v1536h1522v-1536h-1522zM381 279h944v978h-944v-978zM1047 383l-201 201l-201 -201l-178 178l201 201l-201 201l178 178l201 -201l201 201l178 -178l-201 -201l201 -201z" />
    <glyph glyph-name="nine.subs" 
d="M92 0v1536h1522v-1536h-1522zM381 279h944v978h-944v-978zM1047 383l-201 201l-201 -201l-178 178l201 201l-201 201l178 178l201 -201l201 201l178 -178l-201 -201l201 -201z" />
    <glyph glyph-name="period.subs" 
d="M92 0v1536h1522v-1536h-1522zM381 279h944v978h-944v-978zM1047 383l-201 201l-201 -201l-178 178l201 201l-201 201l178 178l201 -201l201 201l178 -178l-201 -201l201 -201z" />
    <glyph glyph-name="comma.subs" 
d="M92 0v1536h1522v-1536h-1522zM381 279h944v978h-944v-978zM1047 383l-201 201l-201 -201l-178 178l201 201l-201 201l178 178l201 -201l201 201l178 -178l-201 -201l201 -201z" />
    <glyph glyph-name="hyphen.subs" 
d="M92 0v1536h1522v-1536h-1522zM381 279h944v978h-944v-978zM1047 383l-201 201l-201 -201l-178 178l201 201l-201 201l178 178l201 -201l201 201l178 -178l-201 -201l201 -201z" />
    <glyph glyph-name="parenleft.subs" 
d="M92 0v1536h1522v-1536h-1522zM381 279h944v978h-944v-978zM1047 383l-201 201l-201 -201l-178 178l201 201l-201 201l178 178l201 -201l201 201l178 -178l-201 -201l201 -201z" />
    <glyph glyph-name="parenright.subs" 
d="M92 0v1536h1522v-1536h-1522zM381 279h944v978h-944v-978zM1047 383l-201 201l-201 -201l-178 178l201 201l-201 201l178 178l201 -201l201 201l178 -178l-201 -201l201 -201z" />
    <glyph glyph-name="plus.subs" 
d="M92 0v1536h1522v-1536h-1522zM381 279h944v978h-944v-978zM1047 383l-201 201l-201 -201l-178 178l201 201l-201 201l178 178l201 -201l201 201l178 -178l-201 -201l201 -201z" />
    <glyph glyph-name="minus.subs" 
d="M92 0v1536h1522v-1536h-1522zM381 279h944v978h-944v-978zM1047 383l-201 201l-201 -201l-178 178l201 201l-201 201l178 178l201 -201l201 201l178 -178l-201 -201l201 -201z" />
    <glyph glyph-name="multiply.subs" 
d="M92 0v1536h1522v-1536h-1522zM381 279h944v978h-944v-978zM1047 383l-201 201l-201 -201l-178 178l201 201l-201 201l178 178l201 -201l201 201l178 -178l-201 -201l201 -201z" />
    <glyph glyph-name="equal.subs" 
d="M92 0v1536h1522v-1536h-1522zM381 279h944v978h-944v-978zM1047 383l-201 201l-201 -201l-178 178l201 201l-201 201l178 178l201 -201l201 201l178 -178l-201 -201l201 -201z" />
    <glyph glyph-name="divide.subs" 
d="M92 0v1536h1522v-1536h-1522zM381 279h944v978h-944v-978zM1047 383l-201 201l-201 -201l-178 178l201 201l-201 201l178 178l201 -201l201 201l178 -178l-201 -201l201 -201z" />
    <glyph glyph-name="a.subs" 
d="M92 0v1536h1522v-1536h-1522zM381 279h944v978h-944v-978zM1047 383l-201 201l-201 -201l-178 178l201 201l-201 201l178 178l201 -201l201 201l178 -178l-201 -201l201 -201z" />
    <glyph glyph-name="b.subs" 
d="M92 0v1536h1522v-1536h-1522zM381 279h944v978h-944v-978zM1047 383l-201 201l-201 -201l-178 178l201 201l-201 201l178 178l201 -201l201 201l178 -178l-201 -201l201 -201z" />
    <glyph glyph-name="c.subs" 
d="M92 0v1536h1522v-1536h-1522zM381 279h944v978h-944v-978zM1047 383l-201 201l-201 -201l-178 178l201 201l-201 201l178 178l201 -201l201 201l178 -178l-201 -201l201 -201z" />
    <glyph glyph-name="d.subs" 
d="M92 0v1536h1522v-1536h-1522zM381 279h944v978h-944v-978zM1047 383l-201 201l-201 -201l-178 178l201 201l-201 201l178 178l201 -201l201 201l178 -178l-201 -201l201 -201z" />
    <glyph glyph-name="e.subs" 
d="M92 0v1536h1522v-1536h-1522zM381 279h944v978h-944v-978zM1047 383l-201 201l-201 -201l-178 178l201 201l-201 201l178 178l201 -201l201 201l178 -178l-201 -201l201 -201z" />
    <glyph glyph-name="f.subs" 
d="M92 0v1536h1522v-1536h-1522zM381 279h944v978h-944v-978zM1047 383l-201 201l-201 -201l-178 178l201 201l-201 201l178 178l201 -201l201 201l178 -178l-201 -201l201 -201z" />
    <glyph glyph-name="g.subs" 
d="M92 0v1536h1522v-1536h-1522zM381 279h944v978h-944v-978zM1047 383l-201 201l-201 -201l-178 178l201 201l-201 201l178 178l201 -201l201 201l178 -178l-201 -201l201 -201z" />
    <glyph glyph-name="h.subs" 
d="M92 0v1536h1522v-1536h-1522zM381 279h944v978h-944v-978zM1047 383l-201 201l-201 -201l-178 178l201 201l-201 201l178 178l201 -201l201 201l178 -178l-201 -201l201 -201z" />
    <glyph glyph-name="i.subs" 
d="M92 0v1536h1522v-1536h-1522zM381 279h944v978h-944v-978zM1047 383l-201 201l-201 -201l-178 178l201 201l-201 201l178 178l201 -201l201 201l178 -178l-201 -201l201 -201z" />
    <glyph glyph-name="j.subs" 
d="M92 0v1536h1522v-1536h-1522zM381 279h944v978h-944v-978zM1047 383l-201 201l-201 -201l-178 178l201 201l-201 201l178 178l201 -201l201 201l178 -178l-201 -201l201 -201z" />
    <glyph glyph-name="k.subs" 
d="M92 0v1536h1522v-1536h-1522zM381 279h944v978h-944v-978zM1047 383l-201 201l-201 -201l-178 178l201 201l-201 201l178 178l201 -201l201 201l178 -178l-201 -201l201 -201z" />
    <glyph glyph-name="l.subs" 
d="M92 0v1536h1522v-1536h-1522zM381 279h944v978h-944v-978zM1047 383l-201 201l-201 -201l-178 178l201 201l-201 201l178 178l201 -201l201 201l178 -178l-201 -201l201 -201z" />
    <glyph glyph-name="m.subs" 
d="M92 0v1536h1522v-1536h-1522zM381 279h944v978h-944v-978zM1047 383l-201 201l-201 -201l-178 178l201 201l-201 201l178 178l201 -201l201 201l178 -178l-201 -201l201 -201z" />
    <glyph glyph-name="n.subs" 
d="M92 0v1536h1522v-1536h-1522zM381 279h944v978h-944v-978zM1047 383l-201 201l-201 -201l-178 178l201 201l-201 201l178 178l201 -201l201 201l178 -178l-201 -201l201 -201z" />
    <glyph glyph-name="o.subs" 
d="M92 0v1536h1522v-1536h-1522zM381 279h944v978h-944v-978zM1047 383l-201 201l-201 -201l-178 178l201 201l-201 201l178 178l201 -201l201 201l178 -178l-201 -201l201 -201z" />
    <glyph glyph-name="p.subs" 
d="M92 0v1536h1522v-1536h-1522zM381 279h944v978h-944v-978zM1047 383l-201 201l-201 -201l-178 178l201 201l-201 201l178 178l201 -201l201 201l178 -178l-201 -201l201 -201z" />
    <glyph glyph-name="q.subs" 
d="M92 0v1536h1522v-1536h-1522zM381 279h944v978h-944v-978zM1047 383l-201 201l-201 -201l-178 178l201 201l-201 201l178 178l201 -201l201 201l178 -178l-201 -201l201 -201z" />
    <glyph glyph-name="r.subs" 
d="M92 0v1536h1522v-1536h-1522zM381 279h944v978h-944v-978zM1047 383l-201 201l-201 -201l-178 178l201 201l-201 201l178 178l201 -201l201 201l178 -178l-201 -201l201 -201z" />
    <glyph glyph-name="s.subs" 
d="M92 0v1536h1522v-1536h-1522zM381 279h944v978h-944v-978zM1047 383l-201 201l-201 -201l-178 178l201 201l-201 201l178 178l201 -201l201 201l178 -178l-201 -201l201 -201z" />
    <glyph glyph-name="t.subs" 
d="M92 0v1536h1522v-1536h-1522zM381 279h944v978h-944v-978zM1047 383l-201 201l-201 -201l-178 178l201 201l-201 201l178 178l201 -201l201 201l178 -178l-201 -201l201 -201z" />
    <glyph glyph-name="u.subs" 
d="M92 0v1536h1522v-1536h-1522zM381 279h944v978h-944v-978zM1047 383l-201 201l-201 -201l-178 178l201 201l-201 201l178 178l201 -201l201 201l178 -178l-201 -201l201 -201z" />
    <glyph glyph-name="v.subs" 
d="M92 0v1536h1522v-1536h-1522zM381 279h944v978h-944v-978zM1047 383l-201 201l-201 -201l-178 178l201 201l-201 201l178 178l201 -201l201 201l178 -178l-201 -201l201 -201z" />
    <glyph glyph-name="w.subs" 
d="M92 0v1536h1522v-1536h-1522zM381 279h944v978h-944v-978zM1047 383l-201 201l-201 -201l-178 178l201 201l-201 201l178 178l201 -201l201 201l178 -178l-201 -201l201 -201z" />
    <glyph glyph-name="x.subs" 
d="M92 0v1536h1522v-1536h-1522zM381 279h944v978h-944v-978zM1047 383l-201 201l-201 -201l-178 178l201 201l-201 201l178 178l201 -201l201 201l178 -178l-201 -201l201 -201z" />
    <glyph glyph-name="y.subs" 
d="M92 0v1536h1522v-1536h-1522zM381 279h944v978h-944v-978zM1047 383l-201 201l-201 -201l-178 178l201 201l-201 201l178 178l201 -201l201 201l178 -178l-201 -201l201 -201z" />
    <glyph glyph-name="z.subs" 
d="M92 0v1536h1522v-1536h-1522zM381 279h944v978h-944v-978zM1047 383l-201 201l-201 -201l-178 178l201 201l-201 201l178 178l201 -201l201 201l178 -178l-201 -201l201 -201z" />
    <glyph glyph-name="IJacute" 
d="M92 0v1536h1522v-1536h-1522zM381 279h944v978h-944v-978zM1047 383l-201 201l-201 -201l-178 178l201 201l-201 201l178 178l201 -201l201 201l178 -178l-201 -201l201 -201z" />
    <glyph glyph-name="ijacute" 
d="M92 0v1536h1522v-1536h-1522zM381 279h944v978h-944v-978zM1047 383l-201 201l-201 -201l-178 178l201 201l-201 201l178 178l201 -201l201 201l178 -178l-201 -201l201 -201z" />
    <glyph glyph-name="f_f" 
d="M92 0v1536h1522v-1536h-1522zM381 279h944v978h-944v-978zM1047 383l-201 201l-201 -201l-178 178l201 201l-201 201l178 178l201 -201l201 201l178 -178l-201 -201l201 -201z" />
    <glyph glyph-name="f_f_i" 
d="M92 0v1536h1522v-1536h-1522zM381 279h944v978h-944v-978zM1047 383l-201 201l-201 -201l-178 178l201 201l-201 201l178 178l201 -201l201 201l178 -178l-201 -201l201 -201z" />
    <glyph glyph-name="f_f_l" 
d="M92 0v1536h1522v-1536h-1522zM381 279h944v978h-944v-978zM1047 383l-201 201l-201 -201l-178 178l201 201l-201 201l178 178l201 -201l201 201l178 -178l-201 -201l201 -201z" />
    <glyph glyph-name="f_b" 
d="M92 0v1536h1522v-1536h-1522zM381 279h944v978h-944v-978zM1047 383l-201 201l-201 -201l-178 178l201 201l-201 201l178 178l201 -201l201 201l178 -178l-201 -201l201 -201z" />
    <glyph glyph-name="f_f_b" 
d="M92 0v1536h1522v-1536h-1522zM381 279h944v978h-944v-978zM1047 383l-201 201l-201 -201l-178 178l201 201l-201 201l178 178l201 -201l201 201l178 -178l-201 -201l201 -201z" />
    <glyph glyph-name="f_h" 
d="M92 0v1536h1522v-1536h-1522zM381 279h944v978h-944v-978zM1047 383l-201 201l-201 -201l-178 178l201 201l-201 201l178 178l201 -201l201 201l178 -178l-201 -201l201 -201z" />
    <glyph glyph-name="f_f_h" 
d="M92 0v1536h1522v-1536h-1522zM381 279h944v978h-944v-978zM1047 383l-201 201l-201 -201l-178 178l201 201l-201 201l178 178l201 -201l201 201l178 -178l-201 -201l201 -201z" />
    <glyph glyph-name="f_k" 
d="M92 0v1536h1522v-1536h-1522zM381 279h944v978h-944v-978zM1047 383l-201 201l-201 -201l-178 178l201 201l-201 201l178 178l201 -201l201 201l178 -178l-201 -201l201 -201z" />
    <glyph glyph-name="f_f_k" 
d="M92 0v1536h1522v-1536h-1522zM381 279h944v978h-944v-978zM1047 383l-201 201l-201 -201l-178 178l201 201l-201 201l178 178l201 -201l201 201l178 -178l-201 -201l201 -201z" />
    <glyph glyph-name="f_j" 
d="M92 0v1536h1522v-1536h-1522zM381 279h944v978h-944v-978zM1047 383l-201 201l-201 -201l-178 178l201 201l-201 201l178 178l201 -201l201 201l178 -178l-201 -201l201 -201z" />
    <glyph glyph-name="f_f_j" 
d="M92 0v1536h1522v-1536h-1522zM381 279h944v978h-944v-978zM1047 383l-201 201l-201 -201l-178 178l201 201l-201 201l178 178l201 -201l201 201l178 -178l-201 -201l201 -201z" />
    <glyph glyph-name="f_idieresis" 
d="M92 0v1536h1522v-1536h-1522zM381 279h944v978h-944v-978zM1047 383l-201 201l-201 -201l-178 178l201 201l-201 201l178 178l201 -201l201 201l178 -178l-201 -201l201 -201z" />
    <glyph glyph-name="revcommaaccentcomb" 
d="M92 0v1536h1522v-1536h-1522zM381 279h944v978h-944v-978zM1047 383l-201 201l-201 -201l-178 178l201 201l-201 201l178 178l201 -201l201 201l178 -178l-201 -201l201 -201z" />
    <glyph glyph-name="gravecomb.case" 
d="M92 0v1536h1522v-1536h-1522zM381 279h944v978h-944v-978zM1047 383l-201 201l-201 -201l-178 178l201 201l-201 201l178 178l201 -201l201 201l178 -178l-201 -201l201 -201z" />
    <glyph glyph-name="acutecomb.case" 
d="M92 0v1536h1522v-1536h-1522zM381 279h944v978h-944v-978zM1047 383l-201 201l-201 -201l-178 178l201 201l-201 201l178 178l201 -201l201 201l178 -178l-201 -201l201 -201z" />
    <glyph glyph-name="dieresiscomb.case" 
d="M92 0v1536h1522v-1536h-1522zM381 279h944v978h-944v-978zM1047 383l-201 201l-201 -201l-178 178l201 201l-201 201l178 178l201 -201l201 201l178 -178l-201 -201l201 -201z" />
    <glyph glyph-name="circumflexcomb.case" 
d="M92 0v1536h1522v-1536h-1522zM381 279h944v978h-944v-978zM1047 383l-201 201l-201 -201l-178 178l201 201l-201 201l178 178l201 -201l201 201l178 -178l-201 -201l201 -201z" />
    <glyph glyph-name="tildecomb.case" 
d="M92 0v1536h1522v-1536h-1522zM381 279h944v978h-944v-978zM1047 383l-201 201l-201 -201l-178 178l201 201l-201 201l178 178l201 -201l201 201l178 -178l-201 -201l201 -201z" />
    <glyph glyph-name="macroncomb.case" 
d="M92 0v1536h1522v-1536h-1522zM381 279h944v978h-944v-978zM1047 383l-201 201l-201 -201l-178 178l201 201l-201 201l178 178l201 -201l201 201l178 -178l-201 -201l201 -201z" />
    <glyph glyph-name="brevecomb.case" 
d="M92 0v1536h1522v-1536h-1522zM381 279h944v978h-944v-978zM1047 383l-201 201l-201 -201l-178 178l201 201l-201 201l178 178l201 -201l201 201l178 -178l-201 -201l201 -201z" />
    <glyph glyph-name="dotaccentcomb.case" 
d="M92 0v1536h1522v-1536h-1522zM381 279h944v978h-944v-978zM1047 383l-201 201l-201 -201l-178 178l201 201l-201 201l178 178l201 -201l201 201l178 -178l-201 -201l201 -201z" />
    <glyph glyph-name="revcommaaccentcomb.case" 
d="M92 0v1536h1522v-1536h-1522zM381 279h944v978h-944v-978zM1047 383l-201 201l-201 -201l-178 178l201 201l-201 201l178 178l201 -201l201 201l178 -178l-201 -201l201 -201z" />
    <glyph glyph-name="ringcomb.case" 
d="M92 0v1536h1522v-1536h-1522zM381 279h944v978h-944v-978zM1047 383l-201 201l-201 -201l-178 178l201 201l-201 201l178 178l201 -201l201 201l178 -178l-201 -201l201 -201z" />
    <glyph glyph-name="hungarumlautcomb.case" 
d="M92 0v1536h1522v-1536h-1522zM381 279h944v978h-944v-978zM1047 383l-201 201l-201 -201l-178 178l201 201l-201 201l178 178l201 -201l201 201l178 -178l-201 -201l201 -201z" />
    <glyph glyph-name="caroncomb.case" 
d="M92 0v1536h1522v-1536h-1522zM381 279h944v978h-944v-978zM1047 383l-201 201l-201 -201l-178 178l201 201l-201 201l178 178l201 -201l201 201l178 -178l-201 -201l201 -201z" />
    <glyph glyph-name="exclamdown.case" 
d="M92 0v1536h1522v-1536h-1522zM381 279h944v978h-944v-978zM1047 383l-201 201l-201 -201l-178 178l201 201l-201 201l178 178l201 -201l201 201l178 -178l-201 -201l201 -201z" />
    <glyph glyph-name="questiondown.case" 
d="M92 0v1536h1522v-1536h-1522zM381 279h944v978h-944v-978zM1047 383l-201 201l-201 -201l-178 178l201 201l-201 201l178 178l201 -201l201 201l178 -178l-201 -201l201 -201z" />
    <glyph glyph-name="braceleft.case" 
d="M92 0v1536h1522v-1536h-1522zM381 279h944v978h-944v-978zM1047 383l-201 201l-201 -201l-178 178l201 201l-201 201l178 178l201 -201l201 201l178 -178l-201 -201l201 -201z" />
    <glyph glyph-name="braceright.case" 
d="M92 0v1536h1522v-1536h-1522zM381 279h944v978h-944v-978zM1047 383l-201 201l-201 -201l-178 178l201 201l-201 201l178 178l201 -201l201 201l178 -178l-201 -201l201 -201z" />
    <glyph glyph-name="bracketleft.case" 
d="M92 0v1536h1522v-1536h-1522zM381 279h944v978h-944v-978zM1047 383l-201 201l-201 -201l-178 178l201 201l-201 201l178 178l201 -201l201 201l178 -178l-201 -201l201 -201z" />
    <glyph glyph-name="bracketright.case" 
d="M92 0v1536h1522v-1536h-1522zM381 279h944v978h-944v-978zM1047 383l-201 201l-201 -201l-178 178l201 201l-201 201l178 178l201 -201l201 201l178 -178l-201 -201l201 -201z" />
    <glyph glyph-name="hyphen.case" 
d="M92 0v1536h1522v-1536h-1522zM381 279h944v978h-944v-978zM1047 383l-201 201l-201 -201l-178 178l201 201l-201 201l178 178l201 -201l201 201l178 -178l-201 -201l201 -201z" />
    <glyph glyph-name="endash.case" 
d="M92 0v1536h1522v-1536h-1522zM381 279h944v978h-944v-978zM1047 383l-201 201l-201 -201l-178 178l201 201l-201 201l178 178l201 -201l201 201l178 -178l-201 -201l201 -201z" />
    <glyph glyph-name="emdash.case" 
d="M92 0v1536h1522v-1536h-1522zM381 279h944v978h-944v-978zM1047 383l-201 201l-201 -201l-178 178l201 201l-201 201l178 178l201 -201l201 201l178 -178l-201 -201l201 -201z" />
    <glyph glyph-name="guillemotleft.case" 
d="M92 0v1536h1522v-1536h-1522zM381 279h944v978h-944v-978zM1047 383l-201 201l-201 -201l-178 178l201 201l-201 201l178 178l201 -201l201 201l178 -178l-201 -201l201 -201z" />
    <glyph glyph-name="guillemotright.case" 
d="M92 0v1536h1522v-1536h-1522zM381 279h944v978h-944v-978zM1047 383l-201 201l-201 -201l-178 178l201 201l-201 201l178 178l201 -201l201 201l178 -178l-201 -201l201 -201z" />
    <glyph glyph-name="guilsinglleft.case" 
d="M92 0v1536h1522v-1536h-1522zM381 279h944v978h-944v-978zM1047 383l-201 201l-201 -201l-178 178l201 201l-201 201l178 178l201 -201l201 201l178 -178l-201 -201l201 -201z" />
    <glyph glyph-name="guilsinglright.case" 
d="M92 0v1536h1522v-1536h-1522zM381 279h944v978h-944v-978zM1047 383l-201 201l-201 -201l-178 178l201 201l-201 201l178 178l201 -201l201 201l178 -178l-201 -201l201 -201z" />
    <glyph glyph-name="arrowleft.case" 
d="M92 0v1536h1522v-1536h-1522zM381 279h944v978h-944v-978zM1047 383l-201 201l-201 -201l-178 178l201 201l-201 201l178 178l201 -201l201 201l178 -178l-201 -201l201 -201z" />
    <glyph glyph-name="arrowright.case" 
d="M92 0v1536h1522v-1536h-1522zM381 279h944v978h-944v-978zM1047 383l-201 201l-201 -201l-178 178l201 201l-201 201l178 178l201 -201l201 201l178 -178l-201 -201l201 -201z" />
    <glyph glyph-name="arrowup.case" 
d="M92 0v1536h1522v-1536h-1522zM381 279h944v978h-944v-978zM1047 383l-201 201l-201 -201l-178 178l201 201l-201 201l178 178l201 -201l201 201l178 -178l-201 -201l201 -201z" />
    <glyph glyph-name="arrowdown.case" 
d="M92 0v1536h1522v-1536h-1522zM381 279h944v978h-944v-978zM1047 383l-201 201l-201 -201l-178 178l201 201l-201 201l178 178l201 -201l201 201l178 -178l-201 -201l201 -201z" />
    <glyph glyph-name="arrowboth.case" 
d="M92 0v1536h1522v-1536h-1522zM381 279h944v978h-944v-978zM1047 383l-201 201l-201 -201l-178 178l201 201l-201 201l178 178l201 -201l201 201l178 -178l-201 -201l201 -201z" />
    <glyph glyph-name="arrowupdn.case" 
d="M92 0v1536h1522v-1536h-1522zM381 279h944v978h-944v-978zM1047 383l-201 201l-201 -201l-178 178l201 201l-201 201l178 178l201 -201l201 201l178 -178l-201 -201l201 -201z" />
    <glyph glyph-name="uni2196.case" 
d="M92 0v1536h1522v-1536h-1522zM381 279h944v978h-944v-978zM1047 383l-201 201l-201 -201l-178 178l201 201l-201 201l178 178l201 -201l201 201l178 -178l-201 -201l201 -201z" />
    <glyph glyph-name="uni2197.case" 
d="M92 0v1536h1522v-1536h-1522zM381 279h944v978h-944v-978zM1047 383l-201 201l-201 -201l-178 178l201 201l-201 201l178 178l201 -201l201 201l178 -178l-201 -201l201 -201z" />
    <glyph glyph-name="uni2198.case" 
d="M92 0v1536h1522v-1536h-1522zM381 279h944v978h-944v-978zM1047 383l-201 201l-201 -201l-178 178l201 201l-201 201l178 178l201 -201l201 201l178 -178l-201 -201l201 -201z" />
    <glyph glyph-name="uni2199.case" 
d="M92 0v1536h1522v-1536h-1522zM381 279h944v978h-944v-978zM1047 383l-201 201l-201 -201l-178 178l201 201l-201 201l178 178l201 -201l201 201l178 -178l-201 -201l201 -201z" />
    <glyph glyph-name="at.case" 
d="M92 0v1536h1522v-1536h-1522zM381 279h944v978h-944v-978zM1047 383l-201 201l-201 -201l-178 178l201 201l-201 201l178 178l201 -201l201 201l178 -178l-201 -201l201 -201z" />
    <glyph glyph-name="colon.case" 
d="M92 0v1536h1522v-1536h-1522zM381 279h944v978h-944v-978zM1047 383l-201 201l-201 -201l-178 178l201 201l-201 201l178 178l201 -201l201 201l178 -178l-201 -201l201 -201z" />
    <glyph glyph-name="periodcentered.case" 
d="M92 0v1536h1522v-1536h-1522zM381 279h944v978h-944v-978zM1047 383l-201 201l-201 -201l-178 178l201 201l-201 201l178 178l201 -201l201 201l178 -178l-201 -201l201 -201z" />
    <glyph glyph-name="mediumblackcircle" 
d="M92 0v1536h1522v-1536h-1522zM381 279h944v978h-944v-978zM1047 383l-201 201l-201 -201l-178 178l201 201l-201 201l178 178l201 -201l201 201l178 -178l-201 -201l201 -201z" />
    <glyph glyph-name="squaremultiply" 
d="M92 0v1536h1522v-1536h-1522zM381 279h944v978h-944v-978zM1047 383l-201 201l-201 -201l-178 178l201 201l-201 201l178 178l201 -201l201 201l178 -178l-201 -201l201 -201z" />
    <glyph glyph-name="ballotboxwithx" 
d="M92 0v1536h1522v-1536h-1522zM381 279h944v978h-944v-978zM1047 383l-201 201l-201 -201l-178 178l201 201l-201 201l178 178l201 -201l201 201l178 -178l-201 -201l201 -201z" />
    <glyph glyph-name="oneCircled" 
d="M92 0v1536h1522v-1536h-1522zM381 279h944v978h-944v-978zM1047 383l-201 201l-201 -201l-178 178l201 201l-201 201l178 178l201 -201l201 201l178 -178l-201 -201l201 -201z" />
    <glyph glyph-name="twoCircled" 
d="M92 0v1536h1522v-1536h-1522zM381 279h944v978h-944v-978zM1047 383l-201 201l-201 -201l-178 178l201 201l-201 201l178 178l201 -201l201 201l178 -178l-201 -201l201 -201z" />
    <glyph glyph-name="threeCircled" 
d="M92 0v1536h1522v-1536h-1522zM381 279h944v978h-944v-978zM1047 383l-201 201l-201 -201l-178 178l201 201l-201 201l178 178l201 -201l201 201l178 -178l-201 -201l201 -201z" />
    <glyph glyph-name="fourCircled" 
d="M92 0v1536h1522v-1536h-1522zM381 279h944v978h-944v-978zM1047 383l-201 201l-201 -201l-178 178l201 201l-201 201l178 178l201 -201l201 201l178 -178l-201 -201l201 -201z" />
    <glyph glyph-name="fiveCircled" 
d="M92 0v1536h1522v-1536h-1522zM381 279h944v978h-944v-978zM1047 383l-201 201l-201 -201l-178 178l201 201l-201 201l178 178l201 -201l201 201l178 -178l-201 -201l201 -201z" />
    <glyph glyph-name="sixCircled" 
d="M92 0v1536h1522v-1536h-1522zM381 279h944v978h-944v-978zM1047 383l-201 201l-201 -201l-178 178l201 201l-201 201l178 178l201 -201l201 201l178 -178l-201 -201l201 -201z" />
    <glyph glyph-name="sevenCircled" 
d="M92 0v1536h1522v-1536h-1522zM381 279h944v978h-944v-978zM1047 383l-201 201l-201 -201l-178 178l201 201l-201 201l178 178l201 -201l201 201l178 -178l-201 -201l201 -201z" />
    <glyph glyph-name="eightCircled" 
d="M92 0v1536h1522v-1536h-1522zM381 279h944v978h-944v-978zM1047 383l-201 201l-201 -201l-178 178l201 201l-201 201l178 178l201 -201l201 201l178 -178l-201 -201l201 -201z" />
    <glyph glyph-name="nineCircled" 
d="M92 0v1536h1522v-1536h-1522zM381 279h944v978h-944v-978zM1047 383l-201 201l-201 -201l-178 178l201 201l-201 201l178 178l201 -201l201 201l178 -178l-201 -201l201 -201z" />
    <glyph glyph-name="zeroCircled" 
d="M92 0v1536h1522v-1536h-1522zM381 279h944v978h-944v-978zM1047 383l-201 201l-201 -201l-178 178l201 201l-201 201l178 178l201 -201l201 201l178 -178l-201 -201l201 -201z" />
    <glyph glyph-name="idotaccent" 
d="M92 0v1536h1522v-1536h-1522zM381 279h944v978h-944v-978zM1047 383l-201 201l-201 -201l-178 178l201 201l-201 201l178 178l201 -201l201 201l178 -178l-201 -201l201 -201z" />
    </font>
</defs>
</svg>
