<?xml version="1.0" standalone="no"?>
<!DOCTYPE svg PUBLIC "-//W3C//DTD SVG 1.1//EN" "http://www.w3.org/Graphics/SVG/1.1/DTD/svg11.dtd" >
<svg xmlns="http://www.w3.org/2000/svg" xmlns:xlink="http://www.w3.org/1999/xlink" version="1.1">
<metadata>
Created by FontForge 20170731 at Fri Mar 31 19:44:50 2023
 By Aleksey,,,
Copyright Daniel Sabino | Blackletra Type Foundry
</metadata>
<defs>
<font id="NokaTrial-Light" horiz-adv-x="1775" >
  <font-face 
    font-family="Noka Trial Light"
    font-weight="300"
    font-stretch="normal"
    units-per-em="2048"
    panose-1="0 0 0 0 0 0 0 0 0 0"
    ascent="1638"
    descent="-410"
    x-height="1032"
    cap-height="1536"
    bbox="-29 -410 1978 1563"
    underline-thickness="0"
    underline-position="0"
    unicode-range="U+0020-FB02"
  />
<missing-glyph 
d="M127 0v1536h1522v-1536h-1522zM209 78h1358v1382h-1358v-1382zM1112 473l-229 232l-234 -234l-47 51l232 232l-232 231l47 49l234 -231l229 229l51 -47l-231 -231l231 -232z" />
    <glyph glyph-name=".notdef" 
d="M127 0v1536h1522v-1536h-1522zM209 78h1358v1382h-1358v-1382zM1112 473l-229 232l-234 -234l-47 51l232 232l-232 231l47 49l234 -231l229 229l51 -47l-231 -231l231 -232z" />
    <glyph glyph-name=".null" horiz-adv-x="0" 
 />
    <glyph glyph-name="nonmarkingreturn" horiz-adv-x="682" 
 />
    <glyph glyph-name="space" unicode=" " horiz-adv-x="450" 
 />
    <glyph glyph-name="exclam" unicode="!" 
d="M127 0v1536h1522v-1536h-1522zM209 78h1358v1382h-1358v-1382zM1112 473l-229 232l-234 -234l-47 51l232 232l-232 231l47 49l234 -231l229 229l51 -47l-231 -231l231 -232z" />
    <glyph glyph-name="quotedbl" unicode="&#x22;" 
d="M127 0v1536h1522v-1536h-1522zM209 78h1358v1382h-1358v-1382zM1112 473l-229 232l-234 -234l-47 51l232 232l-232 231l47 49l234 -231l229 229l51 -47l-231 -231l231 -232z" />
    <glyph glyph-name="numbersign" unicode="#" 
d="M127 0v1536h1522v-1536h-1522zM209 78h1358v1382h-1358v-1382zM1112 473l-229 232l-234 -234l-47 51l232 232l-232 231l47 49l234 -231l229 229l51 -47l-231 -231l231 -232z" />
    <glyph glyph-name="dollar" unicode="$" 
d="M127 0v1536h1522v-1536h-1522zM209 78h1358v1382h-1358v-1382zM1112 473l-229 232l-234 -234l-47 51l232 232l-232 231l47 49l234 -231l229 229l51 -47l-231 -231l231 -232z" />
    <glyph glyph-name="percent" unicode="%" 
d="M127 0v1536h1522v-1536h-1522zM209 78h1358v1382h-1358v-1382zM1112 473l-229 232l-234 -234l-47 51l232 232l-232 231l47 49l234 -231l229 229l51 -47l-231 -231l231 -232z" />
    <glyph glyph-name="ampersand" unicode="&#x26;" 
d="M127 0v1536h1522v-1536h-1522zM209 78h1358v1382h-1358v-1382zM1112 473l-229 232l-234 -234l-47 51l232 232l-232 231l47 49l234 -231l229 229l51 -47l-231 -231l231 -232z" />
    <glyph glyph-name="quotesingle" unicode="'" 
d="M127 0v1536h1522v-1536h-1522zM209 78h1358v1382h-1358v-1382zM1112 473l-229 232l-234 -234l-47 51l232 232l-232 231l47 49l234 -231l229 229l51 -47l-231 -231l231 -232z" />
    <glyph glyph-name="parenleft" unicode="(" 
d="M127 0v1536h1522v-1536h-1522zM209 78h1358v1382h-1358v-1382zM1112 473l-229 232l-234 -234l-47 51l232 232l-232 231l47 49l234 -231l229 229l51 -47l-231 -231l231 -232z" />
    <glyph glyph-name="parenright" unicode=")" 
d="M127 0v1536h1522v-1536h-1522zM209 78h1358v1382h-1358v-1382zM1112 473l-229 232l-234 -234l-47 51l232 232l-232 231l47 49l234 -231l229 229l51 -47l-231 -231l231 -232z" />
    <glyph glyph-name="asterisk" unicode="*" 
d="M127 0v1536h1522v-1536h-1522zM209 78h1358v1382h-1358v-1382zM1112 473l-229 232l-234 -234l-47 51l232 232l-232 231l47 49l234 -231l229 229l51 -47l-231 -231l231 -232z" />
    <glyph glyph-name="plus" unicode="+" 
d="M127 0v1536h1522v-1536h-1522zM209 78h1358v1382h-1358v-1382zM1112 473l-229 232l-234 -234l-47 51l232 232l-232 231l47 49l234 -231l229 229l51 -47l-231 -231l231 -232z" />
    <glyph glyph-name="comma" unicode="," horiz-adv-x="397" 
d="M102 -283h-69l166 533h92z" />
    <glyph glyph-name="hyphen" unicode="-" horiz-adv-x="933" 
d="M791 539h-648v69h648v-69z" />
    <glyph glyph-name="period" unicode="." horiz-adv-x="389" 
d="M236 0h-82v250h82v-250z" />
    <glyph glyph-name="slash" unicode="/" 
d="M127 0v1536h1522v-1536h-1522zM209 78h1358v1382h-1358v-1382zM1112 473l-229 232l-234 -234l-47 51l232 232l-232 231l47 49l234 -231l229 229l51 -47l-231 -231l231 -232z" />
    <glyph glyph-name="zero" unicode="0" horiz-adv-x="1249" 
d="M1135 485q0 -220 -144 -366t-368 -146q-220 0 -365 146.5t-145 365.5v559q0 144 65.5 262.5t182.5 187.5t262 69q224 0 368 -149t144 -370v-559zM195 485q0 -187 121 -308.5t307 -121.5q190 0 310 121t120 309v559q0 189 -120.5 313t-309.5 124q-184 0 -306 -125
t-122 -312v-559z" />
    <glyph glyph-name="one" unicode="1" horiz-adv-x="1249" 
d="M1040 78v-78h-831v78h385v1380h-373v78h455v-1458h364z" />
    <glyph glyph-name="two" unicode="2" horiz-adv-x="1249" 
d="M1063 78v-78h-877v86l602 690q87 98 128.5 184.5t41.5 180.5q0 145 -88 244.5t-252 99.5q-161 0 -255.5 -100.5t-94.5 -237.5v-27h-82v27q0 109 51 203t151.5 153.5t229.5 59.5q101 0 183.5 -35t134 -94t79 -133.5t27.5 -157.5q0 -112 -48.5 -211.5t-149.5 -212.5
l-557 -641h776z" />
    <glyph glyph-name="three" unicode="3" horiz-adv-x="1249" 
d="M1079 455q0 -93 -31.5 -173.5t-94 -144.5t-165 -100.5t-233.5 -36.5h-385v78h389q110 0 195.5 30.5t137.5 83.5t78.5 119.5t26.5 143.5q0 76 -24.5 140.5t-75 117t-137 82.5t-201.5 30h-201l496 633h-670v78h828l-502 -635h53q131 0 232 -35.5t162 -98t91.5 -141.5
t30.5 -171z" />
    <glyph glyph-name="four" unicode="4" horiz-adv-x="1249" 
d="M1044 1536v-1536h-79v739h-762v797h80v-717h682v717h79z" />
    <glyph glyph-name="five" unicode="5" horiz-adv-x="1249" 
d="M553 0h-383v78h389q111 0 196.5 31t137.5 84t78 119.5t26 142.5t-24 140t-73.5 117t-137 83t-203.5 30h-389v711h782v-78h-700v-555h307q131 0 232.5 -36t163 -98.5t93 -142t31.5 -171.5q0 -93 -31.5 -173.5t-94 -144.5t-165 -100.5t-235.5 -36.5z" />
    <glyph glyph-name="six" unicode="6" horiz-adv-x="1249" 
d="M1112 440q0 -199 -139 -333t-350 -134q-207 0 -347.5 134.5t-140.5 332.5q0 128 78 254l516 842h96l-428 -696q98 65 226 65q210 0 349.5 -135t139.5 -330zM219 442q0 -166 117 -278.5t287 -112.5q173 0 289 112t116 279q0 164 -115.5 275.5t-289.5 111.5
q-169 0 -286.5 -112.5t-117.5 -274.5z" />
    <glyph glyph-name="seven" unicode="7" horiz-adv-x="1249" 
d="M1077 1536l-616 -1536h-88l590 1458h-775v78h889z" />
    <glyph glyph-name="eight" unicode="8" horiz-adv-x="1249" 
d="M1116 442q0 -131 -63 -238t-176 -169t-254 -62q-210 0 -351 135t-141 334q0 151 90 271t236 168q-101 40 -162.5 127t-61.5 194q0 152 113.5 256.5t276.5 104.5q168 0 279.5 -104t111.5 -257q0 -108 -60.5 -194.5t-162.5 -128.5q148 -46 236.5 -165.5t88.5 -271.5z
M317 1198q0 -123 88.5 -205t217.5 -82q133 0 220 82t87 205t-87 205t-220 82q-129 0 -217.5 -83t-88.5 -204zM215 444q0 -167 117.5 -280t290.5 -113q177 0 294 112.5t117 280.5q0 166 -117 280t-294 114q-172 0 -290 -115t-118 -279z" />
    <glyph glyph-name="nine" unicode="9" horiz-adv-x="1249" 
d="M1034 842l-516 -842h-94l430 700q-100 -69 -229 -69q-210 0 -350 135t-140 330q0 199 139.5 333t350.5 134q207 0 347 -134.5t140 -332.5q0 -128 -78 -254zM219 1094q0 -164 116 -275.5t290 -111.5q169 0 286 112t117 275q0 166 -116.5 278.5t-286.5 112.5
q-173 0 -289.5 -112t-116.5 -279z" />
    <glyph glyph-name="colon" unicode=":" 
d="M127 0v1536h1522v-1536h-1522zM209 78h1358v1382h-1358v-1382zM1112 473l-229 232l-234 -234l-47 51l232 232l-232 231l47 49l234 -231l229 229l51 -47l-231 -231l231 -232z" />
    <glyph glyph-name="semicolon" unicode=";" 
d="M127 0v1536h1522v-1536h-1522zM209 78h1358v1382h-1358v-1382zM1112 473l-229 232l-234 -234l-47 51l232 232l-232 231l47 49l234 -231l229 229l51 -47l-231 -231l231 -232z" />
    <glyph glyph-name="less" unicode="&#x3c;" 
d="M127 0v1536h1522v-1536h-1522zM209 78h1358v1382h-1358v-1382zM1112 473l-229 232l-234 -234l-47 51l232 232l-232 231l47 49l234 -231l229 229l51 -47l-231 -231l231 -232z" />
    <glyph glyph-name="equal" unicode="=" 
d="M127 0v1536h1522v-1536h-1522zM209 78h1358v1382h-1358v-1382zM1112 473l-229 232l-234 -234l-47 51l232 232l-232 231l47 49l234 -231l229 229l51 -47l-231 -231l231 -232z" />
    <glyph glyph-name="greater" unicode="&#x3e;" 
d="M127 0v1536h1522v-1536h-1522zM209 78h1358v1382h-1358v-1382zM1112 473l-229 232l-234 -234l-47 51l232 232l-232 231l47 49l234 -231l229 229l51 -47l-231 -231l231 -232z" />
    <glyph glyph-name="question" unicode="?" 
d="M127 0v1536h1522v-1536h-1522zM209 78h1358v1382h-1358v-1382zM1112 473l-229 232l-234 -234l-47 51l232 232l-232 231l47 49l234 -231l229 229l51 -47l-231 -231l231 -232z" />
    <glyph glyph-name="at" unicode="@" 
d="M127 0v1536h1522v-1536h-1522zM209 78h1358v1382h-1358v-1382zM1112 473l-229 232l-234 -234l-47 51l232 232l-232 231l47 49l234 -231l229 229l51 -47l-231 -231l231 -232z" />
    <glyph glyph-name="A" unicode="A" horiz-adv-x="1292" 
d="M1130 0l-159 555h-647l-160 -555h-86l442 1536h254l440 -1536h-84zM584 1460l-238 -829h602l-239 829h-125z" />
    <glyph glyph-name="B" unicode="B" horiz-adv-x="1347" 
d="M1278 455q0 -94 -31.5 -174.5t-94 -144t-164.5 -100t-234 -36.5h-555v1536h518q108 0 190.5 -28t131.5 -76.5t73.5 -109.5t24.5 -132q0 -108 -55.5 -193t-163.5 -125q91 -18 161 -58t113 -95.5t64.5 -122t21.5 -141.5zM717 1460h-438v-567h440q168 0 253 84.5t85 204.5
q0 121 -82 199.5t-258 78.5zM758 821h-479v-745h479q111 0 197 31t137.5 84t77.5 119t26 141q0 60 -14 113t-47 100.5t-82.5 82t-125 54.5t-169.5 20z" />
    <glyph glyph-name="C" unicode="C" horiz-adv-x="1732" 
d="M1651 528q-80 -251 -284 -403t-472 -152q-168 0 -317 62t-255 168t-167.5 253t-61.5 312q0 164 61.5 311t167.5 253.5t255 168.5t317 62q263 0 467.5 -147.5t286.5 -391.5h-86q-78 208 -257.5 334.5t-410.5 126.5q-151 0 -285 -55.5t-229 -150.5t-150 -228t-55 -283
q0 -120 35 -230.5t100.5 -198.5t153 -153.5t198.5 -101t232 -35.5q238 0 418.5 131.5t255.5 347.5h82z" />
    <glyph glyph-name="D" unicode="D" horiz-adv-x="1509" 
d="M625 0h-426v1536h424q189 0 339 -55.5t248.5 -157t150.5 -242.5t52 -313t-52 -313.5t-151 -242.5t-248 -156.5t-337 -55.5zM621 1460h-342v-1384h344q146 0 264 34.5t200.5 96.5t138 149t81.5 190t26 222q0 148 -42 271.5t-126.5 219t-223 148.5t-320.5 53z" />
    <glyph glyph-name="E" unicode="E" horiz-adv-x="1202" 
d="M1108 76v-76h-909v1536h878v-76h-798v-592h755v-75h-755v-717h829z" />
    <glyph glyph-name="F" unicode="F" horiz-adv-x="940" 
d="M811 791h-535v-791h-77v1536h657v-76h-580v-594h535v-75z" />
    <glyph glyph-name="G" unicode="G" horiz-adv-x="1748" 
d="M1661 743q0 -214 -99 -390.5t-274.5 -278t-390.5 -101.5q-168 0 -317 62t-255.5 168t-168.5 253t-62 312q0 219 103.5 401.5t285 288t402.5 105.5q261 0 463 -147t286 -392h-84q-78 208 -256.5 334.5t-408.5 126.5q-198 0 -361 -94t-255.5 -258.5t-92.5 -364.5
q0 -150 55.5 -283.5t151 -229t229.5 -151t285 -55.5q140 0 264 49.5t214 136t144.5 207.5t61.5 260h-612v76h692v-35z" />
    <glyph glyph-name="H" unicode="H" horiz-adv-x="1447" 
d="M1169 0v791h-890v-791h-80v1536h80v-670h890v670h80v-1536h-80z" />
    <glyph glyph-name="I" unicode="I" horiz-adv-x="495" 
d="M287 0h-78v1536h78v-1536z" />
    <glyph glyph-name="J" unicode="J" horiz-adv-x="833" 
d="M283 0h-207v76h207q297 0 297 311v1149h79v-1153q0 -188 -96 -285.5t-280 -97.5z" />
    <glyph glyph-name="K" unicode="K" horiz-adv-x="1212" 
d="M1071 0l-577 791h-215v-791h-80v1536h80v-670h206l562 670h102l-588 -700l613 -836h-103z" />
    <glyph glyph-name="L" unicode="L" horiz-adv-x="872" 
d="M797 76v-76h-598v1536h80v-1460h518z" />
    <glyph glyph-name="M" unicode="M" horiz-adv-x="1789" 
d="M279 0h-80v1536h256l397 -1016h88l397 1016h254v-1536h-80v1460h-114l-398 -1016h-206l-398 1016h-116v-1460z" />
    <glyph glyph-name="N" unicode="N" horiz-adv-x="1540" 
d="M279 0h-80v1536h256l684 -1460h123v1460h79v-1536h-254l-681 1460h-127v-1460z" />
    <glyph glyph-name="O" unicode="O" horiz-adv-x="1792" 
d="M1698 768q0 -165 -61.5 -312t-167.5 -253t-255.5 -168t-318.5 -62q-168 0 -317 62t-255 168t-167.5 253t-61.5 312q0 164 61.5 311t167.5 253.5t255 168.5t317 62q169 0 318.5 -62t255.5 -168.5t167.5 -253.5t61.5 -311zM176 768q0 -200 94 -365t259 -259.5t366 -94.5
q151 0 285 55.5t229.5 151t151 229t55.5 283.5t-55.5 283t-151 228t-229.5 150.5t-285 55.5q-201 0 -366 -94t-259 -258.5t-94 -364.5z" />
    <glyph glyph-name="P" unicode="P" horiz-adv-x="1228" 
d="M666 639h-398v-639h-78v1536h474q125 0 224.5 -33.5t163 -93.5t97 -140.5t33.5 -176.5q0 -201 -134 -327t-382 -126zM668 1460h-400v-745h398q218 0 326 105t108 272q0 77 -25 142t-76 116.5t-135.5 80.5t-195.5 29z" />
    <glyph glyph-name="Q" unicode="Q" horiz-adv-x="1792" 
d="M1698 768q0 -213 -98.5 -391.5t-273 -286t-390.5 -117.5v-272h-80v272q-215 10 -389.5 117t-273.5 285.5t-99 392.5q0 164 61.5 311t167.5 253.5t255 168.5t317 62q169 0 318.5 -62t255.5 -168.5t167.5 -253.5t61.5 -311zM176 768q0 -194 88.5 -355t244 -257.5
t347.5 -106.5v518h80v-516q192 9 347.5 105.5t244 257.5t88.5 354q0 150 -55.5 283t-151 228t-229.5 150.5t-285 55.5q-201 0 -366 -94t-259 -258.5t-94 -364.5z" />
    <glyph glyph-name="R" unicode="R" horiz-adv-x="1265" 
d="M686 649h-407v-649h-80v1536h485q247 0 381.5 -122t134.5 -318q0 -156 -85.5 -269t-246.5 -155l303 -672h-86l-297 655q-50 -6 -102 -6zM686 1460h-407v-737h405q112 0 197 29.5t136 81.5t76 118t25 144q0 76 -25 140.5t-76 115t-135.5 79.5t-195.5 29z" />
    <glyph glyph-name="S" unicode="S" horiz-adv-x="1267" 
d="M674 0h-588v78h592q111 0 196.5 30.5t137.5 83.5t78 119.5t26 143.5q0 76 -24.5 140.5t-75 117t-137 82.5t-201.5 30h-182q-182 0 -292 100.5t-110 252.5q0 155 110.5 256.5t295.5 101.5h573v-78h-575q-154 0 -238 -79.5t-84 -200.5q0 -117 84.5 -196t237.5 -79h180
q132 0 234 -36t163.5 -98.5t93 -142t31.5 -171.5q0 -93 -31.5 -173.5t-94 -144.5t-165 -100.5t-235.5 -36.5z" />
    <glyph glyph-name="T" unicode="T" horiz-adv-x="940" 
d="M508 0h-78v1460h-407v76h895v-76h-410v-1460z" />
    <glyph glyph-name="U" unicode="U" horiz-adv-x="1413" 
d="M1237 551q0 -270 -141 -424t-389 -154t-390.5 154t-142.5 424v985h80v-991q0 -229 119.5 -362.5t333.5 -133.5q215 0 333.5 133.5t118.5 362.5v991h78v-985z" />
    <glyph glyph-name="V" unicode="V" horiz-adv-x="1320" 
d="M801 0h-281l-442 1536h84l424 -1460h149l422 1460h84z" />
    <glyph glyph-name="W" unicode="W" horiz-adv-x="2056" 
d="M1300 0l-270 815l-272 -815h-238l-442 1536h84l424 -1460h108l291 854v278h86v-278l293 -854h109l421 1460h84l-440 -1536h-238z" />
    <glyph glyph-name="X" unicode="X" horiz-adv-x="1179" 
d="M483 788l-356 -788h-88l373 825l-346 711h88l329 -672h215l328 672h88l-344 -711l371 -825h-88l-355 788h-215z" />
    <glyph glyph-name="Y" unicode="Y" horiz-adv-x="1193" 
d="M866 602h-229v-602h-80v602h-227l-269 934h86l248 -858h406l248 858h84z" />
    <glyph glyph-name="Z" unicode="Z" horiz-adv-x="1128" 
d="M1051 0h-961v190l848 1178v92h-809v76h889v-190l-848 -1176v-94h881v-76z" />
    <glyph glyph-name="bracketleft" unicode="[" 
d="M127 0v1536h1522v-1536h-1522zM209 78h1358v1382h-1358v-1382zM1112 473l-229 232l-234 -234l-47 51l232 232l-232 231l47 49l234 -231l229 229l51 -47l-231 -231l231 -232z" />
    <glyph glyph-name="backslash" unicode="\" 
d="M127 0v1536h1522v-1536h-1522zM209 78h1358v1382h-1358v-1382zM1112 473l-229 232l-234 -234l-47 51l232 232l-232 231l47 49l234 -231l229 229l51 -47l-231 -231l231 -232z" />
    <glyph glyph-name="bracketright" unicode="]" 
d="M127 0v1536h1522v-1536h-1522zM209 78h1358v1382h-1358v-1382zM1112 473l-229 232l-234 -234l-47 51l232 232l-232 231l47 49l234 -231l229 229l51 -47l-231 -231l231 -232z" />
    <glyph glyph-name="asciicircum" unicode="^" 
d="M127 0v1536h1522v-1536h-1522zM209 78h1358v1382h-1358v-1382zM1112 473l-229 232l-234 -234l-47 51l232 232l-232 231l47 49l234 -231l229 229l51 -47l-231 -231l231 -232z" />
    <glyph glyph-name="underscore" unicode="_" 
d="M127 0v1536h1522v-1536h-1522zM209 78h1358v1382h-1358v-1382zM1112 473l-229 232l-234 -234l-47 51l232 232l-232 231l47 49l234 -231l229 229l51 -47l-231 -231l231 -232z" />
    <glyph glyph-name="grave" unicode="`" 
d="M127 0v1536h1522v-1536h-1522zM209 78h1358v1382h-1358v-1382zM1112 473l-229 232l-234 -234l-47 51l232 232l-232 231l47 49l234 -231l229 229l51 -47l-231 -231l231 -232z" />
    <glyph glyph-name="a" unicode="a" horiz-adv-x="1212" 
d="M991 0v199q-66 -103 -168.5 -164.5t-228.5 -61.5q-136 0 -252 69.5t-185 195t-69 280.5q0 114 40.5 215.5t109.5 172.5t161.5 112t194.5 41q126 0 228.5 -62t168.5 -166v201h82v-1032h-82zM172 518q0 -203 124 -335t298 -132q133 0 239 74.5t158 189.5v406
q-52 114 -157.5 187t-239.5 73q-174 0 -298 -131.5t-124 -331.5z" />
    <glyph glyph-name="b" unicode="b" horiz-adv-x="1212" 
d="M1122 518q0 -155 -68.5 -280.5t-184 -195t-251.5 -69.5q-126 0 -228.5 61.5t-168.5 164.5v-199h-84v1536h84v-702q65 103 168.5 164t228.5 61q101 0 193.5 -41t161 -112t109 -172.5t40.5 -215.5zM618 981q-134 0 -239.5 -73t-157.5 -187v-406q52 -116 157.5 -190
t239.5 -74q112 0 208 58.5t154 166.5t58 242q0 100 -34 187t-91.5 147t-134 94.5t-160.5 34.5z" />
    <glyph glyph-name="c" unicode="c" horiz-adv-x="1196" 
d="M1118 295q-57 -146 -190 -234t-299 -88q-113 0 -213.5 42.5t-172.5 115.5t-113.5 173.5t-41.5 213.5q0 149 70.5 273t195 196t275.5 72q166 0 298.5 -87.5t190.5 -236.5h-88q-55 112 -161.5 179t-239.5 67q-194 0 -325.5 -133.5t-131.5 -329.5q0 -198 131 -332.5
t326 -134.5q133 0 240 67t159 177h90z" />
    <glyph glyph-name="d" unicode="d" horiz-adv-x="1212" 
d="M991 0v199q-66 -103 -168.5 -164.5t-228.5 -61.5q-136 0 -252 69.5t-185 195t-69 280.5q0 114 40.5 215.5t109.5 172.5t161.5 112t194.5 41q126 0 228.5 -62t168.5 -166v705h82v-1536h-82zM172 518q0 -203 124 -335t298 -132q133 0 239 74.5t158 189.5v406
q-52 114 -157.5 187t-239.5 73q-174 0 -298 -131.5t-124 -331.5z" />
    <glyph glyph-name="e" unicode="e" horiz-adv-x="1185" 
d="M1087 295q-56 -149 -186 -235.5t-289 -86.5q-224 0 -374 156t-150 391q0 149 69.5 273t190 195t264.5 71q213 0 352.5 -153.5t139.5 -385.5h-934q0 -204 126 -336.5t316 -132.5q126 0 233 65.5t159 178.5h83zM612 981q-169 0 -291 -108.5t-147 -278.5h840
q-17 171 -127 279t-275 108z" />
    <glyph glyph-name="f" unicode="f" horiz-adv-x="638" 
d="M51 -410h-80v74h84q89 0 144 49.5t55 153.5v1091h-227v74h227v232q0 132 76 202t209 70h79v-74h-83q-89 0 -144 -49t-55 -153v-228h282v-74h-282v-1095q0 -133 -76 -203t-209 -70z" />
    <glyph glyph-name="g" unicode="g" horiz-adv-x="1212" 
d="M1073 -137q0 -133 -76 -203t-209 -70h-520v74h527q88 0 142 49.5t54 153.5v332q-66 -104 -168.5 -165t-228.5 -61q-102 0 -194.5 41t-161.5 112t-109.5 172.5t-40.5 215.5q0 155 69 280.5t185 195t252 69.5q126 0 228.5 -61t168.5 -164v198h82v-1169zM172 514
q0 -200 124 -331.5t298 -131.5q134 0 239.5 73t157.5 187v406q-52 115 -158 189.5t-239 74.5q-174 0 -298 -132t-124 -335z" />
    <glyph glyph-name="h" unicode="h" horiz-adv-x="1150" 
d="M604 981q-123 0 -224.5 -67.5t-156.5 -168.5v-745h-82v1536h82v-690q63 96 166 154.5t219 58.5q193 0 305.5 -118t112.5 -318v-623h-82v618q0 166 -88.5 264.5t-251.5 98.5z" />
    <glyph glyph-name="i" unicode="i" horiz-adv-x="389" 
d="M236 1286h-82v250h82v-250zM236 0h-82v1032h82v-1032z" />
    <glyph glyph-name="j" unicode="j" horiz-adv-x="389" 
d="M236 1286h-82v250h82v-250zM236 -410h-82v1442h82v-1442z" />
    <glyph glyph-name="k" unicode="k" horiz-adv-x="985" 
d="M842 0l-371 510h-248v-510h-82v1536h82v-950h240l364 446h101l-389 -477l405 -555h-102z" />
    <glyph glyph-name="l" unicode="l" horiz-adv-x="389" 
d="M236 0h-82v1536h82v-1536z" />
    <glyph glyph-name="m" unicode="m" horiz-adv-x="1935" 
d="M606 981q-122 0 -225 -68.5t-158 -167.5v-745h-82v1032h82v-190q65 97 169.5 157t219.5 60q135 0 233 -62.5t142 -175.5q63 105 176 171.5t238 66.5q187 0 298 -115t111 -309v-635h-81v629q0 161 -87.5 256.5t-246.5 95.5q-122 0 -225.5 -66.5t-161.5 -164.5
q12 -56 12 -115v-635h-82v629q0 161 -87.5 256.5t-244.5 95.5z" />
    <glyph glyph-name="n" unicode="n" horiz-adv-x="1150" 
d="M610 981q-124 0 -228 -68.5t-159 -167.5v-745h-82v1032h82v-190q65 96 171 156.5t222 60.5q187 0 298.5 -115t111.5 -309v-635h-82v629q0 161 -88.5 256.5t-245.5 95.5z" />
    <glyph glyph-name="o" unicode="o" horiz-adv-x="1261" 
d="M1171 518q0 -151 -70 -275.5t-194 -197t-276 -72.5q-114 0 -215 42.5t-173 115.5t-113.5 173.5t-41.5 213.5q0 111 41.5 211t113.5 172.5t173 115t215 42.5q152 0 276 -72t194 -196t70 -273zM172 518q0 -198 131.5 -332.5t327.5 -134.5q195 0 325.5 134.5t130.5 332.5
q0 196 -131 329.5t-325 133.5q-196 0 -327.5 -133.5t-131.5 -329.5z" />
    <glyph glyph-name="p" unicode="p" horiz-adv-x="1212" 
d="M618 -27q-125 0 -228 61t-169 163v-607h-84v1442h84v-198q66 103 168.5 164t228.5 61q136 0 251.5 -69.5t184 -195t68.5 -280.5q0 -114 -40.5 -215.5t-109 -172.5t-161 -112t-193.5 -41zM618 981q-134 0 -239.5 -74t-157.5 -190v-406q52 -114 157.5 -187t239.5 -73
q84 0 160.5 34.5t134 94.5t91.5 147t34 187q0 134 -58 242t-154 166.5t-208 58.5z" />
    <glyph glyph-name="q" unicode="q" horiz-adv-x="1212" 
d="M1073 1032v-1442h-82v609q-66 -104 -168.5 -165t-228.5 -61q-102 0 -194.5 41t-161.5 112t-109.5 172.5t-40.5 215.5q0 155 69 280.5t185 195t252 69.5q126 0 228.5 -61t168.5 -164v198h82zM172 514q0 -200 124 -331.5t298 -131.5q134 0 239.5 73t157.5 187v406
q-52 115 -158 189.5t-239 74.5q-174 0 -298 -132t-124 -335z" />
    <glyph glyph-name="r" unicode="r" horiz-adv-x="681" 
d="M627 973q-134 0 -241.5 -61.5t-162.5 -157.5v-754h-82v1032h82v-168q69 89 173 142t231 53v-86z" />
    <glyph glyph-name="s" unicode="s" horiz-adv-x="890" 
d="M477 0h-405v76h403q138 0 207.5 67t69.5 170q0 98 -68.5 162t-208.5 64h-123q-124 0 -201 68t-77 177q0 112 76.5 180t201.5 68h404v-74h-402q-95 0 -147.5 -48t-52.5 -126q0 -77 52.5 -123.5t147.5 -46.5h125q174 0 264.5 -86.5t90.5 -216.5q0 -134 -91 -222.5
t-266 -88.5z" />
    <glyph glyph-name="t" unicode="t" horiz-adv-x="589" 
d="M563 958h-227v-958h-82v958h-227v74h227v289h82v-289h227v-74z" />
    <glyph glyph-name="u" unicode="u" horiz-adv-x="1146" 
d="M924 0v193q-63 -97 -169.5 -158.5t-222.5 -61.5q-187 0 -297 114.5t-110 309.5v635h82v-629q0 -161 87.5 -256.5t244.5 -95.5q122 0 226 68.5t159 167.5v745h82v-1032h-82z" />
    <glyph glyph-name="v" unicode="v" horiz-adv-x="962" 
d="M614 0h-264l-303 1032h84l283 -956h135l282 956h84z" />
    <glyph glyph-name="w" unicode="w" horiz-adv-x="1511" 
d="M954 0l-198 571l-199 -571h-213l-297 1032h82l281 -960h84l221 610v168h82v-168l219 -610h84l282 960h82l-297 -1032h-213z" />
    <glyph glyph-name="x" unicode="x" horiz-adv-x="970" 
d="M412 516l-279 -516h-92l297 549l-281 483h90l265 -446h137l266 446h92l-286 -481l309 -551h-90l-291 516h-137z" />
    <glyph glyph-name="y" unicode="y" horiz-adv-x="972" 
d="M588 -150q-38 -132 -108 -196t-189 -64h-88l-17 74h105q82 0 135 47.5t84 149.5l39 139h-207l-295 1032h82l279 -956h157l279 956h82z" />
    <glyph glyph-name="z" unicode="z" horiz-adv-x="874" 
d="M811 0h-737v147l626 750v61h-606v74h692v-149l-622 -746v-61h647v-76z" />
    <glyph glyph-name="braceleft" unicode="{" 
d="M127 0v1536h1522v-1536h-1522zM209 78h1358v1382h-1358v-1382zM1112 473l-229 232l-234 -234l-47 51l232 232l-232 231l47 49l234 -231l229 229l51 -47l-231 -231l231 -232z" />
    <glyph glyph-name="bar" unicode="|" 
d="M127 0v1536h1522v-1536h-1522zM209 78h1358v1382h-1358v-1382zM1112 473l-229 232l-234 -234l-47 51l232 232l-232 231l47 49l234 -231l229 229l51 -47l-231 -231l231 -232z" />
    <glyph glyph-name="braceright" unicode="}" 
d="M127 0v1536h1522v-1536h-1522zM209 78h1358v1382h-1358v-1382zM1112 473l-229 232l-234 -234l-47 51l232 232l-232 231l47 49l234 -231l229 229l51 -47l-231 -231l231 -232z" />
    <glyph glyph-name="asciitilde" unicode="~" 
d="M127 0v1536h1522v-1536h-1522zM209 78h1358v1382h-1358v-1382zM1112 473l-229 232l-234 -234l-47 51l232 232l-232 231l47 49l234 -231l229 229l51 -47l-231 -231l231 -232z" />
    <glyph glyph-name="exclamdown" unicode="&#xa1;" 
d="M127 0v1536h1522v-1536h-1522zM209 78h1358v1382h-1358v-1382zM1112 473l-229 232l-234 -234l-47 51l232 232l-232 231l47 49l234 -231l229 229l51 -47l-231 -231l231 -232z" />
    <glyph glyph-name="cent" unicode="&#xa2;" 
d="M127 0v1536h1522v-1536h-1522zM209 78h1358v1382h-1358v-1382zM1112 473l-229 232l-234 -234l-47 51l232 232l-232 231l47 49l234 -231l229 229l51 -47l-231 -231l231 -232z" />
    <glyph glyph-name="sterling" unicode="&#xa3;" 
d="M127 0v1536h1522v-1536h-1522zM209 78h1358v1382h-1358v-1382zM1112 473l-229 232l-234 -234l-47 51l232 232l-232 231l47 49l234 -231l229 229l51 -47l-231 -231l231 -232z" />
    <glyph glyph-name="currency" unicode="&#xa4;" 
d="M127 0v1536h1522v-1536h-1522zM209 78h1358v1382h-1358v-1382zM1112 473l-229 232l-234 -234l-47 51l232 232l-232 231l47 49l234 -231l229 229l51 -47l-231 -231l231 -232z" />
    <glyph glyph-name="yen" unicode="&#xa5;" 
d="M127 0v1536h1522v-1536h-1522zM209 78h1358v1382h-1358v-1382zM1112 473l-229 232l-234 -234l-47 51l232 232l-232 231l47 49l234 -231l229 229l51 -47l-231 -231l231 -232z" />
    <glyph glyph-name="brokenbar" unicode="&#xa6;" 
d="M127 0v1536h1522v-1536h-1522zM209 78h1358v1382h-1358v-1382zM1112 473l-229 232l-234 -234l-47 51l232 232l-232 231l47 49l234 -231l229 229l51 -47l-231 -231l231 -232z" />
    <glyph glyph-name="section" unicode="&#xa7;" 
d="M127 0v1536h1522v-1536h-1522zM209 78h1358v1382h-1358v-1382zM1112 473l-229 232l-234 -234l-47 51l232 232l-232 231l47 49l234 -231l229 229l51 -47l-231 -231l231 -232z" />
    <glyph glyph-name="dieresis" unicode="&#xa8;" 
d="M127 0v1536h1522v-1536h-1522zM209 78h1358v1382h-1358v-1382zM1112 473l-229 232l-234 -234l-47 51l232 232l-232 231l47 49l234 -231l229 229l51 -47l-231 -231l231 -232z" />
    <glyph glyph-name="copyright" unicode="&#xa9;" 
d="M127 0v1536h1522v-1536h-1522zM209 78h1358v1382h-1358v-1382zM1112 473l-229 232l-234 -234l-47 51l232 232l-232 231l47 49l234 -231l229 229l51 -47l-231 -231l231 -232z" />
    <glyph glyph-name="ordfeminine" unicode="&#xaa;" 
d="M127 0v1536h1522v-1536h-1522zM209 78h1358v1382h-1358v-1382zM1112 473l-229 232l-234 -234l-47 51l232 232l-232 231l47 49l234 -231l229 229l51 -47l-231 -231l231 -232z" />
    <glyph glyph-name="guillemotleft" unicode="&#xab;" 
d="M127 0v1536h1522v-1536h-1522zM209 78h1358v1382h-1358v-1382zM1112 473l-229 232l-234 -234l-47 51l232 232l-232 231l47 49l234 -231l229 229l51 -47l-231 -231l231 -232z" />
    <glyph glyph-name="registered" unicode="&#xae;" 
d="M127 0v1536h1522v-1536h-1522zM209 78h1358v1382h-1358v-1382zM1112 473l-229 232l-234 -234l-47 51l232 232l-232 231l47 49l234 -231l229 229l51 -47l-231 -231l231 -232z" />
    <glyph glyph-name="macron" unicode="&#xaf;" 
d="M127 0v1536h1522v-1536h-1522zM209 78h1358v1382h-1358v-1382zM1112 473l-229 232l-234 -234l-47 51l232 232l-232 231l47 49l234 -231l229 229l51 -47l-231 -231l231 -232z" />
    <glyph glyph-name="degree" unicode="&#xb0;" 
d="M127 0v1536h1522v-1536h-1522zM209 78h1358v1382h-1358v-1382zM1112 473l-229 232l-234 -234l-47 51l232 232l-232 231l47 49l234 -231l229 229l51 -47l-231 -231l231 -232z" />
    <glyph glyph-name="plusminus" unicode="&#xb1;" 
d="M127 0v1536h1522v-1536h-1522zM209 78h1358v1382h-1358v-1382zM1112 473l-229 232l-234 -234l-47 51l232 232l-232 231l47 49l234 -231l229 229l51 -47l-231 -231l231 -232z" />
    <glyph glyph-name="acute" unicode="&#xb4;" 
d="M127 0v1536h1522v-1536h-1522zM209 78h1358v1382h-1358v-1382zM1112 473l-229 232l-234 -234l-47 51l232 232l-232 231l47 49l234 -231l229 229l51 -47l-231 -231l231 -232z" />
    <glyph glyph-name="paragraph" unicode="&#xb6;" 
d="M127 0v1536h1522v-1536h-1522zM209 78h1358v1382h-1358v-1382zM1112 473l-229 232l-234 -234l-47 51l232 232l-232 231l47 49l234 -231l229 229l51 -47l-231 -231l231 -232z" />
    <glyph glyph-name="periodcentered" unicode="&#xb7;" 
d="M127 0v1536h1522v-1536h-1522zM209 78h1358v1382h-1358v-1382zM1112 473l-229 232l-234 -234l-47 51l232 232l-232 231l47 49l234 -231l229 229l51 -47l-231 -231l231 -232z" />
    <glyph glyph-name="cedilla" unicode="&#xb8;" 
d="M127 0v1536h1522v-1536h-1522zM209 78h1358v1382h-1358v-1382zM1112 473l-229 232l-234 -234l-47 51l232 232l-232 231l47 49l234 -231l229 229l51 -47l-231 -231l231 -232z" />
    <glyph glyph-name="ordmasculine" unicode="&#xba;" 
d="M127 0v1536h1522v-1536h-1522zM209 78h1358v1382h-1358v-1382zM1112 473l-229 232l-234 -234l-47 51l232 232l-232 231l47 49l234 -231l229 229l51 -47l-231 -231l231 -232z" />
    <glyph glyph-name="guillemotright" unicode="&#xbb;" 
d="M127 0v1536h1522v-1536h-1522zM209 78h1358v1382h-1358v-1382zM1112 473l-229 232l-234 -234l-47 51l232 232l-232 231l47 49l234 -231l229 229l51 -47l-231 -231l231 -232z" />
    <glyph glyph-name="onequarter" unicode="&#xbc;" 
d="M127 0v1536h1522v-1536h-1522zM209 78h1358v1382h-1358v-1382zM1112 473l-229 232l-234 -234l-47 51l232 232l-232 231l47 49l234 -231l229 229l51 -47l-231 -231l231 -232z" />
    <glyph glyph-name="onehalf" unicode="&#xbd;" 
d="M127 0v1536h1522v-1536h-1522zM209 78h1358v1382h-1358v-1382zM1112 473l-229 232l-234 -234l-47 51l232 232l-232 231l47 49l234 -231l229 229l51 -47l-231 -231l231 -232z" />
    <glyph glyph-name="threequarters" unicode="&#xbe;" 
d="M127 0v1536h1522v-1536h-1522zM209 78h1358v1382h-1358v-1382zM1112 473l-229 232l-234 -234l-47 51l232 232l-232 231l47 49l234 -231l229 229l51 -47l-231 -231l231 -232z" />
    <glyph glyph-name="questiondown" unicode="&#xbf;" 
d="M127 0v1536h1522v-1536h-1522zM209 78h1358v1382h-1358v-1382zM1112 473l-229 232l-234 -234l-47 51l232 232l-232 231l47 49l234 -231l229 229l51 -47l-231 -231l231 -232z" />
    <glyph glyph-name="Agrave" unicode="&#xc0;" 
d="M127 0v1536h1522v-1536h-1522zM209 78h1358v1382h-1358v-1382zM1112 473l-229 232l-234 -234l-47 51l232 232l-232 231l47 49l234 -231l229 229l51 -47l-231 -231l231 -232z" />
    <glyph glyph-name="Aacute" unicode="&#xc1;" 
d="M127 0v1536h1522v-1536h-1522zM209 78h1358v1382h-1358v-1382zM1112 473l-229 232l-234 -234l-47 51l232 232l-232 231l47 49l234 -231l229 229l51 -47l-231 -231l231 -232z" />
    <glyph glyph-name="Acircumflex" unicode="&#xc2;" 
d="M127 0v1536h1522v-1536h-1522zM209 78h1358v1382h-1358v-1382zM1112 473l-229 232l-234 -234l-47 51l232 232l-232 231l47 49l234 -231l229 229l51 -47l-231 -231l231 -232z" />
    <glyph glyph-name="Atilde" unicode="&#xc3;" 
d="M127 0v1536h1522v-1536h-1522zM209 78h1358v1382h-1358v-1382zM1112 473l-229 232l-234 -234l-47 51l232 232l-232 231l47 49l234 -231l229 229l51 -47l-231 -231l231 -232z" />
    <glyph glyph-name="Adieresis" unicode="&#xc4;" 
d="M127 0v1536h1522v-1536h-1522zM209 78h1358v1382h-1358v-1382zM1112 473l-229 232l-234 -234l-47 51l232 232l-232 231l47 49l234 -231l229 229l51 -47l-231 -231l231 -232z" />
    <glyph glyph-name="Aring" unicode="&#xc5;" 
d="M127 0v1536h1522v-1536h-1522zM209 78h1358v1382h-1358v-1382zM1112 473l-229 232l-234 -234l-47 51l232 232l-232 231l47 49l234 -231l229 229l51 -47l-231 -231l231 -232z" />
    <glyph glyph-name="AE" unicode="&#xc6;" 
d="M127 0v1536h1522v-1536h-1522zM209 78h1358v1382h-1358v-1382zM1112 473l-229 232l-234 -234l-47 51l232 232l-232 231l47 49l234 -231l229 229l51 -47l-231 -231l231 -232z" />
    <glyph glyph-name="Ccedilla" unicode="&#xc7;" 
d="M127 0v1536h1522v-1536h-1522zM209 78h1358v1382h-1358v-1382zM1112 473l-229 232l-234 -234l-47 51l232 232l-232 231l47 49l234 -231l229 229l51 -47l-231 -231l231 -232z" />
    <glyph glyph-name="Egrave" unicode="&#xc8;" 
d="M127 0v1536h1522v-1536h-1522zM209 78h1358v1382h-1358v-1382zM1112 473l-229 232l-234 -234l-47 51l232 232l-232 231l47 49l234 -231l229 229l51 -47l-231 -231l231 -232z" />
    <glyph glyph-name="Eacute" unicode="&#xc9;" 
d="M127 0v1536h1522v-1536h-1522zM209 78h1358v1382h-1358v-1382zM1112 473l-229 232l-234 -234l-47 51l232 232l-232 231l47 49l234 -231l229 229l51 -47l-231 -231l231 -232z" />
    <glyph glyph-name="Ecircumflex" unicode="&#xca;" 
d="M127 0v1536h1522v-1536h-1522zM209 78h1358v1382h-1358v-1382zM1112 473l-229 232l-234 -234l-47 51l232 232l-232 231l47 49l234 -231l229 229l51 -47l-231 -231l231 -232z" />
    <glyph glyph-name="Edieresis" unicode="&#xcb;" 
d="M127 0v1536h1522v-1536h-1522zM209 78h1358v1382h-1358v-1382zM1112 473l-229 232l-234 -234l-47 51l232 232l-232 231l47 49l234 -231l229 229l51 -47l-231 -231l231 -232z" />
    <glyph glyph-name="Igrave" unicode="&#xcc;" 
d="M127 0v1536h1522v-1536h-1522zM209 78h1358v1382h-1358v-1382zM1112 473l-229 232l-234 -234l-47 51l232 232l-232 231l47 49l234 -231l229 229l51 -47l-231 -231l231 -232z" />
    <glyph glyph-name="Iacute" unicode="&#xcd;" 
d="M127 0v1536h1522v-1536h-1522zM209 78h1358v1382h-1358v-1382zM1112 473l-229 232l-234 -234l-47 51l232 232l-232 231l47 49l234 -231l229 229l51 -47l-231 -231l231 -232z" />
    <glyph glyph-name="Icircumflex" unicode="&#xce;" 
d="M127 0v1536h1522v-1536h-1522zM209 78h1358v1382h-1358v-1382zM1112 473l-229 232l-234 -234l-47 51l232 232l-232 231l47 49l234 -231l229 229l51 -47l-231 -231l231 -232z" />
    <glyph glyph-name="Idieresis" unicode="&#xcf;" 
d="M127 0v1536h1522v-1536h-1522zM209 78h1358v1382h-1358v-1382zM1112 473l-229 232l-234 -234l-47 51l232 232l-232 231l47 49l234 -231l229 229l51 -47l-231 -231l231 -232z" />
    <glyph glyph-name="Eth" unicode="&#xd0;" 
d="M127 0v1536h1522v-1536h-1522zM209 78h1358v1382h-1358v-1382zM1112 473l-229 232l-234 -234l-47 51l232 232l-232 231l47 49l234 -231l229 229l51 -47l-231 -231l231 -232z" />
    <glyph glyph-name="Ntilde" unicode="&#xd1;" 
d="M127 0v1536h1522v-1536h-1522zM209 78h1358v1382h-1358v-1382zM1112 473l-229 232l-234 -234l-47 51l232 232l-232 231l47 49l234 -231l229 229l51 -47l-231 -231l231 -232z" />
    <glyph glyph-name="Ograve" unicode="&#xd2;" 
d="M127 0v1536h1522v-1536h-1522zM209 78h1358v1382h-1358v-1382zM1112 473l-229 232l-234 -234l-47 51l232 232l-232 231l47 49l234 -231l229 229l51 -47l-231 -231l231 -232z" />
    <glyph glyph-name="Oacute" unicode="&#xd3;" 
d="M127 0v1536h1522v-1536h-1522zM209 78h1358v1382h-1358v-1382zM1112 473l-229 232l-234 -234l-47 51l232 232l-232 231l47 49l234 -231l229 229l51 -47l-231 -231l231 -232z" />
    <glyph glyph-name="Ocircumflex" unicode="&#xd4;" 
d="M127 0v1536h1522v-1536h-1522zM209 78h1358v1382h-1358v-1382zM1112 473l-229 232l-234 -234l-47 51l232 232l-232 231l47 49l234 -231l229 229l51 -47l-231 -231l231 -232z" />
    <glyph glyph-name="Otilde" unicode="&#xd5;" 
d="M127 0v1536h1522v-1536h-1522zM209 78h1358v1382h-1358v-1382zM1112 473l-229 232l-234 -234l-47 51l232 232l-232 231l47 49l234 -231l229 229l51 -47l-231 -231l231 -232z" />
    <glyph glyph-name="Odieresis" unicode="&#xd6;" 
d="M127 0v1536h1522v-1536h-1522zM209 78h1358v1382h-1358v-1382zM1112 473l-229 232l-234 -234l-47 51l232 232l-232 231l47 49l234 -231l229 229l51 -47l-231 -231l231 -232z" />
    <glyph glyph-name="multiply" unicode="&#xd7;" 
d="M127 0v1536h1522v-1536h-1522zM209 78h1358v1382h-1358v-1382zM1112 473l-229 232l-234 -234l-47 51l232 232l-232 231l47 49l234 -231l229 229l51 -47l-231 -231l231 -232z" />
    <glyph glyph-name="Oslash" unicode="&#xd8;" 
d="M127 0v1536h1522v-1536h-1522zM209 78h1358v1382h-1358v-1382zM1112 473l-229 232l-234 -234l-47 51l232 232l-232 231l47 49l234 -231l229 229l51 -47l-231 -231l231 -232z" />
    <glyph glyph-name="Ugrave" unicode="&#xd9;" 
d="M127 0v1536h1522v-1536h-1522zM209 78h1358v1382h-1358v-1382zM1112 473l-229 232l-234 -234l-47 51l232 232l-232 231l47 49l234 -231l229 229l51 -47l-231 -231l231 -232z" />
    <glyph glyph-name="Uacute" unicode="&#xda;" 
d="M127 0v1536h1522v-1536h-1522zM209 78h1358v1382h-1358v-1382zM1112 473l-229 232l-234 -234l-47 51l232 232l-232 231l47 49l234 -231l229 229l51 -47l-231 -231l231 -232z" />
    <glyph glyph-name="Ucircumflex" unicode="&#xdb;" 
d="M127 0v1536h1522v-1536h-1522zM209 78h1358v1382h-1358v-1382zM1112 473l-229 232l-234 -234l-47 51l232 232l-232 231l47 49l234 -231l229 229l51 -47l-231 -231l231 -232z" />
    <glyph glyph-name="Udieresis" unicode="&#xdc;" 
d="M127 0v1536h1522v-1536h-1522zM209 78h1358v1382h-1358v-1382zM1112 473l-229 232l-234 -234l-47 51l232 232l-232 231l47 49l234 -231l229 229l51 -47l-231 -231l231 -232z" />
    <glyph glyph-name="Yacute" unicode="&#xdd;" 
d="M127 0v1536h1522v-1536h-1522zM209 78h1358v1382h-1358v-1382zM1112 473l-229 232l-234 -234l-47 51l232 232l-232 231l47 49l234 -231l229 229l51 -47l-231 -231l231 -232z" />
    <glyph glyph-name="Thorn" unicode="&#xde;" 
d="M127 0v1536h1522v-1536h-1522zM209 78h1358v1382h-1358v-1382zM1112 473l-229 232l-234 -234l-47 51l232 232l-232 231l47 49l234 -231l229 229l51 -47l-231 -231l231 -232z" />
    <glyph glyph-name="germandbls" unicode="&#xdf;" 
d="M127 0v1536h1522v-1536h-1522zM209 78h1358v1382h-1358v-1382zM1112 473l-229 232l-234 -234l-47 51l232 232l-232 231l47 49l234 -231l229 229l51 -47l-231 -231l231 -232z" />
    <glyph glyph-name="agrave" unicode="&#xe0;" 
d="M127 0v1536h1522v-1536h-1522zM209 78h1358v1382h-1358v-1382zM1112 473l-229 232l-234 -234l-47 51l232 232l-232 231l47 49l234 -231l229 229l51 -47l-231 -231l231 -232z" />
    <glyph glyph-name="aacute" unicode="&#xe1;" 
d="M127 0v1536h1522v-1536h-1522zM209 78h1358v1382h-1358v-1382zM1112 473l-229 232l-234 -234l-47 51l232 232l-232 231l47 49l234 -231l229 229l51 -47l-231 -231l231 -232z" />
    <glyph glyph-name="acircumflex" unicode="&#xe2;" 
d="M127 0v1536h1522v-1536h-1522zM209 78h1358v1382h-1358v-1382zM1112 473l-229 232l-234 -234l-47 51l232 232l-232 231l47 49l234 -231l229 229l51 -47l-231 -231l231 -232z" />
    <glyph glyph-name="atilde" unicode="&#xe3;" 
d="M127 0v1536h1522v-1536h-1522zM209 78h1358v1382h-1358v-1382zM1112 473l-229 232l-234 -234l-47 51l232 232l-232 231l47 49l234 -231l229 229l51 -47l-231 -231l231 -232z" />
    <glyph glyph-name="adieresis" unicode="&#xe4;" 
d="M127 0v1536h1522v-1536h-1522zM209 78h1358v1382h-1358v-1382zM1112 473l-229 232l-234 -234l-47 51l232 232l-232 231l47 49l234 -231l229 229l51 -47l-231 -231l231 -232z" />
    <glyph glyph-name="aring" unicode="&#xe5;" 
d="M127 0v1536h1522v-1536h-1522zM209 78h1358v1382h-1358v-1382zM1112 473l-229 232l-234 -234l-47 51l232 232l-232 231l47 49l234 -231l229 229l51 -47l-231 -231l231 -232z" />
    <glyph glyph-name="ae" unicode="&#xe6;" 
d="M127 0v1536h1522v-1536h-1522zM209 78h1358v1382h-1358v-1382zM1112 473l-229 232l-234 -234l-47 51l232 232l-232 231l47 49l234 -231l229 229l51 -47l-231 -231l231 -232z" />
    <glyph glyph-name="ccedilla" unicode="&#xe7;" 
d="M127 0v1536h1522v-1536h-1522zM209 78h1358v1382h-1358v-1382zM1112 473l-229 232l-234 -234l-47 51l232 232l-232 231l47 49l234 -231l229 229l51 -47l-231 -231l231 -232z" />
    <glyph glyph-name="egrave" unicode="&#xe8;" 
d="M127 0v1536h1522v-1536h-1522zM209 78h1358v1382h-1358v-1382zM1112 473l-229 232l-234 -234l-47 51l232 232l-232 231l47 49l234 -231l229 229l51 -47l-231 -231l231 -232z" />
    <glyph glyph-name="eacute" unicode="&#xe9;" 
d="M127 0v1536h1522v-1536h-1522zM209 78h1358v1382h-1358v-1382zM1112 473l-229 232l-234 -234l-47 51l232 232l-232 231l47 49l234 -231l229 229l51 -47l-231 -231l231 -232z" />
    <glyph glyph-name="ecircumflex" unicode="&#xea;" 
d="M127 0v1536h1522v-1536h-1522zM209 78h1358v1382h-1358v-1382zM1112 473l-229 232l-234 -234l-47 51l232 232l-232 231l47 49l234 -231l229 229l51 -47l-231 -231l231 -232z" />
    <glyph glyph-name="edieresis" unicode="&#xeb;" 
d="M127 0v1536h1522v-1536h-1522zM209 78h1358v1382h-1358v-1382zM1112 473l-229 232l-234 -234l-47 51l232 232l-232 231l47 49l234 -231l229 229l51 -47l-231 -231l231 -232z" />
    <glyph glyph-name="igrave" unicode="&#xec;" 
d="M127 0v1536h1522v-1536h-1522zM209 78h1358v1382h-1358v-1382zM1112 473l-229 232l-234 -234l-47 51l232 232l-232 231l47 49l234 -231l229 229l51 -47l-231 -231l231 -232z" />
    <glyph glyph-name="iacute" unicode="&#xed;" 
d="M127 0v1536h1522v-1536h-1522zM209 78h1358v1382h-1358v-1382zM1112 473l-229 232l-234 -234l-47 51l232 232l-232 231l47 49l234 -231l229 229l51 -47l-231 -231l231 -232z" />
    <glyph glyph-name="icircumflex" unicode="&#xee;" 
d="M127 0v1536h1522v-1536h-1522zM209 78h1358v1382h-1358v-1382zM1112 473l-229 232l-234 -234l-47 51l232 232l-232 231l47 49l234 -231l229 229l51 -47l-231 -231l231 -232z" />
    <glyph glyph-name="idieresis" unicode="&#xef;" 
d="M127 0v1536h1522v-1536h-1522zM209 78h1358v1382h-1358v-1382zM1112 473l-229 232l-234 -234l-47 51l232 232l-232 231l47 49l234 -231l229 229l51 -47l-231 -231l231 -232z" />
    <glyph glyph-name="eth" unicode="&#xf0;" 
d="M127 0v1536h1522v-1536h-1522zM209 78h1358v1382h-1358v-1382zM1112 473l-229 232l-234 -234l-47 51l232 232l-232 231l47 49l234 -231l229 229l51 -47l-231 -231l231 -232z" />
    <glyph glyph-name="ntilde" unicode="&#xf1;" 
d="M127 0v1536h1522v-1536h-1522zM209 78h1358v1382h-1358v-1382zM1112 473l-229 232l-234 -234l-47 51l232 232l-232 231l47 49l234 -231l229 229l51 -47l-231 -231l231 -232z" />
    <glyph glyph-name="ograve" unicode="&#xf2;" 
d="M127 0v1536h1522v-1536h-1522zM209 78h1358v1382h-1358v-1382zM1112 473l-229 232l-234 -234l-47 51l232 232l-232 231l47 49l234 -231l229 229l51 -47l-231 -231l231 -232z" />
    <glyph glyph-name="oacute" unicode="&#xf3;" 
d="M127 0v1536h1522v-1536h-1522zM209 78h1358v1382h-1358v-1382zM1112 473l-229 232l-234 -234l-47 51l232 232l-232 231l47 49l234 -231l229 229l51 -47l-231 -231l231 -232z" />
    <glyph glyph-name="ocircumflex" unicode="&#xf4;" 
d="M127 0v1536h1522v-1536h-1522zM209 78h1358v1382h-1358v-1382zM1112 473l-229 232l-234 -234l-47 51l232 232l-232 231l47 49l234 -231l229 229l51 -47l-231 -231l231 -232z" />
    <glyph glyph-name="otilde" unicode="&#xf5;" 
d="M127 0v1536h1522v-1536h-1522zM209 78h1358v1382h-1358v-1382zM1112 473l-229 232l-234 -234l-47 51l232 232l-232 231l47 49l234 -231l229 229l51 -47l-231 -231l231 -232z" />
    <glyph glyph-name="odieresis" unicode="&#xf6;" 
d="M127 0v1536h1522v-1536h-1522zM209 78h1358v1382h-1358v-1382zM1112 473l-229 232l-234 -234l-47 51l232 232l-232 231l47 49l234 -231l229 229l51 -47l-231 -231l231 -232z" />
    <glyph glyph-name="divide" unicode="&#xf7;" 
d="M127 0v1536h1522v-1536h-1522zM209 78h1358v1382h-1358v-1382zM1112 473l-229 232l-234 -234l-47 51l232 232l-232 231l47 49l234 -231l229 229l51 -47l-231 -231l231 -232z" />
    <glyph glyph-name="oslash" unicode="&#xf8;" 
d="M127 0v1536h1522v-1536h-1522zM209 78h1358v1382h-1358v-1382zM1112 473l-229 232l-234 -234l-47 51l232 232l-232 231l47 49l234 -231l229 229l51 -47l-231 -231l231 -232z" />
    <glyph glyph-name="ugrave" unicode="&#xf9;" 
d="M127 0v1536h1522v-1536h-1522zM209 78h1358v1382h-1358v-1382zM1112 473l-229 232l-234 -234l-47 51l232 232l-232 231l47 49l234 -231l229 229l51 -47l-231 -231l231 -232z" />
    <glyph glyph-name="uacute" unicode="&#xfa;" 
d="M127 0v1536h1522v-1536h-1522zM209 78h1358v1382h-1358v-1382zM1112 473l-229 232l-234 -234l-47 51l232 232l-232 231l47 49l234 -231l229 229l51 -47l-231 -231l231 -232z" />
    <glyph glyph-name="ucircumflex" unicode="&#xfb;" 
d="M127 0v1536h1522v-1536h-1522zM209 78h1358v1382h-1358v-1382zM1112 473l-229 232l-234 -234l-47 51l232 232l-232 231l47 49l234 -231l229 229l51 -47l-231 -231l231 -232z" />
    <glyph glyph-name="udieresis" unicode="&#xfc;" 
d="M127 0v1536h1522v-1536h-1522zM209 78h1358v1382h-1358v-1382zM1112 473l-229 232l-234 -234l-47 51l232 232l-232 231l47 49l234 -231l229 229l51 -47l-231 -231l231 -232z" />
    <glyph glyph-name="yacute" unicode="&#xfd;" 
d="M127 0v1536h1522v-1536h-1522zM209 78h1358v1382h-1358v-1382zM1112 473l-229 232l-234 -234l-47 51l232 232l-232 231l47 49l234 -231l229 229l51 -47l-231 -231l231 -232z" />
    <glyph glyph-name="thorn" unicode="&#xfe;" 
d="M127 0v1536h1522v-1536h-1522zM209 78h1358v1382h-1358v-1382zM1112 473l-229 232l-234 -234l-47 51l232 232l-232 231l47 49l234 -231l229 229l51 -47l-231 -231l231 -232z" />
    <glyph glyph-name="ydieresis" unicode="&#xff;" 
d="M127 0v1536h1522v-1536h-1522zM209 78h1358v1382h-1358v-1382zM1112 473l-229 232l-234 -234l-47 51l232 232l-232 231l47 49l234 -231l229 229l51 -47l-231 -231l231 -232z" />
    <glyph glyph-name="Amacron" unicode="&#x100;" 
d="M127 0v1536h1522v-1536h-1522zM209 78h1358v1382h-1358v-1382zM1112 473l-229 232l-234 -234l-47 51l232 232l-232 231l47 49l234 -231l229 229l51 -47l-231 -231l231 -232z" />
    <glyph glyph-name="amacron" unicode="&#x101;" 
d="M127 0v1536h1522v-1536h-1522zM209 78h1358v1382h-1358v-1382zM1112 473l-229 232l-234 -234l-47 51l232 232l-232 231l47 49l234 -231l229 229l51 -47l-231 -231l231 -232z" />
    <glyph glyph-name="Abreve" unicode="&#x102;" 
d="M127 0v1536h1522v-1536h-1522zM209 78h1358v1382h-1358v-1382zM1112 473l-229 232l-234 -234l-47 51l232 232l-232 231l47 49l234 -231l229 229l51 -47l-231 -231l231 -232z" />
    <glyph glyph-name="abreve" unicode="&#x103;" 
d="M127 0v1536h1522v-1536h-1522zM209 78h1358v1382h-1358v-1382zM1112 473l-229 232l-234 -234l-47 51l232 232l-232 231l47 49l234 -231l229 229l51 -47l-231 -231l231 -232z" />
    <glyph glyph-name="Aogonek" unicode="&#x104;" 
d="M127 0v1536h1522v-1536h-1522zM209 78h1358v1382h-1358v-1382zM1112 473l-229 232l-234 -234l-47 51l232 232l-232 231l47 49l234 -231l229 229l51 -47l-231 -231l231 -232z" />
    <glyph glyph-name="aogonek" unicode="&#x105;" 
d="M127 0v1536h1522v-1536h-1522zM209 78h1358v1382h-1358v-1382zM1112 473l-229 232l-234 -234l-47 51l232 232l-232 231l47 49l234 -231l229 229l51 -47l-231 -231l231 -232z" />
    <glyph glyph-name="Cacute" unicode="&#x106;" 
d="M127 0v1536h1522v-1536h-1522zM209 78h1358v1382h-1358v-1382zM1112 473l-229 232l-234 -234l-47 51l232 232l-232 231l47 49l234 -231l229 229l51 -47l-231 -231l231 -232z" />
    <glyph glyph-name="cacute" unicode="&#x107;" 
d="M127 0v1536h1522v-1536h-1522zM209 78h1358v1382h-1358v-1382zM1112 473l-229 232l-234 -234l-47 51l232 232l-232 231l47 49l234 -231l229 229l51 -47l-231 -231l231 -232z" />
    <glyph glyph-name="Ccircumflex" unicode="&#x108;" 
d="M127 0v1536h1522v-1536h-1522zM209 78h1358v1382h-1358v-1382zM1112 473l-229 232l-234 -234l-47 51l232 232l-232 231l47 49l234 -231l229 229l51 -47l-231 -231l231 -232z" />
    <glyph glyph-name="ccircumflex" unicode="&#x109;" 
d="M127 0v1536h1522v-1536h-1522zM209 78h1358v1382h-1358v-1382zM1112 473l-229 232l-234 -234l-47 51l232 232l-232 231l47 49l234 -231l229 229l51 -47l-231 -231l231 -232z" />
    <glyph glyph-name="Cdotaccent" unicode="&#x10a;" 
d="M127 0v1536h1522v-1536h-1522zM209 78h1358v1382h-1358v-1382zM1112 473l-229 232l-234 -234l-47 51l232 232l-232 231l47 49l234 -231l229 229l51 -47l-231 -231l231 -232z" />
    <glyph glyph-name="cdotaccent" unicode="&#x10b;" 
d="M127 0v1536h1522v-1536h-1522zM209 78h1358v1382h-1358v-1382zM1112 473l-229 232l-234 -234l-47 51l232 232l-232 231l47 49l234 -231l229 229l51 -47l-231 -231l231 -232z" />
    <glyph glyph-name="Ccaron" unicode="&#x10c;" 
d="M127 0v1536h1522v-1536h-1522zM209 78h1358v1382h-1358v-1382zM1112 473l-229 232l-234 -234l-47 51l232 232l-232 231l47 49l234 -231l229 229l51 -47l-231 -231l231 -232z" />
    <glyph glyph-name="ccaron" unicode="&#x10d;" 
d="M127 0v1536h1522v-1536h-1522zM209 78h1358v1382h-1358v-1382zM1112 473l-229 232l-234 -234l-47 51l232 232l-232 231l47 49l234 -231l229 229l51 -47l-231 -231l231 -232z" />
    <glyph glyph-name="Dcaron" unicode="&#x10e;" 
d="M127 0v1536h1522v-1536h-1522zM209 78h1358v1382h-1358v-1382zM1112 473l-229 232l-234 -234l-47 51l232 232l-232 231l47 49l234 -231l229 229l51 -47l-231 -231l231 -232z" />
    <glyph glyph-name="dcaron" unicode="&#x10f;" 
d="M127 0v1536h1522v-1536h-1522zM209 78h1358v1382h-1358v-1382zM1112 473l-229 232l-234 -234l-47 51l232 232l-232 231l47 49l234 -231l229 229l51 -47l-231 -231l231 -232z" />
    <glyph glyph-name="Dcroat" unicode="&#x110;" 
d="M127 0v1536h1522v-1536h-1522zM209 78h1358v1382h-1358v-1382zM1112 473l-229 232l-234 -234l-47 51l232 232l-232 231l47 49l234 -231l229 229l51 -47l-231 -231l231 -232z" />
    <glyph glyph-name="dcroat" unicode="&#x111;" 
d="M127 0v1536h1522v-1536h-1522zM209 78h1358v1382h-1358v-1382zM1112 473l-229 232l-234 -234l-47 51l232 232l-232 231l47 49l234 -231l229 229l51 -47l-231 -231l231 -232z" />
    <glyph glyph-name="Emacron" unicode="&#x112;" 
d="M127 0v1536h1522v-1536h-1522zM209 78h1358v1382h-1358v-1382zM1112 473l-229 232l-234 -234l-47 51l232 232l-232 231l47 49l234 -231l229 229l51 -47l-231 -231l231 -232z" />
    <glyph glyph-name="emacron" unicode="&#x113;" 
d="M127 0v1536h1522v-1536h-1522zM209 78h1358v1382h-1358v-1382zM1112 473l-229 232l-234 -234l-47 51l232 232l-232 231l47 49l234 -231l229 229l51 -47l-231 -231l231 -232z" />
    <glyph glyph-name="Ebreve" unicode="&#x114;" 
d="M127 0v1536h1522v-1536h-1522zM209 78h1358v1382h-1358v-1382zM1112 473l-229 232l-234 -234l-47 51l232 232l-232 231l47 49l234 -231l229 229l51 -47l-231 -231l231 -232z" />
    <glyph glyph-name="ebreve" unicode="&#x115;" 
d="M127 0v1536h1522v-1536h-1522zM209 78h1358v1382h-1358v-1382zM1112 473l-229 232l-234 -234l-47 51l232 232l-232 231l47 49l234 -231l229 229l51 -47l-231 -231l231 -232z" />
    <glyph glyph-name="Edotaccent" unicode="&#x116;" 
d="M127 0v1536h1522v-1536h-1522zM209 78h1358v1382h-1358v-1382zM1112 473l-229 232l-234 -234l-47 51l232 232l-232 231l47 49l234 -231l229 229l51 -47l-231 -231l231 -232z" />
    <glyph glyph-name="edotaccent" unicode="&#x117;" 
d="M127 0v1536h1522v-1536h-1522zM209 78h1358v1382h-1358v-1382zM1112 473l-229 232l-234 -234l-47 51l232 232l-232 231l47 49l234 -231l229 229l51 -47l-231 -231l231 -232z" />
    <glyph glyph-name="Eogonek" unicode="&#x118;" 
d="M127 0v1536h1522v-1536h-1522zM209 78h1358v1382h-1358v-1382zM1112 473l-229 232l-234 -234l-47 51l232 232l-232 231l47 49l234 -231l229 229l51 -47l-231 -231l231 -232z" />
    <glyph glyph-name="eogonek" unicode="&#x119;" 
d="M127 0v1536h1522v-1536h-1522zM209 78h1358v1382h-1358v-1382zM1112 473l-229 232l-234 -234l-47 51l232 232l-232 231l47 49l234 -231l229 229l51 -47l-231 -231l231 -232z" />
    <glyph glyph-name="Ecaron" unicode="&#x11a;" 
d="M127 0v1536h1522v-1536h-1522zM209 78h1358v1382h-1358v-1382zM1112 473l-229 232l-234 -234l-47 51l232 232l-232 231l47 49l234 -231l229 229l51 -47l-231 -231l231 -232z" />
    <glyph glyph-name="ecaron" unicode="&#x11b;" 
d="M127 0v1536h1522v-1536h-1522zM209 78h1358v1382h-1358v-1382zM1112 473l-229 232l-234 -234l-47 51l232 232l-232 231l47 49l234 -231l229 229l51 -47l-231 -231l231 -232z" />
    <glyph glyph-name="Gcircumflex" unicode="&#x11c;" 
d="M127 0v1536h1522v-1536h-1522zM209 78h1358v1382h-1358v-1382zM1112 473l-229 232l-234 -234l-47 51l232 232l-232 231l47 49l234 -231l229 229l51 -47l-231 -231l231 -232z" />
    <glyph glyph-name="gcircumflex" unicode="&#x11d;" 
d="M127 0v1536h1522v-1536h-1522zM209 78h1358v1382h-1358v-1382zM1112 473l-229 232l-234 -234l-47 51l232 232l-232 231l47 49l234 -231l229 229l51 -47l-231 -231l231 -232z" />
    <glyph glyph-name="Gbreve" unicode="&#x11e;" 
d="M127 0v1536h1522v-1536h-1522zM209 78h1358v1382h-1358v-1382zM1112 473l-229 232l-234 -234l-47 51l232 232l-232 231l47 49l234 -231l229 229l51 -47l-231 -231l231 -232z" />
    <glyph glyph-name="gbreve" unicode="&#x11f;" 
d="M127 0v1536h1522v-1536h-1522zM209 78h1358v1382h-1358v-1382zM1112 473l-229 232l-234 -234l-47 51l232 232l-232 231l47 49l234 -231l229 229l51 -47l-231 -231l231 -232z" />
    <glyph glyph-name="Gdotaccent" unicode="&#x120;" 
d="M127 0v1536h1522v-1536h-1522zM209 78h1358v1382h-1358v-1382zM1112 473l-229 232l-234 -234l-47 51l232 232l-232 231l47 49l234 -231l229 229l51 -47l-231 -231l231 -232z" />
    <glyph glyph-name="gdotaccent" unicode="&#x121;" 
d="M127 0v1536h1522v-1536h-1522zM209 78h1358v1382h-1358v-1382zM1112 473l-229 232l-234 -234l-47 51l232 232l-232 231l47 49l234 -231l229 229l51 -47l-231 -231l231 -232z" />
    <glyph glyph-name="Gcommaaccent" unicode="&#x122;" 
d="M127 0v1536h1522v-1536h-1522zM209 78h1358v1382h-1358v-1382zM1112 473l-229 232l-234 -234l-47 51l232 232l-232 231l47 49l234 -231l229 229l51 -47l-231 -231l231 -232z" />
    <glyph glyph-name="gcommaaccent" unicode="&#x123;" 
d="M127 0v1536h1522v-1536h-1522zM209 78h1358v1382h-1358v-1382zM1112 473l-229 232l-234 -234l-47 51l232 232l-232 231l47 49l234 -231l229 229l51 -47l-231 -231l231 -232z" />
    <glyph glyph-name="Hcircumflex" unicode="&#x124;" 
d="M127 0v1536h1522v-1536h-1522zM209 78h1358v1382h-1358v-1382zM1112 473l-229 232l-234 -234l-47 51l232 232l-232 231l47 49l234 -231l229 229l51 -47l-231 -231l231 -232z" />
    <glyph glyph-name="hcircumflex" unicode="&#x125;" 
d="M127 0v1536h1522v-1536h-1522zM209 78h1358v1382h-1358v-1382zM1112 473l-229 232l-234 -234l-47 51l232 232l-232 231l47 49l234 -231l229 229l51 -47l-231 -231l231 -232z" />
    <glyph glyph-name="Hbar" unicode="&#x126;" 
d="M127 0v1536h1522v-1536h-1522zM209 78h1358v1382h-1358v-1382zM1112 473l-229 232l-234 -234l-47 51l232 232l-232 231l47 49l234 -231l229 229l51 -47l-231 -231l231 -232z" />
    <glyph glyph-name="hbar" unicode="&#x127;" 
d="M127 0v1536h1522v-1536h-1522zM209 78h1358v1382h-1358v-1382zM1112 473l-229 232l-234 -234l-47 51l232 232l-232 231l47 49l234 -231l229 229l51 -47l-231 -231l231 -232z" />
    <glyph glyph-name="Itilde" unicode="&#x128;" 
d="M127 0v1536h1522v-1536h-1522zM209 78h1358v1382h-1358v-1382zM1112 473l-229 232l-234 -234l-47 51l232 232l-232 231l47 49l234 -231l229 229l51 -47l-231 -231l231 -232z" />
    <glyph glyph-name="itilde" unicode="&#x129;" 
d="M127 0v1536h1522v-1536h-1522zM209 78h1358v1382h-1358v-1382zM1112 473l-229 232l-234 -234l-47 51l232 232l-232 231l47 49l234 -231l229 229l51 -47l-231 -231l231 -232z" />
    <glyph glyph-name="Imacron" unicode="&#x12a;" 
d="M127 0v1536h1522v-1536h-1522zM209 78h1358v1382h-1358v-1382zM1112 473l-229 232l-234 -234l-47 51l232 232l-232 231l47 49l234 -231l229 229l51 -47l-231 -231l231 -232z" />
    <glyph glyph-name="imacron" unicode="&#x12b;" 
d="M127 0v1536h1522v-1536h-1522zM209 78h1358v1382h-1358v-1382zM1112 473l-229 232l-234 -234l-47 51l232 232l-232 231l47 49l234 -231l229 229l51 -47l-231 -231l231 -232z" />
    <glyph glyph-name="Ibreve" unicode="&#x12c;" 
d="M127 0v1536h1522v-1536h-1522zM209 78h1358v1382h-1358v-1382zM1112 473l-229 232l-234 -234l-47 51l232 232l-232 231l47 49l234 -231l229 229l51 -47l-231 -231l231 -232z" />
    <glyph glyph-name="ibreve" unicode="&#x12d;" 
d="M127 0v1536h1522v-1536h-1522zM209 78h1358v1382h-1358v-1382zM1112 473l-229 232l-234 -234l-47 51l232 232l-232 231l47 49l234 -231l229 229l51 -47l-231 -231l231 -232z" />
    <glyph glyph-name="Iogonek" unicode="&#x12e;" 
d="M127 0v1536h1522v-1536h-1522zM209 78h1358v1382h-1358v-1382zM1112 473l-229 232l-234 -234l-47 51l232 232l-232 231l47 49l234 -231l229 229l51 -47l-231 -231l231 -232z" />
    <glyph glyph-name="iogonek" unicode="&#x12f;" 
d="M127 0v1536h1522v-1536h-1522zM209 78h1358v1382h-1358v-1382zM1112 473l-229 232l-234 -234l-47 51l232 232l-232 231l47 49l234 -231l229 229l51 -47l-231 -231l231 -232z" />
    <glyph glyph-name="Idotaccent" unicode="&#x130;" 
d="M127 0v1536h1522v-1536h-1522zM209 78h1358v1382h-1358v-1382zM1112 473l-229 232l-234 -234l-47 51l232 232l-232 231l47 49l234 -231l229 229l51 -47l-231 -231l231 -232z" />
    <glyph glyph-name="dotlessi" unicode="&#x131;" 
d="M127 0v1536h1522v-1536h-1522zM209 78h1358v1382h-1358v-1382zM1112 473l-229 232l-234 -234l-47 51l232 232l-232 231l47 49l234 -231l229 229l51 -47l-231 -231l231 -232z" />
    <glyph glyph-name="IJ" unicode="&#x132;" 
d="M127 0v1536h1522v-1536h-1522zM209 78h1358v1382h-1358v-1382zM1112 473l-229 232l-234 -234l-47 51l232 232l-232 231l47 49l234 -231l229 229l51 -47l-231 -231l231 -232z" />
    <glyph glyph-name="ij" unicode="&#x133;" 
d="M127 0v1536h1522v-1536h-1522zM209 78h1358v1382h-1358v-1382zM1112 473l-229 232l-234 -234l-47 51l232 232l-232 231l47 49l234 -231l229 229l51 -47l-231 -231l231 -232z" />
    <glyph glyph-name="Jcircumflex" unicode="&#x134;" 
d="M127 0v1536h1522v-1536h-1522zM209 78h1358v1382h-1358v-1382zM1112 473l-229 232l-234 -234l-47 51l232 232l-232 231l47 49l234 -231l229 229l51 -47l-231 -231l231 -232z" />
    <glyph glyph-name="jcircumflex" unicode="&#x135;" 
d="M127 0v1536h1522v-1536h-1522zM209 78h1358v1382h-1358v-1382zM1112 473l-229 232l-234 -234l-47 51l232 232l-232 231l47 49l234 -231l229 229l51 -47l-231 -231l231 -232z" />
    <glyph glyph-name="Kcommaaccent" unicode="&#x136;" 
d="M127 0v1536h1522v-1536h-1522zM209 78h1358v1382h-1358v-1382zM1112 473l-229 232l-234 -234l-47 51l232 232l-232 231l47 49l234 -231l229 229l51 -47l-231 -231l231 -232z" />
    <glyph glyph-name="kcommaaccent" unicode="&#x137;" 
d="M127 0v1536h1522v-1536h-1522zM209 78h1358v1382h-1358v-1382zM1112 473l-229 232l-234 -234l-47 51l232 232l-232 231l47 49l234 -231l229 229l51 -47l-231 -231l231 -232z" />
    <glyph glyph-name="Lacute" unicode="&#x139;" 
d="M127 0v1536h1522v-1536h-1522zM209 78h1358v1382h-1358v-1382zM1112 473l-229 232l-234 -234l-47 51l232 232l-232 231l47 49l234 -231l229 229l51 -47l-231 -231l231 -232z" />
    <glyph glyph-name="lacute" unicode="&#x13a;" 
d="M127 0v1536h1522v-1536h-1522zM209 78h1358v1382h-1358v-1382zM1112 473l-229 232l-234 -234l-47 51l232 232l-232 231l47 49l234 -231l229 229l51 -47l-231 -231l231 -232z" />
    <glyph glyph-name="Lcommaaccent" unicode="&#x13b;" 
d="M127 0v1536h1522v-1536h-1522zM209 78h1358v1382h-1358v-1382zM1112 473l-229 232l-234 -234l-47 51l232 232l-232 231l47 49l234 -231l229 229l51 -47l-231 -231l231 -232z" />
    <glyph glyph-name="lcommaaccent" unicode="&#x13c;" 
d="M127 0v1536h1522v-1536h-1522zM209 78h1358v1382h-1358v-1382zM1112 473l-229 232l-234 -234l-47 51l232 232l-232 231l47 49l234 -231l229 229l51 -47l-231 -231l231 -232z" />
    <glyph glyph-name="Lcaron" unicode="&#x13d;" 
d="M127 0v1536h1522v-1536h-1522zM209 78h1358v1382h-1358v-1382zM1112 473l-229 232l-234 -234l-47 51l232 232l-232 231l47 49l234 -231l229 229l51 -47l-231 -231l231 -232z" />
    <glyph glyph-name="lcaron" unicode="&#x13e;" 
d="M127 0v1536h1522v-1536h-1522zM209 78h1358v1382h-1358v-1382zM1112 473l-229 232l-234 -234l-47 51l232 232l-232 231l47 49l234 -231l229 229l51 -47l-231 -231l231 -232z" />
    <glyph glyph-name="Ldot" unicode="&#x13f;" 
d="M127 0v1536h1522v-1536h-1522zM209 78h1358v1382h-1358v-1382zM1112 473l-229 232l-234 -234l-47 51l232 232l-232 231l47 49l234 -231l229 229l51 -47l-231 -231l231 -232z" />
    <glyph glyph-name="ldot" unicode="&#x140;" 
d="M127 0v1536h1522v-1536h-1522zM209 78h1358v1382h-1358v-1382zM1112 473l-229 232l-234 -234l-47 51l232 232l-232 231l47 49l234 -231l229 229l51 -47l-231 -231l231 -232z" />
    <glyph glyph-name="Lslash" unicode="&#x141;" 
d="M127 0v1536h1522v-1536h-1522zM209 78h1358v1382h-1358v-1382zM1112 473l-229 232l-234 -234l-47 51l232 232l-232 231l47 49l234 -231l229 229l51 -47l-231 -231l231 -232z" />
    <glyph glyph-name="lslash" unicode="&#x142;" 
d="M127 0v1536h1522v-1536h-1522zM209 78h1358v1382h-1358v-1382zM1112 473l-229 232l-234 -234l-47 51l232 232l-232 231l47 49l234 -231l229 229l51 -47l-231 -231l231 -232z" />
    <glyph glyph-name="Nacute" unicode="&#x143;" 
d="M127 0v1536h1522v-1536h-1522zM209 78h1358v1382h-1358v-1382zM1112 473l-229 232l-234 -234l-47 51l232 232l-232 231l47 49l234 -231l229 229l51 -47l-231 -231l231 -232z" />
    <glyph glyph-name="nacute" unicode="&#x144;" 
d="M127 0v1536h1522v-1536h-1522zM209 78h1358v1382h-1358v-1382zM1112 473l-229 232l-234 -234l-47 51l232 232l-232 231l47 49l234 -231l229 229l51 -47l-231 -231l231 -232z" />
    <glyph glyph-name="Ncommaaccent" unicode="&#x145;" 
d="M127 0v1536h1522v-1536h-1522zM209 78h1358v1382h-1358v-1382zM1112 473l-229 232l-234 -234l-47 51l232 232l-232 231l47 49l234 -231l229 229l51 -47l-231 -231l231 -232z" />
    <glyph glyph-name="ncommaaccent" unicode="&#x146;" 
d="M127 0v1536h1522v-1536h-1522zM209 78h1358v1382h-1358v-1382zM1112 473l-229 232l-234 -234l-47 51l232 232l-232 231l47 49l234 -231l229 229l51 -47l-231 -231l231 -232z" />
    <glyph glyph-name="Ncaron" unicode="&#x147;" 
d="M127 0v1536h1522v-1536h-1522zM209 78h1358v1382h-1358v-1382zM1112 473l-229 232l-234 -234l-47 51l232 232l-232 231l47 49l234 -231l229 229l51 -47l-231 -231l231 -232z" />
    <glyph glyph-name="ncaron" unicode="&#x148;" 
d="M127 0v1536h1522v-1536h-1522zM209 78h1358v1382h-1358v-1382zM1112 473l-229 232l-234 -234l-47 51l232 232l-232 231l47 49l234 -231l229 229l51 -47l-231 -231l231 -232z" />
    <glyph glyph-name="Eng" unicode="&#x14a;" 
d="M127 0v1536h1522v-1536h-1522zM209 78h1358v1382h-1358v-1382zM1112 473l-229 232l-234 -234l-47 51l232 232l-232 231l47 49l234 -231l229 229l51 -47l-231 -231l231 -232z" />
    <glyph glyph-name="eng" unicode="&#x14b;" 
d="M127 0v1536h1522v-1536h-1522zM209 78h1358v1382h-1358v-1382zM1112 473l-229 232l-234 -234l-47 51l232 232l-232 231l47 49l234 -231l229 229l51 -47l-231 -231l231 -232z" />
    <glyph glyph-name="Omacron" unicode="&#x14c;" 
d="M127 0v1536h1522v-1536h-1522zM209 78h1358v1382h-1358v-1382zM1112 473l-229 232l-234 -234l-47 51l232 232l-232 231l47 49l234 -231l229 229l51 -47l-231 -231l231 -232z" />
    <glyph glyph-name="omacron" unicode="&#x14d;" 
d="M127 0v1536h1522v-1536h-1522zM209 78h1358v1382h-1358v-1382zM1112 473l-229 232l-234 -234l-47 51l232 232l-232 231l47 49l234 -231l229 229l51 -47l-231 -231l231 -232z" />
    <glyph glyph-name="Obreve" unicode="&#x14e;" 
d="M127 0v1536h1522v-1536h-1522zM209 78h1358v1382h-1358v-1382zM1112 473l-229 232l-234 -234l-47 51l232 232l-232 231l47 49l234 -231l229 229l51 -47l-231 -231l231 -232z" />
    <glyph glyph-name="obreve" unicode="&#x14f;" 
d="M127 0v1536h1522v-1536h-1522zM209 78h1358v1382h-1358v-1382zM1112 473l-229 232l-234 -234l-47 51l232 232l-232 231l47 49l234 -231l229 229l51 -47l-231 -231l231 -232z" />
    <glyph glyph-name="Ohungarumlaut" unicode="&#x150;" 
d="M127 0v1536h1522v-1536h-1522zM209 78h1358v1382h-1358v-1382zM1112 473l-229 232l-234 -234l-47 51l232 232l-232 231l47 49l234 -231l229 229l51 -47l-231 -231l231 -232z" />
    <glyph glyph-name="ohungarumlaut" unicode="&#x151;" 
d="M127 0v1536h1522v-1536h-1522zM209 78h1358v1382h-1358v-1382zM1112 473l-229 232l-234 -234l-47 51l232 232l-232 231l47 49l234 -231l229 229l51 -47l-231 -231l231 -232z" />
    <glyph glyph-name="OE" unicode="&#x152;" 
d="M127 0v1536h1522v-1536h-1522zM209 78h1358v1382h-1358v-1382zM1112 473l-229 232l-234 -234l-47 51l232 232l-232 231l47 49l234 -231l229 229l51 -47l-231 -231l231 -232z" />
    <glyph glyph-name="oe" unicode="&#x153;" 
d="M127 0v1536h1522v-1536h-1522zM209 78h1358v1382h-1358v-1382zM1112 473l-229 232l-234 -234l-47 51l232 232l-232 231l47 49l234 -231l229 229l51 -47l-231 -231l231 -232z" />
    <glyph glyph-name="Racute" unicode="&#x154;" 
d="M127 0v1536h1522v-1536h-1522zM209 78h1358v1382h-1358v-1382zM1112 473l-229 232l-234 -234l-47 51l232 232l-232 231l47 49l234 -231l229 229l51 -47l-231 -231l231 -232z" />
    <glyph glyph-name="racute" unicode="&#x155;" 
d="M127 0v1536h1522v-1536h-1522zM209 78h1358v1382h-1358v-1382zM1112 473l-229 232l-234 -234l-47 51l232 232l-232 231l47 49l234 -231l229 229l51 -47l-231 -231l231 -232z" />
    <glyph glyph-name="Rcommaaccent" unicode="&#x156;" 
d="M127 0v1536h1522v-1536h-1522zM209 78h1358v1382h-1358v-1382zM1112 473l-229 232l-234 -234l-47 51l232 232l-232 231l47 49l234 -231l229 229l51 -47l-231 -231l231 -232z" />
    <glyph glyph-name="rcommaaccent" unicode="&#x157;" 
d="M127 0v1536h1522v-1536h-1522zM209 78h1358v1382h-1358v-1382zM1112 473l-229 232l-234 -234l-47 51l232 232l-232 231l47 49l234 -231l229 229l51 -47l-231 -231l231 -232z" />
    <glyph glyph-name="Rcaron" unicode="&#x158;" 
d="M127 0v1536h1522v-1536h-1522zM209 78h1358v1382h-1358v-1382zM1112 473l-229 232l-234 -234l-47 51l232 232l-232 231l47 49l234 -231l229 229l51 -47l-231 -231l231 -232z" />
    <glyph glyph-name="rcaron" unicode="&#x159;" 
d="M127 0v1536h1522v-1536h-1522zM209 78h1358v1382h-1358v-1382zM1112 473l-229 232l-234 -234l-47 51l232 232l-232 231l47 49l234 -231l229 229l51 -47l-231 -231l231 -232z" />
    <glyph glyph-name="Sacute" unicode="&#x15a;" 
d="M127 0v1536h1522v-1536h-1522zM209 78h1358v1382h-1358v-1382zM1112 473l-229 232l-234 -234l-47 51l232 232l-232 231l47 49l234 -231l229 229l51 -47l-231 -231l231 -232z" />
    <glyph glyph-name="sacute" unicode="&#x15b;" 
d="M127 0v1536h1522v-1536h-1522zM209 78h1358v1382h-1358v-1382zM1112 473l-229 232l-234 -234l-47 51l232 232l-232 231l47 49l234 -231l229 229l51 -47l-231 -231l231 -232z" />
    <glyph glyph-name="Scircumflex" unicode="&#x15c;" 
d="M127 0v1536h1522v-1536h-1522zM209 78h1358v1382h-1358v-1382zM1112 473l-229 232l-234 -234l-47 51l232 232l-232 231l47 49l234 -231l229 229l51 -47l-231 -231l231 -232z" />
    <glyph glyph-name="scircumflex" unicode="&#x15d;" 
d="M127 0v1536h1522v-1536h-1522zM209 78h1358v1382h-1358v-1382zM1112 473l-229 232l-234 -234l-47 51l232 232l-232 231l47 49l234 -231l229 229l51 -47l-231 -231l231 -232z" />
    <glyph glyph-name="Scedilla" unicode="&#x15e;" 
d="M127 0v1536h1522v-1536h-1522zM209 78h1358v1382h-1358v-1382zM1112 473l-229 232l-234 -234l-47 51l232 232l-232 231l47 49l234 -231l229 229l51 -47l-231 -231l231 -232z" />
    <glyph glyph-name="scedilla" unicode="&#x15f;" 
d="M127 0v1536h1522v-1536h-1522zM209 78h1358v1382h-1358v-1382zM1112 473l-229 232l-234 -234l-47 51l232 232l-232 231l47 49l234 -231l229 229l51 -47l-231 -231l231 -232z" />
    <glyph glyph-name="Scaron" unicode="&#x160;" 
d="M127 0v1536h1522v-1536h-1522zM209 78h1358v1382h-1358v-1382zM1112 473l-229 232l-234 -234l-47 51l232 232l-232 231l47 49l234 -231l229 229l51 -47l-231 -231l231 -232z" />
    <glyph glyph-name="scaron" unicode="&#x161;" 
d="M127 0v1536h1522v-1536h-1522zM209 78h1358v1382h-1358v-1382zM1112 473l-229 232l-234 -234l-47 51l232 232l-232 231l47 49l234 -231l229 229l51 -47l-231 -231l231 -232z" />
    <glyph glyph-name="uni0162" unicode="&#x162;" 
d="M127 0v1536h1522v-1536h-1522zM209 78h1358v1382h-1358v-1382zM1112 473l-229 232l-234 -234l-47 51l232 232l-232 231l47 49l234 -231l229 229l51 -47l-231 -231l231 -232z" />
    <glyph glyph-name="uni0163" unicode="&#x163;" 
d="M127 0v1536h1522v-1536h-1522zM209 78h1358v1382h-1358v-1382zM1112 473l-229 232l-234 -234l-47 51l232 232l-232 231l47 49l234 -231l229 229l51 -47l-231 -231l231 -232z" />
    <glyph glyph-name="Tcaron" unicode="&#x164;" 
d="M127 0v1536h1522v-1536h-1522zM209 78h1358v1382h-1358v-1382zM1112 473l-229 232l-234 -234l-47 51l232 232l-232 231l47 49l234 -231l229 229l51 -47l-231 -231l231 -232z" />
    <glyph glyph-name="tcaron" unicode="&#x165;" 
d="M127 0v1536h1522v-1536h-1522zM209 78h1358v1382h-1358v-1382zM1112 473l-229 232l-234 -234l-47 51l232 232l-232 231l47 49l234 -231l229 229l51 -47l-231 -231l231 -232z" />
    <glyph glyph-name="Tbar" unicode="&#x166;" 
d="M127 0v1536h1522v-1536h-1522zM209 78h1358v1382h-1358v-1382zM1112 473l-229 232l-234 -234l-47 51l232 232l-232 231l47 49l234 -231l229 229l51 -47l-231 -231l231 -232z" />
    <glyph glyph-name="tbar" unicode="&#x167;" 
d="M127 0v1536h1522v-1536h-1522zM209 78h1358v1382h-1358v-1382zM1112 473l-229 232l-234 -234l-47 51l232 232l-232 231l47 49l234 -231l229 229l51 -47l-231 -231l231 -232z" />
    <glyph glyph-name="Utilde" unicode="&#x168;" 
d="M127 0v1536h1522v-1536h-1522zM209 78h1358v1382h-1358v-1382zM1112 473l-229 232l-234 -234l-47 51l232 232l-232 231l47 49l234 -231l229 229l51 -47l-231 -231l231 -232z" />
    <glyph glyph-name="utilde" unicode="&#x169;" 
d="M127 0v1536h1522v-1536h-1522zM209 78h1358v1382h-1358v-1382zM1112 473l-229 232l-234 -234l-47 51l232 232l-232 231l47 49l234 -231l229 229l51 -47l-231 -231l231 -232z" />
    <glyph glyph-name="Umacron" unicode="&#x16a;" 
d="M127 0v1536h1522v-1536h-1522zM209 78h1358v1382h-1358v-1382zM1112 473l-229 232l-234 -234l-47 51l232 232l-232 231l47 49l234 -231l229 229l51 -47l-231 -231l231 -232z" />
    <glyph glyph-name="umacron" unicode="&#x16b;" 
d="M127 0v1536h1522v-1536h-1522zM209 78h1358v1382h-1358v-1382zM1112 473l-229 232l-234 -234l-47 51l232 232l-232 231l47 49l234 -231l229 229l51 -47l-231 -231l231 -232z" />
    <glyph glyph-name="Ubreve" unicode="&#x16c;" 
d="M127 0v1536h1522v-1536h-1522zM209 78h1358v1382h-1358v-1382zM1112 473l-229 232l-234 -234l-47 51l232 232l-232 231l47 49l234 -231l229 229l51 -47l-231 -231l231 -232z" />
    <glyph glyph-name="ubreve" unicode="&#x16d;" 
d="M127 0v1536h1522v-1536h-1522zM209 78h1358v1382h-1358v-1382zM1112 473l-229 232l-234 -234l-47 51l232 232l-232 231l47 49l234 -231l229 229l51 -47l-231 -231l231 -232z" />
    <glyph glyph-name="Uring" unicode="&#x16e;" 
d="M127 0v1536h1522v-1536h-1522zM209 78h1358v1382h-1358v-1382zM1112 473l-229 232l-234 -234l-47 51l232 232l-232 231l47 49l234 -231l229 229l51 -47l-231 -231l231 -232z" />
    <glyph glyph-name="uring" unicode="&#x16f;" 
d="M127 0v1536h1522v-1536h-1522zM209 78h1358v1382h-1358v-1382zM1112 473l-229 232l-234 -234l-47 51l232 232l-232 231l47 49l234 -231l229 229l51 -47l-231 -231l231 -232z" />
    <glyph glyph-name="Uhungarumlaut" unicode="&#x170;" 
d="M127 0v1536h1522v-1536h-1522zM209 78h1358v1382h-1358v-1382zM1112 473l-229 232l-234 -234l-47 51l232 232l-232 231l47 49l234 -231l229 229l51 -47l-231 -231l231 -232z" />
    <glyph glyph-name="uhungarumlaut" unicode="&#x171;" 
d="M127 0v1536h1522v-1536h-1522zM209 78h1358v1382h-1358v-1382zM1112 473l-229 232l-234 -234l-47 51l232 232l-232 231l47 49l234 -231l229 229l51 -47l-231 -231l231 -232z" />
    <glyph glyph-name="Uogonek" unicode="&#x172;" 
d="M127 0v1536h1522v-1536h-1522zM209 78h1358v1382h-1358v-1382zM1112 473l-229 232l-234 -234l-47 51l232 232l-232 231l47 49l234 -231l229 229l51 -47l-231 -231l231 -232z" />
    <glyph glyph-name="uogonek" unicode="&#x173;" 
d="M127 0v1536h1522v-1536h-1522zM209 78h1358v1382h-1358v-1382zM1112 473l-229 232l-234 -234l-47 51l232 232l-232 231l47 49l234 -231l229 229l51 -47l-231 -231l231 -232z" />
    <glyph glyph-name="Wcircumflex" unicode="&#x174;" 
d="M127 0v1536h1522v-1536h-1522zM209 78h1358v1382h-1358v-1382zM1112 473l-229 232l-234 -234l-47 51l232 232l-232 231l47 49l234 -231l229 229l51 -47l-231 -231l231 -232z" />
    <glyph glyph-name="wcircumflex" unicode="&#x175;" 
d="M127 0v1536h1522v-1536h-1522zM209 78h1358v1382h-1358v-1382zM1112 473l-229 232l-234 -234l-47 51l232 232l-232 231l47 49l234 -231l229 229l51 -47l-231 -231l231 -232z" />
    <glyph glyph-name="Ycircumflex" unicode="&#x176;" 
d="M127 0v1536h1522v-1536h-1522zM209 78h1358v1382h-1358v-1382zM1112 473l-229 232l-234 -234l-47 51l232 232l-232 231l47 49l234 -231l229 229l51 -47l-231 -231l231 -232z" />
    <glyph glyph-name="ycircumflex" unicode="&#x177;" 
d="M127 0v1536h1522v-1536h-1522zM209 78h1358v1382h-1358v-1382zM1112 473l-229 232l-234 -234l-47 51l232 232l-232 231l47 49l234 -231l229 229l51 -47l-231 -231l231 -232z" />
    <glyph glyph-name="Ydieresis" unicode="&#x178;" 
d="M127 0v1536h1522v-1536h-1522zM209 78h1358v1382h-1358v-1382zM1112 473l-229 232l-234 -234l-47 51l232 232l-232 231l47 49l234 -231l229 229l51 -47l-231 -231l231 -232z" />
    <glyph glyph-name="Zacute" unicode="&#x179;" 
d="M127 0v1536h1522v-1536h-1522zM209 78h1358v1382h-1358v-1382zM1112 473l-229 232l-234 -234l-47 51l232 232l-232 231l47 49l234 -231l229 229l51 -47l-231 -231l231 -232z" />
    <glyph glyph-name="zacute" unicode="&#x17a;" 
d="M127 0v1536h1522v-1536h-1522zM209 78h1358v1382h-1358v-1382zM1112 473l-229 232l-234 -234l-47 51l232 232l-232 231l47 49l234 -231l229 229l51 -47l-231 -231l231 -232z" />
    <glyph glyph-name="Zdotaccent" unicode="&#x17b;" 
d="M127 0v1536h1522v-1536h-1522zM209 78h1358v1382h-1358v-1382zM1112 473l-229 232l-234 -234l-47 51l232 232l-232 231l47 49l234 -231l229 229l51 -47l-231 -231l231 -232z" />
    <glyph glyph-name="zdotaccent" unicode="&#x17c;" 
d="M127 0v1536h1522v-1536h-1522zM209 78h1358v1382h-1358v-1382zM1112 473l-229 232l-234 -234l-47 51l232 232l-232 231l47 49l234 -231l229 229l51 -47l-231 -231l231 -232z" />
    <glyph glyph-name="Zcaron" unicode="&#x17d;" 
d="M127 0v1536h1522v-1536h-1522zM209 78h1358v1382h-1358v-1382zM1112 473l-229 232l-234 -234l-47 51l232 232l-232 231l47 49l234 -231l229 229l51 -47l-231 -231l231 -232z" />
    <glyph glyph-name="zcaron" unicode="&#x17e;" 
d="M127 0v1536h1522v-1536h-1522zM209 78h1358v1382h-1358v-1382zM1112 473l-229 232l-234 -234l-47 51l232 232l-232 231l47 49l234 -231l229 229l51 -47l-231 -231l231 -232z" />
    <glyph glyph-name="florin" unicode="&#x192;" 
d="M127 0v1536h1522v-1536h-1522zM209 78h1358v1382h-1358v-1382zM1112 473l-229 232l-234 -234l-47 51l232 232l-232 231l47 49l234 -231l229 229l51 -47l-231 -231l231 -232z" />
    <glyph glyph-name="Aringacute" unicode="&#x1fa;" 
d="M127 0v1536h1522v-1536h-1522zM209 78h1358v1382h-1358v-1382zM1112 473l-229 232l-234 -234l-47 51l232 232l-232 231l47 49l234 -231l229 229l51 -47l-231 -231l231 -232z" />
    <glyph glyph-name="aringacute" unicode="&#x1fb;" 
d="M127 0v1536h1522v-1536h-1522zM209 78h1358v1382h-1358v-1382zM1112 473l-229 232l-234 -234l-47 51l232 232l-232 231l47 49l234 -231l229 229l51 -47l-231 -231l231 -232z" />
    <glyph glyph-name="AEacute" unicode="&#x1fc;" 
d="M127 0v1536h1522v-1536h-1522zM209 78h1358v1382h-1358v-1382zM1112 473l-229 232l-234 -234l-47 51l232 232l-232 231l47 49l234 -231l229 229l51 -47l-231 -231l231 -232z" />
    <glyph glyph-name="aeacute" unicode="&#x1fd;" 
d="M127 0v1536h1522v-1536h-1522zM209 78h1358v1382h-1358v-1382zM1112 473l-229 232l-234 -234l-47 51l232 232l-232 231l47 49l234 -231l229 229l51 -47l-231 -231l231 -232z" />
    <glyph glyph-name="Oslashacute" unicode="&#x1fe;" 
d="M127 0v1536h1522v-1536h-1522zM209 78h1358v1382h-1358v-1382zM1112 473l-229 232l-234 -234l-47 51l232 232l-232 231l47 49l234 -231l229 229l51 -47l-231 -231l231 -232z" />
    <glyph glyph-name="oslashacute" unicode="&#x1ff;" 
d="M127 0v1536h1522v-1536h-1522zM209 78h1358v1382h-1358v-1382zM1112 473l-229 232l-234 -234l-47 51l232 232l-232 231l47 49l234 -231l229 229l51 -47l-231 -231l231 -232z" />
    <glyph glyph-name="Scommaaccent" unicode="&#x218;" 
d="M127 0v1536h1522v-1536h-1522zM209 78h1358v1382h-1358v-1382zM1112 473l-229 232l-234 -234l-47 51l232 232l-232 231l47 49l234 -231l229 229l51 -47l-231 -231l231 -232z" />
    <glyph glyph-name="scommaaccent" unicode="&#x219;" 
d="M127 0v1536h1522v-1536h-1522zM209 78h1358v1382h-1358v-1382zM1112 473l-229 232l-234 -234l-47 51l232 232l-232 231l47 49l234 -231l229 229l51 -47l-231 -231l231 -232z" />
    <glyph glyph-name="uni021A" unicode="&#x21a;" 
d="M127 0v1536h1522v-1536h-1522zM209 78h1358v1382h-1358v-1382zM1112 473l-229 232l-234 -234l-47 51l232 232l-232 231l47 49l234 -231l229 229l51 -47l-231 -231l231 -232z" />
    <glyph glyph-name="uni021B" unicode="&#x21b;" 
d="M127 0v1536h1522v-1536h-1522zM209 78h1358v1382h-1358v-1382zM1112 473l-229 232l-234 -234l-47 51l232 232l-232 231l47 49l234 -231l229 229l51 -47l-231 -231l231 -232z" />
    <glyph glyph-name="circumflex" unicode="&#x2c6;" 
d="M127 0v1536h1522v-1536h-1522zM209 78h1358v1382h-1358v-1382zM1112 473l-229 232l-234 -234l-47 51l232 232l-232 231l47 49l234 -231l229 229l51 -47l-231 -231l231 -232z" />
    <glyph glyph-name="caron" unicode="&#x2c7;" 
d="M127 0v1536h1522v-1536h-1522zM209 78h1358v1382h-1358v-1382zM1112 473l-229 232l-234 -234l-47 51l232 232l-232 231l47 49l234 -231l229 229l51 -47l-231 -231l231 -232z" />
    <glyph glyph-name="breve" unicode="&#x2d8;" 
d="M127 0v1536h1522v-1536h-1522zM209 78h1358v1382h-1358v-1382zM1112 473l-229 232l-234 -234l-47 51l232 232l-232 231l47 49l234 -231l229 229l51 -47l-231 -231l231 -232z" />
    <glyph glyph-name="dotaccent" unicode="&#x2d9;" 
d="M127 0v1536h1522v-1536h-1522zM209 78h1358v1382h-1358v-1382zM1112 473l-229 232l-234 -234l-47 51l232 232l-232 231l47 49l234 -231l229 229l51 -47l-231 -231l231 -232z" />
    <glyph glyph-name="ring" unicode="&#x2da;" 
d="M127 0v1536h1522v-1536h-1522zM209 78h1358v1382h-1358v-1382zM1112 473l-229 232l-234 -234l-47 51l232 232l-232 231l47 49l234 -231l229 229l51 -47l-231 -231l231 -232z" />
    <glyph glyph-name="ogonek" unicode="&#x2db;" 
d="M127 0v1536h1522v-1536h-1522zM209 78h1358v1382h-1358v-1382zM1112 473l-229 232l-234 -234l-47 51l232 232l-232 231l47 49l234 -231l229 229l51 -47l-231 -231l231 -232z" />
    <glyph glyph-name="tilde" unicode="&#x2dc;" 
d="M127 0v1536h1522v-1536h-1522zM209 78h1358v1382h-1358v-1382zM1112 473l-229 232l-234 -234l-47 51l232 232l-232 231l47 49l234 -231l229 229l51 -47l-231 -231l231 -232z" />
    <glyph glyph-name="hungarumlaut" unicode="&#x2dd;" 
d="M127 0v1536h1522v-1536h-1522zM209 78h1358v1382h-1358v-1382zM1112 473l-229 232l-234 -234l-47 51l232 232l-232 231l47 49l234 -231l229 229l51 -47l-231 -231l231 -232z" />
    <glyph glyph-name="gravecomb" unicode="&#x300;" 
d="M127 0v1536h1522v-1536h-1522zM209 78h1358v1382h-1358v-1382zM1112 473l-229 232l-234 -234l-47 51l232 232l-232 231l47 49l234 -231l229 229l51 -47l-231 -231l231 -232z" />
    <glyph glyph-name="acutecomb" unicode="&#x301;" 
d="M127 0v1536h1522v-1536h-1522zM209 78h1358v1382h-1358v-1382zM1112 473l-229 232l-234 -234l-47 51l232 232l-232 231l47 49l234 -231l229 229l51 -47l-231 -231l231 -232z" />
    <glyph glyph-name="circumflexcomb" unicode="&#x302;" 
d="M127 0v1536h1522v-1536h-1522zM209 78h1358v1382h-1358v-1382zM1112 473l-229 232l-234 -234l-47 51l232 232l-232 231l47 49l234 -231l229 229l51 -47l-231 -231l231 -232z" />
    <glyph glyph-name="tildecomb" unicode="&#x303;" 
d="M127 0v1536h1522v-1536h-1522zM209 78h1358v1382h-1358v-1382zM1112 473l-229 232l-234 -234l-47 51l232 232l-232 231l47 49l234 -231l229 229l51 -47l-231 -231l231 -232z" />
    <glyph glyph-name="macroncomb" unicode="&#x304;" 
d="M127 0v1536h1522v-1536h-1522zM209 78h1358v1382h-1358v-1382zM1112 473l-229 232l-234 -234l-47 51l232 232l-232 231l47 49l234 -231l229 229l51 -47l-231 -231l231 -232z" />
    <glyph glyph-name="brevecomb" unicode="&#x306;" 
d="M127 0v1536h1522v-1536h-1522zM209 78h1358v1382h-1358v-1382zM1112 473l-229 232l-234 -234l-47 51l232 232l-232 231l47 49l234 -231l229 229l51 -47l-231 -231l231 -232z" />
    <glyph glyph-name="dotaccentcomb" unicode="&#x307;" 
d="M127 0v1536h1522v-1536h-1522zM209 78h1358v1382h-1358v-1382zM1112 473l-229 232l-234 -234l-47 51l232 232l-232 231l47 49l234 -231l229 229l51 -47l-231 -231l231 -232z" />
    <glyph glyph-name="dieresiscomb" unicode="&#x308;" 
d="M127 0v1536h1522v-1536h-1522zM209 78h1358v1382h-1358v-1382zM1112 473l-229 232l-234 -234l-47 51l232 232l-232 231l47 49l234 -231l229 229l51 -47l-231 -231l231 -232z" />
    <glyph glyph-name="ringcomb" unicode="&#x30a;" 
d="M127 0v1536h1522v-1536h-1522zM209 78h1358v1382h-1358v-1382zM1112 473l-229 232l-234 -234l-47 51l232 232l-232 231l47 49l234 -231l229 229l51 -47l-231 -231l231 -232z" />
    <glyph glyph-name="hungarumlautcomb" unicode="&#x30b;" 
d="M127 0v1536h1522v-1536h-1522zM209 78h1358v1382h-1358v-1382zM1112 473l-229 232l-234 -234l-47 51l232 232l-232 231l47 49l234 -231l229 229l51 -47l-231 -231l231 -232z" />
    <glyph glyph-name="caroncomb" unicode="&#x30c;" 
d="M127 0v1536h1522v-1536h-1522zM209 78h1358v1382h-1358v-1382zM1112 473l-229 232l-234 -234l-47 51l232 232l-232 231l47 49l234 -231l229 229l51 -47l-231 -231l231 -232z" />
    <glyph glyph-name="commaaccentcomb" unicode="&#x326;" 
d="M127 0v1536h1522v-1536h-1522zM209 78h1358v1382h-1358v-1382zM1112 473l-229 232l-234 -234l-47 51l232 232l-232 231l47 49l234 -231l229 229l51 -47l-231 -231l231 -232z" />
    <glyph glyph-name="cedillacomb" unicode="&#x327;" 
d="M127 0v1536h1522v-1536h-1522zM209 78h1358v1382h-1358v-1382zM1112 473l-229 232l-234 -234l-47 51l232 232l-232 231l47 49l234 -231l229 229l51 -47l-231 -231l231 -232z" />
    <glyph glyph-name="ogonekcomb" unicode="&#x328;" 
d="M127 0v1536h1522v-1536h-1522zM209 78h1358v1382h-1358v-1382zM1112 473l-229 232l-234 -234l-47 51l232 232l-232 231l47 49l234 -231l229 229l51 -47l-231 -231l231 -232z" />
    <glyph glyph-name="pi" unicode="&#x3c0;" 
d="M127 0v1536h1522v-1536h-1522zM209 78h1358v1382h-1358v-1382zM1112 473l-229 232l-234 -234l-47 51l232 232l-232 231l47 49l234 -231l229 229l51 -47l-231 -231l231 -232z" />
    <glyph glyph-name="Wgrave" unicode="&#x1e80;" 
d="M127 0v1536h1522v-1536h-1522zM209 78h1358v1382h-1358v-1382zM1112 473l-229 232l-234 -234l-47 51l232 232l-232 231l47 49l234 -231l229 229l51 -47l-231 -231l231 -232z" />
    <glyph glyph-name="wgrave" unicode="&#x1e81;" 
d="M127 0v1536h1522v-1536h-1522zM209 78h1358v1382h-1358v-1382zM1112 473l-229 232l-234 -234l-47 51l232 232l-232 231l47 49l234 -231l229 229l51 -47l-231 -231l231 -232z" />
    <glyph glyph-name="Wacute" unicode="&#x1e82;" 
d="M127 0v1536h1522v-1536h-1522zM209 78h1358v1382h-1358v-1382zM1112 473l-229 232l-234 -234l-47 51l232 232l-232 231l47 49l234 -231l229 229l51 -47l-231 -231l231 -232z" />
    <glyph glyph-name="wacute" unicode="&#x1e83;" 
d="M127 0v1536h1522v-1536h-1522zM209 78h1358v1382h-1358v-1382zM1112 473l-229 232l-234 -234l-47 51l232 232l-232 231l47 49l234 -231l229 229l51 -47l-231 -231l231 -232z" />
    <glyph glyph-name="Wdieresis" unicode="&#x1e84;" 
d="M127 0v1536h1522v-1536h-1522zM209 78h1358v1382h-1358v-1382zM1112 473l-229 232l-234 -234l-47 51l232 232l-232 231l47 49l234 -231l229 229l51 -47l-231 -231l231 -232z" />
    <glyph glyph-name="wdieresis" unicode="&#x1e85;" 
d="M127 0v1536h1522v-1536h-1522zM209 78h1358v1382h-1358v-1382zM1112 473l-229 232l-234 -234l-47 51l232 232l-232 231l47 49l234 -231l229 229l51 -47l-231 -231l231 -232z" />
    <glyph glyph-name="uni1E9E" unicode="&#x1e9e;" 
d="M127 0v1536h1522v-1536h-1522zM209 78h1358v1382h-1358v-1382zM1112 473l-229 232l-234 -234l-47 51l232 232l-232 231l47 49l234 -231l229 229l51 -47l-231 -231l231 -232z" />
    <glyph glyph-name="Ygrave" unicode="&#x1ef2;" 
d="M127 0v1536h1522v-1536h-1522zM209 78h1358v1382h-1358v-1382zM1112 473l-229 232l-234 -234l-47 51l232 232l-232 231l47 49l234 -231l229 229l51 -47l-231 -231l231 -232z" />
    <glyph glyph-name="ygrave" unicode="&#x1ef3;" 
d="M127 0v1536h1522v-1536h-1522zM209 78h1358v1382h-1358v-1382zM1112 473l-229 232l-234 -234l-47 51l232 232l-232 231l47 49l234 -231l229 229l51 -47l-231 -231l231 -232z" />
    <glyph glyph-name="endash" unicode="&#x2013;" 
d="M127 0v1536h1522v-1536h-1522zM209 78h1358v1382h-1358v-1382zM1112 473l-229 232l-234 -234l-47 51l232 232l-232 231l47 49l234 -231l229 229l51 -47l-231 -231l231 -232z" />
    <glyph glyph-name="emdash" unicode="&#x2014;" 
d="M127 0v1536h1522v-1536h-1522zM209 78h1358v1382h-1358v-1382zM1112 473l-229 232l-234 -234l-47 51l232 232l-232 231l47 49l234 -231l229 229l51 -47l-231 -231l231 -232z" />
    <glyph glyph-name="quoteleft" unicode="&#x2018;" 
d="M127 0v1536h1522v-1536h-1522zM209 78h1358v1382h-1358v-1382zM1112 473l-229 232l-234 -234l-47 51l232 232l-232 231l47 49l234 -231l229 229l51 -47l-231 -231l231 -232z" />
    <glyph glyph-name="quoteright" unicode="&#x2019;" 
d="M127 0v1536h1522v-1536h-1522zM209 78h1358v1382h-1358v-1382zM1112 473l-229 232l-234 -234l-47 51l232 232l-232 231l47 49l234 -231l229 229l51 -47l-231 -231l231 -232z" />
    <glyph glyph-name="quotesinglbase" unicode="&#x201a;" 
d="M127 0v1536h1522v-1536h-1522zM209 78h1358v1382h-1358v-1382zM1112 473l-229 232l-234 -234l-47 51l232 232l-232 231l47 49l234 -231l229 229l51 -47l-231 -231l231 -232z" />
    <glyph glyph-name="quotedblleft" unicode="&#x201c;" 
d="M127 0v1536h1522v-1536h-1522zM209 78h1358v1382h-1358v-1382zM1112 473l-229 232l-234 -234l-47 51l232 232l-232 231l47 49l234 -231l229 229l51 -47l-231 -231l231 -232z" />
    <glyph glyph-name="quotedblright" unicode="&#x201d;" 
d="M127 0v1536h1522v-1536h-1522zM209 78h1358v1382h-1358v-1382zM1112 473l-229 232l-234 -234l-47 51l232 232l-232 231l47 49l234 -231l229 229l51 -47l-231 -231l231 -232z" />
    <glyph glyph-name="quotedblbase" unicode="&#x201e;" 
d="M127 0v1536h1522v-1536h-1522zM209 78h1358v1382h-1358v-1382zM1112 473l-229 232l-234 -234l-47 51l232 232l-232 231l47 49l234 -231l229 229l51 -47l-231 -231l231 -232z" />
    <glyph glyph-name="dagger" unicode="&#x2020;" 
d="M127 0v1536h1522v-1536h-1522zM209 78h1358v1382h-1358v-1382zM1112 473l-229 232l-234 -234l-47 51l232 232l-232 231l47 49l234 -231l229 229l51 -47l-231 -231l231 -232z" />
    <glyph glyph-name="daggerdbl" unicode="&#x2021;" 
d="M127 0v1536h1522v-1536h-1522zM209 78h1358v1382h-1358v-1382zM1112 473l-229 232l-234 -234l-47 51l232 232l-232 231l47 49l234 -231l229 229l51 -47l-231 -231l231 -232z" />
    <glyph glyph-name="bullet" unicode="&#x2022;" 
d="M127 0v1536h1522v-1536h-1522zM209 78h1358v1382h-1358v-1382zM1112 473l-229 232l-234 -234l-47 51l232 232l-232 231l47 49l234 -231l229 229l51 -47l-231 -231l231 -232z" />
    <glyph glyph-name="ellipsis" unicode="&#x2026;" 
d="M127 0v1536h1522v-1536h-1522zM209 78h1358v1382h-1358v-1382zM1112 473l-229 232l-234 -234l-47 51l232 232l-232 231l47 49l234 -231l229 229l51 -47l-231 -231l231 -232z" />
    <glyph glyph-name="perthousand" unicode="&#x2030;" 
d="M127 0v1536h1522v-1536h-1522zM209 78h1358v1382h-1358v-1382zM1112 473l-229 232l-234 -234l-47 51l232 232l-232 231l47 49l234 -231l229 229l51 -47l-231 -231l231 -232z" />
    <glyph glyph-name="guilsinglleft" unicode="&#x2039;" 
d="M127 0v1536h1522v-1536h-1522zM209 78h1358v1382h-1358v-1382zM1112 473l-229 232l-234 -234l-47 51l232 232l-232 231l47 49l234 -231l229 229l51 -47l-231 -231l231 -232z" />
    <glyph glyph-name="guilsinglright" unicode="&#x203a;" 
d="M127 0v1536h1522v-1536h-1522zM209 78h1358v1382h-1358v-1382zM1112 473l-229 232l-234 -234l-47 51l232 232l-232 231l47 49l234 -231l229 229l51 -47l-231 -231l231 -232z" />
    <glyph glyph-name="fraction" unicode="&#x2044;" 
d="M127 0v1536h1522v-1536h-1522zM209 78h1358v1382h-1358v-1382zM1112 473l-229 232l-234 -234l-47 51l232 232l-232 231l47 49l234 -231l229 229l51 -47l-231 -231l231 -232z" />
    <glyph glyph-name="Euro" unicode="&#x20ac;" 
d="M127 0v1536h1522v-1536h-1522zM209 78h1358v1382h-1358v-1382zM1112 473l-229 232l-234 -234l-47 51l232 232l-232 231l47 49l234 -231l229 229l51 -47l-231 -231l231 -232z" />
    <glyph glyph-name="uni2116" unicode="&#x2116;" 
d="M127 0v1536h1522v-1536h-1522zM209 78h1358v1382h-1358v-1382zM1112 473l-229 232l-234 -234l-47 51l232 232l-232 231l47 49l234 -231l229 229l51 -47l-231 -231l231 -232z" />
    <glyph glyph-name="uni2117" unicode="&#x2117;" 
d="M127 0v1536h1522v-1536h-1522zM209 78h1358v1382h-1358v-1382zM1112 473l-229 232l-234 -234l-47 51l232 232l-232 231l47 49l234 -231l229 229l51 -47l-231 -231l231 -232z" />
    <glyph glyph-name="uni2120" unicode="&#x2120;" 
d="M127 0v1536h1522v-1536h-1522zM209 78h1358v1382h-1358v-1382zM1112 473l-229 232l-234 -234l-47 51l232 232l-232 231l47 49l234 -231l229 229l51 -47l-231 -231l231 -232z" />
    <glyph glyph-name="trademark" unicode="&#x2122;" 
d="M127 0v1536h1522v-1536h-1522zM209 78h1358v1382h-1358v-1382zM1112 473l-229 232l-234 -234l-47 51l232 232l-232 231l47 49l234 -231l229 229l51 -47l-231 -231l231 -232z" />
    <glyph glyph-name="uni2150" unicode="&#x2150;" 
d="M127 0v1536h1522v-1536h-1522zM209 78h1358v1382h-1358v-1382zM1112 473l-229 232l-234 -234l-47 51l232 232l-232 231l47 49l234 -231l229 229l51 -47l-231 -231l231 -232z" />
    <glyph glyph-name="uni2151" unicode="&#x2151;" 
d="M127 0v1536h1522v-1536h-1522zM209 78h1358v1382h-1358v-1382zM1112 473l-229 232l-234 -234l-47 51l232 232l-232 231l47 49l234 -231l229 229l51 -47l-231 -231l231 -232z" />
    <glyph glyph-name="uni2153" unicode="&#x2153;" 
d="M127 0v1536h1522v-1536h-1522zM209 78h1358v1382h-1358v-1382zM1112 473l-229 232l-234 -234l-47 51l232 232l-232 231l47 49l234 -231l229 229l51 -47l-231 -231l231 -232z" />
    <glyph glyph-name="uni2154" unicode="&#x2154;" 
d="M127 0v1536h1522v-1536h-1522zM209 78h1358v1382h-1358v-1382zM1112 473l-229 232l-234 -234l-47 51l232 232l-232 231l47 49l234 -231l229 229l51 -47l-231 -231l231 -232z" />
    <glyph glyph-name="uni2155" unicode="&#x2155;" 
d="M127 0v1536h1522v-1536h-1522zM209 78h1358v1382h-1358v-1382zM1112 473l-229 232l-234 -234l-47 51l232 232l-232 231l47 49l234 -231l229 229l51 -47l-231 -231l231 -232z" />
    <glyph glyph-name="uni2156" unicode="&#x2156;" 
d="M127 0v1536h1522v-1536h-1522zM209 78h1358v1382h-1358v-1382zM1112 473l-229 232l-234 -234l-47 51l232 232l-232 231l47 49l234 -231l229 229l51 -47l-231 -231l231 -232z" />
    <glyph glyph-name="uni2157" unicode="&#x2157;" 
d="M127 0v1536h1522v-1536h-1522zM209 78h1358v1382h-1358v-1382zM1112 473l-229 232l-234 -234l-47 51l232 232l-232 231l47 49l234 -231l229 229l51 -47l-231 -231l231 -232z" />
    <glyph glyph-name="uni2158" unicode="&#x2158;" 
d="M127 0v1536h1522v-1536h-1522zM209 78h1358v1382h-1358v-1382zM1112 473l-229 232l-234 -234l-47 51l232 232l-232 231l47 49l234 -231l229 229l51 -47l-231 -231l231 -232z" />
    <glyph glyph-name="uni2159" unicode="&#x2159;" 
d="M127 0v1536h1522v-1536h-1522zM209 78h1358v1382h-1358v-1382zM1112 473l-229 232l-234 -234l-47 51l232 232l-232 231l47 49l234 -231l229 229l51 -47l-231 -231l231 -232z" />
    <glyph glyph-name="oneeighth" unicode="&#x215b;" 
d="M127 0v1536h1522v-1536h-1522zM209 78h1358v1382h-1358v-1382zM1112 473l-229 232l-234 -234l-47 51l232 232l-232 231l47 49l234 -231l229 229l51 -47l-231 -231l231 -232z" />
    <glyph glyph-name="arrowleft" unicode="&#x2190;" 
d="M127 0v1536h1522v-1536h-1522zM209 78h1358v1382h-1358v-1382zM1112 473l-229 232l-234 -234l-47 51l232 232l-232 231l47 49l234 -231l229 229l51 -47l-231 -231l231 -232z" />
    <glyph glyph-name="arrowup" unicode="&#x2191;" 
d="M127 0v1536h1522v-1536h-1522zM209 78h1358v1382h-1358v-1382zM1112 473l-229 232l-234 -234l-47 51l232 232l-232 231l47 49l234 -231l229 229l51 -47l-231 -231l231 -232z" />
    <glyph glyph-name="arrowright" unicode="&#x2192;" 
d="M127 0v1536h1522v-1536h-1522zM209 78h1358v1382h-1358v-1382zM1112 473l-229 232l-234 -234l-47 51l232 232l-232 231l47 49l234 -231l229 229l51 -47l-231 -231l231 -232z" />
    <glyph glyph-name="arrowdown" unicode="&#x2193;" 
d="M127 0v1536h1522v-1536h-1522zM209 78h1358v1382h-1358v-1382zM1112 473l-229 232l-234 -234l-47 51l232 232l-232 231l47 49l234 -231l229 229l51 -47l-231 -231l231 -232z" />
    <glyph glyph-name="arrowboth" unicode="&#x2194;" 
d="M127 0v1536h1522v-1536h-1522zM209 78h1358v1382h-1358v-1382zM1112 473l-229 232l-234 -234l-47 51l232 232l-232 231l47 49l234 -231l229 229l51 -47l-231 -231l231 -232z" />
    <glyph glyph-name="arrowupdn" unicode="&#x2195;" 
d="M127 0v1536h1522v-1536h-1522zM209 78h1358v1382h-1358v-1382zM1112 473l-229 232l-234 -234l-47 51l232 232l-232 231l47 49l234 -231l229 229l51 -47l-231 -231l231 -232z" />
    <glyph glyph-name="uni2196" unicode="&#x2196;" 
d="M127 0v1536h1522v-1536h-1522zM209 78h1358v1382h-1358v-1382zM1112 473l-229 232l-234 -234l-47 51l232 232l-232 231l47 49l234 -231l229 229l51 -47l-231 -231l231 -232z" />
    <glyph glyph-name="uni2197" unicode="&#x2197;" 
d="M127 0v1536h1522v-1536h-1522zM209 78h1358v1382h-1358v-1382zM1112 473l-229 232l-234 -234l-47 51l232 232l-232 231l47 49l234 -231l229 229l51 -47l-231 -231l231 -232z" />
    <glyph glyph-name="uni2198" unicode="&#x2198;" 
d="M127 0v1536h1522v-1536h-1522zM209 78h1358v1382h-1358v-1382zM1112 473l-229 232l-234 -234l-47 51l232 232l-232 231l47 49l234 -231l229 229l51 -47l-231 -231l231 -232z" />
    <glyph glyph-name="uni2199" unicode="&#x2199;" 
d="M127 0v1536h1522v-1536h-1522zM209 78h1358v1382h-1358v-1382zM1112 473l-229 232l-234 -234l-47 51l232 232l-232 231l47 49l234 -231l229 229l51 -47l-231 -231l231 -232z" />
    <glyph glyph-name="minus" unicode="&#x2212;" 
d="M127 0v1536h1522v-1536h-1522zM209 78h1358v1382h-1358v-1382zM1112 473l-229 232l-234 -234l-47 51l232 232l-232 231l47 49l234 -231l229 229l51 -47l-231 -231l231 -232z" />
    <glyph glyph-name="infinity" unicode="&#x221e;" 
d="M127 0v1536h1522v-1536h-1522zM209 78h1358v1382h-1358v-1382zM1112 473l-229 232l-234 -234l-47 51l232 232l-232 231l47 49l234 -231l229 229l51 -47l-231 -231l231 -232z" />
    <glyph glyph-name="approxequal" unicode="&#x2248;" 
d="M127 0v1536h1522v-1536h-1522zM209 78h1358v1382h-1358v-1382zM1112 473l-229 232l-234 -234l-47 51l232 232l-232 231l47 49l234 -231l229 229l51 -47l-231 -231l231 -232z" />
    <glyph glyph-name="notequal" unicode="&#x2260;" 
d="M127 0v1536h1522v-1536h-1522zM209 78h1358v1382h-1358v-1382zM1112 473l-229 232l-234 -234l-47 51l232 232l-232 231l47 49l234 -231l229 229l51 -47l-231 -231l231 -232z" />
    <glyph glyph-name="lessequal" unicode="&#x2264;" 
d="M127 0v1536h1522v-1536h-1522zM209 78h1358v1382h-1358v-1382zM1112 473l-229 232l-234 -234l-47 51l232 232l-232 231l47 49l234 -231l229 229l51 -47l-231 -231l231 -232z" />
    <glyph glyph-name="greaterequal" unicode="&#x2265;" 
d="M127 0v1536h1522v-1536h-1522zM209 78h1358v1382h-1358v-1382zM1112 473l-229 232l-234 -234l-47 51l232 232l-232 231l47 49l234 -231l229 229l51 -47l-231 -231l231 -232z" />
    <glyph glyph-name="house" unicode="&#x2302;" 
d="M127 0v1536h1522v-1536h-1522zM209 78h1358v1382h-1358v-1382zM1112 473l-229 232l-234 -234l-47 51l232 232l-232 231l47 49l234 -231l229 229l51 -47l-231 -231l231 -232z" />
    <glyph glyph-name="blacksquare" unicode="&#x25a0;" 
d="M127 0v1536h1522v-1536h-1522zM209 78h1358v1382h-1358v-1382zM1112 473l-229 232l-234 -234l-47 51l232 232l-232 231l47 49l234 -231l229 229l51 -47l-231 -231l231 -232z" />
    <glyph glyph-name="whitesquare" unicode="&#x25a1;" 
d="M127 0v1536h1522v-1536h-1522zM209 78h1358v1382h-1358v-1382zM1112 473l-229 232l-234 -234l-47 51l232 232l-232 231l47 49l234 -231l229 229l51 -47l-231 -231l231 -232z" />
    <glyph glyph-name="blacksmallsquare" unicode="&#x25aa;" 
d="M127 0v1536h1522v-1536h-1522zM209 78h1358v1382h-1358v-1382zM1112 473l-229 232l-234 -234l-47 51l232 232l-232 231l47 49l234 -231l229 229l51 -47l-231 -231l231 -232z" />
    <glyph glyph-name="whitesmallsquare" unicode="&#x25ab;" 
d="M127 0v1536h1522v-1536h-1522zM209 78h1358v1382h-1358v-1382zM1112 473l-229 232l-234 -234l-47 51l232 232l-232 231l47 49l234 -231l229 229l51 -47l-231 -231l231 -232z" />
    <glyph glyph-name="triagup" unicode="&#x25b2;" 
d="M127 0v1536h1522v-1536h-1522zM209 78h1358v1382h-1358v-1382zM1112 473l-229 232l-234 -234l-47 51l232 232l-232 231l47 49l234 -231l229 229l51 -47l-231 -231l231 -232z" />
    <glyph glyph-name="triagrt" unicode="&#x25ba;" 
d="M127 0v1536h1522v-1536h-1522zM209 78h1358v1382h-1358v-1382zM1112 473l-229 232l-234 -234l-47 51l232 232l-232 231l47 49l234 -231l229 229l51 -47l-231 -231l231 -232z" />
    <glyph glyph-name="triagdn" unicode="&#x25bc;" 
d="M127 0v1536h1522v-1536h-1522zM209 78h1358v1382h-1358v-1382zM1112 473l-229 232l-234 -234l-47 51l232 232l-232 231l47 49l234 -231l229 229l51 -47l-231 -231l231 -232z" />
    <glyph glyph-name="triaglf" unicode="&#x25c4;" 
d="M127 0v1536h1522v-1536h-1522zM209 78h1358v1382h-1358v-1382zM1112 473l-229 232l-234 -234l-47 51l232 232l-232 231l47 49l234 -231l229 229l51 -47l-231 -231l231 -232z" />
    <glyph glyph-name="whitecircle" unicode="&#x25cb;" 
d="M127 0v1536h1522v-1536h-1522zM209 78h1358v1382h-1358v-1382zM1112 473l-229 232l-234 -234l-47 51l232 232l-232 231l47 49l234 -231l229 229l51 -47l-231 -231l231 -232z" />
    <glyph glyph-name="blackcircle" unicode="&#x25cf;" 
d="M127 0v1536h1522v-1536h-1522zM209 78h1358v1382h-1358v-1382zM1112 473l-229 232l-234 -234l-47 51l232 232l-232 231l47 49l234 -231l229 229l51 -47l-231 -231l231 -232z" />
    <glyph glyph-name="mediumwhitecircle" unicode="&#x26ac;" 
d="M127 0v1536h1522v-1536h-1522zM209 78h1358v1382h-1358v-1382zM1112 473l-229 232l-234 -234l-47 51l232 232l-232 231l47 49l234 -231l229 229l51 -47l-231 -231l231 -232z" />
    <glyph glyph-name="dotlessj" unicode="&#xf6be;" 
d="M127 0v1536h1522v-1536h-1522zM209 78h1358v1382h-1358v-1382zM1112 473l-229 232l-234 -234l-47 51l232 232l-232 231l47 49l234 -231l229 229l51 -47l-231 -231l231 -232z" />
    <glyph glyph-name="fi" unicode="&#xfb01;" 
d="M127 0v1536h1522v-1536h-1522zM209 78h1358v1382h-1358v-1382zM1112 473l-229 232l-234 -234l-47 51l232 232l-232 231l47 49l234 -231l229 229l51 -47l-231 -231l231 -232z" />
    <glyph glyph-name="fl" unicode="&#xfb02;" 
d="M127 0v1536h1522v-1536h-1522zM209 78h1358v1382h-1358v-1382zM1112 473l-229 232l-234 -234l-47 51l232 232l-232 231l47 49l234 -231l229 229l51 -47l-231 -231l231 -232z" />
    <glyph glyph-name="zero.numr" 
d="M127 0v1536h1522v-1536h-1522zM209 78h1358v1382h-1358v-1382zM1112 473l-229 232l-234 -234l-47 51l232 232l-232 231l47 49l234 -231l229 229l51 -47l-231 -231l231 -232z" />
    <glyph glyph-name="one.numr" 
d="M127 0v1536h1522v-1536h-1522zM209 78h1358v1382h-1358v-1382zM1112 473l-229 232l-234 -234l-47 51l232 232l-232 231l47 49l234 -231l229 229l51 -47l-231 -231l231 -232z" />
    <glyph glyph-name="two.numr" 
d="M127 0v1536h1522v-1536h-1522zM209 78h1358v1382h-1358v-1382zM1112 473l-229 232l-234 -234l-47 51l232 232l-232 231l47 49l234 -231l229 229l51 -47l-231 -231l231 -232z" />
    <glyph glyph-name="three.numr" 
d="M127 0v1536h1522v-1536h-1522zM209 78h1358v1382h-1358v-1382zM1112 473l-229 232l-234 -234l-47 51l232 232l-232 231l47 49l234 -231l229 229l51 -47l-231 -231l231 -232z" />
    <glyph glyph-name="four.numr" 
d="M127 0v1536h1522v-1536h-1522zM209 78h1358v1382h-1358v-1382zM1112 473l-229 232l-234 -234l-47 51l232 232l-232 231l47 49l234 -231l229 229l51 -47l-231 -231l231 -232z" />
    <glyph glyph-name="five.numr" 
d="M127 0v1536h1522v-1536h-1522zM209 78h1358v1382h-1358v-1382zM1112 473l-229 232l-234 -234l-47 51l232 232l-232 231l47 49l234 -231l229 229l51 -47l-231 -231l231 -232z" />
    <glyph glyph-name="six.numr" 
d="M127 0v1536h1522v-1536h-1522zM209 78h1358v1382h-1358v-1382zM1112 473l-229 232l-234 -234l-47 51l232 232l-232 231l47 49l234 -231l229 229l51 -47l-231 -231l231 -232z" />
    <glyph glyph-name="seven.numr" 
d="M127 0v1536h1522v-1536h-1522zM209 78h1358v1382h-1358v-1382zM1112 473l-229 232l-234 -234l-47 51l232 232l-232 231l47 49l234 -231l229 229l51 -47l-231 -231l231 -232z" />
    <glyph glyph-name="eight.numr" 
d="M127 0v1536h1522v-1536h-1522zM209 78h1358v1382h-1358v-1382zM1112 473l-229 232l-234 -234l-47 51l232 232l-232 231l47 49l234 -231l229 229l51 -47l-231 -231l231 -232z" />
    <glyph glyph-name="nine.numr" 
d="M127 0v1536h1522v-1536h-1522zM209 78h1358v1382h-1358v-1382zM1112 473l-229 232l-234 -234l-47 51l232 232l-232 231l47 49l234 -231l229 229l51 -47l-231 -231l231 -232z" />
    <glyph glyph-name="zero.dnom" 
d="M127 0v1536h1522v-1536h-1522zM209 78h1358v1382h-1358v-1382zM1112 473l-229 232l-234 -234l-47 51l232 232l-232 231l47 49l234 -231l229 229l51 -47l-231 -231l231 -232z" />
    <glyph glyph-name="one.dnom" 
d="M127 0v1536h1522v-1536h-1522zM209 78h1358v1382h-1358v-1382zM1112 473l-229 232l-234 -234l-47 51l232 232l-232 231l47 49l234 -231l229 229l51 -47l-231 -231l231 -232z" />
    <glyph glyph-name="two.dnom" 
d="M127 0v1536h1522v-1536h-1522zM209 78h1358v1382h-1358v-1382zM1112 473l-229 232l-234 -234l-47 51l232 232l-232 231l47 49l234 -231l229 229l51 -47l-231 -231l231 -232z" />
    <glyph glyph-name="three.dnom" 
d="M127 0v1536h1522v-1536h-1522zM209 78h1358v1382h-1358v-1382zM1112 473l-229 232l-234 -234l-47 51l232 232l-232 231l47 49l234 -231l229 229l51 -47l-231 -231l231 -232z" />
    <glyph glyph-name="four.dnom" 
d="M127 0v1536h1522v-1536h-1522zM209 78h1358v1382h-1358v-1382zM1112 473l-229 232l-234 -234l-47 51l232 232l-232 231l47 49l234 -231l229 229l51 -47l-231 -231l231 -232z" />
    <glyph glyph-name="five.dnom" 
d="M127 0v1536h1522v-1536h-1522zM209 78h1358v1382h-1358v-1382zM1112 473l-229 232l-234 -234l-47 51l232 232l-232 231l47 49l234 -231l229 229l51 -47l-231 -231l231 -232z" />
    <glyph glyph-name="six.dnom" 
d="M127 0v1536h1522v-1536h-1522zM209 78h1358v1382h-1358v-1382zM1112 473l-229 232l-234 -234l-47 51l232 232l-232 231l47 49l234 -231l229 229l51 -47l-231 -231l231 -232z" />
    <glyph glyph-name="seven.dnom" 
d="M127 0v1536h1522v-1536h-1522zM209 78h1358v1382h-1358v-1382zM1112 473l-229 232l-234 -234l-47 51l232 232l-232 231l47 49l234 -231l229 229l51 -47l-231 -231l231 -232z" />
    <glyph glyph-name="eight.dnom" 
d="M127 0v1536h1522v-1536h-1522zM209 78h1358v1382h-1358v-1382zM1112 473l-229 232l-234 -234l-47 51l232 232l-232 231l47 49l234 -231l229 229l51 -47l-231 -231l231 -232z" />
    <glyph glyph-name="nine.dnom" 
d="M127 0v1536h1522v-1536h-1522zM209 78h1358v1382h-1358v-1382zM1112 473l-229 232l-234 -234l-47 51l232 232l-232 231l47 49l234 -231l229 229l51 -47l-231 -231l231 -232z" />
    <glyph glyph-name="zero.sups" 
d="M127 0v1536h1522v-1536h-1522zM209 78h1358v1382h-1358v-1382zM1112 473l-229 232l-234 -234l-47 51l232 232l-232 231l47 49l234 -231l229 229l51 -47l-231 -231l231 -232z" />
    <glyph glyph-name="one.sups" 
d="M127 0v1536h1522v-1536h-1522zM209 78h1358v1382h-1358v-1382zM1112 473l-229 232l-234 -234l-47 51l232 232l-232 231l47 49l234 -231l229 229l51 -47l-231 -231l231 -232z" />
    <glyph glyph-name="two.sups" 
d="M127 0v1536h1522v-1536h-1522zM209 78h1358v1382h-1358v-1382zM1112 473l-229 232l-234 -234l-47 51l232 232l-232 231l47 49l234 -231l229 229l51 -47l-231 -231l231 -232z" />
    <glyph glyph-name="three.sups" 
d="M127 0v1536h1522v-1536h-1522zM209 78h1358v1382h-1358v-1382zM1112 473l-229 232l-234 -234l-47 51l232 232l-232 231l47 49l234 -231l229 229l51 -47l-231 -231l231 -232z" />
    <glyph glyph-name="four.sups" 
d="M127 0v1536h1522v-1536h-1522zM209 78h1358v1382h-1358v-1382zM1112 473l-229 232l-234 -234l-47 51l232 232l-232 231l47 49l234 -231l229 229l51 -47l-231 -231l231 -232z" />
    <glyph glyph-name="five.sups" 
d="M127 0v1536h1522v-1536h-1522zM209 78h1358v1382h-1358v-1382zM1112 473l-229 232l-234 -234l-47 51l232 232l-232 231l47 49l234 -231l229 229l51 -47l-231 -231l231 -232z" />
    <glyph glyph-name="six.sups" 
d="M127 0v1536h1522v-1536h-1522zM209 78h1358v1382h-1358v-1382zM1112 473l-229 232l-234 -234l-47 51l232 232l-232 231l47 49l234 -231l229 229l51 -47l-231 -231l231 -232z" />
    <glyph glyph-name="seven.sups" 
d="M127 0v1536h1522v-1536h-1522zM209 78h1358v1382h-1358v-1382zM1112 473l-229 232l-234 -234l-47 51l232 232l-232 231l47 49l234 -231l229 229l51 -47l-231 -231l231 -232z" />
    <glyph glyph-name="eight.sups" 
d="M127 0v1536h1522v-1536h-1522zM209 78h1358v1382h-1358v-1382zM1112 473l-229 232l-234 -234l-47 51l232 232l-232 231l47 49l234 -231l229 229l51 -47l-231 -231l231 -232z" />
    <glyph glyph-name="nine.sups" 
d="M127 0v1536h1522v-1536h-1522zM209 78h1358v1382h-1358v-1382zM1112 473l-229 232l-234 -234l-47 51l232 232l-232 231l47 49l234 -231l229 229l51 -47l-231 -231l231 -232z" />
    <glyph glyph-name="period.sups" 
d="M127 0v1536h1522v-1536h-1522zM209 78h1358v1382h-1358v-1382zM1112 473l-229 232l-234 -234l-47 51l232 232l-232 231l47 49l234 -231l229 229l51 -47l-231 -231l231 -232z" />
    <glyph glyph-name="comma.sups" 
d="M127 0v1536h1522v-1536h-1522zM209 78h1358v1382h-1358v-1382zM1112 473l-229 232l-234 -234l-47 51l232 232l-232 231l47 49l234 -231l229 229l51 -47l-231 -231l231 -232z" />
    <glyph glyph-name="hyphen.sups" 
d="M127 0v1536h1522v-1536h-1522zM209 78h1358v1382h-1358v-1382zM1112 473l-229 232l-234 -234l-47 51l232 232l-232 231l47 49l234 -231l229 229l51 -47l-231 -231l231 -232z" />
    <glyph glyph-name="parenleft.sups" 
d="M127 0v1536h1522v-1536h-1522zM209 78h1358v1382h-1358v-1382zM1112 473l-229 232l-234 -234l-47 51l232 232l-232 231l47 49l234 -231l229 229l51 -47l-231 -231l231 -232z" />
    <glyph glyph-name="parenright.sups" 
d="M127 0v1536h1522v-1536h-1522zM209 78h1358v1382h-1358v-1382zM1112 473l-229 232l-234 -234l-47 51l232 232l-232 231l47 49l234 -231l229 229l51 -47l-231 -231l231 -232z" />
    <glyph glyph-name="plus.sups" 
d="M127 0v1536h1522v-1536h-1522zM209 78h1358v1382h-1358v-1382zM1112 473l-229 232l-234 -234l-47 51l232 232l-232 231l47 49l234 -231l229 229l51 -47l-231 -231l231 -232z" />
    <glyph glyph-name="minus.sups" 
d="M127 0v1536h1522v-1536h-1522zM209 78h1358v1382h-1358v-1382zM1112 473l-229 232l-234 -234l-47 51l232 232l-232 231l47 49l234 -231l229 229l51 -47l-231 -231l231 -232z" />
    <glyph glyph-name="multiply.sups" 
d="M127 0v1536h1522v-1536h-1522zM209 78h1358v1382h-1358v-1382zM1112 473l-229 232l-234 -234l-47 51l232 232l-232 231l47 49l234 -231l229 229l51 -47l-231 -231l231 -232z" />
    <glyph glyph-name="equal.sups" 
d="M127 0v1536h1522v-1536h-1522zM209 78h1358v1382h-1358v-1382zM1112 473l-229 232l-234 -234l-47 51l232 232l-232 231l47 49l234 -231l229 229l51 -47l-231 -231l231 -232z" />
    <glyph glyph-name="divide.sups" 
d="M127 0v1536h1522v-1536h-1522zM209 78h1358v1382h-1358v-1382zM1112 473l-229 232l-234 -234l-47 51l232 232l-232 231l47 49l234 -231l229 229l51 -47l-231 -231l231 -232z" />
    <glyph glyph-name="a.sups" 
d="M127 0v1536h1522v-1536h-1522zM209 78h1358v1382h-1358v-1382zM1112 473l-229 232l-234 -234l-47 51l232 232l-232 231l47 49l234 -231l229 229l51 -47l-231 -231l231 -232z" />
    <glyph glyph-name="b.sups" 
d="M127 0v1536h1522v-1536h-1522zM209 78h1358v1382h-1358v-1382zM1112 473l-229 232l-234 -234l-47 51l232 232l-232 231l47 49l234 -231l229 229l51 -47l-231 -231l231 -232z" />
    <glyph glyph-name="c.sups" 
d="M127 0v1536h1522v-1536h-1522zM209 78h1358v1382h-1358v-1382zM1112 473l-229 232l-234 -234l-47 51l232 232l-232 231l47 49l234 -231l229 229l51 -47l-231 -231l231 -232z" />
    <glyph glyph-name="d.sups" 
d="M127 0v1536h1522v-1536h-1522zM209 78h1358v1382h-1358v-1382zM1112 473l-229 232l-234 -234l-47 51l232 232l-232 231l47 49l234 -231l229 229l51 -47l-231 -231l231 -232z" />
    <glyph glyph-name="e.sups" 
d="M127 0v1536h1522v-1536h-1522zM209 78h1358v1382h-1358v-1382zM1112 473l-229 232l-234 -234l-47 51l232 232l-232 231l47 49l234 -231l229 229l51 -47l-231 -231l231 -232z" />
    <glyph glyph-name="f.sups" 
d="M127 0v1536h1522v-1536h-1522zM209 78h1358v1382h-1358v-1382zM1112 473l-229 232l-234 -234l-47 51l232 232l-232 231l47 49l234 -231l229 229l51 -47l-231 -231l231 -232z" />
    <glyph glyph-name="g.sups" 
d="M127 0v1536h1522v-1536h-1522zM209 78h1358v1382h-1358v-1382zM1112 473l-229 232l-234 -234l-47 51l232 232l-232 231l47 49l234 -231l229 229l51 -47l-231 -231l231 -232z" />
    <glyph glyph-name="h.sups" 
d="M127 0v1536h1522v-1536h-1522zM209 78h1358v1382h-1358v-1382zM1112 473l-229 232l-234 -234l-47 51l232 232l-232 231l47 49l234 -231l229 229l51 -47l-231 -231l231 -232z" />
    <glyph glyph-name="i.sups" 
d="M127 0v1536h1522v-1536h-1522zM209 78h1358v1382h-1358v-1382zM1112 473l-229 232l-234 -234l-47 51l232 232l-232 231l47 49l234 -231l229 229l51 -47l-231 -231l231 -232z" />
    <glyph glyph-name="j.sups" 
d="M127 0v1536h1522v-1536h-1522zM209 78h1358v1382h-1358v-1382zM1112 473l-229 232l-234 -234l-47 51l232 232l-232 231l47 49l234 -231l229 229l51 -47l-231 -231l231 -232z" />
    <glyph glyph-name="k.sups" 
d="M127 0v1536h1522v-1536h-1522zM209 78h1358v1382h-1358v-1382zM1112 473l-229 232l-234 -234l-47 51l232 232l-232 231l47 49l234 -231l229 229l51 -47l-231 -231l231 -232z" />
    <glyph glyph-name="l.sups" 
d="M127 0v1536h1522v-1536h-1522zM209 78h1358v1382h-1358v-1382zM1112 473l-229 232l-234 -234l-47 51l232 232l-232 231l47 49l234 -231l229 229l51 -47l-231 -231l231 -232z" />
    <glyph glyph-name="m.sups" 
d="M127 0v1536h1522v-1536h-1522zM209 78h1358v1382h-1358v-1382zM1112 473l-229 232l-234 -234l-47 51l232 232l-232 231l47 49l234 -231l229 229l51 -47l-231 -231l231 -232z" />
    <glyph glyph-name="n.sups" 
d="M127 0v1536h1522v-1536h-1522zM209 78h1358v1382h-1358v-1382zM1112 473l-229 232l-234 -234l-47 51l232 232l-232 231l47 49l234 -231l229 229l51 -47l-231 -231l231 -232z" />
    <glyph glyph-name="o.sups" 
d="M127 0v1536h1522v-1536h-1522zM209 78h1358v1382h-1358v-1382zM1112 473l-229 232l-234 -234l-47 51l232 232l-232 231l47 49l234 -231l229 229l51 -47l-231 -231l231 -232z" />
    <glyph glyph-name="p.sups" 
d="M127 0v1536h1522v-1536h-1522zM209 78h1358v1382h-1358v-1382zM1112 473l-229 232l-234 -234l-47 51l232 232l-232 231l47 49l234 -231l229 229l51 -47l-231 -231l231 -232z" />
    <glyph glyph-name="q.sups" 
d="M127 0v1536h1522v-1536h-1522zM209 78h1358v1382h-1358v-1382zM1112 473l-229 232l-234 -234l-47 51l232 232l-232 231l47 49l234 -231l229 229l51 -47l-231 -231l231 -232z" />
    <glyph glyph-name="r.sups" 
d="M127 0v1536h1522v-1536h-1522zM209 78h1358v1382h-1358v-1382zM1112 473l-229 232l-234 -234l-47 51l232 232l-232 231l47 49l234 -231l229 229l51 -47l-231 -231l231 -232z" />
    <glyph glyph-name="s.sups" 
d="M127 0v1536h1522v-1536h-1522zM209 78h1358v1382h-1358v-1382zM1112 473l-229 232l-234 -234l-47 51l232 232l-232 231l47 49l234 -231l229 229l51 -47l-231 -231l231 -232z" />
    <glyph glyph-name="t.sups" 
d="M127 0v1536h1522v-1536h-1522zM209 78h1358v1382h-1358v-1382zM1112 473l-229 232l-234 -234l-47 51l232 232l-232 231l47 49l234 -231l229 229l51 -47l-231 -231l231 -232z" />
    <glyph glyph-name="u.sups" 
d="M127 0v1536h1522v-1536h-1522zM209 78h1358v1382h-1358v-1382zM1112 473l-229 232l-234 -234l-47 51l232 232l-232 231l47 49l234 -231l229 229l51 -47l-231 -231l231 -232z" />
    <glyph glyph-name="v.sups" 
d="M127 0v1536h1522v-1536h-1522zM209 78h1358v1382h-1358v-1382zM1112 473l-229 232l-234 -234l-47 51l232 232l-232 231l47 49l234 -231l229 229l51 -47l-231 -231l231 -232z" />
    <glyph glyph-name="w.sups" 
d="M127 0v1536h1522v-1536h-1522zM209 78h1358v1382h-1358v-1382zM1112 473l-229 232l-234 -234l-47 51l232 232l-232 231l47 49l234 -231l229 229l51 -47l-231 -231l231 -232z" />
    <glyph glyph-name="x.sups" 
d="M127 0v1536h1522v-1536h-1522zM209 78h1358v1382h-1358v-1382zM1112 473l-229 232l-234 -234l-47 51l232 232l-232 231l47 49l234 -231l229 229l51 -47l-231 -231l231 -232z" />
    <glyph glyph-name="y.sups" 
d="M127 0v1536h1522v-1536h-1522zM209 78h1358v1382h-1358v-1382zM1112 473l-229 232l-234 -234l-47 51l232 232l-232 231l47 49l234 -231l229 229l51 -47l-231 -231l231 -232z" />
    <glyph glyph-name="z.sups" 
d="M127 0v1536h1522v-1536h-1522zM209 78h1358v1382h-1358v-1382zM1112 473l-229 232l-234 -234l-47 51l232 232l-232 231l47 49l234 -231l229 229l51 -47l-231 -231l231 -232z" />
    <glyph glyph-name="zero.subs" 
d="M127 0v1536h1522v-1536h-1522zM209 78h1358v1382h-1358v-1382zM1112 473l-229 232l-234 -234l-47 51l232 232l-232 231l47 49l234 -231l229 229l51 -47l-231 -231l231 -232z" />
    <glyph glyph-name="one.subs" 
d="M127 0v1536h1522v-1536h-1522zM209 78h1358v1382h-1358v-1382zM1112 473l-229 232l-234 -234l-47 51l232 232l-232 231l47 49l234 -231l229 229l51 -47l-231 -231l231 -232z" />
    <glyph glyph-name="two.subs" 
d="M127 0v1536h1522v-1536h-1522zM209 78h1358v1382h-1358v-1382zM1112 473l-229 232l-234 -234l-47 51l232 232l-232 231l47 49l234 -231l229 229l51 -47l-231 -231l231 -232z" />
    <glyph glyph-name="three.subs" 
d="M127 0v1536h1522v-1536h-1522zM209 78h1358v1382h-1358v-1382zM1112 473l-229 232l-234 -234l-47 51l232 232l-232 231l47 49l234 -231l229 229l51 -47l-231 -231l231 -232z" />
    <glyph glyph-name="four.subs" 
d="M127 0v1536h1522v-1536h-1522zM209 78h1358v1382h-1358v-1382zM1112 473l-229 232l-234 -234l-47 51l232 232l-232 231l47 49l234 -231l229 229l51 -47l-231 -231l231 -232z" />
    <glyph glyph-name="five.subs" 
d="M127 0v1536h1522v-1536h-1522zM209 78h1358v1382h-1358v-1382zM1112 473l-229 232l-234 -234l-47 51l232 232l-232 231l47 49l234 -231l229 229l51 -47l-231 -231l231 -232z" />
    <glyph glyph-name="six.subs" 
d="M127 0v1536h1522v-1536h-1522zM209 78h1358v1382h-1358v-1382zM1112 473l-229 232l-234 -234l-47 51l232 232l-232 231l47 49l234 -231l229 229l51 -47l-231 -231l231 -232z" />
    <glyph glyph-name="seven.subs" 
d="M127 0v1536h1522v-1536h-1522zM209 78h1358v1382h-1358v-1382zM1112 473l-229 232l-234 -234l-47 51l232 232l-232 231l47 49l234 -231l229 229l51 -47l-231 -231l231 -232z" />
    <glyph glyph-name="eight.subs" 
d="M127 0v1536h1522v-1536h-1522zM209 78h1358v1382h-1358v-1382zM1112 473l-229 232l-234 -234l-47 51l232 232l-232 231l47 49l234 -231l229 229l51 -47l-231 -231l231 -232z" />
    <glyph glyph-name="nine.subs" 
d="M127 0v1536h1522v-1536h-1522zM209 78h1358v1382h-1358v-1382zM1112 473l-229 232l-234 -234l-47 51l232 232l-232 231l47 49l234 -231l229 229l51 -47l-231 -231l231 -232z" />
    <glyph glyph-name="period.subs" 
d="M127 0v1536h1522v-1536h-1522zM209 78h1358v1382h-1358v-1382zM1112 473l-229 232l-234 -234l-47 51l232 232l-232 231l47 49l234 -231l229 229l51 -47l-231 -231l231 -232z" />
    <glyph glyph-name="comma.subs" 
d="M127 0v1536h1522v-1536h-1522zM209 78h1358v1382h-1358v-1382zM1112 473l-229 232l-234 -234l-47 51l232 232l-232 231l47 49l234 -231l229 229l51 -47l-231 -231l231 -232z" />
    <glyph glyph-name="hyphen.subs" 
d="M127 0v1536h1522v-1536h-1522zM209 78h1358v1382h-1358v-1382zM1112 473l-229 232l-234 -234l-47 51l232 232l-232 231l47 49l234 -231l229 229l51 -47l-231 -231l231 -232z" />
    <glyph glyph-name="parenleft.subs" 
d="M127 0v1536h1522v-1536h-1522zM209 78h1358v1382h-1358v-1382zM1112 473l-229 232l-234 -234l-47 51l232 232l-232 231l47 49l234 -231l229 229l51 -47l-231 -231l231 -232z" />
    <glyph glyph-name="parenright.subs" 
d="M127 0v1536h1522v-1536h-1522zM209 78h1358v1382h-1358v-1382zM1112 473l-229 232l-234 -234l-47 51l232 232l-232 231l47 49l234 -231l229 229l51 -47l-231 -231l231 -232z" />
    <glyph glyph-name="plus.subs" 
d="M127 0v1536h1522v-1536h-1522zM209 78h1358v1382h-1358v-1382zM1112 473l-229 232l-234 -234l-47 51l232 232l-232 231l47 49l234 -231l229 229l51 -47l-231 -231l231 -232z" />
    <glyph glyph-name="minus.subs" 
d="M127 0v1536h1522v-1536h-1522zM209 78h1358v1382h-1358v-1382zM1112 473l-229 232l-234 -234l-47 51l232 232l-232 231l47 49l234 -231l229 229l51 -47l-231 -231l231 -232z" />
    <glyph glyph-name="multiply.subs" 
d="M127 0v1536h1522v-1536h-1522zM209 78h1358v1382h-1358v-1382zM1112 473l-229 232l-234 -234l-47 51l232 232l-232 231l47 49l234 -231l229 229l51 -47l-231 -231l231 -232z" />
    <glyph glyph-name="equal.subs" 
d="M127 0v1536h1522v-1536h-1522zM209 78h1358v1382h-1358v-1382zM1112 473l-229 232l-234 -234l-47 51l232 232l-232 231l47 49l234 -231l229 229l51 -47l-231 -231l231 -232z" />
    <glyph glyph-name="divide.subs" 
d="M127 0v1536h1522v-1536h-1522zM209 78h1358v1382h-1358v-1382zM1112 473l-229 232l-234 -234l-47 51l232 232l-232 231l47 49l234 -231l229 229l51 -47l-231 -231l231 -232z" />
    <glyph glyph-name="a.subs" 
d="M127 0v1536h1522v-1536h-1522zM209 78h1358v1382h-1358v-1382zM1112 473l-229 232l-234 -234l-47 51l232 232l-232 231l47 49l234 -231l229 229l51 -47l-231 -231l231 -232z" />
    <glyph glyph-name="b.subs" 
d="M127 0v1536h1522v-1536h-1522zM209 78h1358v1382h-1358v-1382zM1112 473l-229 232l-234 -234l-47 51l232 232l-232 231l47 49l234 -231l229 229l51 -47l-231 -231l231 -232z" />
    <glyph glyph-name="c.subs" 
d="M127 0v1536h1522v-1536h-1522zM209 78h1358v1382h-1358v-1382zM1112 473l-229 232l-234 -234l-47 51l232 232l-232 231l47 49l234 -231l229 229l51 -47l-231 -231l231 -232z" />
    <glyph glyph-name="d.subs" 
d="M127 0v1536h1522v-1536h-1522zM209 78h1358v1382h-1358v-1382zM1112 473l-229 232l-234 -234l-47 51l232 232l-232 231l47 49l234 -231l229 229l51 -47l-231 -231l231 -232z" />
    <glyph glyph-name="e.subs" 
d="M127 0v1536h1522v-1536h-1522zM209 78h1358v1382h-1358v-1382zM1112 473l-229 232l-234 -234l-47 51l232 232l-232 231l47 49l234 -231l229 229l51 -47l-231 -231l231 -232z" />
    <glyph glyph-name="f.subs" 
d="M127 0v1536h1522v-1536h-1522zM209 78h1358v1382h-1358v-1382zM1112 473l-229 232l-234 -234l-47 51l232 232l-232 231l47 49l234 -231l229 229l51 -47l-231 -231l231 -232z" />
    <glyph glyph-name="g.subs" 
d="M127 0v1536h1522v-1536h-1522zM209 78h1358v1382h-1358v-1382zM1112 473l-229 232l-234 -234l-47 51l232 232l-232 231l47 49l234 -231l229 229l51 -47l-231 -231l231 -232z" />
    <glyph glyph-name="h.subs" 
d="M127 0v1536h1522v-1536h-1522zM209 78h1358v1382h-1358v-1382zM1112 473l-229 232l-234 -234l-47 51l232 232l-232 231l47 49l234 -231l229 229l51 -47l-231 -231l231 -232z" />
    <glyph glyph-name="i.subs" 
d="M127 0v1536h1522v-1536h-1522zM209 78h1358v1382h-1358v-1382zM1112 473l-229 232l-234 -234l-47 51l232 232l-232 231l47 49l234 -231l229 229l51 -47l-231 -231l231 -232z" />
    <glyph glyph-name="j.subs" 
d="M127 0v1536h1522v-1536h-1522zM209 78h1358v1382h-1358v-1382zM1112 473l-229 232l-234 -234l-47 51l232 232l-232 231l47 49l234 -231l229 229l51 -47l-231 -231l231 -232z" />
    <glyph glyph-name="k.subs" 
d="M127 0v1536h1522v-1536h-1522zM209 78h1358v1382h-1358v-1382zM1112 473l-229 232l-234 -234l-47 51l232 232l-232 231l47 49l234 -231l229 229l51 -47l-231 -231l231 -232z" />
    <glyph glyph-name="l.subs" 
d="M127 0v1536h1522v-1536h-1522zM209 78h1358v1382h-1358v-1382zM1112 473l-229 232l-234 -234l-47 51l232 232l-232 231l47 49l234 -231l229 229l51 -47l-231 -231l231 -232z" />
    <glyph glyph-name="m.subs" 
d="M127 0v1536h1522v-1536h-1522zM209 78h1358v1382h-1358v-1382zM1112 473l-229 232l-234 -234l-47 51l232 232l-232 231l47 49l234 -231l229 229l51 -47l-231 -231l231 -232z" />
    <glyph glyph-name="n.subs" 
d="M127 0v1536h1522v-1536h-1522zM209 78h1358v1382h-1358v-1382zM1112 473l-229 232l-234 -234l-47 51l232 232l-232 231l47 49l234 -231l229 229l51 -47l-231 -231l231 -232z" />
    <glyph glyph-name="o.subs" 
d="M127 0v1536h1522v-1536h-1522zM209 78h1358v1382h-1358v-1382zM1112 473l-229 232l-234 -234l-47 51l232 232l-232 231l47 49l234 -231l229 229l51 -47l-231 -231l231 -232z" />
    <glyph glyph-name="p.subs" 
d="M127 0v1536h1522v-1536h-1522zM209 78h1358v1382h-1358v-1382zM1112 473l-229 232l-234 -234l-47 51l232 232l-232 231l47 49l234 -231l229 229l51 -47l-231 -231l231 -232z" />
    <glyph glyph-name="q.subs" 
d="M127 0v1536h1522v-1536h-1522zM209 78h1358v1382h-1358v-1382zM1112 473l-229 232l-234 -234l-47 51l232 232l-232 231l47 49l234 -231l229 229l51 -47l-231 -231l231 -232z" />
    <glyph glyph-name="r.subs" 
d="M127 0v1536h1522v-1536h-1522zM209 78h1358v1382h-1358v-1382zM1112 473l-229 232l-234 -234l-47 51l232 232l-232 231l47 49l234 -231l229 229l51 -47l-231 -231l231 -232z" />
    <glyph glyph-name="s.subs" 
d="M127 0v1536h1522v-1536h-1522zM209 78h1358v1382h-1358v-1382zM1112 473l-229 232l-234 -234l-47 51l232 232l-232 231l47 49l234 -231l229 229l51 -47l-231 -231l231 -232z" />
    <glyph glyph-name="t.subs" 
d="M127 0v1536h1522v-1536h-1522zM209 78h1358v1382h-1358v-1382zM1112 473l-229 232l-234 -234l-47 51l232 232l-232 231l47 49l234 -231l229 229l51 -47l-231 -231l231 -232z" />
    <glyph glyph-name="u.subs" 
d="M127 0v1536h1522v-1536h-1522zM209 78h1358v1382h-1358v-1382zM1112 473l-229 232l-234 -234l-47 51l232 232l-232 231l47 49l234 -231l229 229l51 -47l-231 -231l231 -232z" />
    <glyph glyph-name="v.subs" 
d="M127 0v1536h1522v-1536h-1522zM209 78h1358v1382h-1358v-1382zM1112 473l-229 232l-234 -234l-47 51l232 232l-232 231l47 49l234 -231l229 229l51 -47l-231 -231l231 -232z" />
    <glyph glyph-name="w.subs" 
d="M127 0v1536h1522v-1536h-1522zM209 78h1358v1382h-1358v-1382zM1112 473l-229 232l-234 -234l-47 51l232 232l-232 231l47 49l234 -231l229 229l51 -47l-231 -231l231 -232z" />
    <glyph glyph-name="x.subs" 
d="M127 0v1536h1522v-1536h-1522zM209 78h1358v1382h-1358v-1382zM1112 473l-229 232l-234 -234l-47 51l232 232l-232 231l47 49l234 -231l229 229l51 -47l-231 -231l231 -232z" />
    <glyph glyph-name="y.subs" 
d="M127 0v1536h1522v-1536h-1522zM209 78h1358v1382h-1358v-1382zM1112 473l-229 232l-234 -234l-47 51l232 232l-232 231l47 49l234 -231l229 229l51 -47l-231 -231l231 -232z" />
    <glyph glyph-name="z.subs" 
d="M127 0v1536h1522v-1536h-1522zM209 78h1358v1382h-1358v-1382zM1112 473l-229 232l-234 -234l-47 51l232 232l-232 231l47 49l234 -231l229 229l51 -47l-231 -231l231 -232z" />
    <glyph glyph-name="IJacute" 
d="M127 0v1536h1522v-1536h-1522zM209 78h1358v1382h-1358v-1382zM1112 473l-229 232l-234 -234l-47 51l232 232l-232 231l47 49l234 -231l229 229l51 -47l-231 -231l231 -232z" />
    <glyph glyph-name="ijacute" 
d="M127 0v1536h1522v-1536h-1522zM209 78h1358v1382h-1358v-1382zM1112 473l-229 232l-234 -234l-47 51l232 232l-232 231l47 49l234 -231l229 229l51 -47l-231 -231l231 -232z" />
    <glyph glyph-name="f_f" 
d="M127 0v1536h1522v-1536h-1522zM209 78h1358v1382h-1358v-1382zM1112 473l-229 232l-234 -234l-47 51l232 232l-232 231l47 49l234 -231l229 229l51 -47l-231 -231l231 -232z" />
    <glyph glyph-name="f_f_i" 
d="M127 0v1536h1522v-1536h-1522zM209 78h1358v1382h-1358v-1382zM1112 473l-229 232l-234 -234l-47 51l232 232l-232 231l47 49l234 -231l229 229l51 -47l-231 -231l231 -232z" />
    <glyph glyph-name="f_f_l" 
d="M127 0v1536h1522v-1536h-1522zM209 78h1358v1382h-1358v-1382zM1112 473l-229 232l-234 -234l-47 51l232 232l-232 231l47 49l234 -231l229 229l51 -47l-231 -231l231 -232z" />
    <glyph glyph-name="f_b" 
d="M127 0v1536h1522v-1536h-1522zM209 78h1358v1382h-1358v-1382zM1112 473l-229 232l-234 -234l-47 51l232 232l-232 231l47 49l234 -231l229 229l51 -47l-231 -231l231 -232z" />
    <glyph glyph-name="f_f_b" 
d="M127 0v1536h1522v-1536h-1522zM209 78h1358v1382h-1358v-1382zM1112 473l-229 232l-234 -234l-47 51l232 232l-232 231l47 49l234 -231l229 229l51 -47l-231 -231l231 -232z" />
    <glyph glyph-name="f_h" 
d="M127 0v1536h1522v-1536h-1522zM209 78h1358v1382h-1358v-1382zM1112 473l-229 232l-234 -234l-47 51l232 232l-232 231l47 49l234 -231l229 229l51 -47l-231 -231l231 -232z" />
    <glyph glyph-name="f_f_h" 
d="M127 0v1536h1522v-1536h-1522zM209 78h1358v1382h-1358v-1382zM1112 473l-229 232l-234 -234l-47 51l232 232l-232 231l47 49l234 -231l229 229l51 -47l-231 -231l231 -232z" />
    <glyph glyph-name="f_k" 
d="M127 0v1536h1522v-1536h-1522zM209 78h1358v1382h-1358v-1382zM1112 473l-229 232l-234 -234l-47 51l232 232l-232 231l47 49l234 -231l229 229l51 -47l-231 -231l231 -232z" />
    <glyph glyph-name="f_f_k" 
d="M127 0v1536h1522v-1536h-1522zM209 78h1358v1382h-1358v-1382zM1112 473l-229 232l-234 -234l-47 51l232 232l-232 231l47 49l234 -231l229 229l51 -47l-231 -231l231 -232z" />
    <glyph glyph-name="f_j" 
d="M127 0v1536h1522v-1536h-1522zM209 78h1358v1382h-1358v-1382zM1112 473l-229 232l-234 -234l-47 51l232 232l-232 231l47 49l234 -231l229 229l51 -47l-231 -231l231 -232z" />
    <glyph glyph-name="f_f_j" 
d="M127 0v1536h1522v-1536h-1522zM209 78h1358v1382h-1358v-1382zM1112 473l-229 232l-234 -234l-47 51l232 232l-232 231l47 49l234 -231l229 229l51 -47l-231 -231l231 -232z" />
    <glyph glyph-name="f_idieresis" 
d="M127 0v1536h1522v-1536h-1522zM209 78h1358v1382h-1358v-1382zM1112 473l-229 232l-234 -234l-47 51l232 232l-232 231l47 49l234 -231l229 229l51 -47l-231 -231l231 -232z" />
    <glyph glyph-name="revcommaaccentcomb" 
d="M127 0v1536h1522v-1536h-1522zM209 78h1358v1382h-1358v-1382zM1112 473l-229 232l-234 -234l-47 51l232 232l-232 231l47 49l234 -231l229 229l51 -47l-231 -231l231 -232z" />
    <glyph glyph-name="gravecomb.case" 
d="M127 0v1536h1522v-1536h-1522zM209 78h1358v1382h-1358v-1382zM1112 473l-229 232l-234 -234l-47 51l232 232l-232 231l47 49l234 -231l229 229l51 -47l-231 -231l231 -232z" />
    <glyph glyph-name="acutecomb.case" 
d="M127 0v1536h1522v-1536h-1522zM209 78h1358v1382h-1358v-1382zM1112 473l-229 232l-234 -234l-47 51l232 232l-232 231l47 49l234 -231l229 229l51 -47l-231 -231l231 -232z" />
    <glyph glyph-name="dieresiscomb.case" 
d="M127 0v1536h1522v-1536h-1522zM209 78h1358v1382h-1358v-1382zM1112 473l-229 232l-234 -234l-47 51l232 232l-232 231l47 49l234 -231l229 229l51 -47l-231 -231l231 -232z" />
    <glyph glyph-name="circumflexcomb.case" 
d="M127 0v1536h1522v-1536h-1522zM209 78h1358v1382h-1358v-1382zM1112 473l-229 232l-234 -234l-47 51l232 232l-232 231l47 49l234 -231l229 229l51 -47l-231 -231l231 -232z" />
    <glyph glyph-name="tildecomb.case" 
d="M127 0v1536h1522v-1536h-1522zM209 78h1358v1382h-1358v-1382zM1112 473l-229 232l-234 -234l-47 51l232 232l-232 231l47 49l234 -231l229 229l51 -47l-231 -231l231 -232z" />
    <glyph glyph-name="macroncomb.case" 
d="M127 0v1536h1522v-1536h-1522zM209 78h1358v1382h-1358v-1382zM1112 473l-229 232l-234 -234l-47 51l232 232l-232 231l47 49l234 -231l229 229l51 -47l-231 -231l231 -232z" />
    <glyph glyph-name="brevecomb.case" 
d="M127 0v1536h1522v-1536h-1522zM209 78h1358v1382h-1358v-1382zM1112 473l-229 232l-234 -234l-47 51l232 232l-232 231l47 49l234 -231l229 229l51 -47l-231 -231l231 -232z" />
    <glyph glyph-name="dotaccentcomb.case" 
d="M127 0v1536h1522v-1536h-1522zM209 78h1358v1382h-1358v-1382zM1112 473l-229 232l-234 -234l-47 51l232 232l-232 231l47 49l234 -231l229 229l51 -47l-231 -231l231 -232z" />
    <glyph glyph-name="revcommaaccentcomb.case" 
d="M127 0v1536h1522v-1536h-1522zM209 78h1358v1382h-1358v-1382zM1112 473l-229 232l-234 -234l-47 51l232 232l-232 231l47 49l234 -231l229 229l51 -47l-231 -231l231 -232z" />
    <glyph glyph-name="ringcomb.case" 
d="M127 0v1536h1522v-1536h-1522zM209 78h1358v1382h-1358v-1382zM1112 473l-229 232l-234 -234l-47 51l232 232l-232 231l47 49l234 -231l229 229l51 -47l-231 -231l231 -232z" />
    <glyph glyph-name="hungarumlautcomb.case" 
d="M127 0v1536h1522v-1536h-1522zM209 78h1358v1382h-1358v-1382zM1112 473l-229 232l-234 -234l-47 51l232 232l-232 231l47 49l234 -231l229 229l51 -47l-231 -231l231 -232z" />
    <glyph glyph-name="caroncomb.case" 
d="M127 0v1536h1522v-1536h-1522zM209 78h1358v1382h-1358v-1382zM1112 473l-229 232l-234 -234l-47 51l232 232l-232 231l47 49l234 -231l229 229l51 -47l-231 -231l231 -232z" />
    <glyph glyph-name="exclamdown.case" 
d="M127 0v1536h1522v-1536h-1522zM209 78h1358v1382h-1358v-1382zM1112 473l-229 232l-234 -234l-47 51l232 232l-232 231l47 49l234 -231l229 229l51 -47l-231 -231l231 -232z" />
    <glyph glyph-name="questiondown.case" 
d="M127 0v1536h1522v-1536h-1522zM209 78h1358v1382h-1358v-1382zM1112 473l-229 232l-234 -234l-47 51l232 232l-232 231l47 49l234 -231l229 229l51 -47l-231 -231l231 -232z" />
    <glyph glyph-name="braceleft.case" 
d="M127 0v1536h1522v-1536h-1522zM209 78h1358v1382h-1358v-1382zM1112 473l-229 232l-234 -234l-47 51l232 232l-232 231l47 49l234 -231l229 229l51 -47l-231 -231l231 -232z" />
    <glyph glyph-name="braceright.case" 
d="M127 0v1536h1522v-1536h-1522zM209 78h1358v1382h-1358v-1382zM1112 473l-229 232l-234 -234l-47 51l232 232l-232 231l47 49l234 -231l229 229l51 -47l-231 -231l231 -232z" />
    <glyph glyph-name="bracketleft.case" 
d="M127 0v1536h1522v-1536h-1522zM209 78h1358v1382h-1358v-1382zM1112 473l-229 232l-234 -234l-47 51l232 232l-232 231l47 49l234 -231l229 229l51 -47l-231 -231l231 -232z" />
    <glyph glyph-name="bracketright.case" 
d="M127 0v1536h1522v-1536h-1522zM209 78h1358v1382h-1358v-1382zM1112 473l-229 232l-234 -234l-47 51l232 232l-232 231l47 49l234 -231l229 229l51 -47l-231 -231l231 -232z" />
    <glyph glyph-name="hyphen.case" 
d="M127 0v1536h1522v-1536h-1522zM209 78h1358v1382h-1358v-1382zM1112 473l-229 232l-234 -234l-47 51l232 232l-232 231l47 49l234 -231l229 229l51 -47l-231 -231l231 -232z" />
    <glyph glyph-name="endash.case" 
d="M127 0v1536h1522v-1536h-1522zM209 78h1358v1382h-1358v-1382zM1112 473l-229 232l-234 -234l-47 51l232 232l-232 231l47 49l234 -231l229 229l51 -47l-231 -231l231 -232z" />
    <glyph glyph-name="emdash.case" 
d="M127 0v1536h1522v-1536h-1522zM209 78h1358v1382h-1358v-1382zM1112 473l-229 232l-234 -234l-47 51l232 232l-232 231l47 49l234 -231l229 229l51 -47l-231 -231l231 -232z" />
    <glyph glyph-name="guillemotleft.case" 
d="M127 0v1536h1522v-1536h-1522zM209 78h1358v1382h-1358v-1382zM1112 473l-229 232l-234 -234l-47 51l232 232l-232 231l47 49l234 -231l229 229l51 -47l-231 -231l231 -232z" />
    <glyph glyph-name="guillemotright.case" 
d="M127 0v1536h1522v-1536h-1522zM209 78h1358v1382h-1358v-1382zM1112 473l-229 232l-234 -234l-47 51l232 232l-232 231l47 49l234 -231l229 229l51 -47l-231 -231l231 -232z" />
    <glyph glyph-name="guilsinglleft.case" 
d="M127 0v1536h1522v-1536h-1522zM209 78h1358v1382h-1358v-1382zM1112 473l-229 232l-234 -234l-47 51l232 232l-232 231l47 49l234 -231l229 229l51 -47l-231 -231l231 -232z" />
    <glyph glyph-name="guilsinglright.case" 
d="M127 0v1536h1522v-1536h-1522zM209 78h1358v1382h-1358v-1382zM1112 473l-229 232l-234 -234l-47 51l232 232l-232 231l47 49l234 -231l229 229l51 -47l-231 -231l231 -232z" />
    <glyph glyph-name="arrowleft.case" 
d="M127 0v1536h1522v-1536h-1522zM209 78h1358v1382h-1358v-1382zM1112 473l-229 232l-234 -234l-47 51l232 232l-232 231l47 49l234 -231l229 229l51 -47l-231 -231l231 -232z" />
    <glyph glyph-name="arrowright.case" 
d="M127 0v1536h1522v-1536h-1522zM209 78h1358v1382h-1358v-1382zM1112 473l-229 232l-234 -234l-47 51l232 232l-232 231l47 49l234 -231l229 229l51 -47l-231 -231l231 -232z" />
    <glyph glyph-name="arrowup.case" 
d="M127 0v1536h1522v-1536h-1522zM209 78h1358v1382h-1358v-1382zM1112 473l-229 232l-234 -234l-47 51l232 232l-232 231l47 49l234 -231l229 229l51 -47l-231 -231l231 -232z" />
    <glyph glyph-name="arrowdown.case" 
d="M127 0v1536h1522v-1536h-1522zM209 78h1358v1382h-1358v-1382zM1112 473l-229 232l-234 -234l-47 51l232 232l-232 231l47 49l234 -231l229 229l51 -47l-231 -231l231 -232z" />
    <glyph glyph-name="arrowboth.case" 
d="M127 0v1536h1522v-1536h-1522zM209 78h1358v1382h-1358v-1382zM1112 473l-229 232l-234 -234l-47 51l232 232l-232 231l47 49l234 -231l229 229l51 -47l-231 -231l231 -232z" />
    <glyph glyph-name="arrowupdn.case" 
d="M127 0v1536h1522v-1536h-1522zM209 78h1358v1382h-1358v-1382zM1112 473l-229 232l-234 -234l-47 51l232 232l-232 231l47 49l234 -231l229 229l51 -47l-231 -231l231 -232z" />
    <glyph glyph-name="uni2196.case" 
d="M127 0v1536h1522v-1536h-1522zM209 78h1358v1382h-1358v-1382zM1112 473l-229 232l-234 -234l-47 51l232 232l-232 231l47 49l234 -231l229 229l51 -47l-231 -231l231 -232z" />
    <glyph glyph-name="uni2197.case" 
d="M127 0v1536h1522v-1536h-1522zM209 78h1358v1382h-1358v-1382zM1112 473l-229 232l-234 -234l-47 51l232 232l-232 231l47 49l234 -231l229 229l51 -47l-231 -231l231 -232z" />
    <glyph glyph-name="uni2198.case" 
d="M127 0v1536h1522v-1536h-1522zM209 78h1358v1382h-1358v-1382zM1112 473l-229 232l-234 -234l-47 51l232 232l-232 231l47 49l234 -231l229 229l51 -47l-231 -231l231 -232z" />
    <glyph glyph-name="uni2199.case" 
d="M127 0v1536h1522v-1536h-1522zM209 78h1358v1382h-1358v-1382zM1112 473l-229 232l-234 -234l-47 51l232 232l-232 231l47 49l234 -231l229 229l51 -47l-231 -231l231 -232z" />
    <glyph glyph-name="at.case" 
d="M127 0v1536h1522v-1536h-1522zM209 78h1358v1382h-1358v-1382zM1112 473l-229 232l-234 -234l-47 51l232 232l-232 231l47 49l234 -231l229 229l51 -47l-231 -231l231 -232z" />
    <glyph glyph-name="colon.case" 
d="M127 0v1536h1522v-1536h-1522zM209 78h1358v1382h-1358v-1382zM1112 473l-229 232l-234 -234l-47 51l232 232l-232 231l47 49l234 -231l229 229l51 -47l-231 -231l231 -232z" />
    <glyph glyph-name="periodcentered.case" 
d="M127 0v1536h1522v-1536h-1522zM209 78h1358v1382h-1358v-1382zM1112 473l-229 232l-234 -234l-47 51l232 232l-232 231l47 49l234 -231l229 229l51 -47l-231 -231l231 -232z" />
    <glyph glyph-name="mediumblackcircle" 
d="M127 0v1536h1522v-1536h-1522zM209 78h1358v1382h-1358v-1382zM1112 473l-229 232l-234 -234l-47 51l232 232l-232 231l47 49l234 -231l229 229l51 -47l-231 -231l231 -232z" />
    <glyph glyph-name="squaremultiply" 
d="M127 0v1536h1522v-1536h-1522zM209 78h1358v1382h-1358v-1382zM1112 473l-229 232l-234 -234l-47 51l232 232l-232 231l47 49l234 -231l229 229l51 -47l-231 -231l231 -232z" />
    <glyph glyph-name="ballotboxwithx" 
d="M127 0v1536h1522v-1536h-1522zM209 78h1358v1382h-1358v-1382zM1112 473l-229 232l-234 -234l-47 51l232 232l-232 231l47 49l234 -231l229 229l51 -47l-231 -231l231 -232z" />
    <glyph glyph-name="oneCircled" 
d="M127 0v1536h1522v-1536h-1522zM209 78h1358v1382h-1358v-1382zM1112 473l-229 232l-234 -234l-47 51l232 232l-232 231l47 49l234 -231l229 229l51 -47l-231 -231l231 -232z" />
    <glyph glyph-name="twoCircled" 
d="M127 0v1536h1522v-1536h-1522zM209 78h1358v1382h-1358v-1382zM1112 473l-229 232l-234 -234l-47 51l232 232l-232 231l47 49l234 -231l229 229l51 -47l-231 -231l231 -232z" />
    <glyph glyph-name="threeCircled" 
d="M127 0v1536h1522v-1536h-1522zM209 78h1358v1382h-1358v-1382zM1112 473l-229 232l-234 -234l-47 51l232 232l-232 231l47 49l234 -231l229 229l51 -47l-231 -231l231 -232z" />
    <glyph glyph-name="fourCircled" 
d="M127 0v1536h1522v-1536h-1522zM209 78h1358v1382h-1358v-1382zM1112 473l-229 232l-234 -234l-47 51l232 232l-232 231l47 49l234 -231l229 229l51 -47l-231 -231l231 -232z" />
    <glyph glyph-name="fiveCircled" 
d="M127 0v1536h1522v-1536h-1522zM209 78h1358v1382h-1358v-1382zM1112 473l-229 232l-234 -234l-47 51l232 232l-232 231l47 49l234 -231l229 229l51 -47l-231 -231l231 -232z" />
    <glyph glyph-name="sixCircled" 
d="M127 0v1536h1522v-1536h-1522zM209 78h1358v1382h-1358v-1382zM1112 473l-229 232l-234 -234l-47 51l232 232l-232 231l47 49l234 -231l229 229l51 -47l-231 -231l231 -232z" />
    <glyph glyph-name="sevenCircled" 
d="M127 0v1536h1522v-1536h-1522zM209 78h1358v1382h-1358v-1382zM1112 473l-229 232l-234 -234l-47 51l232 232l-232 231l47 49l234 -231l229 229l51 -47l-231 -231l231 -232z" />
    <glyph glyph-name="eightCircled" 
d="M127 0v1536h1522v-1536h-1522zM209 78h1358v1382h-1358v-1382zM1112 473l-229 232l-234 -234l-47 51l232 232l-232 231l47 49l234 -231l229 229l51 -47l-231 -231l231 -232z" />
    <glyph glyph-name="nineCircled" 
d="M127 0v1536h1522v-1536h-1522zM209 78h1358v1382h-1358v-1382zM1112 473l-229 232l-234 -234l-47 51l232 232l-232 231l47 49l234 -231l229 229l51 -47l-231 -231l231 -232z" />
    <glyph glyph-name="zeroCircled" 
d="M127 0v1536h1522v-1536h-1522zM209 78h1358v1382h-1358v-1382zM1112 473l-229 232l-234 -234l-47 51l232 232l-232 231l47 49l234 -231l229 229l51 -47l-231 -231l231 -232z" />
    <glyph glyph-name="idotaccent" 
d="M127 0v1536h1522v-1536h-1522zM209 78h1358v1382h-1358v-1382zM1112 473l-229 232l-234 -234l-47 51l232 232l-232 231l47 49l234 -231l229 229l51 -47l-231 -231l231 -232z" />
    </font>
</defs>
</svg>
