<?xml version="1.0" standalone="no"?>
<!DOCTYPE svg PUBLIC "-//W3C//DTD SVG 1.1//EN" "http://www.w3.org/Graphics/SVG/1.1/DTD/svg11.dtd" >
<svg xmlns="http://www.w3.org/2000/svg" xmlns:xlink="http://www.w3.org/1999/xlink" version="1.1">
<metadata>
Created by FontForge 20170731 at Fri Mar 31 19:44:49 2023
 By Aleksey,,,
Copyright Daniel Sabino | Blackletra Type Foundry
</metadata>
<defs>
<font id="NokaTrial-Bold" horiz-adv-x="1730" >
  <font-face 
    font-family="Noka Trial Bold"
    font-weight="800"
    font-stretch="normal"
    units-per-em="2048"
    panose-1="0 0 0 0 0 0 0 0 0 0"
    ascent="1638"
    descent="-410"
    x-height="1059"
    cap-height="1536"
    bbox="10 -410 2093 1565"
    underline-thickness="0"
    underline-position="0"
    unicode-range="U+0020-FB02"
  />
<missing-glyph 
d="M104 0v1536h1522v-1536h-1522zM354 238h1022v1060h-1022v-1060zM1065 399l-207 209l-209 -209l-151 152l209 209l-209 207l151 153l209 -209l207 207l152 -151l-207 -207l207 -209z" />
    <glyph glyph-name=".notdef" 
d="M104 0v1536h1522v-1536h-1522zM354 238h1022v1060h-1022v-1060zM1065 399l-207 209l-209 -209l-151 152l209 209l-209 207l151 153l209 -209l207 207l152 -151l-207 -207l207 -209z" />
    <glyph glyph-name=".null" horiz-adv-x="0" 
 />
    <glyph glyph-name="nonmarkingreturn" horiz-adv-x="682" 
 />
    <glyph glyph-name="space" unicode=" " horiz-adv-x="421" 
 />
    <glyph glyph-name="exclam" unicode="!" 
d="M104 0v1536h1522v-1536h-1522zM354 238h1022v1060h-1022v-1060zM1065 399l-207 209l-209 -209l-151 152l209 209l-209 207l151 153l209 -209l207 207l152 -151l-207 -207l207 -209z" />
    <glyph glyph-name="quotedbl" unicode="&#x22;" 
d="M104 0v1536h1522v-1536h-1522zM354 238h1022v1060h-1022v-1060zM1065 399l-207 209l-209 -209l-151 152l209 209l-209 207l151 153l209 -209l207 207l152 -151l-207 -207l207 -209z" />
    <glyph glyph-name="numbersign" unicode="#" 
d="M104 0v1536h1522v-1536h-1522zM354 238h1022v1060h-1022v-1060zM1065 399l-207 209l-209 -209l-151 152l209 209l-209 207l151 153l209 -209l207 207l152 -151l-207 -207l207 -209z" />
    <glyph glyph-name="dollar" unicode="$" 
d="M104 0v1536h1522v-1536h-1522zM354 238h1022v1060h-1022v-1060zM1065 399l-207 209l-209 -209l-151 152l209 209l-209 207l151 153l209 -209l207 207l152 -151l-207 -207l207 -209z" />
    <glyph glyph-name="percent" unicode="%" 
d="M104 0v1536h1522v-1536h-1522zM354 238h1022v1060h-1022v-1060zM1065 399l-207 209l-209 -209l-151 152l209 209l-209 207l151 153l209 -209l207 207l152 -151l-207 -207l207 -209z" />
    <glyph glyph-name="ampersand" unicode="&#x26;" 
d="M104 0v1536h1522v-1536h-1522zM354 238h1022v1060h-1022v-1060zM1065 399l-207 209l-209 -209l-151 152l209 209l-209 207l151 153l209 -209l207 207l152 -151l-207 -207l207 -209z" />
    <glyph glyph-name="quotesingle" unicode="'" 
d="M104 0v1536h1522v-1536h-1522zM354 238h1022v1060h-1022v-1060zM1065 399l-207 209l-209 -209l-151 152l209 209l-209 207l151 153l209 -209l207 207l152 -151l-207 -207l207 -209z" />
    <glyph glyph-name="parenleft" unicode="(" 
d="M104 0v1536h1522v-1536h-1522zM354 238h1022v1060h-1022v-1060zM1065 399l-207 209l-209 -209l-151 152l209 209l-209 207l151 153l209 -209l207 207l152 -151l-207 -207l207 -209z" />
    <glyph glyph-name="parenright" unicode=")" 
d="M104 0v1536h1522v-1536h-1522zM354 238h1022v1060h-1022v-1060zM1065 399l-207 209l-209 -209l-151 152l209 209l-209 207l151 153l209 -209l207 207l152 -151l-207 -207l207 -209z" />
    <glyph glyph-name="asterisk" unicode="*" 
d="M104 0v1536h1522v-1536h-1522zM354 238h1022v1060h-1022v-1060zM1065 399l-207 209l-209 -209l-151 152l209 209l-209 207l151 153l209 -209l207 207l152 -151l-207 -207l207 -209z" />
    <glyph glyph-name="plus" unicode="+" 
d="M104 0v1536h1522v-1536h-1522zM354 238h1022v1060h-1022v-1060zM1065 399l-207 209l-209 -209l-151 152l209 209l-209 207l151 153l209 -209l207 207l152 -151l-207 -207l207 -209z" />
    <glyph glyph-name="comma" unicode="," horiz-adv-x="636" 
d="M309 -285h-278l137 627h391z" />
    <glyph glyph-name="hyphen" unicode="-" horiz-adv-x="917" 
d="M786 418h-657v248h657v-248z" />
    <glyph glyph-name="period" unicode="." horiz-adv-x="536" 
d="M444 0h-352v342h352v-342z" />
    <glyph glyph-name="slash" unicode="/" 
d="M104 0v1536h1522v-1536h-1522zM354 238h1022v1060h-1022v-1060zM1065 399l-207 209l-209 -209l-151 152l209 209l-209 207l151 153l209 -209l207 207l152 -151l-207 -207l207 -209z" />
    <glyph glyph-name="zero" unicode="0" horiz-adv-x="1249" 
d="M1178 539q0 -253 -149.5 -410.5t-405.5 -157.5q-254 0 -403.5 157.5t-149.5 410.5v458q0 249 150 408.5t403 159.5q127 0 232 -43t175.5 -118.5t109 -180t38.5 -226.5v-458zM453 524q0 -202 170 -202q172 0 172 202v488q0 202 -172 202q-85 0 -127.5 -54t-42.5 -148v-488
z" />
    <glyph glyph-name="one" unicode="1" horiz-adv-x="1249" 
d="M1139 352v-352h-1028v352h323v830h-323v354h714v-1184h314z" />
    <glyph glyph-name="two" unicode="2" horiz-adv-x="1249" 
d="M1169 352v-352h-1081v279l578 643q73 78 73 153q0 57 -34 93t-99 36q-63 0 -98 -40.5t-35 -98.5v-23h-385v23q0 222 142.5 361t400.5 139q123 0 223 -36.5t165.5 -101t100.5 -151t35 -186.5q0 -106 -44 -200t-140 -202l-299 -336h497z" />
    <glyph glyph-name="three" unicode="3" horiz-adv-x="1249" 
d="M1147 512q0 -222 -155 -367t-410 -145h-500v352h410q95 0 147.5 46.5t52.5 119.5q0 75 -49 118.5t-149 43.5h-283l315 502h-436v354h1026l-334 -547q170 -49 267.5 -177t97.5 -300z" />
    <glyph glyph-name="four" unicode="4" horiz-adv-x="1249" 
d="M1155 1536v-1536h-393v621h-668v915h393v-616h275v616h393z" />
    <glyph glyph-name="five" unicode="5" horiz-adv-x="1249" 
d="M631 0h-547v352h494q90 0 134 42t44 102q0 62 -40.5 101.5t-135.5 39.5h-496v899h985v-354h-610v-209h176q248 0 389 -137t141 -347q0 -213 -141.5 -351t-392.5 -138z" />
    <glyph glyph-name="six" unicode="6" horiz-adv-x="1249" 
d="M1200 500q0 -231 -162 -380t-415 -149q-250 0 -413 146t-163 370q0 135 66 254l440 795h469l-303 -537q145 -12 256 -84t168 -180t57 -235zM426 500q0 -83 56 -135t141 -52q88 0 143 52t55 135q0 80 -55.5 133t-142.5 53q-85 0 -141 -53t-56 -133z" />
    <glyph glyph-name="seven" unicode="7" horiz-adv-x="1249" 
d="M1180 1536l-539 -1536h-453l424 1182h-544v354h1112z" />
    <glyph glyph-name="eight" unicode="8" horiz-adv-x="1249" 
d="M1180 465q0 -214 -154 -354t-403 -140q-246 0 -400.5 140.5t-154.5 353.5q0 110 50.5 208.5t141.5 164.5q-123 117 -123 292q0 188 135 311.5t351 123.5t351.5 -123.5t135.5 -311.5q0 -173 -125 -292q92 -66 143.5 -164.5t51.5 -208.5zM473 1110q0 -67 42.5 -108
t107.5 -41q68 0 109.5 41t41.5 108q0 66 -41 106.5t-110 40.5q-65 0 -107.5 -41.5t-42.5 -105.5zM434 492q0 -81 53.5 -132t135.5 -51q85 0 137.5 50.5t52.5 132.5q0 79 -53 131.5t-137 52.5q-81 0 -135 -53t-54 -131z" />
    <glyph glyph-name="nine" unicode="9" horiz-adv-x="1249" 
d="M1135 795l-441 -795h-469l305 537q-146 12 -257.5 83.5t-168.5 179.5t-57 236q0 231 162.5 380t415.5 149q250 0 412.5 -146t162.5 -370q0 -137 -65 -254zM426 1036q0 -80 56 -133t143 -53q85 0 140.5 53t55.5 133q0 83 -55.5 135t-140.5 52q-88 0 -143.5 -52t-55.5 -135
z" />
    <glyph glyph-name="colon" unicode=":" 
d="M104 0v1536h1522v-1536h-1522zM354 238h1022v1060h-1022v-1060zM1065 399l-207 209l-209 -209l-151 152l209 209l-209 207l151 153l209 -209l207 207l152 -151l-207 -207l207 -209z" />
    <glyph glyph-name="semicolon" unicode=";" 
d="M104 0v1536h1522v-1536h-1522zM354 238h1022v1060h-1022v-1060zM1065 399l-207 209l-209 -209l-151 152l209 209l-209 207l151 153l209 -209l207 207l152 -151l-207 -207l207 -209z" />
    <glyph glyph-name="less" unicode="&#x3c;" 
d="M104 0v1536h1522v-1536h-1522zM354 238h1022v1060h-1022v-1060zM1065 399l-207 209l-209 -209l-151 152l209 209l-209 207l151 153l209 -209l207 207l152 -151l-207 -207l207 -209z" />
    <glyph glyph-name="equal" unicode="=" 
d="M104 0v1536h1522v-1536h-1522zM354 238h1022v1060h-1022v-1060zM1065 399l-207 209l-209 -209l-151 152l209 209l-209 207l151 153l209 -209l207 207l152 -151l-207 -207l207 -209z" />
    <glyph glyph-name="greater" unicode="&#x3e;" 
d="M104 0v1536h1522v-1536h-1522zM354 238h1022v1060h-1022v-1060zM1065 399l-207 209l-209 -209l-151 152l209 209l-209 207l151 153l209 -209l207 207l152 -151l-207 -207l207 -209z" />
    <glyph glyph-name="question" unicode="?" 
d="M104 0v1536h1522v-1536h-1522zM354 238h1022v1060h-1022v-1060zM1065 399l-207 209l-209 -209l-151 152l209 209l-209 207l151 153l209 -209l207 207l152 -151l-207 -207l207 -209z" />
    <glyph glyph-name="at" unicode="@" 
d="M104 0v1536h1522v-1536h-1522zM354 238h1022v1060h-1022v-1060zM1065 399l-207 209l-209 -209l-151 152l209 209l-209 207l151 153l209 -209l207 207l152 -151l-207 -207l207 -209z" />
    <glyph glyph-name="A" unicode="A" horiz-adv-x="1472" 
d="M995 0l-61 334h-397l-62 -334h-446l354 1536h707l352 -1536h-447zM686 1151l-90 -494h278l-90 494h-98z" />
    <glyph glyph-name="B" unicode="B" horiz-adv-x="1398" 
d="M1352 479q0 -211 -142 -345t-393 -134h-717v1536h688q221 0 346.5 -116t125.5 -300q0 -78 -35 -152t-97 -120q102 -46 163 -145t61 -224zM723 1188h-213v-252h211q71 0 107 36t36 91t-34 90t-107 35zM768 664h-258v-320h256q91 0 136.5 46t45.5 116q0 69 -43 113.5
t-137 44.5z" />
    <glyph glyph-name="C" unicode="C" horiz-adv-x="1736" 
d="M1681 653q-25 -201 -135.5 -356.5t-283.5 -240.5t-381 -85q-177 0 -330 61t-261 167.5t-169.5 255t-61.5 317.5q0 225 105 406t293 284t424 103q206 0 379 -83t284.5 -236.5t136.5 -350.5h-438q-41 119 -136 190.5t-226 71.5q-167 0 -273 -110t-106 -279t106 -279
t273 -110q135 0 231.5 75.5t132.5 198.5h436z" />
    <glyph glyph-name="D" unicode="D" horiz-adv-x="1533" 
d="M651 0h-551v1536h549q192 0 348 -56.5t260.5 -157.5t161 -241t56.5 -307q0 -228 -97.5 -402.5t-285 -273t-441.5 -98.5zM639 1151h-117v-758h119q196 0 294.5 103t98.5 274q0 174 -99.5 277.5t-295.5 103.5z" />
    <glyph glyph-name="E" unicode="E" horiz-adv-x="1171" 
d="M1104 350v-350h-1004v1536h990v-350h-553v-240h528v-303h-528v-293h567z" />
    <glyph glyph-name="F" unicode="F" horiz-adv-x="931" 
d="M848 643h-311v-643h-437v1536h774v-350h-337v-240h311v-303z" />
    <glyph glyph-name="G" unicode="G" horiz-adv-x="1746" 
d="M1690 768q0 -168 -63 -316.5t-170.5 -253.5t-256.5 -166t-315 -61q-238 0 -427 104t-294 286.5t-105 408.5q0 225 103.5 406.5t290 285t421.5 103.5q287 0 502.5 -153.5t288.5 -420.5h-467q-35 80 -119.5 132.5t-193.5 52.5q-170 0 -278.5 -115t-108.5 -293
q0 -181 110.5 -299.5t286.5 -118.5q129 0 226.5 59.5t148.5 163.5h-371v265h787q0 -6 2 -32.5t2 -37.5z" />
    <glyph glyph-name="H" unicode="H" horiz-adv-x="1456" 
d="M920 0v637h-383v-637h-437v1536h437v-571h383v571h438v-1536h-438z" />
    <glyph glyph-name="I" unicode="I" horiz-adv-x="649" 
d="M543 0h-437v1536h437v-1536z" />
    <glyph glyph-name="J" unicode="J" horiz-adv-x="909" 
d="M340 0h-285v354h160q166 0 166 181v1001h436v-1065q0 -231 -122.5 -351t-354.5 -120z" />
    <glyph glyph-name="K" unicode="K" horiz-adv-x="1458" 
d="M956 0l-290 637h-129v-637h-437v1536h437v-571h108l289 571h475l-367 -705l406 -831h-492z" />
    <glyph glyph-name="L" unicode="L" horiz-adv-x="903" 
d="M844 350v-350h-744v1536h437v-1186h307z" />
    <glyph glyph-name="M" unicode="M" horiz-adv-x="2080" 
d="M537 0h-437v1536h715l191 -735h67l191 735h716v-1536h-436v1022h-78l-200 -815h-451l-203 815h-75v-1022z" />
    <glyph glyph-name="N" unicode="N" horiz-adv-x="1595" 
d="M502 0h-402v1536h504l414 -870h76v870h401v-1536h-518l-399 870h-76v-870z" />
    <glyph glyph-name="O" unicode="O" horiz-adv-x="1763" 
d="M1706 772q0 -169 -61.5 -317.5t-169.5 -255t-262 -167.5t-332 -61q-177 0 -330 61t-261 167.5t-169.5 255t-61.5 317.5q0 225 105 406t293 284t424 103q178 0 332 -60.5t262 -165.5t169.5 -251.5t61.5 -315.5zM502 768q0 -169 106 -279t273 -110q169 0 276 110t107 279
t-107 279t-276 110q-167 0 -273 -110t-106 -279z" />
    <glyph glyph-name="P" unicode="P" horiz-adv-x="1402" 
d="M778 426h-241v-426h-437v1536h676q274 0 433 -149.5t159 -403.5q0 -255 -159 -406t-431 -151zM719 1190h-182v-418h180q109 0 164 59.5t55 151.5q0 89 -54 148t-163 59z" />
    <glyph glyph-name="Q" unicode="Q" horiz-adv-x="1763" 
d="M1706 772q0 -289 -168 -501t-444 -275l2 -311h-428l2 309q-275 65 -443 277t-168 501q0 225 105 406t293 284t424 103q178 0 332 -60.5t262 -165.5t169.5 -251.5t61.5 -315.5zM502 768q0 -153 87.5 -259t231.5 -126h121q145 20 233.5 126.5t88.5 258.5q0 169 -107 279
t-276 110q-167 0 -273 -110t-106 -279z" />
    <glyph glyph-name="R" unicode="R" horiz-adv-x="1439" 
d="M938 0l-190 496h-211v-496h-437v1536h736q264 0 411.5 -145.5t147.5 -386.5q0 -145 -60 -257t-174 -176l234 -571h-457zM741 1190h-204v-397h202q105 0 155 56.5t50 143.5q0 86 -50 141.5t-153 55.5z" />
    <glyph glyph-name="S" unicode="S" horiz-adv-x="1312" 
d="M745 0h-682v352h586q90 0 134 42t44 102q0 61 -41.5 101t-136.5 40h-119q-218 0 -351.5 124t-133.5 324t135 325.5t355 125.5h675v-352h-571q-63 0 -97 -30t-34 -79q0 -45 34.5 -73.5t96.5 -28.5h109q126 0 228 -37.5t167.5 -103.5t101 -153.5t35.5 -189.5
q0 -213 -142.5 -351t-392.5 -138z" />
    <glyph glyph-name="T" unicode="T" horiz-adv-x="1075" 
d="M756 0h-437v1186h-272v350h979v-350h-270v-1186z" />
    <glyph glyph-name="U" unicode="U" horiz-adv-x="1452" 
d="M1364 608q0 -294 -172.5 -465.5t-466.5 -171.5q-292 0 -465.5 172t-173.5 465v928h436v-950q0 -102 54.5 -165t148.5 -63q95 0 149 63t54 165v950h436v-928z" />
    <glyph glyph-name="V" unicode="V" horiz-adv-x="1482" 
d="M1100 0h-717l-354 1536h460l207 -1151h88l209 1151h459z" />
    <glyph glyph-name="W" unicode="W" horiz-adv-x="2121" 
d="M1225 0l-164 606l-164 -606h-514l-354 1536h438l184 -991h72l133 512v268h412v-266l131 -514h74l182 991h438l-352 -1536h-516z" />
    <glyph glyph-name="X" unicode="X" horiz-adv-x="1439" 
d="M961 0l-177 635h-129l-176 -635h-469l266 807l-243 729h471l155 -573h121l156 573h471l-252 -727l275 -809h-469z" />
    <glyph glyph-name="Y" unicode="Y" horiz-adv-x="1396" 
d="M1143 545h-225v-545h-439v545h-225l-227 991h458l125 -686h176l123 686h461z" />
    <glyph glyph-name="Z" unicode="Z" horiz-adv-x="1208" 
d="M1145 0h-1084v377l592 731v78h-575v350h1055v-428l-551 -680v-78h563v-350z" />
    <glyph glyph-name="bracketleft" unicode="[" 
d="M104 0v1536h1522v-1536h-1522zM354 238h1022v1060h-1022v-1060zM1065 399l-207 209l-209 -209l-151 152l209 209l-209 207l151 153l209 -209l207 207l152 -151l-207 -207l207 -209z" />
    <glyph glyph-name="backslash" unicode="\" 
d="M104 0v1536h1522v-1536h-1522zM354 238h1022v1060h-1022v-1060zM1065 399l-207 209l-209 -209l-151 152l209 209l-209 207l151 153l209 -209l207 207l152 -151l-207 -207l207 -209z" />
    <glyph glyph-name="bracketright" unicode="]" 
d="M104 0v1536h1522v-1536h-1522zM354 238h1022v1060h-1022v-1060zM1065 399l-207 209l-209 -209l-151 152l209 209l-209 207l151 153l209 -209l207 207l152 -151l-207 -207l207 -209z" />
    <glyph glyph-name="asciicircum" unicode="^" 
d="M104 0v1536h1522v-1536h-1522zM354 238h1022v1060h-1022v-1060zM1065 399l-207 209l-209 -209l-151 152l209 209l-209 207l151 153l209 -209l207 207l152 -151l-207 -207l207 -209z" />
    <glyph glyph-name="underscore" unicode="_" 
d="M104 0v1536h1522v-1536h-1522zM354 238h1022v1060h-1022v-1060zM1065 399l-207 209l-209 -209l-151 152l209 209l-209 207l151 153l209 -209l207 207l152 -151l-207 -207l207 -209z" />
    <glyph glyph-name="grave" unicode="`" 
d="M104 0v1536h1522v-1536h-1522zM354 238h1022v1060h-1022v-1060zM1065 399l-207 209l-209 -209l-151 152l209 209l-209 207l151 153l209 -209l207 207l152 -151l-207 -207l207 -209z" />
    <glyph glyph-name="a" unicode="a" horiz-adv-x="1331" 
d="M864 0v188q-54 -103 -143.5 -160t-196.5 -57q-196 0 -327 158t-131 401q0 240 131 398.5t327 158.5q106 0 195.5 -56.5t144.5 -158.5v187h377v-1059h-377zM442 530q0 -94 59 -154.5t146 -60.5q71 0 130.5 40.5t86.5 95.5v153q-29 57 -87 97t-130 40q-87 0 -146 -59
t-59 -152z" />
    <glyph glyph-name="b" unicode="b" horiz-adv-x="1331" 
d="M1266 530q0 -243 -131.5 -401t-329.5 -158q-106 0 -195.5 56.5t-144.5 160.5v-188h-375v1536h375v-666q55 102 145 159.5t195 57.5q197 0 329 -158t132 -399zM682 741q-72 0 -130.5 -40.5t-86.5 -98.5v-149q25 -55 85 -96.5t132 -41.5q87 0 146 60.5t59 154.5
q0 93 -59 152t-146 59z" />
    <glyph glyph-name="c" unicode="c" horiz-adv-x="1263" 
d="M1200 426q-16 -139 -91.5 -243t-194.5 -158t-265 -54q-261 0 -422 156.5t-161 402.5q0 119 42.5 221.5t117.5 176.5t184.5 116.5t238.5 42.5q222 0 374.5 -126t178.5 -338h-352q-24 56 -77.5 90.5t-123.5 34.5q-97 0 -159 -63t-62 -155q0 -95 62 -158t159 -63
q68 0 120 31.5t79 85.5h352z" />
    <glyph glyph-name="d" unicode="d" horiz-adv-x="1331" 
d="M864 0v188q-54 -103 -143.5 -160t-196.5 -57q-196 0 -327 158t-131 401q0 240 131 398.5t327 158.5q106 0 195.5 -56.5t144.5 -158.5v664h377v-1536h-377zM442 530q0 -94 59 -154.5t146 -60.5q71 0 130.5 40.5t86.5 95.5v153q-29 57 -87 97t-130 40q-87 0 -146 -59
t-59 -152z" />
    <glyph glyph-name="e" unicode="e" horiz-adv-x="1243" 
d="M1171 393q-35 -188 -185.5 -305t-360.5 -117q-161 0 -289 73t-199 201t-71 287q0 153 70.5 279.5t199.5 201t289 74.5q111 0 204 -34t157 -91.5t109 -134t66 -160.5t21 -171h-789q12 -100 75 -156.5t159 -56.5q72 0 129 30t82 80h333zM625 791q-74 0 -130 -37.5
t-83 -102.5h415q-22 67 -74 103.5t-128 36.5z" />
    <glyph glyph-name="f" unicode="f" horiz-adv-x="776" 
d="M170 -410h-150v291h95q71 0 71 72v809h-153v297h153v123q0 170 102 262t306 92h151v-291h-96q-71 0 -71 -71v-115h167v-297h-167v-817q0 -170 -102.5 -262.5t-305.5 -92.5z" />
    <glyph glyph-name="g" unicode="g" horiz-adv-x="1331" 
d="M1241 -55q0 -171 -102 -263t-305 -92h-566v287h523q73 0 73 76v244q-55 -96 -144.5 -148.5t-195.5 -52.5q-196 0 -327 150t-131 382q0 243 131 401t327 158q107 0 196.5 -57t143.5 -160v189h377v-1114zM442 528q0 -93 59 -153t146 -60q72 0 130 41t87 99v153
q-26 55 -86 94t-131 39q-88 0 -146.5 -59.5t-58.5 -153.5z" />
    <glyph glyph-name="h" unicode="h" horiz-adv-x="1269" 
d="M643 741q-90 0 -164 -63v-678h-389v1536h389v-668q57 102 154.5 160.5t210.5 58.5q160 0 251 -103.5t91 -283.5v-700h-391v573q0 168 -152 168z" />
    <glyph glyph-name="i" unicode="i" horiz-adv-x="575" 
d="M483 1208h-391v328h391v-328zM483 0h-391v1059h391v-1059z" />
    <glyph glyph-name="j" unicode="j" horiz-adv-x="575" 
d="M483 1208h-391v328h391v-328zM483 -410h-391v1469h391v-1469z" />
    <glyph glyph-name="k" unicode="k" horiz-adv-x="1206" 
d="M764 0l-174 393h-111v-393h-389v1536h389v-846h103l174 369h407l-252 -492l275 -567h-422z" />
    <glyph glyph-name="l" unicode="l" horiz-adv-x="575" 
d="M483 0h-391v1536h391v-1536z" />
    <glyph glyph-name="m" unicode="m" horiz-adv-x="1968" 
d="M647 741q-91 0 -168 -65v-676h-389v1059h389v-197q57 103 156.5 164t214.5 61q120 0 202 -62t113 -175q59 109 162 173t221 64q155 0 245.5 -100.5t90.5 -275.5v-711h-391v582q0 75 -37 117t-110 42q-88 0 -162 -63v-678h-391v582q0 76 -36.5 117.5t-109.5 41.5z" />
    <glyph glyph-name="n" unicode="n" horiz-adv-x="1269" 
d="M647 741q-91 0 -168 -65v-676h-389v1059h389v-197q59 103 158.5 164t212.5 61q155 0 245.5 -100.5t90.5 -275.5v-711h-391v582q0 75 -37.5 117t-110.5 42z" />
    <glyph glyph-name="o" unicode="o" horiz-adv-x="1300" 
d="M1235 530q0 -246 -162 -402.5t-422 -156.5q-262 0 -423.5 156.5t-161.5 402.5q0 242 162 399.5t423 157.5q128 0 237.5 -42.5t185.5 -116.5t118.5 -177t42.5 -221zM428 530q0 -95 62 -158t161 -63q97 0 160 63t63 158q0 92 -63 155t-160 63q-98 0 -160.5 -63t-62.5 -155z
" />
    <glyph glyph-name="p" unicode="p" horiz-adv-x="1331" 
d="M805 -29q-105 0 -195 57.5t-145 159.5v-598h-375v1469h375v-189q55 104 144.5 160.5t195.5 56.5q198 0 329.5 -158t131.5 -401q0 -241 -132 -399t-329 -158zM682 741q-73 0 -132.5 -40t-84.5 -95v-149q29 -59 87 -100.5t130 -41.5q87 0 146 60t59 153q0 94 -58.5 153.5
t-146.5 59.5z" />
    <glyph glyph-name="q" unicode="q" horiz-adv-x="1331" 
d="M1241 1059v-1469h-377v596q-55 -102 -144.5 -158.5t-195.5 -56.5q-196 0 -327 158.5t-131 398.5q0 243 131 401t327 158q107 0 196.5 -57t143.5 -160v189h377zM442 528q0 -93 59 -153t146 -60q72 0 130 41t87 99v153q-26 55 -86 94t-131 39q-88 0 -146.5 -59.5
t-58.5 -153.5z" />
    <glyph glyph-name="r" unicode="r" horiz-adv-x="858" 
d="M807 653q-83 0 -178.5 -19.5t-149.5 -43.5v-590h-389v1059h389v-221q52 116 138 182.5t190 66.5v-434z" />
    <glyph glyph-name="s" unicode="s" horiz-adv-x="1026" 
d="M604 0h-530v307h501q89 0 89 60q0 59 -86 59h-175q-163 0 -257.5 90t-94.5 232q0 137 99.5 224t250.5 87h527v-307h-488q-57 0 -57 -41q0 -43 57 -43h166q181 0 279 -92.5t98 -239.5q0 -148 -100 -242t-279 -94z" />
    <glyph glyph-name="t" unicode="t" horiz-adv-x="763" 
d="M733 762h-155v-762h-392v762h-153v297h153v297h392v-297h155v-297z" />
    <glyph glyph-name="u" unicode="u" horiz-adv-x="1267" 
d="M786 0v195q-59 -104 -157 -164t-211 -60q-154 0 -244 101.5t-90 275.5v711h391v-582q0 -76 37 -119t109 -43q87 0 165 66v678h392v-1059h-392z" />
    <glyph glyph-name="v" unicode="v" horiz-adv-x="1122" 
d="M856 0h-590l-246 1059h390l114 -746h72l115 746h391z" />
    <glyph glyph-name="w" unicode="w" horiz-adv-x="1769" 
d="M1004 0l-119 406l-119 -406h-504l-242 1059h381l125 -672h64l121 387v170h348v-170l121 -387h63l127 672h381l-244 -1059h-503z" />
    <glyph glyph-name="x" unicode="x" horiz-adv-x="1179" 
d="M756 0l-138 399h-65l-129 -399h-404l230 547l-215 512h399l119 -377h65l121 377h400l-215 -510l235 -549h-403z" />
    <glyph glyph-name="y" unicode="y" horiz-adv-x="1153" 
d="M866 -109q-35 -153 -128 -227t-253 -74h-247l-66 291h260q51 0 79 18.5t40 61.5l18 66h-313l-236 1032h396l114 -746h91l114 746h400z" />
    <glyph glyph-name="z" unicode="z" horiz-adv-x="999" 
d="M950 0h-899v270l426 424v58h-405v307h858v-314l-385 -378v-60h405v-307z" />
    <glyph glyph-name="braceleft" unicode="{" 
d="M104 0v1536h1522v-1536h-1522zM354 238h1022v1060h-1022v-1060zM1065 399l-207 209l-209 -209l-151 152l209 209l-209 207l151 153l209 -209l207 207l152 -151l-207 -207l207 -209z" />
    <glyph glyph-name="bar" unicode="|" 
d="M104 0v1536h1522v-1536h-1522zM354 238h1022v1060h-1022v-1060zM1065 399l-207 209l-209 -209l-151 152l209 209l-209 207l151 153l209 -209l207 207l152 -151l-207 -207l207 -209z" />
    <glyph glyph-name="braceright" unicode="}" 
d="M104 0v1536h1522v-1536h-1522zM354 238h1022v1060h-1022v-1060zM1065 399l-207 209l-209 -209l-151 152l209 209l-209 207l151 153l209 -209l207 207l152 -151l-207 -207l207 -209z" />
    <glyph glyph-name="asciitilde" unicode="~" 
d="M104 0v1536h1522v-1536h-1522zM354 238h1022v1060h-1022v-1060zM1065 399l-207 209l-209 -209l-151 152l209 209l-209 207l151 153l209 -209l207 207l152 -151l-207 -207l207 -209z" />
    <glyph glyph-name="exclamdown" unicode="&#xa1;" 
d="M104 0v1536h1522v-1536h-1522zM354 238h1022v1060h-1022v-1060zM1065 399l-207 209l-209 -209l-151 152l209 209l-209 207l151 153l209 -209l207 207l152 -151l-207 -207l207 -209z" />
    <glyph glyph-name="cent" unicode="&#xa2;" 
d="M104 0v1536h1522v-1536h-1522zM354 238h1022v1060h-1022v-1060zM1065 399l-207 209l-209 -209l-151 152l209 209l-209 207l151 153l209 -209l207 207l152 -151l-207 -207l207 -209z" />
    <glyph glyph-name="sterling" unicode="&#xa3;" 
d="M104 0v1536h1522v-1536h-1522zM354 238h1022v1060h-1022v-1060zM1065 399l-207 209l-209 -209l-151 152l209 209l-209 207l151 153l209 -209l207 207l152 -151l-207 -207l207 -209z" />
    <glyph glyph-name="currency" unicode="&#xa4;" 
d="M104 0v1536h1522v-1536h-1522zM354 238h1022v1060h-1022v-1060zM1065 399l-207 209l-209 -209l-151 152l209 209l-209 207l151 153l209 -209l207 207l152 -151l-207 -207l207 -209z" />
    <glyph glyph-name="yen" unicode="&#xa5;" 
d="M104 0v1536h1522v-1536h-1522zM354 238h1022v1060h-1022v-1060zM1065 399l-207 209l-209 -209l-151 152l209 209l-209 207l151 153l209 -209l207 207l152 -151l-207 -207l207 -209z" />
    <glyph glyph-name="brokenbar" unicode="&#xa6;" 
d="M104 0v1536h1522v-1536h-1522zM354 238h1022v1060h-1022v-1060zM1065 399l-207 209l-209 -209l-151 152l209 209l-209 207l151 153l209 -209l207 207l152 -151l-207 -207l207 -209z" />
    <glyph glyph-name="section" unicode="&#xa7;" 
d="M104 0v1536h1522v-1536h-1522zM354 238h1022v1060h-1022v-1060zM1065 399l-207 209l-209 -209l-151 152l209 209l-209 207l151 153l209 -209l207 207l152 -151l-207 -207l207 -209z" />
    <glyph glyph-name="dieresis" unicode="&#xa8;" 
d="M104 0v1536h1522v-1536h-1522zM354 238h1022v1060h-1022v-1060zM1065 399l-207 209l-209 -209l-151 152l209 209l-209 207l151 153l209 -209l207 207l152 -151l-207 -207l207 -209z" />
    <glyph glyph-name="copyright" unicode="&#xa9;" 
d="M104 0v1536h1522v-1536h-1522zM354 238h1022v1060h-1022v-1060zM1065 399l-207 209l-209 -209l-151 152l209 209l-209 207l151 153l209 -209l207 207l152 -151l-207 -207l207 -209z" />
    <glyph glyph-name="ordfeminine" unicode="&#xaa;" 
d="M104 0v1536h1522v-1536h-1522zM354 238h1022v1060h-1022v-1060zM1065 399l-207 209l-209 -209l-151 152l209 209l-209 207l151 153l209 -209l207 207l152 -151l-207 -207l207 -209z" />
    <glyph glyph-name="guillemotleft" unicode="&#xab;" 
d="M104 0v1536h1522v-1536h-1522zM354 238h1022v1060h-1022v-1060zM1065 399l-207 209l-209 -209l-151 152l209 209l-209 207l151 153l209 -209l207 207l152 -151l-207 -207l207 -209z" />
    <glyph glyph-name="registered" unicode="&#xae;" 
d="M104 0v1536h1522v-1536h-1522zM354 238h1022v1060h-1022v-1060zM1065 399l-207 209l-209 -209l-151 152l209 209l-209 207l151 153l209 -209l207 207l152 -151l-207 -207l207 -209z" />
    <glyph glyph-name="macron" unicode="&#xaf;" 
d="M104 0v1536h1522v-1536h-1522zM354 238h1022v1060h-1022v-1060zM1065 399l-207 209l-209 -209l-151 152l209 209l-209 207l151 153l209 -209l207 207l152 -151l-207 -207l207 -209z" />
    <glyph glyph-name="degree" unicode="&#xb0;" 
d="M104 0v1536h1522v-1536h-1522zM354 238h1022v1060h-1022v-1060zM1065 399l-207 209l-209 -209l-151 152l209 209l-209 207l151 153l209 -209l207 207l152 -151l-207 -207l207 -209z" />
    <glyph glyph-name="plusminus" unicode="&#xb1;" 
d="M104 0v1536h1522v-1536h-1522zM354 238h1022v1060h-1022v-1060zM1065 399l-207 209l-209 -209l-151 152l209 209l-209 207l151 153l209 -209l207 207l152 -151l-207 -207l207 -209z" />
    <glyph glyph-name="acute" unicode="&#xb4;" 
d="M104 0v1536h1522v-1536h-1522zM354 238h1022v1060h-1022v-1060zM1065 399l-207 209l-209 -209l-151 152l209 209l-209 207l151 153l209 -209l207 207l152 -151l-207 -207l207 -209z" />
    <glyph glyph-name="paragraph" unicode="&#xb6;" 
d="M104 0v1536h1522v-1536h-1522zM354 238h1022v1060h-1022v-1060zM1065 399l-207 209l-209 -209l-151 152l209 209l-209 207l151 153l209 -209l207 207l152 -151l-207 -207l207 -209z" />
    <glyph glyph-name="periodcentered" unicode="&#xb7;" 
d="M104 0v1536h1522v-1536h-1522zM354 238h1022v1060h-1022v-1060zM1065 399l-207 209l-209 -209l-151 152l209 209l-209 207l151 153l209 -209l207 207l152 -151l-207 -207l207 -209z" />
    <glyph glyph-name="cedilla" unicode="&#xb8;" 
d="M104 0v1536h1522v-1536h-1522zM354 238h1022v1060h-1022v-1060zM1065 399l-207 209l-209 -209l-151 152l209 209l-209 207l151 153l209 -209l207 207l152 -151l-207 -207l207 -209z" />
    <glyph glyph-name="ordmasculine" unicode="&#xba;" 
d="M104 0v1536h1522v-1536h-1522zM354 238h1022v1060h-1022v-1060zM1065 399l-207 209l-209 -209l-151 152l209 209l-209 207l151 153l209 -209l207 207l152 -151l-207 -207l207 -209z" />
    <glyph glyph-name="guillemotright" unicode="&#xbb;" 
d="M104 0v1536h1522v-1536h-1522zM354 238h1022v1060h-1022v-1060zM1065 399l-207 209l-209 -209l-151 152l209 209l-209 207l151 153l209 -209l207 207l152 -151l-207 -207l207 -209z" />
    <glyph glyph-name="onequarter" unicode="&#xbc;" 
d="M104 0v1536h1522v-1536h-1522zM354 238h1022v1060h-1022v-1060zM1065 399l-207 209l-209 -209l-151 152l209 209l-209 207l151 153l209 -209l207 207l152 -151l-207 -207l207 -209z" />
    <glyph glyph-name="onehalf" unicode="&#xbd;" 
d="M104 0v1536h1522v-1536h-1522zM354 238h1022v1060h-1022v-1060zM1065 399l-207 209l-209 -209l-151 152l209 209l-209 207l151 153l209 -209l207 207l152 -151l-207 -207l207 -209z" />
    <glyph glyph-name="threequarters" unicode="&#xbe;" 
d="M104 0v1536h1522v-1536h-1522zM354 238h1022v1060h-1022v-1060zM1065 399l-207 209l-209 -209l-151 152l209 209l-209 207l151 153l209 -209l207 207l152 -151l-207 -207l207 -209z" />
    <glyph glyph-name="questiondown" unicode="&#xbf;" 
d="M104 0v1536h1522v-1536h-1522zM354 238h1022v1060h-1022v-1060zM1065 399l-207 209l-209 -209l-151 152l209 209l-209 207l151 153l209 -209l207 207l152 -151l-207 -207l207 -209z" />
    <glyph glyph-name="Agrave" unicode="&#xc0;" 
d="M104 0v1536h1522v-1536h-1522zM354 238h1022v1060h-1022v-1060zM1065 399l-207 209l-209 -209l-151 152l209 209l-209 207l151 153l209 -209l207 207l152 -151l-207 -207l207 -209z" />
    <glyph glyph-name="Aacute" unicode="&#xc1;" 
d="M104 0v1536h1522v-1536h-1522zM354 238h1022v1060h-1022v-1060zM1065 399l-207 209l-209 -209l-151 152l209 209l-209 207l151 153l209 -209l207 207l152 -151l-207 -207l207 -209z" />
    <glyph glyph-name="Acircumflex" unicode="&#xc2;" 
d="M104 0v1536h1522v-1536h-1522zM354 238h1022v1060h-1022v-1060zM1065 399l-207 209l-209 -209l-151 152l209 209l-209 207l151 153l209 -209l207 207l152 -151l-207 -207l207 -209z" />
    <glyph glyph-name="Atilde" unicode="&#xc3;" 
d="M104 0v1536h1522v-1536h-1522zM354 238h1022v1060h-1022v-1060zM1065 399l-207 209l-209 -209l-151 152l209 209l-209 207l151 153l209 -209l207 207l152 -151l-207 -207l207 -209z" />
    <glyph glyph-name="Adieresis" unicode="&#xc4;" 
d="M104 0v1536h1522v-1536h-1522zM354 238h1022v1060h-1022v-1060zM1065 399l-207 209l-209 -209l-151 152l209 209l-209 207l151 153l209 -209l207 207l152 -151l-207 -207l207 -209z" />
    <glyph glyph-name="Aring" unicode="&#xc5;" 
d="M104 0v1536h1522v-1536h-1522zM354 238h1022v1060h-1022v-1060zM1065 399l-207 209l-209 -209l-151 152l209 209l-209 207l151 153l209 -209l207 207l152 -151l-207 -207l207 -209z" />
    <glyph glyph-name="AE" unicode="&#xc6;" 
d="M104 0v1536h1522v-1536h-1522zM354 238h1022v1060h-1022v-1060zM1065 399l-207 209l-209 -209l-151 152l209 209l-209 207l151 153l209 -209l207 207l152 -151l-207 -207l207 -209z" />
    <glyph glyph-name="Ccedilla" unicode="&#xc7;" 
d="M104 0v1536h1522v-1536h-1522zM354 238h1022v1060h-1022v-1060zM1065 399l-207 209l-209 -209l-151 152l209 209l-209 207l151 153l209 -209l207 207l152 -151l-207 -207l207 -209z" />
    <glyph glyph-name="Egrave" unicode="&#xc8;" 
d="M104 0v1536h1522v-1536h-1522zM354 238h1022v1060h-1022v-1060zM1065 399l-207 209l-209 -209l-151 152l209 209l-209 207l151 153l209 -209l207 207l152 -151l-207 -207l207 -209z" />
    <glyph glyph-name="Eacute" unicode="&#xc9;" 
d="M104 0v1536h1522v-1536h-1522zM354 238h1022v1060h-1022v-1060zM1065 399l-207 209l-209 -209l-151 152l209 209l-209 207l151 153l209 -209l207 207l152 -151l-207 -207l207 -209z" />
    <glyph glyph-name="Ecircumflex" unicode="&#xca;" 
d="M104 0v1536h1522v-1536h-1522zM354 238h1022v1060h-1022v-1060zM1065 399l-207 209l-209 -209l-151 152l209 209l-209 207l151 153l209 -209l207 207l152 -151l-207 -207l207 -209z" />
    <glyph glyph-name="Edieresis" unicode="&#xcb;" 
d="M104 0v1536h1522v-1536h-1522zM354 238h1022v1060h-1022v-1060zM1065 399l-207 209l-209 -209l-151 152l209 209l-209 207l151 153l209 -209l207 207l152 -151l-207 -207l207 -209z" />
    <glyph glyph-name="Igrave" unicode="&#xcc;" 
d="M104 0v1536h1522v-1536h-1522zM354 238h1022v1060h-1022v-1060zM1065 399l-207 209l-209 -209l-151 152l209 209l-209 207l151 153l209 -209l207 207l152 -151l-207 -207l207 -209z" />
    <glyph glyph-name="Iacute" unicode="&#xcd;" 
d="M104 0v1536h1522v-1536h-1522zM354 238h1022v1060h-1022v-1060zM1065 399l-207 209l-209 -209l-151 152l209 209l-209 207l151 153l209 -209l207 207l152 -151l-207 -207l207 -209z" />
    <glyph glyph-name="Icircumflex" unicode="&#xce;" 
d="M104 0v1536h1522v-1536h-1522zM354 238h1022v1060h-1022v-1060zM1065 399l-207 209l-209 -209l-151 152l209 209l-209 207l151 153l209 -209l207 207l152 -151l-207 -207l207 -209z" />
    <glyph glyph-name="Idieresis" unicode="&#xcf;" 
d="M104 0v1536h1522v-1536h-1522zM354 238h1022v1060h-1022v-1060zM1065 399l-207 209l-209 -209l-151 152l209 209l-209 207l151 153l209 -209l207 207l152 -151l-207 -207l207 -209z" />
    <glyph glyph-name="Eth" unicode="&#xd0;" 
d="M104 0v1536h1522v-1536h-1522zM354 238h1022v1060h-1022v-1060zM1065 399l-207 209l-209 -209l-151 152l209 209l-209 207l151 153l209 -209l207 207l152 -151l-207 -207l207 -209z" />
    <glyph glyph-name="Ntilde" unicode="&#xd1;" 
d="M104 0v1536h1522v-1536h-1522zM354 238h1022v1060h-1022v-1060zM1065 399l-207 209l-209 -209l-151 152l209 209l-209 207l151 153l209 -209l207 207l152 -151l-207 -207l207 -209z" />
    <glyph glyph-name="Ograve" unicode="&#xd2;" 
d="M104 0v1536h1522v-1536h-1522zM354 238h1022v1060h-1022v-1060zM1065 399l-207 209l-209 -209l-151 152l209 209l-209 207l151 153l209 -209l207 207l152 -151l-207 -207l207 -209z" />
    <glyph glyph-name="Oacute" unicode="&#xd3;" 
d="M104 0v1536h1522v-1536h-1522zM354 238h1022v1060h-1022v-1060zM1065 399l-207 209l-209 -209l-151 152l209 209l-209 207l151 153l209 -209l207 207l152 -151l-207 -207l207 -209z" />
    <glyph glyph-name="Ocircumflex" unicode="&#xd4;" 
d="M104 0v1536h1522v-1536h-1522zM354 238h1022v1060h-1022v-1060zM1065 399l-207 209l-209 -209l-151 152l209 209l-209 207l151 153l209 -209l207 207l152 -151l-207 -207l207 -209z" />
    <glyph glyph-name="Otilde" unicode="&#xd5;" 
d="M104 0v1536h1522v-1536h-1522zM354 238h1022v1060h-1022v-1060zM1065 399l-207 209l-209 -209l-151 152l209 209l-209 207l151 153l209 -209l207 207l152 -151l-207 -207l207 -209z" />
    <glyph glyph-name="Odieresis" unicode="&#xd6;" 
d="M104 0v1536h1522v-1536h-1522zM354 238h1022v1060h-1022v-1060zM1065 399l-207 209l-209 -209l-151 152l209 209l-209 207l151 153l209 -209l207 207l152 -151l-207 -207l207 -209z" />
    <glyph glyph-name="multiply" unicode="&#xd7;" 
d="M104 0v1536h1522v-1536h-1522zM354 238h1022v1060h-1022v-1060zM1065 399l-207 209l-209 -209l-151 152l209 209l-209 207l151 153l209 -209l207 207l152 -151l-207 -207l207 -209z" />
    <glyph glyph-name="Oslash" unicode="&#xd8;" 
d="M104 0v1536h1522v-1536h-1522zM354 238h1022v1060h-1022v-1060zM1065 399l-207 209l-209 -209l-151 152l209 209l-209 207l151 153l209 -209l207 207l152 -151l-207 -207l207 -209z" />
    <glyph glyph-name="Ugrave" unicode="&#xd9;" 
d="M104 0v1536h1522v-1536h-1522zM354 238h1022v1060h-1022v-1060zM1065 399l-207 209l-209 -209l-151 152l209 209l-209 207l151 153l209 -209l207 207l152 -151l-207 -207l207 -209z" />
    <glyph glyph-name="Uacute" unicode="&#xda;" 
d="M104 0v1536h1522v-1536h-1522zM354 238h1022v1060h-1022v-1060zM1065 399l-207 209l-209 -209l-151 152l209 209l-209 207l151 153l209 -209l207 207l152 -151l-207 -207l207 -209z" />
    <glyph glyph-name="Ucircumflex" unicode="&#xdb;" 
d="M104 0v1536h1522v-1536h-1522zM354 238h1022v1060h-1022v-1060zM1065 399l-207 209l-209 -209l-151 152l209 209l-209 207l151 153l209 -209l207 207l152 -151l-207 -207l207 -209z" />
    <glyph glyph-name="Udieresis" unicode="&#xdc;" 
d="M104 0v1536h1522v-1536h-1522zM354 238h1022v1060h-1022v-1060zM1065 399l-207 209l-209 -209l-151 152l209 209l-209 207l151 153l209 -209l207 207l152 -151l-207 -207l207 -209z" />
    <glyph glyph-name="Yacute" unicode="&#xdd;" 
d="M104 0v1536h1522v-1536h-1522zM354 238h1022v1060h-1022v-1060zM1065 399l-207 209l-209 -209l-151 152l209 209l-209 207l151 153l209 -209l207 207l152 -151l-207 -207l207 -209z" />
    <glyph glyph-name="Thorn" unicode="&#xde;" 
d="M104 0v1536h1522v-1536h-1522zM354 238h1022v1060h-1022v-1060zM1065 399l-207 209l-209 -209l-151 152l209 209l-209 207l151 153l209 -209l207 207l152 -151l-207 -207l207 -209z" />
    <glyph glyph-name="germandbls" unicode="&#xdf;" 
d="M104 0v1536h1522v-1536h-1522zM354 238h1022v1060h-1022v-1060zM1065 399l-207 209l-209 -209l-151 152l209 209l-209 207l151 153l209 -209l207 207l152 -151l-207 -207l207 -209z" />
    <glyph glyph-name="agrave" unicode="&#xe0;" 
d="M104 0v1536h1522v-1536h-1522zM354 238h1022v1060h-1022v-1060zM1065 399l-207 209l-209 -209l-151 152l209 209l-209 207l151 153l209 -209l207 207l152 -151l-207 -207l207 -209z" />
    <glyph glyph-name="aacute" unicode="&#xe1;" 
d="M104 0v1536h1522v-1536h-1522zM354 238h1022v1060h-1022v-1060zM1065 399l-207 209l-209 -209l-151 152l209 209l-209 207l151 153l209 -209l207 207l152 -151l-207 -207l207 -209z" />
    <glyph glyph-name="acircumflex" unicode="&#xe2;" 
d="M104 0v1536h1522v-1536h-1522zM354 238h1022v1060h-1022v-1060zM1065 399l-207 209l-209 -209l-151 152l209 209l-209 207l151 153l209 -209l207 207l152 -151l-207 -207l207 -209z" />
    <glyph glyph-name="atilde" unicode="&#xe3;" 
d="M104 0v1536h1522v-1536h-1522zM354 238h1022v1060h-1022v-1060zM1065 399l-207 209l-209 -209l-151 152l209 209l-209 207l151 153l209 -209l207 207l152 -151l-207 -207l207 -209z" />
    <glyph glyph-name="adieresis" unicode="&#xe4;" 
d="M104 0v1536h1522v-1536h-1522zM354 238h1022v1060h-1022v-1060zM1065 399l-207 209l-209 -209l-151 152l209 209l-209 207l151 153l209 -209l207 207l152 -151l-207 -207l207 -209z" />
    <glyph glyph-name="aring" unicode="&#xe5;" 
d="M104 0v1536h1522v-1536h-1522zM354 238h1022v1060h-1022v-1060zM1065 399l-207 209l-209 -209l-151 152l209 209l-209 207l151 153l209 -209l207 207l152 -151l-207 -207l207 -209z" />
    <glyph glyph-name="ae" unicode="&#xe6;" 
d="M104 0v1536h1522v-1536h-1522zM354 238h1022v1060h-1022v-1060zM1065 399l-207 209l-209 -209l-151 152l209 209l-209 207l151 153l209 -209l207 207l152 -151l-207 -207l207 -209z" />
    <glyph glyph-name="ccedilla" unicode="&#xe7;" 
d="M104 0v1536h1522v-1536h-1522zM354 238h1022v1060h-1022v-1060zM1065 399l-207 209l-209 -209l-151 152l209 209l-209 207l151 153l209 -209l207 207l152 -151l-207 -207l207 -209z" />
    <glyph glyph-name="egrave" unicode="&#xe8;" 
d="M104 0v1536h1522v-1536h-1522zM354 238h1022v1060h-1022v-1060zM1065 399l-207 209l-209 -209l-151 152l209 209l-209 207l151 153l209 -209l207 207l152 -151l-207 -207l207 -209z" />
    <glyph glyph-name="eacute" unicode="&#xe9;" 
d="M104 0v1536h1522v-1536h-1522zM354 238h1022v1060h-1022v-1060zM1065 399l-207 209l-209 -209l-151 152l209 209l-209 207l151 153l209 -209l207 207l152 -151l-207 -207l207 -209z" />
    <glyph glyph-name="ecircumflex" unicode="&#xea;" 
d="M104 0v1536h1522v-1536h-1522zM354 238h1022v1060h-1022v-1060zM1065 399l-207 209l-209 -209l-151 152l209 209l-209 207l151 153l209 -209l207 207l152 -151l-207 -207l207 -209z" />
    <glyph glyph-name="edieresis" unicode="&#xeb;" 
d="M104 0v1536h1522v-1536h-1522zM354 238h1022v1060h-1022v-1060zM1065 399l-207 209l-209 -209l-151 152l209 209l-209 207l151 153l209 -209l207 207l152 -151l-207 -207l207 -209z" />
    <glyph glyph-name="igrave" unicode="&#xec;" 
d="M104 0v1536h1522v-1536h-1522zM354 238h1022v1060h-1022v-1060zM1065 399l-207 209l-209 -209l-151 152l209 209l-209 207l151 153l209 -209l207 207l152 -151l-207 -207l207 -209z" />
    <glyph glyph-name="iacute" unicode="&#xed;" 
d="M104 0v1536h1522v-1536h-1522zM354 238h1022v1060h-1022v-1060zM1065 399l-207 209l-209 -209l-151 152l209 209l-209 207l151 153l209 -209l207 207l152 -151l-207 -207l207 -209z" />
    <glyph glyph-name="icircumflex" unicode="&#xee;" 
d="M104 0v1536h1522v-1536h-1522zM354 238h1022v1060h-1022v-1060zM1065 399l-207 209l-209 -209l-151 152l209 209l-209 207l151 153l209 -209l207 207l152 -151l-207 -207l207 -209z" />
    <glyph glyph-name="idieresis" unicode="&#xef;" 
d="M104 0v1536h1522v-1536h-1522zM354 238h1022v1060h-1022v-1060zM1065 399l-207 209l-209 -209l-151 152l209 209l-209 207l151 153l209 -209l207 207l152 -151l-207 -207l207 -209z" />
    <glyph glyph-name="eth" unicode="&#xf0;" 
d="M104 0v1536h1522v-1536h-1522zM354 238h1022v1060h-1022v-1060zM1065 399l-207 209l-209 -209l-151 152l209 209l-209 207l151 153l209 -209l207 207l152 -151l-207 -207l207 -209z" />
    <glyph glyph-name="ntilde" unicode="&#xf1;" 
d="M104 0v1536h1522v-1536h-1522zM354 238h1022v1060h-1022v-1060zM1065 399l-207 209l-209 -209l-151 152l209 209l-209 207l151 153l209 -209l207 207l152 -151l-207 -207l207 -209z" />
    <glyph glyph-name="ograve" unicode="&#xf2;" 
d="M104 0v1536h1522v-1536h-1522zM354 238h1022v1060h-1022v-1060zM1065 399l-207 209l-209 -209l-151 152l209 209l-209 207l151 153l209 -209l207 207l152 -151l-207 -207l207 -209z" />
    <glyph glyph-name="oacute" unicode="&#xf3;" 
d="M104 0v1536h1522v-1536h-1522zM354 238h1022v1060h-1022v-1060zM1065 399l-207 209l-209 -209l-151 152l209 209l-209 207l151 153l209 -209l207 207l152 -151l-207 -207l207 -209z" />
    <glyph glyph-name="ocircumflex" unicode="&#xf4;" 
d="M104 0v1536h1522v-1536h-1522zM354 238h1022v1060h-1022v-1060zM1065 399l-207 209l-209 -209l-151 152l209 209l-209 207l151 153l209 -209l207 207l152 -151l-207 -207l207 -209z" />
    <glyph glyph-name="otilde" unicode="&#xf5;" 
d="M104 0v1536h1522v-1536h-1522zM354 238h1022v1060h-1022v-1060zM1065 399l-207 209l-209 -209l-151 152l209 209l-209 207l151 153l209 -209l207 207l152 -151l-207 -207l207 -209z" />
    <glyph glyph-name="odieresis" unicode="&#xf6;" 
d="M104 0v1536h1522v-1536h-1522zM354 238h1022v1060h-1022v-1060zM1065 399l-207 209l-209 -209l-151 152l209 209l-209 207l151 153l209 -209l207 207l152 -151l-207 -207l207 -209z" />
    <glyph glyph-name="divide" unicode="&#xf7;" 
d="M104 0v1536h1522v-1536h-1522zM354 238h1022v1060h-1022v-1060zM1065 399l-207 209l-209 -209l-151 152l209 209l-209 207l151 153l209 -209l207 207l152 -151l-207 -207l207 -209z" />
    <glyph glyph-name="oslash" unicode="&#xf8;" 
d="M104 0v1536h1522v-1536h-1522zM354 238h1022v1060h-1022v-1060zM1065 399l-207 209l-209 -209l-151 152l209 209l-209 207l151 153l209 -209l207 207l152 -151l-207 -207l207 -209z" />
    <glyph glyph-name="ugrave" unicode="&#xf9;" 
d="M104 0v1536h1522v-1536h-1522zM354 238h1022v1060h-1022v-1060zM1065 399l-207 209l-209 -209l-151 152l209 209l-209 207l151 153l209 -209l207 207l152 -151l-207 -207l207 -209z" />
    <glyph glyph-name="uacute" unicode="&#xfa;" 
d="M104 0v1536h1522v-1536h-1522zM354 238h1022v1060h-1022v-1060zM1065 399l-207 209l-209 -209l-151 152l209 209l-209 207l151 153l209 -209l207 207l152 -151l-207 -207l207 -209z" />
    <glyph glyph-name="ucircumflex" unicode="&#xfb;" 
d="M104 0v1536h1522v-1536h-1522zM354 238h1022v1060h-1022v-1060zM1065 399l-207 209l-209 -209l-151 152l209 209l-209 207l151 153l209 -209l207 207l152 -151l-207 -207l207 -209z" />
    <glyph glyph-name="udieresis" unicode="&#xfc;" 
d="M104 0v1536h1522v-1536h-1522zM354 238h1022v1060h-1022v-1060zM1065 399l-207 209l-209 -209l-151 152l209 209l-209 207l151 153l209 -209l207 207l152 -151l-207 -207l207 -209z" />
    <glyph glyph-name="yacute" unicode="&#xfd;" 
d="M104 0v1536h1522v-1536h-1522zM354 238h1022v1060h-1022v-1060zM1065 399l-207 209l-209 -209l-151 152l209 209l-209 207l151 153l209 -209l207 207l152 -151l-207 -207l207 -209z" />
    <glyph glyph-name="thorn" unicode="&#xfe;" 
d="M104 0v1536h1522v-1536h-1522zM354 238h1022v1060h-1022v-1060zM1065 399l-207 209l-209 -209l-151 152l209 209l-209 207l151 153l209 -209l207 207l152 -151l-207 -207l207 -209z" />
    <glyph glyph-name="ydieresis" unicode="&#xff;" 
d="M104 0v1536h1522v-1536h-1522zM354 238h1022v1060h-1022v-1060zM1065 399l-207 209l-209 -209l-151 152l209 209l-209 207l151 153l209 -209l207 207l152 -151l-207 -207l207 -209z" />
    <glyph glyph-name="Amacron" unicode="&#x100;" 
d="M104 0v1536h1522v-1536h-1522zM354 238h1022v1060h-1022v-1060zM1065 399l-207 209l-209 -209l-151 152l209 209l-209 207l151 153l209 -209l207 207l152 -151l-207 -207l207 -209z" />
    <glyph glyph-name="amacron" unicode="&#x101;" 
d="M104 0v1536h1522v-1536h-1522zM354 238h1022v1060h-1022v-1060zM1065 399l-207 209l-209 -209l-151 152l209 209l-209 207l151 153l209 -209l207 207l152 -151l-207 -207l207 -209z" />
    <glyph glyph-name="Abreve" unicode="&#x102;" 
d="M104 0v1536h1522v-1536h-1522zM354 238h1022v1060h-1022v-1060zM1065 399l-207 209l-209 -209l-151 152l209 209l-209 207l151 153l209 -209l207 207l152 -151l-207 -207l207 -209z" />
    <glyph glyph-name="abreve" unicode="&#x103;" 
d="M104 0v1536h1522v-1536h-1522zM354 238h1022v1060h-1022v-1060zM1065 399l-207 209l-209 -209l-151 152l209 209l-209 207l151 153l209 -209l207 207l152 -151l-207 -207l207 -209z" />
    <glyph glyph-name="Aogonek" unicode="&#x104;" 
d="M104 0v1536h1522v-1536h-1522zM354 238h1022v1060h-1022v-1060zM1065 399l-207 209l-209 -209l-151 152l209 209l-209 207l151 153l209 -209l207 207l152 -151l-207 -207l207 -209z" />
    <glyph glyph-name="aogonek" unicode="&#x105;" 
d="M104 0v1536h1522v-1536h-1522zM354 238h1022v1060h-1022v-1060zM1065 399l-207 209l-209 -209l-151 152l209 209l-209 207l151 153l209 -209l207 207l152 -151l-207 -207l207 -209z" />
    <glyph glyph-name="Cacute" unicode="&#x106;" 
d="M104 0v1536h1522v-1536h-1522zM354 238h1022v1060h-1022v-1060zM1065 399l-207 209l-209 -209l-151 152l209 209l-209 207l151 153l209 -209l207 207l152 -151l-207 -207l207 -209z" />
    <glyph glyph-name="cacute" unicode="&#x107;" 
d="M104 0v1536h1522v-1536h-1522zM354 238h1022v1060h-1022v-1060zM1065 399l-207 209l-209 -209l-151 152l209 209l-209 207l151 153l209 -209l207 207l152 -151l-207 -207l207 -209z" />
    <glyph glyph-name="Ccircumflex" unicode="&#x108;" 
d="M104 0v1536h1522v-1536h-1522zM354 238h1022v1060h-1022v-1060zM1065 399l-207 209l-209 -209l-151 152l209 209l-209 207l151 153l209 -209l207 207l152 -151l-207 -207l207 -209z" />
    <glyph glyph-name="ccircumflex" unicode="&#x109;" 
d="M104 0v1536h1522v-1536h-1522zM354 238h1022v1060h-1022v-1060zM1065 399l-207 209l-209 -209l-151 152l209 209l-209 207l151 153l209 -209l207 207l152 -151l-207 -207l207 -209z" />
    <glyph glyph-name="Cdotaccent" unicode="&#x10a;" 
d="M104 0v1536h1522v-1536h-1522zM354 238h1022v1060h-1022v-1060zM1065 399l-207 209l-209 -209l-151 152l209 209l-209 207l151 153l209 -209l207 207l152 -151l-207 -207l207 -209z" />
    <glyph glyph-name="cdotaccent" unicode="&#x10b;" 
d="M104 0v1536h1522v-1536h-1522zM354 238h1022v1060h-1022v-1060zM1065 399l-207 209l-209 -209l-151 152l209 209l-209 207l151 153l209 -209l207 207l152 -151l-207 -207l207 -209z" />
    <glyph glyph-name="Ccaron" unicode="&#x10c;" 
d="M104 0v1536h1522v-1536h-1522zM354 238h1022v1060h-1022v-1060zM1065 399l-207 209l-209 -209l-151 152l209 209l-209 207l151 153l209 -209l207 207l152 -151l-207 -207l207 -209z" />
    <glyph glyph-name="ccaron" unicode="&#x10d;" 
d="M104 0v1536h1522v-1536h-1522zM354 238h1022v1060h-1022v-1060zM1065 399l-207 209l-209 -209l-151 152l209 209l-209 207l151 153l209 -209l207 207l152 -151l-207 -207l207 -209z" />
    <glyph glyph-name="Dcaron" unicode="&#x10e;" 
d="M104 0v1536h1522v-1536h-1522zM354 238h1022v1060h-1022v-1060zM1065 399l-207 209l-209 -209l-151 152l209 209l-209 207l151 153l209 -209l207 207l152 -151l-207 -207l207 -209z" />
    <glyph glyph-name="dcaron" unicode="&#x10f;" 
d="M104 0v1536h1522v-1536h-1522zM354 238h1022v1060h-1022v-1060zM1065 399l-207 209l-209 -209l-151 152l209 209l-209 207l151 153l209 -209l207 207l152 -151l-207 -207l207 -209z" />
    <glyph glyph-name="Dcroat" unicode="&#x110;" 
d="M104 0v1536h1522v-1536h-1522zM354 238h1022v1060h-1022v-1060zM1065 399l-207 209l-209 -209l-151 152l209 209l-209 207l151 153l209 -209l207 207l152 -151l-207 -207l207 -209z" />
    <glyph glyph-name="dcroat" unicode="&#x111;" 
d="M104 0v1536h1522v-1536h-1522zM354 238h1022v1060h-1022v-1060zM1065 399l-207 209l-209 -209l-151 152l209 209l-209 207l151 153l209 -209l207 207l152 -151l-207 -207l207 -209z" />
    <glyph glyph-name="Emacron" unicode="&#x112;" 
d="M104 0v1536h1522v-1536h-1522zM354 238h1022v1060h-1022v-1060zM1065 399l-207 209l-209 -209l-151 152l209 209l-209 207l151 153l209 -209l207 207l152 -151l-207 -207l207 -209z" />
    <glyph glyph-name="emacron" unicode="&#x113;" 
d="M104 0v1536h1522v-1536h-1522zM354 238h1022v1060h-1022v-1060zM1065 399l-207 209l-209 -209l-151 152l209 209l-209 207l151 153l209 -209l207 207l152 -151l-207 -207l207 -209z" />
    <glyph glyph-name="Ebreve" unicode="&#x114;" 
d="M104 0v1536h1522v-1536h-1522zM354 238h1022v1060h-1022v-1060zM1065 399l-207 209l-209 -209l-151 152l209 209l-209 207l151 153l209 -209l207 207l152 -151l-207 -207l207 -209z" />
    <glyph glyph-name="ebreve" unicode="&#x115;" 
d="M104 0v1536h1522v-1536h-1522zM354 238h1022v1060h-1022v-1060zM1065 399l-207 209l-209 -209l-151 152l209 209l-209 207l151 153l209 -209l207 207l152 -151l-207 -207l207 -209z" />
    <glyph glyph-name="Edotaccent" unicode="&#x116;" 
d="M104 0v1536h1522v-1536h-1522zM354 238h1022v1060h-1022v-1060zM1065 399l-207 209l-209 -209l-151 152l209 209l-209 207l151 153l209 -209l207 207l152 -151l-207 -207l207 -209z" />
    <glyph glyph-name="edotaccent" unicode="&#x117;" 
d="M104 0v1536h1522v-1536h-1522zM354 238h1022v1060h-1022v-1060zM1065 399l-207 209l-209 -209l-151 152l209 209l-209 207l151 153l209 -209l207 207l152 -151l-207 -207l207 -209z" />
    <glyph glyph-name="Eogonek" unicode="&#x118;" 
d="M104 0v1536h1522v-1536h-1522zM354 238h1022v1060h-1022v-1060zM1065 399l-207 209l-209 -209l-151 152l209 209l-209 207l151 153l209 -209l207 207l152 -151l-207 -207l207 -209z" />
    <glyph glyph-name="eogonek" unicode="&#x119;" 
d="M104 0v1536h1522v-1536h-1522zM354 238h1022v1060h-1022v-1060zM1065 399l-207 209l-209 -209l-151 152l209 209l-209 207l151 153l209 -209l207 207l152 -151l-207 -207l207 -209z" />
    <glyph glyph-name="Ecaron" unicode="&#x11a;" 
d="M104 0v1536h1522v-1536h-1522zM354 238h1022v1060h-1022v-1060zM1065 399l-207 209l-209 -209l-151 152l209 209l-209 207l151 153l209 -209l207 207l152 -151l-207 -207l207 -209z" />
    <glyph glyph-name="ecaron" unicode="&#x11b;" 
d="M104 0v1536h1522v-1536h-1522zM354 238h1022v1060h-1022v-1060zM1065 399l-207 209l-209 -209l-151 152l209 209l-209 207l151 153l209 -209l207 207l152 -151l-207 -207l207 -209z" />
    <glyph glyph-name="Gcircumflex" unicode="&#x11c;" 
d="M104 0v1536h1522v-1536h-1522zM354 238h1022v1060h-1022v-1060zM1065 399l-207 209l-209 -209l-151 152l209 209l-209 207l151 153l209 -209l207 207l152 -151l-207 -207l207 -209z" />
    <glyph glyph-name="gcircumflex" unicode="&#x11d;" 
d="M104 0v1536h1522v-1536h-1522zM354 238h1022v1060h-1022v-1060zM1065 399l-207 209l-209 -209l-151 152l209 209l-209 207l151 153l209 -209l207 207l152 -151l-207 -207l207 -209z" />
    <glyph glyph-name="Gbreve" unicode="&#x11e;" 
d="M104 0v1536h1522v-1536h-1522zM354 238h1022v1060h-1022v-1060zM1065 399l-207 209l-209 -209l-151 152l209 209l-209 207l151 153l209 -209l207 207l152 -151l-207 -207l207 -209z" />
    <glyph glyph-name="gbreve" unicode="&#x11f;" 
d="M104 0v1536h1522v-1536h-1522zM354 238h1022v1060h-1022v-1060zM1065 399l-207 209l-209 -209l-151 152l209 209l-209 207l151 153l209 -209l207 207l152 -151l-207 -207l207 -209z" />
    <glyph glyph-name="Gdotaccent" unicode="&#x120;" 
d="M104 0v1536h1522v-1536h-1522zM354 238h1022v1060h-1022v-1060zM1065 399l-207 209l-209 -209l-151 152l209 209l-209 207l151 153l209 -209l207 207l152 -151l-207 -207l207 -209z" />
    <glyph glyph-name="gdotaccent" unicode="&#x121;" 
d="M104 0v1536h1522v-1536h-1522zM354 238h1022v1060h-1022v-1060zM1065 399l-207 209l-209 -209l-151 152l209 209l-209 207l151 153l209 -209l207 207l152 -151l-207 -207l207 -209z" />
    <glyph glyph-name="Gcommaaccent" unicode="&#x122;" 
d="M104 0v1536h1522v-1536h-1522zM354 238h1022v1060h-1022v-1060zM1065 399l-207 209l-209 -209l-151 152l209 209l-209 207l151 153l209 -209l207 207l152 -151l-207 -207l207 -209z" />
    <glyph glyph-name="gcommaaccent" unicode="&#x123;" 
d="M104 0v1536h1522v-1536h-1522zM354 238h1022v1060h-1022v-1060zM1065 399l-207 209l-209 -209l-151 152l209 209l-209 207l151 153l209 -209l207 207l152 -151l-207 -207l207 -209z" />
    <glyph glyph-name="Hcircumflex" unicode="&#x124;" 
d="M104 0v1536h1522v-1536h-1522zM354 238h1022v1060h-1022v-1060zM1065 399l-207 209l-209 -209l-151 152l209 209l-209 207l151 153l209 -209l207 207l152 -151l-207 -207l207 -209z" />
    <glyph glyph-name="hcircumflex" unicode="&#x125;" 
d="M104 0v1536h1522v-1536h-1522zM354 238h1022v1060h-1022v-1060zM1065 399l-207 209l-209 -209l-151 152l209 209l-209 207l151 153l209 -209l207 207l152 -151l-207 -207l207 -209z" />
    <glyph glyph-name="Hbar" unicode="&#x126;" 
d="M104 0v1536h1522v-1536h-1522zM354 238h1022v1060h-1022v-1060zM1065 399l-207 209l-209 -209l-151 152l209 209l-209 207l151 153l209 -209l207 207l152 -151l-207 -207l207 -209z" />
    <glyph glyph-name="hbar" unicode="&#x127;" 
d="M104 0v1536h1522v-1536h-1522zM354 238h1022v1060h-1022v-1060zM1065 399l-207 209l-209 -209l-151 152l209 209l-209 207l151 153l209 -209l207 207l152 -151l-207 -207l207 -209z" />
    <glyph glyph-name="Itilde" unicode="&#x128;" 
d="M104 0v1536h1522v-1536h-1522zM354 238h1022v1060h-1022v-1060zM1065 399l-207 209l-209 -209l-151 152l209 209l-209 207l151 153l209 -209l207 207l152 -151l-207 -207l207 -209z" />
    <glyph glyph-name="itilde" unicode="&#x129;" 
d="M104 0v1536h1522v-1536h-1522zM354 238h1022v1060h-1022v-1060zM1065 399l-207 209l-209 -209l-151 152l209 209l-209 207l151 153l209 -209l207 207l152 -151l-207 -207l207 -209z" />
    <glyph glyph-name="Imacron" unicode="&#x12a;" 
d="M104 0v1536h1522v-1536h-1522zM354 238h1022v1060h-1022v-1060zM1065 399l-207 209l-209 -209l-151 152l209 209l-209 207l151 153l209 -209l207 207l152 -151l-207 -207l207 -209z" />
    <glyph glyph-name="imacron" unicode="&#x12b;" 
d="M104 0v1536h1522v-1536h-1522zM354 238h1022v1060h-1022v-1060zM1065 399l-207 209l-209 -209l-151 152l209 209l-209 207l151 153l209 -209l207 207l152 -151l-207 -207l207 -209z" />
    <glyph glyph-name="Ibreve" unicode="&#x12c;" 
d="M104 0v1536h1522v-1536h-1522zM354 238h1022v1060h-1022v-1060zM1065 399l-207 209l-209 -209l-151 152l209 209l-209 207l151 153l209 -209l207 207l152 -151l-207 -207l207 -209z" />
    <glyph glyph-name="ibreve" unicode="&#x12d;" 
d="M104 0v1536h1522v-1536h-1522zM354 238h1022v1060h-1022v-1060zM1065 399l-207 209l-209 -209l-151 152l209 209l-209 207l151 153l209 -209l207 207l152 -151l-207 -207l207 -209z" />
    <glyph glyph-name="Iogonek" unicode="&#x12e;" 
d="M104 0v1536h1522v-1536h-1522zM354 238h1022v1060h-1022v-1060zM1065 399l-207 209l-209 -209l-151 152l209 209l-209 207l151 153l209 -209l207 207l152 -151l-207 -207l207 -209z" />
    <glyph glyph-name="iogonek" unicode="&#x12f;" 
d="M104 0v1536h1522v-1536h-1522zM354 238h1022v1060h-1022v-1060zM1065 399l-207 209l-209 -209l-151 152l209 209l-209 207l151 153l209 -209l207 207l152 -151l-207 -207l207 -209z" />
    <glyph glyph-name="Idotaccent" unicode="&#x130;" 
d="M104 0v1536h1522v-1536h-1522zM354 238h1022v1060h-1022v-1060zM1065 399l-207 209l-209 -209l-151 152l209 209l-209 207l151 153l209 -209l207 207l152 -151l-207 -207l207 -209z" />
    <glyph glyph-name="dotlessi" unicode="&#x131;" 
d="M104 0v1536h1522v-1536h-1522zM354 238h1022v1060h-1022v-1060zM1065 399l-207 209l-209 -209l-151 152l209 209l-209 207l151 153l209 -209l207 207l152 -151l-207 -207l207 -209z" />
    <glyph glyph-name="IJ" unicode="&#x132;" 
d="M104 0v1536h1522v-1536h-1522zM354 238h1022v1060h-1022v-1060zM1065 399l-207 209l-209 -209l-151 152l209 209l-209 207l151 153l209 -209l207 207l152 -151l-207 -207l207 -209z" />
    <glyph glyph-name="ij" unicode="&#x133;" 
d="M104 0v1536h1522v-1536h-1522zM354 238h1022v1060h-1022v-1060zM1065 399l-207 209l-209 -209l-151 152l209 209l-209 207l151 153l209 -209l207 207l152 -151l-207 -207l207 -209z" />
    <glyph glyph-name="Jcircumflex" unicode="&#x134;" 
d="M104 0v1536h1522v-1536h-1522zM354 238h1022v1060h-1022v-1060zM1065 399l-207 209l-209 -209l-151 152l209 209l-209 207l151 153l209 -209l207 207l152 -151l-207 -207l207 -209z" />
    <glyph glyph-name="jcircumflex" unicode="&#x135;" 
d="M104 0v1536h1522v-1536h-1522zM354 238h1022v1060h-1022v-1060zM1065 399l-207 209l-209 -209l-151 152l209 209l-209 207l151 153l209 -209l207 207l152 -151l-207 -207l207 -209z" />
    <glyph glyph-name="Kcommaaccent" unicode="&#x136;" 
d="M104 0v1536h1522v-1536h-1522zM354 238h1022v1060h-1022v-1060zM1065 399l-207 209l-209 -209l-151 152l209 209l-209 207l151 153l209 -209l207 207l152 -151l-207 -207l207 -209z" />
    <glyph glyph-name="kcommaaccent" unicode="&#x137;" 
d="M104 0v1536h1522v-1536h-1522zM354 238h1022v1060h-1022v-1060zM1065 399l-207 209l-209 -209l-151 152l209 209l-209 207l151 153l209 -209l207 207l152 -151l-207 -207l207 -209z" />
    <glyph glyph-name="Lacute" unicode="&#x139;" 
d="M104 0v1536h1522v-1536h-1522zM354 238h1022v1060h-1022v-1060zM1065 399l-207 209l-209 -209l-151 152l209 209l-209 207l151 153l209 -209l207 207l152 -151l-207 -207l207 -209z" />
    <glyph glyph-name="lacute" unicode="&#x13a;" 
d="M104 0v1536h1522v-1536h-1522zM354 238h1022v1060h-1022v-1060zM1065 399l-207 209l-209 -209l-151 152l209 209l-209 207l151 153l209 -209l207 207l152 -151l-207 -207l207 -209z" />
    <glyph glyph-name="Lcommaaccent" unicode="&#x13b;" 
d="M104 0v1536h1522v-1536h-1522zM354 238h1022v1060h-1022v-1060zM1065 399l-207 209l-209 -209l-151 152l209 209l-209 207l151 153l209 -209l207 207l152 -151l-207 -207l207 -209z" />
    <glyph glyph-name="lcommaaccent" unicode="&#x13c;" 
d="M104 0v1536h1522v-1536h-1522zM354 238h1022v1060h-1022v-1060zM1065 399l-207 209l-209 -209l-151 152l209 209l-209 207l151 153l209 -209l207 207l152 -151l-207 -207l207 -209z" />
    <glyph glyph-name="Lcaron" unicode="&#x13d;" 
d="M104 0v1536h1522v-1536h-1522zM354 238h1022v1060h-1022v-1060zM1065 399l-207 209l-209 -209l-151 152l209 209l-209 207l151 153l209 -209l207 207l152 -151l-207 -207l207 -209z" />
    <glyph glyph-name="lcaron" unicode="&#x13e;" 
d="M104 0v1536h1522v-1536h-1522zM354 238h1022v1060h-1022v-1060zM1065 399l-207 209l-209 -209l-151 152l209 209l-209 207l151 153l209 -209l207 207l152 -151l-207 -207l207 -209z" />
    <glyph glyph-name="Ldot" unicode="&#x13f;" 
d="M104 0v1536h1522v-1536h-1522zM354 238h1022v1060h-1022v-1060zM1065 399l-207 209l-209 -209l-151 152l209 209l-209 207l151 153l209 -209l207 207l152 -151l-207 -207l207 -209z" />
    <glyph glyph-name="ldot" unicode="&#x140;" 
d="M104 0v1536h1522v-1536h-1522zM354 238h1022v1060h-1022v-1060zM1065 399l-207 209l-209 -209l-151 152l209 209l-209 207l151 153l209 -209l207 207l152 -151l-207 -207l207 -209z" />
    <glyph glyph-name="Lslash" unicode="&#x141;" 
d="M104 0v1536h1522v-1536h-1522zM354 238h1022v1060h-1022v-1060zM1065 399l-207 209l-209 -209l-151 152l209 209l-209 207l151 153l209 -209l207 207l152 -151l-207 -207l207 -209z" />
    <glyph glyph-name="lslash" unicode="&#x142;" 
d="M104 0v1536h1522v-1536h-1522zM354 238h1022v1060h-1022v-1060zM1065 399l-207 209l-209 -209l-151 152l209 209l-209 207l151 153l209 -209l207 207l152 -151l-207 -207l207 -209z" />
    <glyph glyph-name="Nacute" unicode="&#x143;" 
d="M104 0v1536h1522v-1536h-1522zM354 238h1022v1060h-1022v-1060zM1065 399l-207 209l-209 -209l-151 152l209 209l-209 207l151 153l209 -209l207 207l152 -151l-207 -207l207 -209z" />
    <glyph glyph-name="nacute" unicode="&#x144;" 
d="M104 0v1536h1522v-1536h-1522zM354 238h1022v1060h-1022v-1060zM1065 399l-207 209l-209 -209l-151 152l209 209l-209 207l151 153l209 -209l207 207l152 -151l-207 -207l207 -209z" />
    <glyph glyph-name="Ncommaaccent" unicode="&#x145;" 
d="M104 0v1536h1522v-1536h-1522zM354 238h1022v1060h-1022v-1060zM1065 399l-207 209l-209 -209l-151 152l209 209l-209 207l151 153l209 -209l207 207l152 -151l-207 -207l207 -209z" />
    <glyph glyph-name="ncommaaccent" unicode="&#x146;" 
d="M104 0v1536h1522v-1536h-1522zM354 238h1022v1060h-1022v-1060zM1065 399l-207 209l-209 -209l-151 152l209 209l-209 207l151 153l209 -209l207 207l152 -151l-207 -207l207 -209z" />
    <glyph glyph-name="Ncaron" unicode="&#x147;" 
d="M104 0v1536h1522v-1536h-1522zM354 238h1022v1060h-1022v-1060zM1065 399l-207 209l-209 -209l-151 152l209 209l-209 207l151 153l209 -209l207 207l152 -151l-207 -207l207 -209z" />
    <glyph glyph-name="ncaron" unicode="&#x148;" 
d="M104 0v1536h1522v-1536h-1522zM354 238h1022v1060h-1022v-1060zM1065 399l-207 209l-209 -209l-151 152l209 209l-209 207l151 153l209 -209l207 207l152 -151l-207 -207l207 -209z" />
    <glyph glyph-name="Eng" unicode="&#x14a;" 
d="M104 0v1536h1522v-1536h-1522zM354 238h1022v1060h-1022v-1060zM1065 399l-207 209l-209 -209l-151 152l209 209l-209 207l151 153l209 -209l207 207l152 -151l-207 -207l207 -209z" />
    <glyph glyph-name="eng" unicode="&#x14b;" 
d="M104 0v1536h1522v-1536h-1522zM354 238h1022v1060h-1022v-1060zM1065 399l-207 209l-209 -209l-151 152l209 209l-209 207l151 153l209 -209l207 207l152 -151l-207 -207l207 -209z" />
    <glyph glyph-name="Omacron" unicode="&#x14c;" 
d="M104 0v1536h1522v-1536h-1522zM354 238h1022v1060h-1022v-1060zM1065 399l-207 209l-209 -209l-151 152l209 209l-209 207l151 153l209 -209l207 207l152 -151l-207 -207l207 -209z" />
    <glyph glyph-name="omacron" unicode="&#x14d;" 
d="M104 0v1536h1522v-1536h-1522zM354 238h1022v1060h-1022v-1060zM1065 399l-207 209l-209 -209l-151 152l209 209l-209 207l151 153l209 -209l207 207l152 -151l-207 -207l207 -209z" />
    <glyph glyph-name="Obreve" unicode="&#x14e;" 
d="M104 0v1536h1522v-1536h-1522zM354 238h1022v1060h-1022v-1060zM1065 399l-207 209l-209 -209l-151 152l209 209l-209 207l151 153l209 -209l207 207l152 -151l-207 -207l207 -209z" />
    <glyph glyph-name="obreve" unicode="&#x14f;" 
d="M104 0v1536h1522v-1536h-1522zM354 238h1022v1060h-1022v-1060zM1065 399l-207 209l-209 -209l-151 152l209 209l-209 207l151 153l209 -209l207 207l152 -151l-207 -207l207 -209z" />
    <glyph glyph-name="Ohungarumlaut" unicode="&#x150;" 
d="M104 0v1536h1522v-1536h-1522zM354 238h1022v1060h-1022v-1060zM1065 399l-207 209l-209 -209l-151 152l209 209l-209 207l151 153l209 -209l207 207l152 -151l-207 -207l207 -209z" />
    <glyph glyph-name="ohungarumlaut" unicode="&#x151;" 
d="M104 0v1536h1522v-1536h-1522zM354 238h1022v1060h-1022v-1060zM1065 399l-207 209l-209 -209l-151 152l209 209l-209 207l151 153l209 -209l207 207l152 -151l-207 -207l207 -209z" />
    <glyph glyph-name="OE" unicode="&#x152;" 
d="M104 0v1536h1522v-1536h-1522zM354 238h1022v1060h-1022v-1060zM1065 399l-207 209l-209 -209l-151 152l209 209l-209 207l151 153l209 -209l207 207l152 -151l-207 -207l207 -209z" />
    <glyph glyph-name="oe" unicode="&#x153;" 
d="M104 0v1536h1522v-1536h-1522zM354 238h1022v1060h-1022v-1060zM1065 399l-207 209l-209 -209l-151 152l209 209l-209 207l151 153l209 -209l207 207l152 -151l-207 -207l207 -209z" />
    <glyph glyph-name="Racute" unicode="&#x154;" 
d="M104 0v1536h1522v-1536h-1522zM354 238h1022v1060h-1022v-1060zM1065 399l-207 209l-209 -209l-151 152l209 209l-209 207l151 153l209 -209l207 207l152 -151l-207 -207l207 -209z" />
    <glyph glyph-name="racute" unicode="&#x155;" 
d="M104 0v1536h1522v-1536h-1522zM354 238h1022v1060h-1022v-1060zM1065 399l-207 209l-209 -209l-151 152l209 209l-209 207l151 153l209 -209l207 207l152 -151l-207 -207l207 -209z" />
    <glyph glyph-name="Rcommaaccent" unicode="&#x156;" 
d="M104 0v1536h1522v-1536h-1522zM354 238h1022v1060h-1022v-1060zM1065 399l-207 209l-209 -209l-151 152l209 209l-209 207l151 153l209 -209l207 207l152 -151l-207 -207l207 -209z" />
    <glyph glyph-name="rcommaaccent" unicode="&#x157;" 
d="M104 0v1536h1522v-1536h-1522zM354 238h1022v1060h-1022v-1060zM1065 399l-207 209l-209 -209l-151 152l209 209l-209 207l151 153l209 -209l207 207l152 -151l-207 -207l207 -209z" />
    <glyph glyph-name="Rcaron" unicode="&#x158;" 
d="M104 0v1536h1522v-1536h-1522zM354 238h1022v1060h-1022v-1060zM1065 399l-207 209l-209 -209l-151 152l209 209l-209 207l151 153l209 -209l207 207l152 -151l-207 -207l207 -209z" />
    <glyph glyph-name="rcaron" unicode="&#x159;" 
d="M104 0v1536h1522v-1536h-1522zM354 238h1022v1060h-1022v-1060zM1065 399l-207 209l-209 -209l-151 152l209 209l-209 207l151 153l209 -209l207 207l152 -151l-207 -207l207 -209z" />
    <glyph glyph-name="Sacute" unicode="&#x15a;" 
d="M104 0v1536h1522v-1536h-1522zM354 238h1022v1060h-1022v-1060zM1065 399l-207 209l-209 -209l-151 152l209 209l-209 207l151 153l209 -209l207 207l152 -151l-207 -207l207 -209z" />
    <glyph glyph-name="sacute" unicode="&#x15b;" 
d="M104 0v1536h1522v-1536h-1522zM354 238h1022v1060h-1022v-1060zM1065 399l-207 209l-209 -209l-151 152l209 209l-209 207l151 153l209 -209l207 207l152 -151l-207 -207l207 -209z" />
    <glyph glyph-name="Scircumflex" unicode="&#x15c;" 
d="M104 0v1536h1522v-1536h-1522zM354 238h1022v1060h-1022v-1060zM1065 399l-207 209l-209 -209l-151 152l209 209l-209 207l151 153l209 -209l207 207l152 -151l-207 -207l207 -209z" />
    <glyph glyph-name="scircumflex" unicode="&#x15d;" 
d="M104 0v1536h1522v-1536h-1522zM354 238h1022v1060h-1022v-1060zM1065 399l-207 209l-209 -209l-151 152l209 209l-209 207l151 153l209 -209l207 207l152 -151l-207 -207l207 -209z" />
    <glyph glyph-name="Scedilla" unicode="&#x15e;" 
d="M104 0v1536h1522v-1536h-1522zM354 238h1022v1060h-1022v-1060zM1065 399l-207 209l-209 -209l-151 152l209 209l-209 207l151 153l209 -209l207 207l152 -151l-207 -207l207 -209z" />
    <glyph glyph-name="scedilla" unicode="&#x15f;" 
d="M104 0v1536h1522v-1536h-1522zM354 238h1022v1060h-1022v-1060zM1065 399l-207 209l-209 -209l-151 152l209 209l-209 207l151 153l209 -209l207 207l152 -151l-207 -207l207 -209z" />
    <glyph glyph-name="Scaron" unicode="&#x160;" 
d="M104 0v1536h1522v-1536h-1522zM354 238h1022v1060h-1022v-1060zM1065 399l-207 209l-209 -209l-151 152l209 209l-209 207l151 153l209 -209l207 207l152 -151l-207 -207l207 -209z" />
    <glyph glyph-name="scaron" unicode="&#x161;" 
d="M104 0v1536h1522v-1536h-1522zM354 238h1022v1060h-1022v-1060zM1065 399l-207 209l-209 -209l-151 152l209 209l-209 207l151 153l209 -209l207 207l152 -151l-207 -207l207 -209z" />
    <glyph glyph-name="uni0162" unicode="&#x162;" 
d="M104 0v1536h1522v-1536h-1522zM354 238h1022v1060h-1022v-1060zM1065 399l-207 209l-209 -209l-151 152l209 209l-209 207l151 153l209 -209l207 207l152 -151l-207 -207l207 -209z" />
    <glyph glyph-name="uni0163" unicode="&#x163;" 
d="M104 0v1536h1522v-1536h-1522zM354 238h1022v1060h-1022v-1060zM1065 399l-207 209l-209 -209l-151 152l209 209l-209 207l151 153l209 -209l207 207l152 -151l-207 -207l207 -209z" />
    <glyph glyph-name="Tcaron" unicode="&#x164;" 
d="M104 0v1536h1522v-1536h-1522zM354 238h1022v1060h-1022v-1060zM1065 399l-207 209l-209 -209l-151 152l209 209l-209 207l151 153l209 -209l207 207l152 -151l-207 -207l207 -209z" />
    <glyph glyph-name="tcaron" unicode="&#x165;" 
d="M104 0v1536h1522v-1536h-1522zM354 238h1022v1060h-1022v-1060zM1065 399l-207 209l-209 -209l-151 152l209 209l-209 207l151 153l209 -209l207 207l152 -151l-207 -207l207 -209z" />
    <glyph glyph-name="Tbar" unicode="&#x166;" 
d="M104 0v1536h1522v-1536h-1522zM354 238h1022v1060h-1022v-1060zM1065 399l-207 209l-209 -209l-151 152l209 209l-209 207l151 153l209 -209l207 207l152 -151l-207 -207l207 -209z" />
    <glyph glyph-name="tbar" unicode="&#x167;" 
d="M104 0v1536h1522v-1536h-1522zM354 238h1022v1060h-1022v-1060zM1065 399l-207 209l-209 -209l-151 152l209 209l-209 207l151 153l209 -209l207 207l152 -151l-207 -207l207 -209z" />
    <glyph glyph-name="Utilde" unicode="&#x168;" 
d="M104 0v1536h1522v-1536h-1522zM354 238h1022v1060h-1022v-1060zM1065 399l-207 209l-209 -209l-151 152l209 209l-209 207l151 153l209 -209l207 207l152 -151l-207 -207l207 -209z" />
    <glyph glyph-name="utilde" unicode="&#x169;" 
d="M104 0v1536h1522v-1536h-1522zM354 238h1022v1060h-1022v-1060zM1065 399l-207 209l-209 -209l-151 152l209 209l-209 207l151 153l209 -209l207 207l152 -151l-207 -207l207 -209z" />
    <glyph glyph-name="Umacron" unicode="&#x16a;" 
d="M104 0v1536h1522v-1536h-1522zM354 238h1022v1060h-1022v-1060zM1065 399l-207 209l-209 -209l-151 152l209 209l-209 207l151 153l209 -209l207 207l152 -151l-207 -207l207 -209z" />
    <glyph glyph-name="umacron" unicode="&#x16b;" 
d="M104 0v1536h1522v-1536h-1522zM354 238h1022v1060h-1022v-1060zM1065 399l-207 209l-209 -209l-151 152l209 209l-209 207l151 153l209 -209l207 207l152 -151l-207 -207l207 -209z" />
    <glyph glyph-name="Ubreve" unicode="&#x16c;" 
d="M104 0v1536h1522v-1536h-1522zM354 238h1022v1060h-1022v-1060zM1065 399l-207 209l-209 -209l-151 152l209 209l-209 207l151 153l209 -209l207 207l152 -151l-207 -207l207 -209z" />
    <glyph glyph-name="ubreve" unicode="&#x16d;" 
d="M104 0v1536h1522v-1536h-1522zM354 238h1022v1060h-1022v-1060zM1065 399l-207 209l-209 -209l-151 152l209 209l-209 207l151 153l209 -209l207 207l152 -151l-207 -207l207 -209z" />
    <glyph glyph-name="Uring" unicode="&#x16e;" 
d="M104 0v1536h1522v-1536h-1522zM354 238h1022v1060h-1022v-1060zM1065 399l-207 209l-209 -209l-151 152l209 209l-209 207l151 153l209 -209l207 207l152 -151l-207 -207l207 -209z" />
    <glyph glyph-name="uring" unicode="&#x16f;" 
d="M104 0v1536h1522v-1536h-1522zM354 238h1022v1060h-1022v-1060zM1065 399l-207 209l-209 -209l-151 152l209 209l-209 207l151 153l209 -209l207 207l152 -151l-207 -207l207 -209z" />
    <glyph glyph-name="Uhungarumlaut" unicode="&#x170;" 
d="M104 0v1536h1522v-1536h-1522zM354 238h1022v1060h-1022v-1060zM1065 399l-207 209l-209 -209l-151 152l209 209l-209 207l151 153l209 -209l207 207l152 -151l-207 -207l207 -209z" />
    <glyph glyph-name="uhungarumlaut" unicode="&#x171;" 
d="M104 0v1536h1522v-1536h-1522zM354 238h1022v1060h-1022v-1060zM1065 399l-207 209l-209 -209l-151 152l209 209l-209 207l151 153l209 -209l207 207l152 -151l-207 -207l207 -209z" />
    <glyph glyph-name="Uogonek" unicode="&#x172;" 
d="M104 0v1536h1522v-1536h-1522zM354 238h1022v1060h-1022v-1060zM1065 399l-207 209l-209 -209l-151 152l209 209l-209 207l151 153l209 -209l207 207l152 -151l-207 -207l207 -209z" />
    <glyph glyph-name="uogonek" unicode="&#x173;" 
d="M104 0v1536h1522v-1536h-1522zM354 238h1022v1060h-1022v-1060zM1065 399l-207 209l-209 -209l-151 152l209 209l-209 207l151 153l209 -209l207 207l152 -151l-207 -207l207 -209z" />
    <glyph glyph-name="Wcircumflex" unicode="&#x174;" 
d="M104 0v1536h1522v-1536h-1522zM354 238h1022v1060h-1022v-1060zM1065 399l-207 209l-209 -209l-151 152l209 209l-209 207l151 153l209 -209l207 207l152 -151l-207 -207l207 -209z" />
    <glyph glyph-name="wcircumflex" unicode="&#x175;" 
d="M104 0v1536h1522v-1536h-1522zM354 238h1022v1060h-1022v-1060zM1065 399l-207 209l-209 -209l-151 152l209 209l-209 207l151 153l209 -209l207 207l152 -151l-207 -207l207 -209z" />
    <glyph glyph-name="Ycircumflex" unicode="&#x176;" 
d="M104 0v1536h1522v-1536h-1522zM354 238h1022v1060h-1022v-1060zM1065 399l-207 209l-209 -209l-151 152l209 209l-209 207l151 153l209 -209l207 207l152 -151l-207 -207l207 -209z" />
    <glyph glyph-name="ycircumflex" unicode="&#x177;" 
d="M104 0v1536h1522v-1536h-1522zM354 238h1022v1060h-1022v-1060zM1065 399l-207 209l-209 -209l-151 152l209 209l-209 207l151 153l209 -209l207 207l152 -151l-207 -207l207 -209z" />
    <glyph glyph-name="Ydieresis" unicode="&#x178;" 
d="M104 0v1536h1522v-1536h-1522zM354 238h1022v1060h-1022v-1060zM1065 399l-207 209l-209 -209l-151 152l209 209l-209 207l151 153l209 -209l207 207l152 -151l-207 -207l207 -209z" />
    <glyph glyph-name="Zacute" unicode="&#x179;" 
d="M104 0v1536h1522v-1536h-1522zM354 238h1022v1060h-1022v-1060zM1065 399l-207 209l-209 -209l-151 152l209 209l-209 207l151 153l209 -209l207 207l152 -151l-207 -207l207 -209z" />
    <glyph glyph-name="zacute" unicode="&#x17a;" 
d="M104 0v1536h1522v-1536h-1522zM354 238h1022v1060h-1022v-1060zM1065 399l-207 209l-209 -209l-151 152l209 209l-209 207l151 153l209 -209l207 207l152 -151l-207 -207l207 -209z" />
    <glyph glyph-name="Zdotaccent" unicode="&#x17b;" 
d="M104 0v1536h1522v-1536h-1522zM354 238h1022v1060h-1022v-1060zM1065 399l-207 209l-209 -209l-151 152l209 209l-209 207l151 153l209 -209l207 207l152 -151l-207 -207l207 -209z" />
    <glyph glyph-name="zdotaccent" unicode="&#x17c;" 
d="M104 0v1536h1522v-1536h-1522zM354 238h1022v1060h-1022v-1060zM1065 399l-207 209l-209 -209l-151 152l209 209l-209 207l151 153l209 -209l207 207l152 -151l-207 -207l207 -209z" />
    <glyph glyph-name="Zcaron" unicode="&#x17d;" 
d="M104 0v1536h1522v-1536h-1522zM354 238h1022v1060h-1022v-1060zM1065 399l-207 209l-209 -209l-151 152l209 209l-209 207l151 153l209 -209l207 207l152 -151l-207 -207l207 -209z" />
    <glyph glyph-name="zcaron" unicode="&#x17e;" 
d="M104 0v1536h1522v-1536h-1522zM354 238h1022v1060h-1022v-1060zM1065 399l-207 209l-209 -209l-151 152l209 209l-209 207l151 153l209 -209l207 207l152 -151l-207 -207l207 -209z" />
    <glyph glyph-name="florin" unicode="&#x192;" 
d="M104 0v1536h1522v-1536h-1522zM354 238h1022v1060h-1022v-1060zM1065 399l-207 209l-209 -209l-151 152l209 209l-209 207l151 153l209 -209l207 207l152 -151l-207 -207l207 -209z" />
    <glyph glyph-name="Aringacute" unicode="&#x1fa;" 
d="M104 0v1536h1522v-1536h-1522zM354 238h1022v1060h-1022v-1060zM1065 399l-207 209l-209 -209l-151 152l209 209l-209 207l151 153l209 -209l207 207l152 -151l-207 -207l207 -209z" />
    <glyph glyph-name="aringacute" unicode="&#x1fb;" 
d="M104 0v1536h1522v-1536h-1522zM354 238h1022v1060h-1022v-1060zM1065 399l-207 209l-209 -209l-151 152l209 209l-209 207l151 153l209 -209l207 207l152 -151l-207 -207l207 -209z" />
    <glyph glyph-name="AEacute" unicode="&#x1fc;" 
d="M104 0v1536h1522v-1536h-1522zM354 238h1022v1060h-1022v-1060zM1065 399l-207 209l-209 -209l-151 152l209 209l-209 207l151 153l209 -209l207 207l152 -151l-207 -207l207 -209z" />
    <glyph glyph-name="aeacute" unicode="&#x1fd;" 
d="M104 0v1536h1522v-1536h-1522zM354 238h1022v1060h-1022v-1060zM1065 399l-207 209l-209 -209l-151 152l209 209l-209 207l151 153l209 -209l207 207l152 -151l-207 -207l207 -209z" />
    <glyph glyph-name="Oslashacute" unicode="&#x1fe;" 
d="M104 0v1536h1522v-1536h-1522zM354 238h1022v1060h-1022v-1060zM1065 399l-207 209l-209 -209l-151 152l209 209l-209 207l151 153l209 -209l207 207l152 -151l-207 -207l207 -209z" />
    <glyph glyph-name="oslashacute" unicode="&#x1ff;" 
d="M104 0v1536h1522v-1536h-1522zM354 238h1022v1060h-1022v-1060zM1065 399l-207 209l-209 -209l-151 152l209 209l-209 207l151 153l209 -209l207 207l152 -151l-207 -207l207 -209z" />
    <glyph glyph-name="Scommaaccent" unicode="&#x218;" 
d="M104 0v1536h1522v-1536h-1522zM354 238h1022v1060h-1022v-1060zM1065 399l-207 209l-209 -209l-151 152l209 209l-209 207l151 153l209 -209l207 207l152 -151l-207 -207l207 -209z" />
    <glyph glyph-name="scommaaccent" unicode="&#x219;" 
d="M104 0v1536h1522v-1536h-1522zM354 238h1022v1060h-1022v-1060zM1065 399l-207 209l-209 -209l-151 152l209 209l-209 207l151 153l209 -209l207 207l152 -151l-207 -207l207 -209z" />
    <glyph glyph-name="uni021A" unicode="&#x21a;" 
d="M104 0v1536h1522v-1536h-1522zM354 238h1022v1060h-1022v-1060zM1065 399l-207 209l-209 -209l-151 152l209 209l-209 207l151 153l209 -209l207 207l152 -151l-207 -207l207 -209z" />
    <glyph glyph-name="uni021B" unicode="&#x21b;" 
d="M104 0v1536h1522v-1536h-1522zM354 238h1022v1060h-1022v-1060zM1065 399l-207 209l-209 -209l-151 152l209 209l-209 207l151 153l209 -209l207 207l152 -151l-207 -207l207 -209z" />
    <glyph glyph-name="circumflex" unicode="&#x2c6;" 
d="M104 0v1536h1522v-1536h-1522zM354 238h1022v1060h-1022v-1060zM1065 399l-207 209l-209 -209l-151 152l209 209l-209 207l151 153l209 -209l207 207l152 -151l-207 -207l207 -209z" />
    <glyph glyph-name="caron" unicode="&#x2c7;" 
d="M104 0v1536h1522v-1536h-1522zM354 238h1022v1060h-1022v-1060zM1065 399l-207 209l-209 -209l-151 152l209 209l-209 207l151 153l209 -209l207 207l152 -151l-207 -207l207 -209z" />
    <glyph glyph-name="breve" unicode="&#x2d8;" 
d="M104 0v1536h1522v-1536h-1522zM354 238h1022v1060h-1022v-1060zM1065 399l-207 209l-209 -209l-151 152l209 209l-209 207l151 153l209 -209l207 207l152 -151l-207 -207l207 -209z" />
    <glyph glyph-name="dotaccent" unicode="&#x2d9;" 
d="M104 0v1536h1522v-1536h-1522zM354 238h1022v1060h-1022v-1060zM1065 399l-207 209l-209 -209l-151 152l209 209l-209 207l151 153l209 -209l207 207l152 -151l-207 -207l207 -209z" />
    <glyph glyph-name="ring" unicode="&#x2da;" 
d="M104 0v1536h1522v-1536h-1522zM354 238h1022v1060h-1022v-1060zM1065 399l-207 209l-209 -209l-151 152l209 209l-209 207l151 153l209 -209l207 207l152 -151l-207 -207l207 -209z" />
    <glyph glyph-name="ogonek" unicode="&#x2db;" 
d="M104 0v1536h1522v-1536h-1522zM354 238h1022v1060h-1022v-1060zM1065 399l-207 209l-209 -209l-151 152l209 209l-209 207l151 153l209 -209l207 207l152 -151l-207 -207l207 -209z" />
    <glyph glyph-name="tilde" unicode="&#x2dc;" 
d="M104 0v1536h1522v-1536h-1522zM354 238h1022v1060h-1022v-1060zM1065 399l-207 209l-209 -209l-151 152l209 209l-209 207l151 153l209 -209l207 207l152 -151l-207 -207l207 -209z" />
    <glyph glyph-name="hungarumlaut" unicode="&#x2dd;" 
d="M104 0v1536h1522v-1536h-1522zM354 238h1022v1060h-1022v-1060zM1065 399l-207 209l-209 -209l-151 152l209 209l-209 207l151 153l209 -209l207 207l152 -151l-207 -207l207 -209z" />
    <glyph glyph-name="gravecomb" unicode="&#x300;" 
d="M104 0v1536h1522v-1536h-1522zM354 238h1022v1060h-1022v-1060zM1065 399l-207 209l-209 -209l-151 152l209 209l-209 207l151 153l209 -209l207 207l152 -151l-207 -207l207 -209z" />
    <glyph glyph-name="acutecomb" unicode="&#x301;" 
d="M104 0v1536h1522v-1536h-1522zM354 238h1022v1060h-1022v-1060zM1065 399l-207 209l-209 -209l-151 152l209 209l-209 207l151 153l209 -209l207 207l152 -151l-207 -207l207 -209z" />
    <glyph glyph-name="circumflexcomb" unicode="&#x302;" 
d="M104 0v1536h1522v-1536h-1522zM354 238h1022v1060h-1022v-1060zM1065 399l-207 209l-209 -209l-151 152l209 209l-209 207l151 153l209 -209l207 207l152 -151l-207 -207l207 -209z" />
    <glyph glyph-name="tildecomb" unicode="&#x303;" 
d="M104 0v1536h1522v-1536h-1522zM354 238h1022v1060h-1022v-1060zM1065 399l-207 209l-209 -209l-151 152l209 209l-209 207l151 153l209 -209l207 207l152 -151l-207 -207l207 -209z" />
    <glyph glyph-name="macroncomb" unicode="&#x304;" 
d="M104 0v1536h1522v-1536h-1522zM354 238h1022v1060h-1022v-1060zM1065 399l-207 209l-209 -209l-151 152l209 209l-209 207l151 153l209 -209l207 207l152 -151l-207 -207l207 -209z" />
    <glyph glyph-name="brevecomb" unicode="&#x306;" 
d="M104 0v1536h1522v-1536h-1522zM354 238h1022v1060h-1022v-1060zM1065 399l-207 209l-209 -209l-151 152l209 209l-209 207l151 153l209 -209l207 207l152 -151l-207 -207l207 -209z" />
    <glyph glyph-name="dotaccentcomb" unicode="&#x307;" 
d="M104 0v1536h1522v-1536h-1522zM354 238h1022v1060h-1022v-1060zM1065 399l-207 209l-209 -209l-151 152l209 209l-209 207l151 153l209 -209l207 207l152 -151l-207 -207l207 -209z" />
    <glyph glyph-name="dieresiscomb" unicode="&#x308;" 
d="M104 0v1536h1522v-1536h-1522zM354 238h1022v1060h-1022v-1060zM1065 399l-207 209l-209 -209l-151 152l209 209l-209 207l151 153l209 -209l207 207l152 -151l-207 -207l207 -209z" />
    <glyph glyph-name="ringcomb" unicode="&#x30a;" 
d="M104 0v1536h1522v-1536h-1522zM354 238h1022v1060h-1022v-1060zM1065 399l-207 209l-209 -209l-151 152l209 209l-209 207l151 153l209 -209l207 207l152 -151l-207 -207l207 -209z" />
    <glyph glyph-name="hungarumlautcomb" unicode="&#x30b;" 
d="M104 0v1536h1522v-1536h-1522zM354 238h1022v1060h-1022v-1060zM1065 399l-207 209l-209 -209l-151 152l209 209l-209 207l151 153l209 -209l207 207l152 -151l-207 -207l207 -209z" />
    <glyph glyph-name="caroncomb" unicode="&#x30c;" 
d="M104 0v1536h1522v-1536h-1522zM354 238h1022v1060h-1022v-1060zM1065 399l-207 209l-209 -209l-151 152l209 209l-209 207l151 153l209 -209l207 207l152 -151l-207 -207l207 -209z" />
    <glyph glyph-name="commaaccentcomb" unicode="&#x326;" 
d="M104 0v1536h1522v-1536h-1522zM354 238h1022v1060h-1022v-1060zM1065 399l-207 209l-209 -209l-151 152l209 209l-209 207l151 153l209 -209l207 207l152 -151l-207 -207l207 -209z" />
    <glyph glyph-name="cedillacomb" unicode="&#x327;" 
d="M104 0v1536h1522v-1536h-1522zM354 238h1022v1060h-1022v-1060zM1065 399l-207 209l-209 -209l-151 152l209 209l-209 207l151 153l209 -209l207 207l152 -151l-207 -207l207 -209z" />
    <glyph glyph-name="ogonekcomb" unicode="&#x328;" 
d="M104 0v1536h1522v-1536h-1522zM354 238h1022v1060h-1022v-1060zM1065 399l-207 209l-209 -209l-151 152l209 209l-209 207l151 153l209 -209l207 207l152 -151l-207 -207l207 -209z" />
    <glyph glyph-name="pi" unicode="&#x3c0;" 
d="M104 0v1536h1522v-1536h-1522zM354 238h1022v1060h-1022v-1060zM1065 399l-207 209l-209 -209l-151 152l209 209l-209 207l151 153l209 -209l207 207l152 -151l-207 -207l207 -209z" />
    <glyph glyph-name="Wgrave" unicode="&#x1e80;" 
d="M104 0v1536h1522v-1536h-1522zM354 238h1022v1060h-1022v-1060zM1065 399l-207 209l-209 -209l-151 152l209 209l-209 207l151 153l209 -209l207 207l152 -151l-207 -207l207 -209z" />
    <glyph glyph-name="wgrave" unicode="&#x1e81;" 
d="M104 0v1536h1522v-1536h-1522zM354 238h1022v1060h-1022v-1060zM1065 399l-207 209l-209 -209l-151 152l209 209l-209 207l151 153l209 -209l207 207l152 -151l-207 -207l207 -209z" />
    <glyph glyph-name="Wacute" unicode="&#x1e82;" 
d="M104 0v1536h1522v-1536h-1522zM354 238h1022v1060h-1022v-1060zM1065 399l-207 209l-209 -209l-151 152l209 209l-209 207l151 153l209 -209l207 207l152 -151l-207 -207l207 -209z" />
    <glyph glyph-name="wacute" unicode="&#x1e83;" 
d="M104 0v1536h1522v-1536h-1522zM354 238h1022v1060h-1022v-1060zM1065 399l-207 209l-209 -209l-151 152l209 209l-209 207l151 153l209 -209l207 207l152 -151l-207 -207l207 -209z" />
    <glyph glyph-name="Wdieresis" unicode="&#x1e84;" 
d="M104 0v1536h1522v-1536h-1522zM354 238h1022v1060h-1022v-1060zM1065 399l-207 209l-209 -209l-151 152l209 209l-209 207l151 153l209 -209l207 207l152 -151l-207 -207l207 -209z" />
    <glyph glyph-name="wdieresis" unicode="&#x1e85;" 
d="M104 0v1536h1522v-1536h-1522zM354 238h1022v1060h-1022v-1060zM1065 399l-207 209l-209 -209l-151 152l209 209l-209 207l151 153l209 -209l207 207l152 -151l-207 -207l207 -209z" />
    <glyph glyph-name="uni1E9E" unicode="&#x1e9e;" 
d="M104 0v1536h1522v-1536h-1522zM354 238h1022v1060h-1022v-1060zM1065 399l-207 209l-209 -209l-151 152l209 209l-209 207l151 153l209 -209l207 207l152 -151l-207 -207l207 -209z" />
    <glyph glyph-name="Ygrave" unicode="&#x1ef2;" 
d="M104 0v1536h1522v-1536h-1522zM354 238h1022v1060h-1022v-1060zM1065 399l-207 209l-209 -209l-151 152l209 209l-209 207l151 153l209 -209l207 207l152 -151l-207 -207l207 -209z" />
    <glyph glyph-name="ygrave" unicode="&#x1ef3;" 
d="M104 0v1536h1522v-1536h-1522zM354 238h1022v1060h-1022v-1060zM1065 399l-207 209l-209 -209l-151 152l209 209l-209 207l151 153l209 -209l207 207l152 -151l-207 -207l207 -209z" />
    <glyph glyph-name="endash" unicode="&#x2013;" 
d="M104 0v1536h1522v-1536h-1522zM354 238h1022v1060h-1022v-1060zM1065 399l-207 209l-209 -209l-151 152l209 209l-209 207l151 153l209 -209l207 207l152 -151l-207 -207l207 -209z" />
    <glyph glyph-name="emdash" unicode="&#x2014;" 
d="M104 0v1536h1522v-1536h-1522zM354 238h1022v1060h-1022v-1060zM1065 399l-207 209l-209 -209l-151 152l209 209l-209 207l151 153l209 -209l207 207l152 -151l-207 -207l207 -209z" />
    <glyph glyph-name="quoteleft" unicode="&#x2018;" 
d="M104 0v1536h1522v-1536h-1522zM354 238h1022v1060h-1022v-1060zM1065 399l-207 209l-209 -209l-151 152l209 209l-209 207l151 153l209 -209l207 207l152 -151l-207 -207l207 -209z" />
    <glyph glyph-name="quoteright" unicode="&#x2019;" 
d="M104 0v1536h1522v-1536h-1522zM354 238h1022v1060h-1022v-1060zM1065 399l-207 209l-209 -209l-151 152l209 209l-209 207l151 153l209 -209l207 207l152 -151l-207 -207l207 -209z" />
    <glyph glyph-name="quotesinglbase" unicode="&#x201a;" 
d="M104 0v1536h1522v-1536h-1522zM354 238h1022v1060h-1022v-1060zM1065 399l-207 209l-209 -209l-151 152l209 209l-209 207l151 153l209 -209l207 207l152 -151l-207 -207l207 -209z" />
    <glyph glyph-name="quotedblleft" unicode="&#x201c;" 
d="M104 0v1536h1522v-1536h-1522zM354 238h1022v1060h-1022v-1060zM1065 399l-207 209l-209 -209l-151 152l209 209l-209 207l151 153l209 -209l207 207l152 -151l-207 -207l207 -209z" />
    <glyph glyph-name="quotedblright" unicode="&#x201d;" 
d="M104 0v1536h1522v-1536h-1522zM354 238h1022v1060h-1022v-1060zM1065 399l-207 209l-209 -209l-151 152l209 209l-209 207l151 153l209 -209l207 207l152 -151l-207 -207l207 -209z" />
    <glyph glyph-name="quotedblbase" unicode="&#x201e;" 
d="M104 0v1536h1522v-1536h-1522zM354 238h1022v1060h-1022v-1060zM1065 399l-207 209l-209 -209l-151 152l209 209l-209 207l151 153l209 -209l207 207l152 -151l-207 -207l207 -209z" />
    <glyph glyph-name="dagger" unicode="&#x2020;" 
d="M104 0v1536h1522v-1536h-1522zM354 238h1022v1060h-1022v-1060zM1065 399l-207 209l-209 -209l-151 152l209 209l-209 207l151 153l209 -209l207 207l152 -151l-207 -207l207 -209z" />
    <glyph glyph-name="daggerdbl" unicode="&#x2021;" 
d="M104 0v1536h1522v-1536h-1522zM354 238h1022v1060h-1022v-1060zM1065 399l-207 209l-209 -209l-151 152l209 209l-209 207l151 153l209 -209l207 207l152 -151l-207 -207l207 -209z" />
    <glyph glyph-name="bullet" unicode="&#x2022;" 
d="M104 0v1536h1522v-1536h-1522zM354 238h1022v1060h-1022v-1060zM1065 399l-207 209l-209 -209l-151 152l209 209l-209 207l151 153l209 -209l207 207l152 -151l-207 -207l207 -209z" />
    <glyph glyph-name="ellipsis" unicode="&#x2026;" 
d="M104 0v1536h1522v-1536h-1522zM354 238h1022v1060h-1022v-1060zM1065 399l-207 209l-209 -209l-151 152l209 209l-209 207l151 153l209 -209l207 207l152 -151l-207 -207l207 -209z" />
    <glyph glyph-name="perthousand" unicode="&#x2030;" 
d="M104 0v1536h1522v-1536h-1522zM354 238h1022v1060h-1022v-1060zM1065 399l-207 209l-209 -209l-151 152l209 209l-209 207l151 153l209 -209l207 207l152 -151l-207 -207l207 -209z" />
    <glyph glyph-name="guilsinglleft" unicode="&#x2039;" 
d="M104 0v1536h1522v-1536h-1522zM354 238h1022v1060h-1022v-1060zM1065 399l-207 209l-209 -209l-151 152l209 209l-209 207l151 153l209 -209l207 207l152 -151l-207 -207l207 -209z" />
    <glyph glyph-name="guilsinglright" unicode="&#x203a;" 
d="M104 0v1536h1522v-1536h-1522zM354 238h1022v1060h-1022v-1060zM1065 399l-207 209l-209 -209l-151 152l209 209l-209 207l151 153l209 -209l207 207l152 -151l-207 -207l207 -209z" />
    <glyph glyph-name="fraction" unicode="&#x2044;" 
d="M104 0v1536h1522v-1536h-1522zM354 238h1022v1060h-1022v-1060zM1065 399l-207 209l-209 -209l-151 152l209 209l-209 207l151 153l209 -209l207 207l152 -151l-207 -207l207 -209z" />
    <glyph glyph-name="Euro" unicode="&#x20ac;" 
d="M104 0v1536h1522v-1536h-1522zM354 238h1022v1060h-1022v-1060zM1065 399l-207 209l-209 -209l-151 152l209 209l-209 207l151 153l209 -209l207 207l152 -151l-207 -207l207 -209z" />
    <glyph glyph-name="uni2116" unicode="&#x2116;" 
d="M104 0v1536h1522v-1536h-1522zM354 238h1022v1060h-1022v-1060zM1065 399l-207 209l-209 -209l-151 152l209 209l-209 207l151 153l209 -209l207 207l152 -151l-207 -207l207 -209z" />
    <glyph glyph-name="uni2117" unicode="&#x2117;" 
d="M104 0v1536h1522v-1536h-1522zM354 238h1022v1060h-1022v-1060zM1065 399l-207 209l-209 -209l-151 152l209 209l-209 207l151 153l209 -209l207 207l152 -151l-207 -207l207 -209z" />
    <glyph glyph-name="uni2120" unicode="&#x2120;" 
d="M104 0v1536h1522v-1536h-1522zM354 238h1022v1060h-1022v-1060zM1065 399l-207 209l-209 -209l-151 152l209 209l-209 207l151 153l209 -209l207 207l152 -151l-207 -207l207 -209z" />
    <glyph glyph-name="trademark" unicode="&#x2122;" 
d="M104 0v1536h1522v-1536h-1522zM354 238h1022v1060h-1022v-1060zM1065 399l-207 209l-209 -209l-151 152l209 209l-209 207l151 153l209 -209l207 207l152 -151l-207 -207l207 -209z" />
    <glyph glyph-name="uni2150" unicode="&#x2150;" 
d="M104 0v1536h1522v-1536h-1522zM354 238h1022v1060h-1022v-1060zM1065 399l-207 209l-209 -209l-151 152l209 209l-209 207l151 153l209 -209l207 207l152 -151l-207 -207l207 -209z" />
    <glyph glyph-name="uni2151" unicode="&#x2151;" 
d="M104 0v1536h1522v-1536h-1522zM354 238h1022v1060h-1022v-1060zM1065 399l-207 209l-209 -209l-151 152l209 209l-209 207l151 153l209 -209l207 207l152 -151l-207 -207l207 -209z" />
    <glyph glyph-name="uni2153" unicode="&#x2153;" 
d="M104 0v1536h1522v-1536h-1522zM354 238h1022v1060h-1022v-1060zM1065 399l-207 209l-209 -209l-151 152l209 209l-209 207l151 153l209 -209l207 207l152 -151l-207 -207l207 -209z" />
    <glyph glyph-name="uni2154" unicode="&#x2154;" 
d="M104 0v1536h1522v-1536h-1522zM354 238h1022v1060h-1022v-1060zM1065 399l-207 209l-209 -209l-151 152l209 209l-209 207l151 153l209 -209l207 207l152 -151l-207 -207l207 -209z" />
    <glyph glyph-name="uni2155" unicode="&#x2155;" 
d="M104 0v1536h1522v-1536h-1522zM354 238h1022v1060h-1022v-1060zM1065 399l-207 209l-209 -209l-151 152l209 209l-209 207l151 153l209 -209l207 207l152 -151l-207 -207l207 -209z" />
    <glyph glyph-name="uni2156" unicode="&#x2156;" 
d="M104 0v1536h1522v-1536h-1522zM354 238h1022v1060h-1022v-1060zM1065 399l-207 209l-209 -209l-151 152l209 209l-209 207l151 153l209 -209l207 207l152 -151l-207 -207l207 -209z" />
    <glyph glyph-name="uni2157" unicode="&#x2157;" 
d="M104 0v1536h1522v-1536h-1522zM354 238h1022v1060h-1022v-1060zM1065 399l-207 209l-209 -209l-151 152l209 209l-209 207l151 153l209 -209l207 207l152 -151l-207 -207l207 -209z" />
    <glyph glyph-name="uni2158" unicode="&#x2158;" 
d="M104 0v1536h1522v-1536h-1522zM354 238h1022v1060h-1022v-1060zM1065 399l-207 209l-209 -209l-151 152l209 209l-209 207l151 153l209 -209l207 207l152 -151l-207 -207l207 -209z" />
    <glyph glyph-name="uni2159" unicode="&#x2159;" 
d="M104 0v1536h1522v-1536h-1522zM354 238h1022v1060h-1022v-1060zM1065 399l-207 209l-209 -209l-151 152l209 209l-209 207l151 153l209 -209l207 207l152 -151l-207 -207l207 -209z" />
    <glyph glyph-name="oneeighth" unicode="&#x215b;" 
d="M104 0v1536h1522v-1536h-1522zM354 238h1022v1060h-1022v-1060zM1065 399l-207 209l-209 -209l-151 152l209 209l-209 207l151 153l209 -209l207 207l152 -151l-207 -207l207 -209z" />
    <glyph glyph-name="arrowleft" unicode="&#x2190;" 
d="M104 0v1536h1522v-1536h-1522zM354 238h1022v1060h-1022v-1060zM1065 399l-207 209l-209 -209l-151 152l209 209l-209 207l151 153l209 -209l207 207l152 -151l-207 -207l207 -209z" />
    <glyph glyph-name="arrowup" unicode="&#x2191;" 
d="M104 0v1536h1522v-1536h-1522zM354 238h1022v1060h-1022v-1060zM1065 399l-207 209l-209 -209l-151 152l209 209l-209 207l151 153l209 -209l207 207l152 -151l-207 -207l207 -209z" />
    <glyph glyph-name="arrowright" unicode="&#x2192;" 
d="M104 0v1536h1522v-1536h-1522zM354 238h1022v1060h-1022v-1060zM1065 399l-207 209l-209 -209l-151 152l209 209l-209 207l151 153l209 -209l207 207l152 -151l-207 -207l207 -209z" />
    <glyph glyph-name="arrowdown" unicode="&#x2193;" 
d="M104 0v1536h1522v-1536h-1522zM354 238h1022v1060h-1022v-1060zM1065 399l-207 209l-209 -209l-151 152l209 209l-209 207l151 153l209 -209l207 207l152 -151l-207 -207l207 -209z" />
    <glyph glyph-name="arrowboth" unicode="&#x2194;" 
d="M104 0v1536h1522v-1536h-1522zM354 238h1022v1060h-1022v-1060zM1065 399l-207 209l-209 -209l-151 152l209 209l-209 207l151 153l209 -209l207 207l152 -151l-207 -207l207 -209z" />
    <glyph glyph-name="arrowupdn" unicode="&#x2195;" 
d="M104 0v1536h1522v-1536h-1522zM354 238h1022v1060h-1022v-1060zM1065 399l-207 209l-209 -209l-151 152l209 209l-209 207l151 153l209 -209l207 207l152 -151l-207 -207l207 -209z" />
    <glyph glyph-name="uni2196" unicode="&#x2196;" 
d="M104 0v1536h1522v-1536h-1522zM354 238h1022v1060h-1022v-1060zM1065 399l-207 209l-209 -209l-151 152l209 209l-209 207l151 153l209 -209l207 207l152 -151l-207 -207l207 -209z" />
    <glyph glyph-name="uni2197" unicode="&#x2197;" 
d="M104 0v1536h1522v-1536h-1522zM354 238h1022v1060h-1022v-1060zM1065 399l-207 209l-209 -209l-151 152l209 209l-209 207l151 153l209 -209l207 207l152 -151l-207 -207l207 -209z" />
    <glyph glyph-name="uni2198" unicode="&#x2198;" 
d="M104 0v1536h1522v-1536h-1522zM354 238h1022v1060h-1022v-1060zM1065 399l-207 209l-209 -209l-151 152l209 209l-209 207l151 153l209 -209l207 207l152 -151l-207 -207l207 -209z" />
    <glyph glyph-name="uni2199" unicode="&#x2199;" 
d="M104 0v1536h1522v-1536h-1522zM354 238h1022v1060h-1022v-1060zM1065 399l-207 209l-209 -209l-151 152l209 209l-209 207l151 153l209 -209l207 207l152 -151l-207 -207l207 -209z" />
    <glyph glyph-name="minus" unicode="&#x2212;" 
d="M104 0v1536h1522v-1536h-1522zM354 238h1022v1060h-1022v-1060zM1065 399l-207 209l-209 -209l-151 152l209 209l-209 207l151 153l209 -209l207 207l152 -151l-207 -207l207 -209z" />
    <glyph glyph-name="infinity" unicode="&#x221e;" 
d="M104 0v1536h1522v-1536h-1522zM354 238h1022v1060h-1022v-1060zM1065 399l-207 209l-209 -209l-151 152l209 209l-209 207l151 153l209 -209l207 207l152 -151l-207 -207l207 -209z" />
    <glyph glyph-name="approxequal" unicode="&#x2248;" 
d="M104 0v1536h1522v-1536h-1522zM354 238h1022v1060h-1022v-1060zM1065 399l-207 209l-209 -209l-151 152l209 209l-209 207l151 153l209 -209l207 207l152 -151l-207 -207l207 -209z" />
    <glyph glyph-name="notequal" unicode="&#x2260;" 
d="M104 0v1536h1522v-1536h-1522zM354 238h1022v1060h-1022v-1060zM1065 399l-207 209l-209 -209l-151 152l209 209l-209 207l151 153l209 -209l207 207l152 -151l-207 -207l207 -209z" />
    <glyph glyph-name="lessequal" unicode="&#x2264;" 
d="M104 0v1536h1522v-1536h-1522zM354 238h1022v1060h-1022v-1060zM1065 399l-207 209l-209 -209l-151 152l209 209l-209 207l151 153l209 -209l207 207l152 -151l-207 -207l207 -209z" />
    <glyph glyph-name="greaterequal" unicode="&#x2265;" 
d="M104 0v1536h1522v-1536h-1522zM354 238h1022v1060h-1022v-1060zM1065 399l-207 209l-209 -209l-151 152l209 209l-209 207l151 153l209 -209l207 207l152 -151l-207 -207l207 -209z" />
    <glyph glyph-name="house" unicode="&#x2302;" 
d="M104 0v1536h1522v-1536h-1522zM354 238h1022v1060h-1022v-1060zM1065 399l-207 209l-209 -209l-151 152l209 209l-209 207l151 153l209 -209l207 207l152 -151l-207 -207l207 -209z" />
    <glyph glyph-name="blacksquare" unicode="&#x25a0;" 
d="M104 0v1536h1522v-1536h-1522zM354 238h1022v1060h-1022v-1060zM1065 399l-207 209l-209 -209l-151 152l209 209l-209 207l151 153l209 -209l207 207l152 -151l-207 -207l207 -209z" />
    <glyph glyph-name="whitesquare" unicode="&#x25a1;" 
d="M104 0v1536h1522v-1536h-1522zM354 238h1022v1060h-1022v-1060zM1065 399l-207 209l-209 -209l-151 152l209 209l-209 207l151 153l209 -209l207 207l152 -151l-207 -207l207 -209z" />
    <glyph glyph-name="blacksmallsquare" unicode="&#x25aa;" 
d="M104 0v1536h1522v-1536h-1522zM354 238h1022v1060h-1022v-1060zM1065 399l-207 209l-209 -209l-151 152l209 209l-209 207l151 153l209 -209l207 207l152 -151l-207 -207l207 -209z" />
    <glyph glyph-name="whitesmallsquare" unicode="&#x25ab;" 
d="M104 0v1536h1522v-1536h-1522zM354 238h1022v1060h-1022v-1060zM1065 399l-207 209l-209 -209l-151 152l209 209l-209 207l151 153l209 -209l207 207l152 -151l-207 -207l207 -209z" />
    <glyph glyph-name="triagup" unicode="&#x25b2;" 
d="M104 0v1536h1522v-1536h-1522zM354 238h1022v1060h-1022v-1060zM1065 399l-207 209l-209 -209l-151 152l209 209l-209 207l151 153l209 -209l207 207l152 -151l-207 -207l207 -209z" />
    <glyph glyph-name="triagrt" unicode="&#x25ba;" 
d="M104 0v1536h1522v-1536h-1522zM354 238h1022v1060h-1022v-1060zM1065 399l-207 209l-209 -209l-151 152l209 209l-209 207l151 153l209 -209l207 207l152 -151l-207 -207l207 -209z" />
    <glyph glyph-name="triagdn" unicode="&#x25bc;" 
d="M104 0v1536h1522v-1536h-1522zM354 238h1022v1060h-1022v-1060zM1065 399l-207 209l-209 -209l-151 152l209 209l-209 207l151 153l209 -209l207 207l152 -151l-207 -207l207 -209z" />
    <glyph glyph-name="triaglf" unicode="&#x25c4;" 
d="M104 0v1536h1522v-1536h-1522zM354 238h1022v1060h-1022v-1060zM1065 399l-207 209l-209 -209l-151 152l209 209l-209 207l151 153l209 -209l207 207l152 -151l-207 -207l207 -209z" />
    <glyph glyph-name="whitecircle" unicode="&#x25cb;" 
d="M104 0v1536h1522v-1536h-1522zM354 238h1022v1060h-1022v-1060zM1065 399l-207 209l-209 -209l-151 152l209 209l-209 207l151 153l209 -209l207 207l152 -151l-207 -207l207 -209z" />
    <glyph glyph-name="blackcircle" unicode="&#x25cf;" 
d="M104 0v1536h1522v-1536h-1522zM354 238h1022v1060h-1022v-1060zM1065 399l-207 209l-209 -209l-151 152l209 209l-209 207l151 153l209 -209l207 207l152 -151l-207 -207l207 -209z" />
    <glyph glyph-name="mediumwhitecircle" unicode="&#x26ac;" 
d="M104 0v1536h1522v-1536h-1522zM354 238h1022v1060h-1022v-1060zM1065 399l-207 209l-209 -209l-151 152l209 209l-209 207l151 153l209 -209l207 207l152 -151l-207 -207l207 -209z" />
    <glyph glyph-name="dotlessj" unicode="&#xf6be;" 
d="M104 0v1536h1522v-1536h-1522zM354 238h1022v1060h-1022v-1060zM1065 399l-207 209l-209 -209l-151 152l209 209l-209 207l151 153l209 -209l207 207l152 -151l-207 -207l207 -209z" />
    <glyph glyph-name="fi" unicode="&#xfb01;" 
d="M104 0v1536h1522v-1536h-1522zM354 238h1022v1060h-1022v-1060zM1065 399l-207 209l-209 -209l-151 152l209 209l-209 207l151 153l209 -209l207 207l152 -151l-207 -207l207 -209z" />
    <glyph glyph-name="fl" unicode="&#xfb02;" 
d="M104 0v1536h1522v-1536h-1522zM354 238h1022v1060h-1022v-1060zM1065 399l-207 209l-209 -209l-151 152l209 209l-209 207l151 153l209 -209l207 207l152 -151l-207 -207l207 -209z" />
    <glyph glyph-name="zero.numr" 
d="M104 0v1536h1522v-1536h-1522zM354 238h1022v1060h-1022v-1060zM1065 399l-207 209l-209 -209l-151 152l209 209l-209 207l151 153l209 -209l207 207l152 -151l-207 -207l207 -209z" />
    <glyph glyph-name="one.numr" 
d="M104 0v1536h1522v-1536h-1522zM354 238h1022v1060h-1022v-1060zM1065 399l-207 209l-209 -209l-151 152l209 209l-209 207l151 153l209 -209l207 207l152 -151l-207 -207l207 -209z" />
    <glyph glyph-name="two.numr" 
d="M104 0v1536h1522v-1536h-1522zM354 238h1022v1060h-1022v-1060zM1065 399l-207 209l-209 -209l-151 152l209 209l-209 207l151 153l209 -209l207 207l152 -151l-207 -207l207 -209z" />
    <glyph glyph-name="three.numr" 
d="M104 0v1536h1522v-1536h-1522zM354 238h1022v1060h-1022v-1060zM1065 399l-207 209l-209 -209l-151 152l209 209l-209 207l151 153l209 -209l207 207l152 -151l-207 -207l207 -209z" />
    <glyph glyph-name="four.numr" 
d="M104 0v1536h1522v-1536h-1522zM354 238h1022v1060h-1022v-1060zM1065 399l-207 209l-209 -209l-151 152l209 209l-209 207l151 153l209 -209l207 207l152 -151l-207 -207l207 -209z" />
    <glyph glyph-name="five.numr" 
d="M104 0v1536h1522v-1536h-1522zM354 238h1022v1060h-1022v-1060zM1065 399l-207 209l-209 -209l-151 152l209 209l-209 207l151 153l209 -209l207 207l152 -151l-207 -207l207 -209z" />
    <glyph glyph-name="six.numr" 
d="M104 0v1536h1522v-1536h-1522zM354 238h1022v1060h-1022v-1060zM1065 399l-207 209l-209 -209l-151 152l209 209l-209 207l151 153l209 -209l207 207l152 -151l-207 -207l207 -209z" />
    <glyph glyph-name="seven.numr" 
d="M104 0v1536h1522v-1536h-1522zM354 238h1022v1060h-1022v-1060zM1065 399l-207 209l-209 -209l-151 152l209 209l-209 207l151 153l209 -209l207 207l152 -151l-207 -207l207 -209z" />
    <glyph glyph-name="eight.numr" 
d="M104 0v1536h1522v-1536h-1522zM354 238h1022v1060h-1022v-1060zM1065 399l-207 209l-209 -209l-151 152l209 209l-209 207l151 153l209 -209l207 207l152 -151l-207 -207l207 -209z" />
    <glyph glyph-name="nine.numr" 
d="M104 0v1536h1522v-1536h-1522zM354 238h1022v1060h-1022v-1060zM1065 399l-207 209l-209 -209l-151 152l209 209l-209 207l151 153l209 -209l207 207l152 -151l-207 -207l207 -209z" />
    <glyph glyph-name="zero.dnom" 
d="M104 0v1536h1522v-1536h-1522zM354 238h1022v1060h-1022v-1060zM1065 399l-207 209l-209 -209l-151 152l209 209l-209 207l151 153l209 -209l207 207l152 -151l-207 -207l207 -209z" />
    <glyph glyph-name="one.dnom" 
d="M104 0v1536h1522v-1536h-1522zM354 238h1022v1060h-1022v-1060zM1065 399l-207 209l-209 -209l-151 152l209 209l-209 207l151 153l209 -209l207 207l152 -151l-207 -207l207 -209z" />
    <glyph glyph-name="two.dnom" 
d="M104 0v1536h1522v-1536h-1522zM354 238h1022v1060h-1022v-1060zM1065 399l-207 209l-209 -209l-151 152l209 209l-209 207l151 153l209 -209l207 207l152 -151l-207 -207l207 -209z" />
    <glyph glyph-name="three.dnom" 
d="M104 0v1536h1522v-1536h-1522zM354 238h1022v1060h-1022v-1060zM1065 399l-207 209l-209 -209l-151 152l209 209l-209 207l151 153l209 -209l207 207l152 -151l-207 -207l207 -209z" />
    <glyph glyph-name="four.dnom" 
d="M104 0v1536h1522v-1536h-1522zM354 238h1022v1060h-1022v-1060zM1065 399l-207 209l-209 -209l-151 152l209 209l-209 207l151 153l209 -209l207 207l152 -151l-207 -207l207 -209z" />
    <glyph glyph-name="five.dnom" 
d="M104 0v1536h1522v-1536h-1522zM354 238h1022v1060h-1022v-1060zM1065 399l-207 209l-209 -209l-151 152l209 209l-209 207l151 153l209 -209l207 207l152 -151l-207 -207l207 -209z" />
    <glyph glyph-name="six.dnom" 
d="M104 0v1536h1522v-1536h-1522zM354 238h1022v1060h-1022v-1060zM1065 399l-207 209l-209 -209l-151 152l209 209l-209 207l151 153l209 -209l207 207l152 -151l-207 -207l207 -209z" />
    <glyph glyph-name="seven.dnom" 
d="M104 0v1536h1522v-1536h-1522zM354 238h1022v1060h-1022v-1060zM1065 399l-207 209l-209 -209l-151 152l209 209l-209 207l151 153l209 -209l207 207l152 -151l-207 -207l207 -209z" />
    <glyph glyph-name="eight.dnom" 
d="M104 0v1536h1522v-1536h-1522zM354 238h1022v1060h-1022v-1060zM1065 399l-207 209l-209 -209l-151 152l209 209l-209 207l151 153l209 -209l207 207l152 -151l-207 -207l207 -209z" />
    <glyph glyph-name="nine.dnom" 
d="M104 0v1536h1522v-1536h-1522zM354 238h1022v1060h-1022v-1060zM1065 399l-207 209l-209 -209l-151 152l209 209l-209 207l151 153l209 -209l207 207l152 -151l-207 -207l207 -209z" />
    <glyph glyph-name="zero.sups" 
d="M104 0v1536h1522v-1536h-1522zM354 238h1022v1060h-1022v-1060zM1065 399l-207 209l-209 -209l-151 152l209 209l-209 207l151 153l209 -209l207 207l152 -151l-207 -207l207 -209z" />
    <glyph glyph-name="one.sups" 
d="M104 0v1536h1522v-1536h-1522zM354 238h1022v1060h-1022v-1060zM1065 399l-207 209l-209 -209l-151 152l209 209l-209 207l151 153l209 -209l207 207l152 -151l-207 -207l207 -209z" />
    <glyph glyph-name="two.sups" 
d="M104 0v1536h1522v-1536h-1522zM354 238h1022v1060h-1022v-1060zM1065 399l-207 209l-209 -209l-151 152l209 209l-209 207l151 153l209 -209l207 207l152 -151l-207 -207l207 -209z" />
    <glyph glyph-name="three.sups" 
d="M104 0v1536h1522v-1536h-1522zM354 238h1022v1060h-1022v-1060zM1065 399l-207 209l-209 -209l-151 152l209 209l-209 207l151 153l209 -209l207 207l152 -151l-207 -207l207 -209z" />
    <glyph glyph-name="four.sups" 
d="M104 0v1536h1522v-1536h-1522zM354 238h1022v1060h-1022v-1060zM1065 399l-207 209l-209 -209l-151 152l209 209l-209 207l151 153l209 -209l207 207l152 -151l-207 -207l207 -209z" />
    <glyph glyph-name="five.sups" 
d="M104 0v1536h1522v-1536h-1522zM354 238h1022v1060h-1022v-1060zM1065 399l-207 209l-209 -209l-151 152l209 209l-209 207l151 153l209 -209l207 207l152 -151l-207 -207l207 -209z" />
    <glyph glyph-name="six.sups" 
d="M104 0v1536h1522v-1536h-1522zM354 238h1022v1060h-1022v-1060zM1065 399l-207 209l-209 -209l-151 152l209 209l-209 207l151 153l209 -209l207 207l152 -151l-207 -207l207 -209z" />
    <glyph glyph-name="seven.sups" 
d="M104 0v1536h1522v-1536h-1522zM354 238h1022v1060h-1022v-1060zM1065 399l-207 209l-209 -209l-151 152l209 209l-209 207l151 153l209 -209l207 207l152 -151l-207 -207l207 -209z" />
    <glyph glyph-name="eight.sups" 
d="M104 0v1536h1522v-1536h-1522zM354 238h1022v1060h-1022v-1060zM1065 399l-207 209l-209 -209l-151 152l209 209l-209 207l151 153l209 -209l207 207l152 -151l-207 -207l207 -209z" />
    <glyph glyph-name="nine.sups" 
d="M104 0v1536h1522v-1536h-1522zM354 238h1022v1060h-1022v-1060zM1065 399l-207 209l-209 -209l-151 152l209 209l-209 207l151 153l209 -209l207 207l152 -151l-207 -207l207 -209z" />
    <glyph glyph-name="period.sups" 
d="M104 0v1536h1522v-1536h-1522zM354 238h1022v1060h-1022v-1060zM1065 399l-207 209l-209 -209l-151 152l209 209l-209 207l151 153l209 -209l207 207l152 -151l-207 -207l207 -209z" />
    <glyph glyph-name="comma.sups" 
d="M104 0v1536h1522v-1536h-1522zM354 238h1022v1060h-1022v-1060zM1065 399l-207 209l-209 -209l-151 152l209 209l-209 207l151 153l209 -209l207 207l152 -151l-207 -207l207 -209z" />
    <glyph glyph-name="hyphen.sups" 
d="M104 0v1536h1522v-1536h-1522zM354 238h1022v1060h-1022v-1060zM1065 399l-207 209l-209 -209l-151 152l209 209l-209 207l151 153l209 -209l207 207l152 -151l-207 -207l207 -209z" />
    <glyph glyph-name="parenleft.sups" 
d="M104 0v1536h1522v-1536h-1522zM354 238h1022v1060h-1022v-1060zM1065 399l-207 209l-209 -209l-151 152l209 209l-209 207l151 153l209 -209l207 207l152 -151l-207 -207l207 -209z" />
    <glyph glyph-name="parenright.sups" 
d="M104 0v1536h1522v-1536h-1522zM354 238h1022v1060h-1022v-1060zM1065 399l-207 209l-209 -209l-151 152l209 209l-209 207l151 153l209 -209l207 207l152 -151l-207 -207l207 -209z" />
    <glyph glyph-name="plus.sups" 
d="M104 0v1536h1522v-1536h-1522zM354 238h1022v1060h-1022v-1060zM1065 399l-207 209l-209 -209l-151 152l209 209l-209 207l151 153l209 -209l207 207l152 -151l-207 -207l207 -209z" />
    <glyph glyph-name="minus.sups" 
d="M104 0v1536h1522v-1536h-1522zM354 238h1022v1060h-1022v-1060zM1065 399l-207 209l-209 -209l-151 152l209 209l-209 207l151 153l209 -209l207 207l152 -151l-207 -207l207 -209z" />
    <glyph glyph-name="multiply.sups" 
d="M104 0v1536h1522v-1536h-1522zM354 238h1022v1060h-1022v-1060zM1065 399l-207 209l-209 -209l-151 152l209 209l-209 207l151 153l209 -209l207 207l152 -151l-207 -207l207 -209z" />
    <glyph glyph-name="equal.sups" 
d="M104 0v1536h1522v-1536h-1522zM354 238h1022v1060h-1022v-1060zM1065 399l-207 209l-209 -209l-151 152l209 209l-209 207l151 153l209 -209l207 207l152 -151l-207 -207l207 -209z" />
    <glyph glyph-name="divide.sups" 
d="M104 0v1536h1522v-1536h-1522zM354 238h1022v1060h-1022v-1060zM1065 399l-207 209l-209 -209l-151 152l209 209l-209 207l151 153l209 -209l207 207l152 -151l-207 -207l207 -209z" />
    <glyph glyph-name="a.sups" 
d="M104 0v1536h1522v-1536h-1522zM354 238h1022v1060h-1022v-1060zM1065 399l-207 209l-209 -209l-151 152l209 209l-209 207l151 153l209 -209l207 207l152 -151l-207 -207l207 -209z" />
    <glyph glyph-name="b.sups" 
d="M104 0v1536h1522v-1536h-1522zM354 238h1022v1060h-1022v-1060zM1065 399l-207 209l-209 -209l-151 152l209 209l-209 207l151 153l209 -209l207 207l152 -151l-207 -207l207 -209z" />
    <glyph glyph-name="c.sups" 
d="M104 0v1536h1522v-1536h-1522zM354 238h1022v1060h-1022v-1060zM1065 399l-207 209l-209 -209l-151 152l209 209l-209 207l151 153l209 -209l207 207l152 -151l-207 -207l207 -209z" />
    <glyph glyph-name="d.sups" 
d="M104 0v1536h1522v-1536h-1522zM354 238h1022v1060h-1022v-1060zM1065 399l-207 209l-209 -209l-151 152l209 209l-209 207l151 153l209 -209l207 207l152 -151l-207 -207l207 -209z" />
    <glyph glyph-name="e.sups" 
d="M104 0v1536h1522v-1536h-1522zM354 238h1022v1060h-1022v-1060zM1065 399l-207 209l-209 -209l-151 152l209 209l-209 207l151 153l209 -209l207 207l152 -151l-207 -207l207 -209z" />
    <glyph glyph-name="f.sups" 
d="M104 0v1536h1522v-1536h-1522zM354 238h1022v1060h-1022v-1060zM1065 399l-207 209l-209 -209l-151 152l209 209l-209 207l151 153l209 -209l207 207l152 -151l-207 -207l207 -209z" />
    <glyph glyph-name="g.sups" 
d="M104 0v1536h1522v-1536h-1522zM354 238h1022v1060h-1022v-1060zM1065 399l-207 209l-209 -209l-151 152l209 209l-209 207l151 153l209 -209l207 207l152 -151l-207 -207l207 -209z" />
    <glyph glyph-name="h.sups" 
d="M104 0v1536h1522v-1536h-1522zM354 238h1022v1060h-1022v-1060zM1065 399l-207 209l-209 -209l-151 152l209 209l-209 207l151 153l209 -209l207 207l152 -151l-207 -207l207 -209z" />
    <glyph glyph-name="i.sups" 
d="M104 0v1536h1522v-1536h-1522zM354 238h1022v1060h-1022v-1060zM1065 399l-207 209l-209 -209l-151 152l209 209l-209 207l151 153l209 -209l207 207l152 -151l-207 -207l207 -209z" />
    <glyph glyph-name="j.sups" 
d="M104 0v1536h1522v-1536h-1522zM354 238h1022v1060h-1022v-1060zM1065 399l-207 209l-209 -209l-151 152l209 209l-209 207l151 153l209 -209l207 207l152 -151l-207 -207l207 -209z" />
    <glyph glyph-name="k.sups" 
d="M104 0v1536h1522v-1536h-1522zM354 238h1022v1060h-1022v-1060zM1065 399l-207 209l-209 -209l-151 152l209 209l-209 207l151 153l209 -209l207 207l152 -151l-207 -207l207 -209z" />
    <glyph glyph-name="l.sups" 
d="M104 0v1536h1522v-1536h-1522zM354 238h1022v1060h-1022v-1060zM1065 399l-207 209l-209 -209l-151 152l209 209l-209 207l151 153l209 -209l207 207l152 -151l-207 -207l207 -209z" />
    <glyph glyph-name="m.sups" 
d="M104 0v1536h1522v-1536h-1522zM354 238h1022v1060h-1022v-1060zM1065 399l-207 209l-209 -209l-151 152l209 209l-209 207l151 153l209 -209l207 207l152 -151l-207 -207l207 -209z" />
    <glyph glyph-name="n.sups" 
d="M104 0v1536h1522v-1536h-1522zM354 238h1022v1060h-1022v-1060zM1065 399l-207 209l-209 -209l-151 152l209 209l-209 207l151 153l209 -209l207 207l152 -151l-207 -207l207 -209z" />
    <glyph glyph-name="o.sups" 
d="M104 0v1536h1522v-1536h-1522zM354 238h1022v1060h-1022v-1060zM1065 399l-207 209l-209 -209l-151 152l209 209l-209 207l151 153l209 -209l207 207l152 -151l-207 -207l207 -209z" />
    <glyph glyph-name="p.sups" 
d="M104 0v1536h1522v-1536h-1522zM354 238h1022v1060h-1022v-1060zM1065 399l-207 209l-209 -209l-151 152l209 209l-209 207l151 153l209 -209l207 207l152 -151l-207 -207l207 -209z" />
    <glyph glyph-name="q.sups" 
d="M104 0v1536h1522v-1536h-1522zM354 238h1022v1060h-1022v-1060zM1065 399l-207 209l-209 -209l-151 152l209 209l-209 207l151 153l209 -209l207 207l152 -151l-207 -207l207 -209z" />
    <glyph glyph-name="r.sups" 
d="M104 0v1536h1522v-1536h-1522zM354 238h1022v1060h-1022v-1060zM1065 399l-207 209l-209 -209l-151 152l209 209l-209 207l151 153l209 -209l207 207l152 -151l-207 -207l207 -209z" />
    <glyph glyph-name="s.sups" 
d="M104 0v1536h1522v-1536h-1522zM354 238h1022v1060h-1022v-1060zM1065 399l-207 209l-209 -209l-151 152l209 209l-209 207l151 153l209 -209l207 207l152 -151l-207 -207l207 -209z" />
    <glyph glyph-name="t.sups" 
d="M104 0v1536h1522v-1536h-1522zM354 238h1022v1060h-1022v-1060zM1065 399l-207 209l-209 -209l-151 152l209 209l-209 207l151 153l209 -209l207 207l152 -151l-207 -207l207 -209z" />
    <glyph glyph-name="u.sups" 
d="M104 0v1536h1522v-1536h-1522zM354 238h1022v1060h-1022v-1060zM1065 399l-207 209l-209 -209l-151 152l209 209l-209 207l151 153l209 -209l207 207l152 -151l-207 -207l207 -209z" />
    <glyph glyph-name="v.sups" 
d="M104 0v1536h1522v-1536h-1522zM354 238h1022v1060h-1022v-1060zM1065 399l-207 209l-209 -209l-151 152l209 209l-209 207l151 153l209 -209l207 207l152 -151l-207 -207l207 -209z" />
    <glyph glyph-name="w.sups" 
d="M104 0v1536h1522v-1536h-1522zM354 238h1022v1060h-1022v-1060zM1065 399l-207 209l-209 -209l-151 152l209 209l-209 207l151 153l209 -209l207 207l152 -151l-207 -207l207 -209z" />
    <glyph glyph-name="x.sups" 
d="M104 0v1536h1522v-1536h-1522zM354 238h1022v1060h-1022v-1060zM1065 399l-207 209l-209 -209l-151 152l209 209l-209 207l151 153l209 -209l207 207l152 -151l-207 -207l207 -209z" />
    <glyph glyph-name="y.sups" 
d="M104 0v1536h1522v-1536h-1522zM354 238h1022v1060h-1022v-1060zM1065 399l-207 209l-209 -209l-151 152l209 209l-209 207l151 153l209 -209l207 207l152 -151l-207 -207l207 -209z" />
    <glyph glyph-name="z.sups" 
d="M104 0v1536h1522v-1536h-1522zM354 238h1022v1060h-1022v-1060zM1065 399l-207 209l-209 -209l-151 152l209 209l-209 207l151 153l209 -209l207 207l152 -151l-207 -207l207 -209z" />
    <glyph glyph-name="zero.subs" 
d="M104 0v1536h1522v-1536h-1522zM354 238h1022v1060h-1022v-1060zM1065 399l-207 209l-209 -209l-151 152l209 209l-209 207l151 153l209 -209l207 207l152 -151l-207 -207l207 -209z" />
    <glyph glyph-name="one.subs" 
d="M104 0v1536h1522v-1536h-1522zM354 238h1022v1060h-1022v-1060zM1065 399l-207 209l-209 -209l-151 152l209 209l-209 207l151 153l209 -209l207 207l152 -151l-207 -207l207 -209z" />
    <glyph glyph-name="two.subs" 
d="M104 0v1536h1522v-1536h-1522zM354 238h1022v1060h-1022v-1060zM1065 399l-207 209l-209 -209l-151 152l209 209l-209 207l151 153l209 -209l207 207l152 -151l-207 -207l207 -209z" />
    <glyph glyph-name="three.subs" 
d="M104 0v1536h1522v-1536h-1522zM354 238h1022v1060h-1022v-1060zM1065 399l-207 209l-209 -209l-151 152l209 209l-209 207l151 153l209 -209l207 207l152 -151l-207 -207l207 -209z" />
    <glyph glyph-name="four.subs" 
d="M104 0v1536h1522v-1536h-1522zM354 238h1022v1060h-1022v-1060zM1065 399l-207 209l-209 -209l-151 152l209 209l-209 207l151 153l209 -209l207 207l152 -151l-207 -207l207 -209z" />
    <glyph glyph-name="five.subs" 
d="M104 0v1536h1522v-1536h-1522zM354 238h1022v1060h-1022v-1060zM1065 399l-207 209l-209 -209l-151 152l209 209l-209 207l151 153l209 -209l207 207l152 -151l-207 -207l207 -209z" />
    <glyph glyph-name="six.subs" 
d="M104 0v1536h1522v-1536h-1522zM354 238h1022v1060h-1022v-1060zM1065 399l-207 209l-209 -209l-151 152l209 209l-209 207l151 153l209 -209l207 207l152 -151l-207 -207l207 -209z" />
    <glyph glyph-name="seven.subs" 
d="M104 0v1536h1522v-1536h-1522zM354 238h1022v1060h-1022v-1060zM1065 399l-207 209l-209 -209l-151 152l209 209l-209 207l151 153l209 -209l207 207l152 -151l-207 -207l207 -209z" />
    <glyph glyph-name="eight.subs" 
d="M104 0v1536h1522v-1536h-1522zM354 238h1022v1060h-1022v-1060zM1065 399l-207 209l-209 -209l-151 152l209 209l-209 207l151 153l209 -209l207 207l152 -151l-207 -207l207 -209z" />
    <glyph glyph-name="nine.subs" 
d="M104 0v1536h1522v-1536h-1522zM354 238h1022v1060h-1022v-1060zM1065 399l-207 209l-209 -209l-151 152l209 209l-209 207l151 153l209 -209l207 207l152 -151l-207 -207l207 -209z" />
    <glyph glyph-name="period.subs" 
d="M104 0v1536h1522v-1536h-1522zM354 238h1022v1060h-1022v-1060zM1065 399l-207 209l-209 -209l-151 152l209 209l-209 207l151 153l209 -209l207 207l152 -151l-207 -207l207 -209z" />
    <glyph glyph-name="comma.subs" 
d="M104 0v1536h1522v-1536h-1522zM354 238h1022v1060h-1022v-1060zM1065 399l-207 209l-209 -209l-151 152l209 209l-209 207l151 153l209 -209l207 207l152 -151l-207 -207l207 -209z" />
    <glyph glyph-name="hyphen.subs" 
d="M104 0v1536h1522v-1536h-1522zM354 238h1022v1060h-1022v-1060zM1065 399l-207 209l-209 -209l-151 152l209 209l-209 207l151 153l209 -209l207 207l152 -151l-207 -207l207 -209z" />
    <glyph glyph-name="parenleft.subs" 
d="M104 0v1536h1522v-1536h-1522zM354 238h1022v1060h-1022v-1060zM1065 399l-207 209l-209 -209l-151 152l209 209l-209 207l151 153l209 -209l207 207l152 -151l-207 -207l207 -209z" />
    <glyph glyph-name="parenright.subs" 
d="M104 0v1536h1522v-1536h-1522zM354 238h1022v1060h-1022v-1060zM1065 399l-207 209l-209 -209l-151 152l209 209l-209 207l151 153l209 -209l207 207l152 -151l-207 -207l207 -209z" />
    <glyph glyph-name="plus.subs" 
d="M104 0v1536h1522v-1536h-1522zM354 238h1022v1060h-1022v-1060zM1065 399l-207 209l-209 -209l-151 152l209 209l-209 207l151 153l209 -209l207 207l152 -151l-207 -207l207 -209z" />
    <glyph glyph-name="minus.subs" 
d="M104 0v1536h1522v-1536h-1522zM354 238h1022v1060h-1022v-1060zM1065 399l-207 209l-209 -209l-151 152l209 209l-209 207l151 153l209 -209l207 207l152 -151l-207 -207l207 -209z" />
    <glyph glyph-name="multiply.subs" 
d="M104 0v1536h1522v-1536h-1522zM354 238h1022v1060h-1022v-1060zM1065 399l-207 209l-209 -209l-151 152l209 209l-209 207l151 153l209 -209l207 207l152 -151l-207 -207l207 -209z" />
    <glyph glyph-name="equal.subs" 
d="M104 0v1536h1522v-1536h-1522zM354 238h1022v1060h-1022v-1060zM1065 399l-207 209l-209 -209l-151 152l209 209l-209 207l151 153l209 -209l207 207l152 -151l-207 -207l207 -209z" />
    <glyph glyph-name="divide.subs" 
d="M104 0v1536h1522v-1536h-1522zM354 238h1022v1060h-1022v-1060zM1065 399l-207 209l-209 -209l-151 152l209 209l-209 207l151 153l209 -209l207 207l152 -151l-207 -207l207 -209z" />
    <glyph glyph-name="a.subs" 
d="M104 0v1536h1522v-1536h-1522zM354 238h1022v1060h-1022v-1060zM1065 399l-207 209l-209 -209l-151 152l209 209l-209 207l151 153l209 -209l207 207l152 -151l-207 -207l207 -209z" />
    <glyph glyph-name="b.subs" 
d="M104 0v1536h1522v-1536h-1522zM354 238h1022v1060h-1022v-1060zM1065 399l-207 209l-209 -209l-151 152l209 209l-209 207l151 153l209 -209l207 207l152 -151l-207 -207l207 -209z" />
    <glyph glyph-name="c.subs" 
d="M104 0v1536h1522v-1536h-1522zM354 238h1022v1060h-1022v-1060zM1065 399l-207 209l-209 -209l-151 152l209 209l-209 207l151 153l209 -209l207 207l152 -151l-207 -207l207 -209z" />
    <glyph glyph-name="d.subs" 
d="M104 0v1536h1522v-1536h-1522zM354 238h1022v1060h-1022v-1060zM1065 399l-207 209l-209 -209l-151 152l209 209l-209 207l151 153l209 -209l207 207l152 -151l-207 -207l207 -209z" />
    <glyph glyph-name="e.subs" 
d="M104 0v1536h1522v-1536h-1522zM354 238h1022v1060h-1022v-1060zM1065 399l-207 209l-209 -209l-151 152l209 209l-209 207l151 153l209 -209l207 207l152 -151l-207 -207l207 -209z" />
    <glyph glyph-name="f.subs" 
d="M104 0v1536h1522v-1536h-1522zM354 238h1022v1060h-1022v-1060zM1065 399l-207 209l-209 -209l-151 152l209 209l-209 207l151 153l209 -209l207 207l152 -151l-207 -207l207 -209z" />
    <glyph glyph-name="g.subs" 
d="M104 0v1536h1522v-1536h-1522zM354 238h1022v1060h-1022v-1060zM1065 399l-207 209l-209 -209l-151 152l209 209l-209 207l151 153l209 -209l207 207l152 -151l-207 -207l207 -209z" />
    <glyph glyph-name="h.subs" 
d="M104 0v1536h1522v-1536h-1522zM354 238h1022v1060h-1022v-1060zM1065 399l-207 209l-209 -209l-151 152l209 209l-209 207l151 153l209 -209l207 207l152 -151l-207 -207l207 -209z" />
    <glyph glyph-name="i.subs" 
d="M104 0v1536h1522v-1536h-1522zM354 238h1022v1060h-1022v-1060zM1065 399l-207 209l-209 -209l-151 152l209 209l-209 207l151 153l209 -209l207 207l152 -151l-207 -207l207 -209z" />
    <glyph glyph-name="j.subs" 
d="M104 0v1536h1522v-1536h-1522zM354 238h1022v1060h-1022v-1060zM1065 399l-207 209l-209 -209l-151 152l209 209l-209 207l151 153l209 -209l207 207l152 -151l-207 -207l207 -209z" />
    <glyph glyph-name="k.subs" 
d="M104 0v1536h1522v-1536h-1522zM354 238h1022v1060h-1022v-1060zM1065 399l-207 209l-209 -209l-151 152l209 209l-209 207l151 153l209 -209l207 207l152 -151l-207 -207l207 -209z" />
    <glyph glyph-name="l.subs" 
d="M104 0v1536h1522v-1536h-1522zM354 238h1022v1060h-1022v-1060zM1065 399l-207 209l-209 -209l-151 152l209 209l-209 207l151 153l209 -209l207 207l152 -151l-207 -207l207 -209z" />
    <glyph glyph-name="m.subs" 
d="M104 0v1536h1522v-1536h-1522zM354 238h1022v1060h-1022v-1060zM1065 399l-207 209l-209 -209l-151 152l209 209l-209 207l151 153l209 -209l207 207l152 -151l-207 -207l207 -209z" />
    <glyph glyph-name="n.subs" 
d="M104 0v1536h1522v-1536h-1522zM354 238h1022v1060h-1022v-1060zM1065 399l-207 209l-209 -209l-151 152l209 209l-209 207l151 153l209 -209l207 207l152 -151l-207 -207l207 -209z" />
    <glyph glyph-name="o.subs" 
d="M104 0v1536h1522v-1536h-1522zM354 238h1022v1060h-1022v-1060zM1065 399l-207 209l-209 -209l-151 152l209 209l-209 207l151 153l209 -209l207 207l152 -151l-207 -207l207 -209z" />
    <glyph glyph-name="p.subs" 
d="M104 0v1536h1522v-1536h-1522zM354 238h1022v1060h-1022v-1060zM1065 399l-207 209l-209 -209l-151 152l209 209l-209 207l151 153l209 -209l207 207l152 -151l-207 -207l207 -209z" />
    <glyph glyph-name="q.subs" 
d="M104 0v1536h1522v-1536h-1522zM354 238h1022v1060h-1022v-1060zM1065 399l-207 209l-209 -209l-151 152l209 209l-209 207l151 153l209 -209l207 207l152 -151l-207 -207l207 -209z" />
    <glyph glyph-name="r.subs" 
d="M104 0v1536h1522v-1536h-1522zM354 238h1022v1060h-1022v-1060zM1065 399l-207 209l-209 -209l-151 152l209 209l-209 207l151 153l209 -209l207 207l152 -151l-207 -207l207 -209z" />
    <glyph glyph-name="s.subs" 
d="M104 0v1536h1522v-1536h-1522zM354 238h1022v1060h-1022v-1060zM1065 399l-207 209l-209 -209l-151 152l209 209l-209 207l151 153l209 -209l207 207l152 -151l-207 -207l207 -209z" />
    <glyph glyph-name="t.subs" 
d="M104 0v1536h1522v-1536h-1522zM354 238h1022v1060h-1022v-1060zM1065 399l-207 209l-209 -209l-151 152l209 209l-209 207l151 153l209 -209l207 207l152 -151l-207 -207l207 -209z" />
    <glyph glyph-name="u.subs" 
d="M104 0v1536h1522v-1536h-1522zM354 238h1022v1060h-1022v-1060zM1065 399l-207 209l-209 -209l-151 152l209 209l-209 207l151 153l209 -209l207 207l152 -151l-207 -207l207 -209z" />
    <glyph glyph-name="v.subs" 
d="M104 0v1536h1522v-1536h-1522zM354 238h1022v1060h-1022v-1060zM1065 399l-207 209l-209 -209l-151 152l209 209l-209 207l151 153l209 -209l207 207l152 -151l-207 -207l207 -209z" />
    <glyph glyph-name="w.subs" 
d="M104 0v1536h1522v-1536h-1522zM354 238h1022v1060h-1022v-1060zM1065 399l-207 209l-209 -209l-151 152l209 209l-209 207l151 153l209 -209l207 207l152 -151l-207 -207l207 -209z" />
    <glyph glyph-name="x.subs" 
d="M104 0v1536h1522v-1536h-1522zM354 238h1022v1060h-1022v-1060zM1065 399l-207 209l-209 -209l-151 152l209 209l-209 207l151 153l209 -209l207 207l152 -151l-207 -207l207 -209z" />
    <glyph glyph-name="y.subs" 
d="M104 0v1536h1522v-1536h-1522zM354 238h1022v1060h-1022v-1060zM1065 399l-207 209l-209 -209l-151 152l209 209l-209 207l151 153l209 -209l207 207l152 -151l-207 -207l207 -209z" />
    <glyph glyph-name="z.subs" 
d="M104 0v1536h1522v-1536h-1522zM354 238h1022v1060h-1022v-1060zM1065 399l-207 209l-209 -209l-151 152l209 209l-209 207l151 153l209 -209l207 207l152 -151l-207 -207l207 -209z" />
    <glyph glyph-name="IJacute" 
d="M104 0v1536h1522v-1536h-1522zM354 238h1022v1060h-1022v-1060zM1065 399l-207 209l-209 -209l-151 152l209 209l-209 207l151 153l209 -209l207 207l152 -151l-207 -207l207 -209z" />
    <glyph glyph-name="ijacute" 
d="M104 0v1536h1522v-1536h-1522zM354 238h1022v1060h-1022v-1060zM1065 399l-207 209l-209 -209l-151 152l209 209l-209 207l151 153l209 -209l207 207l152 -151l-207 -207l207 -209z" />
    <glyph glyph-name="f_f" 
d="M104 0v1536h1522v-1536h-1522zM354 238h1022v1060h-1022v-1060zM1065 399l-207 209l-209 -209l-151 152l209 209l-209 207l151 153l209 -209l207 207l152 -151l-207 -207l207 -209z" />
    <glyph glyph-name="f_f_i" 
d="M104 0v1536h1522v-1536h-1522zM354 238h1022v1060h-1022v-1060zM1065 399l-207 209l-209 -209l-151 152l209 209l-209 207l151 153l209 -209l207 207l152 -151l-207 -207l207 -209z" />
    <glyph glyph-name="f_f_l" 
d="M104 0v1536h1522v-1536h-1522zM354 238h1022v1060h-1022v-1060zM1065 399l-207 209l-209 -209l-151 152l209 209l-209 207l151 153l209 -209l207 207l152 -151l-207 -207l207 -209z" />
    <glyph glyph-name="f_b" 
d="M104 0v1536h1522v-1536h-1522zM354 238h1022v1060h-1022v-1060zM1065 399l-207 209l-209 -209l-151 152l209 209l-209 207l151 153l209 -209l207 207l152 -151l-207 -207l207 -209z" />
    <glyph glyph-name="f_f_b" 
d="M104 0v1536h1522v-1536h-1522zM354 238h1022v1060h-1022v-1060zM1065 399l-207 209l-209 -209l-151 152l209 209l-209 207l151 153l209 -209l207 207l152 -151l-207 -207l207 -209z" />
    <glyph glyph-name="f_h" 
d="M104 0v1536h1522v-1536h-1522zM354 238h1022v1060h-1022v-1060zM1065 399l-207 209l-209 -209l-151 152l209 209l-209 207l151 153l209 -209l207 207l152 -151l-207 -207l207 -209z" />
    <glyph glyph-name="f_f_h" 
d="M104 0v1536h1522v-1536h-1522zM354 238h1022v1060h-1022v-1060zM1065 399l-207 209l-209 -209l-151 152l209 209l-209 207l151 153l209 -209l207 207l152 -151l-207 -207l207 -209z" />
    <glyph glyph-name="f_k" 
d="M104 0v1536h1522v-1536h-1522zM354 238h1022v1060h-1022v-1060zM1065 399l-207 209l-209 -209l-151 152l209 209l-209 207l151 153l209 -209l207 207l152 -151l-207 -207l207 -209z" />
    <glyph glyph-name="f_f_k" 
d="M104 0v1536h1522v-1536h-1522zM354 238h1022v1060h-1022v-1060zM1065 399l-207 209l-209 -209l-151 152l209 209l-209 207l151 153l209 -209l207 207l152 -151l-207 -207l207 -209z" />
    <glyph glyph-name="f_j" 
d="M104 0v1536h1522v-1536h-1522zM354 238h1022v1060h-1022v-1060zM1065 399l-207 209l-209 -209l-151 152l209 209l-209 207l151 153l209 -209l207 207l152 -151l-207 -207l207 -209z" />
    <glyph glyph-name="f_f_j" 
d="M104 0v1536h1522v-1536h-1522zM354 238h1022v1060h-1022v-1060zM1065 399l-207 209l-209 -209l-151 152l209 209l-209 207l151 153l209 -209l207 207l152 -151l-207 -207l207 -209z" />
    <glyph glyph-name="f_idieresis" 
d="M104 0v1536h1522v-1536h-1522zM354 238h1022v1060h-1022v-1060zM1065 399l-207 209l-209 -209l-151 152l209 209l-209 207l151 153l209 -209l207 207l152 -151l-207 -207l207 -209z" />
    <glyph glyph-name="revcommaaccentcomb" 
d="M104 0v1536h1522v-1536h-1522zM354 238h1022v1060h-1022v-1060zM1065 399l-207 209l-209 -209l-151 152l209 209l-209 207l151 153l209 -209l207 207l152 -151l-207 -207l207 -209z" />
    <glyph glyph-name="gravecomb.case" 
d="M104 0v1536h1522v-1536h-1522zM354 238h1022v1060h-1022v-1060zM1065 399l-207 209l-209 -209l-151 152l209 209l-209 207l151 153l209 -209l207 207l152 -151l-207 -207l207 -209z" />
    <glyph glyph-name="acutecomb.case" 
d="M104 0v1536h1522v-1536h-1522zM354 238h1022v1060h-1022v-1060zM1065 399l-207 209l-209 -209l-151 152l209 209l-209 207l151 153l209 -209l207 207l152 -151l-207 -207l207 -209z" />
    <glyph glyph-name="dieresiscomb.case" 
d="M104 0v1536h1522v-1536h-1522zM354 238h1022v1060h-1022v-1060zM1065 399l-207 209l-209 -209l-151 152l209 209l-209 207l151 153l209 -209l207 207l152 -151l-207 -207l207 -209z" />
    <glyph glyph-name="circumflexcomb.case" 
d="M104 0v1536h1522v-1536h-1522zM354 238h1022v1060h-1022v-1060zM1065 399l-207 209l-209 -209l-151 152l209 209l-209 207l151 153l209 -209l207 207l152 -151l-207 -207l207 -209z" />
    <glyph glyph-name="tildecomb.case" 
d="M104 0v1536h1522v-1536h-1522zM354 238h1022v1060h-1022v-1060zM1065 399l-207 209l-209 -209l-151 152l209 209l-209 207l151 153l209 -209l207 207l152 -151l-207 -207l207 -209z" />
    <glyph glyph-name="macroncomb.case" 
d="M104 0v1536h1522v-1536h-1522zM354 238h1022v1060h-1022v-1060zM1065 399l-207 209l-209 -209l-151 152l209 209l-209 207l151 153l209 -209l207 207l152 -151l-207 -207l207 -209z" />
    <glyph glyph-name="brevecomb.case" 
d="M104 0v1536h1522v-1536h-1522zM354 238h1022v1060h-1022v-1060zM1065 399l-207 209l-209 -209l-151 152l209 209l-209 207l151 153l209 -209l207 207l152 -151l-207 -207l207 -209z" />
    <glyph glyph-name="dotaccentcomb.case" 
d="M104 0v1536h1522v-1536h-1522zM354 238h1022v1060h-1022v-1060zM1065 399l-207 209l-209 -209l-151 152l209 209l-209 207l151 153l209 -209l207 207l152 -151l-207 -207l207 -209z" />
    <glyph glyph-name="revcommaaccentcomb.case" 
d="M104 0v1536h1522v-1536h-1522zM354 238h1022v1060h-1022v-1060zM1065 399l-207 209l-209 -209l-151 152l209 209l-209 207l151 153l209 -209l207 207l152 -151l-207 -207l207 -209z" />
    <glyph glyph-name="ringcomb.case" 
d="M104 0v1536h1522v-1536h-1522zM354 238h1022v1060h-1022v-1060zM1065 399l-207 209l-209 -209l-151 152l209 209l-209 207l151 153l209 -209l207 207l152 -151l-207 -207l207 -209z" />
    <glyph glyph-name="hungarumlautcomb.case" 
d="M104 0v1536h1522v-1536h-1522zM354 238h1022v1060h-1022v-1060zM1065 399l-207 209l-209 -209l-151 152l209 209l-209 207l151 153l209 -209l207 207l152 -151l-207 -207l207 -209z" />
    <glyph glyph-name="caroncomb.case" 
d="M104 0v1536h1522v-1536h-1522zM354 238h1022v1060h-1022v-1060zM1065 399l-207 209l-209 -209l-151 152l209 209l-209 207l151 153l209 -209l207 207l152 -151l-207 -207l207 -209z" />
    <glyph glyph-name="exclamdown.case" 
d="M104 0v1536h1522v-1536h-1522zM354 238h1022v1060h-1022v-1060zM1065 399l-207 209l-209 -209l-151 152l209 209l-209 207l151 153l209 -209l207 207l152 -151l-207 -207l207 -209z" />
    <glyph glyph-name="questiondown.case" 
d="M104 0v1536h1522v-1536h-1522zM354 238h1022v1060h-1022v-1060zM1065 399l-207 209l-209 -209l-151 152l209 209l-209 207l151 153l209 -209l207 207l152 -151l-207 -207l207 -209z" />
    <glyph glyph-name="braceleft.case" 
d="M104 0v1536h1522v-1536h-1522zM354 238h1022v1060h-1022v-1060zM1065 399l-207 209l-209 -209l-151 152l209 209l-209 207l151 153l209 -209l207 207l152 -151l-207 -207l207 -209z" />
    <glyph glyph-name="braceright.case" 
d="M104 0v1536h1522v-1536h-1522zM354 238h1022v1060h-1022v-1060zM1065 399l-207 209l-209 -209l-151 152l209 209l-209 207l151 153l209 -209l207 207l152 -151l-207 -207l207 -209z" />
    <glyph glyph-name="bracketleft.case" 
d="M104 0v1536h1522v-1536h-1522zM354 238h1022v1060h-1022v-1060zM1065 399l-207 209l-209 -209l-151 152l209 209l-209 207l151 153l209 -209l207 207l152 -151l-207 -207l207 -209z" />
    <glyph glyph-name="bracketright.case" 
d="M104 0v1536h1522v-1536h-1522zM354 238h1022v1060h-1022v-1060zM1065 399l-207 209l-209 -209l-151 152l209 209l-209 207l151 153l209 -209l207 207l152 -151l-207 -207l207 -209z" />
    <glyph glyph-name="hyphen.case" 
d="M104 0v1536h1522v-1536h-1522zM354 238h1022v1060h-1022v-1060zM1065 399l-207 209l-209 -209l-151 152l209 209l-209 207l151 153l209 -209l207 207l152 -151l-207 -207l207 -209z" />
    <glyph glyph-name="endash.case" 
d="M104 0v1536h1522v-1536h-1522zM354 238h1022v1060h-1022v-1060zM1065 399l-207 209l-209 -209l-151 152l209 209l-209 207l151 153l209 -209l207 207l152 -151l-207 -207l207 -209z" />
    <glyph glyph-name="emdash.case" 
d="M104 0v1536h1522v-1536h-1522zM354 238h1022v1060h-1022v-1060zM1065 399l-207 209l-209 -209l-151 152l209 209l-209 207l151 153l209 -209l207 207l152 -151l-207 -207l207 -209z" />
    <glyph glyph-name="guillemotleft.case" 
d="M104 0v1536h1522v-1536h-1522zM354 238h1022v1060h-1022v-1060zM1065 399l-207 209l-209 -209l-151 152l209 209l-209 207l151 153l209 -209l207 207l152 -151l-207 -207l207 -209z" />
    <glyph glyph-name="guillemotright.case" 
d="M104 0v1536h1522v-1536h-1522zM354 238h1022v1060h-1022v-1060zM1065 399l-207 209l-209 -209l-151 152l209 209l-209 207l151 153l209 -209l207 207l152 -151l-207 -207l207 -209z" />
    <glyph glyph-name="guilsinglleft.case" 
d="M104 0v1536h1522v-1536h-1522zM354 238h1022v1060h-1022v-1060zM1065 399l-207 209l-209 -209l-151 152l209 209l-209 207l151 153l209 -209l207 207l152 -151l-207 -207l207 -209z" />
    <glyph glyph-name="guilsinglright.case" 
d="M104 0v1536h1522v-1536h-1522zM354 238h1022v1060h-1022v-1060zM1065 399l-207 209l-209 -209l-151 152l209 209l-209 207l151 153l209 -209l207 207l152 -151l-207 -207l207 -209z" />
    <glyph glyph-name="arrowleft.case" 
d="M104 0v1536h1522v-1536h-1522zM354 238h1022v1060h-1022v-1060zM1065 399l-207 209l-209 -209l-151 152l209 209l-209 207l151 153l209 -209l207 207l152 -151l-207 -207l207 -209z" />
    <glyph glyph-name="arrowright.case" 
d="M104 0v1536h1522v-1536h-1522zM354 238h1022v1060h-1022v-1060zM1065 399l-207 209l-209 -209l-151 152l209 209l-209 207l151 153l209 -209l207 207l152 -151l-207 -207l207 -209z" />
    <glyph glyph-name="arrowup.case" 
d="M104 0v1536h1522v-1536h-1522zM354 238h1022v1060h-1022v-1060zM1065 399l-207 209l-209 -209l-151 152l209 209l-209 207l151 153l209 -209l207 207l152 -151l-207 -207l207 -209z" />
    <glyph glyph-name="arrowdown.case" 
d="M104 0v1536h1522v-1536h-1522zM354 238h1022v1060h-1022v-1060zM1065 399l-207 209l-209 -209l-151 152l209 209l-209 207l151 153l209 -209l207 207l152 -151l-207 -207l207 -209z" />
    <glyph glyph-name="arrowboth.case" 
d="M104 0v1536h1522v-1536h-1522zM354 238h1022v1060h-1022v-1060zM1065 399l-207 209l-209 -209l-151 152l209 209l-209 207l151 153l209 -209l207 207l152 -151l-207 -207l207 -209z" />
    <glyph glyph-name="arrowupdn.case" 
d="M104 0v1536h1522v-1536h-1522zM354 238h1022v1060h-1022v-1060zM1065 399l-207 209l-209 -209l-151 152l209 209l-209 207l151 153l209 -209l207 207l152 -151l-207 -207l207 -209z" />
    <glyph glyph-name="uni2196.case" 
d="M104 0v1536h1522v-1536h-1522zM354 238h1022v1060h-1022v-1060zM1065 399l-207 209l-209 -209l-151 152l209 209l-209 207l151 153l209 -209l207 207l152 -151l-207 -207l207 -209z" />
    <glyph glyph-name="uni2197.case" 
d="M104 0v1536h1522v-1536h-1522zM354 238h1022v1060h-1022v-1060zM1065 399l-207 209l-209 -209l-151 152l209 209l-209 207l151 153l209 -209l207 207l152 -151l-207 -207l207 -209z" />
    <glyph glyph-name="uni2198.case" 
d="M104 0v1536h1522v-1536h-1522zM354 238h1022v1060h-1022v-1060zM1065 399l-207 209l-209 -209l-151 152l209 209l-209 207l151 153l209 -209l207 207l152 -151l-207 -207l207 -209z" />
    <glyph glyph-name="uni2199.case" 
d="M104 0v1536h1522v-1536h-1522zM354 238h1022v1060h-1022v-1060zM1065 399l-207 209l-209 -209l-151 152l209 209l-209 207l151 153l209 -209l207 207l152 -151l-207 -207l207 -209z" />
    <glyph glyph-name="at.case" 
d="M104 0v1536h1522v-1536h-1522zM354 238h1022v1060h-1022v-1060zM1065 399l-207 209l-209 -209l-151 152l209 209l-209 207l151 153l209 -209l207 207l152 -151l-207 -207l207 -209z" />
    <glyph glyph-name="colon.case" 
d="M104 0v1536h1522v-1536h-1522zM354 238h1022v1060h-1022v-1060zM1065 399l-207 209l-209 -209l-151 152l209 209l-209 207l151 153l209 -209l207 207l152 -151l-207 -207l207 -209z" />
    <glyph glyph-name="periodcentered.case" 
d="M104 0v1536h1522v-1536h-1522zM354 238h1022v1060h-1022v-1060zM1065 399l-207 209l-209 -209l-151 152l209 209l-209 207l151 153l209 -209l207 207l152 -151l-207 -207l207 -209z" />
    <glyph glyph-name="mediumblackcircle" 
d="M104 0v1536h1522v-1536h-1522zM354 238h1022v1060h-1022v-1060zM1065 399l-207 209l-209 -209l-151 152l209 209l-209 207l151 153l209 -209l207 207l152 -151l-207 -207l207 -209z" />
    <glyph glyph-name="squaremultiply" 
d="M104 0v1536h1522v-1536h-1522zM354 238h1022v1060h-1022v-1060zM1065 399l-207 209l-209 -209l-151 152l209 209l-209 207l151 153l209 -209l207 207l152 -151l-207 -207l207 -209z" />
    <glyph glyph-name="ballotboxwithx" 
d="M104 0v1536h1522v-1536h-1522zM354 238h1022v1060h-1022v-1060zM1065 399l-207 209l-209 -209l-151 152l209 209l-209 207l151 153l209 -209l207 207l152 -151l-207 -207l207 -209z" />
    <glyph glyph-name="oneCircled" 
d="M104 0v1536h1522v-1536h-1522zM354 238h1022v1060h-1022v-1060zM1065 399l-207 209l-209 -209l-151 152l209 209l-209 207l151 153l209 -209l207 207l152 -151l-207 -207l207 -209z" />
    <glyph glyph-name="twoCircled" 
d="M104 0v1536h1522v-1536h-1522zM354 238h1022v1060h-1022v-1060zM1065 399l-207 209l-209 -209l-151 152l209 209l-209 207l151 153l209 -209l207 207l152 -151l-207 -207l207 -209z" />
    <glyph glyph-name="threeCircled" 
d="M104 0v1536h1522v-1536h-1522zM354 238h1022v1060h-1022v-1060zM1065 399l-207 209l-209 -209l-151 152l209 209l-209 207l151 153l209 -209l207 207l152 -151l-207 -207l207 -209z" />
    <glyph glyph-name="fourCircled" 
d="M104 0v1536h1522v-1536h-1522zM354 238h1022v1060h-1022v-1060zM1065 399l-207 209l-209 -209l-151 152l209 209l-209 207l151 153l209 -209l207 207l152 -151l-207 -207l207 -209z" />
    <glyph glyph-name="fiveCircled" 
d="M104 0v1536h1522v-1536h-1522zM354 238h1022v1060h-1022v-1060zM1065 399l-207 209l-209 -209l-151 152l209 209l-209 207l151 153l209 -209l207 207l152 -151l-207 -207l207 -209z" />
    <glyph glyph-name="sixCircled" 
d="M104 0v1536h1522v-1536h-1522zM354 238h1022v1060h-1022v-1060zM1065 399l-207 209l-209 -209l-151 152l209 209l-209 207l151 153l209 -209l207 207l152 -151l-207 -207l207 -209z" />
    <glyph glyph-name="sevenCircled" 
d="M104 0v1536h1522v-1536h-1522zM354 238h1022v1060h-1022v-1060zM1065 399l-207 209l-209 -209l-151 152l209 209l-209 207l151 153l209 -209l207 207l152 -151l-207 -207l207 -209z" />
    <glyph glyph-name="eightCircled" 
d="M104 0v1536h1522v-1536h-1522zM354 238h1022v1060h-1022v-1060zM1065 399l-207 209l-209 -209l-151 152l209 209l-209 207l151 153l209 -209l207 207l152 -151l-207 -207l207 -209z" />
    <glyph glyph-name="nineCircled" 
d="M104 0v1536h1522v-1536h-1522zM354 238h1022v1060h-1022v-1060zM1065 399l-207 209l-209 -209l-151 152l209 209l-209 207l151 153l209 -209l207 207l152 -151l-207 -207l207 -209z" />
    <glyph glyph-name="zeroCircled" 
d="M104 0v1536h1522v-1536h-1522zM354 238h1022v1060h-1022v-1060zM1065 399l-207 209l-209 -209l-151 152l209 209l-209 207l151 153l209 -209l207 207l152 -151l-207 -207l207 -209z" />
    <glyph glyph-name="idotaccent" 
d="M104 0v1536h1522v-1536h-1522zM354 238h1022v1060h-1022v-1060zM1065 399l-207 209l-209 -209l-151 152l209 209l-209 207l151 153l209 -209l207 207l152 -151l-207 -207l207 -209z" />
    </font>
</defs>
</svg>
