<?xml version="1.0" encoding="UTF-8" standalone="no"?>
<!-- Generator: Adobe Illustrator 27.3.1, SVG Export Plug-In . SVG Version: 6.00 Build 0)  -->

<svg
   version="1.1"
   id="Calque_1"
   x="0px"
   y="0px"
   viewBox="0 0 794.17999 762.75"
   xml:space="preserve"
   sodipodi:docname="logo-carre-simple.svg"
   width="794.17999"
   height="762.75"
   inkscape:version="1.2.2 (732a01da63, 2022-12-09, custom)"
   xmlns:inkscape="http://www.inkscape.org/namespaces/inkscape"
   xmlns:sodipodi="http://sodipodi.sourceforge.net/DTD/sodipodi-0.dtd"
   xmlns="http://www.w3.org/2000/svg"
   xmlns:svg="http://www.w3.org/2000/svg"><defs
   id="defs92" /><sodipodi:namedview
   id="namedview90"
   pagecolor="#505050"
   bordercolor="#eeeeee"
   borderopacity="1"
   inkscape:showpageshadow="0"
   inkscape:pageopacity="0"
   inkscape:pagecheckerboard="0"
   inkscape:deskcolor="#505050"
   showgrid="false"
   inkscape:zoom="0.76759259"
   inkscape:cx="396.04343"
   inkscape:cy="382.36429"
   inkscape:window-width="1920"
   inkscape:window-height="996"
   inkscape:window-x="0"
   inkscape:window-y="0"
   inkscape:window-maximized="1"
   inkscape:current-layer="Calque_1" />
<style
   type="text/css"
   id="style58">
	.st0{fill:#F05922;}
	.st1{fill:url(#SVGID_1_);}
	.st2{fill:url(#SVGID_00000044179196059506384960000014544677330382442648_);}
	.st3{fill:url(#SVGID_00000006689012608476479390000009199364090644450482_);}
</style>
<path
   class="st0"
   d="M 110.05,305.1 H 48.3 l 377.75,395.91 c 45.06,45.79 47.22,54.48 98.07,54.48 H 589.5 L 219.72,369.1 c -45.06,-45.79 -51.55,-64 -109.67,-64 z"
   id="path60" />
<linearGradient
   id="SVGID_1_"
   gradientUnits="userSpaceOnUse"
   x1="159.1622"
   y1="402.18869"
   x2="953.34479"
   y2="402.18869"
   gradientTransform="translate(-142.82,-159.1)">
	<stop
   offset="0.0104"
   style="stop-color:#430287"
   id="stop62" />
	<stop
   offset="0.2711"
   style="stop-color:#6803B3"
   id="stop64" />
	<stop
   offset="0.5112"
   style="stop-color:#8505D5"
   id="stop66" />
	<stop
   offset="0.6411"
   style="stop-color:#9005E2"
   id="stop68" />
</linearGradient>
<path
   class="st1"
   d="m 538.65,483.08 c 76.28,0 -15.46,5.5 57.56,1.87 61.68,-3.07 101.02,-31.52 124.14,-54.64 23.12,-23.12 41.28,-50.06 53.98,-80.09 13.17,-31.14 19.85,-64.16 19.85,-98.15 0,-33.99 -6.68,-67.01 -19.85,-98.15 C 761.63,123.89 743.47,96.94 720.35,73.83 697.23,50.71 670.29,32.55 640.26,19.85 609.12,6.68 576.1,0 542.11,0 H 0 v 0 c 0,110.09 89.25,199.34 199.34,199.34 h 341.24 c 28.36,0 52.79,21.75 54.19,50.07 1.49,30.27 -22.71,55.38 -52.66,55.38 l -323.09,-3.32 124.71,133.69 c 0,0 38.74,47.92 107.75,47.92 47.22,0 87.17,0 87.17,0 z"
   id="path71"
   style="fill:url(#SVGID_1_)" />
<linearGradient
   id="SVGID_00000045615114056881037820000008955975514260447152_"
   gradientUnits="userSpaceOnUse"
   x1="452.591"
   y1="694.72009"
   x2="643.56781"
   y2="491.495"
   gradientTransform="translate(-142.82,-159.1)">
	<stop
   offset="0.2661"
   style="stop-color:#1B0035"
   id="stop73" />
	<stop
   offset="0.8897"
   style="stop-color:#9005E2"
   id="stop75" />
</linearGradient>
<path
   style="fill:url(#SVGID_00000045615114056881037820000008955975514260447152_)"
   d="m 252.64,304.79 h 200.58 l 183.97,174.04 c 0,0 -34.26,6.33 -47.44,6.38 -13.18,0.06 -167.15,1.09 -167.15,1.09 z"
   id="path78" />
<path
   class="st0"
   d="m 276.59,301.47 -62.48,-0.31 378.48,396.22 c 45.06,45.79 47.22,54.48 98.07,54.48 h 65.38 L 386.26,365.47 c -45.06,-45.79 -51.55,-64 -109.67,-64 z"
   id="path80" />
<linearGradient
   id="SVGID_00000049925513785641915250000002660850469518572183_"
   gradientUnits="userSpaceOnUse"
   x1="189.85609"
   y1="758.22888"
   x2="369.1048"
   y2="758.22888"
   gradientTransform="translate(-142.82,-159.1)">
	<stop
   offset="0.0104"
   style="stop-color:#430287"
   id="stop82" />
	<stop
   offset="1"
   style="stop-color:#A600F5"
   id="stop84" />
</linearGradient>
<path
   style="fill:url(#SVGID_00000049925513785641915250000002660850469518572183_)"
   d="m 47.58,435.5 c 0.18,78.71 -0.54,142.87 -0.54,221.58 0,58.12 44.86,105.67 101.7,105.33 56.84,-0.34 18.22,0.34 77.55,0.34 0,0 0,-14.53 0,-79.91 0,-58.12 -21.79,-79.91 -58.12,-123.49 C 131.84,515.77 47.58,435.5 47.58,435.5 Z"
   id="path87" />
</svg>
