<?xml version="1.0" encoding="UTF-8" standalone="no"?>
<!-- Generator: Adobe Illustrator 27.3.1, SVG Export Plug-In . SVG Version: 6.00 Build 0)  -->

<svg
   version="1.1"
   id="Calque_1"
   x="0px"
   y="0px"
   viewBox="0 0 821.65002 197.47"
   xml:space="preserve"
   sodipodi:docname="logo-monochrome-rectangle.svg"
   width="821.65002"
   height="197.47"
   inkscape:version="1.2.2 (732a01da63, 2022-12-09, custom)"
   xmlns:inkscape="http://www.inkscape.org/namespaces/inkscape"
   xmlns:sodipodi="http://sodipodi.sourceforge.net/DTD/sodipodi-0.dtd"
   xmlns="http://www.w3.org/2000/svg"
   xmlns:svg="http://www.w3.org/2000/svg"><defs
   id="defs503" /><sodipodi:namedview
   id="namedview501"
   pagecolor="#505050"
   bordercolor="#eeeeee"
   borderopacity="1"
   inkscape:showpageshadow="0"
   inkscape:pageopacity="0"
   inkscape:pagecheckerboard="0"
   inkscape:deskcolor="#505050"
   showgrid="false"
   inkscape:zoom="1.4138889"
   inkscape:cx="412.33792"
   inkscape:cy="91.591356"
   inkscape:window-width="1920"
   inkscape:window-height="996"
   inkscape:window-x="0"
   inkscape:window-y="0"
   inkscape:window-maximized="1"
   inkscape:current-layer="Calque_1" />
<style
   type="text/css"
   id="style458">
	.st0{fill:none;stroke:#000000;stroke-width:4;stroke-miterlimit:10;}
</style>
<g
   id="g490"
   transform="translate(-127.35,-158.1)">
	<g
   id="g470">
		<path
   d="m 468.61,241.57 -29.34,-27.13 h -47.14 v 27.13 h -13.26 v -37.81 h 58.8 c 15.34,0 29.21,-4.42 29.21,-16.2 0,-13.01 -12.15,-16.82 -29.21,-16.82 h -59.04 l 8.72,-11.29 h 55.24 c 19.15,0 37.93,7.37 37.93,27.37 0,14.73 -10.8,23.69 -27.5,25.16 l 33.63,29.58 h -18.04 z"
   id="path460" />
		<path
   d="m 569.62,242.92 c -36.7,0 -55.11,-13.13 -55.11,-42.47 0,-29.34 18.41,-42.35 55.11,-42.35 36.7,0 55.11,13.01 55.11,42.35 0,29.34 -18.4,42.47 -55.11,42.47 z m 0,-73.65 c -29.09,0 -41.86,8.1 -41.86,31.18 0,23.08 12.77,31.3 41.86,31.3 29.09,0 41.86,-8.22 41.86,-31.3 0,-23.08 -12.76,-31.18 -41.86,-31.18 z"
   id="path462" />
		<path
   d="m 661.55,241.57 v -46.15 h 68.99 c 8.22,0 13.38,-4.79 13.38,-11.91 0,-8.47 -5.77,-12.77 -14.98,-12.77 H 661.92 L 671,159.45 h 57.45 c 17.43,0 28.11,7.73 28.11,22.22 0,9.94 -6.87,16.08 -12.77,17.68 7.12,1.84 14.36,8.35 14.36,19.52 0,12.64 -7.61,22.71 -29.83,22.71 h -66.77 z m 13.26,-36.34 v 25.16 h 53.64 c 11.54,0 16.45,-5.65 16.45,-12.4 0,-7.61 -4.66,-12.77 -14.12,-12.77 h -55.97 z"
   id="path464" />
		<path
   d="m 795.22,241.57 v -82.12 h 13.26 v 82.12 z"
   id="path466" />
		<path
   d="m 859.91,176.75 v 64.81 h -12.03 v -74.88 c 0,-5.89 3.44,-8.35 7.37,-8.35 1.72,0 3.68,0.49 5.77,2.58 L 926.94,224 v -64.57 h 12.15 v 74.51 c 0,5.89 -3.56,8.35 -7.49,8.35 -1.72,0 -3.56,-0.37 -5.65,-2.45 z"
   id="path468" />
	</g>
	<g
   id="g486">
		<path
   d="m 395.67,333.79 v 16.65 h -20.89 v -36.42 h 54.59 c 4.36,0 6.27,-3.12 6.27,-6.66 0,-3.33 -2.09,-6.24 -6.27,-6.24 h -54.5 l 13.9,-20.29 h 37.51 c 19.35,0 30.43,11.03 30.43,26.64 0,15.71 -11.08,26.33 -30.52,26.33 h -30.52 z"
   id="path472" />
		<path
   d="m 478.87,350.44 12.72,-19.98 h 13.63 c 2.91,0 6.36,0 8.27,0.21 -0.91,-1.14 -2.91,-4.37 -4.18,-6.56 l -10.17,-16.96 -27.16,43.29 h -24.89 l 38.88,-62.03 c 2.91,-4.68 6.99,-8.85 13.53,-8.85 6.36,0 10.45,3.85 13.44,8.85 l 37.79,62.03 z"
   id="path474" />
		<path
   d="m 617.11,350.44 -11.54,-17.28 h -27.43 v 17.28 h -20.98 v -36.42 h 54.95 c 5,0 7.72,-1.98 7.72,-6.56 0,-4.48 -2.73,-6.35 -7.72,-6.35 h -54.86 l 13.72,-20.29 h 38.52 c 13.72,0 32.16,4.68 32.16,25.29 0,10.41 -5.36,19.57 -14.81,22.17 1.63,1.25 5.72,5.41 13.99,16.44 l 4.36,5.72 z"
   id="path476" />
		<path
   d="m 652.35,350.44 v -69.62 h 20.98 v 69.62 z"
   id="path478" />
		<path
   d="m 681.59,350.44 13.53,-19.98 H 741 c 2.72,0 4.27,-1.14 4.27,-3.64 0,-2.5 -1.54,-3.64 -4.45,-3.64 h -34.34 c -15.71,0 -22.89,-8.43 -22.89,-20.19 0,-14.05 7.63,-22.17 26.61,-22.17 h 53.59 l -13.54,20.29 h -42.06 c -2.82,0 -4.27,0.83 -4.27,3.33 0,2.5 1.45,3.43 4.27,3.43 h 34.52 c 14.71,0 22.8,6.56 22.8,19.25 0,14.36 -6,23.31 -24.8,23.31 h -59.12 z"
   id="path480" />
		<path
   d="m 817.48,351.58 c -30.16,0 -45.33,-11.14 -45.33,-36.01 0,-24.87 15.17,-35.9 45.33,-35.9 30.16,0 45.42,11.03 45.42,35.9 -0.01,24.88 -15.27,36.01 -45.42,36.01 z m 0,-51.62 c -18.17,0 -24.34,1.77 -24.34,15.61 0,13.74 6.18,15.71 24.34,15.71 18.26,0 24.43,-1.98 24.43,-15.71 0,-13.84 -6.17,-15.61 -24.43,-15.61 z"
   id="path482" />
		<path
   d="M 894.32,350.44 V 301.11 H 866.7 l 13.63,-20.29 H 949 l -13.63,20.29 h -19.98 v 49.33 z"
   id="path484" />
	</g>
	<rect
   x="661.53998"
   y="187.74001"
   width="13.41"
   height="8.9399996"
   id="rect488" />
</g>
<path
   class="st0"
   d="m 29.94,80.53 h -15.9 l 95.7,100.91 c 11.61,11.79 12.16,14.03 25.26,14.03 h 16.84 L 58.19,97.02 C 46.57,85.22 44.9,80.53 29.94,80.53 Z"
   id="path492" />
<path
   d="m 140.45,126.63 c 11.62,0 34.47,-2.69 45.07,-14.91 25.15,-24.1 25.15,-67.7 0,-91.81 C 173.48,7.79 156.72,0.83 139.62,0.9 139.62,0.9 0,0.9 0,0.9 0,29.25 22.99,52.24 51.34,52.24 h 87.88 c 7.3,0 13.6,5.6 13.96,12.89 0.38,7.8 -5.85,14.26 -13.56,14.26 l -61.51,-0.31 51.24,47.55 c 0,0 -2.24,0 3.17,0 2.65,0 7.93,0 7.93,0 z"
   id="path494" />
<path
   class="st0"
   d="m 71.77,80.66 -16.09,-0.08 96.95,99.93 c 11.61,11.79 12.16,14.03 25.26,14.03 h 16.84 L 100.02,97.14 C 88.41,85.35 86.74,80.66 71.77,80.66 Z"
   id="path496" />
<path
   d="m 12.26,113.06 c 0.05,20.27 -0.14,36.79 -0.14,57.07 0,14.97 11.55,27.22 26.19,27.13 14.64,-0.09 4.69,0.09 19.97,0.09 0,0 0,-3.74 0,-20.58 0,-14.97 -5.61,-20.58 -14.97,-31.8 -9.35,-11.24 -31.05,-31.91 -31.05,-31.91 z"
   id="path498" />
</svg>
