<?xml version="1.0" encoding="UTF-8" standalone="no"?>
<!-- Generator: Adobe Illustrator 27.3.1, SVG Export Plug-In . SVG Version: 6.00 Build 0)  -->

<svg
   version="1.1"
   id="Calque_1"
   x="0px"
   y="0px"
   viewBox="0 0 682.66998 669.16083"
   xml:space="preserve"
   sodipodi:docname="logo-monochrome-carre.svg"
   width="682.66998"
   height="669.16083"
   inkscape:version="1.2.2 (732a01da63, 2022-12-09, custom)"
   xmlns:inkscape="http://www.inkscape.org/namespaces/inkscape"
   xmlns:sodipodi="http://sodipodi.sourceforge.net/DTD/sodipodi-0.dtd"
   xmlns="http://www.w3.org/2000/svg"
   xmlns:svg="http://www.w3.org/2000/svg"><defs
   id="defs550" /><sodipodi:namedview
   id="namedview548"
   pagecolor="#505050"
   bordercolor="#eeeeee"
   borderopacity="1"
   inkscape:showpageshadow="0"
   inkscape:pageopacity="0"
   inkscape:pagecheckerboard="0"
   inkscape:deskcolor="#505050"
   showgrid="false"
   inkscape:zoom="0.76759259"
   inkscape:cx="329.60193"
   inkscape:cy="335.46441"
   inkscape:window-width="1920"
   inkscape:window-height="996"
   inkscape:window-x="0"
   inkscape:window-y="0"
   inkscape:window-maximized="1"
   inkscape:current-layer="Calque_1" />
<style
   type="text/css"
   id="style505">
	.st0{fill:none;stroke:#000000;stroke-width:8;stroke-miterlimit:10;}
</style>
<g
   id="g545"
   transform="translate(-209.38,-206.00919)">
	<g
   id="g517">
		<path
   d="m 320.93,744.38 -34.88,-32.25 h -56.04 v 32.25 h -15.76 v -44.95 h 69.9 c 18.24,0 34.73,-5.25 34.73,-19.26 0,-15.47 -14.45,-19.99 -34.73,-19.99 h -70.19 l 10.36,-13.43 H 290 c 22.77,0 45.09,8.76 45.09,32.54 0,17.51 -12.84,28.16 -32.69,29.92 l 39.99,35.17 z"
   id="path507" />
		<path
   d="m 441.02,745.98 c -43.63,0 -65.52,-15.61 -65.52,-50.49 0,-34.88 21.89,-50.35 65.52,-50.35 43.63,0 65.52,15.47 65.52,50.35 0.01,34.88 -21.88,50.49 -65.52,50.49 z m 0,-87.56 c -34.59,0 -49.76,9.63 -49.76,37.07 0,27.43 15.18,37.21 49.76,37.21 34.59,0 49.76,-9.78 49.76,-37.21 0.01,-27.44 -15.17,-37.07 -49.76,-37.07 z"
   id="path509" />
		<path
   d="m 550.32,744.38 v -54.87 h 82.01 c 9.78,0 15.91,-5.69 15.91,-14.15 0,-10.07 -6.86,-15.18 -17.8,-15.18 h -79.68 l 10.8,-13.43 h 68.3 c 20.72,0 33.42,9.19 33.42,26.41 0,11.82 -8.17,19.12 -15.18,21.01 8.46,2.19 17.07,9.92 17.07,23.2 0,15.03 -9.05,27 -35.46,27 h -79.39 z m 15.76,-43.2 v 29.92 h 63.77 c 13.72,0 19.55,-6.71 19.55,-14.74 0,-9.05 -5.54,-15.18 -16.78,-15.18 z"
   id="path511" />
		<path
   d="m 709.22,744.38 v -97.63 h 15.76 v 97.63 z"
   id="path513" />
		<path
   d="m 786.12,667.32 v 77.05 h -14.3 v -89.02 c 0,-7 4.09,-9.92 8.76,-9.92 2.04,0 4.38,0.58 6.86,3.06 l 78.36,75.01 v -76.76 h 14.45 v 88.58 c 0,7 -4.23,9.92 -8.9,9.92 -2.04,0 -4.23,-0.44 -6.71,-2.92 z"
   id="path515" />
	</g>
	<g
   id="g533">
		<path
   d="m 234.22,854.01 v 19.8 h -24.84 v -43.3 h 64.9 c 5.18,0 7.45,-3.71 7.45,-7.92 0,-3.96 -2.48,-7.42 -7.45,-7.42 h -64.79 l 16.52,-24.13 h 44.6 c 23,0 36.18,13.11 36.18,31.67 0,18.68 -13.17,31.3 -36.28,31.3 z"
   id="path519" />
		<path
   d="m 333.13,873.81 15.12,-23.75 h 16.2 c 3.46,0 7.56,0 9.83,0.25 -1.08,-1.36 -3.46,-5.2 -4.97,-7.79 l -12.1,-20.17 -32.29,51.47 h -29.59 l 46.22,-73.74 c 3.46,-5.57 8.31,-10.52 16.09,-10.52 7.56,0 12.42,4.58 15.98,10.52 l 44.92,73.74 h -85.41 z"
   id="path521" />
		<path
   d="m 497.48,873.81 -13.71,-20.54 h -32.61 v 20.54 h -24.94 v -43.3 h 65.33 c 5.94,0 9.18,-2.35 9.18,-7.79 0,-5.32 -3.24,-7.55 -9.18,-7.55 h -65.23 l 16.31,-24.13 h 45.79 c 16.31,0 38.23,5.57 38.23,30.06 0,12.37 -6.37,23.26 -17.6,26.35 1.94,1.48 6.8,6.43 16.63,19.55 l 5.18,6.8 h -33.38 z"
   id="path523" />
		<path
   d="m 539.37,873.81 v -82.77 h 24.95 v 82.77 z"
   id="path525" />
		<path
   d="m 574.14,873.81 16.09,-23.75 h 54.54 c 3.24,0 5.07,-1.36 5.07,-4.33 0,-2.97 -1.84,-4.33 -5.29,-4.33 h -40.82 c -18.68,0 -27.21,-10.02 -27.21,-24 0,-16.7 9.07,-26.35 31.64,-26.35 h 63.71 l -16.09,24.13 h -50 c -3.35,0 -5.08,0.99 -5.08,3.96 0,2.97 1.73,4.08 5.08,4.08 h 41.04 c 17.49,0 27.11,7.79 27.11,22.89 0,17.07 -7.13,27.71 -29.48,27.71 h -70.31 z"
   id="path527" />
		<path
   d="m 735.68,875.17 c -35.85,0 -53.89,-13.24 -53.89,-42.81 0,-29.57 18.03,-42.69 53.89,-42.69 35.85,0 53.99,13.11 53.99,42.69 0.01,29.57 -18.13,42.81 -53.99,42.81 z m 0,-61.37 c -21.6,0 -28.94,2.1 -28.94,18.56 0,16.33 7.34,18.68 28.94,18.68 21.71,0 29.05,-2.35 29.05,-18.68 0,-16.46 -7.34,-18.56 -29.05,-18.56 z"
   id="path529" />
		<path
   d="m 827.04,873.81 v -58.65 h -32.83 l 16.2,-24.13 h 81.64 l -16.2,24.13 h -23.76 v 58.65 z"
   id="path531" />
	</g>
	<rect
   x="550.28998"
   y="680.39001"
   width="15.94"
   height="10.62"
   id="rect535" />
	<path
   class="st0"
   d="m 415.8,356.74 h -30.1 l 181.16,191.01 c 21.97,22.32 23.02,26.56 47.81,26.56 h 31.87 L 469.26,387.94 c -21.97,-22.32 -25.13,-31.2 -53.46,-31.2 z"
   id="path537" />
	<path
   d="m 625,444 c 22,0 65.24,-5.08 85.32,-28.22 47.61,-45.62 47.61,-128.16 0,-173.78 -22.8,-22.95 -54.52,-36.11 -86.89,-35.99 0,0 -264.29,0 -264.29,0 0,53.67 43.51,97.18 97.18,97.18 h 166.36 c 13.82,0 25.74,10.6 26.42,24.41 0.73,14.76 -11.07,27 -25.67,27 L 507,354 l 97,90 c 0,0 -4.25,0 6,0 5,0 15,0 15,0 z"
   id="path539" />
	<path
   class="st0"
   d="m 494.99,356.97 -30.46,-0.15 183.51,189.16 c 21.97,22.32 23.02,26.56 47.81,26.56 h 31.87 L 548.45,388.17 c -21.97,-22.32 -25.13,-31.2 -53.46,-31.2 z"
   id="path541" />
	<path
   d="m 382.34,418.31 c 0.09,38.37 -0.26,69.65 -0.26,108.02 0,28.33 21.87,51.52 49.58,51.35 27.71,-0.17 8.88,0.17 37.8,0.17 0,0 0,-7.08 0,-38.96 0,-28.33 -10.62,-38.96 -28.33,-60.2 -17.71,-21.25 -58.79,-60.38 -58.79,-60.38 z"
   id="path543" />
</g>
</svg>
