<?xml version="1.0" encoding="UTF-8" standalone="no"?>
<!-- Generator: Adobe Illustrator 27.3.1, SVG Export Plug-In . SVG Version: 6.00 Build 0)  -->

<svg
   version="1.1"
   id="Calque_1"
   x="0px"
   y="0px"
   viewBox="0 0 816.87 193.48"
   xml:space="preserve"
   sodipodi:docname="logo-light-rectangle.svg"
   width="816.87"
   height="193.48"
   inkscape:version="1.2.2 (732a01da63, 2022-12-09, custom)"
   xmlns:inkscape="http://www.inkscape.org/namespaces/inkscape"
   xmlns:sodipodi="http://sodipodi.sourceforge.net/DTD/sodipodi-0.dtd"
   xmlns="http://www.w3.org/2000/svg"
   xmlns:svg="http://www.w3.org/2000/svg"><defs
   id="defs618" /><sodipodi:namedview
   id="namedview616"
   pagecolor="#505050"
   bordercolor="#eeeeee"
   borderopacity="1"
   inkscape:showpageshadow="0"
   inkscape:pageopacity="0"
   inkscape:pagecheckerboard="0"
   inkscape:deskcolor="#505050"
   showgrid="false"
   inkscape:zoom="1.4138889"
   inkscape:cx="407.38703"
   inkscape:cy="91.591356"
   inkscape:window-width="1920"
   inkscape:window-height="996"
   inkscape:window-x="0"
   inkscape:window-y="0"
   inkscape:window-maximized="1"
   inkscape:current-layer="Calque_1" />
<style
   type="text/css"
   id="style552">
	.st0{fill:#F05922;}
	.st1{fill:url(#SVGID_1_);}
	.st2{fill:url(#SVGID_00000091698022975282875880000016803383480813084585_);}
	.st3{fill:url(#SVGID_00000082332950114585500780000013515144055753406597_);}
</style>
<g
   id="g613"
   transform="translate(-132.13,-158.1)">
	<g
   id="g564">
		<path
   d="m 468.61,241.57 -29.34,-27.13 h -47.14 v 27.13 h -13.26 v -37.81 h 58.8 c 15.34,0 29.21,-4.42 29.21,-16.2 0,-13.01 -12.15,-16.82 -29.21,-16.82 h -59.04 l 8.72,-11.29 h 55.24 c 19.15,0 37.93,7.37 37.93,27.37 0,14.73 -10.8,23.69 -27.5,25.16 l 33.63,29.58 h -18.04 z"
   id="path554" />
		<path
   d="m 569.62,242.92 c -36.7,0 -55.11,-13.13 -55.11,-42.47 0,-29.34 18.41,-42.35 55.11,-42.35 36.7,0 55.11,13.01 55.11,42.35 0,29.34 -18.4,42.47 -55.11,42.47 z m 0,-73.65 c -29.09,0 -41.86,8.1 -41.86,31.18 0,23.08 12.77,31.3 41.86,31.3 29.09,0 41.86,-8.22 41.86,-31.3 0,-23.08 -12.76,-31.18 -41.86,-31.18 z"
   id="path556" />
		<path
   d="m 661.55,241.57 v -46.15 h 68.99 c 8.22,0 13.38,-4.79 13.38,-11.91 0,-8.47 -5.77,-12.77 -14.98,-12.77 H 661.92 L 671,159.45 h 57.45 c 17.43,0 28.11,7.73 28.11,22.22 0,9.94 -6.87,16.08 -12.77,17.68 7.12,1.84 14.36,8.35 14.36,19.52 0,12.64 -7.61,22.71 -29.83,22.71 h -66.77 z m 13.26,-36.34 v 25.16 h 53.64 c 11.54,0 16.45,-5.65 16.45,-12.4 0,-7.61 -4.66,-12.77 -14.12,-12.77 h -55.97 z"
   id="path558" />
		<path
   d="m 795.22,241.57 v -82.12 h 13.26 v 82.12 z"
   id="path560" />
		<path
   d="m 859.91,176.75 v 64.81 h -12.03 v -74.88 c 0,-5.89 3.44,-8.35 7.37,-8.35 1.72,0 3.68,0.49 5.77,2.58 L 926.94,224 v -64.57 h 12.15 v 74.51 c 0,5.89 -3.56,8.35 -7.49,8.35 -1.72,0 -3.56,-0.37 -5.65,-2.45 z"
   id="path562" />
	</g>
	<g
   id="g580">
		<path
   d="m 395.67,333.79 v 16.65 h -20.89 v -36.42 h 54.59 c 4.36,0 6.27,-3.12 6.27,-6.66 0,-3.33 -2.09,-6.24 -6.27,-6.24 h -54.5 l 13.9,-20.29 h 37.51 c 19.35,0 30.43,11.03 30.43,26.64 0,15.71 -11.08,26.33 -30.52,26.33 h -30.52 z"
   id="path566" />
		<path
   d="m 478.87,350.44 12.72,-19.98 h 13.63 c 2.91,0 6.36,0 8.27,0.21 -0.91,-1.14 -2.91,-4.37 -4.18,-6.56 l -10.17,-16.96 -27.16,43.29 h -24.89 l 38.88,-62.03 c 2.91,-4.68 6.99,-8.85 13.53,-8.85 6.36,0 10.45,3.85 13.44,8.85 l 37.79,62.03 z"
   id="path568" />
		<path
   d="m 617.11,350.44 -11.54,-17.28 h -27.43 v 17.28 h -20.98 v -36.42 h 54.95 c 5,0 7.72,-1.98 7.72,-6.56 0,-4.48 -2.73,-6.35 -7.72,-6.35 h -54.86 l 13.72,-20.29 h 38.52 c 13.72,0 32.16,4.68 32.16,25.29 0,10.41 -5.36,19.57 -14.81,22.17 1.63,1.25 5.72,5.41 13.99,16.44 l 4.36,5.72 z"
   id="path570" />
		<path
   d="m 652.35,350.44 v -69.62 h 20.98 v 69.62 z"
   id="path572" />
		<path
   d="m 681.59,350.44 13.53,-19.98 H 741 c 2.72,0 4.27,-1.14 4.27,-3.64 0,-2.5 -1.54,-3.64 -4.45,-3.64 h -34.34 c -15.71,0 -22.89,-8.43 -22.89,-20.19 0,-14.05 7.63,-22.17 26.61,-22.17 h 53.59 l -13.54,20.29 h -42.06 c -2.82,0 -4.27,0.83 -4.27,3.33 0,2.5 1.45,3.43 4.27,3.43 h 34.52 c 14.71,0 22.8,6.56 22.8,19.25 0,14.36 -6,23.31 -24.8,23.31 h -59.12 z"
   id="path574" />
		<path
   d="m 817.48,351.58 c -30.16,0 -45.33,-11.14 -45.33,-36.01 0,-24.87 15.17,-35.9 45.33,-35.9 30.16,0 45.42,11.03 45.42,35.9 -0.01,24.88 -15.27,36.01 -45.42,36.01 z m 0,-51.62 c -18.17,0 -24.34,1.77 -24.34,15.61 0,13.74 6.18,15.71 24.34,15.71 18.26,0 24.43,-1.98 24.43,-15.71 0,-13.84 -6.17,-15.61 -24.43,-15.61 z"
   id="path576" />
		<path
   d="M 894.32,350.44 V 301.11 H 866.7 l 13.63,-20.29 H 949 l -13.63,20.29 h -19.98 v 49.33 z"
   id="path578" />
	</g>
	<rect
   x="661.53998"
   y="187.74001"
   width="13.41"
   height="8.9399996"
   id="rect582" />
	<path
   class="st0"
   d="m 159.11,237.67 h -15.14 l 92.61,97.06 c 11.05,11.23 11.58,13.36 24.04,13.36 h 16.03 L 186,253.36 c -11.05,-11.23 -12.64,-15.69 -26.89,-15.69 z"
   id="path584" />
	<linearGradient
   id="SVGID_1_"
   gradientUnits="userSpaceOnUse"
   x1="136.1398"
   y1="222.46519"
   x2="330.83841"
   y2="222.46519">
		<stop
   offset="0.0104"
   style="stop-color:#430287"
   id="stop586" />
		<stop
   offset="0.2711"
   style="stop-color:#6803B3"
   id="stop588" />
		<stop
   offset="0.5112"
   style="stop-color:#8505D5"
   id="stop590" />
		<stop
   offset="0.6411"
   style="stop-color:#9005E2"
   id="stop592" />
	</linearGradient>
	<path
   class="st1"
   d="m 264.19,281.3 c 18.7,0 -3.79,1.35 14.11,0.46 15.12,-0.75 24.77,-7.73 30.43,-13.4 5.67,-5.67 10.12,-12.27 13.23,-19.64 3.23,-7.63 4.87,-15.73 4.87,-24.06 0,-8.33 -1.64,-16.43 -4.87,-24.06 -3.11,-7.36 -7.57,-13.97 -13.23,-19.64 -5.67,-5.67 -12.27,-10.12 -19.64,-13.23 -7.63,-3.23 -15.73,-4.87 -24.06,-4.87 h -132.9 v 0 c 0,26.99 21.88,48.87 48.87,48.87 h 83.66 c 6.95,0 12.94,5.33 13.28,12.27 0.37,7.42 -5.57,13.58 -12.91,13.58 l -79.21,-0.81 30.57,32.78 c 0,0 9.5,11.75 26.41,11.75 11.59,0 21.39,0 21.39,0 z"
   id="path595"
   style="fill:url(#SVGID_1_)" />
	
		<linearGradient
   id="SVGID_00000047742477997401004880000016969941742319912333_"
   gradientUnits="userSpaceOnUse"
   x1="208.0757"
   y1="294.181"
   x2="254.89481"
   y2="244.3591">
		<stop
   offset="0.2661"
   style="stop-color:#1B0035"
   id="stop597" />
		<stop
   offset="0.8897"
   style="stop-color:#9005E2"
   id="stop599" />
	</linearGradient>
	<path
   style="fill:url(#SVGID_00000047742477997401004880000016969941742319912333_)"
   d="m 194.07,237.59 h 49.17 l 45.1,42.67 c 0,0 -8.4,1.55 -11.63,1.56 -3.23,0.01 -40.98,0.27 -40.98,0.27 z"
   id="path602" />
	<path
   class="st0"
   d="m 199.94,236.78 -15.32,-0.08 92.79,97.14 c 11.05,11.23 11.58,13.36 24.04,13.36 h 16.03 l -90.65,-94.73 c -11.05,-11.23 -12.64,-15.69 -26.89,-15.69 z"
   id="path604" />
	
		<linearGradient
   id="SVGID_00000176045127943107030120000009003668683683178117_"
   gradientUnits="userSpaceOnUse"
   x1="143.6646"
   y1="309.75049"
   x2="187.60851"
   y2="309.75049">
		<stop
   offset="0.0104"
   style="stop-color:#430287"
   id="stop606" />
		<stop
   offset="1"
   style="stop-color:#A600F5"
   id="stop608" />
	</linearGradient>
	<path
   style="fill:url(#SVGID_00000176045127943107030120000009003668683683178117_)"
   d="m 143.8,269.64 c 0.04,19.3 -0.13,35.02 -0.13,54.32 0,14.25 11,25.91 24.93,25.82 13.94,-0.08 4.47,0.08 19.01,0.08 0,0 0,-3.56 0,-19.59 0,-14.25 -5.34,-19.59 -14.25,-30.28 -8.9,-10.68 -29.56,-30.35 -29.56,-30.35 z"
   id="path611" />
</g>
</svg>
