<?xml version="1.0" encoding="utf-8"?>
<!-- Generator: Adobe Illustrator 27.3.1, SVG Export Plug-In . SVG Version: 6.00 Build 0)  -->
<svg version="1.1" id="Calque_1" xmlns="http://www.w3.org/2000/svg" xmlns:xlink="http://www.w3.org/1999/xlink" x="0px" y="0px"
	 viewBox="0 0 1080 1080" style="enable-background:new 0 0 1080 1080;" xml:space="preserve">
<style type="text/css">
	.st0{fill:#F05922;}
	.st1{fill:url(#SVGID_1_);}
	.st2{fill:url(#SVGID_00000044179196059506384960000014544677330382442648_);}
	.st3{fill:url(#SVGID_00000006689012608476479390000009199364090644450482_);}
</style>
<path class="st0" d="M252.87,464.2h-61.75l377.75,395.91c45.06,45.79,47.22,54.48,98.07,54.48h65.38L362.54,528.2
	C317.48,482.41,310.99,464.2,252.87,464.2z"/>
<linearGradient id="SVGID_1_" gradientUnits="userSpaceOnUse" x1="159.1622" y1="402.1887" x2="953.3448" y2="402.1887">
	<stop  offset="0.0104" style="stop-color:#430287"/>
	<stop  offset="0.2711" style="stop-color:#6803B3"/>
	<stop  offset="0.5112" style="stop-color:#8505D5"/>
	<stop  offset="0.6411" style="stop-color:#9005E2"/>
</linearGradient>
<path class="st1" d="M681.47,642.18c76.28,0-15.46,5.5,57.56,1.87c61.68-3.07,101.02-31.52,124.14-54.64
	c23.12-23.12,41.28-50.06,53.98-80.09c13.17-31.14,19.85-64.16,19.85-98.15s-6.68-67.01-19.85-98.15
	c-12.7-30.03-30.86-56.98-53.98-80.09c-23.12-23.12-50.06-41.28-80.09-53.98c-31.14-13.17-64.16-19.85-98.15-19.85H142.82v0
	c0,110.09,89.25,199.34,199.34,199.34H683.4c28.36,0,52.79,21.75,54.19,50.07c1.49,30.27-22.71,55.38-52.66,55.38l-323.09-3.32
	l124.71,133.69c0,0,38.74,47.92,107.75,47.92C641.52,642.18,681.47,642.18,681.47,642.18z"/>
<linearGradient id="SVGID_00000045615114056881037820000008955975514260447152_" gradientUnits="userSpaceOnUse" x1="452.591" y1="694.7201" x2="643.5678" y2="491.495">
	<stop  offset="0.2661" style="stop-color:#1B0035"/>
	<stop  offset="0.8897" style="stop-color:#9005E2"/>
</linearGradient>
<path style="fill:url(#SVGID_00000045615114056881037820000008955975514260447152_);" d="M395.46,463.89h200.58l183.97,174.04
	c0,0-34.26,6.33-47.44,6.38c-13.18,0.06-167.15,1.09-167.15,1.09L395.46,463.89z"/>
<path class="st0" d="M419.41,460.57l-62.48-0.31l378.48,396.22c45.06,45.79,47.22,54.48,98.07,54.48h65.38L529.08,524.57
	C484.02,478.78,477.53,460.57,419.41,460.57z"/>
<linearGradient id="SVGID_00000049925513785641915250000002660850469518572183_" gradientUnits="userSpaceOnUse" x1="189.8561" y1="758.2289" x2="369.1048" y2="758.2289">
	<stop  offset="0.0104" style="stop-color:#430287"/>
	<stop  offset="1" style="stop-color:#A600F5"/>
</linearGradient>
<path style="fill:url(#SVGID_00000049925513785641915250000002660850469518572183_);" d="M190.4,594.6
	c0.18,78.71-0.54,142.87-0.54,221.58c0,58.12,44.86,105.67,101.7,105.33s18.22,0.34,77.55,0.34c0,0,0-14.53,0-79.91
	c0-58.12-21.79-79.91-58.12-123.49S190.4,594.6,190.4,594.6z"/>
</svg>
