<?xml version="1.0" standalone="no"?>
<!DOCTYPE svg PUBLIC "-//W3C//DTD SVG 20010904//EN"
 "http://www.w3.org/TR/2001/REC-SVG-20010904/DTD/svg10.dtd">
<svg version="1.0" xmlns="http://www.w3.org/2000/svg"
 width="700.000000pt" height="700.000000pt" viewBox="0 0 700.000000 700.000000"
 preserveAspectRatio="xMidYMid meet">
<metadata>
Created by potrace 1.14, written by Peter Selinger 2001-2017
</metadata>
<g transform="translate(0.000000,700.000000) scale(0.100000,-0.100000)"
fill="#000000" stroke="none">
<path d="M929 5953 c-2 -39 -1 -70 5 -122 44 -394 265 -748 600 -958 115 -72
308 -150 416 -168 25 -4 53 -9 64 -11 79 -15 269 -17 1311 -19 l1180 -1 57
-23 c69 -27 155 -107 188 -176 20 -41 24 -66 24 -140 1 -80 -2 -96 -27 -145
-40 -77 -91 -127 -167 -163 l-65 -31 -310 1 c-279 1 -824 7 -1607 18 -153 2
-278 2 -278 0 0 -4 37 -44 230 -245 92 -96 182 -191 200 -210 18 -19 112 -118
210 -220 98 -102 192 -201 210 -220 18 -19 114 -120 214 -224 99 -104 201
-210 226 -236 25 -26 119 -125 210 -220 91 -95 185 -194 210 -220 25 -26 122
-128 216 -226 203 -212 355 -372 414 -434 108 -115 282 -290 335 -338 122
-111 176 -124 533 -126 150 -1 276 0 281 4 5 3 -41 57 -101 120 -61 63 -156
162 -211 220 -55 58 -152 159 -216 226 -157 162 -472 492 -544 568 -32 33
-127 132 -210 220 -309 323 -345 361 -342 364 1 1 139 3 306 4 418 1 560 22
754 113 305 142 578 450 715 805 18 47 36 99 41 115 33 126 49 202 55 256 3
35 8 67 11 71 6 11 4 276 -2 328 -67 522 -347 961 -782 1223 -167 101 -405
190 -569 212 -27 4 -60 10 -74 13 -14 4 -854 8 -1867 9 -1760 3 -1843 3 -1844
-14z"/>
<path d="M1266 3962 c25 -25 292 -304 394 -412 43 -45 487 -511 615 -645 98
-102 376 -394 412 -432 35 -37 293 -308 441 -462 29 -30 122 -127 205 -215
337 -355 544 -566 605 -619 103 -88 176 -103 530 -106 150 -1 272 0 272 3 0 3
-17 23 -37 45 -32 32 -214 222 -418 436 -86 89 -397 415 -450 470 -88 91 -398
415 -454 474 -29 31 -99 103 -155 161 -176 184 -470 491 -510 534 -173 183
-425 444 -541 561 -218 219 -259 233 -679 235 l-260 1 30 -29z"/>
<path d="M1238 3133 c-2 -4 -5 -339 -6 -743 -2 -607 0 -748 12 -811 50 -262
230 -461 478 -529 64 -17 110 -20 358 -23 157 -2 292 -2 300 0 13 4 15 42 14
275 -1 150 -5 308 -8 352 -9 138 -54 266 -138 397 -28 43 -165 218 -188 239
-3 3 -30 34 -60 70 -82 97 -322 351 -456 484 -7 6 -77 75 -157 154 -80 79
-147 140 -149 135z"/>
</g>
</svg>
